<?xml version="1.0" encoding="utf-8"?>
<!-- Generator: Adobe Illustrator 27.7.0, SVG Export Plug-In . SVG Version: 6.00 Build 0)  -->
<svg version="1.1" id="Capa_1" xmlns="http://www.w3.org/2000/svg" xmlns:xlink="http://www.w3.org/1999/xlink" x="0px" y="0px"
	 viewBox="0 0 783.8 957.6" style="enable-background:new 0 0 783.8 957.6;" xml:space="preserve">
<style type="text/css">
	.st0{fill:#3E6EB4;}
	.st1{fill:#1D1D1D;}
</style>
<g>
	<path class="st0" d="M731,108.4h-28v687.9c0,45.7-37.2,82.9-82.9,82.9H336.4H110.8v25.5c0,29.2,23.7,52.9,52.9,52.9h283.6h283.6
		c29.2,0,52.9-23.7,52.9-52.9V161.3C783.8,132.1,760.2,108.4,731,108.4z"/>
	<path class="st1" d="M336.4,849.2H620c29.2,0,52.9-23.7,52.9-52.9V108.4V52.9C672.9,23.7,649.2,0,620,0H336.4h-94.3v17.5
		c0.2,1.8,0.3,3.7,0.3,5.6v115.3V168c0,41.1-33.4,74.5-74.5,74.5h-29.6H23c-1.5,0-3.1-0.1-4.6-0.2H0v554c0,29.2,23.7,52.9,52.9,52.9
		h58H336.4L336.4,849.2z M347.1,669.4H162.2c-13.8,0-25-11.2-25-25s11.2-25,25-25h185c13.8,0,25,11.2,25,25S360.9,669.4,347.1,669.4
		z M532.1,541.8H162.2c-13.8,0-25-11.2-25-25s11.2-25,25-25h369.9c13.8,0,25,11.2,25,25S545.9,541.8,532.1,541.8z M162.2,356.3
		h369.9c13.8,0,25,11.2,25,25s-11.2,25-25,25H162.2c-13.8,0-25-11.2-25-25S148.4,356.3,162.2,356.3z"/>
	<path class="st1" d="M23,212.5h144.9c0.1,0,0.3,0,0.4,0c24.2-0.2,43.8-19.8,44-44c0-0.1,0-0.3,0-0.4v-145c0-13.4-11-22.3-22.4-22.3
		c-5.5,0-11,2-15.6,6.6L7.2,174.5C-6.8,188.5,3.1,212.5,23,212.5z"/>
</g>
</svg>
