<?xml version="1.0" encoding="utf-8"?>
<!-- Generator: Adobe Illustrator 27.7.0, SVG Export Plug-In . SVG Version: 6.00 Build 0)  -->
<svg version="1.1" id="Capa_1" xmlns="http://www.w3.org/2000/svg" xmlns:xlink="http://www.w3.org/1999/xlink" x="0px" y="0px"
	 viewBox="0 0 512 512.2" style="enable-background:new 0 0 512 512.2;" xml:space="preserve">
<style type="text/css">
	.st0{fill:#3B71B8;}
	.st1{fill:#4A9279;}
</style>
<g>
	<path class="st0" d="M256,105.5c-83,0-150.5,67.5-150.5,150.5S173,406.5,256,406.5S406.5,339,406.5,256S339,105.5,256,105.5z
		 M267.5,306.7v15.5h-19.7v-14.8c-14-0.8-27.5-4.6-35.9-9.8l10.6-24c9.2,5.4,21.5,8.9,32.2,8.9c9.3,0,12.7-2,12.7-5.3
		c0-12.3-54-2.4-54-38.8c0-15.8,11.4-29,34.3-32.2V191h19.7v15c10.3,1,20.4,3.6,28.3,8.1l-9.9,23.9c-9.6-4.9-18.7-7.3-27.2-7.3
		c-9.6,0-12.7,2.8-12.7,6.1c0,11.7,54,2,54,38C300,289.8,289.1,303,267.5,306.7L267.5,306.7z"/>
	<path class="st1" d="M510.5,228.2l-29.8,3.3c5.6,50.5-6.4,102.1-33.6,145.3c-27.7,43.8-70,77-119.2,93.5
		C304.2,478.2,280,482,256,482c-69.2,0-136.4-31.5-179.8-86.6h29.7v-30H25.6v84h30v-31.6c28.6,34.9,66.6,62,109.6,78.1
		c29.1,10.8,59.8,16.3,90.5,16.3c27.6,0,55.2-4.4,81.5-13.2c55.8-18.7,103.7-56.3,135.1-106C503.3,343.9,516.8,285.4,510.5,228.2
		L510.5,228.2z"/>
	<path class="st1" d="M64,137.1c27.7-44.7,70.4-78.5,120.3-95.2c48.6-16.3,99.7-15.8,147.9,1.5c37.6,13.5,71.1,36.9,96.7,67.1h-28.6
		v30h81.2V60.3h-30v30.3c-28.9-34-66.7-60.3-109.1-75.5C287.7-4.4,229.8-5,174.7,13.4c-56.5,19-104.9,57.3-136.3,107.9
		C7.5,171.3-5.4,230.7,2.1,288.7l29.8-3.8C25.2,233.7,36.6,181.2,64,137.1L64,137.1z"/>
</g>
</svg>
