<?xml version="1.0" encoding="UTF-8" standalone="no"?>
<!-- Created with Inkscape (http://www.inkscape.org/) -->

<svg
   version="1.1"
   id="svg2"
   width="2602.5391"
   height="2384.6541"
   viewBox="0 0 2602.5391 2384.6541"
   sodipodi:docname="invest.svg"
   inkscape:version="1.2.2 (732a01da63, 2022-12-09)"
   xmlns:inkscape="http://www.inkscape.org/namespaces/inkscape"
   xmlns:sodipodi="http://sodipodi.sourceforge.net/DTD/sodipodi-0.dtd"
   xmlns="http://www.w3.org/2000/svg"
   xmlns:svg="http://www.w3.org/2000/svg">
  <defs
     id="defs6">
    <clipPath
       clipPathUnits="userSpaceOnUse"
       id="clipPath16">
      <path
         d="M 0,2500 H 2500 V 0 H 0 Z"
         id="path14" />
    </clipPath>
  </defs>
  <sodipodi:namedview
     id="namedview4"
     pagecolor="#ffffff"
     bordercolor="#000000"
     borderopacity="0.25"
     inkscape:showpageshadow="2"
     inkscape:pageopacity="0.0"
     inkscape:pagecheckerboard="0"
     inkscape:deskcolor="#d1d1d1"
     showgrid="false"
     inkscape:zoom="0.25110001"
     inkscape:cx="1190.7606"
     inkscape:cy="1200.7168"
     inkscape:window-width="1920"
     inkscape:window-height="1018"
     inkscape:window-x="1913"
     inkscape:window-y="-6"
     inkscape:window-maximized="1"
     inkscape:current-layer="g8" />
  <g
     id="g8"
     inkscape:groupmode="layer"
     inkscape:label="chcesz-zainwestowac"
     transform="matrix(1.3333333,0,0,-1.3333333,-365.39697,2869.3157)">
    <g
       id="g10">
      <g
         id="g12"
         clip-path="url(#clipPath16)">
        <g
           id="g18"
           transform="translate(2150.9573,1530.6475)">
          <path
             d="m 0,0 -554.213,-230.893 96.487,-87.695 -404.649,-402.625 -311.615,-4.204 c -28.253,-0.381 -55.209,-11.643 -74.997,-31.333 l -292.074,-290.612 c -3.021,-3.006 -5.793,-6.16 -8.367,-9.413 58.529,-42.272 122.689,-78.459 190.547,-108.012 l 231.958,230.798 311.616,4.203 c 28.253,0.382 55.208,11.643 74.997,31.333 l 439.47,437.274 104.471,-94.952 z"
             style="fill:#ffffff;fill-opacity:1;fill-rule:nonzero;stroke:none"
             id="path20" />
        </g>
        <g
           id="g22"
           transform="translate(792.0766,363.4963)">
          <path
             d="m 0,0 c -0.607,0 -1.214,0.233 -1.676,0.697 -0.921,0.925 -0.916,2.422 0.009,3.342 l 231.958,230.799 c 0.435,0.433 1.022,0.679 1.635,0.688 l 311.616,4.204 c 27.824,0.375 53.878,11.258 73.361,30.644 l 439.47,437.274 c 0.895,0.888 2.326,0.919 3.259,0.073 l 101.835,-92.558 193.414,547.761 -545.871,-227.418 93.734,-85.194 c 0.48,-0.435 0.759,-1.048 0.774,-1.695 0.014,-0.647 -0.238,-1.272 -0.696,-1.729 L 498.174,444.262 c -0.435,-0.433 -1.023,-0.68 -1.636,-0.688 L 184.924,439.37 c -27.826,-0.375 -53.88,-11.258 -73.364,-30.644 L -180.512,118.114 c -2.838,-2.823 -5.514,-5.834 -8.182,-9.205 -0.81,-1.024 -2.299,-1.195 -3.321,-0.387 -1.024,0.811 -1.197,2.298 -0.386,3.321 2.747,3.47 5.624,6.708 8.553,9.622 l 292.074,290.612 c 20.358,20.257 47.573,31.629 76.633,32.021 l 310.658,4.19 402.209,400.198 -94.648,86.023 c -0.599,0.544 -0.878,1.356 -0.74,2.153 0.139,0.797 0.675,1.467 1.42,1.778 l 554.213,230.893 c 0.863,0.358 1.855,0.178 2.535,-0.465 0.677,-0.642 0.915,-1.623 0.603,-2.504 L 1164.74,610.233 c -0.263,-0.746 -0.883,-1.311 -1.652,-1.505 -0.763,-0.193 -1.58,0.011 -2.166,0.543 L 1058.115,702.711 620.237,267.023 C 599.88,246.766 572.665,235.394 543.606,235.002 L 232.947,230.812 1.668,0.688 C 1.206,0.229 0.602,0 0,0"
             style="fill:#000000;fill-opacity:1;fill-rule:nonzero;stroke:none"
             id="path24" />
        </g>
        <g
           id="g26"
           transform="translate(302.1694,1434.1265)">
          <path
             d="M 0,0 1133.22,431.527 331.609,-632.492 c 0,0 -344.271,94.511 -268.532,299.29 75.739,204.78 70.71,221.153 15.974,220.746 C 24.978,-112.858 -5.67,-85.617 -21.376,-55.295 -32.268,-34.268 -22.131,-8.427 0,0"
             style="fill:#caddff;fill-opacity:1;fill-rule:nonzero;stroke:none"
             id="path28" />
        </g>
        <g
           id="g30"
           transform="translate(383.0111,1324.0413)">
          <path
             d="m 0,0 c 17.587,0 29.843,-2.056 36.445,-11.46 13.509,-19.248 1.848,-66.907 -51.993,-212.477 -16.036,-43.357 -14.031,-85.086 5.961,-124.026 56.617,-110.279 240.661,-166.266 259.444,-171.726 L 1045.557,536.485 -80.001,107.876 c -10.023,-3.816 -17.964,-11.754 -21.789,-21.779 -3.77,-9.878 -3.16,-20.893 1.672,-30.22 C -86.792,30.149 -58.86,-0.438 -1.807,-0.007 -1.199,-0.002 -0.597,0 0,0 m 250.767,-524.771 c -0.207,0 -0.419,0.028 -0.625,0.084 -2.029,0.557 -203.61,57.064 -263.934,174.565 -20.622,40.167 -22.705,83.173 -6.19,127.825 52.533,142.034 64.812,190.66 52.557,208.121 -5.638,8.033 -17.323,9.573 -34.348,9.442 -59.402,-0.433 -88.608,31.534 -102.544,58.437 -5.45,10.522 -6.139,22.944 -1.89,34.079 4.305,11.282 13.243,20.217 24.523,24.512 l 1133.221,431.528 c 0.989,0.375 2.101,0.052 2.731,-0.789 0.633,-0.843 0.633,-2.002 -10e-4,-2.843 L 252.656,-523.83 c -0.454,-0.602 -1.158,-0.941 -1.889,-0.941"
             style="fill:#000000;fill-opacity:1;fill-rule:nonzero;stroke:none"
             id="path32" />
        </g>
        <g
           id="g34"
           transform="translate(494.0531,1390.936)">
          <path
             d="m 0,0 c -0.882,0 -1.728,0.496 -2.133,1.344 -0.564,1.178 -0.066,2.589 1.112,3.153 l 330.703,158.202 c 1.173,0.564 2.589,0.066 3.152,-1.112 0.565,-1.178 0.066,-2.59 -1.111,-3.153 L 1.019,0.232 C 0.69,0.074 0.343,0 0,0"
             style="fill:#000000;fill-opacity:1;fill-rule:nonzero;stroke:none"
             id="path36" />
        </g>
        <g
           id="g38"
           transform="translate(1333.9675,1433.4349)">
          <path
             d="m 0,0 c 1.777,-0.726 3.325,-1.888 4.567,-3.353 25.195,-29.73 57.386,-74.614 82.231,-135.147 29.615,-72.152 36.72,-137.123 37.753,-180.623 0.129,-5.419 -4.062,-8.771 -8.395,-12.028 -60.781,-45.697 -178.481,-92.167 -272.126,-123.88 -93.11,-31.532 -195.027,-34.324 -288.137,-65.856 -6.126,-2.075 -12.816,0.924 -15.344,6.878 -9.056,21.332 -18.113,42.665 -27.169,63.997 -1.95,4.593 -0.947,9.895 2.533,13.47 42.388,43.538 125.829,115.735 251.145,148.784 43.404,11.447 83.451,15.988 117.868,17.031 10.447,0.316 15.763,12.684 8.85,20.523 l -75.7,85.84 c -4.37,4.954 -3.999,12.475 0.821,16.993 0.037,0.035 0.075,0.07 0.112,0.105 C -96.078,-67.629 -83.524,-2.254 -35.239,5.043 -27.463,6.218 -15.578,6.368 0,0"
             style="fill:#000000;fill-opacity:1;fill-rule:nonzero;stroke:none"
             id="path40" />
        </g>
        <g
           id="g42"
           transform="translate(597.1736,679.9144)">
          <path
             d="m 0,0 -86.375,-129.397 -37.692,60.653 76.527,126.857 z"
             style="fill:#ffffff;fill-opacity:1;fill-rule:nonzero;stroke:none"
             id="path44" />
        </g>
        <g
           id="g46"
           transform="translate(475.8774,611.189)">
          <path
             d="m 0,0 34.993,-56.307 83.366,124.89 -44.31,54.165 z m 34.921,-63.035 c -0.012,0 -0.025,0 -0.038,10e-4 -0.803,0.013 -1.545,0.433 -1.969,1.115 L -4.778,-1.266 c -0.47,0.754 -0.476,1.708 -0.018,2.469 L 71.731,128.06 c 0.397,0.657 1.09,1.082 1.856,1.136 0.784,0.06 1.512,-0.267 1.998,-0.861 l 47.541,-58.113 c 0.658,-0.805 0.713,-1.945 0.136,-2.809 L 36.887,-61.983 c -0.439,-0.658 -1.176,-1.052 -1.966,-1.052"
             style="fill:#000000;fill-opacity:1;fill-rule:nonzero;stroke:none"
             id="path48" />
        </g>
        <g
           id="g50"
           transform="translate(538.8945,569.2168)">
          <path
             d="m 0,0 c -23.217,-40.446 -81.678,-138.401 -134.59,-183.617 -12.901,-11.026 -32.936,-4.092 -36.124,12.577 -11.417,59.691 -13.254,182.527 51.192,274.761 0,0 27.682,1.299 78.346,-11.897 l -14.763,-47.332 6.618,4.065 c 9.959,6.117 22.806,4.651 31.13,-3.553 L -4.281,31.297 C 4.094,23.044 5.854,10.198 0,0"
             style="fill:#000000;fill-opacity:1;fill-rule:nonzero;stroke:none"
             id="path52" />
        </g>
        <g
           id="g54"
           transform="translate(397.4173,401.2923)">
          <path
             d="m 0,0 c -1.016,0 -1.954,0.66 -2.262,1.683 -36.518,121.358 33.357,255.994 34.068,257.34 0.61,1.154 2.04,1.597 3.193,0.988 1.155,-0.609 1.597,-2.039 0.988,-3.193 C 35.286,255.489 -33.688,122.524 2.264,3.045 2.641,1.795 1.932,0.477 0.682,0.101 0.455,0.032 0.226,0 0,0"
             style="fill:#ffffff;fill-opacity:1;fill-rule:nonzero;stroke:none"
             id="path56" />
        </g>
        <g
           id="g58"
           transform="translate(504.9588,510.5685)">
          <path
             d="m 0,0 c -0.494,0 -0.993,0.155 -1.418,0.475 l -36.764,27.653 c -1.043,0.784 -1.253,2.266 -0.469,3.31 0.786,1.042 2.266,1.253 3.31,0.468 L 1.423,4.252 C 2.466,3.468 2.677,1.986 1.892,0.943 1.427,0.325 0.718,0 0,0"
             style="fill:#ffffff;fill-opacity:1;fill-rule:nonzero;stroke:none"
             id="path60" />
        </g>
        <g
           id="g62"
           transform="translate(483.3309,477.71)">
          <path
             d="m 0,0 c -0.556,0 -1.115,0.196 -1.565,0.593 l -33.408,29.544 c -0.978,0.864 -1.069,2.359 -0.205,3.336 0.866,0.978 2.357,1.071 3.337,0.205 L 1.567,4.134 C 2.545,3.27 2.636,1.776 1.772,0.798 1.304,0.27 0.655,0 0,0"
             style="fill:#ffffff;fill-opacity:1;fill-rule:nonzero;stroke:none"
             id="path64" />
        </g>
        <g
           id="g66"
           transform="translate(526.5391,721.624)">
          <path
             d="m 0,0 73.374,-65.937 769.567,755.289 c 0,0 -161.855,132.41 -334.104,36.602 0,0 -156.713,-140.972 -202.409,-275.96 C 260.732,315.007 183.886,339.994 125.76,246.421 67.633,152.848 0,0 0,0"
             style="fill:#000000;fill-opacity:1;fill-rule:nonzero;stroke:none"
             id="path68" />
        </g>
        <g
           id="g70"
           transform="translate(1039.8904,1085.1375)">
          <path
             d="m 0,0 c -0.612,0 -1.224,0.237 -1.687,0.708 -0.914,0.932 -0.901,2.429 0.031,3.343 l 212.414,208.473 c 0.931,0.915 2.428,0.902 3.344,-0.031 0.914,-0.931 0.9,-2.428 -0.031,-3.342 L 1.656,0.677 C 1.196,0.225 0.598,0 0,0"
             style="fill:#ffffff;fill-opacity:1;fill-rule:nonzero;stroke:none"
             id="path72" />
        </g>
        <g
           id="g74"
           transform="translate(957.3839,1004.1626)">
          <path
             d="M 0,0 C -0.612,0 -1.225,0.237 -1.687,0.708 -2.602,1.64 -2.588,3.136 -1.656,4.05 l 35.044,34.393 c 0.93,0.915 2.427,0.902 3.343,-0.031 0.914,-0.931 0.9,-2.428 -0.031,-3.342 L 1.656,0.677 C 1.196,0.225 0.598,0 0,0"
             style="fill:#ffffff;fill-opacity:1;fill-rule:nonzero;stroke:none"
             id="path76" />
        </g>
        <g
           id="g78"
           transform="translate(599.913,653.3229)">
          <path
             d="m 0,0 c -0.612,0 -1.225,0.237 -1.687,0.708 -0.915,0.932 -0.901,2.428 0.031,3.343 l 337.978,331.707 c 0.93,0.915 2.427,0.902 3.344,-0.031 0.914,-0.931 0.9,-2.428 -0.032,-3.342 L 1.656,0.677 C 1.196,0.225 0.598,0 0,0"
             style="fill:#ffffff;fill-opacity:1;fill-rule:nonzero;stroke:none"
             id="path80" />
        </g>
        <g
           id="g82"
           transform="translate(2046.7792,2044.5315)">
          <path
             d="m 0,0 c 0,0 26.135,32.48 58.417,50.086 32.282,17.605 114.235,55.006 114.235,55.006 0,0 9.867,-15.071 -0.682,-26.916 C 161.421,66.331 101.693,20.45 98.976,16.088 96.259,11.725 72.008,-13.384 42.361,-17.778 12.715,-22.172 -7.119,-49.902 -7.119,-49.902 Z"
             style="fill:#ffffff;fill-opacity:1;fill-rule:nonzero;stroke:none"
             id="path84" />
        </g>
        <g
           id="g86"
           transform="translate(2049.0261,2043.5426)">
          <path
             d="m 0,0 -5.846,-40.974 c 7.976,8.721 24.209,23.351 45.614,26.523 28.142,4.171 51.972,27.987 54.955,32.777 1.297,2.083 9.391,8.763 28.948,24.656 17.194,13.971 38.59,31.359 44.287,37.755 7.262,8.155 3.45,18.268 1.444,22.285 C 156.684,97.193 86.351,64.842 57.302,48.999 27.948,32.991 3.42,4.125 0,0 m -9.367,-51.277 c -0.294,0 -0.592,0.055 -0.878,0.17 -1.011,0.405 -1.615,1.45 -1.46,2.528 l 7.118,49.902 c 0.061,0.42 0.233,0.817 0.498,1.147 1.079,1.342 26.803,33.051 59.127,50.68 31.986,17.444 113.565,54.706 114.385,55.081 1.059,0.484 2.318,0.121 2.958,-0.856 3.757,-5.736 8.404,-19.344 -0.893,-29.782 C 165.54,70.912 144.88,54.124 126.652,39.313 114.181,29.178 100.045,17.692 98.721,15.805 96.592,12.384 72.188,-14.425 40.46,-19.127 12.135,-23.325 -7.25,-50.019 -7.443,-50.288 c -0.455,-0.635 -1.179,-0.989 -1.924,-0.989"
             style="fill:#000000;fill-opacity:1;fill-rule:nonzero;stroke:none"
             id="path88" />
        </g>
        <g
           id="g90"
           transform="translate(2117.7358,2065.9333)">
          <path
             d="m 0,0 c -0.986,0 -1.906,0.621 -2.239,1.607 -0.418,1.236 0.245,2.578 1.482,2.997 14.484,4.899 18.888,10.263 23.549,15.941 3.314,4.035 6.739,8.208 13.637,12.109 7.7,4.356 11.05,8.118 12.505,10.623 L -15.647,22.962 c -1.245,-0.392 -2.573,0.299 -2.965,1.545 -0.391,1.245 0.301,2.572 1.545,2.964 l 68.746,21.625 c 0.652,0.205 1.358,0.119 1.939,-0.236 0.583,-0.354 0.983,-0.943 1.1,-1.615 0.156,-0.901 1.037,-9.09 -15.962,-18.706 C 32.627,25.072 29.624,21.416 26.447,17.545 21.567,11.603 16.522,5.459 0.757,0.125 0.507,0.041 0.25,0 0,0"
             style="fill:#000000;fill-opacity:1;fill-rule:nonzero;stroke:none"
             id="path92" />
        </g>
        <g
           id="g94"
           transform="translate(1407.1929,1357.196)">
          <path
             d="m 0,0 c 0,0 5.128,50.999 70.379,92.25 80.682,51.006 165.701,101.797 196.975,204.455 0,0 62.539,22.35 192.291,123.143 129.753,100.793 141.37,134.338 205.741,193.154 l -19.666,88.466 c 0,0 -336.527,-199.894 -379.685,-212.815 C 222.877,475.732 113.634,474.32 0.502,530.477 -47.591,554.349 -182.101,419.466 -182.101,419.466 c 0,0 10.498,-91.042 -14.386,-119.743 C -221.371,271.023 -384.995,157.068 -383.06,113.274 -381.124,69.48 -250.998,-65.664 0,0"
             style="fill:#4b937a;fill-opacity:1;fill-rule:nonzero;stroke:none"
             id="path96" />
        </g>
        <g
           id="g98"
           transform="translate(807.6029,1428.6434)">
          <path
             d="m 0,0 -23.311,4.78 c -6.298,1.291 -12.451,-2.768 -13.743,-9.066 l 46.12,-9.456 C 10.357,-7.444 6.299,-1.291 0,0"
             style="fill:#ffffff;fill-opacity:1;fill-rule:nonzero;stroke:none"
             id="path100" />
        </g>
        <g
           id="g102"
           transform="translate(773.6353,1426.1375)">
          <path
             d="m 0,0 40.897,-8.386 c -0.088,1.625 -0.604,3.203 -1.524,4.597 -1.364,2.069 -3.453,3.482 -5.88,3.979 L 10.182,4.97 C 7.748,5.469 5.278,4.991 3.209,3.626 1.815,2.706 0.719,1.459 0,0 m 43.035,-13.601 c -0.157,0 -0.317,0.016 -0.476,0.049 l -46.12,9.456 c -0.614,0.126 -1.153,0.491 -1.499,1.014 -0.345,0.523 -0.467,1.163 -0.341,1.777 0.751,3.664 2.884,6.817 6.007,8.877 3.122,2.06 6.858,2.78 10.525,2.029 l 23.31,-4.779 c 3.666,-0.752 6.819,-2.885 8.878,-6.008 2.06,-3.123 2.781,-6.86 2.029,-10.525 -0.228,-1.119 -1.214,-1.89 -2.313,-1.89"
             style="fill:#000000;fill-opacity:1;fill-rule:nonzero;stroke:none"
             id="path104" />
        </g>
        <g
           id="g106"
           transform="translate(994.4378,1390.335)">
          <path
             d="m 0,0 -23.311,4.78 c -6.298,1.291 -12.451,-2.768 -13.743,-9.066 l 46.12,-9.456 C 10.357,-7.444 6.298,-1.292 0,0"
             style="fill:#ffffff;fill-opacity:1;fill-rule:nonzero;stroke:none"
             id="path108" />
        </g>
        <g
           id="g110"
           transform="translate(960.4701,1387.829)">
          <path
             d="m 0,0 40.897,-8.386 c -0.088,1.625 -0.604,3.203 -1.524,4.597 -1.364,2.068 -3.452,3.481 -5.879,3.979 L 10.182,4.97 C 7.755,5.468 5.278,4.989 3.21,3.626 1.815,2.707 0.719,1.458 0,0 m 43.035,-13.601 c -0.157,0 -0.317,0.017 -0.476,0.049 L -3.56,-4.096 c -0.615,0.126 -1.154,0.491 -1.5,1.014 -0.345,0.523 -0.467,1.163 -0.341,1.777 C -3.85,6.26 3.572,11.148 11.131,9.602 L 34.443,4.822 V 4.821 c 3.665,-0.751 6.817,-2.885 8.877,-6.008 2.059,-3.121 2.78,-6.86 2.028,-10.524 -0.228,-1.119 -1.214,-1.89 -2.313,-1.89"
             style="fill:#000000;fill-opacity:1;fill-rule:nonzero;stroke:none"
             id="path112" />
        </g>
        <g
           id="g114"
           transform="translate(988.4786,1392.1971)">
          <path
             d="M 0,0 8.331,21.543 C 14.24,36.822 6.202,51.838 -9.623,55.082 l -139.791,28.663 c -15.825,3.245 -33.443,-6.511 -39.352,-21.789 l -8.331,-21.543 10.698,-2.194 6.484,16.767 c 4.599,11.891 18.311,19.484 30.628,16.958 L -18.188,45.064 C -5.872,42.538 0.385,30.852 -4.214,18.96 L -10.698,2.193 Z"
             style="fill:#000000;fill-opacity:1;fill-rule:nonzero;stroke:none"
             id="path116" />
        </g>
        <g
           id="g118"
           transform="translate(973.8072,1457.9423)">
          <path
             d="m 0,0 -122.795,25.178 c -4.948,1.014 -10.458,-2.036 -12.306,-6.814 l -4.005,-10.356 c -1.847,-4.778 0.666,-9.474 5.615,-10.488 l 122.795,-25.178 c 4.948,-1.015 10.458,2.036 12.305,6.814 l 4.006,10.356 C 7.462,-5.71 4.948,-1.015 0,0"
             style="fill:#c7e8cc;fill-opacity:1;fill-rule:nonzero;stroke:none"
             id="path120" />
        </g>
        <g
           id="g122"
           transform="translate(849.0888,1480.9492)">
          <path
             d="m 0,0 c -3.406,0 -6.933,-2.278 -8.177,-5.496 l -4.006,-10.356 c -0.647,-1.673 -0.591,-3.351 0.158,-4.722 0.727,-1.332 2.051,-2.254 3.726,-2.598 l 122.795,-25.177 c 3.803,-0.782 8.204,1.672 9.627,5.351 l 4.005,10.355 c 0.648,1.674 0.592,3.351 -0.157,4.723 -0.727,1.331 -2.051,2.254 -3.726,2.597 L 1.45,-0.145 C 0.973,-0.047 0.487,0 0,0 m 116.005,-53.228 c -0.82,0 -1.643,0.081 -2.457,0.247 L -9.247,-27.803 c -3.062,0.628 -5.523,2.391 -6.927,4.963 -1.427,2.613 -1.576,5.7 -0.418,8.693 l 4.006,10.357 c 2.28,5.896 8.871,9.527 14.984,8.277 l 122.795,-25.178 c 3.062,-0.628 5.523,-2.391 6.927,-4.964 1.427,-2.612 1.575,-5.7 0.417,-8.693 l -4.005,-10.356 c -1.977,-5.111 -7.187,-8.524 -12.527,-8.524"
             style="fill:#000000;fill-opacity:1;fill-rule:nonzero;stroke:none"
             id="path124" />
        </g>
        <g
           id="g126"
           transform="translate(954.669,1027.5688)">
          <path
             d="m 0,0 -359.045,73.618 c -21.554,4.42 -33.624,27.507 -24.952,47.728 l 108.766,253.627 c 9.146,21.329 32.025,33.29 54.76,28.629 L 87.503,340.455 Z"
             style="fill:#ffffff;fill-opacity:1;fill-rule:nonzero;stroke:none"
             id="path128" />
        </g>
        <g
           id="g130"
           transform="translate(724.4553,1429.7968)">
          <path
             d="m 0,0 c -18.292,0 -35.427,-10.887 -42.846,-28.186 l -108.765,-253.627 c -3.853,-8.983 -3.465,-19.102 1.063,-27.763 4.529,-8.661 12.617,-14.755 22.191,-16.718 L 228.485,-399.46 314.808,-63.59 9.268,-0.941 C 6.174,-0.307 3.069,0 0,0 m 230.216,-404.592 c -0.158,0 -0.317,0.016 -0.476,0.048 l -359.046,73.619 c -10.972,2.25 -20.242,9.233 -25.432,19.159 -5.188,9.926 -5.632,21.522 -1.217,31.816 L -47.19,-26.323 C -37.647,-4.068 -13.499,8.551 10.217,3.69 L 318.19,-59.457 c 0.635,-0.131 1.188,-0.515 1.53,-1.064 0.343,-0.548 0.446,-1.214 0.286,-1.841 l -87.502,-340.454 c -0.274,-1.063 -1.231,-1.776 -2.288,-1.776"
             style="fill:#000000;fill-opacity:1;fill-rule:nonzero;stroke:none"
             id="path132" />
        </g>
        <g
           id="g134"
           transform="translate(1000.6393,1018.143)">
          <path
             d="M 0,0 -69.676,14.286 C -91.23,18.706 -103.3,41.793 -94.628,62.014 L 25.17,341.367 c 2.723,6.351 9.537,9.913 16.307,8.525 l 17.918,-3.674 c 7.428,-1.523 12.444,-8.492 11.53,-16.019 L 33.781,24.314 C 31.787,7.896 16.201,-3.322 0,0"
             style="fill:#ffffff;fill-opacity:1;fill-rule:nonzero;stroke:none"
             id="path136" />
        </g>
        <g
           id="g138"
           transform="translate(1001.114,1020.4588)">
          <path
             d="m 0,0 c 7.182,-1.473 14.412,0.074 20.363,4.357 5.95,4.283 9.712,10.649 10.596,17.926 l 37.145,305.885 c 0.759,6.259 -3.482,12.153 -9.658,13.419 l -17.919,3.674 c -5.654,1.162 -11.39,-1.847 -13.66,-7.141 L -92.931,58.767 c -3.851,-8.983 -3.464,-19.102 1.064,-27.763 4.528,-8.661 12.616,-14.755 22.19,-16.718 z m 5.181,-5.253 c -2.046,0 -4.1,0.205 -6.13,0.621 L -70.626,9.655 c -10.972,2.25 -20.241,9.233 -25.43,19.159 -5.189,9.925 -5.634,21.522 -1.219,31.816 L 22.522,339.982 c 3.151,7.348 11.118,11.517 18.954,9.91 l 17.918,-3.674 c 8.57,-1.757 14.457,-9.936 13.403,-18.62 L 35.652,21.713 C 34.623,13.235 30.057,5.51 23.125,0.521 17.875,-3.258 11.567,-5.253 5.181,-5.253"
             style="fill:#000000;fill-opacity:1;fill-rule:nonzero;stroke:none"
             id="path140" />
        </g>
        <g
           id="g142"
           transform="translate(945.1117,1243.5349)">
          <path
             d="M 0,0 C -1.392,0 -2.801,0.14 -4.21,0.429 L -285.332,58.07 c -1.279,0.262 -2.103,1.511 -1.841,2.79 0.261,1.278 1.514,2.098 2.79,1.841 L -3.262,5.06 c 7.296,-1.492 14.577,2.176 17.713,8.927 l 46.23,99.531 c 0.548,1.185 1.951,1.697 3.14,1.148 1.184,-0.55 1.697,-1.956 1.147,-3.139 L 18.738,11.996 C 15.281,4.553 7.934,0 0,0"
             style="fill:#000000;fill-opacity:1;fill-rule:nonzero;stroke:none"
             id="path144" />
        </g>
        <g
           id="g146"
           transform="translate(839.2684,1264.7847)">
          <path
             d="m 0,0 -14.387,-30.15 c -2.375,-5.113 -7.952,-7.925 -13.475,-6.792 l -55.678,11.416 c -6.062,1.243 -9.269,7.924 -6.447,13.431 l 14.165,27.641 z"
             style="fill:#c7e8cc;fill-opacity:1;fill-rule:nonzero;stroke:none"
             id="path148" />
        </g>
        <g
           id="g150"
           transform="translate(764.731,1277.6549)">
          <path
             d="m 0,0 -13.346,-26.044 c -1.005,-1.961 -1.035,-4.226 -0.08,-6.213 0.953,-1.987 2.738,-3.381 4.898,-3.823 L 47.15,-47.497 c 4.472,-0.919 8.934,1.334 10.857,5.473 l 13.095,27.445 z m 49.155,-52.429 c -0.977,0 -1.965,0.098 -2.954,0.301 l -55.678,11.416 c -3.621,0.743 -6.613,3.078 -8.212,6.409 -1.598,3.331 -1.549,7.127 0.135,10.415 L -3.389,3.755 c 0.485,0.945 1.545,1.448 2.579,1.237 l 75.821,-15.546 c 0.713,-0.147 1.318,-0.612 1.643,-1.263 0.323,-0.651 0.33,-1.415 0.016,-2.071 l -14.387,-30.15 c -2.414,-5.2 -7.565,-8.391 -13.128,-8.391"
             style="fill:#000000;fill-opacity:1;fill-rule:nonzero;stroke:none"
             id="path152" />
        </g>
        <g
           id="g154"
           transform="translate(885.5534,1067.0974)">
          <path
             d="m 0,0 c -0.157,0 -0.317,0.016 -0.477,0.048 l -298.651,61.236 c -1.279,0.262 -2.103,1.512 -1.841,2.79 0.262,1.279 1.519,2.1 2.79,1.841 L 0.472,4.68 C 1.751,4.417 2.575,3.168 2.313,1.889 2.084,0.771 1.099,0 0,0"
             style="fill:#000000;fill-opacity:1;fill-rule:nonzero;stroke:none"
             id="path156" />
        </g>
        <g
           id="g158"
           transform="translate(911.9929,1559.1542)">
          <path
             d="m 0,0 -44.007,-54.223 c 0,0 -11.569,-37.047 -8.719,-51.969 2.85,-14.922 43.549,-30.527 73.385,-16.433 0,0 -16.062,21.213 -11.004,32.108 l 28.52,7.928 -11.453,42.732 11.453,27.515 z"
             style="fill:#ffffff;fill-opacity:1;fill-rule:nonzero;stroke:none"
             id="path160" />
        </g>
        <g
           id="g162"
           transform="translate(870.1107,1503.7987)">
          <path
             d="m 0,0 c -1.262,-4.143 -11.067,-37.061 -8.521,-50.393 0.802,-4.201 5.74,-8.977 13.208,-12.774 13.962,-7.098 35.774,-10.603 54.231,-3.112 -4.316,6.243 -14.133,22.185 -9.526,32.113 0.292,0.628 0.844,1.096 1.512,1.282 l 26.264,7.301 -10.846,40.47 c -0.135,0.504 -0.1,1.038 0.1,1.52 L 76.889,41.553 42.697,52.608 Z m 36.345,-75.166 c -12.595,0 -24.748,3.182 -33.801,7.785 -9.023,4.588 -14.603,10.307 -15.71,16.102 -2.927,15.327 8.306,51.581 8.785,53.117 0.089,0.285 0.232,0.552 0.421,0.784 l 44.007,54.223 c 0.616,0.758 1.636,1.06 2.562,0.759 L 80.784,45.262 c 0.628,-0.203 1.143,-0.659 1.42,-1.26 0.276,-0.599 0.29,-1.287 0.036,-1.897 L 71.096,15.333 82.34,-26.622 c 0.336,-1.252 -0.4,-2.542 -1.65,-2.889 l -27.377,-7.61 c -2.495,-8.161 7.052,-23.352 11.113,-28.722 0.43,-0.568 0.581,-1.299 0.411,-1.99 -0.17,-0.691 -0.642,-1.27 -1.285,-1.574 -8.61,-4.066 -18.027,-5.759 -27.207,-5.759"
             style="fill:#000000;fill-opacity:1;fill-rule:nonzero;stroke:none"
             id="path164" />
        </g>
        <g
           id="g166"
           transform="translate(1435.3898,1865.6536)">
          <path
             d="m 0,0 c 0,0 -11.233,30.796 -110.64,42.102 -99.406,11.306 -162.731,-56.561 -187.993,-70.777 -25.263,-14.216 -130.651,-52.526 -170.881,-112.971 -40.229,-60.445 -92.639,-171.423 -92.639,-171.423 l 92.419,-22.333 c 0,0 95.662,124.29 207.827,166.829 C -149.742,-126.034 -0.043,-85.132 0,0"
             style="fill:#4b937a;fill-opacity:1;fill-rule:nonzero;stroke:none"
             id="path168" />
        </g>
        <g
           id="g170"
           transform="translate(1226.8361,1718.9844)">
          <path
             d="M 0,0 C 0.501,0 0.996,-0.159 1.409,-0.466 2.045,-0.938 2.403,-1.698 2.36,-2.49 0.781,-32.086 -4.839,-52.651 -14.345,-63.613 c -7.62,-8.789 -27.264,-24.814 -52.134,-45.102 -53.824,-43.907 -135.163,-110.261 -133.863,-139.695 0.662,-14.99 17.989,-43.375 54.465,-70.272 37.821,-27.886 144.955,-87.594 324.106,-41.218 1.475,9.312 11.547,54.619 71.245,92.359 l 8.064,5.092 c 77.645,48.992 157.933,99.651 187.912,198.054 0.219,0.715 0.762,1.285 1.465,1.536 0.623,0.224 63.809,23.488 191.637,122.786 84.945,65.985 118.409,102.276 150.773,137.373 16.508,17.902 32.114,34.826 53.814,54.735 l -18.663,83.946 C 789.755,315.384 488.408,136.976 447.07,124.6 401.26,110.884 292.276,110.744 179.807,166.571 c -0.747,0.371 -1.581,0.713 -2.627,1.075 -19.854,8.732 -46.553,15.026 -79.532,18.776 -79.526,9.043 -134.735,-32.459 -167.723,-57.258 -7.762,-5.835 -13.893,-10.444 -18.845,-13.23 -5.085,-2.862 -13.203,-6.609 -23.478,-11.353 -40.087,-18.505 -114.703,-52.95 -146.594,-100.867 -36.251,-54.468 -83.024,-151.349 -91.22,-168.5 l 88.111,-21.293 c 10.312,13.011 102.342,126.348 207.91,166.385 15.031,5.7 30.388,11.246 46.646,17.118 l 6.742,2.435 C -0.542,-0.046 -0.27,0 0,0 m 50.661,-381.851 c -24.377,0 -48.006,2.052 -70.803,6.163 -61.699,11.128 -103.956,35.073 -128.541,53.202 -37.929,27.968 -55.648,57.252 -56.382,73.867 -1.404,31.805 77.78,96.401 135.598,143.567 23.716,19.347 44.198,36.056 51.551,44.535 8.428,9.721 13.584,28.119 15.342,54.71 l -3.365,-1.215 c -16.241,-5.865 -31.579,-11.405 -46.577,-17.093 -110.263,-41.817 -205.839,-164.822 -206.791,-166.059 -0.569,-0.741 -1.518,-1.079 -2.428,-0.856 l -92.419,22.333 c -0.691,0.167 -1.271,0.636 -1.576,1.277 -0.307,0.642 -0.31,1.387 -0.006,2.03 0.525,1.111 52.945,111.826 92.808,171.723 32.632,49.03 108.037,83.839 148.548,102.54 10.18,4.7 18.221,8.412 23.142,11.18 4.679,2.634 10.7,7.16 18.323,12.89 31.35,23.567 89.706,67.435 171.096,58.177 33.454,-3.805 60.613,-10.223 80.727,-19.078 1.061,-0.359 2.071,-0.774 3.001,-1.236 111.245,-55.219 218.71,-55.178 263.806,-41.677 42.388,12.69 375.791,210.585 379.154,212.582 0.652,0.388 1.449,0.438 2.146,0.138 0.694,-0.301 1.205,-0.917 1.368,-1.657 l 19.667,-88.465 c 0.184,-0.826 -0.087,-1.687 -0.713,-2.258 C 825.259,229.296 809.492,212.198 792.801,194.095 761.819,160.498 726.706,122.419 641.452,56.193 522.178,-36.46 458.689,-63.302 449.633,-66.877 418.885,-166.239 338.15,-217.175 260.061,-266.447 l -8.062,-5.089 c -63.396,-40.079 -69.239,-89.993 -69.29,-90.492 -0.101,-0.98 -0.8,-1.798 -1.754,-2.048 -45.261,-11.84 -88.853,-17.775 -130.294,-17.775"
             style="fill:#000000;fill-opacity:1;fill-rule:nonzero;stroke:none"
             id="path172" />
        </g>
        <g
           id="g174"
           transform="translate(1683.6943,1674.6172)">
          <path
             d="m 0,0 c -0.338,0 -0.681,0.073 -1.006,0.226 -1.181,0.556 -1.688,1.965 -1.132,3.146 23.925,50.777 63.812,80.683 64.212,80.98 1.047,0.776 2.527,0.556 3.306,-0.494 0.777,-1.048 0.555,-2.529 -0.493,-3.306 C 64.496,80.263 25.537,51.016 2.14,1.357 1.736,0.501 0.886,0 0,0"
             style="fill:#000000;fill-opacity:1;fill-rule:nonzero;stroke:none"
             id="path176" />
        </g>
        <g
           id="g178"
           transform="translate(1258.7787,1725.9388)">
          <path
             d="m 0,0 c -0.976,0 -1.891,0.61 -2.231,1.585 -0.43,1.232 0.219,2.58 1.451,3.011 0.7,0.245 70.392,24.699 100.399,43.87 1.105,0.702 2.564,0.379 3.265,-0.72 0.703,-1.1 0.381,-2.562 -0.719,-3.265 C 71.691,25.014 3.661,1.14 0.78,0.133 0.522,0.043 0.259,0 0,0"
             style="fill:#000000;fill-opacity:1;fill-rule:nonzero;stroke:none"
             id="path180" />
        </g>
        <g
           id="g182"
           transform="translate(1565.0172,1940.9709)">
          <path
             d="m 0,0 -19.834,-3.319 c 0,0 -22.155,14.274 -36.348,37.321 -14.192,23.048 -44.866,52.162 12.74,77.1 57.607,24.937 69.403,33.118 80.906,50.94 11.504,17.822 38.766,44.039 65.48,22.31 26.713,-21.73 7.325,-64.8 7.325,-64.8 0,0 20.323,-1.495 12.912,-18.841 C 115.769,83.366 0,0 0,0"
             style="fill:#000000;fill-opacity:1;fill-rule:nonzero;stroke:none"
             id="path184" />
        </g>
        <g
           id="g186"
           transform="translate(1678.2281,1979.0802)">
          <path
             d="m 0,0 c 0.538,0.835 0.319,1.929 -0.482,2.516 -13.879,10.153 -24.321,24.342 -29.881,40.643 -5.068,14.86 -8.688,25.316 -8.688,25.316 -20.259,-57.959 -99.734,-28.019 -95.387,-38.291 4.346,-10.272 -6.122,-44.696 -6.122,-44.696 -33.053,-37.16 -62.953,-60.732 -115.159,-83.931 84.653,-108.225 141.139,-63.918 141.139,-63.918 l 35.225,71.055 c 35.622,1.238 82.694,23.669 80.308,36.848 -0.833,4.604 -4.694,17.299 -9.712,32.876 -1.081,3.357 -0.606,7.031 1.302,9.996 z"
             style="fill:#ffffff;fill-opacity:1;fill-rule:nonzero;stroke:none"
             id="path188" />
        </g>
        <g
           id="g190"
           transform="translate(1676.2407,1980.3594)">
          <path
             d="m 0,0 c 0,0 -0.001,-0.001 -0.001,-0.001 z m -112.592,-163.64 h 0.023 z m -137.406,63 c 33.005,-41.5 66.578,-65.373 97.22,-69.097 22.18,-2.693 35.861,5.948 38.325,7.666 l 34.967,70.535 c 0.385,0.779 1.168,1.283 2.036,1.313 29.215,1.015 66.15,16.65 75.893,28.737 1.169,1.449 2.494,3.55 2.172,5.328 -0.729,4.028 -3.971,14.988 -9.636,32.572 -1.307,4.052 -0.736,8.426 1.564,12 l 7.198,11.185 c -14.17,10.48 -24.661,24.826 -30.353,41.518 -2.755,8.076 -5.082,14.851 -6.632,19.352 -17.041,-36.557 -60.172,-33.512 -81.438,-32.01 -4.316,0.305 -9.117,0.644 -11.229,0.37 3.628,-11.637 -5.335,-41.808 -6.4,-45.308 -0.1,-0.327 -0.268,-0.628 -0.495,-0.883 -34.699,-39.011 -65.605,-61.797 -113.192,-83.278 m 105.715,-74.348 c -2.854,0 -5.877,0.171 -9.065,0.558 -32.958,4.005 -67.359,28.651 -102.245,73.252 -0.449,0.573 -0.608,1.322 -0.432,2.028 0.177,0.707 0.669,1.292 1.333,1.588 48.947,21.751 78.839,43.492 114.008,82.953 2.917,9.738 9.289,34.951 6.057,42.593 -0.755,1.784 -0.153,3.051 0.274,3.648 1.818,2.543 6.26,2.231 16.004,1.542 22.814,-1.609 65.277,-4.609 79.054,34.802 0.332,0.949 1.227,1.584 2.231,1.584 h 0.004 c 1.006,-0.001 1.901,-0.64 2.23,-1.59 0,0 3.623,-10.462 8.692,-25.327 C -20.71,26.73 -10.669,13.071 2.9,3.145 4.71,1.822 5.182,-0.683 3.975,-2.559 l -7.457,-11.586 c -1.531,-2.378 -1.909,-5.291 -1.04,-7.991 5.81,-18.034 9.012,-28.887 9.788,-33.18 0.514,-2.839 -0.543,-5.913 -3.142,-9.137 -10.262,-12.73 -47.034,-28.914 -77.995,-30.435 l -34.603,-69.802 c -0.157,-0.315 -0.382,-0.592 -0.659,-0.81 -0.558,-0.437 -12.369,-9.488 -33.15,-9.488"
             style="fill:#000000;fill-opacity:1;fill-rule:nonzero;stroke:none"
             id="path192" />
        </g>
        <g
           id="g194"
           transform="translate(1557.9377,1924.858)">
          <path
             d="m 0,0 c -0.233,0 -0.469,0.034 -0.703,0.107 -12.094,3.757 -20.612,10.552 -23.982,19.133 -2.673,6.806 -1.856,14.291 2.366,21.647 1.095,1.91 4.439,7.723 9.19,6.872 5.977,-1.069 8.313,-12.246 8.886,-15.646 0.218,-1.287 -0.649,-2.506 -1.935,-2.723 -1.296,-0.217 -2.507,0.649 -2.725,1.935 -0.899,5.295 -3.253,11.458 -5.059,11.78 -0.487,0.09 -2.06,-0.744 -4.258,-4.572 -3.531,-6.154 -4.226,-12.064 -2.066,-17.565 C -17.49,13.855 -9.842,7.896 0.701,4.622 1.947,4.234 2.643,2.91 2.256,1.663 1.941,0.65 1.008,0 0,0"
             style="fill:#000000;fill-opacity:1;fill-rule:nonzero;stroke:none"
             id="path196" />
        </g>
        <g
           id="g198"
           transform="translate(1598.8737,1885.4104)">
          <path
             d="m 0,0 c -0.025,0 -0.052,0 -0.077,0.001 -26.435,0.858 -31.871,19.079 -32.09,19.854 -0.354,1.257 0.378,2.562 1.635,2.916 1.247,0.354 2.553,-0.373 2.913,-1.623 C -27.428,20.494 -22.759,5.467 0.075,4.726 1.38,4.684 2.404,3.592 2.361,2.287 2.32,1.009 1.271,0 0,0"
             style="fill:#000000;fill-opacity:1;fill-rule:nonzero;stroke:none"
             id="path200" />
        </g>
        <g
           id="g202"
           transform="translate(1420.223,467.9879)">
          <path
             d="m 0,0 h -214.021 c -1.306,0 -2.364,1.058 -2.364,2.364 0,1.305 1.058,2.363 2.364,2.363 H 0 c 12.281,0 23.956,4.652 32.874,13.098 l 79.642,75.444 c 0.948,0.896 2.443,0.858 3.341,-0.091 0.898,-0.947 0.858,-2.443 -0.091,-3.341 L 36.124,14.393 C 26.325,5.112 13.496,0 0,0"
             style="fill:#000000;fill-opacity:1;fill-rule:nonzero;stroke:none"
             id="path204" />
        </g>
        <g
           id="g206"
           transform="translate(1153.8768,456.3765)">
          <path
             d="m 0,0 c -9.374,0 -17.001,7.626 -17.001,17 0,1.306 1.058,2.364 2.364,2.364 1.305,0 2.364,-1.058 2.364,-2.364 0,-6.767 5.505,-12.273 12.273,-12.273 6.768,0 12.273,5.506 12.273,12.273 0,6.768 -5.505,12.274 -12.273,12.274 -1.305,0 -2.364,1.058 -2.364,2.363 0,1.306 1.059,2.364 2.364,2.364 C 9.374,34.001 17.001,26.374 17.001,17 17.001,7.626 9.374,0 0,0"
             style="fill:#000000;fill-opacity:1;fill-rule:nonzero;stroke:none"
             id="path208" />
        </g>
        <g
           id="g210"
           transform="translate(1793.0282,1534.1711)">
          <path
             d="M 0,0 C -1.305,0 -2.364,1.058 -2.364,2.364 V 20.7 c 0,1.306 1.059,2.364 2.364,2.364 1.305,0 2.364,-1.058 2.364,-2.364 V 2.364 C 2.364,1.058 1.305,0 0,0"
             style="fill:#000000;fill-opacity:1;fill-rule:nonzero;stroke:none"
             id="path212" />
        </g>
        <g
           id="g214"
           transform="translate(1793.0282,1491.455)">
          <path
             d="m 0,0 c -1.305,0 -2.364,1.058 -2.364,2.364 v 18.337 c 0,1.305 1.059,2.363 2.364,2.363 1.305,0 2.364,-1.058 2.364,-2.363 V 2.364 C 2.364,1.058 1.305,0 0,0"
             style="fill:#000000;fill-opacity:1;fill-rule:nonzero;stroke:none"
             id="path216" />
        </g>
        <g
           id="g218"
           transform="translate(1780.8391,1521.9814)">
          <path
             d="m 0,0 h -18.337 c -1.306,0 -2.364,1.058 -2.364,2.364 0,1.305 1.058,2.363 2.364,2.363 H 0 C 1.305,4.727 2.364,3.669 2.364,2.364 2.364,1.058 1.305,0 0,0"
             style="fill:#000000;fill-opacity:1;fill-rule:nonzero;stroke:none"
             id="path220" />
        </g>
        <g
           id="g222"
           transform="translate(1823.5546,1521.9814)">
          <path
             d="m 0,0 h -18.336 c -1.305,0 -2.364,1.058 -2.364,2.364 0,1.305 1.059,2.363 2.364,2.363 H 0 C 1.305,4.727 2.364,3.669 2.364,2.364 2.364,1.058 1.305,0 0,0"
             style="fill:#000000;fill-opacity:1;fill-rule:nonzero;stroke:none"
             id="path224" />
        </g>
        <g
           id="g226"
           transform="translate(712.6355,1759.9866)">
          <path
             d="m 0,0 c -1.305,0 -2.364,1.058 -2.364,2.364 v 18.337 c 0,1.305 1.059,2.363 2.364,2.363 1.305,0 2.364,-1.058 2.364,-2.363 V 2.364 C 2.364,1.058 1.305,0 0,0"
             style="fill:#000000;fill-opacity:1;fill-rule:nonzero;stroke:none"
             id="path228" />
        </g>
        <g
           id="g230"
           transform="translate(712.6355,1717.2699)">
          <path
             d="m 0,0 c -1.305,0 -2.364,1.058 -2.364,2.364 v 18.337 c 0,1.305 1.059,2.364 2.364,2.364 1.305,0 2.364,-1.059 2.364,-2.364 V 2.364 C 2.364,1.058 1.305,0 0,0"
             style="fill:#000000;fill-opacity:1;fill-rule:nonzero;stroke:none"
             id="path232" />
        </g>
        <g
           id="g234"
           transform="translate(700.4452,1747.7969)">
          <path
             d="m 0,0 h -18.337 c -1.306,0 -2.364,1.058 -2.364,2.364 0,1.305 1.058,2.364 2.364,2.364 H 0 C 1.305,4.728 2.364,3.669 2.364,2.364 2.364,1.058 1.305,0 0,0"
             style="fill:#000000;fill-opacity:1;fill-rule:nonzero;stroke:none"
             id="path236" />
        </g>
        <g
           id="g238"
           transform="translate(743.162,1747.7969)">
          <path
             d="m 0,0 h -18.337 c -1.306,0 -2.364,1.058 -2.364,2.364 0,1.305 1.058,2.364 2.364,2.364 H 0 C 1.305,4.728 2.364,3.669 2.364,2.364 2.364,1.058 1.305,0 0,0"
             style="fill:#000000;fill-opacity:1;fill-rule:nonzero;stroke:none"
             id="path240" />
        </g>
      </g>
    </g>
  </g>
</svg>
