<?xml version="1.0" encoding="UTF-8" standalone="no"?>
<!-- Created with Inkscape (http://www.inkscape.org/) -->

<svg
   version="1.1"
   id="svg2"
   width="3333.3333"
   height="3333.3333"
   viewBox="0 0 3333.3333 3333.3333"
   sodipodi:docname="news.ai"
   xmlns:inkscape="http://www.inkscape.org/namespaces/inkscape"
   xmlns:sodipodi="http://sodipodi.sourceforge.net/DTD/sodipodi-0.dtd"
   xmlns="http://www.w3.org/2000/svg"
   xmlns:svg="http://www.w3.org/2000/svg">
  <defs
     id="defs6">
    <clipPath
       clipPathUnits="userSpaceOnUse"
       id="clipPath16">
      <path
         d="M 0,2500 H 2500 V 0 H 0 Z"
         id="path14" />
    </clipPath>
  </defs>
  <sodipodi:namedview
     id="namedview4"
     pagecolor="#ffffff"
     bordercolor="#000000"
     borderopacity="0.25"
     inkscape:showpageshadow="2"
     inkscape:pageopacity="0.0"
     inkscape:pagecheckerboard="0"
     inkscape:deskcolor="#d1d1d1" />
  <g
     id="g8"
     inkscape:groupmode="layer"
     inkscape:label="news"
     transform="matrix(1.3333333,0,0,-1.3333333,0,3333.3333)">
    <g
       id="g10">
      <g
         id="g12"
         clip-path="url(#clipPath16)">
        <g
           id="g18"
           transform="translate(2018.4113,1860.0577)">
          <path
             d="m 0,0 c -1.217,0 -2.204,0.986 -2.204,2.204 v 17.093 c 0,1.218 0.987,2.204 2.204,2.204 1.217,0 2.204,-0.986 2.204,-2.204 V 2.204 C 2.204,0.986 1.217,0 0,0"
             style="fill:#000000;fill-opacity:1;fill-rule:nonzero;stroke:none"
             id="path20" />
        </g>
        <g
           id="g22"
           transform="translate(2018.4113,1820.2393)">
          <path
             d="m 0,0 c -1.217,0 -2.204,0.986 -2.204,2.204 v 17.093 c 0,1.218 0.987,2.204 2.204,2.204 1.217,0 2.204,-0.986 2.204,-2.204 V 2.204 C 2.204,0.986 1.217,0 0,0"
             style="fill:#000000;fill-opacity:1;fill-rule:nonzero;stroke:none"
             id="path24" />
        </g>
        <g
           id="g26"
           transform="translate(2007.0483,1848.6949)">
          <path
             d="m 0,0 h -17.094 c -1.217,0 -2.204,0.986 -2.204,2.204 0,1.218 0.987,2.204 2.204,2.204 H 0 C 1.217,4.408 2.204,3.422 2.204,2.204 2.204,0.986 1.217,0 0,0"
             style="fill:#000000;fill-opacity:1;fill-rule:nonzero;stroke:none"
             id="path28" />
        </g>
        <g
           id="g30"
           transform="translate(2046.8679,1848.6949)">
          <path
             d="m 0,0 h -17.094 c -1.217,0 -2.204,0.986 -2.204,2.204 0,1.218 0.987,2.204 2.204,2.204 H 0 C 1.217,4.408 2.204,3.422 2.204,2.204 2.204,0.986 1.217,0 0,0"
             style="fill:#000000;fill-opacity:1;fill-rule:nonzero;stroke:none"
             id="path32" />
        </g>
        <g
           id="g34"
           transform="translate(2055.1926,1771.3094)">
          <path
             d="M 0,0 H 0.021 Z M 12.202,4.673 C 11.247,4.673 10.288,4.561 9.34,4.333 6.2,3.575 3.555,1.634 1.889,-1.137 -1.609,-6.953 0.313,-14.654 6.172,-18.302 c 2.859,-1.781 6.206,-2.334 9.424,-1.561 3.138,0.758 5.784,2.699 7.449,5.469 3.497,5.816 1.575,13.518 -4.284,17.166 -2.016,1.255 -4.274,1.901 -6.559,1.901 m 0.52,-29.287 c -3.098,0 -6.155,0.872 -8.881,2.57 -7.89,4.915 -10.461,15.313 -5.73,23.18 2.279,3.791 5.9,6.447 10.196,7.482 4.37,1.046 8.915,0.306 12.785,-2.105 7.89,-4.912 10.461,-15.31 5.731,-23.18 -2.278,-3.788 -5.899,-6.446 -10.195,-7.482 -1.295,-0.309 -2.604,-0.465 -3.906,-0.465"
             style="fill:#000000;fill-opacity:1;fill-rule:nonzero;stroke:none"
             id="path36" />
        </g>
        <g
           id="g38"
           transform="translate(1692.2502,434.7886)">
          <path
             d="m 0,0 h -819.945 c -35.334,0 -60.363,28.498 -55.905,63.652 l 201.896,1591.931 c 4.459,35.154 36.717,63.653 72.05,63.653 l 778.786,9.079 c 89.394,0 101.523,-37.578 97.064,-72.732 L 72.05,63.652 C 67.592,28.498 35.334,0 0,0"
             style="fill:#4b937a;fill-opacity:1;fill-rule:nonzero;stroke:none"
             id="path40" />
        </g>
        <g
           id="g42"
           transform="translate(1642.9111,434.7886)">
          <path
             d="m 0,0 h -819.945 c -35.334,0 -60.363,28.643 -55.905,63.977 l 201.896,1600.054 c 4.459,35.334 36.717,63.977 72.05,63.977 h 819.946 c 35.333,0 60.363,-28.643 55.904,-63.977 L 72.05,63.977 C 67.591,28.643 35.333,0 0,0"
             style="fill:#ffffff;fill-opacity:1;fill-rule:nonzero;stroke:none"
             id="path44" />
        </g>
        <g
           id="g46"
           transform="translate(1041.007,2160.5918)">
          <path
             d="m 0,0 c -34.205,0 -65.545,-27.833 -69.863,-62.047 l -201.896,-1600.054 c -2.088,-16.548 2.406,-32.063 12.653,-43.685 10.129,-11.487 24.713,-17.813 41.065,-17.813 h 819.945 c 34.206,0 65.547,27.835 69.863,62.049 L 873.663,-61.496 c 2.088,16.548 -2.406,32.061 -12.653,43.682 C 850.881,-6.326 836.298,0 819.946,0 Z m 601.904,-1728.008 h -819.945 c -17.636,0 -33.393,6.856 -44.371,19.306 -11.097,12.585 -15.969,29.332 -13.721,47.152 L -74.237,-61.496 C -69.651,-25.156 -36.349,4.408 0,4.408 h 819.946 c 17.635,0 33.393,-6.856 44.371,-19.305 11.096,-12.586 15.969,-29.33 13.72,-47.15 L 676.141,-1662.101 c -4.585,-36.34 -37.887,-65.907 -74.237,-65.907"
             style="fill:#000000;fill-opacity:1;fill-rule:nonzero;stroke:none"
             id="path48" />
        </g>
        <g
           id="g50"
           transform="translate(813.7863,496.5617)">
          <path
             d="m 0,0 192.777,1527.781 c 1.029,8.157 8.476,14.769 16.633,14.769 h 824.354 c 8.157,0 13.935,-6.612 12.906,-14.769 L 853.893,0 c -1.029,-8.157 -8.476,-14.77 -16.633,-14.77 H 12.906 C 4.749,-14.77 -1.029,-8.157 0,0"
             style="fill:#ffffff;fill-opacity:1;fill-rule:nonzero;stroke:none"
             id="path52" />
        </g>
        <g
           id="g54"
           transform="translate(1446.76,2127.1489)">
          <path
             d="m 0,0 c -12.143,0 -23.27,-9.886 -24.804,-22.039 -0.732,-5.801 0.833,-11.227 4.406,-15.281 3.529,-4.001 8.625,-6.205 14.35,-6.205 12.143,0 23.27,9.886 24.803,22.037 0.732,5.801 -0.833,11.229 -4.407,15.282 C 10.82,-2.204 5.724,0 0,0 m -6.048,-47.933 c -7.009,0 -13.279,2.733 -17.656,7.699 -4.422,5.015 -6.366,11.673 -5.474,18.746 1.802,14.279 14.891,25.896 29.178,25.896 7.007,0 13.277,-2.733 17.656,-7.699 4.422,-5.015 6.365,-11.673 5.473,-18.748 -1.801,-14.277 -14.89,-25.894 -29.177,-25.894"
             style="fill:#000000;fill-opacity:1;fill-rule:nonzero;stroke:none"
             id="path56" />
        </g>
        <g
           id="g58"
           transform="translate(1791.3883,1475.8574)">
          <path
             d="M 0,0 C -0.093,0 -0.186,0.006 -0.28,0.017 -1.487,0.17 -2.343,1.272 -2.19,2.48 l 69.071,546.281 c 0.42,3.33 -0.471,6.438 -2.511,8.752 -2.012,2.281 -4.927,3.538 -8.208,3.538 h -824.354 c -7.073,0 -13.553,-5.76 -14.446,-12.841 l -31.945,-253.167 c -0.153,-1.21 -1.263,-2.071 -2.463,-1.911 -1.208,0.152 -2.063,1.254 -1.911,2.462 l 31.945,253.167 c 1.161,9.208 9.604,16.699 18.82,16.699 H 56.162 c 4.564,0 8.653,-1.787 11.515,-5.031 2.888,-3.276 4.16,-7.615 3.578,-12.219 L 2.184,1.929 C 2.043,0.814 1.094,0 0,0"
             style="fill:#000000;fill-opacity:1;fill-rule:nonzero;stroke:none"
             id="path60" />
        </g>
        <g
           id="g62"
           transform="translate(882.9372,1060.7927)">
          <path
             d="m 0,0 c -0.089,0 -0.179,0.004 -0.268,0.015 -1.209,0.146 -2.07,1.246 -1.923,2.454 l 6.228,51.384 c 0.146,1.209 1.262,2.062 2.453,1.924 1.208,-0.147 2.069,-1.246 1.923,-2.454 L 2.185,1.939 C 2.049,0.82 1.099,0 0,0"
             style="fill:#000000;fill-opacity:1;fill-rule:nonzero;stroke:none"
             id="path64" />
        </g>
        <g
           id="g66"
           transform="translate(844.1766,735.1782)">
          <path
             d="M 0,0 C -0.092,0 -0.185,0.006 -0.279,0.017 -1.487,0.17 -2.342,1.272 -2.19,2.48 l 33.131,262.566 c 0.153,1.21 1.27,2.028 2.462,1.912 1.209,-0.153 2.063,-1.255 1.912,-2.463 L 2.184,1.929 C 2.043,0.814 1.094,0 0,0"
             style="fill:#000000;fill-opacity:1;fill-rule:nonzero;stroke:none"
             id="path68" />
        </g>
        <g
           id="g70"
           transform="translate(1047.8593,478.8559)">
          <path
             d="m 0,0 h -0.008 l -221.167,0.732 c -4.556,0 -8.646,1.786 -11.507,5.03 -2.888,3.276 -4.158,7.616 -3.578,12.22 l 19.781,156.762 c 0.154,1.209 1.262,2.034 2.462,1.911 1.209,-0.153 2.064,-1.255 1.912,-2.462 L -231.886,17.431 c -0.42,-3.332 0.471,-6.44 2.51,-8.752 2.013,-2.282 4.927,-3.539 8.209,-3.539 L 0.008,4.408 C 1.225,4.404 2.208,3.414 2.204,2.198 2.2,0.982 1.214,0 0,0"
             style="fill:#000000;fill-opacity:1;fill-rule:nonzero;stroke:none"
             id="path72" />
        </g>
        <g
           id="g74"
           transform="translate(1295.5782,1932.1052)">
          <path
             d="m 0,0 c -14.013,0 -25.644,-10.513 -27.056,-24.454 -0.773,-7.635 1.735,-15.281 6.881,-20.974 5.146,-5.693 12.5,-8.958 20.175,-8.958 h 443.444 c 14.012,0 25.643,10.512 27.055,24.452 0.774,7.637 -1.735,15.282 -6.881,20.975 C 458.471,-3.265 451.118,0 443.444,0 Z M 443.444,-58.795 H 0 c -8.919,0 -17.465,3.795 -23.445,10.412 -5.98,6.617 -8.895,15.5 -7.997,24.372 C -29.801,-7.809 -16.284,4.408 0,4.408 h 443.444 c 8.919,0 17.464,-3.795 23.444,-10.411 5.981,-6.617 8.896,-15.5 7.998,-24.375 -1.641,-16.199 -15.159,-28.417 -31.442,-28.417"
             style="fill:#000000;fill-opacity:1;fill-rule:nonzero;stroke:none"
             id="path76" />
        </g>
        <g
           id="g78"
           transform="translate(1372.0638,1816.7759)">
          <path
             d="m 0,0 c -14.012,0 -25.643,-10.513 -27.055,-24.454 -0.774,-7.637 1.735,-15.283 6.881,-20.976 5.147,-5.693 12.499,-8.958 20.174,-8.958 h 355.28 c 14.013,0 25.643,10.512 27.054,24.454 0.774,7.637 -1.734,15.28 -6.88,20.976 C 370.307,-3.265 362.955,0 355.28,0 Z M 355.28,-58.797 H 0 c -8.919,0 -17.464,3.795 -23.445,10.412 -5.98,6.616 -8.895,15.5 -7.997,24.374 C -29.801,-7.809 -16.283,4.408 0,4.408 h 355.28 c 8.919,0 17.464,-3.794 23.445,-10.411 5.98,-6.617 8.895,-15.502 7.996,-24.375 -1.64,-16.201 -15.157,-28.419 -31.441,-28.419"
             style="fill:#000000;fill-opacity:1;fill-rule:nonzero;stroke:none"
             id="path80" />
        </g>
        <g
           id="g82"
           transform="translate(1170.5771,959.8921)">
          <path
             d="M 0,0 C -23.349,-3.315 -45.461,16.24 -49.278,43.58 L -96.73,382.203 -12.539,394.154 34.997,54.926 C 38.781,27.823 23.147,3.286 0,0"
             style="fill:#3c72b9;fill-opacity:1;fill-rule:nonzero;stroke:none"
             id="path84" />
        </g>
        <g
           id="g86"
           transform="translate(1076.3353,1340.2218)">
          <path
             d="m 0,0 47.147,-336.444 c 1.945,-13.933 8.976,-26.378 19.29,-34.146 8.258,-6.221 18.028,-8.907 27.495,-7.558 21.869,3.104 36.728,26.628 33.124,52.439 L 79.826,11.333 Z m 94.241,-380.33 h 0.022 z m -5.126,-2.566 c -8.866,0 -17.693,3.033 -25.33,8.784 -11.242,8.468 -18.899,21.975 -21.004,37.057 L -4.671,1.567 c -0.169,1.203 0.67,2.316 1.873,2.488 l 84.19,11.953 c 0.577,0.086 1.168,-0.069 1.636,-0.422 0.467,-0.351 0.776,-0.876 0.857,-1.455 l 47.536,-339.229 c 3.94,-28.212 -12.599,-53.969 -36.869,-57.415 -1.807,-0.256 -3.623,-0.383 -5.437,-0.383"
             style="fill:#000000;fill-opacity:1;fill-rule:nonzero;stroke:none"
             id="path88" />
        </g>
        <g
           id="g90"
           transform="translate(1287.1469,1586.307)">
          <path
             d="m 0,0 -234.747,-49.494 -101.309,-41.863 -48.489,-36.442 -0.35,-0.301 c -9.035,-6.022 -14.406,-26.675 -12.81,-50.754 1.577,-23.813 9.727,-43.401 19.343,-48.521 l -0.368,-0.021 50.138,-28.647 105.276,-27.278 241.533,-16.57 240.176,-157.93 1.81,-0.853 c -60.2,40.533 -110.127,166.155 -120.151,317.437 -10.012,151.107 22.837,281.764 77.08,329.574 l -0.043,0.049 L 2.745,2.382 Z"
             style="fill:#c7e8cc;fill-opacity:1;fill-rule:nonzero;stroke:none"
             id="path92" />
        </g>
        <g
           id="g94"
           transform="translate(1712.2935,1462.8373)">
          <path
             d="m 0,0 c 12.441,-187.759 -41.294,-343.945 -120.021,-348.851 -78.726,-4.907 -152.632,143.324 -165.073,331.083 -12.441,187.759 41.294,343.945 120.02,348.852 C -86.347,335.99 -12.441,187.759 0,0"
             style="fill:#c7e8cc;fill-opacity:1;fill-rule:nonzero;stroke:none"
             id="path96" />
        </g>
        <g
           id="g98"
           transform="translate(1588.4451,1111.6641)">
          <path
             d="m 0,0 c -37.678,-0.002 -75.01,33.402 -105.539,94.631 -31.305,62.79 -51.87,147.537 -57.906,238.629 -9.142,137.976 17.25,263.867 67.24,320.724 16.698,18.994 35.15,29.246 54.843,30.473 30.815,1.894 61.645,-18.585 89.15,-59.301 26.626,-39.411 48.197,-94.642 62.382,-159.719 0.259,-1.188 -0.495,-2.364 -1.685,-2.622 -1.194,-0.273 -2.363,0.493 -2.622,1.683 -28.312,129.891 -85.558,215.671 -143.33,215.671 -1.21,0 -2.411,-0.036 -3.622,-0.112 -18.479,-1.151 -35.909,-10.902 -51.805,-28.983 -49.255,-56.022 -75.221,-180.657 -66.152,-317.521 C -146.705,147.3 -73.703,-0.271 3.691,4.522 c 18.481,1.152 35.91,10.903 51.806,28.983 49.254,56.021 75.22,180.657 66.152,317.522 -1.901,28.688 -5.294,57.092 -10.084,84.426 -0.211,1.199 0.59,2.342 1.789,2.553 1.208,0.202 2.342,-0.594 2.552,-1.791 4.818,-27.489 8.23,-56.053 10.143,-84.896 C 135.19,213.342 108.796,87.451 58.807,30.593 42.11,11.602 23.658,1.35 3.965,0.123 2.643,0.041 1.322,0 0,0"
             style="fill:#000000;fill-opacity:1;fill-rule:nonzero;stroke:none"
             id="path100" />
        </g>
        <g
           id="g102"
           transform="translate(1586.2743,1151.177)">
          <path
             d="m 0,0 c -33.404,-0.002 -66.479,29.571 -93.507,83.781 -27.683,55.522 -45.868,130.456 -51.206,210.997 -8.083,122.011 15.269,233.347 59.493,283.646 14.804,16.839 31.171,25.929 48.646,27.018 46.721,2.929 93.682,-54.176 122.565,-148.988 0.355,-1.164 -0.301,-2.395 -1.466,-2.75 -1.164,-0.351 -2.396,0.301 -2.751,1.468 C 53.518,547.926 8.328,603.786 -36.3,601.042 -52.562,600.028 -67.908,591.44 -81.91,575.514 -125.4,526.05 -148.323,415.969 -140.313,295.071 -129.588,133.223 -67.046,4.419 -0.006,4.408 c 1.084,0 2.163,0.035 3.251,0.101 61.853,3.856 107.228,118.498 105.544,266.668 -0.014,1.218 0.962,2.217 2.179,2.229 1.156,-0.03 2.215,-0.962 2.229,-2.178 0.82,-72.211 -9.598,-139.413 -29.336,-189.23 C 63.721,31.166 35.188,2.084 3.518,0.11 2.347,0.037 1.171,0 0,0"
             style="fill:#000000;fill-opacity:1;fill-rule:nonzero;stroke:none"
             id="path104" />
        </g>
        <g
           id="g106"
           transform="translate(1559.8182,1453.1313)">
          <path
             d="m 0,0 c 2.881,-43.474 -9.561,-79.638 -27.79,-80.774 -18.229,-1.137 -35.341,33.185 -38.222,76.66 -2.881,43.475 9.561,79.638 27.79,80.775 C -19.993,77.797 -2.881,43.474 0,0"
             style="fill:#3c72b9;fill-opacity:1;fill-rule:nonzero;stroke:none"
             id="path108" />
        </g>
        <g
           id="g110"
           transform="translate(1522.4784,1527.6156)">
          <path
             d="m 0,0 c -0.249,0 -0.496,-0.009 -0.746,-0.024 -3.813,-0.236 -7.456,-2.303 -10.828,-6.138 -11.123,-12.653 -16.971,-41.027 -14.898,-72.289 2.749,-41.482 19.189,-75.732 35.885,-74.609 3.813,0.237 7.456,2.303 10.829,6.139 11.122,12.65 16.97,41.026 14.898,72.291 C 32.432,-33.766 16.444,0 0,0 m 8.667,-157.492 c -19.329,0 -36.584,34.162 -39.539,78.748 -2.145,32.373 4.131,62.004 15.987,75.492 4.174,4.748 8.84,7.314 13.866,7.628 19.666,1.311 37.551,-33.344 40.559,-78.714 2.144,-32.375 -4.132,-62.008 -15.988,-75.493 -4.174,-4.748 -8.84,-7.314 -13.866,-7.628 -0.339,-0.022 -0.681,-0.033 -1.019,-0.033"
             style="fill:#4b937a;fill-opacity:1;fill-rule:nonzero;stroke:none"
             id="path112" />
        </g>
        <g
           id="g114"
           transform="translate(1064.1857,1305.171)">
          <path
             d="m 0,0 241.329,-16.555 c 0.379,-0.026 0.744,-0.15 1.06,-0.357 l 216.292,-142.226 c -51.139,55.012 -89.27,169.158 -97.867,298.891 -8.534,128.78 13.852,246.029 56.722,307.315 L 224.406,279.472 c -0.283,-0.245 -0.624,-0.415 -0.991,-0.493 l -234.547,-49.451 -100.862,-41.68 -48.5,-36.482 c -0.069,-0.058 -0.141,-0.114 -0.217,-0.164 -8.36,-5.572 -13.337,-26.086 -11.835,-48.773 1.475,-22.25 9.122,-41.9 18.182,-46.723 0.307,-0.164 0.563,-0.394 0.756,-0.663 l 48.814,-27.89 z m 483.163,-179.742 c -0.315,0 -0.635,0.067 -0.937,0.211 l -1.81,0.853 c -0.095,0.043 -0.185,0.094 -0.272,0.15 L 240.451,-20.913 -0.506,-4.385 c -0.135,0.011 -0.27,0.033 -0.402,0.067 L -106.184,22.96 c -0.189,0.05 -0.371,0.123 -0.541,0.22 l -50.137,28.645 c -0.294,0.168 -0.538,0.396 -0.721,0.663 -10.088,6.466 -17.8,26.103 -19.362,49.649 -1.645,24.843 3.846,45.966 13.672,52.653 l 0.251,0.218 48.603,36.534 c 0.149,0.109 0.31,0.202 0.483,0.273 l 101.309,41.863 c 0.124,0.052 0.254,0.093 0.387,0.121 l 234.187,49.375 216.658,188.012 c 0.911,0.79 2.286,0.702 3.09,-0.198 0.391,-0.437 0.612,-1.038 0.577,-1.623 -0.036,-0.586 -0.281,-1.158 -0.721,-1.546 -55.416,-48.843 -86.093,-180.566 -76.337,-327.773 9.769,-147.444 57.664,-274.336 119.182,-315.756 0.955,-0.644 1.255,-1.914 0.685,-2.917 -0.403,-0.71 -1.147,-1.115 -1.918,-1.115"
             style="fill:#000000;fill-opacity:1;fill-rule:nonzero;stroke:none"
             id="path116" />
        </g>
        <g
           id="g118"
           transform="translate(1287.7939,1586.8685)">
          <path
             d="m 0,0 216.442,187.825 0.043,-0.049 c -54.243,-47.811 -87.092,-178.468 -77.08,-329.575 10.024,-151.282 59.951,-276.903 120.151,-317.437 l -1.811,0.854 -239.777,157.668 -5.567,3.63 c -27.804,18.479 -50.926,75.281 -55.307,143.705 -4.498,70.235 15.27,129.673 40.214,151.117 z"
             style="fill:#ffffff;fill-opacity:1;fill-rule:nonzero;stroke:none"
             id="path120" />
        </g>
        <g
           id="g122"
           transform="translate(1287.7938,1586.8687)">
          <path
             d="M 0,0 H 0.021 Z M 193.928,165.37 1.444,-1.664 C 1.436,-1.672 1.427,-1.679 1.418,-1.687 L -1.273,-3.95 c -23.067,-19.83 -44.031,-77.489 -39.433,-149.291 4.236,-66.158 26.068,-123.226 54.327,-142.006 l 5.551,-3.621 215.901,-141.968 c -51.138,55.013 -89.27,169.16 -97.867,298.892 -8.534,128.78 13.852,246.029 56.722,307.314 m 65.627,-626.809 c -0.315,0 -0.635,0.066 -0.937,0.21 l -1.81,0.853 c -0.095,0.043 -0.186,0.095 -0.273,0.151 l -239.778,157.668 -5.561,3.627 c -29.363,19.516 -51.982,77.947 -56.302,145.41 -4.908,76.649 17.801,133.005 40.977,152.928 l 2.697,2.267 216.429,187.813 c 0.91,0.79 2.288,0.702 3.09,-0.198 0.391,-0.437 0.612,-1.037 0.577,-1.623 -0.036,-0.585 -0.281,-1.158 -0.721,-1.545 -55.416,-48.844 -86.093,-180.566 -76.338,-327.774 9.769,-147.444 57.665,-274.336 119.183,-315.756 0.955,-0.644 1.254,-1.913 0.685,-2.917 -0.404,-0.71 -1.147,-1.114 -1.918,-1.114"
             style="fill:#000000;fill-opacity:1;fill-rule:nonzero;stroke:none"
             id="path124" />
        </g>
        <g
           id="g126"
           transform="translate(955.8477,1329.6058)">
          <path
             d="M 0,0 C -0.37,0 -0.746,0.092 -1.091,0.291 L -48.524,27.39 c -0.294,0.168 -0.538,0.396 -0.721,0.663 -10.088,6.466 -17.8,26.103 -19.362,49.649 -1.645,24.844 3.846,45.966 13.672,52.654 l 0.25,0.217 48.604,36.534 c 0.973,0.727 2.356,0.534 3.086,-0.439 0.732,-0.973 0.536,-2.355 -0.438,-3.087 l -48.723,-36.65 c -0.069,-0.058 -0.141,-0.114 -0.217,-0.164 -8.36,-5.572 -13.338,-26.085 -11.834,-48.772 1.474,-22.25 9.121,-41.9 18.181,-46.724 0.306,-0.164 0.563,-0.394 0.756,-0.663 L 1.096,4.118 C 2.152,3.515 2.519,2.167 1.916,1.111 1.509,0.398 0.765,0 0,0"
             style="fill:#000000;fill-opacity:1;fill-rule:nonzero;stroke:none"
             id="path128" />
        </g>
        <g
           id="g130"
           transform="translate(959.1372,1330.3528)">
          <path
             d="m 0,0 c -15.683,8.221 -28.271,41.016 -30.844,79.847 -2.727,41.143 8.364,77.637 24.393,85.341 l -50.084,-37.033 -0.35,-0.301 c -9.035,-6.021 -14.406,-26.675 -12.811,-50.754 1.578,-23.813 9.728,-43.4 19.344,-48.521 l -0.369,-0.021 z"
             style="fill:#ffffff;fill-opacity:1;fill-rule:nonzero;stroke:none"
             id="path132" />
        </g>
        <g
           id="g134"
           transform="translate(910.5674,1360.2289)">
          <path
             d="M 0,0 34.998,-19.706 C 24.799,-4.74 17.464,20.591 15.526,49.825 c -1.873,28.262 2.637,54.712 11.183,71.352 L -6.876,96.308 C -6.945,96.25 -7.017,96.194 -7.092,96.144 -15.453,90.572 -20.43,70.059 -18.927,47.372 -17.452,25.121 -9.806,5.472 -0.746,0.648 -0.444,0.487 -0.193,0.263 0,0 m 48.567,-32.08 c -0.344,0 -0.694,0.081 -1.021,0.252 -0.394,0.206 -0.787,0.428 -1.178,0.66 l -49.6,27.929 c -0.299,0.167 -0.547,0.398 -0.733,0.669 -10.087,6.466 -17.8,26.103 -19.361,49.649 -1.646,24.844 3.845,45.966 13.671,52.654 l 0.251,0.217 44.028,32.56 c 2.057,2.071 4.243,3.685 6.54,4.79 1.021,0.49 2.253,0.122 2.842,-0.849 0.587,-0.975 0.337,-2.234 -0.577,-2.91 L 37.32,129.023 C 25.083,116.347 17.665,84.226 19.925,50.118 22.392,12.885 34.089,-18.599 48.556,-27.341 l 1.095,-0.615 c 1.049,-0.59 1.43,-1.914 0.854,-2.973 -0.398,-0.734 -1.155,-1.151 -1.938,-1.151"
             style="fill:#000000;fill-opacity:1;fill-rule:nonzero;stroke:none"
             id="path136" />
        </g>
        <g
           id="g138"
           transform="translate(1059.9882,1303.9813)">
          <path
             d="m 0,0 4.53,-0.987 c -24.712,5.181 -45.511,54.938 -49.465,114.612 -4.032,60.859 12.719,112.557 37.346,119.207 l -3.387,-1.4 -96.051,-39.743 c -16.177,-7.417 -27.41,-44.093 -24.668,-85.471 2.645,-39.928 16.372,-73.487 32.645,-80.496 z"
             style="fill:#3c72b9;fill-opacity:1;fill-rule:nonzero;stroke:none"
             id="path140" />
        </g>
        <g
           id="g142"
           transform="translate(961.6605,1331.7948)">
          <path
             d="M 0,0 87.698,-22.775 C 68.954,-5.504 54.494,35.862 51.193,85.666 c -3.135,47.316 6.412,89.975 22.9,110.082 L -7.858,161.84 C -23.514,154.659 -33.786,118.059 -31.168,78.552 -28.603,39.832 -15.508,6.856 0,0 m 102.86,-31.004 c -0.15,0 -0.303,0.015 -0.454,0.047 -0.114,0.024 -0.23,0.05 -0.343,0.076 l -4.204,0.912 c -0.028,0.007 -0.057,0.013 -0.085,0.022 l -99.05,25.724 c -0.109,0.028 -0.215,0.065 -0.318,0.11 -17.283,7.443 -31.253,41.316 -33.973,82.373 -2.776,41.895 8.379,79.563 25.948,87.62 l 94.203,38.979 c 1.811,1.005 3.671,1.771 5.581,2.288 1.125,0.297 2.288,-0.319 2.661,-1.418 0.375,-1.103 -0.171,-2.303 -1.245,-2.747 L 86.13,200.728 C 65.148,188.769 51.966,140.683 55.593,85.959 59.505,26.902 79.861,-21.344 103.01,-26.577 l 0.317,-0.068 c 1.186,-0.259 1.939,-1.427 1.686,-2.616 -0.221,-1.035 -1.135,-1.743 -2.153,-1.743"
             style="fill:#000000;fill-opacity:1;fill-rule:nonzero;stroke:none"
             id="path144" />
        </g>
        <g
           id="g146"
           transform="translate(1521.5964,1529.7919)">
          <path
             d="m 0,0 c -18.229,-1.136 -31.451,-37.359 -27.79,-80.774 6.139,-72.805 34.512,-76.905 37.957,-77.135 0.062,-0.004 0.059,-0.09 -10e-4,-0.107 l -73.944,-20.121 c -6.183,29.55 -10.578,61.332 -12.778,94.527 -2.108,31.818 -2.044,62.6 -0.069,91.585 z"
             style="fill:#000000;fill-opacity:1;fill-rule:nonzero;stroke:none"
             id="path148" />
        </g>
        <g
           id="g150"
           transform="translate(1447.0193,1535.3365)">
          <path
             d="m 0,0 c -1.858,-28.815 -1.784,-58.747 0.221,-89.009 2.092,-31.57 6.216,-62.486 12.26,-91.93 l 64.371,17.515 c -10.589,5.157 -27.63,22.015 -32.262,76.921 -2.666,31.621 3.425,61.108 15.52,75.116 1.6,1.854 3.269,3.393 4.998,4.611 z m 10.799,-185.885 c -0.403,0 -0.802,0.11 -1.15,0.325 -0.519,0.316 -0.883,0.833 -1.008,1.427 -6.346,30.333 -10.659,62.239 -12.82,94.831 -2.07,31.256 -2.092,62.17 -0.068,91.883 0.041,0.596 0.322,1.151 0.779,1.537 0.458,0.385 1.046,0.576 1.648,0.503 l 76.625,-7.975 c 1.141,-0.118 1.999,-1.091 1.976,-2.236 -0.025,-1.147 -0.923,-2.084 -2.068,-2.155 -3.952,-0.245 -7.742,-2.441 -11.267,-6.524 -11.183,-12.953 -16.995,-41.833 -14.462,-71.864 5.994,-71.081 32.863,-74.919 35.907,-75.121 1.082,-0.074 1.995,-0.965 2.093,-2.045 0.097,-1.079 -0.647,-2.129 -1.697,-2.396 l -73.909,-20.112 c -0.19,-0.052 -0.385,-0.078 -0.579,-0.078"
             style="fill:#000000;fill-opacity:1;fill-rule:nonzero;stroke:none"
             id="path152" />
        </g>
        <g
           id="g154"
           transform="translate(1923.5057,466.8642)">
          <path
             d="M 0,0 14.617,-95.823 49.991,-77.834 39.885,17.773 Z"
             style="fill:#ffffff;fill-opacity:1;fill-rule:nonzero;stroke:none"
             id="path156" />
        </g>
        <g
           id="g158"
           transform="translate(1925.938,465.5342)">
          <path
             d="m 0,0 13.904,-91.146 31.303,15.919 -9.627,91.082 z m 12.185,-96.697 c -0.345,0 -0.691,0.081 -1.007,0.243 -0.629,0.323 -1.065,0.93 -1.172,1.629 L -4.612,0.999 c -0.149,0.979 0.376,1.941 1.282,2.344 l 39.885,17.773 c 0.645,0.29 1.389,0.249 1.999,-0.104 0.611,-0.353 1.017,-0.975 1.091,-1.676 l 10.106,-95.607 c 0.096,-0.908 -0.379,-1.782 -1.194,-2.197 l -35.373,-17.99 c -0.313,-0.16 -0.657,-0.239 -0.999,-0.239"
             style="fill:#000000;fill-opacity:1;fill-rule:nonzero;stroke:none"
             id="path160" />
        </g>
        <g
           id="g162"
           transform="translate(1929.0078,407.2937)">
          <path
             d="m 0,0 c -4.041,-9.239 -7.874,-26.707 -11.756,-49.474 -1.839,-10.788 6.634,-20.617 17.717,-20.617 h 130.123 c 8.965,0 13.188,10.914 6.511,16.819 C 116.707,-30.38 77.043,-5.019 42.805,9.894 L 29.74,-8.554 C 29.74,-8.554 1.128,2.579 0,0"
             style="fill:#ffffff;fill-opacity:1;fill-rule:nonzero;stroke:none"
             id="path164" />
        </g>
        <g
           id="g166"
           transform="translate(1929.0074,407.2928)">
          <path
             d="m 0,0 h 0.021 z m 2.02,-0.882 c 0,-0.003 -0.002,-0.003 -0.002,-0.005 0.001,0.002 0.001,0.002 0.002,0.005 M 1.624,-1.817 c -3.511,-8.523 -7.085,-23.849 -11.207,-48.026 -0.756,-4.434 0.489,-8.965 3.414,-12.432 3.009,-3.565 7.43,-5.609 12.13,-5.609 h 130.125 c 3.872,0 6.199,2.499 7.084,4.838 0.868,2.29 0.789,5.627 -2.035,8.124 -25.673,22.704 -64.67,47.492 -97.57,62.075 L 31.539,-9.828 c -0.583,-0.825 -1.65,-1.15 -2.598,-0.779 -10.825,4.212 -23.709,8.53 -27.317,8.79 M 136.086,-72.293 H 5.961 c -6.002,0 -11.651,2.615 -15.499,7.174 -3.765,4.462 -5.366,10.3 -4.391,16.017 4.34,25.449 8.124,41.332 11.91,49.985 0.821,1.87 1.935,4.425 30.954,-6.761 l 12.072,17.047 c 0.601,0.85 1.719,1.163 2.678,0.747 33.62,-14.643 73.956,-40.176 100.371,-63.536 3.768,-3.332 5.009,-8.309 3.237,-12.988 -1.768,-4.667 -6.168,-7.685 -11.207,-7.685"
             style="fill:#000000;fill-opacity:1;fill-rule:nonzero;stroke:none"
             id="path168" />
        </g>
        <g
           id="g170"
           transform="translate(2062.679,346.1605)">
          <path
             d="m 0,0 h -137.075 c -1.217,0 -2.204,0.986 -2.204,2.204 0,1.219 0.987,2.204 2.204,2.204 H 0 C 1.217,4.408 2.204,3.423 2.204,2.204 2.204,0.986 1.217,0 0,0"
             style="fill:#000000;fill-opacity:1;fill-rule:nonzero;stroke:none"
             id="path172" />
        </g>
        <g
           id="g174"
           transform="translate(1987.9291,373.7057)">
          <path
             d="m 0,0 c -0.381,0 -0.766,0.099 -1.118,0.306 -1.049,0.617 -1.397,1.969 -0.778,3.017 l 13.356,22.64 c 0.618,1.05 1.969,1.395 3.019,0.779 1.048,-0.617 1.396,-1.969 0.778,-3.017 L 1.901,1.085 C 1.49,0.387 0.754,0 0,0"
             style="fill:#000000;fill-opacity:1;fill-rule:nonzero;stroke:none"
             id="path176" />
        </g>
        <g
           id="g178"
           transform="translate(2007.5048,370.4038)">
          <path
             d="m 0,0 c -0.364,0 -0.732,0.09 -1.072,0.28 -1.063,0.594 -1.444,1.935 -0.85,2.998 l 8.656,15.504 c 0.593,1.064 1.936,1.447 2.998,0.851 1.064,-0.594 1.445,-1.935 0.851,-2.999 L 1.926,1.13 C 1.523,0.407 0.773,0 0,0"
             style="fill:#000000;fill-opacity:1;fill-rule:nonzero;stroke:none"
             id="path180" />
        </g>
        <g
           id="g182"
           transform="translate(2011.1274,1084.0085)">
          <path
             d="m 0,0 c 0,0 98.572,-149.315 132.233,-244.15 6.401,-18.032 1.459,-38.124 -12.577,-51.128 -39.142,-36.26 -122.858,-112.926 -176.601,-155.72 l -16.059,40.762 c 0,0 19.399,94.382 92.175,136.898 l -90.305,134.653 -19.887,104.797 z"
             style="fill:#000000;fill-opacity:1;fill-rule:nonzero;stroke:none"
             id="path184" />
        </g>
        <g
           id="g186"
           transform="translate(1840.187,1043.5964)">
          <path
             d="m 0,0 c 0,0 29.188,-223.186 33.66,-280.187 4.471,-57.001 0.35,-120.421 -1.857,-166.962 -2.208,-46.54 50.602,-154.754 50.602,-154.754 l 50.905,8.998 9.442,524.255 13.692,97.039 z"
             style="fill:#000000;fill-opacity:1;fill-rule:nonzero;stroke:none"
             id="path188" />
        </g>
        <g
           id="g190"
           transform="translate(1976.9547,640.4653)">
          <path
             d="m 0,0 h -0.008 c -1.217,0.004 -2.2,0.994 -2.196,2.211 l 0.266,80.747 c 0.004,1.216 0.99,2.198 2.204,2.198 H 0.273 C 1.491,85.152 2.474,84.161 2.47,82.945 L 2.204,2.198 C 2.2,0.982 1.214,0 0,0"
             style="fill:#ffffff;fill-opacity:1;fill-rule:nonzero;stroke:none"
             id="path192" />
        </g>
        <g
           id="g194"
           transform="translate(1982.1992,890.003)">
          <path
             d="m 0,0 c -1.217,0 -2.204,0.986 -2.204,2.204 v 41.659 c 0,0.738 0.369,1.427 0.984,1.836 l 24.546,16.32 c 1.016,0.674 2.384,0.398 3.056,-0.615 0.675,-1.014 0.399,-2.383 -0.615,-3.057 L 2.204,42.681 V 2.204 C 2.204,0.986 1.217,0 0,0"
             style="fill:#ffffff;fill-opacity:1;fill-rule:nonzero;stroke:none"
             id="path196" />
        </g>
        <g
           id="g198"
           transform="translate(1860.3523,923.7473)">
          <path
             d="m 0,0 c -0.627,0 -1.251,0.267 -1.687,0.784 -0.784,0.929 -0.666,2.32 0.262,3.105 0.267,0.226 26.822,23.269 35.74,79.758 0.19,1.201 1.332,2.028 2.52,1.832 1.203,-0.19 2.024,-1.318 1.834,-2.521 C 29.472,24.702 2.557,1.477 1.415,0.516 1.003,0.17 0.499,0 0,0"
             style="fill:#ffffff;fill-opacity:1;fill-rule:nonzero;stroke:none"
             id="path200" />
        </g>
        <g
           id="g202"
           transform="translate(2103.4739,1230.0215)">
          <path
             d="m 0,0 c 0,0 9.287,7.865 16.664,11.87 7.377,4.004 30.214,38.094 30.214,38.094 0,0 -0.681,-53.759 -24.257,-61.977 z"
             style="fill:#ffffff;fill-opacity:1;fill-rule:nonzero;stroke:none"
             id="path204" />
        </g>
        <g
           id="g206"
           transform="translate(2107.4385,1230.4115)">
          <path
             d="M 0,0 18.808,-9.988 C 34.755,-3.399 39.107,27.214 40.282,41.816 33.093,31.458 19.558,12.695 13.751,9.542 8.953,6.937 3.228,2.572 0,0 m 18.656,-14.607 c -0.357,0 -0.712,0.086 -1.034,0.259 L -4.999,-2.335 c -0.646,0.342 -1.08,0.983 -1.157,1.709 -0.079,0.727 0.209,1.446 0.767,1.917 0.386,0.328 9.547,8.059 17.037,12.125 5.06,2.749 20.375,23.863 29.435,37.384 0.543,0.81 1.554,1.169 2.485,0.879 0.932,-0.291 1.562,-1.158 1.55,-2.133 -0.029,-2.259 -0.986,-55.403 -25.736,-64.03 -0.236,-0.082 -0.481,-0.123 -0.726,-0.123"
             style="fill:#000000;fill-opacity:1;fill-rule:nonzero;stroke:none"
             id="path208" />
        </g>
        <g
           id="g210"
           transform="translate(2080.4836,1223.3284)">
          <path
             d="M 0,0 H 26.767 L 77.482,73.32 H 51.375 Z"
             style="fill:#000000;fill-opacity:1;fill-rule:nonzero;stroke:none"
             id="path212" />
        </g>
        <g
           id="g214"
           transform="translate(2084.7202,1225.5319)">
          <path
             d="M 0,0 H 21.375 L 69.04,68.913 H 48.286 Z M 22.531,-4.408 H -4.236 c -0.822,0 -1.576,0.458 -1.956,1.186 -0.379,0.729 -0.321,1.61 0.151,2.283 l 51.375,73.322 c 0.412,0.588 1.086,0.939 1.805,0.939 h 26.106 c 0.82,0 1.571,-0.455 1.953,-1.182 0.379,-0.725 0.327,-1.602 -0.14,-2.277 L 24.343,-3.459 c -0.411,-0.594 -1.089,-0.949 -1.812,-0.949"
             style="fill:#000000;fill-opacity:1;fill-rule:nonzero;stroke:none"
             id="path216" />
        </g>
        <g
           id="g218"
           transform="translate(2086.3374,1223.3284)">
          <path
             d="M 0,0 H 26.768 L 77.482,73.32 H 51.376 Z"
             style="fill:#ffffff;fill-opacity:1;fill-rule:nonzero;stroke:none"
             id="path220" />
        </g>
        <g
           id="g222"
           transform="translate(2090.5737,1225.5319)">
          <path
             d="M 0,0 H 21.375 L 69.042,68.913 H 48.286 Z M 22.531,-4.408 H -4.236 c -0.822,0 -1.576,0.458 -1.956,1.186 -0.378,0.729 -0.321,1.61 0.151,2.283 l 51.375,73.322 c 0.413,0.588 1.086,0.939 1.805,0.939 h 26.107 c 0.82,0 1.572,-0.455 1.953,-1.182 0.38,-0.725 0.327,-1.602 -0.14,-2.277 L 24.343,-3.459 c -0.411,-0.594 -1.089,-0.949 -1.812,-0.949"
             style="fill:#000000;fill-opacity:1;fill-rule:nonzero;stroke:none"
             id="path224" />
        </g>
        <g
           id="g226"
           transform="translate(2103.4734,1230.0219)">
          <path
             d="m 0,0 c 0,0 -33.326,-53.246 -64.425,-47.658 -21.977,3.95 -33.363,27.681 -52.22,54.296 -18.859,26.615 -41.704,40.675 -41.704,40.675 0,0 -40.835,13.806 -90.753,11.656 -49.071,-2.114 -92.205,-32.868 -109.369,-78.888 -13.341,-35.767 -23.048,-88.032 -14.52,-160.077 16.266,-137.405 131.156,-119.548 131.156,-119.548 l 18.639,29.321 c 0,0 -51.386,3.416 -63.42,74.196 -4.399,25.874 5.509,64.356 5.509,64.356 l 8.2,-59.106 c 1.15,-8.287 7.843,-14.689 16.174,-15.462 9.394,-0.869 23.628,-0.77 43.438,2.913 40.704,7.57 80.874,33.227 106.785,36.163 17.406,1.972 21.587,12.5 20.652,26.445 10.142,-2.264 20.115,-2.761 29.265,-0.477 64.873,16.184 76.7,127.576 76.7,127.576 z"
             style="fill:#3c72b9;fill-opacity:1;fill-rule:nonzero;stroke:none"
             id="path228" />
        </g>
        <g
           id="g230"
           transform="translate(1864.9285,1287.0128)">
          <path
             d="m 0,0 c -3.438,0 -6.926,-0.071 -10.462,-0.224 -48.471,-2.088 -90.629,-32.491 -107.399,-77.456 -16.734,-44.867 -21.578,-98.377 -14.396,-159.048 5.215,-44.057 21.176,-76.506 47.438,-96.446 33.53,-25.455 73.534,-22.084 80.222,-21.307 l 16.275,25.601 c -12.079,2.366 -51.587,14.706 -61.922,75.491 -4.427,26.041 5.138,63.688 5.548,65.276 0.264,1.018 1.191,1.67 2.26,1.651 1.051,-0.06 1.913,-0.854 2.058,-1.896 l 8.2,-59.107 c 1.012,-7.31 6.85,-12.889 14.193,-13.569 8.321,-0.771 22.503,-0.896 42.832,2.884 21.046,3.913 42.266,12.85 60.987,20.737 17.854,7.519 33.273,14.013 45.952,15.448 14.134,1.602 19.727,8.813 18.703,24.11 -0.048,0.693 0.236,1.367 0.764,1.819 0.528,0.452 1.239,0.635 1.914,0.478 10.584,-2.359 20.088,-2.527 28.252,-0.489 58.892,14.691 73.28,111.922 74.883,124.368 l -17.131,11.601 c -6.476,-9.77 -36.328,-51.949 -65.441,-46.74 -18.751,3.37 -29.746,19.798 -43.664,40.595 -3.159,4.718 -6.424,9.598 -9.965,14.596 C 102.664,-27.018 81.573,-13.169 79.25,-11.686 76.07,-10.655 42.193,0 0,0 m -16.406,-359.548 c -16.471,0 -45.299,3.291 -71.079,22.863 -27.252,20.692 -43.789,54.148 -49.15,99.44 -7.265,61.373 -2.338,115.577 14.644,161.106 17.391,46.626 61.094,78.156 111.34,80.319 49.756,2.137 91.14,-11.63 91.552,-11.77 0.158,-0.054 0.308,-0.124 0.449,-0.211 0.95,-0.583 23.446,-14.602 42.348,-41.277 3.575,-5.046 6.858,-9.951 10.031,-14.693 13.337,-19.928 23.871,-35.669 40.78,-38.708 1.425,-0.256 2.862,-0.379 4.299,-0.379 28.088,-0.004 57.559,46.543 57.869,47.036 0.317,0.508 0.827,0.863 1.413,0.988 0.585,0.125 1.196,0.004 1.691,-0.332 l 20.107,-13.618 c 0.675,-0.457 1.042,-1.249 0.957,-2.058 -0.49,-4.611 -12.746,-113.114 -78.359,-129.484 -8.097,-2.019 -17.33,-2.058 -27.483,-0.114 0.196,-15.668 -7.259,-24.153 -22.72,-25.903 -12.049,-1.367 -27.197,-7.746 -44.738,-15.134 -18.926,-7.97 -40.379,-17.006 -61.893,-21.008 -16.719,-3.108 -31.54,-4.094 -44.044,-2.94 -9.392,0.872 -16.857,8.007 -18.154,17.353 l -6.49,46.79 c -2.538,-13.33 -5.635,-35.059 -2.862,-51.366 11.608,-68.276 60.897,-72.334 61.394,-72.366 0.775,-0.052 1.468,-0.51 1.82,-1.203 0.351,-0.696 0.311,-1.522 -0.107,-2.179 l -18.639,-29.32 c -0.341,-0.537 -0.895,-0.9 -1.521,-0.997 -0.606,-0.095 -5.641,-0.835 -13.455,-0.835"
             style="fill:#000000;fill-opacity:1;fill-rule:nonzero;stroke:none"
             id="path232" />
        </g>
        <g
           id="g234"
           transform="translate(1826.5413,1103.3944)">
          <path
             d="M 0,0 C -0.221,0 -0.445,0.032 -0.666,0.103 -1.827,0.471 -2.47,1.709 -2.102,2.869 l 20.396,64.406 c 0.367,1.163 1.607,1.808 2.766,1.436 1.161,-0.368 1.804,-1.606 1.435,-2.766 L 2.1,1.539 C 1.803,0.6 0.935,0 0,0"
             style="fill:#000000;fill-opacity:1;fill-rule:nonzero;stroke:none"
             id="path236" />
        </g>
        <g
           id="g238"
           transform="translate(2016.8206,1102.8066)">
          <path
             d="m 0,0 c -1.123,0 -2.081,0.852 -2.191,1.991 -3.325,34.295 -39.057,113.493 -39.417,114.288 -0.502,1.11 -0.01,2.415 1.099,2.918 1.106,0.5 2.414,0.013 2.917,-1.097 C -36.108,114.821 -1.198,37.434 2.196,2.417 2.314,1.205 1.426,0.127 0.215,0.011 0.142,0.004 0.071,0 0,0"
             style="fill:#000000;fill-opacity:1;fill-rule:nonzero;stroke:none"
             id="path240" />
        </g>
        <g
           id="g242"
           transform="translate(1887.5566,1355.043)">
          <path
             d="m 0,0 -45.72,-68.392 c 0,0 38.259,-16.453 61.673,-19.997 23.413,-3.544 -5.173,21.23 -5.173,21.23 l 18.504,42.092 z"
             style="fill:#ffffff;fill-opacity:1;fill-rule:nonzero;stroke:none"
             id="path244" />
        </g>
        <g
           id="g246"
           transform="translate(1845.1537,1287.6477)">
          <path
             d="m 0,0 c 8.781,-3.642 39.195,-15.864 58.685,-18.815 5.807,-0.874 6.635,0.306 6.64,0.319 0.913,1.978 -5.563,10.114 -13.585,17.067 -0.731,0.633 -0.963,1.668 -0.575,2.553 L 69.01,41.717 42.856,64.107 Z m 62.394,-23.554 c -1.494,0 -3.017,0.178 -4.369,0.383 -23.424,3.543 -60.641,19.473 -62.214,20.149 -0.601,0.258 -1.056,0.773 -1.243,1.399 -0.185,0.629 -0.083,1.307 0.281,1.851 L 40.57,68.621 c 0.351,0.523 0.908,0.874 1.532,0.958 0.619,0.099 1.254,-0.097 1.734,-0.508 L 73.12,44.003 c 0.739,-0.633 0.975,-1.673 0.585,-2.561 L 55.85,0.827 c 5.774,-5.158 16.106,-15.472 13.478,-21.17 -1.164,-2.523 -3.991,-3.211 -6.934,-3.211"
             style="fill:#000000;fill-opacity:1;fill-rule:nonzero;stroke:none"
             id="path248" />
        </g>
        <g
           id="g250"
           transform="translate(1975.996,1387.6359)">
          <path
             d="m 0,0 c -12.719,11.245 -28.592,0.571 -43.416,14.333 -6.793,6.306 -7.227,12.044 -15.528,15.662 -5.496,2.396 -15.368,4.265 -22.157,-0.532 -8.646,-6.11 -2.821,-16.341 -10.465,-38.526 -5.368,-15.58 -12.258,-22.192 -8.733,-27.856 3.566,-5.727 12.48,-1.97 16.845,-7.933 5.649,-7.716 -5.585,-19.056 -2.605,-29.771 1.878,-6.755 11.027,-16.403 33.905,-21.421 3.707,-0.813 7.473,1.135 8.941,4.635 1.88,4.485 4.226,10.164 6.012,15.778 8.51,26.758 4.79,37.251 11.68,40.495 10.558,4.97 22.459,-12.008 30.342,-7.303 C 13.008,-37.553 13.06,-11.547 0,0"
             style="fill:#000000;fill-opacity:1;fill-rule:nonzero;stroke:none"
             id="path252" />
        </g>
        <g
           id="g254"
           transform="translate(1921.161,1376.3925)">
          <path
             d="m 0,0 4.686,-1.866 c 0,0 -13.451,-30.776 -15.616,-40.144 -2.165,-9.368 26.338,-18.271 26.338,-18.271 l 4.643,3.184 3.477,-1.005 c 1.078,-0.312 2.24,-0.119 3.159,0.524 0.92,0.644 1.499,1.67 1.576,2.789 0.594,8.596 2.532,27.422 8.552,40.954 0,0 -12.991,16.988 -36.815,13.835"
             style="fill:#ffffff;fill-opacity:1;fill-rule:nonzero;stroke:none"
             id="path256" />
        </g>
        <g
           id="g258"
           transform="translate(1918.9738,1376.6652)">
          <path
             d="m 0,0 c 0.452,0.435 1.139,1.18 2.144,1.642 0.487,0.231 0.999,0.373 1.458,0.455 0.219,0.038 0.477,0.07 0.633,0.083 l 0.336,0.022 c 0.896,0.052 1.789,0.142 2.69,0.14 1.798,0.069 3.601,-0.041 5.399,-0.192 3.586,-0.402 7.133,-1.233 10.504,-2.525 3.376,-1.278 6.58,-2.983 9.525,-5.047 2.963,-2.105 5.623,-4.363 8.057,-7.351 0.519,-0.637 0.601,-1.487 0.282,-2.187 l -0.019,-0.041 c -1.744,-3.812 -3.085,-7.86 -4.23,-11.978 -1.152,-4.118 -2.086,-8.321 -2.832,-12.566 -0.753,-4.245 -1.332,-8.53 -1.705,-12.833 L 32.1,-53.992 c -0.063,-0.601 -0.042,-0.924 -0.179,-1.798 -0.284,-1.524 -1.29,-2.873 -2.638,-3.622 -0.672,-0.377 -1.42,-0.629 -2.199,-0.721 -0.388,-0.041 -0.785,-0.069 -1.183,-0.035 -0.419,0.032 -0.805,0.123 -1.028,0.151 -1.079,0.189 -2.173,0.325 -3.235,0.57 l 1.823,0.295 c -1.502,-1.128 -3.074,-2.155 -4.607,-3.235 -0.576,-0.409 -1.297,-0.489 -1.922,-0.291 -6.273,2.047 -12.307,4.413 -18.148,7.71 -2.879,1.718 -5.791,3.52 -8.181,6.617 -0.577,0.797 -1.112,1.703 -1.467,2.779 -0.348,1.074 -0.482,2.338 -0.242,3.536 0.424,1.858 0.903,3.33 1.414,4.927 2.099,6.191 4.484,12.16 6.911,18.126 2.427,5.967 4.99,11.852 7.581,17.75 L 6.035,-4.24 C 4.929,-3.797 3.677,-3.171 2.608,-2.342 1.53,-1.52 0.723,-0.65 0,0 m 4.375,-0.545 c 0.838,0.026 1.593,0.274 2.077,0.476 0.493,0.205 0.803,0.209 1.258,0.032 1.157,-0.452 1.728,-1.756 1.275,-2.912 L 8.962,-3.007 8.946,-3.046 c -2.516,-5.869 -4.951,-11.8 -7.365,-17.715 -2.4,-5.914 -4.767,-11.87 -6.779,-17.835 -0.472,-1.455 -0.956,-3.043 -1.25,-4.311 -0.156,-0.717 0.132,-1.636 0.868,-2.667 1.504,-2.049 4.09,-3.853 6.691,-5.394 5.303,-3.072 11.255,-5.485 17.148,-7.463 l -1.922,-0.288 c 1.562,1.042 3.085,2.139 4.677,3.132 l 0.177,0.111 c 0.51,0.317 1.12,0.364 1.648,0.183 1.03,-0.359 2.027,-0.828 3.04,-1.244 l 0.556,-0.245 c 0.139,-0.052 0.289,-0.103 0.444,-0.11 0.309,-0.024 0.632,0.035 0.913,0.185 0.572,0.291 0.963,0.876 1.074,1.498 l 0.231,3.096 c 0.356,4.378 0.818,8.747 1.398,13.11 1.231,8.709 2.975,17.444 6.5,25.787 l 0.262,-2.226 c -1.915,2.293 -4.481,4.548 -7.112,6.359 -2.662,1.846 -5.549,3.362 -8.573,4.49 -3.021,1.14 -6.187,1.862 -9.395,2.21 -1.605,0.155 -3.22,0.282 -4.841,0.241 -0.81,0.017 -1.62,-0.056 -2.431,-0.09 L 4.601,-2.247 c -0.057,-0.004 -0.011,0.002 -0.004,0.019 0.034,0.035 0.12,0.132 0.182,0.314 0.157,0.373 -0.007,1.025 -0.404,1.369"
             style="fill:#000000;fill-opacity:1;fill-rule:nonzero;stroke:none"
             id="path260" />
        </g>
        <g
           id="g262"
           transform="translate(1910.626,1354.6893)">
          <path
             d="M 0,0 C 0,0 3.188,18.165 -5.385,17.868 -13.957,17.57 -16.963,-2.516 0,0"
             style="fill:#ffffff;fill-opacity:1;fill-rule:nonzero;stroke:none"
             id="path264" />
        </g>
        <g
           id="g266"
           transform="translate(521.6927,1102.696)">
          <path
             d="m 0,0 c -1.193,-3.185 -2.878,-6.145 -5.221,-8.754 -5.991,-6.674 -15.049,-9.527 -23.648,-12.098 -7.097,-2.121 -14.311,-4.261 -21.719,-4.321 -14.663,-0.119 -28.349,7.877 -42.996,8.583 -9.918,0.478 -19.642,-2.41 -29.431,-4.074 -18.472,-3.14 -33.264,4.316 -46.995,16.411 -24.329,21.43 -23.043,81.649 0.512,119.814 24.886,40.321 63.627,38.197 68.994,72.793 3.087,19.896 -10.02,28.188 -3.397,49.395 3.465,11.097 13.476,20.642 33.498,39.733 27.451,26.174 38.939,30.15 42.92,31.395 6.753,2.113 20.426,6.176 34.922,0.231 4.353,-1.785 15.06,-6.177 18.949,-16.867 4.08,-11.216 -1.881,-22.389 -5.122,-28.463 C 14.012,250.181 4.773,246.515 -0.427,240.133 -23.729,211.532 20.187,171.054 9.745,106.445 7.505,92.586 1.952,80.005 -1.646,66.555 -6.322,49.072 0.948,44.552 2.12,28.84 2.837,19.229 3.28,8.76 0,0"
             style="fill:#000000;fill-opacity:1;fill-rule:nonzero;stroke:none"
             id="path268" />
        </g>
        <g
           id="g270"
           transform="translate(652.5602,484.4837)">
          <path
             d="m 0,0 -10.891,-23.782 c 0.495,-2.023 1.597,-4.012 3.78,-6.502 11.564,-13.189 42.879,-2.674 50.356,-0.164 27.519,9.241 31.002,20.648 55.767,29.385 17.013,6.001 32.316,6.596 42.216,6.245 -1.168,2.428 -3.214,6.229 -6.974,9.614 -5.345,4.812 -14.407,9.633 -29.271,9.674 C 75.253,24.551 0,0 0,0"
             style="fill:#ffffff;fill-opacity:1;fill-rule:nonzero;stroke:none"
             id="path272" />
        </g>
        <g
           id="g274"
           transform="translate(644.0133,460.5276)">
          <path
             d="m 0,0 c 0.51,-1.509 1.487,-3.044 3.093,-4.875 3.956,-4.516 15.456,-10.451 47.994,0.471 14,4.701 21.742,10.039 29.228,15.199 7.045,4.858 14.33,9.879 26.511,14.178 12.145,4.283 25.09,6.447 38.537,6.447 h 0.67 c -1.125,1.821 -2.639,3.833 -4.707,5.695 -6.585,5.926 -16.199,9.075 -27.803,9.107 H 113.38 C 86,46.222 18.794,24.934 10.148,22.158 Z m 20.211,-15.003 c -11.043,0 -17.104,3.425 -20.433,7.222 -2.346,2.675 -3.66,4.968 -4.263,7.432 -0.118,0.483 -0.07,0.99 0.137,1.44 L 6.544,24.874 c 0.256,0.56 0.735,0.988 1.32,1.179 3.08,1.004 75.676,24.577 105.517,24.577 h 0.155 c 16.052,-0.045 25.577,-5.592 30.74,-10.239 4.001,-3.603 6.188,-7.602 7.485,-10.297 0.335,-0.696 0.282,-1.516 -0.141,-2.161 -0.422,-0.646 -1.112,-1.077 -1.923,-0.997 C 135.201,27.44 121.263,25.388 108.292,20.814 96.665,16.714 89.939,12.075 82.817,7.166 75.079,1.832 67.078,-3.683 52.493,-8.582 38.618,-13.238 28.133,-15.003 20.211,-15.003"
             style="fill:#000000;fill-opacity:1;fill-rule:nonzero;stroke:none"
             id="path276" />
        </g>
        <g
           id="g278"
           transform="translate(746.6695,373.5112)">
          <path
             d="M 0,0 C 0,0 50.511,-19.417 50.464,13.689 50.462,14.767 8.956,148.713 8.956,148.713 l -59.464,-32.161 z"
             style="fill:#ffffff;fill-opacity:1;fill-rule:nonzero;stroke:none"
             id="path280" />
        </g>
        <g
           id="g282"
           transform="translate(748.3154,375.2576)">
          <path
             d="m 0,0 c 4.853,-1.718 29.098,-9.693 40.582,-1.782 4.017,2.766 5.991,7.176 6.031,13.481 -1.32,5.019 -26.578,86.746 -40.614,132.051 l -55.327,-29.921 z m 26.547,-9.604 c -13.67,0 -28.116,5.467 -28.984,5.801 -0.552,0.213 -0.995,0.639 -1.231,1.181 L -54.177,113.93 c -0.455,1.048 -0.032,2.271 0.974,2.816 l 59.464,32.16 c 0.581,0.314 1.272,0.35 1.881,0.101 0.611,-0.25 1.078,-0.758 1.273,-1.389 C 51.019,13.356 51.021,12.368 51.022,11.946 51.033,4.06 48.361,-1.782 43.077,-5.416 38.567,-8.52 32.634,-9.604 26.547,-9.604"
             style="fill:#000000;fill-opacity:1;fill-rule:nonzero;stroke:none"
             id="path284" />
        </g>
        <g
           id="g286"
           transform="translate(740.4423,338.8594)">
          <path
             d="m 0,0 h 125.159 c 3.378,0 5.985,2.966 5.547,6.309 l -0.933,7.12 C 127.42,19.743 122.844,24.984 116.9,28.173 L 49.02,64.597 c 0,0 -21.903,-4.644 -20.01,-27.599 0,0 -14.745,14.153 -28.337,4.241 0,0 -5.299,-17.645 -4.862,-37.161 C -4.139,1.812 -2.271,0 0,0"
             style="fill:#4b937a;fill-opacity:1;fill-rule:nonzero;stroke:none"
             id="path288" />
        </g>
        <g
           id="g290"
           transform="translate(743.0214,378.7424)">
          <path
             d="m 0,0 c -0.959,-3.483 -4.94,-19.019 -4.565,-35.755 0.023,-1.061 0.914,-1.924 1.986,-1.924 H 122.58 c 0.991,0 1.897,0.411 2.55,1.154 0.652,0.742 0.939,1.687 0.811,2.665 l -0.899,6.866 c -2.192,5.713 -6.361,10.444 -11.763,13.343 L 46.15,22.366 C 42.481,21.346 27.091,15.931 28.628,-2.703 28.703,-3.616 28.206,-4.477 27.38,-4.871 26.555,-5.269 25.571,-5.11 24.907,-4.477 24.367,-3.963 11.748,7.85 0,0 M 122.58,-42.087 H -2.579 c -3.448,0 -6.316,2.796 -6.392,6.233 -0.441,19.639 4.734,37.111 4.954,37.845 0.138,0.461 0.423,0.863 0.812,1.145 9.755,7.116 20.672,3.203 27.369,-1.377 1.18,20.482 21.597,25.063 21.819,25.11 0.508,0.108 1.042,0.033 1.499,-0.215 l 67.881,-36.422 c 6.419,-3.444 11.355,-9.096 13.897,-15.915 0.058,-0.157 0.099,-0.319 0.12,-0.485 l 0.933,-7.12 c 0.29,-2.219 -0.391,-4.46 -1.869,-6.143 -1.481,-1.687 -3.618,-2.656 -5.864,-2.656"
             style="fill:#000000;fill-opacity:1;fill-rule:nonzero;stroke:none"
             id="path292" />
        </g>
        <g
           id="g294"
           transform="translate(830.601,362.3234)">
          <path
             d="m 0,0 c -0.114,0 -0.229,0.009 -0.345,0.026 -32.987,5.185 -52.535,22.478 -53.35,23.212 -0.906,0.811 -0.98,2.204 -0.167,3.11 0.815,0.904 2.207,0.978 3.112,0.168 C -50.559,26.346 -31.293,9.353 0.339,4.382 1.541,4.193 2.363,3.065 2.174,1.862 2.004,0.775 1.065,0 0,0"
             style="fill:#000000;fill-opacity:1;fill-rule:nonzero;stroke:none"
             id="path296" />
        </g>
        <g
           id="g298"
           transform="translate(866.5677,344.7571)">
          <path
             d="m 0,0 h -125.898 c -1.217,0 -2.204,0.986 -2.204,2.204 0,1.218 0.987,2.204 2.204,2.204 H 0 C 1.217,4.408 2.204,3.422 2.204,2.204 2.204,0.986 1.217,0 0,0"
             style="fill:#000000;fill-opacity:1;fill-rule:nonzero;stroke:none"
             id="path300" />
        </g>
        <g
           id="g302"
           transform="translate(479.7199,449.1612)">
          <path
             d="m 0,0 c -11.058,2.449 -32.261,7.142 -36.95,21.629 -3.553,10.974 4.049,22.393 5.779,24.99 C -9.788,78.735 61.048,87.816 101.15,56.37 122.307,39.78 136.634,10.56 129.151,1.229 124.603,-4.441 115.009,0.986 91.562,3.047 47.789,6.892 36.598,-8.103 0,0"
             style="fill:#ffffff;fill-opacity:1;fill-rule:nonzero;stroke:none"
             id="path304" />
        </g>
        <g
           id="g306"
           transform="translate(480.1965,451.3129)">
          <path
             d="m 0,0 c 18.917,-4.193 30.747,-2.092 44.443,0.336 12.143,2.157 25.91,4.595 46.835,2.755 8.64,-0.76 15.343,-1.957 20.731,-2.919 9.159,-1.636 12.954,-2.2 14.946,0.284 1.309,1.632 1.788,4.342 1.385,7.833 C 127.002,19.874 115.78,39.573 99.314,52.484 79.256,68.212 49.608,74.757 20.01,70.013 -2.762,66.356 -20.922,56.601 -29.813,43.245 -35.533,34.659 -37.44,26.676 -35.331,20.156 -31.03,6.873 -10.847,2.402 -0.005,0 l -0.472,-2.152 z m 20.51,-6.785 c -6.332,0 -13.305,0.674 -21.463,2.48 l 0.476,2.153 -0.482,-2.151 c -11.703,2.592 -33.488,7.418 -38.565,23.103 -2.54,7.845 -0.451,17.144 6.042,26.89 9.57,14.373 28.812,24.825 52.794,28.676 30.793,4.948 61.714,-1.94 82.723,-18.413 15.821,-12.406 29.013,-32.681 30.684,-47.158 0.549,-4.755 -0.233,-8.489 -2.325,-11.098 -3.709,-4.624 -9.522,-3.584 -19.161,-1.864 -5.3,0.947 -11.897,2.124 -20.341,2.867 C 70.544,0.495 57.087,-1.898 45.213,-4.004 37.24,-5.418 29.525,-6.785 20.51,-6.785"
             style="fill:#000000;fill-opacity:1;fill-rule:nonzero;stroke:none"
             id="path308" />
        </g>
        <g
           id="g310"
           transform="translate(485.8549,508.9534)">
          <path
             d="m 0,0 c -1.763,-1.118 21.108,-140.523 21.108,-140.523 l 45.68,-5.567 -2.011,134.308 z"
             style="fill:#ffffff;fill-opacity:1;fill-rule:nonzero;stroke:none"
             id="path312" />
        </g>
        <g
           id="g314"
           transform="translate(508.8706,370.4189)">
          <path
             d="m 0,0 41.531,-5.063 -1.947,129.971 -60.393,10.986 C -19.587,121.909 -8.132,49.625 0,0 m 43.773,-9.759 c -0.089,0 -0.178,0.004 -0.267,0.017 l -45.68,5.566 c -0.972,0.119 -1.75,0.863 -1.908,1.83 -0.057,0.348 -5.782,35.259 -11.218,69.858 -11.22,71.412 -10.633,71.783 -8.895,72.885 0.466,0.299 1.029,0.411 1.574,0.305 L 42.156,128.92 c 1.035,-0.187 1.793,-1.083 1.809,-2.135 L 45.977,-7.523 c 0.009,-0.635 -0.258,-1.246 -0.731,-1.672 -0.407,-0.364 -0.932,-0.564 -1.473,-0.564"
             style="fill:#000000;fill-opacity:1;fill-rule:nonzero;stroke:none"
             id="path316" />
        </g>
        <g
           id="g318"
           transform="translate(626.667,338.8594)">
          <path
             d="m 0,0 h -125.725 c 0,0 -4.631,31.195 2.613,45.077 l 3.916,-4.394 c 2.028,-2.275 5.516,-2.455 7.783,-0.419 5.001,4.49 13.777,11.812 21.356,15.266 C -75.34,62.237 -26.069,28.954 -7.2,17.662 -2.726,14.986 0,10.169 0,4.962 Z"
             style="fill:#4b937a;fill-opacity:1;fill-rule:nonzero;stroke:none"
             id="path320" />
        </g>
        <g
           id="g322"
           transform="translate(502.876,341.0635)">
          <path
             d="m 0,0 h 121.586 v 2.757 c 0,4.406 -2.347,8.548 -6.127,10.81 -2.705,1.621 -6.035,3.689 -9.798,6.029 C 84.875,32.524 46.18,56.588 34.648,51.319 27.224,47.938 18.432,40.533 13.851,36.42 12.311,35.036 10.323,34.375 8.26,34.452 6.204,34.569 4.318,35.477 2.95,37.014 L 1.341,38.818 C -2.827,26.818 -0.77,6.283 0,0 M 123.791,-4.408 H -1.934 c -1.092,0 -2.02,0.8 -2.181,1.881 -0.192,1.302 -4.65,32.067 2.84,46.42 0.335,0.642 0.964,1.078 1.683,1.167 0.712,0.092 1.436,-0.179 1.917,-0.721 l 3.916,-4.394 c 0.583,-0.654 1.387,-1.041 2.264,-1.091 0.906,-0.028 1.739,0.25 2.401,0.846 5.824,5.231 14.354,12.187 21.915,15.631 12.628,5.75 44.058,-12.645 75.168,-31.99 3.738,-2.324 7.045,-4.382 9.735,-5.99 5.101,-3.054 8.271,-8.646 8.271,-14.594 v -4.961 c 0,-1.218 -0.987,-2.204 -2.204,-2.204"
             style="fill:#000000;fill-opacity:1;fill-rule:nonzero;stroke:none"
             id="path324" />
        </g>
        <g
           id="g326"
           transform="translate(620.7989,346.4554)">
          <path
             d="m 0,0 h -117.199 c -1.217,0 -2.204,0.986 -2.204,2.204 0,1.218 0.987,2.204 2.204,2.204 H 0 C 1.217,4.408 2.204,3.422 2.204,2.204 2.204,0.986 1.217,0 0,0"
             style="fill:#000000;fill-opacity:1;fill-rule:nonzero;stroke:none"
             id="path328" />
        </g>
        <g
           id="g330"
           transform="translate(568.0312,361.4797)">
          <path
             d="m 0,0 c -0.334,0 -0.673,0.075 -0.991,0.237 l -36.251,18.294 c -1.086,0.548 -1.523,1.872 -0.974,2.959 0.548,1.085 1.876,1.522 2.961,0.975 L 0.995,4.171 C 2.081,3.623 2.518,2.299 1.969,1.212 1.582,0.443 0.806,0 0,0"
             style="fill:#000000;fill-opacity:1;fill-rule:nonzero;stroke:none"
             id="path332" />
        </g>
        <g
           id="g334"
           transform="translate(793.7885,489.6656)">
          <path
             d="m 0,0 c -24.167,76.663 -48.564,153.27 -73.192,229.821 -33.192,103.173 -66.788,206.199 -100.787,309.078 -52.801,-6.192 -170.714,33.87 -158.402,-18.573 6.104,-26.003 5.536,-31.75 4.883,-41.427 -5.1,-75.605 -13.023,-129.656 -12.769,-148.565 0.225,-16.764 0.876,-67.128 -0.253,-135.991 -0.184,-11.244 -0.495,-23.238 -1.008,-37.695 -2.583,-72.764 -7.459,-90.511 -7.849,-149.775 -0.055,-8.331 -0.016,-16.397 0.085,-24.242 26.874,5.262 57.567,6.728 90.119,-0.623 25.744,-5.813 28.653,-11.721 51.829,-14.851 7.616,-1.029 14.744,-1.385 21.512,-1.227 -19.014,253.251 -17.607,311.331 -17.607,311.331 7.225,-56.251 16.208,-114.959 27.319,-175.835 8.159,-44.708 16.997,-87.899 26.313,-129.606 27.429,8.101 51.481,22.303 84.23,28.343 C -48.475,3.316 -26.635,4.663 0,0"
             style="fill:#000000;fill-opacity:1;fill-rule:nonzero;stroke:none"
             id="path336" />
        </g>
        <g
           id="g338"
           transform="translate(590.348,768.9612)">
          <path
             d="m 0,0 c -1.189,0 -2.17,0.947 -2.202,2.144 l -3.375,124.212 c -0.021,0.747 0.338,1.453 0.952,1.875 l 16.182,11.146 c 1.003,0.693 2.373,0.437 3.066,-0.564 0.69,-1.003 0.437,-2.377 -0.565,-3.066 L -1.139,125.28 2.204,2.264 C 2.237,1.046 1.277,0.034 0.061,0 Z"
             style="fill:#ffffff;fill-opacity:1;fill-rule:nonzero;stroke:none"
             id="path340" />
        </g>
        <g
           id="g342"
           transform="translate(759.2026,1251.8845)">
          <path
             d="m 0,0 -21.118,-1.414 c -2.515,-9.131 -7.18,-22.371 -16.235,-36.439 -8.376,-13.016 -26.223,-40.744 -47.856,-41.397 -22.313,-0.671 -38.619,46.724 -67.003,71.796 -37.089,3.22 -68.644,1.737 -92.547,-0.762 -31.183,-3.261 -54.786,-8.816 -64.439,-11.234 -23.61,-5.915 -43.868,-13.061 -61.321,-20.069 -10.141,-32.014 -39.629,-110.078 -26.62,-202.86 9.95,-70.967 86.69,-115.824 107.424,-138.888 5.107,5.732 9.369,12.388 12.917,19.497 -6.049,10.89 -15.124,27.197 -26.211,47.023 -21.226,37.957 -25.437,45.189 -27.228,48.596 -9.413,17.911 -13.612,47.482 3.109,99.483 -0.79,-9.847 -0.994,-20.502 -0.266,-31.848 1.927,-29.975 3.619,-56.317 21.358,-68.543 15.04,-10.364 25.999,0.174 89.73,10.969 52.191,8.84 74.158,6.737 89.627,26.017 8.525,10.625 11.145,22.844 12.007,31.572 -4.081,19.338 -8.086,38.878 -12.056,58.515 17.51,-9.189 37.284,-13.08 53.774,-10.34 C -26.667,-142.633 15.202,-79.181 0,0"
             style="fill:#3e6eb4;fill-opacity:1;fill-rule:nonzero;stroke:none"
             id="path344" />
        </g>
        <g
           id="g346"
           transform="translate(390.4687,1210.7056)">
          <path
             d="m 0,0 c -0.764,-2.389 -1.626,-5.019 -2.563,-7.876 -11.53,-35.186 -35.524,-108.4 -23.659,-193.018 7.512,-53.577 53.886,-92.201 84.572,-117.759 8.312,-6.923 15.612,-13.003 20.599,-18.137 3.841,4.626 7.362,10.043 10.492,16.15 -6.041,10.876 -14.896,26.783 -25.64,45.996 -11.028,19.721 -17.462,31.146 -21.35,38.049 -3.66,6.501 -5.03,8.933 -5.905,10.599 -12.175,23.165 -11.178,57.208 2.962,101.181 0.342,1.065 1.428,1.724 2.527,1.487 1.097,-0.217 1.858,-1.222 1.768,-2.337 -0.843,-10.513 -0.931,-21.12 -0.263,-31.53 1.905,-29.65 3.551,-55.251 20.409,-66.87 8.794,-6.062 15.864,-4.366 36.844,0.665 11.879,2.847 28.15,6.748 51.267,10.663 12.131,2.054 22.573,3.511 31.784,4.796 30.066,4.195 45.157,6.3 56.492,20.427 6.394,7.968 10.262,18.087 11.499,30.072 -3.672,17.4 -7.484,35.905 -11.989,58.198 -0.169,0.833 0.157,1.69 0.838,2.2 0.681,0.512 1.592,0.581 2.347,0.189 17.311,-9.085 36.407,-12.775 52.388,-10.118 18.992,3.157 37.052,15.812 50.855,35.636 20.51,29.457 27.997,69.518 20.652,110.185 L 349.315,37.67 c -3.643,-12.663 -9.049,-24.611 -16.081,-35.537 -8.714,-13.541 -26.847,-41.719 -49.642,-42.408 -0.183,-0.004 -0.365,-0.006 -0.547,-0.006 -14.045,-0.002 -25.193,16.341 -38.078,35.227 -8.483,12.435 -18.081,26.503 -29.364,36.646 -30.527,2.6 -61.272,2.327 -91.399,-0.82 C 102.312,28.482 80.136,24.616 60.072,19.592 40.19,14.611 20.529,8.199 0,0 m 79.019,-342.292 c -0.625,0 -1.221,0.265 -1.639,0.73 -4.728,5.261 -12.663,11.869 -21.852,19.523 -31.207,25.991 -78.368,65.269 -86.116,120.534 -12.006,85.631 12.203,159.502 23.837,195 1.063,3.246 2.03,6.195 2.865,8.83 0.198,0.628 0.668,1.134 1.279,1.379 21.065,8.46 41.218,15.055 61.607,20.163 20.263,5.075 42.651,8.977 64.745,11.287 30.641,3.205 61.917,3.466 92.968,0.766 0.47,-0.04 0.914,-0.23 1.269,-0.544 11.931,-10.539 21.863,-25.098 30.627,-37.944 12.181,-17.857 22.72,-33.305 34.448,-33.305 0.135,0 0.268,0.002 0.401,0.007 20.477,0.615 37.762,27.476 46.07,40.384 7.068,10.984 12.439,23.04 15.964,35.832 0.248,0.904 1.041,1.552 1.977,1.614 l 21.117,1.415 c 1.106,0.075 2.102,-0.693 2.312,-1.785 8.157,-42.481 0.5,-84.561 -21.007,-115.452 -14.486,-20.805 -33.575,-34.11 -53.749,-37.463 -15.647,-2.603 -34.04,0.503 -51.081,8.532 4.146,-20.47 7.713,-37.754 11.158,-54.078 0.046,-0.22 0.059,-0.446 0.037,-0.672 -1.284,-12.999 -5.484,-24.013 -12.483,-32.735 -12.429,-15.491 -29.085,-17.816 -59.319,-22.032 -9.183,-1.281 -19.59,-2.734 -31.658,-4.779 -22.971,-3.889 -39.157,-7.77 -50.976,-10.603 -21.192,-5.08 -29.964,-7.181 -40.372,-0.006 -18.619,12.83 -20.328,39.422 -22.306,70.211 -0.298,4.639 -0.449,9.316 -0.453,14.006 -8.807,-34.448 -8.227,-61.466 1.759,-80.47 0.845,-1.608 2.309,-4.206 5.844,-10.485 3.89,-6.905 10.326,-18.334 21.357,-38.06 11.088,-19.828 20.164,-36.137 26.214,-47.029 0.353,-0.635 0.37,-1.403 0.045,-2.053 -3.851,-7.717 -8.306,-14.439 -13.243,-19.979 -0.417,-0.47 -1.014,-0.737 -1.64,-0.739 z"
             style="fill:#000000;fill-opacity:1;fill-rule:nonzero;stroke:none"
             id="path348" />
        </g>
        <g
           id="g350"
           transform="translate(734.8008,1282.3193)">
          <path
             d="m 0,0 11.265,37.458 c 0.782,2.599 3.315,4.266 6.016,3.96 3.064,-0.349 5.274,-3.097 4.952,-6.159 L 20.617,19.896 35.551,7.924 C 40.15,4.238 41.956,-1.92 40.075,-7.5 l -4.974,-14.76 c -2.49,-7.388 -9.262,-12.497 -17.061,-12.87 l -5.247,-0.25 c -8.08,-0.386 -15.516,4.389 -18.514,11.891 l -3.535,8.845 c -2.215,5.543 0.701,11.805 6.375,13.688 z"
             style="fill:#ffffff;fill-opacity:1;fill-rule:nonzero;stroke:none"
             id="path352" />
        </g>
        <g
           id="g354"
           transform="translate(734.8011,1282.3204)">
          <path
             d="m 0,0 h 0.022 z m 16.641,39.248 c -1.492,0 -2.829,-0.973 -3.266,-2.426 L 2.111,-0.635 C 1.904,-1.322 1.377,-1.866 0.695,-2.092 L -2.187,-3.05 c -2.165,-0.717 -3.885,-2.249 -4.844,-4.314 -0.958,-2.06 -1.02,-4.354 -0.178,-6.464 l 3.535,-8.844 c 2.648,-6.623 9.224,-10.836 16.362,-10.508 l 5.246,0.251 c 6.944,0.332 12.863,4.796 15.078,11.372 l 4.974,14.76 c 1.579,4.683 0.046,9.907 -3.813,13 L 19.238,18.175 c -0.586,0.47 -0.892,1.204 -0.814,1.951 l 1.617,15.362 c 0.194,1.851 -1.155,3.528 -3.008,3.736 -0.132,0.016 -0.263,0.024 -0.392,0.024 m -4.756,-76.856 c -8.62,0 -16.433,5.243 -19.653,13.3 l -3.535,8.845 c -1.297,3.25 -1.201,6.786 0.275,9.959 1.476,3.177 4.123,5.534 7.452,6.638 l 1.795,0.597 10.936,36.361 c 1.089,3.623 4.606,5.941 8.375,5.513 4.248,-0.48 7.342,-4.329 6.895,-8.578 L 22.935,20.862 36.93,9.643 c 5.297,-4.247 7.4,-11.419 5.234,-17.848 l -4.974,-14.76 c -2.8,-8.308 -10.276,-13.948 -19.045,-14.367 l -5.246,-0.252 c -0.339,-0.015 -0.677,-0.024 -1.014,-0.024"
             style="fill:#000000;fill-opacity:1;fill-rule:nonzero;stroke:none"
             id="path356" />
        </g>
        <g
           id="g358"
           transform="translate(734.8008,1282.3193)">
          <path
             d="m 0,0 12.975,-1.653 c 0,0 1.919,-10.549 -6.254,-10.345 z"
             style="fill:#ffffff;fill-opacity:1;fill-rule:nonzero;stroke:none"
             id="path360" />
        </g>
        <g
           id="g362"
           transform="translate(741.7472,1268.1141)">
          <path
             d="m 0,0 c -0.093,0 -0.186,0 -0.281,0.002 -1.216,0.03 -2.178,1.042 -2.148,2.258 0.03,1.216 0.988,2.146 2.258,2.15 1.34,-0.058 2.333,0.315 2.979,1.066 1.084,1.259 1.27,3.483 1.206,5.112 l -11.239,1.431 c -1.207,0.155 -2.062,1.257 -1.908,2.465 0.154,1.21 1.271,2.038 2.466,1.909 L 6.308,14.74 C 7.261,14.617 8.025,13.892 8.198,12.947 8.319,12.276 9.3,6.281 6.163,2.615 5.133,1.412 3.234,0 0,0"
             style="fill:#000000;fill-opacity:1;fill-rule:nonzero;stroke:none"
             id="path364" />
        </g>
        <g
           id="g366"
           transform="translate(759.4127,1298.9858)">
          <path
             d="M 0,0 -3.169,-18.578 Z"
             style="fill:#ffffff;fill-opacity:1;fill-rule:nonzero;stroke:none"
             id="path368" />
        </g>
        <g
           id="g370"
           transform="translate(756.2451,1278.2028)">
          <path
             d="m 0,0 c -0.123,0 -0.247,0.011 -0.372,0.032 -1.2,0.205 -2.008,1.343 -1.803,2.542 l 3.169,18.578 c 0.205,1.197 1.346,2.013 2.544,1.802 1.2,-0.205 2.007,-1.343 1.802,-2.542 L 2.171,1.834 C 1.988,0.76 1.055,0 0,0"
             style="fill:#000000;fill-opacity:1;fill-rule:nonzero;stroke:none"
             id="path372" />
        </g>
        <g
           id="g374"
           transform="translate(768.2006,1290.703)">
          <path
             d="M 0,0 -2.669,-14.759 Z"
             style="fill:#ffffff;fill-opacity:1;fill-rule:nonzero;stroke:none"
             id="path376" />
        </g>
        <g
           id="g378"
           transform="translate(765.5341,1273.7406)">
          <path
             d="m 0,0 c -0.13,0 -0.262,0.011 -0.394,0.035 -1.199,0.217 -1.994,1.364 -1.777,2.561 l 2.669,14.757 c 0.217,1.197 1.367,1.991 2.561,1.778 1.199,-0.217 1.994,-1.365 1.777,-2.561 L 2.166,1.812 C 1.974,0.747 1.046,0 0,0"
             style="fill:#000000;fill-opacity:1;fill-rule:nonzero;stroke:none"
             id="path380" />
        </g>
        <g
           id="g382"
           transform="translate(631.6947,1123.8643)">
          <path
             d="m 0,0 c -1.006,0 -1.915,0.693 -2.147,1.716 l -14.792,65.081 c -0.27,1.189 0.474,2.368 1.661,2.64 1.189,0.269 2.369,-0.476 2.638,-1.662 L 2.151,2.693 C 2.422,1.505 1.678,0.325 0.491,0.054 0.326,0.017 0.161,0 0,0"
             style="fill:#000000;fill-opacity:1;fill-rule:nonzero;stroke:none"
             id="path384" />
        </g>
        <g
           id="g386"
           transform="translate(456.4085,858.986)">
          <path
             d="m 0,0 c -0.872,0 -1.696,0.519 -2.044,1.375 -0.457,1.128 0.086,2.413 1.214,2.872 43.81,17.768 37.368,116.199 37.298,117.191 -0.086,1.214 0.829,2.269 2.043,2.352 1.267,0.102 2.269,-0.828 2.355,-2.042 C 41.162,117.568 47.573,19.12 0.828,0.161 0.556,0.052 0.275,0 0,0"
             style="fill:#ffffff;fill-opacity:1;fill-rule:nonzero;stroke:none"
             id="path388" />
        </g>
        <g
           id="g390"
           transform="translate(553.1988,1246.3171)">
          <path
             d="m 0,0 c -13.372,2.185 -22.958,14.064 -22.251,27.574 l 1.097,20.983 c 12.685,0.988 23.245,7.024 23.213,11.03 -0.015,1.951 -4.672,21.017 -7.582,28.898 2.457,1.999 5.447,7.5 0.151,10.869 -5.295,3.368 -17.191,24.82 -17.191,24.82 -14.675,17.032 -18.917,-6.97 -29.88,-8.972 -7.587,-1.384 -11.707,-5.998 -8.84,-15.903 2.866,-9.906 -2.585,-4.938 -8.17,-2.112 -5.584,2.825 -9.381,0.628 -6.317,-8.377 3.064,-9.006 14.23,-14.416 14.23,-14.416 L -56.249,64.02 -67.403,13.013 c -2.109,-9.644 -9.05,-17.519 -18.363,-20.836 l -15.368,-5.472 80.78,-42.23 39.016,52.475 z"
             style="fill:#ffffff;fill-opacity:1;fill-rule:nonzero;stroke:none"
             id="path392" />
        </g>
        <g
           id="g394"
           transform="translate(457.5569,1232.6393)">
          <path
             d="m 0,0 74.642,-39.022 35.732,48.06 -15.088,2.465 C 80.782,13.873 70.422,26.712 71.19,41.368 l 1.097,20.982 c 0.059,1.105 0.927,1.996 2.03,2.082 12.893,1.003 21.194,6.976 21.18,8.816 -0.095,1.867 -4.552,20.315 -7.445,28.15 -0.326,0.885 -0.055,1.879 0.676,2.474 1.007,0.82 2.378,2.77 2.275,4.539 -0.062,1.079 -0.69,1.98 -1.917,2.762 -5.464,3.474 -16.137,22.381 -17.823,25.41 -2.973,3.407 -5.591,5.135 -7.787,5.138 -2.967,0 -5.703,-3.171 -8.599,-6.527 -3.234,-3.747 -6.578,-7.622 -11.282,-8.48 -3.399,-0.622 -5.721,-1.905 -6.903,-3.815 -1.316,-2.126 -1.388,-5.258 -0.216,-9.309 1.085,-3.747 1.42,-6.546 -0.465,-8.022 -2.097,-1.64 -4.813,-0.069 -7.959,1.748 -0.918,0.529 -1.886,1.091 -2.858,1.582 -2.136,1.08 -3.43,1.029 -3.777,0.725 -0.439,-0.381 -0.891,-2.215 0.541,-6.425 2.736,-8.042 13.002,-13.091 13.106,-13.141 0.432,-0.211 0.784,-0.555 1.002,-0.984 l 5.29,-10.375 c 0.233,-0.454 0.3,-0.972 0.191,-1.472 L 30.393,26.219 C 28.105,15.765 20.712,7.374 10.616,3.778 Z m 75.287,-44.05 c -0.347,0 -0.695,0.081 -1.02,0.252 l -80.78,42.229 c -0.776,0.405 -1.239,1.231 -1.178,2.105 0.062,0.876 0.634,1.629 1.46,1.924 L 9.137,7.932 c 8.653,3.08 14.989,10.269 16.949,19.23 l 10.986,50.236 -4.611,9.041 c -2.605,1.395 -11.775,6.812 -14.676,15.338 -1.834,5.394 -1.586,9.155 0.741,11.174 1.156,1.007 3.822,2.329 8.658,-0.119 1.046,-0.529 2.087,-1.13 3.073,-1.7 0.777,-0.448 1.805,-1.042 2.609,-1.431 -0.088,0.583 -0.27,1.437 -0.624,2.662 -1.534,5.299 -1.298,9.624 0.702,12.857 1.866,3.013 5.183,4.974 9.859,5.829 3.175,0.581 6.002,3.857 8.737,7.025 3.417,3.961 6.949,8.055 11.934,8.055 h 0.004 c 3.621,-0.002 7.308,-2.239 11.271,-6.838 0.098,-0.115 0.184,-0.237 0.257,-0.369 4.495,-8.106 12.935,-21.798 16.446,-24.03 3.081,-1.961 3.85,-4.466 3.952,-6.222 0.158,-2.698 -1.133,-5.311 -2.735,-7.104 C 95.593,93.03 99.886,75.562 99.906,73.283 99.95,67.671 89.065,61.685 76.59,60.226 L 75.591,41.138 C 74.942,28.731 83.715,17.861 95.997,15.855 l 18.662,-3.05 c 0.76,-0.125 1.399,-0.635 1.687,-1.35 0.29,-0.712 0.185,-1.523 -0.273,-2.141 L 77.057,-43.161 c -0.428,-0.577 -1.092,-0.889 -1.77,-0.889"
             style="fill:#000000;fill-opacity:1;fill-rule:nonzero;stroke:none"
             id="path396" />
        </g>
        <g
           id="g398"
           transform="translate(527.4905,1292.1141)">
          <path
             d="m 0,0 c -9.592,0 -15.541,6.937 -17.525,11.195 -0.515,1.104 -0.037,2.415 1.066,2.93 1.101,0.512 2.411,0.038 2.927,-1.062 C -13.303,12.579 -8.117,2.036 4.046,4.903 5.226,5.196 6.418,4.456 6.7,3.267 6.981,2.084 6.248,0.895 5.064,0.616 3.277,0.192 1.589,0 0,0"
             style="fill:#000000;fill-opacity:1;fill-rule:nonzero;stroke:none"
             id="path400" />
        </g>
        <g
           id="g402"
           transform="translate(567.6644,1427.7084)">
          <path
             d="m 0,0 63.606,-14.332 c 7.838,-1.767 13.931,-7.935 15.6,-15.796 l 8.478,-39.935 29.094,32.836 c 4.972,5.612 12.603,8.074 19.918,6.425 l 58.497,-13.181 c 11.083,-2.497 22.092,4.463 24.589,15.546 L 247.761,95.73 c 2.497,11.083 -4.463,22.092 -15.546,24.589 L 37.022,164.302 C 25.939,166.799 14.93,159.839 12.433,148.756 L -15.546,24.589 C -18.043,13.506 -11.083,2.497 0,0"
             style="fill:#ffffff;fill-opacity:1;fill-rule:nonzero;stroke:none"
             id="path404" />
        </g>
        <g
           id="g406"
           transform="translate(812.1673,1429.3942)">
          <path
             d="m 0,0 h 0.021 z m -100.038,-28.092 c -6.44,0 -12.674,-2.736 -17.049,-7.673 l -26.195,-29.562 -7.571,35.66 c -1.842,8.672 -8.622,15.536 -17.273,17.486 L -231.731,2.15 c -9.879,2.228 -16.106,12.078 -13.879,21.956 l 27.978,124.167 c 2.225,9.88 12.071,16.107 21.955,13.879 L -0.484,118.171 C 9.395,115.943 15.621,106.093 13.395,96.215 L -14.584,-27.952 c -1.078,-4.785 -3.955,-8.864 -8.102,-11.486 -4.146,-2.621 -9.067,-3.471 -13.852,-2.393 l -58.497,13.182 c -1.662,0.374 -3.34,0.557 -5.003,0.557 m -44.492,-44.173 c 0.622,0 1.225,0.263 1.65,0.743 l 29.092,32.834 c 4.439,5.011 11.251,7.206 17.784,5.738 l 58.498,-13.182 c 12.251,-2.768 24.464,4.962 27.223,17.211 L 17.696,95.247 c 2.759,12.249 -4.962,24.463 -17.21,27.224 l -195.195,43.982 c -12.246,2.755 -24.463,-4.96 -27.224,-17.212 L -249.911,25.074 c -2.76,-12.25 4.96,-24.463 17.211,-27.224 l 63.606,-14.331 c 6.976,-1.574 12.443,-7.108 13.929,-14.103 l 8.479,-39.935 c 0.172,-0.814 0.789,-1.462 1.594,-1.673 0.186,-0.049 0.374,-0.073 0.562,-0.073"
             style="fill:#000000;fill-opacity:1;fill-rule:nonzero;stroke:none"
             id="path408" />
        </g>
        <g
           id="g410"
           transform="translate(769.5262,1505.1395)">
          <path
             d="m 0,0 c 1.005,0 1.913,0.693 2.147,1.713 0.27,1.188 -0.472,2.37 -1.66,2.639 l -140.321,32.003 c -1.187,0.276 -2.368,-0.473 -2.639,-1.657 -0.27,-1.188 0.472,-2.37 1.66,-2.639 L -0.492,0.056 C -0.327,0.017 -0.163,0 0,0"
             style="fill:#000000;fill-opacity:1;fill-rule:nonzero;stroke:none"
             id="path412" />
        </g>
        <g
           id="g414"
           transform="translate(724.8005,1481.4773)">
          <path
             d="m 0,0 c 1.005,0 1.914,0.693 2.147,1.713 0.27,1.188 -0.472,2.37 -1.66,2.639 L -103.508,28.07 c -1.186,0.278 -2.368,-0.473 -2.639,-1.657 -0.27,-1.188 0.473,-2.37 1.66,-2.639 L -0.492,0.056 C -0.327,0.017 -0.162,0 0,0"
             style="fill:#000000;fill-opacity:1;fill-rule:nonzero;stroke:none"
             id="path416" />
        </g>
        <g
           id="g418"
           transform="translate(753.9348,1438.6713)">
          <path
             d="m 0,0 c 1.005,0 1.914,0.693 2.147,1.713 0.27,1.188 -0.472,2.37 -1.66,2.639 l -140.321,32.003 c -1.186,0.269 -2.368,-0.471 -2.639,-1.657 -0.27,-1.188 0.473,-2.37 1.66,-2.639 L -0.492,0.056 C -0.327,0.017 -0.162,0 0,0"
             style="fill:#000000;fill-opacity:1;fill-rule:nonzero;stroke:none"
             id="path420" />
        </g>
        <g
           id="g422"
           transform="translate(2149.0142,1543.2775)">
          <path
             d="M 0,0 C 5.694,0 10.311,-4.616 10.311,-10.31 V -81.262 C 10.311,-86.957 5.694,-91.573 0,-91.573 h -195.592 c -5.695,0 -10.311,4.616 -10.311,10.311 v 70.952 c 0,5.694 4.616,10.31 10.311,10.31 z"
             style="fill:#ffffff;fill-opacity:1;fill-rule:nonzero;stroke:none"
             id="path424" />
        </g>
        <g
           id="g426"
           transform="translate(2149.0144,1449.5004)">
          <path
             d="m 0,0 h -195.593 c -6.9,0 -12.514,5.614 -12.514,12.514 v 70.952 c 0,6.901 5.614,12.515 12.514,12.515 h 38.586 c 1.217,0 2.204,-0.986 2.204,-2.205 0,-1.218 -0.987,-2.204 -2.204,-2.204 h -38.586 c -4.469,0 -8.106,-3.635 -8.106,-8.106 V 12.514 c 0,-4.47 3.637,-8.106 8.106,-8.106 L 0,4.408 c 4.469,0 8.106,3.636 8.106,8.106 v 70.952 c 0,4.471 -3.637,8.106 -8.106,8.106 h -131.006 c -1.217,0 -2.204,0.986 -2.204,2.204 0,1.219 0.987,2.205 2.204,2.205 L 0,95.981 c 6.901,0 12.514,-5.614 12.514,-12.515 V 12.514 C 12.514,5.614 6.901,0 0,0"
             style="fill:#000000;fill-opacity:1;fill-rule:nonzero;stroke:none"
             id="path428" />
        </g>
        <g
           id="g430"
           transform="translate(1975.3313,1509.5042)">
          <path
             d="M 0,0 H 155.448 Z"
             style="fill:#ffffff;fill-opacity:1;fill-rule:nonzero;stroke:none"
             id="path432" />
        </g>
        <g
           id="g434"
           transform="translate(2130.7788,1507.3007)">
          <path
             d="m 0,0 h -155.447 c -1.217,0 -2.204,0.986 -2.204,2.204 0,1.218 0.987,2.204 2.204,2.204 H 0 C 1.217,4.408 2.204,3.422 2.204,2.204 2.204,0.986 1.217,0 0,0"
             style="fill:#000000;fill-opacity:1;fill-rule:nonzero;stroke:none"
             id="path436" />
        </g>
        <g
           id="g438"
           transform="translate(2098.2761,1488.7307)">
          <path
             d="M 0,0 H 32.503 Z"
             style="fill:#ffffff;fill-opacity:1;fill-rule:nonzero;stroke:none"
             id="path440" />
        </g>
        <g
           id="g442"
           transform="translate(2130.7788,1486.5271)">
          <path
             d="m 0,0 h -32.502 c -1.218,0 -2.205,0.986 -2.205,2.204 0,1.218 0.987,2.204 2.205,2.204 H 0 C 1.217,4.408 2.204,3.422 2.204,2.204 2.204,0.986 1.217,0 0,0"
             style="fill:#000000;fill-opacity:1;fill-rule:nonzero;stroke:none"
             id="path444" />
        </g>
        <g
           id="g446"
           transform="translate(1975.3313,1488.7307)">
          <path
             d="M 0,0 H 102.171 Z"
             style="fill:#ffffff;fill-opacity:1;fill-rule:nonzero;stroke:none"
             id="path448" />
        </g>
        <g
           id="g450"
           transform="translate(2077.5029,1486.5271)">
          <path
             d="m 0,0 h -102.171 c -1.217,0 -2.204,0.986 -2.204,2.204 0,1.218 0.987,2.204 2.204,2.204 H 0 C 1.217,4.408 2.204,3.422 2.204,2.204 2.204,0.986 1.217,0 0,0"
             style="fill:#000000;fill-opacity:1;fill-rule:nonzero;stroke:none"
             id="path452" />
        </g>
      </g>
    </g>
  </g>
</svg>
