<?xml version="1.0" encoding="UTF-8" standalone="no"?>
<!-- Created with Inkscape (http://www.inkscape.org/) -->

<svg
   version="1.1"
   id="svg2"
   width="2278.0352"
   height="1639.7534"
   viewBox="0 0 2278.0352 1639.7534"
   xmlns="http://www.w3.org/2000/svg"
   xmlns:svg="http://www.w3.org/2000/svg">
  <defs
     id="defs6">
    <clipPath
       clipPathUnits="userSpaceOnUse"
       id="clipPath16">
      <path
         d="M 0,2500 H 2500 V 0 H 0 Z"
         id="path14" />
    </clipPath>
  </defs>
  <g
     id="g8"
     transform="matrix(1.3333333,0,0,-1.3333333,-476.30791,2822.5853)">
    <g
       id="g10">
      <g
         id="g12"
         clip-path="url(#clipPath16)">
        <g
           id="g18"
           transform="translate(1792.2448,1424.1008)">
          <path
             d="m 0,0 -30.355,102.289 -275.958,24.754 -18.111,-138.082 c 0,0 282.815,-59.743 324.424,11.039"
             style="fill:#ffffff;fill-opacity:1;fill-rule:nonzero;stroke:none"
             id="path20" />
        </g>
        <g
           id="g22"
           transform="translate(1470.326,1414.8472)">
          <path
             d="M 0,0 C 25.47,-5.155 279.331,-54.664 319.476,9.568 L 289.838,109.437 17.556,133.86 Z m 201.719,-27.732 c -90.627,0 -197.521,22.229 -204.69,23.743 -1.15,0.243 -1.92,1.331 -1.766,2.497 l 18.11,138.081 c 0.156,1.198 1.26,2.052 2.432,1.95 l 275.957,-24.753 c 0.92,-0.083 1.696,-0.718 1.96,-1.603 L 324.079,9.894 C 324.255,9.296 324.178,8.65 323.861,8.112 307.81,-19.191 257.887,-27.732 201.719,-27.732"
             style="fill:#000000;fill-opacity:1;fill-rule:nonzero;stroke:none"
             id="path24" />
        </g>
        <g
           id="g26"
           transform="translate(1386.2522,1802.1628)">
          <path
             d="M 0,0 C 62.524,138.911 225.819,200.836 364.73,138.312 503.641,75.788 565.565,-87.507 503.041,-226.418 440.517,-365.329 277.222,-427.253 138.311,-364.729 -0.6,-302.205 -62.524,-138.911 0,0 m -124.341,0.376 39.332,-29.579 c -4.757,-18.96 -7.908,-38.06 -9.387,-57.132 l -46.571,-15.564 c -23.043,-7.7 -37.674,-30.338 -35.232,-54.51 2.441,-24.171 21.304,-43.427 45.419,-46.365 l 48.876,-5.953 c 5.327,-18.56 12.184,-36.645 20.504,-54.07 l -32.637,-36.862 c -16.105,-18.19 -17.458,-45.111 -3.258,-64.823 14.2,-19.712 40.163,-26.955 62.517,-17.442 l 45.18,19.23 c 13.756,-13.296 28.778,-25.503 44.911,-36.542 l -9.829,-48.222 c -4.853,-23.805 7.436,-47.795 29.59,-57.766 22.153,-9.972 48.26,-3.265 62.863,16.151 l 29.581,39.333 c 18.958,-4.755 38.056,-7.905 57.13,-9.385 l 15.564,-46.571 c 7.7,-23.042 30.337,-37.674 54.509,-35.233 24.171,2.442 43.427,21.305 46.365,45.421 l 5.953,48.873 c 18.558,5.327 36.645,12.185 54.067,20.505 l 36.865,-32.638 c 18.189,-16.104 45.109,-17.457 64.821,-3.256 19.713,14.2 26.958,40.163 17.444,62.517 l -19.23,45.181 c 13.296,13.754 25.503,28.777 36.543,44.91 l 48.221,-9.829 c 23.805,-4.853 47.795,7.436 57.766,29.59 9.972,22.154 3.264,48.261 -16.153,62.863 l -39.332,29.578 c 4.756,18.961 7.907,38.059 9.387,57.133 l 46.571,15.564 c 23.041,7.7 37.673,30.338 35.231,54.509 -2.441,24.171 -21.304,43.427 -45.42,46.364 l -48.872,5.953 c -5.327,18.559 -12.187,36.644 -20.505,54.068 l 32.637,36.865 c 16.104,18.19 17.457,45.109 3.258,64.821 -14.2,19.713 -40.165,26.958 -62.519,17.444 l -45.181,-19.23 c -13.756,13.294 -28.777,25.504 -44.908,36.541 l 9.828,48.224 c 4.852,23.804 -7.437,47.794 -29.59,57.765 -22.154,9.972 -48.262,3.263 -62.864,-16.154 l -29.578,-39.332 c -18.96,4.758 -38.06,7.906 -57.133,9.388 l -15.564,46.571 c -7.7,23.042 -30.338,37.673 -54.509,35.231 -24.171,-2.441 -43.427,-21.304 -46.364,-45.42 l -5.952,-48.876 C 137.443,214.889 119.36,208.032 101.935,199.713 L 65.07,232.351 c -18.19,16.104 -45.109,17.457 -64.821,3.257 -19.713,-14.2 -26.958,-40.164 -17.444,-62.518 L 2.035,127.909 C -11.261,114.154 -23.469,99.132 -34.507,82.999 l -48.221,9.83 c -23.805,4.852 -47.796,-7.436 -57.767,-29.59 -9.972,-22.154 -3.264,-48.262 16.154,-62.863"
             style="fill:#caddff;fill-opacity:1;fill-rule:nonzero;stroke:none"
             id="path28" />
        </g>
        <g
           id="g30"
           transform="translate(1280.8621,1616.0587)">
          <path
             d="m 0,0 c 0,0 -30.871,-1.139 -69.035,-0.99 -8.029,0.032 -29.564,25.797 -43.387,21.432 -9.932,-3.136 8.851,-20.042 6.27,-20.031 -24.456,0.098 -45.571,0.188 -53.221,0.233 -5.992,0.035 -8.001,-6.102 -5.521,-11.556 3.547,-7.801 11.293,-19.617 24.092,-23.741 22.883,-7.373 67.045,-4.05 80.698,-1.399 29.849,5.797 53.526,6.235 53.526,6.235 z"
             style="fill:#ffffff;fill-opacity:1;fill-rule:nonzero;stroke:none"
             id="path32" />
        </g>
        <g
           id="g34"
           transform="translate(1121.4375,1614.4508)">
          <path
             d="m 0,0 c -1.572,0 -2.739,-0.568 -3.466,-1.691 -1.067,-1.648 -1.05,-4.271 0.046,-6.681 2.437,-5.357 9.528,-18.274 22.733,-22.529 22.507,-7.253 66.614,-3.85 79.579,-1.332 25.059,4.866 46.046,5.985 52.133,6.219 L 156.6,-0.74 C 148.025,-1.012 121.495,-1.755 90.38,-1.634 86.501,-1.619 81.314,2.307 74.748,7.277 65.952,13.933 55,22.22 47.682,19.903 46.576,19.554 46.44,19.12 46.396,18.978 45.639,16.545 50.606,10.155 52.727,7.427 55.351,4.05 56.333,2.786 55.519,1.128 55.105,0.287 54.245,-0.233 53.274,-0.233 H 53.263 C 28.806,-0.135 7.688,-0.045 0.038,0 Z m 58.123,-39.809 c -14.48,0 -29.482,1.17 -40.191,4.621 -14.916,4.806 -22.768,19.05 -25.451,24.951 -1.743,3.832 -1.638,8.045 0.274,10.995 1.577,2.434 4.252,3.773 7.31,3.746 C 7.313,4.461 26.649,4.379 49.463,4.286 49.364,4.414 49.266,4.54 49.171,4.662 45.57,9.295 40.639,15.639 42.096,20.317 c 0.401,1.288 1.461,3.006 4.229,3.881 9.542,3.013 21.519,-6.048 31.141,-13.33 4.947,-3.744 10.555,-7.989 12.932,-7.998 37.679,-0.142 68.634,0.977 68.942,0.988 0.702,0.028 1.363,-0.271 1.812,-0.807 0.447,-0.535 0.62,-1.247 0.471,-1.928 l -6.576,-29.817 c -0.224,-1.016 -1.117,-1.747 -2.157,-1.766 -0.235,-0.005 -23.848,-0.506 -53.14,-6.195 -7.498,-1.456 -24.183,-3.154 -41.627,-3.154"
             style="fill:#000000;fill-opacity:1;fill-rule:nonzero;stroke:none"
             id="path36" />
        </g>
        <g
           id="g38"
           transform="translate(1489.9368,1880.8883)">
          <path
             d="m 0,0 c 39.691,7.11 124.905,12.56 184.506,7.584 18.264,-1.525 35.575,-8.687 49.578,-20.512 41.063,-34.675 134.345,-117.117 140.925,-218.844 0.376,-5.804 -2.214,-11.409 -6.765,-15.031 l -0.79,4.422 c -22.446,-17.866 -51.089,-21.26 -72.753,-2.453 l -19.314,14.198 c 0,0 33.17,-118.858 30.91,-137.958 -2.261,-19.101 -60.413,-51.602 -133.137,-24.941 -58.261,21.358 -137.023,23.517 -183.469,11.497 -0.758,-0.196 -2.762,-21.173 -3.502,-21.377 -3.333,-0.916 -6.992,-0.262 -10.437,1.061 -8.392,3.222 -13.924,11.303 -14.124,20.289 l -3.016,135.176 -98.573,19.016 c 0,0 47.593,211.327 139.961,227.873"
             style="fill:#000000;fill-opacity:1;fill-rule:nonzero;stroke:none"
             id="path40" />
        </g>
        <g
           id="g42"
           transform="translate(1916.6971,1844.1656)">
          <path
             d="m 0,0 c -1.11,-5.556 -27.013,-146.2 -38.765,-174.516 -12.021,-28.964 -23.074,-65.022 -75.433,-45.082 C -192.395,-189.817 -54.05,-2.964 -45.91,9.566 -45.635,9.99 0.028,0.139 0,0"
             style="fill:#000000;fill-opacity:1;fill-rule:nonzero;stroke:none"
             id="path44" />
        </g>
        <g
           id="g46"
           transform="translate(1217.275,1578.2605)">
          <path
             d="m 0,0 -0.279,33.184 c -0.057,6.751 5.476,12.212 12.226,12.039 26.895,-0.686 90.373,1.508 114.88,35.356 20.598,28.449 26.845,62.608 26.845,62.608 0,0 103.885,15.627 121.804,-68.61 C 300.886,-44.88 63.089,-18.915 10.325,-11.734 4.441,-10.933 0.05,-5.937 0,0"
             style="fill:#000000;fill-opacity:1;fill-rule:nonzero;stroke:none"
             id="path48" />
        </g>
        <g
           id="g50"
           transform="translate(1879.9167,1849.5601)">
          <path
             d="m 0,0 -3.151,42.587 c 0,0 -1.99,32.589 4.396,38.672 4.699,4.476 11.361,-6.073 13.999,-20.898 0.437,-2.457 3.922,-2.471 4.338,-0.016 1.636,9.667 1.965,16.691 1.434,26.61 -0.572,10.685 -2.603,29.516 7.439,29.932 C 38.496,117.303 61.73,91.176 56.213,59.568 50.696,27.961 27.672,-6.014 27.672,-6.014 Z"
             style="fill:#ffffff;fill-opacity:1;fill-rule:nonzero;stroke:none"
             id="path52" />
        </g>
        <g
           id="g54"
           transform="translate(1882.0385,1851.4034)">
          <path
             d="m 0,0 24.516,-5.328 c 4.148,6.414 22.579,36.062 27.357,63.441 3.378,19.357 -4.547,36.669 -13.091,46.417 -5.131,5.852 -9.98,8.367 -12.357,8.263 -1.24,-0.051 -2.186,-0.483 -2.978,-1.361 -3.648,-4.041 -2.936,-15.724 -2.465,-23.456 l 0.163,-2.744 c 0.552,-10.356 0.169,-17.449 -1.465,-27.106 -0.367,-2.174 -2.155,-3.7 -4.35,-3.71 H 15.308 C 13.103,54.415 11.295,55.937 10.906,58.123 8.709,70.466 4.183,77.364 1.817,78.14 1.515,78.238 1.203,78.286 0.675,77.785 -3.422,73.882 -3.769,53.077 -3.026,40.88 Z m 25.55,-10.109 c -0.159,0 -0.319,0.017 -0.478,0.051 l -27.671,6.014 c -0.977,0.212 -1.696,1.04 -1.768,2.034 l -3.152,42.587 c -0.345,5.646 -1.711,33.992 5.089,40.469 1.621,1.547 3.631,2.037 5.65,1.373 5.821,-1.908 10.28,-13.181 12.119,-23.506 1.473,9.258 1.841,16.092 1.306,26.078 l -0.158,2.711 c -0.578,9.491 -1.297,21.303 3.618,26.748 1.609,1.785 3.674,2.741 6.135,2.843 4.372,0.186 10.389,-3.478 15.929,-9.795 C 51.398,96.968 59.962,78.261 56.311,57.338 50.774,25.619 28.365,-7.717 27.415,-9.121 26.99,-9.747 26.286,-10.109 25.55,-10.109"
             style="fill:#000000;fill-opacity:1;fill-rule:nonzero;stroke:none"
             id="path56" />
        </g>
        <g
           id="g58"
           transform="translate(1524.1934,1968.9167)">
          <path
             d="m 0,0 c -6.452,2.928 -9.795,-1.947 -19.407,-0.626 -10.212,1.404 -21.452,8.97 -25.667,20.033 -5.091,13.36 2.247,26.095 6.874,34.125 4.602,7.987 10.459,16.882 20.619,20.721 13.25,5.008 18.79,-2.68 33.956,2.038 12.333,3.837 11.432,9.782 22.41,12.903 9.153,2.602 35.525,1.117 41.426,-12.903 3.745,-8.896 -4.331,-14.31 -0.305,-27.492 2.416,-7.913 6.218,-8.884 8.99,-14.994 C 95.773,18.645 87.152,-7.982 70.741,-16.903 48.471,-29.008 11.128,-5.051 0,0"
             style="fill:#000000;fill-opacity:1;fill-rule:nonzero;stroke:none"
             id="path60" />
        </g>
        <g
           id="g62"
           transform="translate(1544.6747,1943.483)">
          <path
             d="m 0,0 -5.181,-42.527 c -0.987,-8.098 -6.822,-14.772 -14.717,-16.829 l -21.874,-5.7 3.082,-2.347 c 38.026,-28.956 90.695,-29.003 128.774,-0.116 l 11.33,8.595 -27.17,6.069 c -7.808,1.744 -13.808,7.998 -15.228,15.871 l -11.294,62.65 z"
             style="fill:#ffffff;fill-opacity:1;fill-rule:nonzero;stroke:none"
             id="path64" />
        </g>
        <g
           id="g66"
           transform="translate(1507.9532,1877.4163)">
          <path
             d="m 0,0 c 37.036,-27.78 88.513,-27.675 125.444,0.342 l 7.463,5.661 -22.433,5.011 C 101.761,12.96 95.106,19.895 93.521,28.683 L 82.778,88.28 38.815,64.636 33.775,23.268 C 32.668,14.191 26.238,6.837 17.391,4.532 Z m 62.495,-25.254 c -23.229,0 -46.457,7.376 -65.827,22.127 l -3.083,2.346 c -0.686,0.522 -1.014,1.39 -0.844,2.235 0.169,0.845 0.807,1.519 1.64,1.736 l 21.875,5.7 c 7.046,1.836 12.168,7.693 13.05,14.922 l 5.181,42.527 c 0.088,0.726 0.523,1.364 1.168,1.711 l 47.721,25.666 c 0.634,0.342 1.392,0.359 2.045,0.045 0.649,-0.313 1.111,-0.919 1.239,-1.628 L 97.954,29.482 c 1.263,-6.998 6.563,-12.522 13.501,-14.073 l 27.17,-6.068 c 0.856,-0.191 1.524,-0.862 1.711,-1.718 0.185,-0.857 -0.141,-1.744 -0.84,-2.274 l -11.33,-8.595 C 108.825,-17.919 85.659,-25.254 62.495,-25.254"
             style="fill:#000000;fill-opacity:1;fill-rule:nonzero;stroke:none"
             id="path68" />
        </g>
        <g
           id="g70"
           transform="translate(1586.9674,1960.5134)">
          <path
             d="m 0,0 c 0,0 16.785,6.327 10.48,20.199 -6.306,13.874 -16.566,3.632 -16.566,3.632 0,0 -9.537,34.173 -29.578,20.695 C -55.705,31.047 -74.69,26.15 -74.69,26.15 c 0,0 7.058,-34.393 19.734,-57.278 7.645,-13.801 17.334,-23.417 28.749,-18.779 C 5.047,-37.212 0,0 0,0"
             style="fill:#ffffff;fill-opacity:1;fill-rule:nonzero;stroke:none"
             id="path72" />
        </g>
        <g
           id="g74"
           transform="translate(1514.929,1985.0786)">
          <path
             d="m 0,0 c 1.731,-7.687 8.443,-35.447 19.053,-54.602 8.496,-15.339 17.213,-21.324 25.933,-17.784 29.233,11.875 25.013,46.07 24.819,47.52 -0.138,1.035 0.458,2.034 1.434,2.406 0.075,0.029 7.418,2.885 9.745,8.545 1.086,2.644 0.919,5.463 -0.515,8.618 -1.59,3.498 -3.508,5.474 -5.696,5.873 C 71.197,1.219 67.58,-2.292 67.542,-2.328 66.977,-2.893 66.152,-3.114 65.38,-2.912 64.606,-2.709 64,-2.111 63.784,-1.341 63.733,-1.161 58.645,16.63 48.841,20.24 45.355,21.522 41.689,20.821 37.63,18.092 21.132,6.996 5.529,1.672 0,0 m 39.948,-77.94 c -8.714,0 -17.039,7.082 -24.835,21.156 -12.696,22.922 -19.681,56.498 -19.971,57.916 -0.242,1.174 0.482,2.332 1.643,2.633 0.187,0.048 18.875,4.978 38.333,18.064 5.269,3.546 10.42,4.429 15.286,2.634 C 59.61,21.069 65.005,8.82 67.105,2.982 c 2.085,1.309 5.15,2.628 8.473,2.025 3.728,-0.678 6.754,-3.518 8.99,-8.441 1.953,-4.297 2.146,-8.409 0.57,-12.219 -2.331,-5.641 -7.941,-8.965 -10.715,-10.316 0.526,-7.662 0.83,-38.984 -27.744,-50.59 -2.265,-0.921 -4.51,-1.38 -6.731,-1.381"
             style="fill:#000000;fill-opacity:1;fill-rule:nonzero;stroke:none"
             id="path76" />
        </g>
        <g
           id="g78"
           transform="translate(1448.55,1631.7469)">
          <path
             d="m 0,0 c -0.079,0 -0.158,0.004 -0.24,0.013 -1.236,0.131 -2.133,1.239 -2.001,2.476 7.952,75.158 19.183,138.681 19.295,139.314 0.216,1.224 1.388,2.042 2.611,1.823 1.225,-0.218 2.041,-1.387 1.823,-2.611 C 21.376,140.383 10.171,77.008 2.237,2.015 2.116,0.859 1.137,0 0,0"
             style="fill:#ffffff;fill-opacity:1;fill-rule:nonzero;stroke:none"
             id="path80" />
        </g>
        <g
           id="g82"
           transform="translate(724.5643,1129.6879)">
          <path
             d="m 0,0 -21.871,-112.908 c 0,0 202.297,-58.304 292.904,39.394 L 244.496,0 Z"
             style="fill:#000000;fill-opacity:1;fill-rule:nonzero;stroke:none"
             id="path84" />
        </g>
        <g
           id="g86"
           transform="translate(524.1092,1427.2197)">
          <path
             d="M 0,0 C 44.307,161.816 211.403,257.076 373.218,212.768 535.034,168.461 630.294,1.366 585.986,-160.45 541.679,-322.266 374.584,-417.525 212.768,-373.218 50.952,-328.911 -44.307,-161.815 0,0 m -135.352,-20.825 47.846,-25.465 c -1.938,-21.442 -2.104,-42.76 -0.458,-63.765 l -48.012,-24.886 c -23.756,-12.313 -35.81,-39.442 -29.026,-65.324 6.784,-25.882 30.596,-43.613 57.336,-42.691 l 54.194,1.868 c 8.965,-19.283 19.514,-37.789 31.543,-55.328 l -29.216,-45.68 c -14.417,-22.541 -11.292,-52.062 7.524,-71.085 18.817,-19.023 48.301,-22.471 70.999,-8.302 l 45.874,28.638 c 17.236,-12.118 35.666,-22.835 55.104,-32.091 l -2.461,-54.144 c -1.214,-26.73 16.253,-50.734 42.059,-57.8 25.807,-7.066 53.067,4.69 65.639,28.309 l 25.468,47.846 c 21.44,-1.936 42.757,-2.103 63.763,-0.456 l 24.886,-48.013 c 12.313,-23.755 39.441,-35.809 65.324,-29.026 25.882,6.784 43.612,30.595 42.69,57.336 l -1.868,54.192 c 19.282,8.965 37.79,19.516 55.325,31.543 l 45.683,-29.216 c 22.541,-14.416 52.062,-11.291 71.084,7.526 19.023,18.816 22.472,48.303 8.303,70.999 l -28.638,45.875 c 12.119,17.235 22.835,35.665 32.092,55.103 l 54.144,-2.46 c 26.729,-1.215 50.733,16.252 57.799,42.059 7.066,25.807 -4.691,53.067 -28.311,65.638 l -47.845,25.466 c 1.938,21.442 2.105,42.759 0.458,63.765 l 48.012,24.887 c 23.755,12.313 35.809,39.441 29.025,65.324 -6.783,25.881 -30.594,43.611 -57.335,42.689 l -54.191,-1.868 c -8.965,19.283 -19.517,37.787 -31.543,55.325 l 29.216,45.684 c 14.416,22.54 11.29,52.061 -7.525,71.083 -18.816,19.023 -48.304,22.473 -71.001,8.304 l -45.874,-28.637 c -17.237,12.115 -35.665,22.834 -55.101,32.089 l 2.459,54.146 c 1.213,26.729 -16.253,50.732 -42.059,57.798 -25.808,7.066 -53.068,-4.691 -65.64,-28.311 l -25.465,-47.845 c -21.442,1.939 -42.761,2.102 -63.766,0.458 l -24.886,48.013 c -12.313,23.755 -39.442,35.809 -65.324,29.025 -25.882,-6.784 -43.611,-30.596 -42.689,-57.336 l 1.87,-54.195 C 112.847,257.275 94.343,246.726 76.805,234.7 l -45.683,29.216 c -22.541,14.415 -52.061,11.29 -71.084,-7.525 -19.023,-18.816 -22.472,-48.303 -8.304,-71 l 28.638,-45.875 C -31.745,122.28 -42.462,103.851 -51.717,84.412 l -54.145,2.461 c -26.73,1.215 -50.733,-16.252 -57.8,-42.059 -7.066,-25.807 4.691,-53.067 28.31,-65.639"
             style="fill:#c7e8cc;fill-opacity:1;fill-rule:nonzero;stroke:none"
             id="path88" />
        </g>
        <g
           id="g90"
           transform="translate(428.8608,1628.9983)">
          <path
             d="M 0,0 C 0,0 -4.695,59.392 -6.851,75.412 -9.303,93.632 17.122,74.557 21.895,18.529 Z"
             style="fill:#ffffff;fill-opacity:1;fill-rule:nonzero;stroke:none"
             id="path92" />
        </g>
        <g
           id="g94"
           transform="translate(424.6502,1708.8402)">
          <path
             d="M 0,0 C -0.048,0 -0.08,-0.005 -0.098,-0.011 -0.256,-0.13 -0.804,-1.194 -0.408,-4.13 1.388,-17.478 4.973,-61.245 6.105,-75.289 l 17.654,14.941 C 20.541,-25.152 8.614,-5.116 1.772,-0.726 0.818,-0.114 0.231,0 0,0 m 4.21,-82.094 c -0.292,0 -0.587,0.057 -0.866,0.173 -0.78,0.325 -1.312,1.059 -1.379,1.901 -0.046,0.593 -4.715,59.514 -6.837,75.29 -0.55,4.084 0.154,6.888 2.091,8.334 0.856,0.639 2.715,1.521 5.547,0.248 8.656,-3.89 22.316,-26.62 25.583,-64.973 0.062,-0.728 -0.233,-1.439 -0.789,-1.911 L 5.665,-81.561 c -0.414,-0.35 -0.931,-0.533 -1.455,-0.533"
             style="fill:#000000;fill-opacity:1;fill-rule:nonzero;stroke:none"
             id="path96" />
        </g>
        <g
           id="g98"
           transform="translate(396.7896,1353.7593)">
          <path
             d="m 0,0 c 0,0 35.456,194.533 35.909,200.996 0.328,4.677 -0.317,9.357 -1.878,13.786 -4.563,12.949 -14.002,40.635 -14.089,48.369 -0.092,7.936 6.736,14 9.774,16.303 1.8,1.363 3.523,2.821 5.23,4.296 l 15.915,13.765 c 3.961,3.253 5.895,8.616 11.345,7.812 10.398,-1.536 13.452,-19.373 13.452,-19.373 0,0 10.07,7.955 15.561,4.158 5.492,-3.796 14.731,-31.508 1.69,-59.967 C 79.867,201.687 76.044,214.742 75.033,185.214 74.628,173.415 76.586,61.549 76.586,61.549 c 0,-9.275 9.87,-15.217 18.066,-10.878 L 165.164,87.993 188.653,-31.408 62.864,-60.11 C 26.413,-68.427 -6.676,-36.786 0,0"
             style="fill:#ffffff;fill-opacity:1;fill-rule:nonzero;stroke:none"
             id="path100" />
        </g>
        <g
           id="g102"
           transform="translate(399.0049,1353.3564)">
          <path
             d="m 0,0 c -3,-16.53 2.459,-33.328 14.601,-44.939 12.14,-11.609 29.169,-16.31 45.547,-12.573 L 183.806,-29.296 161.324,84.988 93.49,49.083 c -4.552,-2.411 -9.908,-2.262 -14.321,0.395 -4.415,2.658 -7.05,7.321 -7.05,12.473 -0.08,4.531 -1.954,112.021 -1.552,123.743 0.613,17.888 2.149,20.699 6.914,26.891 2.612,3.393 6.189,8.041 11.165,18.901 13.117,28.625 3.011,54.458 -0.922,57.177 -3.118,2.157 -10.027,-1.814 -12.886,-4.073 -0.621,-0.492 -1.46,-0.618 -2.2,-0.335 -0.743,0.284 -1.279,0.938 -1.414,1.72 -0.781,4.515 -4.38,16.466 -11.562,17.527 -2.45,0.363 -3.782,-1.033 -6.107,-3.739 -1.046,-1.216 -2.127,-2.474 -3.479,-3.585 L 34.203,282.45 c -1.654,-1.429 -3.445,-2.95 -5.343,-4.388 -2.697,-2.044 -8.962,-7.549 -8.882,-14.483 0.059,-5.193 5.278,-23.005 13.962,-47.646 1.677,-4.76 2.35,-9.703 2.001,-14.692 C 35.484,194.73 1.452,7.97 0,0 m 48.999,-63.275 c -13.829,0 -27.265,5.284 -37.511,15.081 -13.239,12.659 -19.189,30.976 -15.919,48.999 v 0.002 c 12.255,67.242 35.527,195.735 35.879,200.749 0.306,4.371 -0.285,8.704 -1.756,12.88 -5.272,14.959 -14.129,41.229 -14.218,49.092 -0.103,8.982 7.424,15.666 10.666,18.123 1.797,1.362 3.521,2.826 5.116,4.206 l 15.917,13.764 c 1.095,0.9 2.046,2.007 2.965,3.077 2.418,2.813 5.166,6.002 10.181,5.259 8.93,-1.318 13.028,-12.198 14.569,-17.855 3.828,2.387 10.586,5.593 15.398,2.266 7.036,-4.865 15.456,-34.385 2.455,-62.758 -5.19,-11.325 -8.947,-16.207 -11.691,-19.772 -3.922,-5.096 -5.39,-7.003 -5.981,-24.299 -0.399,-11.606 1.534,-122.43 1.553,-123.548 0,-3.598 1.82,-6.818 4.869,-8.655 3.049,-1.834 6.746,-1.939 9.892,-0.272 l 70.512,37.322 c 0.629,0.334 1.378,0.349 2.023,0.042 0.643,-0.306 1.102,-0.899 1.24,-1.597 L 188.647,-30.57 c 0.235,-1.195 -0.521,-2.36 -1.708,-2.63 L 61.15,-61.903 c -4.037,-0.921 -8.111,-1.372 -12.151,-1.372"
             style="fill:#000000;fill-opacity:1;fill-rule:nonzero;stroke:none"
             id="path104" />
        </g>
        <g
           id="g106"
           transform="translate(449.2245,1586.8334)">
          <path
             d="m 0,0 c -2.1,-0.001 -3.938,0.464 -5.43,1.228 -4.068,2.084 -6.07,6.544 -5.224,11.638 1.862,11.202 9.303,17.262 9.618,17.515 C -0.065,31.157 1.353,31 2.13,30.028 2.906,29.057 2.748,27.639 1.777,26.863 1.719,26.816 -4.642,21.567 -6.211,12.128 -6.74,8.942 -5.707,6.43 -3.376,5.236 c 3.23,-1.655 9.647,-0.926 17.101,6.572 12.219,12.294 7.128,41.521 7.076,41.815 -0.22,1.224 0.593,2.395 1.817,2.615 1.233,0.223 2.395,-0.594 2.616,-1.817 C 25.466,53.127 30.775,22.573 16.92,8.634 10.609,2.283 4.659,0 0,0"
             style="fill:#000000;fill-opacity:1;fill-rule:nonzero;stroke:none"
             id="path108" />
        </g>
        <g
           id="g110"
           transform="translate(1209.3369,1016.8783)">
          <path
             d="m 0,0 c -16.713,9.496 -23.374,17.13 -29.559,32.854 0,0 -34.475,109.28 -61.417,177.848 -10.782,27.442 -34.933,78.838 -59.485,129.553 l -87.188,-48.668 c -0.925,-0.517 -1.798,-1.098 -2.628,-1.724 42.779,-71.546 121.352,-202.698 129.725,-214.81 0,0 42.784,-63.246 40.699,-96.073 -1.317,-20.743 6.764,-59.016 37.392,-80.467 6.403,-4.485 14.758,2.397 11.558,9.532 -0.05,0.112 -0.102,0.225 -0.156,0.339 -4.774,10.086 -13.26,22.825 -13.26,22.825 0,0 16.736,-0.158 34.238,-13.959 17.503,-13.8 54.669,-38.532 62.37,-30.215 C 75.486,-98.713 67.63,-38.425 0,0"
             style="fill:#ffffff;fill-opacity:1;fill-rule:nonzero;stroke:none"
             id="path112" />
        </g>
        <g
           id="g114"
           transform="translate(1175.0186,950.3394)">
          <path
             d="m 0,0 h 0.021 c 0.715,-0.007 17.711,-0.328 35.611,-14.442 23.925,-18.864 54.172,-36.019 59.325,-30.455 4.271,4.614 5.803,14.731 3.996,26.404 -1.819,11.759 -11.94,52.502 -65.747,83.074 -16.949,9.63 -24.085,17.571 -30.543,33.988 -0.396,1.238 -34.811,110.138 -61.416,177.848 -9.112,23.19 -28.75,65.997 -58.377,127.247 l -85.103,-47.505 c -0.237,-0.132 -0.473,-0.271 -0.708,-0.415 45.012,-75.278 120.372,-201.027 128.559,-212.871 1.777,-2.628 43.204,-64.285 41.095,-97.497 -1.114,-17.538 5.068,-56.511 36.437,-78.48 2.512,-1.757 5.087,-0.995 6.661,0.307 1.568,1.296 2.799,3.674 1.55,6.459 l -0.126,0.274 C 6.577,-16.224 -1.79,-3.626 -1.875,-3.5 -2.337,-2.806 -2.377,-1.913 -1.98,-1.179 -1.587,-0.453 -0.826,0 0,0 m 91.856,-50.289 c -17.798,0 -57.103,30.805 -59.013,32.31 -11.338,8.94 -22.421,11.953 -28.377,12.965 2.914,-4.603 7.643,-12.371 10.829,-19.099 l 0.175,-0.382 c 1.882,-4.196 0.787,-8.818 -2.79,-11.774 -3.585,-2.963 -8.34,-3.167 -12.114,-0.524 -33.007,23.116 -39.517,64.044 -38.348,82.455 2.012,31.682 -39.894,94.042 -40.317,94.669 -8.315,12.027 -84.888,139.815 -129.793,214.916 -0.59,0.988 -0.34,2.262 0.579,2.954 0.967,0.729 1.911,1.347 2.885,1.891 l 87.188,48.669 c 0.542,0.302 1.184,0.367 1.775,0.18 0.592,-0.186 1.08,-0.608 1.349,-1.166 C -83.858,345.272 -63.82,301.63 -54.562,278.065 -27.899,210.209 6.561,101.164 6.906,100.07 12.939,84.749 19.348,77.634 35.431,68.497 c 55.563,-31.57 66.075,-74.037 67.973,-86.301 2.043,-13.197 0.121,-24.469 -5.144,-30.153 -1.504,-1.624 -3.708,-2.332 -6.404,-2.332"
             style="fill:#000000;fill-opacity:1;fill-rule:nonzero;stroke:none"
             id="path116" />
        </g>
        <g
           id="g118"
           transform="translate(527.1133,1448.1223)">
          <path
             d="m 0,0 18.581,20.86 c 31.475,34.957 71.11,61.567 115.366,77.457 l 30.245,10.859 c 2.354,0.845 174.408,18.52 232.857,-0.808 36.5,-12.07 84.203,-40.302 149.12,-171.78 4.792,-9.707 0.934,-21.988 -8.514,-27.262 l -95.177,-53.127 c -8.284,-4.625 -8.07,-15.028 -6.834,-24.44 l 28.284,-153.101 c 1.62,-8.771 -2.133,-17.717 -9.627,-22.545 -23.611,-15.212 -92.497,-38.855 -243.315,-14.601 -35.322,5.681 -63.669,32.271 -71.713,67.158 l -27.641,119.872 c -1.718,10.144 -15.598,15.105 -26.351,17.446 -6.036,1.314 -12.225,1.43 -18.388,1.01 -12.978,-0.886 -25.291,7.123 -29.444,19.957 L -4.65,-25.592 C -8.068,-16.868 -6.267,-6.961 0,0"
             style="fill:#3e6eb4;fill-opacity:1;fill-rule:nonzero;stroke:none"
             id="path120" />
        </g>
        <g
           id="g122"
           transform="translate(844.6325,1310.0597)">
          <path
             d="m 0,0 c -0.477,0 -0.958,0.151 -1.367,0.464 -39.902,30.538 -51.807,64.111 -52.294,65.525 -0.406,1.175 0.219,2.455 1.394,2.861 1.169,0.407 2.455,-0.217 2.863,-1.392 C -49.288,67.124 -37.384,33.701 1.371,4.04 2.359,3.284 2.547,1.871 1.79,0.884 1.347,0.304 0.677,0 0,0"
             style="fill:#000000;fill-opacity:1;fill-rule:nonzero;stroke:none"
             id="path124" />
        </g>
        <g
           id="g126"
           transform="translate(702.6955,1314.8708)">
          <path
             d="m 0,0 c -0.684,0 -1.358,0.309 -1.801,0.897 -30.249,40.135 -32.715,75.674 -32.805,77.167 -0.074,1.241 0.87,2.307 2.11,2.383 1.264,0.07 2.309,-0.869 2.385,-2.11 C -30.089,77.984 -27.584,42.59 1.797,3.607 2.544,2.614 2.346,1.202 1.354,0.454 0.948,0.148 0.472,0 0,0"
             style="fill:#000000;fill-opacity:1;fill-rule:nonzero;stroke:none"
             id="path128" />
        </g>
        <g
           id="g130"
           transform="translate(845.3775,1476.7577)">
          <path
             d="m 0,0 c -95.938,-43.248 -153.757,42.073 -153.757,42.073 -1.598,1.765 -3.372,3.307 -5.272,4.625 l 0.821,0.289 c 1.099,0.388 2.191,0.792 3.275,1.21 42.841,16.56 70.081,58.993 69.03,104.946 l -0.604,26.399 71.727,0.751 c 0,0 1.892,-96.585 34.995,-97.307 L 38.513,80.841 C 52.205,49.546 32.182,14.508 0,0"
             style="fill:#ffffff;fill-opacity:1;fill-rule:nonzero;stroke:none"
             id="path132" />
        </g>
        <g
           id="g134"
           transform="translate(690.9037,1522.719)">
          <path
             d="m 0,0 c 0.837,-0.753 1.634,-1.547 2.386,-2.377 0.07,-0.078 0.135,-0.161 0.195,-0.248 0.143,-0.21 14.576,-21.205 40.343,-36.675 34.388,-20.647 71.61,-22.198 110.623,-4.609 l 0.926,-2.053 -0.926,2.053 c 28.975,13.062 50.795,45.169 37.877,76.705 l -16.997,1.992 c -32.141,0.692 -36.409,82.247 -36.921,97.269 L 70.27,131.353 70.821,107.234 C 71.904,59.886 43.585,16.847 0.352,0.136 0.235,0.09 0.118,0.045 0,0 m 101.46,-60.355 c -62.713,0 -100.285,51.897 -102.507,55.059 -1.425,1.557 -3.036,2.964 -4.792,4.183 -0.695,0.483 -1.061,1.314 -0.948,2.152 0.114,0.838 0.688,1.542 1.485,1.823 l 0.82,0.288 c 1.078,0.38 2.149,0.776 3.211,1.187 41.467,16.029 68.63,57.338 67.591,102.793 l -0.604,26.399 c -0.014,0.602 0.213,1.184 0.632,1.617 0.419,0.433 0.993,0.68 1.596,0.686 l 71.727,0.752 c 1.222,0.008 2.251,-0.973 2.275,-2.208 0.517,-26.263 7.418,-94.547 32.792,-95.1 l 18.511,-2.159 c 0.795,-0.093 1.481,-0.601 1.801,-1.334 15.079,-34.467 -8.319,-69.673 -39.651,-83.797 -19.565,-8.82 -37.605,-12.341 -53.939,-12.341"
             style="fill:#000000;fill-opacity:1;fill-rule:nonzero;stroke:none"
             id="path136" />
        </g>
        <g
           id="g138"
           transform="translate(759.1863,1652.5496)">
          <path
             d="m 0,0 -3.653,48.469 c -1.782,23.648 16.625,43.946 40.317,44.457 l 62.278,1.344 c 0,0 4.828,-30.39 21.093,-44.722 l -7.27,-13.656 -7.183,-25.117 C 104.016,5.301 99.525,1.134 93.933,0.08 L 56.382,0.048 Z"
             style="fill:#ffffff;fill-opacity:1;fill-rule:nonzero;stroke:none"
             id="path140" />
        </g>
        <g
           id="g142"
           transform="translate(759.1837,1650.2972)">
          <path
             d="m 0,0 c -1.167,0 -2.154,0.9 -2.243,2.083 l -3.653,48.469 c -0.909,12.066 3.066,23.644 11.195,32.6 8.12,8.947 19.242,14.018 31.319,14.278 l 62.279,1.343 c 1.1,0.043 2.094,-0.786 2.272,-1.897 0.047,-0.296 4.901,-29.767 20.357,-43.386 0.783,-0.689 0.989,-1.827 0.499,-2.747 L 114.868,37.297 107.749,12.408 C 105.928,6.042 100.794,1.333 94.352,0.12 94.216,0.094 94.076,0.081 93.938,0.081 L 56.387,0.049 h -0.002 c -1.243,0 -2.251,1.007 -2.252,2.25 -0.001,1.244 1.006,2.253 2.25,2.254 l 37.332,0.032 c 4.666,0.954 8.374,4.41 9.704,9.061 l 7.184,25.118 c 0.044,0.152 0.103,0.299 0.177,0.439 l 6.453,12.122 C 103.746,64.337 98.407,87.369 97.071,94.23 L 36.715,92.928 C 25.887,92.694 15.915,88.147 8.634,80.125 1.345,72.094 -2.221,61.711 -1.405,50.891 L 2.248,2.421 C 2.341,1.181 1.412,0.1 0.172,0.007 0.114,0.002 0.056,0 0,0"
             style="fill:#000000;fill-opacity:1;fill-rule:nonzero;stroke:none"
             id="path144" />
        </g>
        <g
           id="g146"
           transform="translate(804.1716,1535.6483)">
          <path
             d="m 0,0 c -2.026,0 -4.255,0.25 -6.674,0.863 -1.207,0.306 -1.936,1.531 -1.63,2.736 0.306,1.206 1.529,1.937 2.736,1.63 10.385,-2.633 16.284,2.789 16.342,2.845 0.905,0.853 2.33,0.813 3.184,-0.093 C 14.811,7.077 14.77,5.651 13.866,4.798 13.613,4.559 8.657,0 0,0"
             style="fill:#000000;fill-opacity:1;fill-rule:nonzero;stroke:none"
             id="path148" />
        </g>
        <g
           id="g150"
           transform="translate(870.5281,1750.5106)">
          <path
             d="m 0,0 -31.313,-16.615 c -18.382,-9.753 -31.004,-27.712 -33.883,-48.334 -4.026,-28.832 -7.477,-78.771 -34.94,-120.912 -21.262,-32.624 -57.146,-52.778 -95.992,-55.233 -25.604,-1.618 -55.884,-11.312 -72.065,-27.675 0,0 -51.503,67.393 0.236,126.548 51.738,59.155 119.78,55.298 133.191,118.091 C -121.932,35.961 -48.667,80.488 3.025,14.773 6.821,9.947 5.421,2.876 0,0"
             style="fill:#000000;fill-opacity:1;fill-rule:nonzero;stroke:none"
             id="path152" />
        </g>
        <g
           id="g154"
           transform="translate(1280.8621,1616.0587)">
          <path
             d="m 0,0 c 0,0 -30.871,-1.139 -69.035,-0.99 -8.029,0.032 -29.564,25.797 -43.387,21.432 -9.932,-3.136 8.851,-20.042 6.27,-20.031 -24.456,0.098 -45.571,0.188 -53.221,0.233 -5.992,0.035 -8.001,-6.102 -5.521,-11.556 3.547,-7.801 11.293,-19.617 24.092,-23.741 22.883,-7.373 67.045,-4.05 80.698,-1.399 29.849,5.797 53.526,6.235 53.526,6.235 z"
             style="fill:#ffffff;fill-opacity:1;fill-rule:nonzero;stroke:none"
             id="path156" />
        </g>
        <g
           id="g158"
           transform="translate(1121.4375,1614.4508)">
          <path
             d="m 0,0 c -1.572,0 -2.739,-0.568 -3.466,-1.691 -1.067,-1.648 -1.05,-4.271 0.046,-6.681 2.437,-5.357 9.528,-18.274 22.733,-22.529 22.507,-7.253 66.614,-3.85 79.579,-1.332 25.059,4.866 46.046,5.985 52.133,6.219 L 156.6,-0.74 C 148.025,-1.012 121.495,-1.755 90.38,-1.634 86.501,-1.619 81.314,2.307 74.748,7.277 65.952,13.933 55,22.22 47.682,19.903 46.576,19.554 46.44,19.12 46.396,18.978 45.639,16.545 50.606,10.155 52.727,7.427 55.351,4.05 56.333,2.786 55.519,1.128 55.105,0.287 54.245,-0.233 53.274,-0.233 H 53.263 C 28.806,-0.135 7.688,-0.045 0.038,0 Z m 58.123,-39.809 c -14.48,0 -29.482,1.17 -40.191,4.621 -14.916,4.806 -22.768,19.05 -25.451,24.951 -1.743,3.832 -1.638,8.045 0.274,10.995 1.577,2.434 4.252,3.773 7.31,3.746 C 7.313,4.461 26.649,4.379 49.463,4.286 49.364,4.414 49.266,4.54 49.171,4.662 45.57,9.295 40.639,15.639 42.096,20.317 c 0.401,1.288 1.461,3.006 4.229,3.881 9.542,3.013 21.519,-6.048 31.141,-13.33 4.947,-3.744 10.555,-7.989 12.932,-7.998 37.679,-0.142 68.634,0.977 68.942,0.988 0.702,0.028 1.363,-0.271 1.812,-0.807 0.447,-0.535 0.62,-1.247 0.471,-1.928 l -6.576,-29.817 c -0.224,-1.016 -1.117,-1.747 -2.157,-1.766 -0.235,-0.005 -23.848,-0.506 -53.14,-6.195 -7.498,-1.456 -24.183,-3.154 -41.627,-3.154"
             style="fill:#000000;fill-opacity:1;fill-rule:nonzero;stroke:none"
             id="path160" />
        </g>
        <g
           id="g162"
           transform="translate(1229.2219,1623.4836)">
          <path
             d="m 0,0 c 26.728,-0.682 89.571,1.496 114.402,34.745 13.233,-16.578 25.49,-33.986 38.959,-50.356 3.851,-4.679 8.657,-5.421 12.841,-3.839 5.805,-12.522 10.566,-25.482 14.72,-38.671 -66.694,-12.614 -153.209,-2.828 -182.544,1.164 -5.884,0.801 -10.275,5.796 -10.325,11.734 l -0.279,33.183 C -12.283,-5.288 -6.75,0.172 0,0"
             style="fill:#000000;fill-opacity:1;fill-rule:nonzero;stroke:none"
             id="path164" />
        </g>
        <g
           id="g166"
           transform="translate(1927.0551,2062.3091)">
          <path
             d="m 0,0 c -0.561,0 -1.122,0.208 -1.557,0.626 -0.9,0.86 -0.93,2.286 -0.068,3.184 l 8.286,8.65 c 0.86,0.899 2.287,0.928 3.182,0.069 0.9,-0.861 0.931,-2.286 0.068,-3.185 L 1.625,0.694 C 1.183,0.233 0.591,0 0,0"
             style="fill:#000000;fill-opacity:1;fill-rule:nonzero;stroke:none"
             id="path168" />
        </g>
        <g
           id="g170"
           transform="translate(1898.0527,2032.0341)">
          <path
             d="m 0,0 c -0.561,0 -1.122,0.208 -1.557,0.626 -0.9,0.86 -0.93,2.286 -0.068,3.184 l 8.286,8.65 c 0.862,0.899 2.289,0.927 3.182,0.068 0.9,-0.86 0.931,-2.286 0.068,-3.184 L 1.625,0.694 C 1.183,0.233 0.591,0 0,0"
             style="fill:#000000;fill-opacity:1;fill-rule:nonzero;stroke:none"
             id="path172" />
        </g>
        <g
           id="g174"
           transform="translate(1906.1829,2061.8459)">
          <path
             d="m 0,0 c -0.57,0 -1.141,0.215 -1.579,0.647 l -8.412,8.279 c -0.886,0.872 -0.899,2.298 -0.026,3.184 0.873,0.886 2.298,0.9 3.184,0.026 L 1.579,3.857 C 2.465,2.985 2.478,1.559 1.605,0.672 1.163,0.225 0.583,0 0,0"
             style="fill:#000000;fill-opacity:1;fill-rule:nonzero;stroke:none"
             id="path176" />
        </g>
        <g
           id="g178"
           transform="translate(1935.6228,2032.8684)">
          <path
             d="m 0,0 c -0.57,0 -1.141,0.215 -1.579,0.647 l -8.412,8.279 c -0.886,0.873 -0.899,2.298 -0.026,3.185 0.873,0.885 2.298,0.899 3.184,0.025 L 1.579,3.857 C 2.465,2.985 2.479,1.559 1.605,0.672 1.163,0.225 0.583,0 0,0"
             style="fill:#000000;fill-opacity:1;fill-rule:nonzero;stroke:none"
             id="path180" />
        </g>
        <g
           id="g182"
           transform="translate(537.8303,1878.0836)">
          <path
             d="m 0,0 c -1.223,0 -2.226,0.976 -2.252,2.203 l -0.257,11.976 c -0.027,1.244 0.961,2.273 2.203,2.3 1.26,0.049 2.274,-0.96 2.301,-2.203 L 2.252,2.3 C 2.278,1.057 1.291,0.027 0.048,0.001 0.033,0 0.015,0 0,0"
             style="fill:#000000;fill-opacity:1;fill-rule:nonzero;stroke:none"
             id="path184" />
        </g>
        <g
           id="g186"
           transform="translate(538.7319,1836.1685)">
          <path
             d="M 0,0 C -1.223,0 -2.226,0.976 -2.252,2.204 L -2.509,14.18 c -0.027,1.243 0.961,2.272 2.203,2.299 1.243,0.044 2.274,-0.96 2.301,-2.203 L 2.252,2.3 C 2.278,1.057 1.291,0.028 0.048,0.001 0.033,0 0.015,0 0,0"
             style="fill:#000000;fill-opacity:1;fill-rule:nonzero;stroke:none"
             id="path188" />
        </g>
        <g
           id="g190"
           transform="translate(511.5988,1862.9041)">
          <path
             d="m 0,0 c -1.236,0 -2.243,0.997 -2.252,2.234 -0.009,1.244 0.99,2.26 2.234,2.27 l 11.801,0.093 h 0.018 c 1.236,0 2.243,-0.997 2.252,-2.235 0.008,-1.243 -0.99,-2.259 -2.235,-2.269 L 0.018,0 Z"
             style="fill:#000000;fill-opacity:1;fill-rule:nonzero;stroke:none"
             id="path192" />
        </g>
        <g
           id="g194"
           transform="translate(552.9053,1863.2306)">
          <path
             d="m 0,0 c -1.236,0 -2.243,0.996 -2.252,2.234 -0.009,1.244 0.99,2.26 2.234,2.27 L 11.785,4.597 C 12.94,4.614 14.046,3.608 14.055,2.363 14.064,1.119 13.065,0.103 11.82,0.094 L 0.018,0 Z"
             style="fill:#000000;fill-opacity:1;fill-rule:nonzero;stroke:none"
             id="path196" />
        </g>
        <g
           id="g198"
           transform="translate(631.8831,2002.3099)">
          <path
             d="m 0,0 c -10.694,-4.803 -15.559,-17.6 -10.844,-28.526 2.303,-5.335 6.505,-9.415 11.836,-11.487 5.218,-2.03 10.912,-1.881 16.018,0.414 10.697,4.804 15.562,17.6 10.849,28.526 C 25.556,-5.737 21.352,-1.658 16.021,0.415 10.798,2.443 5.113,2.295 0,0 m 8.515,-45.941 c -3.09,0 -6.186,0.575 -9.155,1.73 -6.465,2.513 -11.556,7.45 -14.338,13.901 -5.685,13.173 0.209,28.613 13.133,34.419 6.221,2.792 13.144,2.973 19.498,0.504 6.463,-2.513 11.556,-7.45 14.34,-13.901 5.685,-13.173 -0.209,-28.613 -13.135,-34.419 -3.314,-1.488 -6.826,-2.234 -10.343,-2.234"
             style="fill:#000000;fill-opacity:1;fill-rule:nonzero;stroke:none"
             id="path200" />
        </g>
        <g
           id="g202"
           transform="translate(1622.9883,1915.8334)">
          <path
             d="m 0,0 c -0.561,0 -1.122,0.208 -1.557,0.626 -0.899,0.86 -0.93,2.286 -0.068,3.184 l 8.286,8.65 c 0.862,0.899 2.287,0.927 3.182,0.068 0.9,-0.86 0.931,-2.286 0.068,-3.184 L 1.625,0.694 C 1.183,0.233 0.592,0 0,0"
             style="fill:#000000;fill-opacity:1;fill-rule:nonzero;stroke:none"
             id="path204" />
        </g>
        <g
           id="g206"
           transform="translate(1593.986,1885.5581)">
          <path
             d="m 0,0 c -0.561,0 -1.122,0.208 -1.557,0.626 -0.899,0.86 -0.93,2.286 -0.068,3.184 l 8.286,8.65 c 0.862,0.899 2.287,0.927 3.182,0.068 0.9,-0.86 0.931,-2.286 0.068,-3.184 L 1.625,0.694 C 1.183,0.233 0.592,0 0,0"
             style="fill:#000000;fill-opacity:1;fill-rule:nonzero;stroke:none"
             id="path208" />
        </g>
        <g
           id="g210"
           transform="translate(1602.1162,1915.3699)">
          <path
             d="m 0,0 c -0.569,0 -1.141,0.215 -1.579,0.647 l -8.412,8.279 c -0.886,0.873 -0.899,2.298 -0.026,3.185 0.873,0.885 2.298,0.899 3.184,0.025 L 1.579,3.857 C 2.465,2.984 2.479,1.559 1.605,0.672 1.163,0.225 0.583,0 0,0"
             style="fill:#000000;fill-opacity:1;fill-rule:nonzero;stroke:none"
             id="path212" />
        </g>
        <g
           id="g214"
           transform="translate(1631.5562,1886.3926)">
          <path
             d="m 0,0 c -0.57,0 -1.141,0.215 -1.579,0.647 l -8.412,8.279 c -0.886,0.873 -0.899,2.298 -0.026,3.185 0.873,0.885 2.298,0.899 3.184,0.025 L 1.579,3.857 C 2.465,2.984 2.478,1.559 1.605,0.672 1.163,0.225 0.583,0 0,0"
             style="fill:#000000;fill-opacity:1;fill-rule:nonzero;stroke:none"
             id="path216" />
        </g>
      </g>
    </g>
  </g>
</svg>
