<?xml version="1.0" encoding="UTF-8" standalone="no"?>
<!-- Created with Inkscape (http://www.inkscape.org/) -->

<svg
   version="1.1"
   id="svg2"
   width="3333.3333"
   height="3333.3333"
   viewBox="0 0 3333.3333 3333.3333"
   sodipodi:docname="opal6.ai"
   xmlns:inkscape="http://www.inkscape.org/namespaces/inkscape"
   xmlns:sodipodi="http://sodipodi.sourceforge.net/DTD/sodipodi-0.dtd"
   xmlns="http://www.w3.org/2000/svg"
   xmlns:svg="http://www.w3.org/2000/svg">
  <defs
     id="defs6">
    <clipPath
       clipPathUnits="userSpaceOnUse"
       id="clipPath16">
      <path
         d="M 0,2500 H 2500 V 0 H 0 Z"
         id="path14" />
    </clipPath>
  </defs>
  <sodipodi:namedview
     id="namedview4"
     pagecolor="#ffffff"
     bordercolor="#000000"
     borderopacity="0.25"
     inkscape:showpageshadow="2"
     inkscape:pageopacity="0.0"
     inkscape:pagecheckerboard="0"
     inkscape:deskcolor="#d1d1d1" />
  <g
     id="g8"
     inkscape:groupmode="layer"
     inkscape:label="opal6"
     transform="matrix(1.3333333,0,0,-1.3333333,0,3333.3333)">
    <g
       id="g10">
      <g
         id="g12"
         clip-path="url(#clipPath16)">
        <g
           id="g18"
           transform="translate(1047.4894,1254.9106)">
          <path
             d="m 0,0 c -70.689,-66.866 -182.212,-63.712 -249.093,7.044 -66.881,70.757 -63.794,182.322 6.895,249.188 70.689,66.866 182.211,63.712 249.092,-7.045 C 73.775,178.431 70.688,66.865 0,0 M 159.632,346.531 112.589,396.299 48.311,358.151 C 35.358,367.726 21.796,376.119 7.73,383.233 l 5.043,74.523 -65.599,19.583 -36.592,-65.215 c -15.806,1.766 -31.73,2.216 -47.611,1.345 l -32.927,67.183 -66.58,-15.845 0.916,-74.692 c -14.436,-6.309 -28.443,-13.921 -41.905,-22.749 l -62.069,41.722 -49.72,-47.031 38.169,-64.329 c -9.561,-12.951 -17.943,-26.515 -25.046,-40.581 l -74.497,5.09 -19.537,-65.614 65.212,-36.645 c -1.756,-15.812 -2.198,-31.743 -1.32,-47.629 l -67.134,-32.901 15.879,-66.615 74.662,0.872 c 6.313,-14.447 13.932,-28.462 22.764,-41.936 l -41.668,-62.068 47.042,-49.768 64.279,38.148 c 12.953,-9.574 26.515,-17.969 40.581,-25.081 l -5.044,-74.524 65.6,-19.584 36.592,65.216 c 15.804,-1.768 31.731,-2.218 47.61,-1.348 l 32.928,-67.181 66.579,15.846 -0.915,74.692 c 14.437,6.307 28.442,13.921 41.904,22.747 l 62.07,-41.72 49.72,47.032 -38.171,64.326 c 9.563,12.954 17.945,26.516 25.048,40.584 l 74.496,-5.091 19.537,65.613 -65.211,36.643 c 1.757,15.813 2.196,31.744 1.318,47.63 l 67.135,32.902 -15.879,66.616 -74.661,-0.871 c -6.313,14.446 -13.933,28.461 -22.765,41.934 z"
             style="fill:#c7e8cc;fill-opacity:1;fill-rule:nonzero;stroke:none"
             id="path20" />
        </g>
        <g
           id="g22"
           transform="translate(1553.9709,1703.6755)">
          <path
             d="m 0,0 c -37.968,-55.636 -113.865,-69.923 -169.521,-31.911 -55.656,38.012 -69.995,113.928 -32.027,169.563 37.968,55.636 113.866,69.923 169.522,31.911 C 23.629,131.552 37.968,55.635 0,0 m 56.951,257.895 -39.147,26.736 -37.861,-35.268 c -10.171,4.57 -20.58,8.25 -31.141,10.99 l -7.561,51.15 -47.255,3.587 -15.148,-49.499 c -10.951,-1.133 -21.788,-3.173 -32.401,-6.1 l -32.164,40.594 -42.701,-20.521 11.617,-50.386 c -8.836,-6.393 -17.189,-13.604 -24.995,-21.557 l -48.125,19.081 -26.706,-39.132 35.289,-37.891 c -4.561,-10.168 -8.232,-20.577 -10.966,-31.137 l -51.138,-7.526 -3.554,-47.257 49.504,-15.185 c 1.14,-10.953 3.187,-21.794 6.12,-32.41 l -40.564,-32.138 20.548,-42.72 50.372,11.583 c 6.398,-8.843 13.615,-17.2 21.572,-25.014 l -19.045,-48.117 39.147,-26.737 37.86,35.268 c 10.172,-4.569 20.581,-8.25 31.143,-10.99 l 7.56,-51.149 47.255,-3.588 15.148,49.499 c 10.951,1.132 21.789,3.172 32.402,6.098 l 32.163,-40.592 42.701,20.521 -11.617,50.386 c 8.837,6.392 17.188,13.604 24.994,21.556 l 48.127,-19.08 26.706,39.133 -35.291,37.889 c 4.561,10.17 8.235,20.577 10.967,31.138 l 51.138,7.526 3.554,47.257 -49.503,15.183 c -1.14,10.955 -3.189,21.795 -6.122,32.411 l 40.566,32.139 -20.549,42.721 -50.372,-11.583 c -6.397,8.842 -13.615,17.2 -21.572,25.013 z"
             style="fill:#caddff;fill-opacity:1;fill-rule:nonzero;stroke:none"
             id="path24" />
        </g>
        <g
           id="g26"
           transform="translate(1070.671,614.4632)">
          <path
             d="m 0,0 -137.75,-89.316 c -0.109,-0.071 -0.258,-0.111 -0.413,-0.111 l -341.12,0.843 c -0.516,0.002 -0.773,0.406 -0.408,0.643 L -342.96,0.714 c 0.109,0.071 0.257,0.111 0.411,0.111 L -0.41,0.643 C 0.107,0.643 0.366,0.237 0,0"
             style="fill:#4b937a;fill-opacity:1;fill-rule:nonzero;stroke:none"
             id="path28" />
        </g>
        <g
           id="g30"
           transform="translate(1070.6714,614.4633)">
          <path
             d="m 0,0 h 0.022 z m -341.73,-1.161 -0.016,-0.011 c 0.005,0.005 0.011,0.008 0.016,0.011 m -131.395,-85.195 334.542,-0.827 131.998,85.586 -335.542,0.179 z m 334.962,-5.314 -341.126,0.843 c -1.286,0.003 -2.377,0.773 -2.714,1.917 -0.318,1.076 0.121,2.222 1.09,2.85 L -344.18,2.595 c 0.465,0.307 1.033,0.472 1.63,0.472 L -0.41,2.886 c 1.288,0 2.382,-0.77 2.721,-1.915 0.318,-1.076 -0.12,-2.223 -1.09,-2.852 H 1.22 l -137.751,-89.317 c -0.474,-0.309 -1.039,-0.472 -1.632,-0.472"
             style="fill:#000000;fill-opacity:1;fill-rule:nonzero;stroke:none"
             id="path32" />
        </g>
        <g
           id="g34"
           transform="translate(1070.9873,615.0255)">
          <path
             d="m 0,0 v -183.473 l -136.824,-88.766 c -0.522,-0.338 -1.413,-0.098 -1.413,0.38 v 181.87 c 0,0 136.262,89.925 138.237,89.989"
             style="fill:#000000;fill-opacity:1;fill-rule:nonzero;stroke:none"
             id="path36" />
        </g>
        <g
           id="g38"
           transform="translate(932.75,342.6313)">
          <path
             d="m 0,0 -342.175,0.835 0.291,182.223 L 0,182.405 Z"
             style="fill:#4b937a;fill-opacity:1;fill-rule:nonzero;stroke:none"
             id="path40" />
        </g>
        <g
           id="g42"
           transform="translate(592.8218,345.7035)">
          <path
             d="M 0,0 337.685,-0.823 V 177.094 L 0.284,177.739 Z m 339.928,-5.314 h -0.005 L -2.252,-4.48 c -1.237,0.003 -2.239,1.009 -2.237,2.246 l 0.29,182.224 c 10e-4,0.596 0.239,1.165 0.66,1.586 0.421,0.419 1.021,0.659 1.588,0.653 l 341.884,-0.653 c 1.236,-0.003 2.238,-1.006 2.238,-2.243 V -3.072 c 0,-0.595 -0.237,-1.167 -0.659,-1.588 -0.421,-0.419 -0.99,-0.654 -1.584,-0.654"
             style="fill:#000000;fill-opacity:1;fill-rule:nonzero;stroke:none"
             id="path44" />
        </g>
        <g
           id="g46"
           transform="translate(1575.4772,952.7562)">
          <path
             d="m 0,0 -137.624,-88.873 -381.179,0.841 c -0.398,10e-4 -0.596,0.311 -0.315,0.493 L -381.99,1.013 -0.533,0.832 C 0.139,0.832 0.475,0.307 0,0"
             style="fill:#caddff;fill-opacity:1;fill-rule:nonzero;stroke:none"
             id="path48" />
        </g>
        <g
           id="g50"
           transform="translate(1063.182,866.9532)">
          <path
             d="M 0,0 374.012,-0.826 505.98,84.395 130.967,84.573 Z m 374.671,-5.312 h -0.005 l -381.18,0.841 c -1.223,0.003 -2.261,0.745 -2.585,1.847 -0.308,1.05 0.118,2.164 1.06,2.772 L 129.089,88.7 c 0.363,0.234 0.786,0.359 1.217,0.359 l 381.457,-0.182 c 1.376,0 2.538,-0.807 2.892,-2.007 0.329,-1.113 -0.132,-2.299 -1.144,-2.951 L 375.888,-4.953 c -0.362,-0.234 -0.785,-0.359 -1.217,-0.359"
             style="fill:#000000;fill-opacity:1;fill-rule:nonzero;stroke:none"
             id="path52" />
        </g>
        <g
           id="g54"
           transform="translate(1576.0905,953.508)">
          <path
             d="m 0,0 v -521.835 l -137.189,-88.641 c -0.387,-0.25 -1.048,-0.073 -1.048,0.28 v 520.571 c 0,0 136.262,89.561 138.237,89.625"
             style="fill:#000000;fill-opacity:1;fill-rule:nonzero;stroke:none"
             id="path56" />
        </g>
        <g
           id="g58"
           transform="translate(1437.8531,342.4553)">
          <path
             d="m 0,0 -381.671,0.831 c 0.816,-0.527 0.291,521.248 0.291,521.248 L 0,521.428 Z"
             style="fill:#caddff;fill-opacity:1;fill-rule:nonzero;stroke:none"
             id="path60" />
        </g>
        <g
           id="g62"
           transform="translate(1058.4479,345.525)">
          <path
             d="M 0,0 377.163,-0.822 V 516.12 L 0.269,516.763 C 0.287,498.999 0.401,378.8 0.428,258.552 0.442,193.422 0.433,128.279 0.367,79.391 0.334,54.943 0.288,34.561 0.224,20.276 0.175,9.136 0.149,3.219 0,0 m 379.406,-5.312 h -0.005 L -2.27,-4.481 c -1.045,0.002 -1.948,0.725 -2.18,1.742 -0.071,0.305 -0.075,0.611 -0.02,0.905 0.756,11.302 0.257,515.731 0.252,520.841 -0.001,0.596 0.235,1.167 0.657,1.589 0.42,0.419 0.991,0.656 1.585,0.656 h 0.005 l 381.38,-0.651 c 1.237,-0.002 2.239,-1.005 2.239,-2.242 V -3.069 c 0,-0.596 -0.236,-1.168 -0.658,-1.588 -0.42,-0.42 -0.991,-0.655 -1.584,-0.655"
             style="fill:#000000;fill-opacity:1;fill-rule:nonzero;stroke:none"
             id="path64" />
        </g>
        <g
           id="g66"
           transform="translate(2072.3245,1325.5348)">
          <path
             d="m 0,0 -138.911,-107.271 -376.126,1.004 c -0.557,0.002 -0.834,0.521 -0.44,0.825 l 136.824,105.66 z"
             style="fill:#3e6eb4;fill-opacity:1;fill-rule:nonzero;stroke:none"
             id="path68" />
        </g>
        <g
           id="g70"
           transform="translate(1562.3358,1221.4977)">
          <path
             d="M 0,0 370.315,-0.989 503.42,101.797 132.1,102.012 Z m 371.077,-5.477 h -0.005 L -5.054,-4.472 c -1.245,0.002 -2.34,0.758 -2.721,1.883 -0.369,1.084 -0.009,2.245 0.916,2.959 l 136.823,105.66 c 0.394,0.303 0.875,0.468 1.371,0.468 L 509.99,106.28 c 0.959,0 1.812,-0.612 2.121,-1.519 0.31,-0.908 0.008,-1.913 -0.751,-2.499 L 372.448,-5.009 c -0.393,-0.303 -0.875,-0.468 -1.371,-0.468"
             style="fill:#000000;fill-opacity:1;fill-rule:nonzero;stroke:none"
             id="path72" />
        </g>
        <g
           id="g74"
           transform="translate(2072.3245,1325.4399)">
          <path
             d="M 0,0 V -876.893 L -136.808,-982.6 c -0.528,-0.408 -1.429,-0.119 -1.429,0.456 v 874.968 c 0,0 136.262,107.099 138.237,107.176"
             style="fill:#000000;fill-opacity:1;fill-rule:nonzero;stroke:none"
             id="path76" />
        </g>
        <g
           id="g78"
           transform="translate(1934.0872,342.6421)">
          <path
             d="m 0,0 -377.721,0.994 c 0.816,-0.63 0.29,875.406 0.29,875.406 L 0,875.621 Z"
             style="fill:#3e6eb4;fill-opacity:1;fill-rule:nonzero;stroke:none"
             id="path80" />
        </g>
        <g
           id="g82"
           transform="translate(1558.6573,345.8722)">
          <path
             d="M 0,0 373.187,-0.982 V 870.153 L 0.243,870.923 C 0.257,847.297 0.375,641.479 0.403,435.618 0.417,326.216 0.406,216.802 0.342,134.713 0.309,93.667 0.262,59.453 0.198,35.488 0.167,23.502 0.13,14.08 0.09,7.647 0.067,4.108 0.051,1.683 0,0 m 375.43,-5.473 h -0.005 L -2.298,-4.479 c -1.058,0.003 -1.97,0.745 -2.188,1.781 -0.058,0.271 -0.062,0.544 -0.021,0.806 0.772,13.672 0.269,866.43 0.263,875.061 0,0.596 0.237,1.168 0.659,1.588 0.42,0.421 0.99,0.656 1.584,0.656 h 0.005 l 377.431,-0.779 c 1.237,-0.002 2.238,-1.006 2.238,-2.242 V -3.231 c 0,-0.595 -0.238,-1.167 -0.659,-1.587 -0.421,-0.42 -0.99,-0.655 -1.584,-0.655"
             style="fill:#000000;fill-opacity:1;fill-rule:nonzero;stroke:none"
             id="path84" />
        </g>
        <g
           id="g86"
           transform="translate(439.2009,472.9997)">
          <path
             d="m 0,0 -9.305,-82.542 35.104,-14.615 12.93,89.985 z"
             style="fill:#ffffff;fill-opacity:1;fill-rule:nonzero;stroke:none"
             id="path88" />
        </g>
        <g
           id="g90"
           transform="translate(432.3127,391.8807)">
          <path
             d="M 0,0 30.88,-12.855 43.091,72.133 8.847,78.475 Z m 32.688,-18.281 c -0.293,0 -0.585,0.057 -0.862,0.172 L -3.279,-3.493 c -0.922,0.384 -1.478,1.33 -1.366,2.321 L 4.66,81.369 c 0.07,0.619 0.393,1.181 0.893,1.551 0.5,0.371 1.131,0.516 1.744,0.404 l 38.729,-7.172 c 1.183,-0.219 1.982,-1.334 1.811,-2.524 L 34.908,-16.357 c -0.099,-0.686 -0.51,-1.288 -1.112,-1.631 -0.343,-0.194 -0.725,-0.293 -1.108,-0.293"
             style="fill:#000000;fill-opacity:1;fill-rule:nonzero;stroke:none"
             id="path92" />
        </g>
        <g
           id="g94"
           transform="translate(421.7259,398.2535)">
          <path
             d="m 0,0 c -1.106,-7.825 -2.891,-22.34 -3.04,-35.355 -0.093,-8.172 6.044,-15.066 14.15,-16.106 22.92,-2.941 74.907,-6.157 119.189,-2.139 3.032,0.275 8.394,2.483 9.886,10.053 5.013,25.415 -39.205,31.645 -87.684,50.083 -1.899,0.723 -4.047,0.295 -5.507,-1.119 L 41.767,0.355 C 36.536,-4.711 28.778,-6.147 22.08,-3.29 L 6.18,3.491 C 3.473,4.646 0.412,2.914 0,0"
             style="fill:#ffffff;fill-opacity:1;fill-rule:nonzero;stroke:none"
             id="path96" />
        </g>
        <g
           id="g98"
           transform="translate(421.7264,398.2531)">
          <path
             d="M 0,0 H 0.022 Z M 4.424,1.609 C 4.047,1.609 3.674,1.512 3.335,1.321 2.725,0.977 2.318,0.381 2.221,-0.313 v -0.001 c -1.065,-7.526 -2.872,-22.09 -3.018,-35.066 -0.08,-6.997 5.162,-12.955 12.193,-13.857 23.668,-3.037 74.81,-6.112 118.7,-2.129 1.064,0.097 6.448,0.947 7.889,8.253 3.454,17.515 -20.391,25.338 -53.394,36.167 C 74.03,-3.48 63.108,0.103 51.704,4.441 50.616,4.853 49.38,4.605 48.552,3.805 l -5.225,-5.06 C 37.432,-6.965 28.749,-8.57 21.199,-5.353 L 5.3,1.428 C 5.017,1.548 4.72,1.609 4.424,1.609 m 79.732,-59.352 c -29.799,0 -57.589,2.037 -73.332,4.058 -9.288,1.191 -16.212,9.083 -16.107,18.356 0.15,13.229 1.984,28.009 3.062,35.643 0.296,2.087 1.517,3.878 3.352,4.913 1.831,1.035 3.994,1.154 5.929,0.327 l 15.899,-6.781 c 5.884,-2.508 12.653,-1.257 17.247,3.194 l 5.226,5.061 c 2.071,2.008 5.163,2.633 7.867,1.605 11.308,-4.301 22.178,-7.868 32.691,-11.317 33.867,-11.112 60.618,-19.888 56.395,-41.296 -1.597,-8.099 -7.399,-11.446 -11.884,-11.854 -15.059,-1.365 -30.972,-1.908 -46.345,-1.909"
             style="fill:#000000;fill-opacity:1;fill-rule:nonzero;stroke:none"
             id="path100" />
        </g>
        <g
           id="g102"
           transform="translate(418.7205,364.8554)">
          <path
             d="m 0,0 c 0,0 -0.027,-1.32 -0.034,-1.957 -0.093,-8.172 6.043,-15.066 14.149,-16.106 22.921,-2.941 74.907,-6.157 119.19,-2.139 3.031,0.275 8.393,2.483 9.886,10.053 0.457,2.32 0.176,6.503 0.176,6.503 l -3.141,-0.155 C 95.478,-6.008 50.629,-4.935 6.039,-0.589 Z"
             style="fill:#ffffff;fill-opacity:1;fill-rule:nonzero;stroke:none"
             id="path104" />
        </g>
        <g
           id="g106"
           transform="translate(420.9325,362.3863)">
          <path
             d="m 0,0 c 0.161,-6.784 5.321,-12.488 12.19,-13.37 23.668,-3.037 74.81,-6.112 118.7,-2.129 1.064,0.096 6.448,0.947 7.889,8.253 0.189,0.963 0.23,2.437 0.217,3.718 l -0.872,-0.043 C 93.417,-5.781 48.157,-4.696 3.609,-0.352 Z m 84.95,-21.876 c -29.799,0 -57.589,2.037 -73.332,4.058 -9.288,1.191 -16.212,9.082 -16.107,18.356 l 0.034,1.976 c 0.013,0.625 0.286,1.216 0.752,1.631 0.467,0.416 1.081,0.625 1.709,0.556 L 4.045,4.112 c 44.33,-4.319 89.364,-5.4 133.858,-3.203 l 3.142,0.154 c 1.206,0.062 2.267,-0.868 2.348,-2.089 0.031,-0.458 0.286,-4.552 -0.214,-7.089 -1.597,-8.097 -7.4,-11.445 -11.884,-11.852 -15.059,-1.366 -30.972,-1.909 -46.345,-1.909"
             style="fill:#000000;fill-opacity:1;fill-rule:nonzero;stroke:none"
             id="path108" />
        </g>
        <g
           id="g110"
           transform="translate(485.3452,375.0993)">
          <path
             d="m 0,0 c -0.574,0 -1.148,0.219 -1.586,0.657 -0.876,0.875 -0.876,2.295 0,3.171 l 17.01,17.017 c 0.874,0.876 2.296,0.876 3.172,0 0.876,-0.875 0.876,-2.295 0,-3.171 L 1.586,0.657 C 1.149,0.219 0.574,0 0,0"
             style="fill:#000000;fill-opacity:1;fill-rule:nonzero;stroke:none"
             id="path112" />
        </g>
        <g
           id="g114"
           transform="translate(502.0543,373.334)">
          <path
             d="m 0,0 c -0.56,0 -1.12,0.208 -1.555,0.626 -0.893,0.86 -0.92,2.279 -0.061,3.172 l 13.591,14.12 c 0.861,0.893 2.28,0.918 3.171,0.061 0.893,-0.859 0.92,-2.279 0.062,-3.171 L 1.616,0.688 C 1.176,0.23 0.588,0 0,0"
             style="fill:#000000;fill-opacity:1;fill-rule:nonzero;stroke:none"
             id="path116" />
        </g>
        <g
           id="g118"
           transform="translate(566.6955,1016.9596)">
          <path
             d="m 0,0 c 0,0 -21.37,-12.403 -29.711,-85.124 -8.341,-72.721 -5.557,-158.452 -63.637,-243.469 -46.386,-67.899 -42.31,-182.489 -49.052,-257.596 -0.325,-3.628 2.463,-6.77 6.103,-6.895 l 44.468,-1.524 c 2.834,-0.097 5.383,1.683 6.254,4.381 7.948,24.612 47.474,143.352 91.872,212.2 46.922,72.76 103.977,261.625 103.977,261.625 0,0 -10.589,47.738 -12.06,93.494 C 96.745,22.848 0,0 0,0"
             style="fill:#000000;fill-opacity:1;fill-rule:nonzero;stroke:none"
             id="path120" />
        </g>
        <g
           id="g122"
           transform="translate(810.787,679.5297)">
          <path
             d="m 0,0 -18.753,-80.92 33.187,-18.563 23.211,87.897 z"
             style="fill:#ffffff;fill-opacity:1;fill-rule:nonzero;stroke:none"
             id="path124" />
        </g>
        <g
           id="g126"
           transform="translate(794.5986,599.744)">
          <path
             d="M 0,0 29.192,-16.327 51.116,66.689 17.83,76.934 Z m 30.622,-21.939 c -0.379,0 -0.755,0.095 -1.095,0.286 L -3.66,-3.091 c -0.87,0.486 -1.315,1.49 -1.089,2.462 l 18.753,80.921 c 0.14,0.606 0.527,1.127 1.066,1.438 0.538,0.311 1.181,0.384 1.778,0.199 L 54.493,70.343 c 1.151,-0.354 1.817,-1.552 1.509,-2.716 L 32.791,-20.269 c -0.178,-0.67 -0.654,-1.221 -1.293,-1.492 -0.28,-0.119 -0.578,-0.178 -0.876,-0.178"
             style="fill:#000000;fill-opacity:1;fill-rule:nonzero;stroke:none"
             id="path128" />
        </g>
        <g
           id="g130"
           transform="translate(788.0478,603.3903)">
          <path
             d="m 0,0 c -1.106,-7.825 -8.138,-22.655 -8.286,-35.67 -0.093,-8.173 6.043,-15.066 14.149,-16.107 22.92,-2.941 80.154,-5.841 124.436,-1.823 3.032,0.275 8.394,2.483 9.886,10.053 5.013,25.415 -39.205,31.645 -87.684,50.083 -1.899,0.723 -4.047,0.295 -5.507,-1.119 L 41.767,0.355 C 36.536,-4.71 28.778,-6.147 22.08,-3.29 L 6.18,3.491 C 3.473,4.646 0.412,2.915 0,0"
             style="fill:#ffffff;fill-opacity:1;fill-rule:nonzero;stroke:none"
             id="path132" />
        </g>
        <g
           id="g134"
           transform="translate(788.0477,603.3907)">
          <path
             d="M 0,0 H 0.022 Z M 4.424,1.608 C 4.047,1.608 3.674,1.511 3.333,1.32 2.725,0.976 2.318,0.38 2.221,-0.314 1.785,-3.396 0.552,-7.29 -0.876,-11.8 c -2.263,-7.142 -5.078,-16.032 -5.168,-23.896 -0.08,-6.998 5.162,-12.955 12.193,-13.857 20.788,-2.667 78.487,-5.938 123.948,-1.814 1.064,0.097 6.447,0.948 7.888,8.253 3.455,17.515 -20.391,25.339 -53.394,36.168 C 74.03,-3.481 63.108,0.102 51.704,4.44 50.615,4.852 49.379,4.604 48.555,3.806 L 43.328,-1.256 C 37.432,-6.966 28.747,-8.572 21.2,-5.354 L 5.301,1.427 C 5.018,1.547 4.721,1.608 4.424,1.608 m 76.229,-59.403 c -29.942,-10e-4 -59.036,1.735 -75.076,3.793 -9.287,1.192 -16.212,9.084 -16.106,18.356 0.097,8.532 3.024,17.774 5.376,25.201 1.368,4.318 2.549,8.047 2.932,10.759 0.295,2.087 1.517,3.877 3.351,4.912 1.833,1.035 3.993,1.154 5.931,0.327 L 22.96,-1.228 c 5.885,-2.509 12.65,-1.255 17.247,3.194 l 5.226,5.061 c 2.07,2.007 5.155,2.635 7.865,1.605 11.309,-4.301 22.178,-7.868 32.691,-11.317 33.869,-11.112 60.62,-19.888 56.396,-41.296 -1.597,-8.099 -7.4,-11.446 -11.883,-11.854 -15.372,-1.394 -32.751,-1.96 -49.849,-1.96"
             style="fill:#000000;fill-opacity:1;fill-rule:nonzero;stroke:none"
             id="path136" />
        </g>
        <g
           id="g138"
           transform="translate(781.0077,570.2184)">
          <path
             d="m 0,0 c 0,0 -0.027,-1.32 -0.034,-1.957 -0.093,-8.172 6.043,-15.066 14.149,-16.106 22.921,-2.941 78.942,-6.383 123.225,-2.365 3.031,0.275 8.393,2.483 9.886,10.053 0.457,2.32 0.176,6.503 0.176,6.503 L 144.26,-4.027 C 99.513,-6.234 54.664,-5.161 10.073,-0.815 Z"
             style="fill:#ffffff;fill-opacity:1;fill-rule:nonzero;stroke:none"
             id="path140" />
        </g>
        <g
           id="g142"
           transform="translate(783.2183,567.789)">
          <path
             d="m 0,0 c 0.142,-6.802 5.309,-12.526 12.191,-13.409 20.096,-2.58 76.538,-6.548 122.735,-2.356 1.065,0.096 6.447,0.947 7.888,8.253 0.191,0.967 0.231,2.441 0.218,3.719 L 142.16,-3.837 C 97.458,-6.039 52.204,-4.961 7.645,-0.618 Z m 89.743,-22.078 c -33.171,0 -64.246,2.438 -78.124,4.22 -9.288,1.192 -16.212,9.084 -16.107,18.356 l 0.034,1.976 c 0.013,0.617 0.28,1.203 0.738,1.618 0.459,0.416 1.065,0.632 1.686,0.572 L 8.043,3.849 C 52.421,-0.474 97.458,-1.554 141.939,0.644 l 3.141,0.154 c 1.261,0.03 2.267,-0.87 2.348,-2.09 0.032,-0.458 0.287,-4.552 -0.214,-7.088 -1.596,-8.098 -7.399,-11.446 -11.883,-11.853 -14.66,-1.33 -30.346,-1.845 -45.588,-1.845"
             style="fill:#000000;fill-opacity:1;fill-rule:nonzero;stroke:none"
             id="path144" />
        </g>
        <g
           id="g146"
           transform="translate(851.6676,580.2359)">
          <path
             d="m 0,0 c -0.574,0 -1.148,0.219 -1.586,0.657 -0.876,0.875 -0.876,2.295 0,3.171 l 17.01,17.017 c 0.874,0.876 2.296,0.876 3.172,0 0.876,-0.875 0.876,-2.295 0,-3.171 L 1.586,0.657 C 1.149,0.219 0.574,0 0,0"
             style="fill:#000000;fill-opacity:1;fill-rule:nonzero;stroke:none"
             id="path148" />
        </g>
        <g
           id="g150"
           transform="translate(868.3766,578.4706)">
          <path
             d="m 0,0 c -0.56,0 -1.12,0.208 -1.555,0.626 -0.893,0.86 -0.92,2.279 -0.061,3.172 l 13.591,14.12 c 0.861,0.893 2.28,0.919 3.171,0.061 0.893,-0.859 0.92,-2.278 0.062,-3.171 L 1.616,0.688 C 1.176,0.23 0.588,0 0,0"
             style="fill:#000000;fill-opacity:1;fill-rule:nonzero;stroke:none"
             id="path152" />
        </g>
        <g
           id="g154"
           transform="translate(641.3383,895.278)">
          <path
             d="m 0,0 c 0,0 104.841,-31.192 216.349,28.688 3.292,1.768 6.793,-2.007 4.796,-5.165 -5.614,-8.879 -21.661,-30.69 -30.033,-53.414 -10.308,-27.979 -32.072,-172.728 -39.245,-217.775 -0.648,-4.07 2.419,-7.777 6.538,-7.911 l 42.874,-1.394 c 2.711,-0.088 5.213,1.422 6.387,3.867 15.473,32.23 125.583,285.077 121.726,332.325 -4.17,51.076 -71.579,48.473 -95.899,50.034 C 208.333,130.87 7.696,126.19 7.696,126.19 Z"
             style="fill:#000000;fill-opacity:1;fill-rule:nonzero;stroke:none"
             id="path156" />
        </g>
        <g
           id="g158"
           transform="translate(348.4554,962.3256)">
          <path
             d="m 0,0 c 3.454,4.116 7.926,8.945 11.773,12.746 4.965,4.906 21.548,37.182 21.548,37.182 l 28.995,-8.215 c 0,0 -13.555,-23.713 -10.299,-35.522 3.033,-10.997 5.424,-34.225 -10.678,-51.132 -1.847,-1.94 -5.892,-2.453 -7.297,-2.124 -4.202,0.982 -4.288,6.817 -2.23,10.61 l 5.815,10.71 c 0.511,0.943 -0.261,2.062 -1.323,1.913 -4.35,-0.613 -13.917,-3.403 -23.93,-15.753 -7.704,-9.502 -22.973,-30.713 -28.107,-27.2 C -24.9,-60.512 -18.908,-22.532 0,0"
             style="fill:#ffffff;fill-opacity:1;fill-rule:nonzero;stroke:none"
             id="path160" />
        </g>
        <g
           id="g162"
           transform="translate(348.4554,962.3255)">
          <path
             d="M 0,0 H 0.022 Z M 34.474,47.27 C 30.786,40.156 17.937,15.684 13.35,11.15 9.503,7.35 5.046,2.525 1.718,-1.441 v -10e-4 c -13.826,-16.475 -21.055,-42.553 -19.133,-56.572 0.478,-3.488 1.526,-5.945 2.95,-6.92 3.274,-0.936 16.287,15.588 21.172,21.809 1.438,1.833 2.767,3.524 3.925,4.953 10.346,12.76 20.33,15.853 25.361,16.56 1.331,0.19 2.637,-0.381 3.402,-1.485 0.769,-1.106 0.847,-2.531 0.203,-3.717 l -5.814,-10.711 c -1.067,-1.965 -1.354,-4.6 -0.667,-6.131 0.304,-0.678 0.761,-1.068 1.436,-1.226 0.866,-0.201 3.999,0.268 5.164,1.489 C 57.17,-25.067 51.224,0.63 49.855,5.595 47.008,15.918 55.552,33.737 59.007,40.32 Z M -14.457,-69.424 c -0.914,0 -1.762,0.254 -2.542,0.789 -2.553,1.746 -4.189,5.116 -4.86,10.012 -2.044,14.908 5.075,42.111 20.141,60.064 3.462,4.128 7.917,8.95 11.915,12.9 3.863,3.819 16.563,27.723 21.129,36.612 0.489,0.949 1.581,1.425 2.607,1.132 L 62.928,43.87 c 0.663,-0.188 1.204,-0.67 1.465,-1.31 0.261,-0.638 0.214,-1.361 -0.129,-1.96 -3.641,-6.374 -12.55,-24.873 -10.085,-33.814 1.482,-5.373 7.905,-33.197 -11.215,-53.273 -2.543,-2.667 -7.493,-3.22 -9.432,-2.762 -2.033,0.475 -3.634,1.809 -4.508,3.756 -1.263,2.817 -0.936,6.88 0.817,10.108 l 4.865,8.961 c -4.347,-1.053 -12.294,-4.341 -20.589,-14.573 -1.146,-1.413 -2.46,-3.086 -3.882,-4.898 -10.669,-13.587 -18.976,-23.529 -24.692,-23.529"
             style="fill:#000000;fill-opacity:1;fill-rule:nonzero;stroke:none"
             id="path164" />
        </g>
        <g
           id="g166"
           transform="translate(1043.5121,1326.8051)">
          <path
             d="m 0,0 -18.738,31.588 c -3.081,5.195 -12.779,6.769 -17.618,3.162 -105.887,-78.927 -218.529,-46.736 -235.938,-42.591 -43.174,10.281 -64.927,11.849 -99.01,13.924 -49.876,3.037 -121.631,-25.806 -169.91,-74.087 -38.41,-38.409 -103.924,-162.989 -133.626,-249.538 -1.248,-3.639 0.356,-7.634 3.771,-9.406 l 29.806,-15.466 c 3.78,-1.961 8.425,-0.527 10.422,3.235 15.169,28.58 80.885,147.104 149.663,186.235 5.053,2.875 12.663,-0.166 12.371,-5.973 -0.916,-18.216 -12.222,-85.747 -15.669,-148.315 -0.455,-8.255 5.244,-15.579 13.373,-17.086 l 30.089,-5.577 c 52.48,-12.222 101.682,1.391 123.362,9.128 6.636,2.37 9.849,8.77 10.857,15.745 1.67,11.567 24.965,104.332 67.44,165.69 5.347,7.724 13.449,13.072 22.826,13.62 37.875,2.214 145.677,17.357 216.073,115.991 C 1.597,-6.844 1.803,-3.04 0,0"
             style="fill:#3e6eb4;fill-opacity:1;fill-rule:nonzero;stroke:none"
             id="path168" />
        </g>
        <g
           id="g170"
           transform="translate(664.667,1330.8698)">
          <path
             d="m 0,0 c -50.933,0 -117.225,-30.094 -160.783,-73.654 -36.688,-36.688 -102.612,-159.867 -133.091,-248.681 -0.893,-2.604 0.235,-5.417 2.682,-6.687 l 29.807,-15.465 c 2.673,-1.389 5.998,-0.36 7.408,2.294 18.103,34.107 82.46,148.402 150.535,187.133 3.415,1.942 8.016,1.828 11.446,-0.284 2.874,-1.77 4.433,-4.595 4.273,-7.75 -0.332,-6.604 -2.017,-19.651 -4.151,-36.168 -3.929,-30.409 -9.308,-72.054 -11.518,-112.158 -0.392,-7.121 4.57,-13.465 11.543,-14.757 l 30.089,-5.577 c 51.028,-11.881 98.459,0.561 122.2,9.035 6.427,2.295 8.653,8.854 9.39,13.953 1.488,10.306 24.203,103.644 67.816,166.646 6.029,8.708 14.974,14.024 24.541,14.582 41.497,2.426 145.46,18.494 214.377,115.056 1.548,2.169 1.686,5.023 0.352,7.273 l -18.738,31.588 c -1.053,1.776 -3.39,3.178 -6.253,3.751 -3.124,0.624 -6.229,0.15 -8.096,-1.242 -66.175,-49.327 -149.758,-64.802 -235.36,-43.573 -0.952,0.235 -1.766,0.438 -2.437,0.598 C 63.738,-4.016 42.067,-2.33 7.405,-0.22 4.978,-0.072 2.505,0 0,0 m -258.868,-349.588 c -1.549,0 -3.12,0.36 -4.583,1.119 l -29.806,15.465 c -4.436,2.302 -6.48,7.402 -4.859,12.125 30.648,89.31 97.103,213.338 134.162,250.396 46.527,46.53 118.72,77.973 171.631,74.74 34.91,-2.126 56.739,-3.823 99.393,-13.981 0.684,-0.162 1.511,-0.368 2.478,-0.608 85.495,-21.198 165.578,-6.396 231.6,42.816 2.9,2.162 7.254,2.922 11.657,2.045 4.15,-0.832 7.515,-2.968 9.231,-5.861 l 18.737,-31.589 c 2.241,-3.777 2.022,-8.552 -0.558,-12.167 -70.043,-98.139 -175.624,-114.465 -217.767,-116.929 -8.18,-0.477 -15.876,-5.09 -21.114,-12.657 -40.441,-58.419 -64.879,-149.599 -67.064,-164.734 -1.29,-8.932 -5.667,-15.159 -12.323,-17.536 -24.203,-8.638 -72.578,-21.32 -124.625,-9.201 l -29.988,5.557 c -9.184,1.703 -15.721,10.049 -15.205,19.415 2.219,40.269 7.611,82.008 11.548,112.484 2.122,16.422 3.798,29.392 4.121,35.82 0.101,2.012 -1.301,3.186 -2.145,3.706 -2.047,1.258 -4.875,1.343 -6.877,0.205 -67.024,-38.134 -130.831,-151.501 -148.791,-185.337 -1.786,-3.365 -5.265,-5.293 -8.853,-5.293"
             style="fill:#000000;fill-opacity:1;fill-rule:nonzero;stroke:none"
             id="path172" />
        </g>
        <g
           id="g174"
           transform="translate(1017.7215,1348.9011)">
          <path
             d="m 0,0 c -0.396,2.348 0.435,4.732 2.249,6.275 2.402,2.044 6.448,5.518 12.323,10.66 10.357,9.064 23.319,27.148 34.612,32.574 11.294,5.427 52.263,21.431 58.811,18.035 6.548,-3.395 3.303,-11.087 -5.998,-15.556 C 92.696,47.52 80.59,42.93 80.59,42.93 c 0,0 6.768,0.389 11.767,-7.43 5,-7.819 -1.927,-10.977 0.995,-14.847 C 97.095,15.697 95.99,9.93 93.022,7.405 86.257,1.649 78.066,13.029 71.952,1.252 67.704,-6.932 57.67,-12.262 37.314,-16.15 31.853,-17.193 26.649,-19.292 21.937,-22.237 19.986,-23.456 17.514,-23.551 15.509,-22.42 10.654,-19.682 2.218,-13.143 0,0"
             style="fill:#ffffff;fill-opacity:1;fill-rule:nonzero;stroke:none"
             id="path176" />
        </g>
        <g
           id="g178"
           transform="translate(1019.9332,1349.2729)">
          <path
             d="m 0,0 c 2.064,-12.229 9.907,-18.305 14.399,-20.839 1.273,-0.718 2.859,-0.667 4.138,0.133 5.05,3.156 10.482,5.306 16.145,6.388 19.173,3.662 29.062,8.516 33.068,16.232 4.297,8.275 10.125,7.056 14.376,6.171 3.215,-0.67 5.287,-0.999 7.231,0.656 1.888,1.607 3.191,5.955 -0.006,10.189 -1.976,2.616 -1.089,5.093 -0.376,7.084 0.799,2.236 1.556,4.348 -0.72,7.907 -4.168,6.519 -9.529,6.411 -9.771,6.396 -1.078,-0.04 -2.074,0.722 -2.291,1.797 -0.217,1.077 0.363,2.152 1.39,2.541 0.121,0.046 12.127,4.608 21.231,8.983 5.592,2.686 8.129,6.213 8.165,8.517 0.007,0.46 0.028,1.856 -2.228,3.027 C 99.987,67.65 62.804,54.256 47.943,47.116 41.14,43.847 33.502,35.51 26.118,27.448 21.784,22.717 17.69,18.248 13.838,14.876 7.951,9.723 3.896,6.243 1.49,4.195 0.287,3.171 -0.271,1.603 0,0 m 16.337,-25.829 c -1.431,0 -2.857,0.359 -4.141,1.083 -5.189,2.926 -14.246,9.936 -16.619,24 -0.527,3.128 0.625,6.331 3.007,8.358 2.397,2.039 6.435,5.506 12.299,10.639 3.666,3.209 7.679,7.589 11.927,12.227 7.673,8.375 15.606,17.036 23.191,20.681 4.828,2.32 52.182,22.486 60.815,18.004 3.043,-1.578 4.694,-4.091 4.648,-7.076 -0.07,-4.567 -4.173,-9.353 -10.707,-12.492 -5.1,-2.45 -11.075,-4.952 -15.444,-6.716 2.209,-1.233 4.617,-3.248 6.721,-6.542 3.462,-5.413 2.079,-9.277 1.164,-11.834 C 92.524,22.623 92.487,22.22 92.93,21.633 97.401,15.714 96.064,8.559 92.263,5.324 88.55,2.163 84.482,3.01 81.209,3.694 76.999,4.571 74.46,5.102 71.731,-0.153 67.022,-9.222 56.194,-14.776 35.523,-18.725 c -5.115,-0.977 -10.03,-2.924 -14.61,-5.785 -1.404,-0.878 -2.993,-1.319 -4.576,-1.319"
             style="fill:#000000;fill-opacity:1;fill-rule:nonzero;stroke:none"
             id="path180" />
        </g>
        <g
           id="g182"
           transform="translate(743.9834,1418.5122)">
          <path
             d="m 0,0 -56.019,-92.851 c -0.765,-1.058 -8.987,-0.771 -18.264,-1.711 -4.328,-0.438 -8.858,-1.098 -12.607,-1.707 -3.086,-0.501 -3.956,-4.521 -1.35,-6.247 l 10.027,-6.641 c 21.023,-13.924 45.984,-21.124 71.141,-19.416 6.991,0.474 13.692,1.599 19.652,3.456 l 21.455,6.751 c 3.219,1.012 3.194,5.576 -0.035,6.555 l -27.32,8.279 23.067,48.962 z"
             style="fill:#ffffff;fill-opacity:1;fill-rule:nonzero;stroke:none"
             id="path184" />
        </g>
        <g
           id="g186"
           transform="translate(743.8844,1414.0067)">
          <path
             d="m 0,0 -53.999,-89.504 c -1.188,-1.656 -3.338,-1.763 -9.723,-2.082 -2.907,-0.145 -6.525,-0.325 -10.237,-0.701 -3.638,-0.37 -7.835,-0.938 -12.473,-1.69 -0.727,-0.117 -0.925,-0.687 -0.977,-0.926 -0.05,-0.237 -0.104,-0.833 0.507,-1.237 l 10.027,-6.642 c 21.002,-13.911 45.766,-20.67 69.75,-19.048 7.087,0.481 13.525,1.611 19.137,3.36 l 21.448,6.749 c 0.755,0.236 0.833,0.876 0.832,1.14 -0.001,0.263 -0.086,0.9 -0.843,1.129 l -27.321,8.279 c -0.624,0.189 -1.134,0.639 -1.399,1.235 -0.264,0.596 -0.257,1.277 0.021,1.867 l 22.582,47.932 z m -14.166,-126.553 c -22.613,0 -45.502,6.994 -65.186,20.032 l -10.027,6.641 c -1.961,1.299 -2.91,3.623 -2.415,5.921 0.495,2.301 2.318,4.031 4.643,4.409 4.727,0.767 9.012,1.347 12.74,1.726 3.825,0.387 7.507,0.571 10.466,0.719 2.524,0.125 5.346,0.266 6.46,0.492 L -1.822,5.664 c 0.415,0.687 1.139,1.088 1.97,1.084 0.803,-0.019 1.535,-0.464 1.92,-1.17 l 29.747,-54.57 c 0.343,-0.627 0.365,-1.382 0.06,-2.029 L 9.914,-97.634 34.75,-105.159 c 2.433,-0.737 4.013,-2.856 4.028,-5.398 0.013,-2.544 -1.546,-4.681 -3.971,-5.444 l -21.454,-6.75 c -5.953,-1.854 -12.739,-3.05 -20.173,-3.554 -2.442,-0.166 -4.893,-0.248 -7.346,-0.248"
             style="fill:#000000;fill-opacity:1;fill-rule:nonzero;stroke:none"
             id="path188" />
        </g>
        <g
           id="g190"
           transform="translate(768.9923,1362.0271)">
          <path
             d="m 0,0 c 2.938,-0.38 5.963,-0.5 9.074,-0.337 l 5.533,0.289 c 0,0 31.719,4.207 36.806,12.073 5.086,7.866 -5.667,36.422 -5.667,36.422 4.906,3.814 6.001,8.634 4.954,10.25 -1.047,1.616 -8.121,4.091 -10.99,6.204 -2.337,1.721 -7.577,15.391 -9.823,21.255 0,0 -4.153,23.18 -41.329,20.168 -85.185,-6.9 -23.936,-85.731 -23.936,-85.731 1.316,-1.535 2.676,-3.002 4.078,-4.397 z"
             style="fill:#ffffff;fill-opacity:1;fill-rule:nonzero;stroke:none"
             id="path192" />
        </g>
        <g
           id="g194"
           transform="translate(775.3938,1359.3763)">
          <path
             d="m 0,0 c -4.725,0 -9.371,0.631 -13.848,1.883 -1.193,0.332 -1.89,1.57 -1.556,2.763 0.334,1.192 1.566,1.891 2.763,1.556 C -7.755,4.836 -2.64,4.29 2.556,4.552 l 5.532,0.29 c 11.691,1.56 31.746,5.959 35.039,11.052 3.259,5.039 -1.878,23.782 -5.882,34.413 -0.346,0.92 -0.053,1.958 0.723,2.561 3.831,2.978 4.718,6.498 4.409,7.332 -0.401,0.387 -2.901,1.582 -4.556,2.374 -2.155,1.032 -4.383,2.097 -5.842,3.172 -2.094,1.541 -4.963,7.573 -10.587,22.258 -0.052,0.132 -0.089,0.268 -0.114,0.407 -0.162,0.853 -4.409,21.116 -38.941,18.329 -21.011,-1.702 -34.41,-7.742 -39.828,-17.951 -9.165,-17.272 5.421,-43.086 14.135,-58.508 l 0.773,-1.369 c 0.608,-1.079 0.227,-2.448 -0.852,-3.055 -1.076,-0.608 -2.448,-0.228 -3.055,0.851 l -0.771,1.366 c -9.166,16.223 -24.509,43.375 -14.192,62.817 6.181,11.65 20.793,18.486 43.429,20.319 36.597,2.966 43.021,-19.075 43.659,-21.747 5.834,-15.216 8.129,-19.344 9.026,-20.123 1.095,-0.805 3.221,-1.823 5.096,-2.719 3.515,-1.681 5.546,-2.699 6.423,-4.054 C 47.902,59.91 46.563,54.612 41.989,50.4 44.33,43.888 51.904,21.206 46.894,13.459 41.405,4.969 11.852,0.823 8.5,0.379 L 2.79,0.073 C 1.857,0.024 0.927,0 0,0"
             style="fill:#000000;fill-opacity:1;fill-rule:nonzero;stroke:none"
             id="path196" />
        </g>
        <g
           id="g198"
           transform="translate(740.1582,1478.4327)">
          <path
             d="m 0,0 c 9.288,1.831 19.874,0.39 24.397,1.93 7.296,2.486 7.127,10.885 17.419,11.713 9.046,0.727 17.462,-0.958 22.027,-7.889 0.761,-1.155 1.424,-2.446 1.955,-3.906 7.131,-19.586 -2.719,-29.032 -7.077,-32.098 0,0 -27.586,-13.247 -32.347,-17.057 -4.453,-3.564 -9.7,-12.043 -6.837,-24.309 0.369,-1.582 -0.392,-3.218 -1.809,-4.013 -1.663,-0.932 -3.772,-0.466 -4.857,1.101 -3.42,4.941 -10.926,14.501 -16.49,12.295 -6.489,-2.573 -8.692,-18.879 3.234,-22.911 3.671,-1.242 4.88,-6.049 2.237,-8.884 -2.195,-2.353 -5.552,-3.997 -10.61,-2.714 0,0 -29.676,21.16 -33.189,49.042 C -45.461,-19.818 -12.359,-2.437 0,0"
             style="fill:#000000;fill-opacity:1;fill-rule:nonzero;stroke:none"
             id="path200" />
        </g>
        <path
           d="m 1848.862,1294.931 h -77.946 v 207.835 h 77.946 z"
           style="fill:#ffffff;fill-opacity:1;fill-rule:nonzero;stroke:none"
           id="path202" />
        <path
           d="m 1773.159,1297.175 h 73.461 v 203.349 h -73.461 z m 75.704,-4.486 h -77.946 c -1.239,0 -2.243,1.004 -2.243,2.243 v 207.835 c 0,1.238 1.004,2.243 2.243,2.243 h 77.946 c 1.238,0 2.242,-1.005 2.242,-2.243 v -207.835 c 0,-1.239 -1.004,-2.243 -2.242,-2.243"
           style="fill:#000000;fill-opacity:1;fill-rule:nonzero;stroke:none"
           id="path204" />
        <g
           id="g206"
           transform="translate(1865.3142,1291.7823)">
          <path
             d="m 0,0 h -111.653 c -8.299,0 -15.026,6.728 -15.026,15.026 v 28.205 c 0,8.298 6.727,15.026 15.026,15.026 L 0,58.257 c 8.299,0 15.026,-6.728 15.026,-15.026 V 15.026 C 15.026,6.728 8.299,0 0,0"
             style="fill:#ffffff;fill-opacity:1;fill-rule:nonzero;stroke:none"
             id="path208" />
        </g>
        <g
           id="g210"
           transform="translate(1753.661,1347.7968)">
          <path
             d="m 0,0 c -7.049,0 -12.783,-5.735 -12.783,-12.784 v -28.204 c 0,-7.05 5.734,-12.784 12.783,-12.784 h 111.653 c 7.049,0 12.783,5.734 12.783,12.784 v 28.204 C 124.436,-5.735 118.702,0 111.653,0 Z M 111.653,-58.257 H 0 c -9.522,0 -17.269,7.747 -17.269,17.269 v 28.204 c 0,9.523 7.747,17.27 17.269,17.27 h 111.653 c 9.522,0 17.269,-7.747 17.269,-17.27 v -28.204 c 0,-9.522 -7.747,-17.269 -17.269,-17.269"
             style="fill:#000000;fill-opacity:1;fill-rule:nonzero;stroke:none"
             id="path212" />
        </g>
        <g
           id="g214"
           transform="translate(1957.4854,1255.5688)">
          <path
             d="m 0,0 h -296.007 v 21.009 c 0,13.615 11.036,24.652 24.651,24.652 H -24.651 C -11.037,45.661 0,34.624 0,21.009 Z"
             style="fill:#ffffff;fill-opacity:1;fill-rule:nonzero;stroke:none"
             id="path216" />
        </g>
        <g
           id="g218"
           transform="translate(1663.7203,1257.8113)">
          <path
             d="m 0,0 h 291.522 v 18.767 c 0,12.356 -10.053,22.409 -22.409,22.409 H 22.409 C 10.053,41.176 0,31.123 0,18.767 Z M 293.765,-4.486 H -2.243 c -1.238,0 -2.243,1.005 -2.243,2.243 v 21.01 c 0,14.83 12.065,26.894 26.895,26.894 h 246.704 c 14.83,0 26.895,-12.064 26.895,-26.894 v -21.01 c 0,-1.238 -1.004,-2.243 -2.243,-2.243"
             style="fill:#000000;fill-opacity:1;fill-rule:nonzero;stroke:none"
             id="path220" />
        </g>
        <g
           id="g222"
           transform="translate(1749.7046,1512.916)">
          <path
             d="m 0,0 c -81.771,45.921 -163.526,115.221 -224.302,190.129 -37.32,45.997 -96.843,132.068 -76.202,191.711 5.96,17.219 21.12,38.85 59.5,44.117 27.864,3.82 65.528,-1.456 111.972,-15.688 l -10.129,-40.988 c -41.609,12.749 -74.31,17.622 -97.172,14.483 -15.736,-2.159 -25.339,-7.95 -28.545,-17.211 -7.606,-21.98 10.75,-76.245 68.906,-147.926 C -138.231,147.46 -60.536,81.608 17.192,37.958 Z"
             style="fill:#ffffff;fill-opacity:1;fill-rule:nonzero;stroke:none"
             id="path224" />
        </g>
        <g
           id="g226"
           transform="translate(1527.5938,1937.8364)">
          <path
             d="m 0,0 c -6.622,0 -12.818,-0.395 -18.588,-1.186 -37.252,-5.112 -51.931,-26.003 -57.686,-42.629 -20.288,-58.62 38.798,-143.929 75.824,-189.563 60.075,-74.046 140.708,-142.594 221.529,-188.385 l 15.335,33.855 c -77.364,43.785 -154.549,109.371 -212.016,180.202 -58.7,72.35 -77.094,127.505 -69.284,150.072 3.505,10.125 13.719,16.416 30.36,18.699 22.773,3.127 55.013,-1.539 95.867,-13.87 l 9.051,36.627 C 54.811,-5.416 24.516,0 0,0 m 222.111,-427.163 c -0.382,0 -0.759,0.097 -1.099,0.287 -82.009,46.054 -163.998,115.552 -224.944,190.672 -37.614,46.357 -97.577,133.186 -76.58,193.856 6.164,17.813 21.807,40.185 61.315,45.606 28.188,3.866 66.183,-1.44 112.933,-15.765 1.139,-0.348 1.806,-1.527 1.52,-2.682 L 85.128,-56.177 c -0.148,-0.599 -0.536,-1.109 -1.071,-1.413 -0.537,-0.304 -1.177,-0.373 -1.763,-0.193 -41.301,12.653 -73.678,17.499 -96.211,14.404 -14.829,-2.035 -23.823,-7.324 -26.731,-15.723 -7.403,-21.392 10.915,-74.765 68.528,-145.778 57.571,-70.956 135.032,-136.61 212.522,-180.127 1.014,-0.571 1.425,-1.821 0.945,-2.881 l -17.193,-37.958 c -0.259,-0.572 -0.747,-1.009 -1.345,-1.205 -0.228,-0.075 -0.463,-0.112 -0.698,-0.112"
             style="fill:#000000;fill-opacity:1;fill-rule:nonzero;stroke:none"
             id="path228" />
        </g>
        <g
           id="g230"
           transform="translate(1871.7206,1515.2787)">
          <path
             d="m 0,0 c 80.446,45.921 160.875,115.221 220.666,190.129 36.715,45.998 95.273,132.068 74.966,191.711 -5.862,17.219 -20.777,38.85 -58.535,44.117 -27.412,3.82 -64.466,-1.456 -110.157,-15.687 l 9.965,-40.989 c 40.935,12.749 73.106,17.622 95.597,14.483 15.481,-2.159 24.928,-7.95 28.083,-17.211 7.482,-21.98 -10.577,-76.245 -67.789,-147.926 C 135.99,147.46 59.555,81.608 -16.914,37.958 Z"
             style="fill:#ffffff;fill-opacity:1;fill-rule:nonzero;stroke:none"
             id="path232" />
        </g>
        <g
           id="g234"
           transform="translate(1857.6803,1552.2982)">
          <path
             d="m 0,0 15.078,-33.84 c 79.494,45.79 158.787,114.32 217.875,188.349 36.429,45.637 94.56,130.953 74.596,189.588 -5.659,16.623 -20.095,37.511 -56.721,42.619 -26.677,3.715 -62.725,-1.324 -107.171,-14.985 l 8.905,-36.622 c 40.174,12.322 71.885,16.986 94.29,13.856 16.387,-2.284 26.446,-8.579 29.896,-18.709 7.679,-22.558 -10.417,-77.703 -68.159,-150.048 C 152.045,109.37 76.115,43.786 0,0 m 14.04,-39.263 c -0.234,0 -0.47,0.038 -0.697,0.112 -0.603,0.197 -1.093,0.64 -1.352,1.218 L -4.922,0.025 c -0.469,1.054 -0.064,2.29 0.937,2.862 76.228,43.511 152.43,109.163 209.068,180.12 56.683,71.018 74.704,124.402 67.419,145.804 -2.86,8.394 -11.698,13.68 -26.27,15.712 -22.168,3.096 -53.999,-1.751 -94.62,-14.403 -0.59,-0.183 -1.233,-0.115 -1.772,0.19 -0.538,0.305 -0.927,0.819 -1.074,1.421 l -9.965,40.989 c -0.28,1.15 0.382,2.319 1.512,2.671 46.008,14.328 83.402,19.636 111.134,15.767 38.888,-5.424 54.282,-27.799 60.349,-45.615 C 332.447,284.886 273.46,198.064 236.46,151.71 176.5,76.589 95.836,7.09 15.152,-38.968 14.81,-39.163 14.426,-39.263 14.04,-39.263"
             style="fill:#000000;fill-opacity:1;fill-rule:nonzero;stroke:none"
             id="path236" />
        </g>
        <g
           id="g238"
           transform="translate(1810.0718,1476.0063)">
          <path
             d="m 0,0 c 208.057,-2.316 210.314,293.256 255.07,528.708 l -511.716,1.894 C -215.283,288.356 -207.74,-3.928 0,0"
             style="fill:#ffffff;fill-opacity:1;fill-rule:nonzero;stroke:none"
             id="path240" />
        </g>
        <g
           id="g242"
           transform="translate(1556.0839,2004.3561)">
          <path
             d="m 0,0 c 5.803,-34.236 11.025,-69.962 16.082,-104.537 15.319,-104.785 31.161,-213.138 64.963,-292.484 37.482,-87.986 91.164,-129.123 168.681,-129.126 1.402,0 2.802,0.013 4.219,0.041 0.023,10e-4 0.044,10e-4 0.068,0 0.828,-0.01 1.659,-0.015 2.481,-0.015 76.152,0 128.881,39.446 165.815,123.952 33.087,75.7 48.856,179.004 64.107,278.907 6.153,40.31 12.511,81.966 19.937,121.387 z m 249.909,-530.63 c -78.597,0 -135.211,43.17 -172.991,131.851 -34.029,79.881 -49.914,188.525 -65.275,293.592 -5.181,35.437 -10.539,72.08 -16.512,107.062 -0.112,0.652 0.071,1.322 0.499,1.828 0.429,0.504 1.052,0.866 1.721,0.792 L 509.067,2.601 c 0.666,-0.002 1.297,-0.301 1.721,-0.816 0.424,-0.515 0.598,-1.19 0.473,-1.845 -7.626,-40.124 -14.125,-82.702 -20.411,-123.879 -15.295,-100.189 -31.108,-203.789 -64.43,-280.028 -37.232,-85.185 -92.878,-126.634 -170.037,-126.638 -0.8,0 -1.582,0.004 -2.387,0.013 -1.37,-0.026 -2.73,-0.038 -4.087,-0.038"
             style="fill:#000000;fill-opacity:1;fill-rule:nonzero;stroke:none"
             id="path244" />
        </g>
        <g
           id="g246"
           transform="translate(2002.3212,1731.781)">
          <path
             d="m 0,0 c -0.15,0 -0.301,0.014 -0.453,0.046 -1.214,0.25 -1.996,1.435 -1.746,2.648 9.5,46.212 15.929,96.637 22.147,145.402 2.301,18.043 4.68,36.7 7.181,54.888 0.169,1.227 1.294,2.089 2.527,1.916 1.228,-0.169 2.086,-1.301 1.917,-2.528 C 29.074,184.207 26.696,165.561 24.398,147.529 18.169,98.681 11.729,48.17 2.195,1.792 1.977,0.73 1.043,0 0,0"
             style="fill:#000000;fill-opacity:1;fill-rule:nonzero;stroke:none"
             id="path248" />
        </g>
        <g
           id="g250"
           transform="translate(1814.5289,1489.8052)">
          <path
             d="m 0,0 c -1.152,0 -2.131,0.88 -2.232,2.049 -0.107,1.234 0.806,2.321 2.04,2.428 76.029,6.585 126.936,60.432 160.207,169.461 0.361,1.185 1.613,1.853 2.8,1.491 1.185,-0.362 1.852,-1.616 1.491,-2.8 C 142.991,102.781 102.787,8.892 0.196,0.009 0.13,0.002 0.065,0 0,0"
             style="fill:#000000;fill-opacity:1;fill-rule:nonzero;stroke:none"
             id="path252" />
        </g>
        <g
           id="g254"
           transform="translate(2076.9812,1978.4945)">
          <path
             d="m 0,0 h -530.457 c -10.034,0 -18.168,8.135 -18.168,18.169 v 30.969 c 0,10.034 8.134,18.169 18.168,18.169 H 0 c 10.034,0 18.169,-8.135 18.169,-18.169 V 18.169 C 18.169,8.135 10.034,0 0,0"
             style="fill:#ffffff;fill-opacity:1;fill-rule:nonzero;stroke:none"
             id="path256" />
        </g>
        <g
           id="g258"
           transform="translate(1546.5247,2043.5585)">
          <path
             d="m 0,0 c -8.782,0 -15.926,-7.144 -15.926,-15.926 v -30.97 c 0,-8.781 7.144,-15.926 15.926,-15.926 h 530.456 c 8.782,0 15.926,7.145 15.926,15.926 v 30.97 C 546.382,-7.144 539.238,0 530.456,0 Z M 530.456,-67.307 H 0 c -11.255,0 -20.411,9.156 -20.411,20.411 v 30.97 c 0,11.255 9.156,20.412 20.411,20.412 h 530.456 c 11.256,0 20.412,-9.157 20.412,-20.412 v -30.97 c 0,-11.255 -9.156,-20.411 -20.412,-20.411"
             style="fill:#000000;fill-opacity:1;fill-rule:nonzero;stroke:none"
             id="path260" />
        </g>
        <g
           id="g262"
           transform="translate(1920.6168,2015.7911)">
          <path
             d="m 0,0 c -1.228,0 -2.229,0.988 -2.243,2.218 -0.014,1.238 0.979,2.253 2.218,2.268 l 106.137,1.186 h 0.025 c 1.228,0 2.229,-0.988 2.243,-2.218 0.014,-1.239 -0.979,-2.254 -2.218,-2.268 L 0.025,0 Z"
             style="fill:#000000;fill-opacity:1;fill-rule:nonzero;stroke:none"
             id="path264" />
        </g>
        <g
           id="g266"
           transform="translate(1833.691,2014.8198)">
          <path
             d="m 0,0 c -1.228,0 -2.229,0.988 -2.243,2.218 -0.014,1.238 0.979,2.253 2.218,2.267 L 59.09,5.146 h 0.026 c 1.227,0 2.228,-0.988 2.243,-2.218 C 61.373,1.69 60.38,0.675 59.141,0.66 L 0.025,0 Z"
             style="fill:#000000;fill-opacity:1;fill-rule:nonzero;stroke:none"
             id="path268" />
        </g>
        <g
           id="g270"
           transform="translate(2074.0349,1485.1631)">
          <path
             d="m 0,0 c -0.111,0 -0.222,0.008 -0.334,0.024 -1.225,0.183 -2.071,1.325 -1.888,2.549 l 2.568,17.209 c 0.183,1.225 1.34,2.064 2.55,1.888 1.225,-0.183 2.07,-1.325 1.888,-2.55 L 2.216,1.912 C 2.049,0.799 1.092,0 0,0"
             style="fill:#000000;fill-opacity:1;fill-rule:nonzero;stroke:none"
             id="path272" />
        </g>
        <g
           id="g274"
           transform="translate(2068.0525,1445.0769)">
          <path
             d="m 0,0 c -0.111,0 -0.222,0.008 -0.334,0.024 -1.225,0.183 -2.071,1.325 -1.888,2.549 l 2.568,17.209 c 0.183,1.226 1.333,2.065 2.55,1.888 1.225,-0.183 2.07,-1.325 1.887,-2.55 L 2.215,1.912 C 2.049,0.799 1.092,0 0,0"
             style="fill:#000000;fill-opacity:1;fill-rule:nonzero;stroke:none"
             id="path276" />
        </g>
        <g
           id="g278"
           transform="translate(2060.8884,1475.432)">
          <path
             d="m 0,0 c -0.111,0 -0.222,0.008 -0.334,0.024 l -17.208,2.567 c -1.226,0.183 -2.07,1.324 -1.888,2.549 0.182,1.226 1.332,2.068 2.549,1.888 L 0.327,4.461 C 1.553,4.279 2.397,3.137 2.215,1.912 2.049,0.799 1.092,0 0,0"
             style="fill:#000000;fill-opacity:1;fill-rule:nonzero;stroke:none"
             id="path280" />
        </g>
        <g
           id="g282"
           transform="translate(2100.9756,1469.4495)">
          <path
             d="m 0,0 c -0.111,0 -0.222,0.008 -0.334,0.024 l -17.208,2.568 c -1.226,0.183 -2.071,1.325 -1.888,2.549 0.184,1.226 1.329,2.072 2.549,1.888 L 0.327,4.461 C 1.553,4.279 2.398,3.136 2.215,1.912 2.049,0.799 1.092,0 0,0"
             style="fill:#000000;fill-opacity:1;fill-rule:nonzero;stroke:none"
             id="path284" />
        </g>
        <g
           id="g286"
           transform="translate(2154.5095,1570.7975)">
          <path
             d="m 0,0 c -6.106,-8.147 -4.42,-19.929 3.76,-26.265 3.993,-3.095 8.898,-4.436 13.832,-3.767 4.811,0.649 9.066,3.149 11.98,7.037 6.108,8.148 4.422,19.93 -3.758,26.266 C 21.819,6.365 16.904,7.705 11.983,7.037 7.171,6.388 2.915,3.888 0,0 m 15.108,-34.685 c -5.062,0 -9.975,1.683 -14.095,4.874 -10.105,7.827 -12.169,22.406 -4.603,32.5 3.642,4.859 8.959,7.982 14.972,8.794 6.127,0.821 12.226,-0.83 17.178,-4.666 10.106,-7.827 12.169,-22.407 4.602,-32.502 -3.641,-4.857 -8.958,-7.981 -14.97,-8.792 -1.031,-0.139 -2.06,-0.208 -3.084,-0.208"
             style="fill:#000000;fill-opacity:1;fill-rule:nonzero;stroke:none"
             id="path288" />
        </g>
      </g>
    </g>
  </g>
</svg>
