<?xml version="1.0" encoding="UTF-8" standalone="no"?>
<!-- Created with Inkscape (http://www.inkscape.org/) -->

<svg
   version="1.1"
   id="svg2"
   width="3333.3333"
   height="3333.3333"
   viewBox="0 0 3333.3333 3333.3333"
   sodipodi:docname="opal3.ai"
   xmlns:inkscape="http://www.inkscape.org/namespaces/inkscape"
   xmlns:sodipodi="http://sodipodi.sourceforge.net/DTD/sodipodi-0.dtd"
   xmlns="http://www.w3.org/2000/svg"
   xmlns:svg="http://www.w3.org/2000/svg">
  <defs
     id="defs6">
    <clipPath
       clipPathUnits="userSpaceOnUse"
       id="clipPath16">
      <path
         d="M 0,2500 H 2500 V 0 H 0 Z"
         id="path14" />
    </clipPath>
  </defs>
  <sodipodi:namedview
     id="namedview4"
     pagecolor="#ffffff"
     bordercolor="#000000"
     borderopacity="0.25"
     inkscape:showpageshadow="2"
     inkscape:pageopacity="0.0"
     inkscape:pagecheckerboard="0"
     inkscape:deskcolor="#d1d1d1" />
  <g
     id="g8"
     inkscape:groupmode="layer"
     inkscape:label="opal3"
     transform="matrix(1.3333333,0,0,-1.3333333,0,3333.3333)">
    <g
       id="g10">
      <g
         id="g12"
         clip-path="url(#clipPath16)">
        <g
           id="g18"
           transform="translate(2160.9309,1469.6405)">
          <path
             d="m 0,0 c -82.183,418.065 -495.707,660.587 -843.969,692.815 -288.521,26.7 -665.324,-78.832 -798.505,-333.875 -83.749,-160.378 16.859,-211.308 -51.644,-574.7 -59.292,-314.526 -163.084,-427.133 -97.3,-587.439 53.781,-131.057 179.476,-193.047 259.815,-232.666 316.664,-156.169 797.738,-137.846 1144.063,147.033 C -306.494,-822.164 92.964,-472.914 0,0"
             style="fill:#caddff;fill-opacity:1;fill-rule:nonzero;stroke:none"
             id="path20" />
        </g>
        <g
           id="g22"
           transform="translate(1147.6047,1903.2112)">
          <path
             d="m 0,0 -42.051,-35.108 c 0,0 -13.592,-81.409 -54.117,-94.388 -40.526,-12.98 -93.189,36.007 -93.189,36.007 l -15.539,-64.464 c 0,0 53.11,-54.251 115.132,-31.148 62.022,23.103 59.902,122.901 59.902,122.901 -0.016,-0.07 15.472,1.584 18.186,17.543 2.311,13.586 -1.232,20.586 -1.232,20.586 0,0 20.29,16.781 12.908,28.071"
             style="fill:#ffffff;fill-opacity:1;fill-rule:nonzero;stroke:none"
             id="path24" />
        </g>
        <g
           id="g26"
           transform="translate(946.3786,1746.3326)">
          <path
             d="m 0,0 c 8.407,-7.848 56.29,-49.232 110.305,-29.115 59.077,22.006 57.764,118.748 57.745,119.724 -0.029,1.399 0.824,2.666 2.131,3.165 0.341,0.132 0.695,0.203 1.048,0.216 0.942,0.116 12.848,1.826 15.051,14.786 2.065,12.138 -0.905,18.5 -0.935,18.563 -0.661,1.373 -0.314,3.05 0.857,4.021 3.895,3.23 13.08,12.583 13.294,19.754 L 162.231,120.003 C 160.281,109.26 145.746,36.93 106.069,24.223 70.479,12.833 27.337,45.829 13.806,57.273 Z m 80.146,-41.207 c -48.493,-0.004 -85.735,37.355 -86.184,37.815 -0.8,0.816 -1.122,1.986 -0.854,3.096 L 8.646,64.167 c 0.276,1.144 1.139,2.057 2.267,2.398 1.125,0.331 2.351,0.054 3.215,-0.747 0.512,-0.475 51.719,-47.506 89.918,-35.278 38.159,12.221 51.725,90.982 51.858,91.777 0.131,0.781 0.536,1.492 1.145,1.999 l 42.052,35.108 c 0.726,0.607 1.678,0.872 2.614,0.734 0.936,-0.138 1.768,-0.671 2.286,-1.464 7.498,-11.466 -6.606,-26.09 -11.794,-30.876 1.024,-3.392 2.305,-10.197 0.611,-20.154 -2.134,-12.549 -11.152,-17.398 -16.337,-19.173 -0.658,-0.227 -1.253,-0.412 -1.79,-0.563 -0.135,-16.924 -3.765,-101.538 -62.072,-123.256 -11.171,-4.163 -22.083,-5.879 -32.473,-5.879"
             style="fill:#000000;fill-opacity:1;fill-rule:nonzero;stroke:none"
             id="path28" />
        </g>
        <g
           id="g30"
           transform="translate(1114.7643,1841.4581)">
          <path
             d="m 0,0 c -1.174,0 -2.312,0.624 -2.915,1.729 -0.876,1.606 -0.283,3.621 1.324,4.499 0.053,0.028 6.403,3.625 6.064,8.96 -0.251,3.966 0.953,8.072 3.484,11.874 0.585,0.879 0.987,1.846 1.199,2.854 l -9.94,-6.513 c -1.531,-1.004 -3.587,-0.575 -4.591,0.956 -1.003,1.533 -0.576,3.588 0.956,4.592 l 14.638,9.592 c 0.921,0.602 2.08,0.708 3.094,0.287 1.015,-0.423 1.754,-1.321 1.973,-2.399 l 0.373,-1.828 c 0.797,-3.923 0.022,-7.904 -2.182,-11.216 -1.198,-1.8 -2.585,-4.613 -2.385,-7.78 C 11.699,6.034 1.998,0.63 1.585,0.404 1.081,0.129 0.536,0 0,0"
             style="fill:#000000;fill-opacity:1;fill-rule:nonzero;stroke:none"
             id="path32" />
        </g>
        <g
           id="g34"
           transform="translate(836.5824,1899.7562)">
          <path
             d="m 0,0 c 20.596,-7.079 28.116,-11.736 91.842,-55.161 15.576,-10.613 21.939,-42.555 13.84,-59.575 -14.633,-12.002 -85.244,-72.292 -81.331,-156.599 0.555,-11.962 2.686,-26.04 7.99,-41.59 -9.166,-1.087 -22.626,-1.537 -37.669,2.68 -24.974,7.001 -31.302,20.416 -48.576,30.587 -45.695,26.905 -93.595,-12.693 -118.615,11.822 -6.679,6.545 -13.134,19.035 -10.002,45.326 5.12,20.214 12.679,42.971 24.004,66.943 30.696,64.981 74.322,107.71 104.883,132.521 C -44.185,-15.087 -24.281,8.345 0,0"
             style="fill:#4b937a;fill-opacity:1;fill-rule:nonzero;stroke:none"
             id="path36" />
        </g>
        <g
           id="g38"
           transform="translate(1000.3103,1786.775)">
          <path
             d="m 0,0 c 0,0 -39.938,32.057 -67.972,54.517 l -47.23,-111.832 86.545,-17.373 z"
             style="fill:#4b937a;fill-opacity:1;fill-rule:nonzero;stroke:none"
             id="path40" />
        </g>
        <g
           id="g42"
           transform="translate(857.8686,1721.1516)">
          <path
             d="m 0,0 c -0.049,0.041 -0.099,0.081 -0.148,0.119 -7.387,5.783 -16.979,9.489 -26.291,9.702 l -49.662,1.132 c -0.772,0.053 -1.509,0.343 -2.11,0.832 l -38.858,31.578 c -6.94,5.64 -7.524,16.028 -1.26,22.411 l 35.103,35.768 c 0.848,0.864 1.227,2.085 1.017,3.277 L -94.15,172.76 c -0.529,3.009 -4.234,4.163 -6.371,1.98 -15.795,-16.138 -88.449,-70.927 -89.903,-117.087 -1.541,-48.941 93.75,-74.085 93.75,-74.085 0,0 0.259,-0.306 0.833,-0.388 0,0 12.89,-1.802 20.271,-2.977 7.123,-1.133 18.918,3.92 24.86,6.782 1.985,0.956 4.357,0.01 5.138,-2.051 l 3.868,-10.213 c 2.733,-7.216 10.842,-10.767 18.021,-7.937 4.805,1.894 9.15,3.966 9.701,5.086 2.78,5.647 2.609,8.687 -0.864,13.778 -0.125,0.184 -0.239,0.384 -0.329,0.588 l -0.653,1.481 c -1.415,3.207 1.942,6.423 5.092,4.885 3.445,-1.681 5.495,-6.207 7.533,-10.622 0.659,-1.43 1.084,-3.519 1.74,-4.504 2.771,-4.158 8.778,2.682 8.914,5.603 C 7.668,-12.223 3.635,-3.008 0,0"
             style="fill:#ffffff;fill-opacity:1;fill-rule:nonzero;stroke:none"
             id="path44" />
        </g>
        <g
           id="g46"
           transform="translate(808.7906,1711.8224)">
          <path
             d="m 0,0 c 0.891,0 1.781,-0.166 2.621,-0.503 1.833,-0.732 3.285,-2.211 3.985,-4.059 l 3.869,-10.213 c 1,-2.639 2.972,-4.722 5.554,-5.864 2.602,-1.153 5.494,-1.209 8.149,-0.162 5.043,1.986 7.407,3.303 8.124,3.839 2.076,4.326 1.902,6.096 -0.81,10.069 -0.246,0.367 -0.458,0.742 -0.627,1.131 l -0.649,1.468 c -1.212,2.748 -0.598,5.868 1.564,7.947 2.167,2.086 5.313,2.584 8.016,1.259 4.459,-2.177 6.769,-7.183 9.004,-12.028 0.452,-0.982 0.737,-1.856 0.989,-2.629 0.126,-0.389 0.298,-0.916 0.44,-1.28 1.118,0.613 2.821,2.72 2.995,3.665 0.163,3.582 -3.459,11.814 -6.258,14.132 0,0 -10e-4,0 -10e-4,0.003 l 2.113,2.554 -2.153,-2.524 c -7.098,5.559 -15.962,8.839 -24.361,9.031 l -49.663,1.131 c -1.608,0.106 -2.983,0.648 -4.124,1.572 l -38.858,31.58 c -4.032,3.275 -6.51,8.128 -6.803,13.314 -0.291,5.186 1.628,10.285 5.266,13.994 l 35.104,35.766 c 0.097,0.1 0.142,0.242 0.117,0.38 l -11.941,67.941 c -0.013,0.074 -0.046,0.268 -0.302,0.345 -0.254,0.083 -0.379,-0.051 -0.434,-0.11 -2.897,-2.959 -7.494,-7.042 -13.313,-12.21 -26.035,-23.122 -74.495,-66.16 -75.644,-102.66 -1.441,-45.776 90.354,-70.53 91.281,-70.776 l 1.129,-0.405 c 2.753,-0.387 13.29,-1.877 19.651,-2.889 4.43,-0.702 12.995,1.723 22.899,6.494 C -2.105,-0.233 -1.052,0 0,0 m 20.288,-28.182 c -2.361,0 -4.717,0.492 -6.943,1.479 -4.217,1.865 -7.439,5.267 -9.072,9.579 L 0.404,-6.911 c -0.045,0.119 -0.128,0.203 -0.244,0.251 -0.122,0.047 -0.24,0.043 -0.355,-0.013 -8.066,-3.888 -19.275,-8.271 -26.818,-7.068 -7.265,1.157 -20.08,2.947 -20.208,2.966 -0.751,0.106 -1.351,0.352 -1.814,0.626 -8.918,2.431 -97.183,27.764 -95.624,77.235 1.238,39.357 51.087,83.627 77.868,107.412 5.722,5.082 10.243,9.097 12.977,11.891 1.862,1.902 4.596,2.589 7.137,1.807 2.544,-0.788 4.41,-2.908 4.872,-5.533 l 11.941,-67.941 c 0.393,-2.239 -0.323,-4.547 -1.916,-6.172 L -66.885,72.781 c -2.367,-2.413 -3.566,-5.6 -3.376,-8.974 0.19,-3.377 1.739,-6.408 4.363,-8.541 l 38.856,-31.579 c 0.069,-0.056 0.155,-0.09 0.241,-0.094 l 49.516,-1.125 c 9.799,-0.227 20.099,-4.02 28.259,-10.41 l 0.218,-0.175 c 4.389,-3.629 8.915,-13.904 8.65,-19.627 -0.158,-3.368 -4.067,-8.67 -8.236,-9.827 -2.681,-0.741 -5.198,0.207 -6.75,2.537 -0.627,0.939 -1.007,2.107 -1.374,3.236 -0.194,0.596 -0.384,1.209 -0.618,1.716 -1.834,3.977 -3.641,7.895 -5.976,9.035 -0.092,0.041 -0.285,0.136 -0.509,-0.08 -0.218,-0.209 -0.138,-0.391 -0.095,-0.488 l 0.653,-1.479 c 4.17,-6.124 4.447,-10.442 1.134,-17.169 -0.498,-1.017 -1.335,-2.718 -11.461,-6.708 -2.049,-0.807 -4.188,-1.211 -6.322,-1.211"
             style="fill:#000000;fill-opacity:1;fill-rule:nonzero;stroke:none"
             id="path48" />
        </g>
        <g
           id="g50"
           transform="translate(701.9534,1865.4158)">
          <path
             d="m 0,0 c 0,0 28.874,20.676 47.928,34.436 42.288,30.539 94.234,-2.169 94.234,-2.169 L 62.248,-68.42 Z"
             style="fill:#4b937a;fill-opacity:1;fill-rule:nonzero;stroke:none"
             id="path52" />
        </g>
        <g
           id="g54"
           transform="translate(896.4379,1917.0128)">
          <path
             d="m 0,0 c -6.165,0.589 -9.905,2.469 -12.355,4.216 -8.853,6.312 -10.082,17.423 -10.327,19.649 -1.27,11.487 3.709,25.903 13.518,30.034 7.062,2.974 10.479,-1.974 18.5,1.273 9.106,3.688 7.591,12.328 15.791,15.411 9.441,3.55 20.484,-4.128 22.47,-5.509 6.814,-4.739 5.458,-8.745 12.204,-12.742 6.886,-4.079 9.924,-1.242 16.161,-5.119 C 80.916,44.133 86.789,37.5 86.418,29.761 85.951,20.047 75.87,13.213 67.929,11.255 58.396,8.905 56.355,14.67 45.211,14.885 25.898,15.256 19.773,-1.889 0,0"
             style="fill:#000000;fill-opacity:1;fill-rule:nonzero;stroke:none"
             id="path56" />
        </g>
        <g
           id="g58"
           transform="translate(902.4441,1868.7412)">
          <path
             d="m 0,0 11.056,25.962 c 0.893,-0.431 8.638,-3.61 9.687,-3.715 8.489,-0.851 16.907,16.501 16.907,16.501 l 6.294,2.03 4.386,30.731 C 30.976,69.19 32.78,81.061 18.578,83.486 4.375,85.912 2.589,69.523 2.589,69.523 c 0,0 -6.652,9.851 -10.29,-0.291 -2.748,-7.659 1.885,-11.165 5.282,-12.925 l -31.46,-36.646 c 0,0 -22.784,6.677 -27.143,8.041 5.008,-2.832 29.427,-38.632 77.633,-46.666 z"
             style="fill:#ffffff;fill-opacity:1;fill-rule:nonzero;stroke:none"
             id="path60" />
        </g>
        <g
           id="g62"
           transform="translate(853.1346,1889.4829)">
          <path
             d="m 0,0 c 10.341,-10.458 29.029,-27.124 56.852,-34.385 l -10.037,11.46 c -0.839,0.958 -1.056,2.312 -0.556,3.484 L 57.314,6.52 c 0.355,0.833 1.037,1.485 1.885,1.805 0.85,0.317 1.792,0.278 2.608,-0.119 0.856,-0.41 7.308,-3.031 8.708,-3.411 0.054,-0.004 0.109,-0.004 0.164,-0.004 4.216,0 10.378,8.646 13.297,14.663 0.395,0.814 1.105,1.431 1.965,1.71 l 4.323,1.392 3.511,24.603 c -0.088,-0.002 -0.176,-0.002 -0.263,-0.002 -8.156,0 -12.06,3.476 -15.565,6.598 -2.913,2.594 -5.429,4.835 -10.617,5.721 -2.958,0.505 -5.324,0.051 -7.235,-1.378 -4.091,-3.065 -4.893,-9.62 -4.901,-9.685 -0.159,-1.379 -1.161,-2.517 -2.508,-2.847 -1.348,-0.315 -2.758,0.211 -3.535,1.36 -1.008,1.47 -2.572,2.778 -3.16,2.832 0.019,-0.032 -0.58,-0.487 -1.261,-2.387 -1.494,-4.163 -0.426,-6.73 3.686,-8.861 0.9,-0.466 1.537,-1.319 1.73,-2.312 0.193,-0.995 -0.08,-2.023 -0.74,-2.791 L 17.947,-3.24 C 17.097,-4.232 15.749,-4.633 14.498,-4.264 13.978,-4.11 6.901,-2.036 0,0 m 65.921,-43.023 c -0.181,0 -0.364,0.016 -0.546,0.046 -40.008,6.669 -64.109,31.971 -74.4,42.774 -1.74,1.829 -3.714,3.899 -4.334,4.286 -1.419,0.88 -2.012,2.709 -1.317,4.227 0.695,1.52 2.361,2.318 3.954,1.815 C -7.211,9.026 8.609,4.376 14.309,2.703 l 27.619,32.174 c -5.754,4.825 -4.743,11.105 -3.441,14.735 1.469,4.091 3.722,6.355 6.699,6.729 1.838,0.233 3.534,-0.363 4.963,-1.25 1.092,2.798 2.917,6.01 5.928,8.284 3.407,2.569 7.568,3.454 12.369,2.638 7.063,-1.205 10.86,-4.588 13.912,-7.306 3.763,-3.348 6.476,-5.775 14.842,-4.655 1.033,0.152 2.064,-0.213 2.795,-0.952 0.731,-0.736 1.074,-1.774 0.927,-2.802 L 96.536,19.568 C 96.357,18.314 95.479,17.269 94.272,16.881 L 89.297,15.276 C 86.724,10.341 79.004,-2.759 69.722,-1.794 c -1.178,0.119 -4.859,1.556 -7.599,2.681 l -8.946,-21.01 15.238,-17.399 c 0.922,-1.053 1.083,-2.575 0.402,-3.799 -0.593,-1.063 -1.709,-1.702 -2.896,-1.702"
             style="fill:#000000;fill-opacity:1;fill-rule:nonzero;stroke:none"
             id="path64" />
        </g>
        <g
           id="g66"
           transform="translate(913.4974,1891.3871)">
          <path
             d="m 0,0 c -0.459,0 -0.924,0.095 -1.369,0.296 -13.833,6.282 -13.582,19.577 -13.565,20.14 0.057,1.829 1.623,3.349 3.417,3.21 1.825,-0.056 3.259,-1.576 3.213,-3.398 C -8.311,19.81 -8.319,10.738 1.373,6.336 3.041,5.579 3.779,3.612 3.022,1.945 2.467,0.721 1.261,0 0,0"
             style="fill:#000000;fill-opacity:1;fill-rule:nonzero;stroke:none"
             id="path68" />
        </g>
        <g
           id="g70"
           transform="translate(1349.8861,683.5918)">
          <path
             d="m 0,0 c -2.565,55.812 -47.187,101.513 -102.93,105.3 -35.132,2.388 -67.06,-11.62 -88.906,-35.128 -5.557,-5.979 -13.372,-9.343 -21.537,-9.343 -16.311,0 -29.534,13.223 -29.534,29.534 v 5.483 h -0.179 v 224.247 h -224.247 v -0.144 h -5.482 c -16.313,0 -29.534,-13.223 -29.534,-29.535 0,-8.163 3.364,-15.979 9.342,-21.536 23.508,-21.846 37.515,-53.774 35.13,-88.907 -3.789,-55.742 -49.489,-100.365 -105.301,-102.93 -63.564,-2.919 -116.017,47.75 -116.017,110.67 0,32.063 13.623,60.941 35.393,81.171 5.98,5.555 9.342,13.371 9.342,21.532 0,16.312 -13.224,29.535 -29.536,29.535 h -5.48 v 0.144 h -224.247 v -571.452 c 0,-43.734 35.453,-79.186 79.186,-79.186 h 571.451 v 224.247 h 0.179 v 5.48 c 0,16.312 13.223,29.536 29.534,29.536 8.163,0 15.978,-3.362 21.533,-9.341 20.231,-21.771 49.108,-35.393 81.17,-35.393 C -47.749,-116.016 2.921,-63.565 0,0"
             style="fill:#ffffff;fill-opacity:1;fill-rule:nonzero;stroke:none"
             id="path72" />
        </g>
        <g
           id="g74"
           transform="translate(1106.8002,349.7301)">
          <path
             d="m 0,0 h -571.451 c -45.492,0 -82.502,37.01 -82.502,82.503 v 571.452 c 0,1.831 1.484,3.316 3.316,3.316 1.832,0 3.316,-1.485 3.316,-3.316 V 82.503 c 0,-41.836 34.035,-75.871 75.87,-75.871 H -3.316 v 220.931 c 0,1.831 1.484,3.317 3.316,3.317 1.832,0 3.316,-1.486 3.316,-3.317 V 3.316 C 3.316,1.486 1.832,0 0,0"
             style="fill:#000000;fill-opacity:1;fill-rule:nonzero;stroke:none"
             id="path76" />
        </g>
        <g
           id="g78"
           transform="translate(1520.422,1003.6847)">
          <path
             d="m 0,0 c -12.781,3.25 -22.247,14.799 -22.247,28.591 0,8.163 3.363,15.979 9.343,21.536 23.509,21.846 37.515,53.774 35.128,88.907 -3.789,55.743 -49.489,100.366 -105.301,102.93 -63.564,2.92 -116.015,-47.749 -116.015,-110.669 0,-32.063 13.623,-60.941 35.393,-81.171 5.978,-5.556 9.34,-13.371 9.34,-21.533 0,-13.792 -9.467,-25.341 -22.248,-28.591 h -237.015 v -224.247 h 0.179 v -5.483 c 0,-16.311 13.223,-29.534 29.534,-29.534 8.165,0 15.98,3.364 21.537,9.343 21.846,23.508 53.774,37.516 88.906,35.128 55.743,-3.787 100.365,-49.488 102.93,-105.3 2.921,-63.564 -47.749,-116.016 -110.67,-116.016 -32.061,0 -60.939,13.622 -81.17,35.393 -5.555,5.979 -13.37,9.341 -21.533,9.341 -16.311,0 -29.534,-13.224 -29.534,-29.535 v -5.481 h -0.179 v -224.247 h 571.453 c 43.733,0 79.186,35.452 79.186,79.186 l 0,571.452 z"
             style="fill:#ffffff;fill-opacity:1;fill-rule:nonzero;stroke:none"
             id="path80" />
        </g>
        <g
           id="g82"
           transform="translate(1110.1162,356.3623)">
          <path
             d="m 0,0 h 568.137 c 41.835,0 75.87,34.035 75.87,75.87 V 644.007 H 410.306 c -0.275,0 -0.55,0.035 -0.817,0.101 -14.571,3.705 -24.747,16.784 -24.747,31.805 0,9.087 3.791,17.824 10.403,23.966 23.873,22.185 36.293,53.623 34.076,86.253 -3.698,54.413 -47.611,97.336 -102.144,99.843 -29.697,1.342 -57.862,-9.154 -79.292,-29.627 -21.445,-20.482 -33.255,-48.088 -33.255,-77.731 0,-29.765 12.514,-58.463 34.334,-78.742 6.609,-6.14 10.399,-14.875 10.399,-23.962 0,-15.021 -10.176,-28.1 -24.747,-31.805 -0.267,-0.066 -0.542,-0.101 -0.817,-0.101 L 0,644.007 V 424.101 c 0.115,-0.324 0.179,-0.667 0.179,-1.025 v -5.484 c 0,-14.456 11.762,-26.218 26.218,-26.218 7.25,0 14.215,3.021 19.108,8.286 23.553,25.348 56.922,38.558 91.559,36.177 57.78,-3.925 103.358,-50.551 106.019,-108.455 1.448,-31.53 -9.722,-61.425 -31.454,-84.177 -21.746,-22.768 -51.055,-35.307 -82.529,-35.307 -31.601,0 -62.072,13.286 -83.599,36.451 -4.89,5.263 -11.854,8.281 -19.104,8.281 -14.456,0 -26.218,-11.761 -26.218,-26.217 v -5.482 c 0,-0.378 -0.062,-0.74 -0.179,-1.077 z M 568.137,-6.632 H -3.316 c -1.832,0 -3.316,1.485 -3.316,3.316 v 224.247 c 0,0.378 0.063,0.741 0.179,1.077 v 4.405 c 0,18.113 14.737,32.85 32.85,32.85 9.088,0 17.822,-3.792 23.962,-10.398 20.277,-21.82 48.977,-34.335 78.741,-34.335 29.645,0 57.251,11.809 77.733,33.254 20.468,21.431 30.99,49.592 29.624,79.294 -2.505,54.534 -45.429,98.446 -99.842,102.144 -32.643,2.194 -64.066,-10.207 -86.252,-34.078 -6.143,-6.611 -14.878,-10.402 -23.966,-10.402 -18.113,0 -32.85,14.737 -32.85,32.85 v 4.458 c -0.115,0.324 -0.179,0.667 -0.179,1.026 v 224.247 c 0,1.831 1.484,3.316 3.316,3.316 h 236.587 c 11.419,3.087 19.359,13.424 19.359,25.274 0,7.252 -3.018,14.215 -8.28,19.104 -23.166,21.527 -36.452,51.998 -36.452,83.6 0,31.474 12.539,60.784 35.306,82.528 22.754,21.734 52.661,32.925 84.177,31.453 57.903,-2.66 104.53,-48.238 108.457,-106.017 2.354,-34.633 -10.832,-68.006 -36.179,-91.559 -5.264,-4.892 -8.285,-11.857 -8.285,-19.109 0,-11.85 7.941,-22.187 19.359,-25.274 h 236.59 c 1.832,0 3.316,-1.485 3.316,-3.316 V 75.87 c 0,-45.492 -37.01,-82.502 -82.502,-82.502"
             style="fill:#000000;fill-opacity:1;fill-rule:nonzero;stroke:none"
             id="path84" />
        </g>
        <g
           id="g86"
           transform="translate(967.3396,1438.7068)">
          <path
             d="m 0,0 c 35.132,2.388 67.059,-11.62 88.906,-35.129 5.557,-5.979 13.374,-9.343 21.537,-9.343 14.462,0 26.475,10.402 29.018,24.129 V 214.792 H -431.99 c -43.733,0 -79.186,-35.453 -79.186,-79.187 v -571.45 h 224.247 v -0.144 h 5.479 c 16.313,0 29.536,-13.224 29.536,-29.535 0,-8.162 -3.361,-15.977 -9.341,-21.533 -21.771,-20.23 -35.393,-49.107 -35.393,-81.17 0,-62.92 52.452,-113.59 116.017,-110.67 55.812,2.565 101.511,47.187 105.3,102.93 2.386,35.133 -11.621,67.061 -35.129,88.907 -5.978,5.557 -9.342,13.372 -9.342,21.536 0,16.311 13.221,29.535 29.534,29.535 h 5.481 v 0.144 h 224.248 v 235.133 c -2.543,13.726 -14.556,24.129 -29.018,24.129 -8.163,0 -15.978,-3.361 -21.533,-9.341 -20.231,-21.77 -49.109,-35.393 -81.171,-35.393 -62.921,0 -113.59,52.452 -110.669,116.015 C -100.365,-49.489 -55.743,-3.788 0,0"
             style="fill:#ffffff;fill-opacity:1;fill-rule:nonzero;stroke:none"
             id="path88" />
        </g>
        <g
           id="g90"
           transform="translate(741.7633,763.7062)">
          <path
             d="m 0,0 c -0.395,0 -0.797,0.071 -1.188,0.22 -43.783,16.818 -73.2,59.638 -73.2,106.553 0,31.604 13.286,62.075 36.452,83.599 5.263,4.892 8.282,11.855 8.282,19.104 0,14.458 -11.761,26.22 -26.22,26.22 h -5.479 c -0.335,0 -0.659,0.05 -0.965,0.142 H -285.6 c -1.832,0 -3.316,1.486 -3.316,3.317 v 571.45 c 0,45.493 37.01,82.505 82.502,82.505 h 571.451 c 1.832,0 3.316,-1.486 3.316,-3.316 V 654.657 c 0,-0.203 -0.018,-0.406 -0.055,-0.605 -2.882,-15.55 -16.457,-26.839 -32.279,-26.839 -9.088,0 -17.823,3.791 -23.966,10.401 -22.185,23.876 -53.613,36.291 -86.252,34.079 -54.413,-3.699 -97.337,-47.611 -99.842,-102.144 -1.366,-29.703 9.156,-57.863 29.624,-79.295 20.482,-21.444 48.088,-33.253 77.733,-33.253 29.763,0 58.464,12.515 78.741,34.335 6.14,6.606 14.874,10.397 23.962,10.397 15.822,0 29.397,-11.289 32.279,-26.839 0.037,-0.199 0.055,-0.402 0.055,-0.605 V 300.526 c 0,-1.831 -1.484,-3.317 -3.316,-3.317 -1.832,0 -3.316,1.486 -3.316,3.317 v 173.45 c -2.413,12.258 -13.175,21.125 -25.702,21.125 -7.251,0 -14.214,-3.018 -19.104,-8.282 -21.528,-23.164 -51.998,-36.451 -83.599,-36.451 -31.474,0 -60.783,12.539 -82.529,35.307 -21.732,22.753 -32.902,52.647 -31.454,84.176 2.661,57.906 48.239,104.532 106.019,108.456 34.625,2.371 68.004,-10.833 91.559,-36.176 4.893,-5.266 11.857,-8.286 19.108,-8.286 12.527,0 23.289,8.867 25.702,21.125 v 231.508 h -568.135 c -41.835,0 -75.87,-34.038 -75.87,-75.873 V 242.471 h 220.931 c 0.336,0 0.66,-0.05 0.965,-0.143 h 4.514 c 18.115,0 32.853,-14.737 32.853,-32.852 0,-9.087 -3.791,-17.82 -10.401,-23.962 C -55.242,165.238 -67.756,136.54 -67.756,106.773 -67.756,62.584 -40.049,22.252 1.19,6.412 2.899,5.756 3.753,3.836 3.097,2.126 2.59,0.807 1.333,0 0,0"
             style="fill:#000000;fill-opacity:1;fill-rule:nonzero;stroke:none"
             id="path92" />
        </g>
        <g
           id="g94"
           transform="translate(1885.0316,1950.1506)">
          <path
             d="M 0,0 -533.524,204.719 -617.76,-14.81 c -7.292,-11.904 -22.233,-17.313 -35.736,-12.132 -7.621,2.924 -13.714,8.866 -16.76,16.439 -11.975,29.774 -36.765,54.291 -70.421,64.647 -53.4,16.433 -111.432,-10.249 -133.822,-61.438 -25.498,-58.299 3.018,-125.421 61.763,-147.962 29.934,-11.486 61.775,-9.113 88.462,3.965 7.328,3.593 15.829,3.931 23.45,1.007 13.503,-5.181 20.991,-19.197 18.448,-32.923 l -84.235,-219.527 221.284,-84.91 c 13.097,-1.544 26.072,5.847 31.013,18.724 2.924,7.62 2.585,16.121 -1.005,23.449 -13.078,26.687 -15.452,58.528 -3.965,88.463 22.541,58.744 89.662,87.26 147.961,61.762 51.189,-22.389 77.87,-80.421 61.438,-133.821 -10.357,-33.657 -34.872,-58.448 -64.647,-70.422 -7.574,-3.046 -13.514,-9.138 -16.438,-16.759 -4.941,-12.877 -0.24,-27.051 10.528,-34.664 l 221.286,-84.91 L 45.563,-102.3 C 61.23,-61.469 40.83,-15.667 0,0"
             style="fill:#3e6eb4;fill-opacity:1;fill-rule:nonzero;stroke:none"
             id="path96" />
        </g>
        <g
           id="g98"
           transform="translate(1506.1766,1402.1819)">
          <path
             d="m 0,0 217.79,-83.571 203.532,530.427 c 14.987,39.059 -4.597,83.029 -43.656,98.016 l -530.427,203.533 -83.048,-216.434 c -0.073,-0.19 -0.162,-0.372 -0.268,-0.544 -8.264,-13.489 -24.981,-19.163 -39.752,-13.495 -8.483,3.253 -15.281,9.922 -18.649,18.296 -12.161,30.238 -37.062,53.098 -68.319,62.716 -52.121,16.037 -107.932,-9.583 -129.808,-59.598 -11.915,-27.241 -12.18,-57.302 -0.747,-84.642 11.44,-27.36 32.982,-48.276 60.658,-58.895 27.79,-10.661 59.068,-9.257 85.816,3.847 8.099,3.968 17.611,4.378 26.096,1.125 14.773,-5.67 23.403,-21.071 20.522,-36.624 -0.038,-0.198 -0.093,-0.395 -0.165,-0.583 l -83.047,-216.432 217.789,-83.569 c 11.749,-1.209 22.882,5.598 27.129,16.663 2.596,6.77 2.273,14.352 -0.889,20.803 -13.915,28.398 -15.403,61.606 -4.082,91.11 11.275,29.385 33.48,52.254 62.525,64.4 29.03,12.139 60.944,11.863 89.861,-0.788 C 61.968,232.533 89.171,173.276 72.138,117.926 61.929,84.746 37.662,58.312 5.56,45.404 -1.109,42.72 -6.423,37.302 -9.02,30.533 -13.264,19.469 -9.554,6.973 0,0 m 219.698,-91.17 c -0.402,0 -0.805,0.073 -1.188,0.22 L -2.775,-6.038 c -0.257,0.099 -0.501,0.229 -0.726,0.388 -12.276,8.677 -17.092,24.534 -11.711,38.558 3.255,8.485 9.925,15.281 18.298,18.649 30.238,12.159 53.096,37.062 62.714,68.32 16.039,52.125 -9.581,107.93 -59.596,129.809 -27.241,11.913 -57.302,12.178 -84.645,0.745 -27.357,-11.441 -48.273,-32.982 -58.892,-60.657 -10.663,-27.789 -9.261,-59.07 3.847,-85.816 3.969,-8.1 4.378,-17.613 1.124,-26.097 -5.383,-14.026 -19.565,-22.595 -34.499,-20.829 -0.273,0.032 -0.542,0.097 -0.8,0.196 l -221.284,84.91 c -1.708,0.656 -2.563,2.573 -1.907,4.283 l 84.123,219.237 c 2.139,12.31 -4.733,24.443 -16.429,28.931 -6.769,2.597 -14.352,2.274 -20.802,-0.887 -28.398,-13.914 -61.605,-15.404 -91.11,-4.085 -29.385,11.276 -52.256,33.482 -64.402,62.529 -12.138,29.028 -11.858,60.941 0.789,89.857 23.23,53.109 82.485,80.309 137.838,63.28 33.177,-10.21 59.61,-34.478 72.52,-66.581 2.683,-6.669 8.104,-11.982 14.872,-14.579 11.697,-4.482 24.92,-0.067 31.564,10.516 l 84.124,219.237 c 0.315,0.822 0.943,1.483 1.746,1.842 0.804,0.36 1.717,0.382 2.538,0.066 l 533.523,-204.72 c 42.474,-16.298 63.769,-64.111 47.471,-106.583 L 222.794,-89.042 c -0.315,-0.822 -0.943,-1.483 -1.746,-1.841 -0.429,-0.192 -0.889,-0.287 -1.35,-0.287"
             style="fill:#000000;fill-opacity:1;fill-rule:nonzero;stroke:none"
             id="path100" />
        </g>
        <g
           id="g102"
           transform="translate(1874.2242,986.6771)">
          <path
             d="M 0,0 -1.311,-46.461 H -23.344 L -30.747,4.336 Z"
             style="fill:#ffffff;fill-opacity:1;fill-rule:nonzero;stroke:none"
             id="path104" />
        </g>
        <g
           id="g106"
           transform="translate(1853.749,943.5318)">
          <path
             d="m 0,0 h 15.94 l 1.137,40.276 -23.43,3.304 z M 19.165,-6.632 H -2.868 c -1.646,0 -3.044,1.209 -3.282,2.837 l -7.403,50.796 c -0.151,1.035 0.194,2.08 0.931,2.82 0.736,0.738 1.777,1.09 2.813,0.944 l 30.747,-4.336 c 1.671,-0.235 2.9,-1.69 2.852,-3.376 L 22.479,-3.409 c -0.05,-1.794 -1.519,-3.223 -3.314,-3.223"
             style="fill:#000000;fill-opacity:1;fill-rule:nonzero;stroke:none"
             id="path108" />
        </g>
        <g
           id="g110"
           transform="translate(1760.5038,902.1127)">
          <path
             d="m 0,0 h 114.316 c 5.954,0 10.523,4.745 9.656,10.636 -1.967,13.364 -5.44,34.783 -8.436,43.631 -4.475,13.215 -18.939,-7.972 -18.939,-7.972 l -8.471,7.065 c 0,0 -75.338,-21.57 -92.635,-44.803 C -7.294,4.816 -4.663,0 0,0"
             style="fill:#000000;fill-opacity:1;fill-rule:nonzero;stroke:none"
             id="path112" />
        </g>
        <g
           id="g114"
           transform="translate(1875.2797,907.1608)">
          <path
             d="m 0,0 h -107.807 c -1.832,0 -3.316,1.485 -3.316,3.316 0,1.831 1.484,3.316 3.316,3.316 H 0 C 1.832,6.632 3.316,5.147 3.316,3.316 3.316,1.485 1.832,0 0,0"
             style="fill:#ffffff;fill-opacity:1;fill-rule:nonzero;stroke:none"
             id="path116" />
        </g>
        <g
           id="g118"
           transform="translate(2037.5679,1036.0834)">
          <path
             d="M 0,0 41.899,-53.067 64.073,-36.445 28.202,22.096 Z"
             style="fill:#ffffff;fill-opacity:1;fill-rule:nonzero;stroke:none"
             id="path120" />
        </g>
        <g
           id="g122"
           transform="translate(2042.2332,1035.5271)">
          <path
             d="m 0,0 37.833,-47.919 17.169,12.871 -32.35,52.794 z m 37.236,-55.827 c -0.982,0 -1.952,0.434 -2.605,1.261 L -7.268,-1.498 c -0.546,0.693 -0.795,1.573 -0.69,2.448 0.105,0.876 0.554,1.673 1.247,2.217 L 21.49,25.261 c 0.744,0.583 1.701,0.821 2.635,0.654 0.93,-0.168 1.745,-0.725 2.238,-1.53 l 35.872,-58.541 c 0.894,-1.459 0.531,-3.362 -0.838,-4.387 L 39.223,-55.164 c -0.596,-0.447 -1.295,-0.663 -1.987,-0.663"
             style="fill:#000000;fill-opacity:1;fill-rule:nonzero;stroke:none"
             id="path124" />
        </g>
        <g
           id="g126"
           transform="translate(2035.1772,905.5082)">
          <path
             d="m 0,0 c 19.204,8.967 68.606,34.074 96.526,66.866 2.515,2.954 2.575,7.269 0.244,10.37 -5.948,7.91 -18.005,22.566 -30.307,29.371 0,0 -25.032,-8.704 -18.319,-20.507 l -9.124,1.468 c 0,0 -40.322,-45.303 -46.245,-82.169 C -7.873,1.365 -3.703,-1.729 0,0"
             style="fill:#000000;fill-opacity:1;fill-rule:nonzero;stroke:none"
             id="path128" />
        </g>
        <g
           id="g130"
           transform="translate(2036.1115,911.7225)">
          <path
             d="m 0,0 c -1.165,0 -2.294,0.613 -2.9,1.704 -0.891,1.599 -0.316,3.62 1.284,4.509 0.583,0.324 58.661,32.829 89.142,65.271 1.253,1.332 3.352,1.401 4.688,0.144 1.334,-1.252 1.4,-3.353 0.146,-4.687 C 61.165,33.742 4.026,1.764 1.609,0.419 1.099,0.134 0.545,0 0,0"
             style="fill:#ffffff;fill-opacity:1;fill-rule:nonzero;stroke:none"
             id="path132" />
        </g>
        <g
           id="g134"
           transform="translate(1773.9238,1379.9012)">
          <path
             d="m 0,0 c 0,0 20.511,-138.843 32.248,-211.853 11.737,-73.011 36.969,-190.628 36.969,-190.628 h 36.253 c 0,0 11.943,79.875 14.814,124.148 2.872,44.273 -11.739,56.783 -14.638,92.414 -2.899,35.632 15.213,150.821 15.213,150.821 L 67.134,17.409 Z"
             style="fill:#4b937a;fill-opacity:1;fill-rule:nonzero;stroke:none"
             id="path136" />
        </g>
        <g
           id="g138"
           transform="translate(1864.9536,1349.1913)">
          <path
             d="m 0,0 c 0,0 64.305,-185.029 176.207,-328.307 l 37.958,29.97 c 0,0 -30.141,97.621 -37.6,110.179 -7.458,12.558 -27.443,45.014 -33.435,62.072 -19.439,55.338 -40.053,160.89 -40.053,160.89 z"
             style="fill:#4b937a;fill-opacity:1;fill-rule:nonzero;stroke:none"
             id="path140" />
        </g>
        <g
           id="g142"
           transform="translate(1793.6519,1631.0101)">
          <path
             d="m 0,0 c -5.062,6.466 -3.426,9.948 -2.333,10.08 1.009,0.123 7.218,2.296 9.243,3.68 4.828,3.301 6.912,8.654 4.654,11.958 -1.209,1.768 -3.42,2.582 -5.952,2.458 1.65,7.912 -0.191,12.009 -1.438,17.734 -4.298,19.737 -21.315,17.795 -28.119,11.722 -5.938,-5.299 -6.179,-10.445 -18.185,-14.797 -1.149,-0.417 -1.324,-2.058 -0.862,-3.185 l 2.236,-6.382 c 0.52,-1.265 -0.088,-4.148 -0.668,-5.405 -1.79,-3.884 -5.896,-11.973 -5.227,-13.717 1.305,-3.399 13.994,-9.781 13.994,-9.781 l 24.135,-43.87 c -1.881,-7.347 -6.657,-11.031 -10.118,-12.79 -2.136,-1.087 3.284,-5.914 5.149,-7.421 3.511,-2.839 0,0 14.723,-7.296 19.482,-9.655 44.782,14.36 44.782,14.36 0,0 -6.083,1.654 -46.014,52.652"
             style="fill:#ffffff;fill-opacity:1;fill-rule:nonzero;stroke:none"
             id="path144" />
        </g>
        <g
           id="g146"
           transform="translate(1840.5376,1581.5565)">
          <path
             d="M 0,0 C 0.002,0 0.004,0 0.005,-0.002 0.004,0 0.002,0 0,0 m 0.006,-0.002 c 0.003,0 0.005,0 0.007,-0.002 -0.002,0.002 -0.004,0.002 -0.007,0.002 m 0.008,-0.002 h 0.005 z m 0.007,-0.002 h 0.005 z m 0.006,0 c 0.002,-0.003 0.004,-0.003 0.006,-0.003 -0.002,0 -0.004,0 -0.006,0.003 m 0.008,-0.003 c 10e-4,-0.002 0.003,-0.002 0.005,-0.002 -0.002,0 -0.004,0 -0.005,0.002 m 0.006,-0.002 c 0.002,0 0.003,-0.002 0.005,-0.002 -0.002,0 -0.003,0.002 -0.005,0.002 m 0.008,-0.002 c 0.001,0 0.002,-0.002 0.004,-0.002 -0.002,0 -0.003,0.002 -0.004,0.002 m 0.007,-0.002 c 0,0 0.001,0 0.002,-0.002 -0.001,0.002 -0.002,0.002 -0.002,0.002 m -61.788,-4.452 c 0.836,-0.926 2.073,-2.111 3.439,-3.214 1.365,-1.104 1.365,-1.104 2.299,-1.475 1.405,-0.559 4.329,-1.723 11.812,-5.432 13.556,-6.718 31.13,5.631 38.047,11.238 -7.659,6.813 -22.859,24.574 -43.362,50.759 -5.035,6.432 -4.465,10.586 -3.677,12.49 0.679,1.643 2.008,2.737 3.552,2.927 0.999,0.205 6.301,2.118 7.776,3.124 1.763,1.205 3.135,2.826 3.764,4.443 0.219,0.564 0.661,1.973 0.023,2.906 -0.696,1.019 -2.36,1.049 -3.054,1.019 -1.044,-0.052 -2.015,0.378 -2.683,1.157 -0.667,0.782 -0.933,1.827 -0.724,2.833 1.192,5.712 0.363,9.028 -0.686,13.225 -0.252,1.008 -0.509,2.038 -0.746,3.124 -1.477,6.783 -4.737,11.172 -9.427,12.694 -4.899,1.589 -10.37,-0.174 -13.243,-2.739 -1.631,-1.455 -2.789,-2.913 -4.015,-4.458 -2.844,-3.58 -5.779,-7.274 -13.927,-10.484 l 2.052,-5.851 c 1.001,-2.424 -0.09,-6.379 -0.785,-7.888 -0.281,-0.611 -0.617,-1.322 -0.982,-2.092 -1.08,-2.276 -3.492,-7.364 -3.944,-9.342 1.316,-1.502 6.738,-4.982 12.17,-7.716 0.599,-0.3 1.092,-0.777 1.416,-1.364 l 24.135,-43.871 c 0.405,-0.739 0.516,-1.604 0.306,-2.42 -1.789,-6.989 -5.821,-11.153 -9.536,-13.593 m 26.209,-18.705 c -3.909,0 -7.83,0.773 -11.604,2.643 -7.24,3.588 -9.994,4.683 -11.318,5.21 -1.809,0.718 -2.082,0.915 -4.016,2.48 -7.249,5.855 -6.947,8.729 -6.847,9.674 0.149,1.423 0.98,2.619 2.28,3.28 2.772,1.409 6.322,4.173 8.052,9.438 l -22.98,41.773 c -5.24,2.694 -13.229,7.314 -14.676,11.084 -0.92,2.398 0.281,5.664 4.36,14.27 0.353,0.747 0.679,1.436 0.952,2.025 0.33,0.717 0.642,2.403 0.547,2.955 l -2.233,6.348 c -0.592,1.427 -0.59,3.266 0.068,4.754 0.555,1.254 1.547,2.193 2.792,2.644 7.397,2.682 9.676,5.551 12.315,8.873 1.284,1.617 2.738,3.448 4.793,5.281 4.152,3.705 12.092,6.574 19.707,4.1 4.923,-1.598 11.323,-5.948 13.86,-17.591 0.221,-1.019 0.463,-1.982 0.699,-2.928 0.911,-3.646 1.848,-7.394 1.304,-12.642 2.046,-0.602 3.743,-1.785 4.885,-3.459 1.702,-2.489 1.952,-5.79 0.682,-9.052 -1.118,-2.876 -3.322,-5.544 -6.203,-7.513 -1.87,-1.278 -6.253,-2.977 -8.905,-3.784 0.135,-0.877 0.688,-2.58 2.734,-5.193 C -8.637,5.982 -0.312,0.304 0.447,-0.158 1.384,-0.561 2.091,-1.382 2.345,-2.39 2.637,-3.551 2.281,-4.78 1.412,-5.604 0.505,-6.466 -17.351,-23.169 -35.523,-23.172"
             style="fill:#000000;fill-opacity:1;fill-rule:nonzero;stroke:none"
             id="path148" />
        </g>
        <g
           id="g150"
           transform="translate(1775.6865,1682.5654)">
          <path
             d="m 0,0 c 0,0 -18.793,19.077 -11.36,31.683 0.652,1.108 2.652,4.587 6.425,5.77 7.75,2.43 16.279,-6.733 18.191,-8.763 C 29.83,11.093 41.943,8.097 48.79,-0.908 c 2.484,-3.267 4.995,-9.054 3.303,-19.801 -2.445,-7.511 -6.115,-11.195 -9.015,-13.171 -5.953,-4.057 -10.437,-2.129 -14.855,-6.623 -4.965,-5.05 -2.991,-11.235 -6.184,-12.616 -2.472,-1.069 -7.346,1.038 -17.797,14.25 8.068,7.08 12.528,14.488 10.496,18.721 -0.577,1.2 -2.354,3.332 -4.468,3.575 C 7.477,-16.251 5.274,-19 5.274,-19 Z"
             style="fill:#000000;fill-opacity:1;fill-rule:nonzero;stroke:none"
             id="path152" />
        </g>
        <g
           id="g154"
           transform="translate(1934.1385,1845.3206)">
          <path
             d="m 0,0 c -8.452,9.231 -11.663,22.109 -8.537,34.228 l 8.032,31.129 2.544,-1.494 C 15.309,57.46 13.598,3.615 13.598,3.615 Z"
             style="fill:#ffffff;fill-opacity:1;fill-rule:nonzero;stroke:none"
             id="path156" />
        </g>
        <g
           id="g158"
           transform="translate(1935.7333,1905.543)">
          <path
             d="M 0,0 -6.92,-26.822 C -9.612,-37.256 -7.189,-48.2 -0.443,-56.485 l 9.194,2.446 C 9.148,-33.651 6.753,-5.661 0,0 m -1.594,-63.539 c -0.918,0 -1.809,0.383 -2.446,1.078 -9.245,10.097 -12.722,24.039 -9.303,37.297 l 8.032,31.127 c 0.26,1.008 0.978,1.835 1.94,2.234 0.96,0.395 2.054,0.324 2.951,-0.203 L 2.021,6.561 c 14.338,-7.213 13.592,-53.951 13.295,-63.273 -0.046,-1.464 -1.047,-2.722 -2.461,-3.098 l -13.597,-3.616 c -0.282,-0.076 -0.568,-0.113 -0.852,-0.113"
             style="fill:#000000;fill-opacity:1;fill-rule:nonzero;stroke:none"
             id="path160" />
        </g>
        <g
           id="g162"
           transform="translate(1729.6256,1487.0905)">
          <path
             d="m 0,0 16.096,-122.001 c 0,0 41.979,-6.484 84.795,-2.903 C 100.891,-124.904 46.547,3.618 0,0"
             style="fill:#ffffff;fill-opacity:1;fill-rule:nonzero;stroke:none"
             id="path164" />
        </g>
        <g
           id="g166"
           transform="translate(1748.6794,1368.0217)">
          <path
             d="m 0,0 c 9.138,-1.229 42.442,-5.197 76.916,-2.88 -9.547,21.341 -53.91,115.773 -92.189,118.645 z m 54.776,-10.22 c -31.817,0 -57.908,3.959 -58.24,4.011 -1.456,0.225 -2.588,1.384 -2.781,2.843 l -16.097,122.002 c -0.119,0.902 0.138,1.813 0.711,2.522 0.573,0.708 1.412,1.148 2.32,1.217 C 29.047,126.168 82.633,0.794 84.89,-4.545 c 0.415,-0.978 0.334,-2.096 -0.216,-3.007 -0.549,-0.909 -1.502,-1.5 -2.561,-1.589 -9.265,-0.775 -18.524,-1.079 -27.337,-1.079"
             style="fill:#000000;fill-opacity:1;fill-rule:nonzero;stroke:none"
             id="path168" />
        </g>
        <g
           id="g170"
           transform="translate(1556.2642,1611.5681)">
          <path
             d="m 0,0 c 0,0 -0.228,12.744 -13.102,24.334 -12.874,11.59 -35.751,38.516 -38.406,22.474 -2.655,-16.042 5.636,-35.386 22.732,-39.807 8.419,-2.178 10.353,-24.134 10.353,-24.134 z"
             style="fill:#ffffff;fill-opacity:1;fill-rule:nonzero;stroke:none"
             id="path172" />
        </g>
        <g
           id="g174"
           transform="translate(1509.3599,1660.0758)">
          <path
             d="m 0,0 c -0.188,0 -0.361,-0.024 -0.515,-0.076 -0.096,-0.03 -0.543,-0.513 -0.816,-2.165 -2.352,-14.208 4.737,-32.034 20.29,-36.056 7.327,-1.893 10.568,-12.992 11.941,-20.568 l 12.553,11.676 c -0.474,3.361 -2.575,12.182 -11.869,20.55 -2.534,2.28 -5.402,5.1 -8.439,8.086 C 16.922,-12.442 4.262,0 0,0 m 28.481,-68.958 c -0.399,0 -0.802,0.074 -1.188,0.221 -1.182,0.453 -2.003,1.541 -2.115,2.804 -0.732,8.23 -3.877,20.182 -7.879,21.216 -19.182,4.961 -28.002,26.472 -25.174,43.56 0.819,4.944 3.337,6.746 5.305,7.387 6.953,2.263 16.535,-6.465 30.363,-20.053 2.984,-2.932 5.803,-5.702 8.227,-7.885 13.788,-12.413 14.19,-26.161 14.2,-26.742 0.016,-0.941 -0.368,-1.846 -1.058,-2.487 L 30.739,-68.07 c -0.623,-0.581 -1.434,-0.888 -2.258,-0.888"
             style="fill:#000000;fill-opacity:1;fill-rule:nonzero;stroke:none"
             id="path176" />
        </g>
        <g
           id="g178"
           transform="translate(1554.4373,1616.1007)">
          <path
             d="m 0,0 c -8.983,-6.341 -17.965,-12.682 -26.949,-19.023 33.827,-78.403 74.013,-105.494 103.936,-115.944 51.506,-17.986 83.436,9.548 120.297,-16.114 41.561,-28.935 23.297,-92.39 64.013,-143.285 22.18,-27.725 99.855,-18.138 111.337,-18.029 11.703,0.113 78.187,0.748 96.389,40.087 6.405,13.846 4.552,27.562 3.224,37.398 -2.475,18.312 -11.016,31.811 -42.719,71.207 -23.122,28.732 -26.305,30.978 -33.367,40.343 -15.348,20.349 -23.88,48.769 -30.119,100.958 14.901,21.704 25.734,60.588 36.81,107.074 16.354,68.644 4.808,125.993 -3.098,154.64 -8.981,-2.492 -17.962,-4.985 -26.943,-7.477 C 369.947,173.231 355.337,124.725 343.382,101.397 321.023,57.766 288.584,34.572 252.476,-1.771 238.101,-16.24 232.419,-20.588 228.77,-23.228 206.886,-39.057 171.414,-55.229 116.947,-52.033 54.124,-48.344 12.661,-12.042 0,0"
             style="fill:#000000;fill-opacity:1;fill-rule:nonzero;stroke:none"
             id="path180" />
        </g>
        <g
           id="g182"
           transform="translate(1498.9572,335.801)">
          <path
             d="M 0,0 C -0.482,0 -0.972,0.106 -1.437,0.328 -3.086,1.123 -3.78,3.104 -2.986,4.754 l 261.228,542.607 c 0.795,1.652 2.778,2.339 4.427,1.551 1.65,-0.795 2.344,-2.777 1.55,-4.426 L 2.99,1.878 C 2.419,0.691 1.234,0 0,0"
             style="fill:#000000;fill-opacity:1;fill-rule:nonzero;stroke:none"
             id="path184" />
        </g>
        <g
           id="g186"
           transform="translate(1682.4467,335.801)">
          <path
             d="M 0,0 C -0.483,0 -0.973,0.106 -1.437,0.328 -3.086,1.123 -3.78,3.104 -2.986,4.754 l 261.228,542.607 c 0.797,1.652 2.778,2.339 4.427,1.551 1.65,-0.795 2.344,-2.777 1.549,-4.426 L 2.99,1.878 C 2.419,0.691 1.234,0 0,0"
             style="fill:#000000;fill-opacity:1;fill-rule:nonzero;stroke:none"
             id="path188" />
        </g>
        <g
           id="g190"
           transform="translate(2096.0471,894.0066)">
          <path
             d="m 0,0 c 0,-6.715 -5.444,-12.159 -12.159,-12.159 h -331.607 c -6.715,0 -12.159,5.444 -12.159,12.159 0,6.715 5.444,12.159 12.159,12.159 H -12.159 C -5.444,12.159 0,6.715 0,0"
             style="fill:#c7e8cc;fill-opacity:1;fill-rule:nonzero;stroke:none"
             id="path192" />
        </g>
        <g
           id="g194"
           transform="translate(1752.2806,902.8495)">
          <path
             d="m 0,0 c -4.876,0 -8.843,-3.966 -8.843,-8.843 0,-4.877 3.967,-8.843 8.843,-8.843 h 331.607 c 4.876,0 8.843,3.966 8.843,8.843 0,4.877 -3.967,8.843 -8.843,8.843 z M 331.607,-24.318 H 0 c -8.533,0 -15.475,6.943 -15.475,15.475 0,8.532 6.942,15.475 15.475,15.475 h 331.607 c 8.533,0 15.475,-6.943 15.475,-15.475 0,-8.532 -6.942,-15.475 -15.475,-15.475"
             style="fill:#000000;fill-opacity:1;fill-rule:nonzero;stroke:none"
             id="path196" />
        </g>
        <g
           id="g198"
           transform="translate(2060.6753,335.801)">
          <path
             d="m 0,0 c -1.832,0 -3.316,1.485 -3.316,3.316 v 541.625 c 0,1.831 1.484,3.316 3.316,3.316 1.832,0 3.316,-1.485 3.316,-3.316 V 3.316 C 3.316,1.485 1.832,0 0,0"
             style="fill:#000000;fill-opacity:1;fill-rule:nonzero;stroke:none"
             id="path200" />
        </g>
        <g
           id="g202"
           transform="translate(1904.8201,803.3672)">
          <path
             d="m 0,0 h -179.068 c -1.832,0 -3.316,1.486 -3.316,3.316 0,1.831 1.484,3.316 3.316,3.316 H 0 C 1.832,6.632 3.316,5.147 3.316,3.316 3.316,1.486 1.832,0 0,0"
             style="fill:#000000;fill-opacity:1;fill-rule:nonzero;stroke:none"
             id="path204" />
        </g>
        <g
           id="g206"
           transform="translate(1847.3414,681.7779)">
          <path
             d="m 0,0 h -179.068 c -1.832,0 -3.316,1.485 -3.316,3.316 0,1.831 1.484,3.316 3.316,3.316 H 0 C 1.832,6.632 3.316,5.147 3.316,3.316 3.316,1.485 1.832,0 0,0"
             style="fill:#000000;fill-opacity:1;fill-rule:nonzero;stroke:none"
             id="path208" />
        </g>
        <g
           id="g210"
           transform="translate(1792.0734,564.6101)">
          <path
             d="m 0,0 h -179.068 c -1.832,0 -3.316,1.485 -3.316,3.316 0,1.831 1.484,3.316 3.316,3.316 H 0 C 1.832,6.632 3.316,5.147 3.316,3.316 3.316,1.485 1.832,0 0,0"
             style="fill:#000000;fill-opacity:1;fill-rule:nonzero;stroke:none"
             id="path212" />
        </g>
        <g
           id="g214"
           transform="translate(1734.5948,447.4421)">
          <path
             d="m 0,0 h -179.068 c -1.832,0 -3.316,1.485 -3.316,3.316 0,1.831 1.484,3.316 3.316,3.316 H 0 C 1.832,6.632 3.316,5.147 3.316,3.316 3.316,1.485 1.832,0 0,0"
             style="fill:#000000;fill-opacity:1;fill-rule:nonzero;stroke:none"
             id="path216" />
        </g>
        <g
           id="g218"
           transform="translate(852.3023,2069.3562)">
          <path
             d="m 0,0 c -0.883,0 -1.778,-0.078 -2.676,-0.238 -8.226,-1.472 -13.721,-9.363 -12.25,-17.59 1.473,-8.226 9.372,-13.707 17.589,-12.248 3.985,0.713 7.455,2.934 9.768,6.257 2.313,3.322 3.195,7.347 2.482,11.332 C 13.601,-5.16 7.197,0 0,0 m -0.016,-36.948 c -10.347,0 -19.552,7.418 -21.438,17.952 -2.116,11.829 5.785,23.171 17.61,25.287 11.819,2.12 23.168,-5.784 25.285,-17.608 1.026,-5.73 -0.242,-11.516 -3.568,-16.291 -3.326,-4.778 -8.313,-7.971 -14.042,-8.996 -1.291,-0.231 -2.579,-0.344 -3.847,-0.344"
             style="fill:#000000;fill-opacity:1;fill-rule:nonzero;stroke:none"
             id="path220" />
        </g>
        <g
           id="g222"
           transform="translate(769.4339,2015.403)">
          <path
             d="m 0,0 c -1.575,0 -2.973,1.127 -3.26,2.731 l -3.005,16.794 c -0.323,1.803 0.877,3.528 2.68,3.849 1.796,0.32 3.526,-0.876 3.848,-2.679 L 3.268,3.901 C 3.591,2.099 2.391,0.373 0.588,0.052 0.391,0.017 0.194,0 0,0"
             style="fill:#000000;fill-opacity:1;fill-rule:nonzero;stroke:none"
             id="path224" />
        </g>
        <g
           id="g226"
           transform="translate(776.4341,1976.2772)">
          <path
             d="m 0,0 c -1.575,0 -2.973,1.127 -3.26,2.731 l -3.005,16.796 c -0.323,1.805 0.877,3.528 2.68,3.85 1.794,0.313 3.526,-0.877 3.848,-2.679 L 3.268,3.901 C 3.591,2.096 2.391,0.373 0.588,0.052 0.391,0.017 0.194,0 0,0"
             style="fill:#000000;fill-opacity:1;fill-rule:nonzero;stroke:none"
             id="path228" />
        </g>
        <g
           id="g230"
           transform="translate(743.4709,1999.235)">
          <path
             d="m 0,0 c -1.575,0 -2.973,1.127 -3.26,2.731 -0.323,1.805 0.878,3.528 2.68,3.849 L 16.216,9.585 C 18.011,9.903 19.741,8.709 20.064,6.906 20.387,5.102 19.186,3.379 17.384,3.057 L 0.588,0.052 C 0.391,0.017 0.194,0 0,0"
             style="fill:#000000;fill-opacity:1;fill-rule:nonzero;stroke:none"
             id="path232" />
        </g>
        <g
           id="g234"
           transform="translate(782.5957,2006.2362)">
          <path
             d="m 0,0 c -1.575,0 -2.973,1.127 -3.26,2.731 -0.323,1.805 0.878,3.528 2.68,3.849 L 16.215,9.586 C 18.016,9.899 19.741,8.709 20.064,6.906 20.386,5.101 19.186,3.379 17.383,3.057 L 0.588,0.052 C 0.391,0.017 0.194,0 0,0"
             style="fill:#000000;fill-opacity:1;fill-rule:nonzero;stroke:none"
             id="path236" />
        </g>
        <g
           id="g238"
           transform="translate(1285.6793,1342.0447)">
          <path
             d="M 0,0 C -0.425,0 -0.856,0.082 -1.273,0.255 -2.963,0.959 -3.764,2.9 -3.06,4.59 l 6.553,15.753 c 0.704,1.691 2.647,2.487 4.335,1.788 1.691,-0.704 2.492,-2.645 1.788,-4.335 L 3.062,2.042 C 2.532,0.769 1.299,0 0,0"
             style="fill:#000000;fill-opacity:1;fill-rule:nonzero;stroke:none"
             id="path240" />
        </g>
        <g
           id="g242"
           transform="translate(1270.4138,1305.3455)">
          <path
             d="M 0,0 C -0.425,0 -0.856,0.082 -1.273,0.255 -2.963,0.959 -3.764,2.9 -3.06,4.59 l 6.553,15.753 c 0.704,1.691 2.647,2.49 4.335,1.788 1.691,-0.704 2.492,-2.645 1.788,-4.335 L 3.062,2.042 C 2.532,0.769 1.299,0 0,0"
             style="fill:#000000;fill-opacity:1;fill-rule:nonzero;stroke:none"
             id="path244" />
        </g>
        <g
           id="g246"
           transform="translate(1270.851,1335.9285)">
          <path
             d="m 0,0 c -0.424,0 -0.856,0.082 -1.273,0.255 l -15.753,6.552 c -1.691,0.704 -2.491,2.645 -1.788,4.335 0.703,1.691 2.642,2.487 4.335,1.788 L 1.275,6.377 C 2.965,5.674 3.766,3.733 3.062,2.042 2.532,0.769 1.3,0 0,0"
             style="fill:#000000;fill-opacity:1;fill-rule:nonzero;stroke:none"
             id="path248" />
        </g>
        <g
           id="g250"
           transform="translate(1307.549,1320.6628)">
          <path
             d="m 0,0 c -0.424,0 -0.856,0.082 -1.273,0.255 l -15.753,6.552 c -1.691,0.704 -2.491,2.645 -1.788,4.335 0.704,1.689 2.645,2.487 4.335,1.788 L 1.275,6.377 C 2.965,5.674 3.766,3.733 3.063,2.042 2.532,0.769 1.3,0 0,0"
             style="fill:#000000;fill-opacity:1;fill-rule:nonzero;stroke:none"
             id="path252" />
        </g>
        <g
           id="g254"
           transform="translate(982.8067,1173.9922)">
          <path
             d="m 0,0 c 7.345,0.403 15.984,-1.554 33.262,-5.468 15.569,-3.526 19.877,-5.898 21.795,-9.974 3.14,-6.672 -1.55,-14.897 -2.955,-17.361 -7.96,-13.958 -22.53,-15.787 -32.138,-22.165 -31.079,-20.631 -15.233,-55.664 -41.004,-77.575 -24.549,-20.871 -47.48,3.65 -91.612,-16.253 -34.745,-15.67 -31.51,-35.818 -59.844,-44.698 -34.606,-10.846 -88.829,3.731 -110.82,47.284 -20.911,41.411 -6.457,96.699 21.795,110.821 25.663,12.828 45.491,-15.515 79.79,-2.217 33.814,13.11 36.423,49.41 62.808,48.955 6.31,-0.108 4.989,-2.164 46.536,-17.186 19.242,-6.957 21.551,-7.249 23.642,-7.388 C -28.047,-14.599 -23.731,-1.302 0,0"
             style="fill:#000000;fill-opacity:1;fill-rule:nonzero;stroke:none"
             id="path256" />
        </g>
        <g
           id="g258"
           transform="translate(1057.0435,961.379)">
          <path
             d="m 0,0 c 14.783,-90.529 16.499,-91.862 18.496,-101.345 0,0 5.864,-26.658 7.491,-52.34 1.411,-22.286 -2.78,-156.119 -71.955,-185.588 -24.98,-10.642 -32.22,8.92 -85.411,6.796 -54.511,-2.177 -65.561,-21.571 -89.344,-14.776 -51.473,14.707 -68.284,125.146 -65.45,193.391 2.309,55.581 29.97,108.065 85.293,213.031 8.426,15.987 21.914,40.403 43.642,43.512 9.961,1.425 13.942,-0.104 53.933,-11.082 43.5,-11.942 54.542,0.761 73.214,-11.005 C -10.8,68.437 -7.398,45.305 0,0"
             style="fill:#3e6eb4;fill-opacity:1;fill-rule:nonzero;stroke:none"
             id="path260" />
        </g>
        <g
           id="g262"
           transform="translate(977.6465,437.1967)">
          <path
             d="M 0,0 V -43.779 L -21.065,-42.497 -25.21,0 Z"
             style="fill:#ffffff;fill-opacity:1;fill-rule:nonzero;stroke:none"
             id="path264" />
        </g>
        <g
           id="g266"
           transform="translate(959.6073,397.8392)">
          <path
             d="M 0,0 14.722,-0.898 V 36.041 H -3.516 Z m 18.039,-7.737 c -0.067,0 -0.134,0.001 -0.202,0.006 l -21.064,1.282 c -1.627,0.1 -2.941,1.365 -3.099,2.988 l -4.145,42.496 c -0.092,0.93 0.215,1.857 0.844,2.55 0.629,0.693 1.52,1.088 2.456,1.088 h 25.21 c 1.832,0 3.316,-1.485 3.316,-3.316 V -4.421 c 0,-0.916 -0.378,-1.788 -1.044,-2.416 -0.616,-0.579 -1.43,-0.9 -2.272,-0.9"
             style="fill:#000000;fill-opacity:1;fill-rule:nonzero;stroke:none"
             id="path268" />
        </g>
        <g
           id="g270"
           transform="translate(953.421,338.83)">
          <path
             d="m 0,0 c 8.577,-0.919 22.612,-1.514 38.972,1.303 5.362,0.923 8.76,6.266 7.286,11.503 C 42.154,27.397 34.054,54.588 27.6,67.612 l -3.887,-7.101 -3.11,7.497 c -0.533,0.888 -1.456,1.47 -2.487,1.566 L 10.04,70.327 C 8.353,70.485 6.332,68.825 6.038,67.157 L 0.716,60.511 -2.352,68.406 -8.099,9.997 C -8.59,5.008 -4.985,0.534 0,0"
             style="fill:#ffffff;fill-opacity:1;fill-rule:nonzero;stroke:none"
             id="path272" />
        </g>
        <g
           id="g274"
           transform="translate(953.7751,342.1266)">
          <path
             d="m 0,0 c 8.615,-0.924 22.213,-1.453 38.056,1.274 1.663,0.287 3.075,1.228 3.974,2.653 0.892,1.412 1.135,3.076 0.683,4.685 -2.896,10.296 -9.673,33.553 -15.76,48.262 l -0.685,-1.252 c -0.613,-1.118 -1.826,-1.764 -3.087,-1.718 -1.274,0.069 -2.396,0.863 -2.884,2.04 L 17.365,63.01 9.378,63.731 C 9.365,63.685 9.006,63.379 8.924,63.189 8.828,62.641 8.619,62.222 8.272,61.788 L 2.95,55.143 c -0.742,-0.927 -1.921,-1.391 -3.091,-1.205 -0.111,0.017 -0.22,0.039 -0.325,0.067 L -5.154,6.377 C -5.465,3.199 -3.154,0.339 0,0 m 14.288,-7.377 c -5.872,0 -10.955,0.35 -14.996,0.784 -6.759,0.725 -11.713,6.835 -11.045,13.618 l 5.747,58.409 c 0.15,1.529 1.329,2.753 2.85,2.962 1.505,0.199 2.985,-0.654 3.54,-2.085 l 0.985,-2.533 1.306,1.63 c 1.043,2.947 4.29,5.233 7.32,4.925 l 8.074,-0.754 c 2.077,-0.194 3.954,-1.377 5.025,-3.163 0.083,-0.14 0.156,-0.285 0.218,-0.433 l 0.459,-1.108 0.566,1.034 c 0.595,1.084 1.757,1.734 2.977,1.723 1.235,-0.026 2.355,-0.736 2.904,-1.844 C 37.109,51.881 45.716,22.427 49.096,10.408 50.05,7.016 49.519,3.363 47.638,0.386 45.752,-2.604 42.67,-4.661 39.182,-5.263 30.007,-6.842 21.546,-7.377 14.288,-7.377"
             style="fill:#000000;fill-opacity:1;fill-rule:nonzero;stroke:none"
             id="path276" />
        </g>
        <g
           id="g278"
           transform="translate(973.7966,344.674)">
          <path
             d="m 0,0 c -12.506,0 -22.11,2.351 -22.71,2.502 -1.776,0.445 -2.854,2.243 -2.411,4.02 0.443,1.777 2.249,2.856 4.019,2.414 0.207,-0.052 20.924,-5.1 40.28,-0.009 1.774,0.462 3.583,-0.594 4.05,-2.364 C 23.693,4.791 22.635,2.977 20.864,2.511 13.697,0.628 6.461,0 0,0"
             style="fill:#000000;fill-opacity:1;fill-rule:nonzero;stroke:none"
             id="path280" />
        </g>
        <g
           id="g282"
           transform="translate(981.0215,367.4094)">
          <path
             d="m 0,0 h -19.223 c -1.832,0 -3.316,1.485 -3.316,3.316 0,1.831 1.484,3.316 3.316,3.316 H 0 C 1.832,6.632 3.316,5.147 3.316,3.316 3.316,1.485 1.832,0 0,0"
             style="fill:#000000;fill-opacity:1;fill-rule:nonzero;stroke:none"
             id="path284" />
        </g>
        <g
           id="g286"
           transform="translate(822.6998,460.3597)">
          <path
             d="m 0,0 -6.227,-52.783 -19.743,0.687 V 0 Z"
             style="fill:#ffffff;fill-opacity:1;fill-rule:nonzero;stroke:none"
             id="path288" />
        </g>
        <g
           id="g290"
           transform="translate(800.046,411.4684)">
          <path
             d="m 0,0 13.491,-0.471 5.432,46.045 H 0 Z m 16.429,-7.207 c -0.038,0 -0.077,0 -0.117,0.002 l -19.744,0.687 c -1.785,0.063 -3.2,1.526 -3.2,3.314 V 48.89 c 0,1.831 1.484,3.316 3.316,3.316 h 25.969 c 0.947,0 1.85,-0.406 2.479,-1.111 0.629,-0.709 0.926,-1.652 0.815,-2.593 L 19.72,-4.279 c -0.197,-1.676 -1.618,-2.928 -3.291,-2.928"
             style="fill:#000000;fill-opacity:1;fill-rule:nonzero;stroke:none"
             id="path292" />
        </g>
        <g
           id="g294"
           transform="translate(821.1694,420.1736)">
          <path
             d="m 0,0 c 0,0 2.54,-23.442 1.756,-32.871 -0.562,-6.748 -9.821,-27.127 -15.042,-38.173 -2.148,-4.544 -6.241,-7.457 -10.783,-7.654 -5.539,-0.241 -13.243,-0.518 -19.455,-0.524 -8.548,-0.01 -14.427,9.706 -11.374,18.765 2.816,8.358 7.287,18.838 14.322,29.995 5.297,8.401 13.033,31.23 13.033,31.23 h 16.088 l 3.158,-13.359 z"
             style="fill:#ffffff;fill-opacity:1;fill-rule:nonzero;stroke:none"
             id="path296" />
        </g>
        <g
           id="g298"
           transform="translate(795.9885,417.6254)">
          <path
             d="m 0,0 c -2.121,-6.056 -8.093,-22.55 -12.59,-29.683 -5.867,-9.303 -10.571,-19.153 -13.985,-29.285 -1.24,-3.679 -0.681,-7.684 1.496,-10.708 1.707,-2.375 4.093,-3.681 6.722,-3.681 h 0.009 c 6.193,0.006 13.923,0.285 19.316,0.52 3.28,0.143 6.318,2.349 7.93,5.758 8.855,18.739 14.364,32.582 14.734,37.029 0.44,5.294 -0.232,15.411 -0.865,22.908 l -3.115,-4.725 c -0.728,-1.106 -2.044,-1.676 -3.347,-1.44 -1.303,0.228 -2.345,1.213 -2.649,2.502 L 11.102,0 Z m -18.358,-79.99 c -4.75,0 -9.162,2.347 -12.105,6.441 -3.422,4.756 -4.318,10.999 -2.397,16.701 3.582,10.626 8.514,20.956 14.66,30.702 5.026,7.972 12.621,30.302 12.698,30.527 0.455,1.344 1.718,2.251 3.14,2.251 h 16.088 c 1.537,0 2.874,-1.058 3.228,-2.554 l 1.389,-5.88 4.07,6.174 c 0.77,1.168 2.191,1.729 3.548,1.399 1.36,-0.328 2.367,-1.477 2.517,-2.867 0.105,-0.969 2.564,-23.867 1.763,-33.502 -0.57,-6.863 -8.661,-25.166 -15.348,-39.314 -2.665,-5.641 -7.891,-9.3 -13.637,-9.553 -5.459,-0.235 -13.288,-0.518 -19.596,-0.525 z"
             style="fill:#000000;fill-opacity:1;fill-rule:nonzero;stroke:none"
             id="path300" />
        </g>
        <g
           id="g302"
           transform="translate(816.2864,375.7492)">
          <path
             d="M 0,0 C -0.002,-0.002 -0.003,-0.002 -0.004,-0.004 -0.003,-0.002 -0.002,-0.002 0,0 m -26.369,-28.066 h -0.02 l -18.322,0.018 c -1.832,0.002 -3.315,1.487 -3.313,3.318 0.003,1.83 1.487,3.314 3.316,3.314 h 0.004 l 18.321,-0.018 h 0.013 c 5.12,0 9.787,3.003 12.185,7.839 8.807,17.766 9.251,18.129 9.986,18.729 1.417,1.161 3.507,0.943 4.665,-0.471 C 1.49,3.409 1.445,1.634 0.443,0.438 0.082,-0.134 -1.498,-2.934 -8.244,-16.539 c -3.524,-7.112 -10.468,-11.527 -18.125,-11.527"
             style="fill:#000000;fill-opacity:1;fill-rule:nonzero;stroke:none"
             id="path304" />
        </g>
        <g
           id="g306"
           transform="translate(797.6563,366.7574)">
          <path
             d="m 0,0 h -17.615 c -1.832,0 -3.316,1.485 -3.316,3.316 0,1.831 1.484,3.316 3.316,3.316 H 0 C 1.832,6.632 3.316,5.147 3.316,3.316 3.316,1.485 1.832,0 0,0"
             style="fill:#000000;fill-opacity:1;fill-rule:nonzero;stroke:none"
             id="path308" />
        </g>
        <g
           id="g310"
           transform="translate(1011.4867,874.873)">
          <path
             d="m 0,0 c 0,0 -2.098,-161.088 -8.867,-265.958 -6.769,-104.871 -20.122,-185.055 -20.122,-185.055 0,0 -22.975,-8.257 -38.058,-3.932 0,0 -12.487,91.994 -15.323,123.088 -2.837,31.095 4.696,46.524 5.33,71.973 0.634,25.448 -10.968,137.81 -10.968,137.81 0,0 -86.607,-254.018 -96.513,-310.122 0,0 -20.976,-3.556 -35.759,4.525 0,0 -0.46,99.894 1.637,115.327 3.886,28.596 26.219,56.75 30.232,87.122 4.012,30.373 6.338,106.602 17.387,152.323 11.049,45.721 32.722,97.087 32.722,97.087 z"
             style="fill:#000000;fill-opacity:1;fill-rule:nonzero;stroke:none"
             id="path312" />
        </g>
        <g
           id="g314"
           transform="translate(863.9399,813.3372)">
          <path
             d="m 0,0 c -1.306,0 -2.544,0.775 -3.07,2.06 -0.694,1.694 0.117,3.631 1.811,4.324 27.323,11.194 35.384,37.863 35.461,38.13 0.513,1.758 2.356,2.759 4.112,2.256 1.758,-0.513 2.768,-2.355 2.255,-4.112 C 40.213,41.438 31.504,12.638 1.256,0.248 0.844,0.08 0.419,0 0,0"
             style="fill:#ffffff;fill-opacity:1;fill-rule:nonzero;stroke:none"
             id="path316" />
        </g>
        <g
           id="g318"
           transform="translate(837.7836,738.2721)">
          <path
             d="m 0,0 c -0.143,0 -0.287,0.009 -0.432,0.028 -1.816,0.235 -3.097,1.9 -2.86,3.716 10.02,77.014 40.14,128.571 40.443,129.082 0.933,1.577 2.966,2.097 4.542,1.164 1.576,-0.933 2.097,-2.966 1.165,-4.542 C 42.562,128.947 13.119,78.474 3.284,2.888 3.067,1.218 1.641,0 0,0"
             style="fill:#ffffff;fill-opacity:1;fill-rule:nonzero;stroke:none"
             id="path320" />
        </g>
        <g
           id="g322"
           transform="translate(1247.3167,1163.4377)">
          <path
             d="m 0,0 -27.867,-30.024 -2.132,-32.627 c -5.709,-8.118 -9.3,-21.824 -15.606,-28.13 2.537,-2.425 1.055,-1.752 3.517,-4.24 4.003,-4.047 7.675,-5.919 11.598,-10.041 9.45,21.265 11.609,39.108 11.609,39.108 21.221,9.683 15.266,26.639 12.513,30.559 -2.754,3.921 0.048,9.769 7.486,20.196 C 9.254,-3.79 0,0 0,0"
             style="fill:#ffffff;fill-opacity:1;fill-rule:nonzero;stroke:none"
             id="path324" />
        </g>
        <g
           id="g326"
           transform="translate(1217.3177,1100.7863)">
          <path
             d="m 0,0 h 0.021 z m -11.218,-28.12 c 0.109,-0.17 0.205,-0.334 0.3,-0.5 0.151,-0.266 0.295,-0.517 1.187,-1.419 1.782,-1.8 3.497,-3.137 5.313,-4.553 0.893,-0.697 1.802,-1.405 2.726,-2.176 7.587,18.596 9.498,33.702 9.518,33.864 0.14,1.147 0.866,2.14 1.916,2.617 7.139,3.258 11.497,7.623 12.95,12.975 1.501,5.522 -0.548,10.915 -1.776,12.662 -4.422,6.297 0.781,14.607 7.502,24.029 2.228,3.123 3.119,5.766 2.577,7.642 -0.133,0.458 -0.349,0.853 -0.598,1.185 L 5.364,31.235 3.308,-0.216 C 3.269,-0.825 3.062,-1.41 2.713,-1.908 0.413,-5.177 -1.632,-9.678 -3.611,-14.035 -5.894,-19.057 -8.24,-24.221 -11.218,-28.12 M -0.49,-45.726 c -0.899,0 -1.771,0.367 -2.402,1.03 -1.86,1.954 -3.679,3.373 -5.604,4.873 -1.901,1.483 -3.868,3.016 -5.951,5.121 -1.393,1.41 -1.837,2.103 -2.234,2.8 -0.142,0.25 -0.266,0.466 -1.215,1.373 -0.646,0.618 -1.015,1.468 -1.026,2.36 -0.01,0.893 0.34,1.753 0.972,2.383 3.143,3.146 5.765,8.914 8.301,14.495 1.961,4.316 3.984,8.769 6.399,12.412 l 2.073,31.723 c 0.05,0.759 0.36,1.48 0.878,2.04 l 27.867,30.023 c 0.94,1.015 2.405,1.343 3.688,0.812 0.48,-0.196 4.724,-2.057 6.111,-6.859 1.14,-3.946 -0.055,-8.432 -3.55,-13.333 -4.726,-6.626 -9.309,-13.75 -7.473,-16.364 1.919,-2.734 4.964,-10.057 2.748,-18.213 -1.87,-6.885 -6.893,-12.422 -14.944,-16.477 -0.811,-5.149 -3.703,-20.44 -11.608,-38.23 -0.449,-1.01 -1.374,-1.731 -2.465,-1.921 -0.189,-0.032 -0.377,-0.048 -0.565,-0.048"
             style="fill:#000000;fill-opacity:1;fill-rule:nonzero;stroke:none"
             id="path328" />
        </g>
        <g
           id="g330"
           transform="translate(1027.2432,1052.8883)">
          <path
             d="m 0,0 c 0,0 -51.687,7.396 -102.564,8.875 0,0 -63.814,-166.457 -63.808,-177.689 0.006,-11.232 27.249,-25.603 63.808,-16.438 36.559,9.166 83.009,10.077 109.129,3.976 C 45.702,-190.418 0,0 0,0"
             style="fill:#ffffff;fill-opacity:1;fill-rule:nonzero;stroke:none"
             id="path332" />
        </g>
        <g
           id="g334"
           transform="translate(926.9323,1058.3768)">
          <path
             d="m 0,0 c -25.482,-66.531 -62.63,-166.287 -62.745,-174.305 10e-4,-2.079 1.763,-4.648 4.832,-7.043 9.627,-7.504 30.323,-12.327 54.854,-6.174 35.129,8.808 82.715,10.522 110.689,3.987 2.414,-0.57 4.179,-0.123 5.721,1.427 16.855,16.956 -5.175,128.975 -15.739,173.645 C 87.354,-7.077 43.429,-1.418 0,0 m -25.198,-197.004 c -16.866,0 -29.723,4.916 -36.793,10.427 -4.761,3.711 -7.384,8.07 -7.386,12.272 -0.006,11.515 57.474,161.784 64.028,178.88 0.505,1.315 1.802,2.232 3.192,2.126 50.481,-1.468 102.419,-8.832 102.938,-8.905 1.346,-0.195 2.437,-1.188 2.754,-2.511 3.893,-16.213 37.363,-159.087 14.52,-182.069 -3.164,-3.184 -7.292,-4.292 -11.934,-3.21 -27.078,6.33 -73.322,4.622 -107.567,-3.962 -8.559,-2.146 -16.525,-3.048 -23.752,-3.048"
             style="fill:#000000;fill-opacity:1;fill-rule:nonzero;stroke:none"
             id="path336" />
        </g>
        <g
           id="g338"
           transform="translate(1204.0018,1094.2546)">
          <path
             d="m 0,0 19.082,-34.047 c 0,0 -11.801,-81.188 -63.892,-109.148 -50.644,-27.184 -102.969,-12.297 -102.969,-12.297 l 4.705,-107.842 c 0,0 -26.413,-15.653 -26.413,-14.268 0,1.384 -11.549,240.565 -11.549,240.565 0,0 21.324,-0.343 30.831,-13.877 9.507,-13.534 38.339,-37.61 78.874,-29.323 C -19.578,-69.656 0,0 0,0"
             style="fill:#3e6eb4;fill-opacity:1;fill-rule:nonzero;stroke:none"
             id="path340" />
        </g>
        <g
           id="g342"
           transform="translate(1086.7076,996.8258)">
          <path
             d="m 0,0 -93.628,8.917 c -3.142,0 -6.116,-2.435 -6.643,-5.44 l -22.607,-128.923 c -0.527,-3.005 1.593,-5.44 4.735,-5.44 l 99.283,4.499 c 3.142,0 6.439,-2.064 6.965,0.941 L 10.713,3.477 C 11.24,6.482 3.142,0 0,0"
             style="fill:#000000;fill-opacity:1;fill-rule:nonzero;stroke:none"
             id="path344" />
        </g>
        <g
           id="g346"
           transform="translate(992.9536,1002.4246)">
          <path
             d="m 0,0 c -1.482,-0.069 -3.009,-1.324 -3.25,-2.694 l -22.607,-128.923 c -0.055,-0.314 -0.062,-0.754 0.216,-1.084 0.253,-0.302 0.698,-0.469 1.253,-0.469 l 99.132,4.495 c 1.469,-0.054 2.693,-0.246 3.687,-0.442 0.118,-0.024 0.249,-0.052 0.386,-0.078 l 21.502,122.614 c -2.853,-1.504 -4.905,-2.528 -6.88,-2.318 z m -24.251,-139.798 c -2.655,0 -4.959,1.032 -6.469,2.831 -1.477,1.759 -2.086,4.125 -1.67,6.494 L -9.783,-1.55 c 0.804,4.59 5.158,8.184 9.909,8.184 0.105,0 0.21,-0.004 0.314,-0.015 l 93.343,-8.888 c 0.856,0.166 3.067,1.351 4.276,1.999 3.44,1.842 5.92,3.18 8.195,1.533 1.208,-0.875 1.76,-2.353 1.48,-3.957 L 85.126,-131.617 c -0.337,-1.92 -1.342,-2.96 -2.126,-3.496 -1.908,-1.304 -4.108,-0.863 -5.874,-0.507 -0.78,0.155 -1.586,0.317 -2.231,0.317 l -99.133,-4.495 z"
             style="fill:#000000;fill-opacity:1;fill-rule:nonzero;stroke:none"
             id="path348" />
        </g>
        <g
           id="g350"
           transform="translate(1095.7854,1005.7428)">
          <path
             d="m 0,0 h -99.605 c -3.142,0 -6.116,-2.435 -6.643,-5.44 l -22.607,-128.923 c -0.527,-3.005 1.593,-5.44 4.735,-5.44 h 99.605 c 3.142,0 6.116,2.435 6.643,5.44 L 4.735,-5.44 C 5.262,-2.435 3.142,0 0,0"
             style="fill:#ffffff;fill-opacity:1;fill-rule:nonzero;stroke:none"
             id="path352" />
        </g>
        <g
           id="g354"
           transform="translate(996.1801,1002.4268)">
          <path
             d="M 0,0 C -1.52,0 -3.129,-1.285 -3.377,-2.697 L -25.983,-131.62 c -0.055,-0.313 -0.062,-0.753 0.215,-1.083 0.254,-0.303 0.699,-0.469 1.254,-0.469 h 99.605 c 1.52,0 3.129,1.285 3.377,2.696 l 22.607,128.924 c 0.054,0.313 0.061,0.753 -0.215,1.083 C 100.606,-0.166 100.16,0 99.605,0 Z m 75.091,-139.804 h -99.605 c -2.511,0 -4.819,1.034 -6.332,2.834 -1.477,1.76 -2.086,4.126 -1.67,6.494 L -9.909,-1.552 C -9.105,3.038 -4.752,6.632 0,6.632 h 99.605 c 2.511,0 4.82,-1.034 6.332,-2.835 1.477,-1.757 2.086,-4.125 1.67,-6.494 L 85,-131.62 c -0.805,-4.59 -5.157,-8.184 -9.909,-8.184"
             style="fill:#000000;fill-opacity:1;fill-rule:nonzero;stroke:none"
             id="path356" />
        </g>
        <g
           id="g358"
           transform="translate(974.0593,954.3921)">
          <path
             d="m 0,0 1.077,-13.181 40.029,7.275 c 0,0 0.922,-1.323 1.477,-3.46 0.743,-2.863 0.829,-7.188 -2.838,-11.755 -1.746,-2.174 -8.663,-2.238 -8.123,-6.555 0.471,-3.768 -15.176,-6.706 -28.713,-9.22 C -12.24,-39.709 -10.945,-18.117 -7.199,-7.064 -4.278,1.553 0,0 0,0"
             style="fill:#ffffff;fill-opacity:1;fill-rule:nonzero;stroke:none"
             id="path360" />
        </g>
        <g
           id="g362"
           transform="translate(973.2623,951.1851)">
          <path
             d="m 0,0 h 0.023 z m -2.089,-2.193 c -0.382,-0.689 -0.782,-1.581 -1.171,-2.729 -2.781,-8.202 -3.322,-19.795 0.304,-23.981 0.849,-0.982 2.395,-2.205 6.057,-1.527 8.072,1.501 22.792,4.236 25.965,6.514 0.006,4.583 4.453,6.297 6.913,7.247 0.708,0.274 1.779,0.687 2.067,0.926 2.172,2.723 2.917,5.698 2.125,8.75 -0.053,0.203 -0.11,0.395 -0.17,0.579 L 2.467,-13.236 c -0.917,-0.171 -1.87,0.06 -2.613,0.632 -0.742,0.57 -1.209,1.427 -1.285,2.36 z m 3.23,-35.063 c -4.569,0 -7.432,2.072 -9.111,4.011 -6.272,7.243 -4.377,22.178 -1.571,30.451 1.507,4.45 3.659,7.373 6.396,8.688 C -1.158,6.848 0.777,6.74 1.929,6.323 3.148,5.881 3.996,4.769 4.102,3.476 l 0.779,-9.534 36.43,6.621 c 1.278,0.238 2.571,-0.302 3.313,-1.366 0.129,-0.186 1.282,-1.887 1.965,-4.523 0.927,-3.567 1.08,-9.007 -3.461,-14.665 -1.198,-1.49 -3.009,-2.19 -4.761,-2.865 -0.846,-0.326 -2.422,-0.935 -2.733,-1.343 0.86,-6.133 -8.398,-8.491 -31.322,-12.75 -1.137,-0.212 -2.194,-0.307 -3.171,-0.307"
             style="fill:#000000;fill-opacity:1;fill-rule:nonzero;stroke:none"
             id="path364" />
        </g>
        <g
           id="g366"
           transform="translate(969.0571,918.0088)">
          <path
             d="m 0,0 -8.026,12.204 c 0,0 -39.813,-8.073 -58.188,0 -32.097,14.102 -26.026,63.374 -20.565,87.898 5.46,24.524 17.527,45.949 17.527,45.949 0,0 -29.487,-16.66 -49.484,-53.29 C -138.735,56.13 -145.241,-25.845 -78.364,-40.657 -34.61,-50.348 0,0 0,0"
             style="fill:#3e6eb4;fill-opacity:1;fill-rule:nonzero;stroke:none"
             id="path368" />
        </g>
        <g
           id="g370"
           transform="translate(856.4906,891.6059)">
          <path
             d="m 0,0 c -0.752,0 -1.51,0.255 -2.132,0.777 -22.144,18.621 -20.736,57.187 -20.665,58.822 0.079,1.826 1.6,3.234 3.454,3.167 1.83,-0.078 3.249,-1.624 3.172,-3.454 C -16.187,58.945 -17.494,22.36 2.136,5.855 3.539,4.676 3.719,2.584 2.54,1.181 1.885,0.402 0.945,0 0,0"
             style="fill:#ffffff;fill-opacity:1;fill-rule:nonzero;stroke:none"
             id="path372" />
        </g>
        <g
           id="g374"
           transform="translate(979.9148,1123.2723)">
          <path
             d="m 0,0 c 0.992,-0.59 2.258,-0.173 2.696,0.902 2.077,5.099 5.404,14.972 12.208,16.542 8.721,2.012 22.84,4.613 24.053,-2.283 1.064,-6.044 -0.189,-16.475 6.173,-24.032 0.61,-0.725 0.084,-1.884 -0.669,-2.455 l -4.005,-3.377 c -0.845,-0.64 -1.567,-2.795 -1.671,-3.856 -0.319,-3.28 -0.731,-10.257 -1.865,-11.157 -2.21,-1.755 -13.24,-1.074 -13.24,-1.074 l -8.846,-30.416 c -0.336,-1.154 0.346,-2.359 1.502,-2.652 l 10.527,-3.579 c 0,0 -8.452,-11.846 -34.857,-10.059 -16.878,1.142 -29.23,13.036 -29.23,13.036 0,0 32.814,4.661 37.244,43.449 0.098,0.853 -0.271,1.696 -0.953,2.209 -2.618,1.967 -9.666,7.762 -8.433,13.637 C -8.057,1.072 -3.396,2.021 0,0"
             style="fill:#ffffff;fill-opacity:1;fill-rule:nonzero;stroke:none"
             id="path376" />
        </g>
        <g
           id="g378"
           transform="translate(1022.507,1112.2651)">
          <path
             d="M 0,0 C 0.001,0 0.002,-0.002 0.003,-0.002 0.002,-0.002 0.001,0 0,0 M 0.033,-6.205 0.002,-6.231 c 0.009,0.005 0.019,0.016 0.031,0.026 m -45.549,-4.242 c 10e-4,-0.002 0.002,-0.002 0.003,-0.002 -0.001,0 -0.002,0 -0.003,0.002 m 37.184,-6.364 z m -64.301,-38.068 c 4.826,-3.308 12.84,-7.662 22.27,-8.301 14.923,-0.993 23.639,2.595 28.1,5.47 l -4.967,1.689 c -1.348,0.386 -2.512,1.297 -3.211,2.519 -0.729,1.276 -0.912,2.817 -0.502,4.229 l 8.846,30.417 c 0.434,1.488 1.838,2.483 3.389,2.384 4.214,-0.262 8.751,-0.115 10.57,0.298 0.396,1.69 0.72,5.418 0.87,7.148 l 0.162,1.796 c 0.106,1.099 0.88,4.598 2.969,6.179 l 2.995,2.53 c -4.404,6.226 -4.907,13.666 -5.282,19.208 -0.124,1.832 -0.241,3.566 -0.477,4.907 -0.054,0.309 -0.162,0.537 -0.552,0.797 -1.39,0.921 -5.772,1.994 -19.489,-1.171 -4.518,-1.042 -7.512,-8.594 -9.301,-13.106 l -0.583,-1.458 c -0.571,-1.403 -1.718,-2.484 -3.148,-2.964 -1.439,-0.483 -3.005,-0.311 -4.312,0.462 -10e-4,0.002 -0.002,0.002 -0.003,0.002 -0.844,0.506 -1.758,0.629 -2.448,0.324 -0.909,-0.399 -1.611,-1.578 -1.977,-3.32 -0.548,-2.612 2.204,-6.561 7.182,-10.305 1.618,-1.213 2.484,-3.218 2.255,-5.233 -3.394,-29.715 -22.854,-40.699 -33.356,-44.501 m 27.325,-15.108 c -1.75,0 -3.582,0.06 -5.502,0.192 -17.879,1.209 -30.767,13.435 -31.306,13.955 -0.913,0.879 -1.245,2.202 -0.855,3.409 0.39,1.205 1.433,2.083 2.689,2.262 1.222,0.18 30.067,4.841 34.356,40.033 -4.296,3.314 -10.758,9.611 -9.277,16.66 0.817,3.895 2.877,6.747 5.803,8.029 2.2,0.965 4.681,0.969 7.007,0.043 2.27,5.726 6.067,15.264 13.959,17.088 12.823,2.956 20.423,3.029 24.643,0.235 1.86,-1.23 3.043,-3.02 3.422,-5.177 0.298,-1.69 0.426,-3.592 0.562,-5.608 C 0.574,15.494 1.006,9.104 5.074,4.27 5.871,3.327 6.232,2.109 6.091,0.846 5.928,-0.609 5.098,-2.031 3.869,-2.962 L 0.075,-6.168 c -0.235,-0.384 -0.544,-1.321 -0.58,-1.703 l -0.156,-1.73 c -0.666,-7.67 -1.16,-10.284 -2.95,-11.705 -2.246,-1.783 -7.789,-2.062 -12.847,-1.913 l -7.797,-26.809 9.593,-3.262 c 0.993,-0.337 1.767,-1.125 2.088,-2.122 0.322,-0.998 0.153,-2.09 -0.456,-2.943 -0.363,-0.507 -8.593,-11.63 -32.278,-11.632"
             style="fill:#000000;fill-opacity:1;fill-rule:nonzero;stroke:none"
             id="path380" />
        </g>
      </g>
    </g>
  </g>
</svg>
