<?xml version="1.0" encoding="UTF-8" standalone="no"?>
<!-- Created with Inkscape (http://www.inkscape.org/) -->

<svg
   version="1.1"
   id="svg2"
   width="3333.3333"
   height="3333.3333"
   viewBox="0 0 3333.3333 3333.3333"
   sodipodi:docname="opal2.ai"
   xmlns:inkscape="http://www.inkscape.org/namespaces/inkscape"
   xmlns:sodipodi="http://sodipodi.sourceforge.net/DTD/sodipodi-0.dtd"
   xmlns="http://www.w3.org/2000/svg"
   xmlns:svg="http://www.w3.org/2000/svg">
  <defs
     id="defs6">
    <clipPath
       clipPathUnits="userSpaceOnUse"
       id="clipPath16">
      <path
         d="M 0,2500 H 2500 V 0 H 0 Z"
         id="path14" />
    </clipPath>
  </defs>
  <sodipodi:namedview
     id="namedview4"
     pagecolor="#ffffff"
     bordercolor="#000000"
     borderopacity="0.25"
     inkscape:showpageshadow="2"
     inkscape:pageopacity="0.0"
     inkscape:pagecheckerboard="0"
     inkscape:deskcolor="#d1d1d1" />
  <g
     id="g8"
     inkscape:groupmode="layer"
     inkscape:label="opal2"
     transform="matrix(1.3333333,0,0,-1.3333333,0,3333.3333)">
    <g
       id="g10">
      <g
         id="g12"
         clip-path="url(#clipPath16)">
        <g
           id="g18"
           transform="translate(1436.7374,1433.3702)">
          <path
             d="m 0,0 c -0.577,0 -1.153,0.222 -1.588,0.666 -0.864,0.877 -0.851,2.288 0.026,3.15 l 7.253,7.132 c 0.875,0.863 2.289,0.85 3.15,-0.026 C 9.705,10.045 9.692,8.633 8.815,7.771 L 1.562,0.64 C 1.129,0.213 0.563,0 0,0"
             style="fill:#000000;fill-opacity:1;fill-rule:nonzero;stroke:none"
             id="path20" />
        </g>
        <g
           id="g22"
           transform="translate(1402.0022,1399.2203)">
          <path
             d="m 0,0 c -0.577,0 -1.153,0.222 -1.588,0.666 -0.864,0.876 -0.851,2.288 0.026,3.15 l 7.251,7.129 c 0.875,0.864 2.289,0.853 3.15,-0.026 C 9.703,10.042 9.69,8.63 8.813,7.769 L 1.562,0.64 C 1.129,0.213 0.563,0 0,0"
             style="fill:#000000;fill-opacity:1;fill-rule:nonzero;stroke:none"
             id="path24" />
        </g>
        <g
           id="g26"
           transform="translate(1409.4991,1433.7184)">
          <path
             d="m 0,0 c -0.579,0 -1.16,0.224 -1.597,0.672 l -7.125,7.315 c -0.857,0.883 -0.84,2.293 0.042,3.152 0.885,0.851 2.29,0.842 3.152,-0.041 L 1.597,3.783 C 2.454,2.9 2.437,1.49 1.556,0.631 1.12,0.211 0.561,0 0,0"
             style="fill:#000000;fill-opacity:1;fill-rule:nonzero;stroke:none"
             id="path28" />
        </g>
        <g
           id="g30"
           transform="translate(1443.6165,1398.6895)">
          <path
             d="M 0,0 C -0.581,0 -1.159,0.224 -1.597,0.674 L -8.72,7.989 c -0.857,0.881 -0.839,2.291 0.044,3.15 0.879,0.857 2.289,0.844 3.15,-0.044 L 1.597,3.781 C 2.454,2.9 2.437,1.49 1.553,0.631 1.12,0.211 0.561,0 0,0"
             style="fill:#000000;fill-opacity:1;fill-rule:nonzero;stroke:none"
             id="path32" />
        </g>
        <g
           id="g34"
           transform="translate(1636.4375,528.2996)">
          <path
             d="m 0,0 c -1.225,0 -2.221,0.988 -2.228,2.215 -0.006,1.229 0.984,2.234 2.215,2.241 l 10.171,0.06 h 0.013 c 1.225,0 2.221,-0.987 2.228,-2.214 C 12.405,1.073 11.415,0.067 10.184,0.061 L 0.013,0 Z"
             style="fill:#000000;fill-opacity:1;fill-rule:nonzero;stroke:none"
             id="path36" />
        </g>
        <g
           id="g38"
           transform="translate(1587.7264,528.0059)">
          <path
             d="m 0,0 c -1.225,0 -2.221,0.988 -2.228,2.215 -0.006,1.229 0.984,2.234 2.215,2.241 l 10.171,0.06 h 0.013 c 1.225,0 2.221,-0.987 2.228,-2.214 C 12.405,1.073 11.415,0.067 10.184,0.061 L 0.013,0 Z"
             style="fill:#000000;fill-opacity:1;fill-rule:nonzero;stroke:none"
             id="path40" />
        </g>
        <g
           id="g42"
           transform="translate(1617.1423,547.5295)">
          <path
             d="m 0,0 c -1.229,0 -2.228,0.996 -2.23,2.226 l -0.013,10.207 c -0.002,1.23 0.994,2.228 2.226,2.23 1.229,0 2.227,-0.996 2.23,-2.225 L 2.226,2.23 C 2.228,1.001 1.231,0.002 0,0"
             style="fill:#000000;fill-opacity:1;fill-rule:nonzero;stroke:none"
             id="path44" />
        </g>
        <g
           id="g46"
           transform="translate(1617.2076,498.6291)">
          <path
             d="m 0,0 c -1.229,0 -2.228,0.997 -2.23,2.226 l -0.013,10.21 c -0.002,1.229 0.994,2.227 2.226,2.23 1.229,0 2.227,-0.997 2.23,-2.226 L 2.226,2.23 C 2.228,1.001 1.231,0.002 0,0"
             style="fill:#000000;fill-opacity:1;fill-rule:nonzero;stroke:none"
             id="path48" />
        </g>
        <g
           id="g50"
           transform="translate(1776.2404,1453.7933)">
          <path
             d="m 0,0 c 0,0 22.844,3.113 29.983,54.472 7.139,51.359 8.566,96.493 55.682,110.5 47.116,14.008 105.243,-8.55 103.815,-58.353 -1.427,-49.803 5.955,-92.387 35.767,-114.452 38.549,-28.534 53.642,-12.399 125.029,-81.916 89.871,-87.515 63.773,-353.809 -196.078,-280.661 z"
             style="fill:#000000;fill-opacity:1;fill-rule:nonzero;stroke:none"
             id="path52" />
        </g>
        <g
           id="g54"
           transform="translate(1840.3857,1497.8013)">
          <path
             d="M 0,0 C 0,0 7.75,-8.53 23.942,-5.537 Z"
             style="fill:#ffffff;fill-opacity:1;fill-rule:nonzero;stroke:none"
             id="path56" />
        </g>
        <g
           id="g58"
           transform="translate(1857.6083,1489.3956)">
          <path
             d="m 0,0 c -12.427,0 -18.573,6.581 -18.871,6.907 -0.827,0.912 -0.759,2.322 0.15,3.148 0.912,0.825 2.313,0.764 3.14,-0.143 C -15.272,9.583 -8.319,2.36 6.316,5.058 7.517,5.287 8.687,4.482 8.911,3.272 9.135,2.063 8.335,0.901 7.125,0.677 4.556,0.202 2.18,0 0,0"
             style="fill:#000000;fill-opacity:1;fill-rule:nonzero;stroke:none"
             id="path60" />
        </g>
        <g
           id="g62"
           transform="translate(1846.3022,486.8415)">
          <path
             d="m 0,0 c 0,0 -13.5,-41.37 -26.999,-53.999 -13.5,-12.628 -67.184,-37.457 -67.934,-64.449 -0.871,-31.354 17.342,-37.152 66.115,-25.83 35.233,8.179 64.314,29.726 74.704,42.021 9.182,10.865 4.054,20.102 1.812,32.834 -2.75,15.618 -3.28,31.547 -3.28,47.405 V 3.919 Z"
             style="fill:#ffffff;fill-opacity:1;fill-rule:nonzero;stroke:none"
             id="path64" />
        </g>
        <g
           id="g66"
           transform="translate(1847.9532,484.7512)">
          <path
             d="m 0,0 c -2.537,-7.497 -14.633,-41.847 -27.127,-53.536 -3.868,-3.616 -10.739,-8.087 -18.697,-13.263 -20.266,-13.186 -48.022,-31.243 -48.533,-49.62 -0.326,-11.718 2.043,-19.235 7.452,-23.655 8.517,-6.964 25.774,-6.947 55.931,0.056 34.999,8.124 63.662,29.638 73.509,41.291 6.607,7.819 5.056,14.426 2.91,23.572 -0.554,2.365 -1.129,4.81 -1.592,7.438 -2.92,16.571 -3.313,33.458 -3.313,47.789 V 3.577 Z m -67.16,-149.751 c -10.247,0 -17.483,2.071 -22.565,6.226 -6.566,5.365 -9.453,14.018 -9.088,27.228 0.577,20.715 29.467,39.51 50.561,53.232 7.78,5.062 14.5,9.433 18.079,12.783 12.927,12.092 26.27,52.656 26.405,53.065 0.276,0.848 1.031,1.449 1.921,1.527 l 44.419,3.918 c 0.624,0.059 1.24,-0.154 1.701,-0.576 0.459,-0.423 0.722,-1.019 0.722,-1.643 v -25.937 c 0,-14.139 0.385,-30.782 3.246,-47.017 0.442,-2.506 1.001,-4.888 1.543,-7.192 2.162,-9.224 4.207,-17.935 -3.847,-27.467 -10.214,-12.089 -39.854,-34.387 -75.901,-42.752 -15.473,-3.594 -27.643,-5.395 -37.196,-5.395"
             style="fill:#000000;fill-opacity:1;fill-rule:nonzero;stroke:none"
             id="path68" />
        </g>
        <g
           id="g70"
           transform="translate(1753.2831,353.1747)">
          <path
             d="m 0,0 c -1.157,0 -2.134,0.894 -2.219,2.067 -0.089,1.227 0.833,2.293 2.06,2.382 l 17.34,1.255 c 43.835,3.174 84.829,22.048 115.431,53.141 4.097,4.162 6.394,6.827 6.418,6.853 0.803,0.933 2.206,1.04 3.142,0.235 0.931,-0.803 1.037,-2.208 0.234,-3.142 C 142.311,62.68 140,60 135.788,55.721 104.425,23.853 62.417,4.512 17.503,1.262 L 0.163,0.007 C 0.109,0.002 0.054,0 0,0"
             style="fill:#000000;fill-opacity:1;fill-rule:nonzero;stroke:none"
             id="path72" />
        </g>
        <g
           id="g74"
           transform="translate(1857.95,419.7081)">
          <path
             d="m 0,0 c -0.122,0 -0.244,0.009 -0.368,0.03 -0.99,0.166 -24.318,4.177 -33.697,16.406 -0.749,0.977 -0.564,2.374 0.413,3.125 0.979,0.746 2.376,0.561 3.124,-0.414 C -22.208,8.298 0.139,4.462 0.363,4.425 1.577,4.223 2.397,3.074 2.195,1.862 2.015,0.772 1.07,0 0,0"
             style="fill:#000000;fill-opacity:1;fill-rule:nonzero;stroke:none"
             id="path76" />
        </g>
        <g
           id="g78"
           transform="translate(1837.3298,405.7017)">
          <path
             d="m 0,0 c -0.152,0 -0.307,0.015 -0.461,0.048 -0.944,0.198 -23.22,5.01 -30.382,17.128 -0.624,1.06 -0.274,2.426 0.785,3.053 1.064,0.62 2.424,0.272 3.053,-0.786 C -20.844,9.016 0.246,4.453 0.457,4.408 1.66,4.153 2.43,2.972 2.178,1.769 1.956,0.72 1.031,0 0,0"
             style="fill:#000000;fill-opacity:1;fill-rule:nonzero;stroke:none"
             id="path80" />
        </g>
        <g
           id="g82"
           transform="translate(1815.1499,392.4721)">
          <path
             d="m 0,0 c -0.259,0 -0.52,0.043 -0.777,0.139 -0.774,0.29 -19.069,7.197 -24.838,19.287 -0.531,1.109 -0.059,2.441 1.051,2.969 1.107,0.535 2.438,0.059 2.969,-1.051 C -16.604,10.891 0.603,4.379 0.777,4.316 1.93,3.886 2.517,2.604 2.086,1.451 1.754,0.555 0.903,0 0,0"
             style="fill:#000000;fill-opacity:1;fill-rule:nonzero;stroke:none"
             id="path84" />
        </g>
        <g
           id="g86"
           transform="translate(1950.3801,588.5969)">
          <path
             d="m 0,0 c 1.644,0 25.115,2.328 38.683,3.688 5.27,0.528 9.97,-3.294 10.541,-8.56 l 2.666,-24.586 c 0.943,-8.691 2.687,-17.273 5.139,-25.664 4.452,-15.234 11.013,-41.48 7.421,-53.456 -3.844,-12.812 -15.856,-30.652 -23.788,-40.808 -3.66,-4.685 -9.84,-6.546 -15.476,-4.654 -10.082,3.382 -26.184,9.881 -35.637,19.334 -14.516,14.516 1.161,42.386 1.161,42.386 z"
             style="fill:#ffffff;fill-opacity:1;fill-rule:nonzero;stroke:none"
             id="path88" />
        </g>
        <g
           id="g90"
           transform="translate(1941.0894,496.2773)">
          <path
             d="M 0,0 H 0.022 Z M 11.317,90.228 2.217,-0.224 C 2.187,-0.529 2.093,-0.825 1.943,-1.092 1.795,-1.355 -12.729,-27.667 0.416,-40.812 c 9.337,-9.337 25.791,-15.786 34.77,-18.797 4.716,-1.583 9.948,-0.008 13.012,3.914 9.202,11.781 20.008,28.742 23.409,40.077 3.448,11.497 -3.172,37.635 -7.425,52.192 -2.522,8.632 -4.278,17.396 -5.215,26.048 L 56.3,87.208 C 55.865,91.243 52.203,94.2 48.196,93.791 28.361,91.803 16.004,90.611 11.317,90.228 M 38.908,-64.673 c -1.719,0 -3.453,0.274 -5.141,0.84 -11.417,3.831 -27.02,10.39 -36.502,19.871 -14.702,14.701 -1.466,40.864 0.564,44.634 l 9.244,91.872 c 0.113,1.132 1.077,1.995 2.215,2.004 1.211,0.011 15.59,1.384 38.464,3.677 6.424,0.646 12.279,-4.081 12.977,-10.539 L 63.396,63.1 c 0.91,-8.389 2.613,-16.895 5.063,-25.278 5.365,-18.357 11.006,-42.754 7.416,-54.72 -3.811,-12.703 -15.401,-30.316 -24.166,-41.538 -3.128,-4.007 -7.895,-6.235 -12.801,-6.237"
             style="fill:#000000;fill-opacity:1;fill-rule:nonzero;stroke:none"
             id="path92" />
        </g>
        <g
           id="g94"
           transform="translate(1969.2261,435.6616)">
          <path
             d="m 0,0 c -0.446,0 -0.896,0.133 -1.288,0.411 -1.003,0.714 -1.238,2.104 -0.526,3.107 27.675,38.932 25.83,48.957 21.792,70.919 -0.883,4.81 -1.886,10.265 -2.713,16.667 -2.158,16.739 -8.639,62.798 -8.704,63.262 -0.172,1.218 0.677,2.345 1.895,2.517 1.238,0.178 2.345,-0.679 2.517,-1.895 0.065,-0.464 6.548,-46.549 8.713,-63.314 0.809,-6.285 1.802,-11.676 2.676,-16.43 C 28.504,52.714 30.582,41.403 1.819,0.938 1.384,0.326 0.696,0 0,0"
             style="fill:#000000;fill-opacity:1;fill-rule:nonzero;stroke:none"
             id="path96" />
        </g>
        <g
           id="g98"
           transform="translate(1973.1204,506.087)">
          <path
             d="m 0,0 c -0.107,0 -0.215,0.007 -0.326,0.024 l -26.457,3.89 c -1.217,0.178 -2.059,1.31 -1.88,2.528 0.178,1.218 1.279,2.084 2.528,1.88 L 0.322,4.432 C 1.538,4.253 2.38,3.122 2.202,1.904 2.039,0.796 1.088,0 0,0"
             style="fill:#000000;fill-opacity:1;fill-rule:nonzero;stroke:none"
             id="path100" />
        </g>
        <g
           id="g102"
           transform="translate(1970.3965,487.0203)">
          <path
             d="m 0,0 c -0.107,0 -0.215,0.007 -0.326,0.024 l -26.457,3.892 c -1.219,0.178 -2.058,1.312 -1.88,2.528 0.178,1.216 1.283,2.086 2.528,1.88 L 0.322,4.432 C 1.54,4.253 2.38,3.12 2.202,1.904 2.039,0.796 1.088,0 0,0"
             style="fill:#000000;fill-opacity:1;fill-rule:nonzero;stroke:none"
             id="path104" />
        </g>
        <g
           id="g106"
           transform="translate(1941.6311,478.4518)">
          <path
             d="m 0,0 c -15.425,-10.642 -48.073,-24.34 -102.942,-7.879 l 25.177,556.4 103.352,19.741 c 0,0 13.493,-138.331 -1.161,-277.541 C 11.05,163.65 10.502,55.34 10.728,20.934 10.783,12.619 6.844,4.722 0,0"
             style="fill:#000000;fill-opacity:1;fill-rule:nonzero;stroke:none"
             id="path108" />
        </g>
        <g
           id="g110"
           transform="translate(1962.5732,1062.9716)">
          <path
             d="m 0,0 -247.348,-13.935 8.416,-270.479 c 0.983,-31.578 10.735,-62.246 28.18,-88.587 27.971,-42.235 72.644,-104.37 107.981,-128.663 C -47.031,-539.986 0,0 0,0"
             style="fill:#000000;fill-opacity:1;fill-rule:nonzero;stroke:none"
             id="path112" />
        </g>
        <g
           id="g114"
           transform="translate(1839.6642,570.4796)">
          <path
             d="m 0,0 c -0.035,0 -0.07,0 -0.107,0.002 -1.229,0.057 -2.177,1.101 -2.121,2.33 l 8.172,175.284 c 0.058,1.229 1.059,2.18 2.33,2.121 1.229,-0.057 2.178,-1.101 2.121,-2.33 L 2.224,2.123 C 2.167,0.931 1.181,0 0,0"
             style="fill:#ffffff;fill-opacity:1;fill-rule:nonzero;stroke:none"
             id="path116" />
        </g>
        <g
           id="g118"
           transform="translate(1556.6302,1506.0504)">
          <path
             d="m 0,0 c 1.629,0.317 2.797,1.742 2.761,3.402 -0.185,8.624 -1.978,34.482 -16.487,46.353 -17.559,14.366 -32.457,47.355 -43.099,44.162 -10.641,-3.192 12.77,-31.924 10.11,-35.116 -2.66,-3.193 -8.272,7.734 -14.125,18.376 -5.853,10.641 -0.641,13.028 -9.141,12.32 -11.657,-0.972 -19.404,-2.773 -3.974,-37.358 14.683,-32.911 43.943,-31.877 47.771,-53.745 0.325,-1.859 2.134,-3.07 3.987,-2.71 z"
             style="fill:#ffffff;fill-opacity:1;fill-rule:nonzero;stroke:none"
             id="path120" />
        </g>
        <g
           id="g122"
           transform="translate(1556.631,1506.0496)">
          <path
             d="m 0,0 h 0.022 z m -67.686,87.384 c -0.483,0 -1.162,-0.028 -2.111,-0.106 -4.608,-0.386 -8.247,-0.871 -9.685,-3.301 -2.391,-4.046 0.08,-14.163 7.56,-30.93 7.401,-16.591 18.566,-24.208 28.419,-30.928 9.401,-6.413 17.52,-11.952 19.513,-23.339 0.07,-0.396 0.322,-0.623 0.468,-0.723 0.265,-0.182 0.585,-0.254 0.9,-0.187 l 22.198,4.317 c 0.565,0.11 0.97,0.602 0.957,1.17 -0.163,7.604 -1.775,33.306 -15.671,44.673 -7.625,6.24 -14.767,15.899 -21.068,24.421 -7.536,10.188 -15.327,20.738 -19.98,19.332 -0.688,-0.207 -0.894,-0.511 -1.016,-0.811 -1.354,-3.331 4.046,-13.034 7.619,-19.454 4.662,-8.376 6.476,-11.866 4.579,-14.144 -0.822,-0.985 -1.938,-1.479 -3.15,-1.346 -3.686,0.359 -7.097,6.294 -13.299,17.635 l -1.338,2.443 c -2.491,4.523 -3.111,7.658 -3.525,9.731 -0.104,0.531 -0.233,1.175 -0.341,1.469 -0.157,0.039 -0.457,0.078 -1.029,0.078 m 44.823,-93.993 c -1.131,0 -2.234,0.341 -3.185,0.996 -1.245,0.855 -2.071,2.143 -2.332,3.622 -1.669,9.536 -8.714,14.344 -17.636,20.429 -9.827,6.705 -22.06,15.051 -29.975,32.795 -8.449,18.938 -10.64,29.409 -7.325,35.011 2.722,4.606 8.505,5.087 13.149,5.472 5.707,0.485 7.328,-0.507 8.222,-5.013 0.381,-1.91 0.898,-4.529 3.057,-8.45 l 1.342,-2.452 c 2.182,-3.987 5.128,-9.37 7.384,-12.603 -0.962,1.923 -2.243,4.227 -3.314,6.153 -5.861,10.534 -9.857,18.37 -7.856,23.298 0.679,1.671 2.017,2.848 3.866,3.403 7.654,2.297 15.238,-7.965 24.843,-20.953 6.146,-8.311 13.112,-17.731 20.307,-23.621 C 2.635,39.247 4.767,13.817 4.989,3.451 5.045,0.709 3.126,-1.66 0.426,-2.186 H 0.424 l -22.197,-4.317 c -0.363,-0.072 -0.727,-0.106 -1.09,-0.106"
             style="fill:#000000;fill-opacity:1;fill-rule:nonzero;stroke:none"
             id="path124" />
        </g>
        <g
           id="g126"
           transform="translate(2079.5457,993.9613)">
          <path
             d="m 0,0 c 1.557,0.26 3.092,-0.575 3.713,-2.026 2.858,-6.671 10.926,-23.222 23.462,-29.402 8.908,-4.391 16.919,-7.183 27.765,-17.469 10.847,-10.286 29.466,-36.937 25.403,-43.502 -4.825,-7.796 -20.291,0.149 -32.175,7.399 -11.884,7.25 -23.693,24.645 -35.259,26.401 -11.565,1.757 12.899,-26.077 9.405,-30.468 -3.494,-4.391 -15.96,2.127 -23.96,15.296 -3.156,5.196 -22.025,51.019 -27.713,64.891 -0.835,2.036 0.442,4.307 2.612,4.669 z"
             style="fill:#ffffff;fill-opacity:1;fill-rule:nonzero;stroke:none"
             id="path128" />
        </g>
        <g
           id="g130"
           transform="translate(2079.5449,993.9613)">
          <path
             d="m 0,0 h 0.022 z m 11.972,-56.295 c 0.39,0 0.812,-0.031 1.273,-0.102 7.647,-1.16 15.092,-8.252 22.291,-15.112 4.551,-4.338 9.257,-8.822 13.793,-11.589 16.447,-10.034 26.248,-12.78 29.12,-8.128 2.661,4.297 -12.316,28.646 -25.041,40.711 -8.85,8.394 -15.703,11.627 -22.959,15.049 -1.407,0.663 -2.821,1.331 -4.259,2.038 C 13.095,-26.971 4.677,-9.929 1.667,-2.902 1.447,-2.395 0.905,-2.11 0.368,-2.197 0.361,-2.197 0.355,-2.2 0.346,-2.202 l -26.747,-4.209 c -0.48,-0.081 -0.731,-0.409 -0.837,-0.599 -0.102,-0.185 -0.248,-0.565 -0.059,-1.027 11.726,-28.595 25.126,-60.578 27.556,-64.577 5.698,-9.381 13.874,-15.286 18.488,-15.577 0.779,-0.059 1.351,0.076 1.695,0.374 0.072,1.871 -3.723,8.285 -6.011,12.157 -5.391,9.118 -8.337,14.431 -6.177,17.631 0.561,0.831 1.649,1.734 3.718,1.734 m 61.832,-41.593 c -7.516,-0.002 -17.781,5.487 -26.794,10.987 -4.943,3.015 -9.827,7.667 -14.548,12.166 -6.699,6.383 -13.628,12.983 -19.887,13.934 -0.25,0.037 -0.442,0.05 -0.583,0.052 0.106,-2.212 3.931,-8.682 6.274,-12.644 5.274,-8.918 8.143,-14.109 5.792,-17.061 -0.877,-1.105 -2.609,-2.371 -5.592,-2.184 -6.783,0.428 -16.04,7.875 -22.014,17.709 -3.139,5.167 -20.538,47.319 -27.871,65.202 -0.655,1.601 -0.549,3.381 0.289,4.886 0.842,1.512 2.306,2.541 4.016,2.828 L -0.354,2.2 c 2.591,0.437 5.088,-0.951 6.115,-3.347 2.817,-6.572 10.639,-22.484 22.4,-28.284 1.414,-0.696 2.806,-1.353 4.19,-2.006 7.253,-3.422 14.754,-6.96 24.125,-15.845 8.534,-8.093 31.265,-37.4 25.763,-46.289 -1.904,-3.075 -4.858,-4.317 -8.435,-4.317"
             style="fill:#000000;fill-opacity:1;fill-rule:nonzero;stroke:none"
             id="path132" />
        </g>
        <g
           id="g134"
           transform="translate(1835.3076,1457.4343)">
          <path
             d="m 0,0 c -22.048,4.98 -38.354,9.777 -60.924,8.553 -25.814,-1.401 -39.033,1.149 -60.408,-9.538 -40.064,-20.032 -55.969,-74.758 -79.485,-65.178 -23.515,9.581 -71.536,135.124 -71.536,135.124 L -314.48,51.276 c 0,0 53.5,-232.269 96.177,-246.204 42.676,-13.935 94.588,52.46 94.588,52.46 0,0 1.891,-168.384 -25.98,-279.865 0,0 43.981,0.234 72.579,-11.613 152.463,-63.158 216.828,11.61 216.828,11.61 -0.963,43.283 -10.466,72.96 -41.657,121.241 -17.052,26.395 -21.941,69.038 11.792,107.53 0,0 82.167,-253.824 97.48,-283.724 1.051,-2.051 51.642,9.188 51.749,10.376 8.19,91.018 -54.243,260.82 -63.321,301.991 -2.754,12.485 -6.415,24.75 -11.348,36.545 -15.391,36.802 -49.81,97.132 -114.043,112.485 z"
             style="fill:#caddff;fill-opacity:1;fill-rule:nonzero;stroke:none"
             id="path136" />
        </g>
        <g
           id="g138"
           transform="translate(1945.1534,1266.097)">
          <path
             d="m 0,0 c 0.15,0 0.3,-0.015 0.45,-0.046 0.786,-0.161 1.423,-0.733 1.669,-1.496 0.814,-2.511 80.668,-248.986 96.874,-282.446 6.418,0.095 41.36,7.584 48.126,9.879 5.689,69.296 -28.938,183.638 -49.677,252.123 C 90.987,-0.674 85.889,16.16 83.733,25.935 80.807,39.202 77.135,51.03 72.505,62.102 57.877,97.076 23.809,158.027 -40,173.278 l -70.339,15.886 c -2.952,0.668 -5.8,1.331 -8.576,1.977 -18.159,4.23 -32.503,7.582 -51.735,6.523 -5.685,-0.307 -10.86,-0.427 -15.427,-0.533 -16.773,-0.39 -27.856,-0.646 -44.105,-8.772 -18.334,-9.166 -31.402,-25.668 -42.931,-40.226 -13.064,-16.496 -24.351,-30.757 -38.39,-25.022 -22.682,9.24 -65.265,117.02 -71.948,134.246 l -38.277,-16.069 c 5.145,-21.814 55.222,-230.01 94.27,-242.761 40.685,-13.286 91.632,51.063 92.142,51.716 0.583,0.746 1.577,1.035 2.469,0.737 0.896,-0.302 1.503,-1.14 1.514,-2.084 0.02,-1.673 1.549,-167.186 -25.369,-277.686 10.305,-0.163 45.782,-1.483 70.593,-11.761 77.959,-32.294 132.085,-27.556 163.768,-17.903 30.715,9.364 46.84,25.035 49.958,28.305 -1.097,43.52 -11.202,72.622 -41.28,119.182 -16.56,25.632 -23.357,69.875 11.988,110.208 C -1.249,-0.272 -0.635,0 0,0 m 98.717,-288.424 c -2.474,0 -2.798,0.639 -3.218,1.457 -14.374,28.07 -85.687,247.272 -96.384,280.249 -30.809,-37.631 -24.343,-78.138 -9.036,-101.83 30.804,-47.682 41.012,-77.424 42.015,-122.4 0.011,-0.55 -0.181,-1.085 -0.54,-1.503 -0.674,-0.783 -16.917,-19.304 -52.274,-30.167 -32.416,-9.955 -87.73,-14.928 -167.095,17.951 -27.845,11.535 -71.224,11.426 -71.716,11.443 h -0.01 c -0.684,0 -1.33,0.314 -1.752,0.853 -0.426,0.54 -0.576,1.249 -0.409,1.915 24.495,97.981 25.926,241.847 25.935,273.158 -11.589,-13.525 -46.318,-50.456 -79.935,-50.46 -4.418,0 -8.815,0.637 -13.14,2.051 -43.375,14.161 -95.458,238.287 -97.655,247.82 -0.244,1.057 0.309,2.134 1.31,2.554 l 42.127,17.685 c 0.551,0.233 1.18,0.233 1.739,-0.004 0.554,-0.237 0.987,-0.69 1.203,-1.253 13.262,-34.668 51.741,-126.299 70.295,-133.859 10.958,-4.464 20.774,7.952 33.216,23.664 11.818,14.922 25.213,31.835 44.432,41.445 17.144,8.571 29.244,8.852 45.996,9.241 4.756,0.109 9.673,0.224 15.29,0.527 19.861,1.085 35.216,-2.493 52.986,-6.633 2.765,-0.644 5.604,-1.306 8.548,-1.969 l 70.364,-15.893 C 26.759,161.902 61.662,99.576 76.617,63.82 81.349,52.501 85.1,40.424 88.084,26.897 c 2.12,-9.61 7.195,-26.371 13.622,-47.591 20.961,-69.216 56.042,-185.059 49.742,-255.082 -0.159,-1.766 -0.192,-2.134 -13.114,-5.21 -7.043,-1.68 -15.519,-3.509 -22.668,-4.899 -9.568,-1.861 -14.4,-2.539 -16.949,-2.539"
             style="fill:#000000;fill-opacity:1;fill-rule:nonzero;stroke:none"
             id="path140" />
        </g>
        <g
           id="g142"
           transform="translate(1808.1271,1037.5184)">
          <path
             d="M 0,0 C -0.824,0 -1.614,0.457 -2.001,1.247 L -62.387,124.34 c -0.541,1.106 -0.087,2.439 1.018,2.981 1.108,0.55 2.439,0.087 2.981,-1.018 L 1.997,3.209 C 2.539,2.104 2.084,0.77 0.979,0.228 0.664,0.072 0.328,0 0,0"
             style="fill:#000000;fill-opacity:1;fill-rule:nonzero;stroke:none"
             id="path144" />
        </g>
        <g
           id="g146"
           transform="translate(1755.2889,1078.1624)">
          <path
             d="m 0,0 c -0.875,0 -1.703,0.518 -2.058,1.377 l -16.55,40.063 c -0.47,1.138 0.07,2.441 1.208,2.909 1.135,0.47 2.441,-0.067 2.909,-1.207 L 2.058,3.078 C 2.528,1.941 1.989,0.638 0.851,0.17 0.572,0.054 0.285,0 0,0"
             style="fill:#000000;fill-opacity:1;fill-rule:nonzero;stroke:none"
             id="path148" />
        </g>
        <g
           id="g150"
           transform="translate(1542.2423,1529.165)">
          <path
             d="m 0,0 h -51.191 c -3.594,0 -6.559,2.814 -6.746,6.404 l -4.865,93.424 c -0.202,3.863 2.877,7.106 6.745,7.106 H 4.379 c 3.855,0 6.928,-3.221 6.748,-7.071 L 6.747,6.439 C 6.579,2.835 3.608,0 0,0"
             style="fill:#000000;fill-opacity:1;fill-rule:nonzero;stroke:none"
             id="path152" />
        </g>
        <g
           id="g154"
           transform="translate(1541.4498,1541.9749)">
          <path
             d="m 0,0 c -0.69,0 -1.368,0.318 -1.806,0.918 -0.722,0.997 -0.5,2.389 0.494,3.113 33.393,24.251 43.368,56.9 35.564,68.72 -5.106,7.734 -17.174,6.71 -33.112,-2.817 -1.051,-0.627 -2.421,-0.29 -3.055,0.77 -0.63,1.055 -0.287,2.424 0.771,3.054 25.935,15.508 35.992,6.175 39.114,1.447 C 48.113,59.841 34.587,24.597 1.308,0.424 0.912,0.139 0.453,0 0,0"
             style="fill:#000000;fill-opacity:1;fill-rule:nonzero;stroke:none"
             id="path156" />
        </g>
        <g
           id="g158"
           transform="translate(1484.6802,1547.0293)">
          <path
             d="m 0,0 c -23.01,33.895 -18.822,49.834 -5.7,59.875 0.77,0.59 1.864,0.591 2.659,0.036 C 22.278,42.232 28.588,22.322 10.313,-0.472 7.618,-3.834 2.42,-3.565 0,0"
             style="fill:#ffffff;fill-opacity:1;fill-rule:nonzero;stroke:none"
             id="path160" />
        </g>
        <g
           id="g162"
           transform="translate(1480.3641,1605.1121)">
          <path
             d="m 0,0 c -9.96,-7.575 -18.229,-20.907 6.159,-56.832 0.766,-1.127 1.988,-1.806 3.35,-1.861 1.388,-0.067 2.561,0.505 3.381,1.532 7.715,9.623 10.993,18.921 9.74,27.639 C 21.175,-19.402 13.563,-9.468 0,0 m 9.688,-63.152 c -0.118,0 -0.237,0.002 -0.355,0.008 -2.791,0.111 -5.291,1.499 -6.859,3.81 -20.666,30.44 -22.274,49.838 -5.211,62.895 1.523,1.169 3.699,1.206 5.287,0.092 14.613,-10.204 22.854,-21.151 24.49,-32.542 1.436,-9.986 -2.156,-20.435 -10.673,-31.061 -1.643,-2.047 -4.06,-3.202 -6.679,-3.202"
             style="fill:#000000;fill-opacity:1;fill-rule:nonzero;stroke:none"
             id="path164" />
        </g>
        <g
           id="g166"
           transform="translate(1841.5118,1496.702)">
          <path
             d="m 0,0 c -15.747,10.848 2.177,75.772 20.032,85.353 17.854,9.58 55.305,-0.871 55.305,-0.871 -13.935,-45.725 11.105,-57.047 14.589,-57.047 3.482,0 14.588,-0.654 7.62,-15.459 -6.968,-14.807 -22.645,-6.75 -22.645,-6.75 -3.143,-2.781 -9.06,-5.928 -16.31,-8.609 -8.651,-25.702 0.841,-45.915 9,-57.313 4.137,-5.78 1.249,-13.974 -5.665,-15.624 -11.072,-2.643 -27.979,-4.204 -49.297,1.419 -16.289,4.296 -27.178,10.203 -34.353,15.67 -5.901,4.497 -4.968,13.833 1.776,16.925 C -1.769,-33.97 10.421,-7.179 0,0"
             style="fill:#ffffff;fill-opacity:1;fill-rule:nonzero;stroke:none"
             id="path168" />
        </g>
        <g
           id="g170"
           transform="translate(1842.7753,1498.5352)">
          <path
             d="m 0,0 c 3.522,-2.426 5.197,-6.809 4.719,-12.342 -0.973,-11.2 -10.808,-27.314 -25.002,-33.821 -2.417,-1.108 -4.038,-3.381 -4.336,-6.079 -0.306,-2.759 0.81,-5.393 2.983,-7.049 8.567,-6.529 19.863,-11.674 33.569,-15.29 21.249,-5.602 37.944,-3.857 48.211,-1.405 2.502,0.596 4.457,2.33 5.363,4.753 0.926,2.478 0.554,5.246 -0.993,7.406 -9.08,12.688 -18.066,33.278 -9.296,59.324 0.213,0.637 0.707,1.144 1.338,1.377 6.834,2.528 12.668,5.589 15.608,8.186 0.685,0.61 1.677,0.732 2.493,0.314 0.059,-0.033 6.609,-3.296 12.457,-1.288 3.053,1.046 5.459,3.405 7.151,7.005 2.124,4.51 2.605,7.908 1.388,9.823 -1.02,1.61 -3.439,2.46 -6.99,2.46 -2.117,0 -8.53,2.391 -13.788,9.492 -5.753,7.765 -10.931,22.383 -3.59,48.198 -8.154,1.999 -37.009,8.243 -51.463,0.494 C 9.094,75.801 -3.657,44.384 -4.984,20.437 -5.569,9.875 -3.799,2.617 0,0 m 39.643,-82.759 c -8.345,0 -18.04,1.021 -28.846,3.871 -14.276,3.766 -26.098,9.165 -35.135,16.053 -3.429,2.613 -5.189,6.755 -4.71,11.085 0.474,4.268 3.056,7.871 6.907,9.637 12.336,5.655 21.551,20.159 22.42,30.156 0.237,2.735 -0.057,6.394 -2.807,8.289 -5.202,3.583 -7.588,12.003 -6.903,24.351 1.299,23.451 13.697,57.583 27.147,64.8 18.431,9.894 55.392,-0.251 56.956,-0.69 0.579,-0.161 1.066,-0.548 1.356,-1.075 0.289,-0.526 0.352,-1.146 0.178,-1.721 -7.584,-24.877 -3.209,-38.664 1.795,-45.848 4.251,-6.102 9.559,-8.254 10.682,-8.319 6.492,0 9.422,-2.463 10.732,-4.527 2.104,-3.318 1.727,-8.063 -1.116,-14.109 -2.234,-4.747 -5.522,-7.887 -9.773,-9.335 -5.88,-2 -11.896,-0.122 -14.533,0.939 -3.357,-2.591 -8.645,-5.338 -14.88,-7.723 -7.611,-23.788 0.665,-42.63 9.026,-54.309 2.411,-3.367 2.987,-7.688 1.542,-11.558 -1.414,-3.782 -4.592,-6.595 -8.502,-7.528 -5.51,-1.316 -12.781,-2.439 -21.536,-2.439"
             style="fill:#000000;fill-opacity:1;fill-rule:nonzero;stroke:none"
             id="path172" />
        </g>
        <g
           id="g174"
           transform="translate(1406.1394,1933.6215)">
          <path
             d="m 0,0 c -2.925,37.732 -0.03,91.496 32.361,136.38 89.577,124.121 351.031,105.924 401.838,4.624 C 459.985,89.591 432.087,15.621 390.421,-25.096 328.809,-85.304 224.877,-84.736 161.439,-48.542 101.036,-14.079 82.27,49.87 43.919,43.919 22.597,40.611 8.398,17.742 0,0"
             style="fill:#ffffff;fill-opacity:1;fill-rule:nonzero;stroke:none"
             id="path176" />
        </g>
        <g
           id="g178"
           transform="translate(1455.0883,1980.1656)">
          <path
             d="m 0,0 c 19.297,0 33.763,-16.743 51.685,-37.483 16.256,-18.812 34.681,-40.133 61.908,-55.668 61.545,-35.112 165.574,-36.261 226.321,23.104 40.456,39.535 68.532,113.287 43.346,163.507 -21.543,42.951 -83.999,73.574 -162.994,79.916 -75.799,6.091 -182.824,-12.482 -235.047,-84.843 -24.125,-33.43 -35.033,-76.039 -32.47,-126.74 12.109,22.647 26.172,35.346 41.88,37.785 C -3.537,-0.137 -1.747,0 0,0 m 212.667,-122.254 c -36.493,0 -72.71,8.933 -101.28,25.234 -27.893,15.912 -46.583,37.542 -63.072,56.624 -18.642,21.573 -33.358,38.625 -53.003,35.57 -15.791,-2.449 -30.004,-16.806 -42.246,-42.671 -0.432,-0.912 -1.405,-1.412 -2.419,-1.238 -0.992,0.183 -1.738,1.012 -1.816,2.019 -4.295,55.386 6.733,101.769 32.777,137.855 23.013,31.892 59.173,56.674 104.571,71.672 40.516,13.384 88.256,18.71 134.441,15.007 80.542,-6.468 144.387,-38.027 166.621,-82.361 26.438,-52.714 -1.719,-127.166 -44.212,-168.689 -28.809,-28.154 -69.723,-45.378 -115.21,-48.504 -5.043,-0.346 -10.101,-0.518 -15.152,-0.518"
             style="fill:#000000;fill-opacity:1;fill-rule:nonzero;stroke:none"
             id="path180" />
        </g>
        <g
           id="g182"
           transform="translate(1751.5122,2036.0168)">
          <path
             d="m 0,0 h -220.144 c -1.231,0 -2.228,0.996 -2.228,2.228 0,1.231 0.997,2.228 2.228,2.228 H 0 C 1.231,4.456 2.228,3.459 2.228,2.228 2.228,0.996 1.231,0 0,0"
             style="fill:#000000;fill-opacity:1;fill-rule:nonzero;stroke:none"
             id="path184" />
        </g>
        <g
           id="g186"
           transform="translate(1692.948,1997.3243)">
          <path
             d="m 0,0 h -110.761 c -1.231,0 -2.227,0.996 -2.227,2.228 0,1.231 0.996,2.228 2.227,2.228 H 0 C 1.231,4.456 2.228,3.459 2.228,2.228 2.228,0.996 1.231,0 0,0"
             style="fill:#000000;fill-opacity:1;fill-rule:nonzero;stroke:none"
             id="path188" />
        </g>
        <g
           id="g190"
           transform="translate(1983.3855,1692.8416)">
          <path
             d="m 0,0 c 5.603,7.873 68.705,99.823 29.074,204.69 -27.823,73.622 -98.594,133.273 -180.76,136.481 -13.862,0.541 -101.284,3.954 -148.2,-65.878 -31.596,-47.028 -35.052,-112.736 -4.342,-160.539 36.497,-56.811 106.197,-64.908 116.54,-65.948 72.401,-7.284 112.302,39.156 151.783,16.735 C -11.746,51.822 -3.402,21.211 0,0"
             style="fill:#ffffff;fill-opacity:1;fill-rule:nonzero;stroke:none"
             id="path192" />
        </g>
        <g
           id="g194"
           transform="translate(1923.8197,1766.755)">
          <path
             d="m 0,0 c 8.415,0 16.608,-1.804 24.762,-6.435 18.103,-10.28 30.217,-31.015 36.05,-61.674 14.023,21.519 61.179,104.337 25.743,198.097 -29.381,77.746 -101.221,132.016 -178.762,135.044 -30.091,1.162 -104.552,-2.808 -146.264,-64.895 -31.868,-47.434 -33.643,-112.444 -4.316,-158.094 34.885,-54.3 101.823,-63.618 114.89,-64.934 34.576,-3.481 61.364,5.371 84.999,13.179 C -27.554,-4.645 -13.495,0 0,0 m 59.565,-76.141 c -0.168,0 -0.339,0.02 -0.507,0.059 -0.881,0.207 -1.549,0.925 -1.693,1.817 -5.171,32.259 -16.882,53.778 -34.804,63.957 -19.511,11.078 -39.171,4.586 -64.062,-3.635 -24.06,-7.946 -51.331,-16.954 -86.845,-13.382 -18.855,1.899 -83.102,12.344 -118.192,66.962 -30.256,47.099 -28.461,114.119 4.368,162.985 42.964,63.946 119.283,68.084 150.13,66.862 39.805,-1.554 78.547,-16.182 112.049,-42.306 31.615,-24.652 56.73,-58.61 70.715,-95.615 C 130.45,26.448 68.568,-65.111 61.379,-75.205 c -0.424,-0.596 -1.105,-0.936 -1.814,-0.936"
             style="fill:#000000;fill-opacity:1;fill-rule:nonzero;stroke:none"
             id="path196" />
        </g>
        <g
           id="g198"
           transform="translate(1942.4709,1900.8094)">
          <path
             d="m 0,0 h -206.958 c -1.231,0 -2.228,0.996 -2.228,2.228 0,1.231 0.997,2.228 2.228,2.228 H 0 C 1.231,4.456 2.228,3.459 2.228,2.228 2.228,0.996 1.231,0 0,0"
             style="fill:#000000;fill-opacity:1;fill-rule:nonzero;stroke:none"
             id="path200" />
        </g>
        <g
           id="g202"
           transform="translate(1875.6156,1873.8365)">
          <path
             d="m 0,0 h -74.046 c -1.231,0 -2.227,0.997 -2.227,2.228 0,1.231 0.996,2.228 2.227,2.228 H 0 C 1.231,4.456 2.228,3.459 2.228,2.228 2.228,0.997 1.231,0 0,0"
             style="fill:#000000;fill-opacity:1;fill-rule:nonzero;stroke:none"
             id="path204" />
        </g>
        <g
           id="g206"
           transform="translate(464.0857,425.4691)">
          <path
             d="m 0,0 h 787.591 c 33.507,0 60.671,27.562 60.671,61.561 l -76.785,1615.865 c 0,34 -27.163,61.561 -60.671,61.561 H -76.785 c -33.507,0 -60.671,-27.561 -60.671,-61.561 L -60.671,61.561 C -60.671,27.562 -33.508,0 0,0"
             style="fill:#000000;fill-opacity:1;fill-rule:nonzero;stroke:none"
             id="path208" />
        </g>
        <g
           id="g210"
           transform="translate(517.4689,425.124)">
          <path
             d="m 0,0 h 787.591 c 33.507,0 60.671,27.441 60.671,61.291 l -76.785,1612.968 c 0,33.85 -27.164,61.291 -60.671,61.291 H -76.785 c -33.507,0 -60.671,-27.441 -60.671,-61.291 L -60.671,61.291 C -60.671,27.441 -33.508,0 0,0"
             style="fill:#c7e8cc;fill-opacity:1;fill-rule:nonzero;stroke:none"
             id="path212" />
        </g>
        <g
           id="g214"
           transform="translate(1226.4727,424.9947)">
          <path
             d="m 0,0 h -162.245 c -1.231,0 -2.228,0.996 -2.228,2.228 0,1.231 0.997,2.228 2.228,2.228 H 0 C 1.23,4.456 2.228,3.459 2.228,2.228 2.228,0.996 1.23,0 0,0"
             style="fill:#000000;fill-opacity:1;fill-rule:nonzero;stroke:none"
             id="path216" />
        </g>
        <g
           id="g218"
           transform="translate(979.2406,424.9947)">
          <path
             d="m 0,0 h -461.772 c -34.683,0 -62.899,28.493 -62.899,63.518 l -29.239,545.964 c -0.067,1.229 0.876,2.278 2.104,2.345 1.242,0.044 2.279,-0.876 2.345,-2.106 l 29.242,-546.083 c 0.004,-32.686 26.222,-59.182 58.447,-59.182 L 0,4.456 C 1.23,4.456 2.228,3.459 2.228,2.228 2.228,0.996 1.23,0 0,0"
             style="fill:#000000;fill-opacity:1;fill-rule:nonzero;stroke:none"
             id="path220" />
        </g>
        <g
           id="g222"
           transform="translate(405.2746,1549.2152)">
          <path
             d="m 0,0 c -1.184,0 -2.168,0.931 -2.223,2.125 l -25.264,550.039 c -0.002,35.127 28.214,63.621 62.897,63.621 h 787.591 c 34.681,0 62.899,-28.494 62.899,-63.518 l 5.956,-146.719 c 0.05,-1.231 -0.905,-2.267 -2.134,-2.317 -1.32,-0.08 -2.269,0.905 -2.317,2.135 l -5.959,146.809 c -0.002,32.658 -26.22,59.154 -58.445,59.154 H 35.41 c -32.226,0 -58.444,-26.496 -58.444,-59.062 L 2.228,2.33 C 2.284,1.101 1.334,0.059 0.104,0.002 0.07,0 0.035,0 0,0"
             style="fill:#000000;fill-opacity:1;fill-rule:nonzero;stroke:none"
             id="path224" />
        </g>
        <g
           id="g226"
           transform="translate(553.9996,471.2322)">
          <path
             d="m 0,0 h 719.24 c 30.6,0 55.406,25.06 55.406,55.972 l -75.809,1527.47 c 0,30.913 -24.806,55.973 -55.405,55.973 h -719.24 c -30.6,0 -55.406,-25.06 -55.406,-55.973 L -55.406,55.972 C -55.406,25.06 -30.6,0 0,0"
             style="fill:#ffffff;fill-opacity:1;fill-rule:nonzero;stroke:none"
             id="path228" />
        </g>
        <g
           id="g230"
           transform="translate(478.1911,2108.4199)">
          <path
             d="m 0,0 c -29.322,0 -53.177,-24.11 -53.177,-53.745 l 75.804,-1527.359 c 0.003,-29.746 23.86,-53.856 53.182,-53.856 h 719.239 c 29.322,0 53.177,24.11 53.177,53.745 L 772.421,-53.856 C 772.417,-24.11 748.562,0 719.24,0 Z M 795.048,-1639.416 H 75.809 c -31.78,0 -57.634,26.109 -57.634,58.201 L -57.631,-53.856 C -57.633,-21.654 -31.779,4.456 0,4.456 h 719.24 c 31.778,0 57.633,-26.11 57.633,-58.201 l 75.806,-1527.359 c 0.002,-32.203 -25.853,-58.312 -57.631,-58.312"
             style="fill:#000000;fill-opacity:1;fill-rule:nonzero;stroke:none"
             id="path232" />
        </g>
        <g
           id="g234"
           transform="translate(475.2987,1622.6038)">
          <path
             d="m 0,0 c -1.181,0 -2.167,0.929 -2.223,2.123 l -6.864,144.865 c -0.058,1.227 0.89,2.271 2.12,2.33 1.213,0.129 2.272,-0.892 2.331,-2.121 L 2.228,2.332 C 2.285,1.105 1.337,0.061 0.108,0.002 0.072,0 0.036,0 0,0"
             style="fill:#000000;fill-opacity:1;fill-rule:nonzero;stroke:none"
             id="path236" />
        </g>
        <g
           id="g238"
           transform="translate(1234.7224,1756.149)">
          <path
             d="m 0,0 c -1.181,0 -2.167,0.929 -2.223,2.123 l -12.772,269.532 c -0.002,28.696 -21.932,51.957 -48.889,51.957 h -663.524 c -26.956,0 -48.886,-23.261 -48.886,-51.853 l 9.701,-204.653 c 0.057,-1.227 -0.891,-2.272 -2.12,-2.33 -1.223,-0.04 -2.274,0.891 -2.332,2.121 l -9.703,204.758 c -0.002,31.152 23.927,56.413 53.34,56.413 h 663.524 c 29.413,0 53.342,-25.261 53.342,-56.309 L 2.228,2.332 C 2.286,1.105 1.337,0.061 0.108,0.002 0.072,0 0.036,0 0,0"
             style="fill:#000000;fill-opacity:1;fill-rule:nonzero;stroke:none"
             id="path240" />
        </g>
        <g
           id="g242"
           transform="translate(1291.5375,782.6327)">
          <path
             d="m 0,0 c -1.181,0 -2.167,0.929 -2.223,2.123 l -10.765,227.189 c -0.059,1.227 0.892,2.271 2.121,2.33 1.144,0.069 2.271,-0.888 2.33,-2.121 L 2.228,2.332 C 2.286,1.105 1.336,0.061 0.107,0.002 0.072,0 0.037,0 0,0"
             style="fill:#ffffff;fill-opacity:1;fill-rule:nonzero;stroke:none"
             id="path244" />
        </g>
        <g
           id="g246"
           transform="translate(1176.2953,495.7378)">
          <path
             d="m 0,0 h -427.712 c -1.23,0 -2.228,0.996 -2.228,2.228 0,1.231 0.998,2.228 2.228,2.228 H 0 C 1.23,4.456 2.228,3.459 2.228,2.228 2.228,0.996 1.23,0 0,0"
             style="fill:#000000;fill-opacity:1;fill-rule:nonzero;stroke:none"
             id="path248" />
        </g>
        <g
           id="g250"
           transform="translate(695.1174,495.7378)">
          <path
             d="m 0,0 h -117.867 c -29.413,0 -53.342,25.261 -53.342,56.308 l -9.343,197.116 c -0.057,1.227 0.891,2.271 2.12,2.33 1.216,0.074 2.273,-0.89 2.331,-2.121 l 9.346,-197.22 c 0.002,-28.696 21.932,-51.957 48.888,-51.957 L 0,4.456 C 1.23,4.456 2.228,3.459 2.228,2.228 2.228,0.996 1.23,0 0,0"
             style="fill:#000000;fill-opacity:1;fill-rule:nonzero;stroke:none"
             id="path252" />
        </g>
        <g
           id="g254"
           transform="translate(967.7778,2160.585)">
          <path
             d="m 0,0 -15.173,-25.26 c -9.216,-15.342 -24.66,-24.545 -41.189,-24.545 h -153.187 c -16.173,0 -31.332,8.814 -40.62,23.618 L -266.598,0 Z"
             style="fill:#000000;fill-opacity:1;fill-rule:nonzero;stroke:none"
             id="path256" />
        </g>
        <g
           id="g258"
           transform="translate(1329.8058,1199.4528)">
          <path
             d="m 0,0 c -1.179,0 -2.162,0.925 -2.223,2.115 l -11.139,220.55 c -0.061,1.23 0.885,2.276 2.112,2.339 1.245,0.044 2.276,-0.883 2.339,-2.112 L 2.228,2.341 C 2.289,1.112 1.342,0.065 0.115,0.002 0.076,0 0.039,0 0,0"
             style="fill:#000000;fill-opacity:1;fill-rule:nonzero;stroke:none"
             id="path260" />
        </g>
        <g
           id="g262"
           transform="translate(1252.8595,1384.2745)">
          <path
             d="m 0,0 c 0,-218.958 -177.5,-396.458 -396.458,-396.458 -218.958,0 -396.459,177.5 -396.459,396.458 0,218.958 177.501,396.458 396.459,396.458 C -177.5,396.458 0,218.958 0,0"
             style="fill:#ffffff;fill-opacity:1;fill-rule:nonzero;stroke:none"
             id="path264" />
        </g>
        <g
           id="g266"
           transform="translate(856.4013,1778.5052)">
          <path
             d="m 0,0 c -217.38,0 -394.231,-176.852 -394.231,-394.231 0,-217.379 176.851,-394.231 394.231,-394.231 217.38,0 394.231,176.852 394.231,394.231 C 394.231,-176.852 217.38,0 0,0 m 0,-792.918 c -219.836,0 -398.687,178.85 -398.687,398.687 0,219.837 178.851,398.687 398.687,398.687 219.836,0 398.687,-178.85 398.687,-398.687 0,-219.837 -178.851,-398.687 -398.687,-398.687"
             style="fill:#000000;fill-opacity:1;fill-rule:nonzero;stroke:none"
             id="path268" />
        </g>
        <g
           id="g270"
           transform="translate(1076.7806,1108.4755)">
          <path
             d="m 0,0 -368.282,-20.741 c 0,0 -0.184,-32.33 -1.008,-69.183 52.415,-25.561 110.914,-30.735 173.154,-30.735 74.98,0 144.477,36.367 204.271,72.534 z"
             style="fill:#000000;fill-opacity:1;fill-rule:nonzero;stroke:none"
             id="path272" />
        </g>
        <g
           id="g274"
           transform="translate(1389.3811,1820.924)">
          <path
             d="m 0,0 c -0.879,7.49 3.389,15.78 4.896,23.309 3.271,16.344 6.062,32.918 5.583,49.579 -0.424,14.739 -1.057,28.028 -7.117,41.367 -4.15,9.135 -10.742,20.578 -23.376,19.375 -9.164,-0.872 -17.689,-6.683 -22.763,-14.22 -6.974,-10.357 -8.601,-23.434 -8.241,-35.915 0.323,-11.223 4.416,-24.914 2.023,-35.94 -2.537,-11.697 -9.317,-10.678 -15.191,-1.593 -14.789,22.871 -39.401,27.206 -30.733,19.115 8.669,-8.091 24.274,-40.457 30.054,-49.354 2.095,-3.226 8.56,-7.163 15.945,-10.873 0.06,-21.162 -2.589,-53.678 -17.604,-89.125 -17.891,-42.23 -45.998,-71.276 -69.207,-89.901 18.999,-33.253 60.385,-87.585 131.326,-96.637 10.063,19.97 17.925,41.039 23.425,62.713 9.765,38.478 12.029,78.783 6.697,118.119 C 23.023,-70.108 18.404,-50.5 11.943,-31.514 8.664,-21.879 4.052,-12.737 0.719,-3.168 0.358,-2.132 0.126,-1.074 0,0"
             style="fill:#ffffff;fill-opacity:1;fill-rule:nonzero;stroke:none"
             id="path276" />
        </g>
        <g
           id="g278"
           transform="translate(1294.851,1888.9547)">
          <path
             d="m 0,0 z m -38.321,-242.742 c 18.495,-31.78 58.839,-84.249 127.165,-93.684 9.631,19.367 17.213,39.828 22.545,60.844 9.614,37.877 11.914,78.43 6.651,117.27 -2.672,19.708 -7.275,39.239 -13.676,58.049 -1.66,4.875 -3.713,9.735 -5.7,14.437 -1.905,4.51 -3.874,9.174 -5.519,13.893 -0.4,1.149 -0.679,2.373 -0.827,3.644 -0.635,5.415 1.11,10.973 2.798,16.349 0.842,2.681 1.636,5.211 2.126,7.656 3.648,18.227 5.987,33.55 5.539,49.077 -0.455,15.805 -1.217,27.96 -6.917,40.509 -4.072,8.968 -10.16,19.13 -21.137,18.081 -8.046,-0.766 -16.141,-5.841 -21.128,-13.247 -5.715,-8.489 -8.286,-19.808 -7.86,-34.609 0.111,-3.907 0.694,-8.11 1.31,-12.562 1.123,-8.091 2.28,-16.458 0.663,-23.914 -1.657,-7.642 -4.982,-9.788 -7.477,-10.242 -3.827,-0.699 -8.013,2.112 -11.761,7.912 -9.24,14.287 -21.786,20.455 -27.036,21.66 6.155,-6.006 15.029,-22.317 22.182,-35.468 3.281,-6.028 6.116,-11.237 7.915,-14.006 0.907,-1.399 4.075,-4.571 15.077,-10.097 0.75,-0.377 1.224,-1.144 1.227,-1.984 0.087,-31.659 -5.894,-61.941 -17.781,-89.999 -14.551,-34.342 -37.551,-64.469 -68.379,-89.569 m 128.446,-98.329 c -0.093,0 -0.187,0.007 -0.283,0.017 -72.39,9.238 -114.387,65.205 -132.977,97.742 -0.544,0.951 -0.314,2.156 0.539,2.844 30.996,24.873 54.059,54.826 68.551,89.031 11.48,27.101 17.341,56.328 17.428,86.888 -8.496,4.357 -13.599,7.971 -15.586,11.028 -1.893,2.915 -4.764,8.193 -8.091,14.304 -6.744,12.396 -15.979,29.375 -21.616,34.633 -0.772,0.722 -3.12,2.915 -2.363,5.287 0.187,0.585 0.862,1.984 3.063,2.275 5.759,0.803 22.367,-6.735 33.426,-23.837 3.102,-4.8 5.852,-6.22 7.221,-5.948 1.594,0.289 3.061,2.832 3.92,6.803 1.451,6.683 0.346,14.652 -0.72,22.358 -0.607,4.373 -1.232,8.896 -1.353,13.045 -0.453,15.762 2.367,27.938 8.621,37.226 5.709,8.483 15.06,14.304 24.399,15.192 13.824,1.331 20.932,-10.358 25.616,-20.672 6.032,-13.28 6.861,-26.423 7.316,-42.224 0.459,-15.947 -1.917,-31.554 -5.626,-50.079 -0.535,-2.679 -1.403,-5.444 -2.243,-8.117 -1.547,-4.928 -3.148,-10.026 -2.624,-14.496 0.113,-0.96 0.314,-1.843 0.609,-2.696 1.597,-4.584 3.54,-9.181 5.418,-13.625 2.016,-4.774 4.101,-9.71 5.811,-14.736 6.496,-19.082 11.162,-38.892 13.875,-58.884 5.339,-39.404 3.005,-80.542 -6.746,-118.966 -5.543,-21.843 -13.482,-43.096 -23.596,-63.168 -0.381,-0.757 -1.156,-1.225 -1.989,-1.225"
             style="fill:#000000;fill-opacity:1;fill-rule:nonzero;stroke:none"
             id="path280" />
        </g>
        <g
           id="g282"
           transform="translate(1253.6505,1646.7479)">
          <path
             d="m 0,0 c -14.925,-11.977 -27.83,-19.655 -34.673,-23.719 -112.925,-67.061 -181.657,9.847 -366.658,4.901 -67.65,-1.808 -114.033,7.806 -234.66,-44.555 0,0 -219.809,-70.469 -219.809,-295.553 0,-63.121 41.586,-116.588 90.597,-133.668 43.813,54.77 57.847,86.058 92.082,99.508 -0.249,2.576 -24.042,18.851 -23.763,21.536 5.94,57.179 25.248,73.516 47.42,84.055 10.15,4.824 22.079,-1.023 23.253,-12.2 5.157,-49.123 -2.051,-88.15 8.915,-204.88 6.365,-67.76 13.16,-77.744 19.689,-84.39 43.02,-43.782 116.386,14.82 287.808,17.434 81.37,1.242 135.042,-10.892 150.286,17.244 10.991,20.283 -7.317,44.278 -20.688,79.545 -16.519,43.572 -27.962,110.828 0.756,210.56 114.131,-12.651 226.157,38.598 290.418,132.962 7.594,11.151 14.37,22.709 20.353,34.583 C 60.385,-87.585 18.998,-33.253 0,0"
             style="fill:#3e6eb4;fill-opacity:1;fill-rule:nonzero;stroke:none"
             id="path284" />
        </g>
        <g
           id="g286"
           transform="translate(558.8874,1275.7021)">
          <path
             d="m 0,0 z m 52.768,87.475 c 3.187,0 6.336,-0.789 9.139,-2.362 5.025,-2.82 8.253,-7.752 8.86,-13.53 2.111,-20.115 2.162,-38.218 2.224,-61.14 0.09,-33.265 0.203,-74.666 6.694,-143.762 6.104,-64.987 12.5,-76.363 19.06,-83.037 22.971,-23.383 55.304,-16.393 108.867,-4.817 42.467,9.177 100.628,21.745 177.318,22.915 21.801,0.324 41.679,-0.293 59.215,-0.848 47.355,-1.493 78.632,-2.48 89.147,16.926 7.524,13.886 -0.047,30.51 -9.633,51.554 -3.552,7.804 -7.581,16.648 -11.18,26.14 -22.754,60.02 -22.519,131.335 0.698,211.966 0.3,1.044 1.297,1.712 2.387,1.599 113.803,-12.616 224.292,37.964 288.332,132.001 6.835,10.038 13.145,20.637 18.784,31.55 -68.859,10.184 -109.627,62.748 -128.553,95.066 -14.236,-11.2 -26.286,-18.358 -32.899,-22.285 C 593.75,305.342 542.938,315.884 472.612,330.485 424,340.577 368.887,352.029 293.491,350 282.938,349.719 272.824,349.712 263.044,349.708 210.616,349.684 161.097,349.66 59.659,305.629 58.906,305.374 4.165,287.484 -49.829,242.489 -99.545,201.058 -158.809,127.46 -158.809,12.12 c 0,-57.685 36.756,-112.512 87.62,-131.035 11.422,14.333 20.782,27.012 29.068,38.236 22.46,30.423 36.35,49.238 60.135,59.55 -2.129,1.947 -5.942,4.975 -8.945,7.362 -11.633,9.244 -13.638,11.261 -13.406,13.493 6.322,60.859 28.442,76.217 48.68,85.837 2.685,1.277 5.57,1.912 8.425,1.912 m 87.069,-323.866 c -17.887,0 -32.112,4.538 -44.271,16.911 -7.417,7.549 -14.067,19.212 -20.317,85.743 -6.51,69.299 -6.623,110.811 -6.714,144.169 -0.062,22.793 -0.111,40.796 -2.2,60.685 -0.453,4.323 -2.861,8.006 -6.609,10.11 -4.055,2.272 -9.092,2.396 -13.471,0.311 C 26.292,72.051 6.294,57.909 0.147,-0.235 c 1.239,-1.736 7.49,-6.703 11.695,-10.045 9.418,-7.483 11.828,-9.594 12.017,-11.545 0.096,-0.992 -0.477,-1.926 -1.403,-2.289 -24.339,-9.562 -38.135,-28.25 -60.993,-59.213 -8.548,-11.578 -18.236,-24.701 -30.163,-39.612 -0.59,-0.738 -1.581,-1.019 -2.473,-0.712 -53.361,18.595 -92.092,75.695 -92.092,135.771 0,117.135 60.203,191.846 110.708,233.894 54.652,45.504 110.096,63.603 110.649,63.779 102.078,44.323 152.047,44.347 204.95,44.371 9.751,0.004 19.835,0.011 30.33,0.291 75.945,2.026 131.297,-9.466 180.146,-19.606 69.339,-14.396 119.44,-24.797 185.435,14.391 6.83,4.058 19.544,11.609 34.415,23.544 0.509,0.407 1.181,0.568 1.81,0.451 0.64,-0.122 1.197,-0.518 1.519,-1.084 18.179,-31.818 59.199,-86.54 129.675,-95.531 0.715,-0.092 1.344,-0.527 1.683,-1.164 0.34,-0.64 0.349,-1.403 0.022,-2.05 -6.078,-12.065 -12.975,-23.785 -20.5,-34.833 C 742.962,143.688 631.726,92.412 516.944,104.447 494.509,25.5 494.408,-44.251 516.645,-102.907 c 3.549,-9.357 7.372,-17.752 11.07,-25.872 10.099,-22.173 18.075,-39.686 9.495,-55.525 -11.826,-21.823 -44.201,-20.802 -93.205,-19.256 -17.488,0.553 -37.307,1.184 -59.008,0.847 -76.248,-1.164 -134.159,-13.678 -176.444,-22.813 -27.948,-6.04 -50.278,-10.865 -68.716,-10.865"
             style="fill:#000000;fill-opacity:1;fill-rule:nonzero;stroke:none"
             id="path288" />
        </g>
        <g
           id="g290"
           transform="translate(781.7183,1267.559)">
          <path
             d="m 0,0 c -0.398,0 -0.801,0.107 -1.165,0.331 -45.026,27.699 -65.899,71.396 -54.482,91.961 3.469,6.246 15.258,18.915 49.741,1.745 1.102,-0.55 1.549,-1.886 1.001,-2.989 -0.548,-1.099 -1.886,-1.547 -2.987,-1.001 -21.858,10.887 -37.842,10.917 -43.86,0.083 C -60.77,73.885 -44.638,32.305 1.169,4.125 2.217,3.481 2.544,2.108 1.899,1.06 1.479,0.376 0.748,0 0,0"
             style="fill:#000000;fill-opacity:1;fill-rule:nonzero;stroke:none"
             id="path292" />
        </g>
        <g
           id="g294"
           transform="translate(782.1857,1250.3093)">
          <path
             d="m 0,0 66.04,5.074 c 4.637,0.356 8.182,4.281 8.068,8.93 L 71.125,135.01 c -0.124,5.004 -4.416,8.882 -9.407,8.499 l -77.967,-5.991 c -4.973,-0.382 -8.619,-4.841 -8.004,-9.791 L -9.343,7.637 C -8.768,3.005 -4.654,-0.358 0,0"
             style="fill:#000000;fill-opacity:1;fill-rule:nonzero;stroke:none"
             id="path296" />
        </g>
        <g
           id="g298"
           transform="translate(832.4962,1320.8846)">
          <path
             d="M 0,0 C -0.406,0.891 -0.904,1.742 -1.509,2.539 -13.353,18.145 -39.195,1.98 -52.704,-2.334 -63.305,-5.719 -73.906,-9.104 -84.508,-12.49 l -40.408,-47.769 c -21.894,-5.794 -88.459,-28.215 -137.156,3.518 -15.651,10.2 -36.596,5.889 -47.717,-9.122 -16.622,-22.435 -32.226,-51.613 -42.295,-97.264 78.198,-23.446 189.945,5.249 240.154,49.988 22.859,-0.882 40.802,21.279 54.534,36.614 7.739,8.642 14.989,18.93 24.81,25.293 8.997,5.829 19.906,9.402 26.679,18.157 4.347,5.619 6.32,12.742 7.167,19.795 C 1.795,-8.821 1.823,-4.001 0,0"
             style="fill:#ffffff;fill-opacity:1;fill-rule:nonzero;stroke:none"
             id="path300" />
        </g>
        <g
           id="g302"
           transform="translate(483.0416,1159.3091)">
          <path
             d="m 0,0 c 80.263,-23.028 188.425,7.671 236.043,50.101 0.43,0.381 0.994,0.623 1.568,0.561 20.25,-0.728 36.707,17.76 49.927,32.66 l 2.861,3.214 c 1.855,2.071 3.682,4.24 5.523,6.424 5.904,7.003 12.009,14.246 19.735,19.252 2.844,1.842 5.883,3.472 8.822,5.047 6.638,3.557 12.907,6.916 17.307,12.605 3.562,4.604 5.759,10.722 6.717,18.697 0.621,5.184 0.269,9.137 -1.076,12.09 v 0.002 c -0.348,0.764 -0.77,1.475 -1.255,2.115 -8.373,11.03 -25.318,3.907 -38.932,-1.815 -3.575,-1.501 -6.95,-2.922 -9.811,-3.833 l -31.194,-9.962 -39.995,-47.28 c -0.295,-0.35 -0.69,-0.598 -1.131,-0.715 -1.695,-0.449 -3.66,-0.997 -5.864,-1.612 -26.132,-7.302 -87.326,-24.4 -133.078,5.417 -14.502,9.45 -34.144,5.682 -44.712,-8.583 C 21.752,67.793 8.554,37.757 0,0 m 60.116,-12.29 c -21.999,-0.002 -43.555,2.659 -63.385,8.605 -1.117,0.335 -1.787,1.475 -1.536,2.615 8.679,39.345 22.24,70.521 42.679,98.109 11.972,16.152 34.253,20.398 50.725,9.662 44.064,-28.713 103.898,-11.998 129.447,-4.86 1.938,0.541 3.692,1.031 5.243,1.449 l 39.956,47.234 c 0.271,0.319 0.626,0.556 1.024,0.683 l 31.805,10.155 c 2.671,0.855 5.959,2.237 9.438,3.699 14.242,5.985 33.746,14.184 44.208,0.4 0.685,-0.901 1.278,-1.899 1.762,-2.963 1.718,-3.768 2.176,-8.367 1.444,-14.468 -1.055,-8.798 -3.547,-15.633 -7.616,-20.894 -4.982,-6.437 -11.969,-10.184 -18.726,-13.804 -2.859,-1.531 -5.815,-3.118 -8.503,-4.858 -7.17,-4.647 -13.058,-11.631 -18.753,-18.386 -1.87,-2.219 -3.725,-4.421 -5.61,-6.524 l -2.847,-3.2 C 277.327,65.1 260.54,46.183 238.879,46.183 c -0.178,0 -0.357,0.002 -0.535,0.004 C 201.091,13.456 128.522,-12.286 60.116,-12.29"
             style="fill:#000000;fill-opacity:1;fill-rule:nonzero;stroke:none"
             id="path304" />
        </g>
        <g
           id="g306"
           transform="translate(819.9052,1732.1628)">
          <path
             d="m 0,0 c -13.445,-6.774 -23.576,-7.751 -30.879,-7.331 -26.39,1.516 -43.311,22.785 -46.7,27.045 -17.493,21.987 -25.924,58.096 -11.096,79.3 10.676,15.269 24.117,9.514 36.411,26.586 13.957,19.382 -0.352,35.196 12.523,52.16 14.825,19.533 47.491,18.042 53.365,17.774 20.156,-0.923 22.556,-10.919 41.613,-10.404 19.451,0.527 22.025,10.301 39.879,10.404 14.183,0.081 34.857,-5.957 44.118,-22.36 C 150.858,152.586 138.97,125.466 125.17,111.151 108.602,93.967 96.936,103.185 73.732,89.189 33.517,64.934 43.127,21.728 0,0"
             style="fill:#000000;fill-opacity:1;fill-rule:nonzero;stroke:none"
             id="path308" />
        </g>
        <g
           id="g310"
           transform="translate(894.794,1640.634)">
          <path
             d="m 0,0 -10.888,67.734 c 2.397,0.27 22.449,3.762 24.742,4.905 18.568,9.247 13.408,55.85 13.408,55.85 l 10.32,12.33 -30.788,68.903 c -32.697,-27.25 -44.362,-0.491 -76.724,-13.899 -32.361,-13.409 -14.804,-49.439 -14.804,-49.439 0,0 -26.448,11.649 -20.795,-13.93 4.27,-19.316 18.344,-20.527 27.61,-19.746 L -95.168,-3.438 c 0,0 -33.79,-9.602 -53.747,-15.174 -2.985,-0.833 -2.922,-5.078 0.085,-5.828 31.031,-7.744 108.761,-29.82 196.489,2.576 3.67,1.355 3.467,6.634 -0.283,7.751 z"
             style="fill:#ffffff;fill-opacity:1;fill-rule:nonzero;stroke:none"
             id="path312" />
        </g>
        <g
           id="g314"
           transform="translate(816.8755,1755.5704)">
          <path
             d="m 0,0 c 0.612,0 1.202,-0.252 1.624,-0.703 0.467,-0.496 0.68,-1.179 0.58,-1.851 l -17.25,-116.147 c -0.129,-0.866 -0.753,-1.578 -1.595,-1.817 0,0 -33.795,-9.603 -53.756,-15.175 -0.483,-0.135 -0.58,-0.491 -0.577,-0.765 0.005,-0.279 0.112,-0.634 0.602,-0.755 l 4.188,-1.058 c 32.203,-8.145 107.616,-27.229 190.99,3.562 1.14,0.42 1.197,1.468 1.187,1.779 -0.011,0.32 -0.137,1.39 -1.334,1.747 l -47.377,14.113 c -0.82,0.244 -1.427,0.936 -1.563,1.78 l -10.888,67.734 c -0.097,0.603 0.057,1.216 0.425,1.701 0.369,0.486 0.92,0.799 1.525,0.868 2.878,0.322 21.935,3.727 24.007,4.687 14.082,7.014 13.567,41.074 12.179,53.606 -0.067,0.605 0.116,1.209 0.505,1.675 l 9.427,11.263 -29.038,64.989 C 65.773,77.087 53.872,79.073 41.292,81.177 31.91,82.741 22.21,84.366 8.841,78.828 0.629,75.425 -4.869,70.18 -7.5,63.237 -12.833,49.17 -4.894,32.59 -4.813,32.425 c 0.409,-0.84 0.25,-1.845 -0.398,-2.52 -0.645,-0.672 -1.643,-0.879 -2.501,-0.496 -3.143,1.377 -12.177,4.238 -16.188,0.934 -2.983,-2.45 -2.481,-8.065 -1.535,-12.345 C -22.454,4.512 -14.416,-1.203 -0.187,-0.009 -0.125,-0.002 -0.062,0 0,0 m 28.197,-156.089 c -42.125,0 -76.334,8.657 -95.473,13.5 l -4.175,1.051 c -2.346,0.587 -3.945,2.602 -3.977,5.016 -0.034,2.413 1.506,4.471 3.832,5.12 17.555,4.901 45.811,12.92 52.353,14.776 L -2.605,-4.601 c -14.781,-0.353 -23.924,6.903 -27.181,21.638 -1.767,8.002 -0.737,13.638 3.065,16.756 4.461,3.653 11.364,2.672 16.011,1.375 -2.246,6.459 -5.174,18.523 -0.957,29.649 3.084,8.136 9.411,14.235 18.803,18.127 14.547,6.028 25.354,4.225 34.891,2.628 12.58,-2.098 23.449,-3.916 41.26,10.925 0.536,0.449 1.245,0.61 1.93,0.459 0.679,-0.158 1.246,-0.626 1.531,-1.261 l 30.787,-68.903 c 0.347,-0.779 0.221,-1.686 -0.325,-2.339 l -9.718,-11.611 c 0.661,-6.998 3.697,-47.958 -14.726,-57.134 -2.401,-1.195 -17.292,-3.812 -23.18,-4.769 l 10.31,-64.138 46.036,-13.715 c 2.653,-0.792 4.425,-3.096 4.514,-5.872 0.088,-2.756 -1.52,-5.152 -4.097,-6.105 -34.965,-12.912 -68.519,-17.196 -98.152,-17.198"
             style="fill:#000000;fill-opacity:1;fill-rule:nonzero;stroke:none"
             id="path316" />
        </g>
        <g
           id="g318"
           transform="translate(876.5504,1705.6301)">
          <path
             d="m 0,0 c -27.509,0 -40.377,21.327 -40.515,21.56 -0.622,1.059 -0.267,2.421 0.791,3.046 1.057,0.624 2.423,0.272 3.049,-0.786 C -36.118,22.883 -22.72,0.879 7.054,4.947 8.263,5.097 9.396,4.26 9.563,3.041 9.729,1.821 8.876,0.698 7.657,0.531 4.99,0.167 2.435,0 0,0"
             style="fill:#000000;fill-opacity:1;fill-rule:nonzero;stroke:none"
             id="path320" />
        </g>
        <g
           id="g322"
           transform="translate(768.7975,909.6687)">
          <path
             d="m 0,0 c -23.937,0 -43.411,-19.474 -43.411,-43.411 0,-23.938 19.474,-43.412 43.411,-43.412 23.937,0 43.411,19.474 43.411,43.412 C 43.411,-19.474 23.937,0 0,0 m 0,-91.278 c -26.394,0 -47.867,21.473 -47.867,47.867 0,26.394 21.473,47.867 47.867,47.867 26.394,0 47.867,-21.473 47.867,-47.867 0,-26.394 -21.473,-47.867 -47.867,-47.867"
             style="fill:#000000;fill-opacity:1;fill-rule:nonzero;stroke:none"
             id="path324" />
        </g>
        <g
           id="g326"
           transform="translate(897.5207,909.6687)">
          <path
             d="m 0,0 c -23.937,0 -43.411,-19.474 -43.411,-43.411 0,-23.938 19.474,-43.412 43.411,-43.412 23.937,0 43.411,19.474 43.411,43.412 C 43.411,-19.474 23.937,0 0,0 m 0,-91.278 c -26.394,0 -47.867,21.473 -47.867,47.867 0,26.394 21.473,47.867 47.867,47.867 26.394,0 47.867,-21.473 47.867,-47.867 0,-26.394 -21.473,-47.867 -47.867,-47.867"
             style="fill:#000000;fill-opacity:1;fill-rule:nonzero;stroke:none"
             id="path328" />
        </g>
        <g
           id="g330"
           transform="translate(1028.5859,914.3505)">
          <path
             d="m 0,0 c -23.937,0 -43.411,-19.474 -43.411,-43.411 0,-23.938 19.474,-43.412 43.411,-43.412 23.937,0 43.411,19.474 43.411,43.412 C 43.411,-19.474 23.937,0 0,0 m 0,-91.278 c -26.394,0 -47.867,21.473 -47.867,47.867 0,26.394 21.473,47.867 47.867,47.867 26.394,0 47.867,-21.473 47.867,-47.867 0,-26.394 -21.473,-47.867 -47.867,-47.867"
             style="fill:#000000;fill-opacity:1;fill-rule:nonzero;stroke:none"
             id="path332" />
        </g>
      </g>
    </g>
  </g>
</svg>
