<?xml version="1.0" encoding="UTF-8"?>
<!DOCTYPE svg PUBLIC "-//W3C//DTD SVG 1.1//EN" "http://www.w3.org/Graphics/SVG/1.1/DTD/svg11.dtd">
<!-- Creator: CorelDRAW (Nie do użytku komercyjnego) -->
<svg xmlns="http://www.w3.org/2000/svg" xml:space="preserve" width="51.2984mm" height="31.4281mm" version="1.1" style="shape-rendering:geometricPrecision; text-rendering:geometricPrecision; image-rendering:optimizeQuality; fill-rule:evenodd; clip-rule:evenodd"
viewBox="0 0 8937.94 5475.85"
 xmlns:xlink="http://www.w3.org/1999/xlink"
 xmlns:xodm="http://www.corel.com/coreldraw/odm/2003">
 <defs>
  <style type="text/css">
   <![CDATA[
    .fil0 {fill:#422CB7;fill-rule:nonzero}
   ]]>
  </style>
 </defs>
 <g id="Warstwa_x0020_1">
  <metadata id="CorelCorpID_0Corel-Layer"/>
  <g id="_105553204514464">
   <path class="fil0" d="M8796.44 2423.35c-78.18,0 -141.5,63.3 -141.5,141.43 0,78.2 63.32,141.57 141.5,141.57 78.13,0 141.5,-63.37 141.5,-141.57 0,-78.13 -63.37,-141.43 -141.5,-141.43z"/>
   <path class="fil0" d="M8450.2 2706.33c78.13,0 141.5,-63.37 141.5,-141.57 0,-78.13 -63.37,-141.43 -141.5,-141.43 -78.18,0 -141.5,63.3 -141.5,141.43 0,78.2 63.32,141.57 141.5,141.57z"/>
   <path class="fil0" d="M8450.2 2013.92c78.13,0 141.5,-63.3 141.5,-141.5 0,-78.11 -63.37,-141.5 -141.5,-141.5 -78.18,0 -141.5,63.39 -141.5,141.5 0,78.2 63.32,141.5 141.5,141.5z"/>
   <path class="fil0" d="M8450.2 1667.75c78.13,0 141.5,-63.37 141.5,-141.5 0,-78.13 -63.37,-141.5 -141.5,-141.5 -78.18,0 -141.5,63.37 -141.5,141.5 0,78.13 63.32,141.5 141.5,141.5z"/>
   <path class="fil0" d="M8450.2 1321.57c78.13,0 141.5,-63.37 141.5,-141.55 0,-78.13 -63.37,-141.43 -141.5,-141.43 -78.18,0 -141.5,63.3 -141.5,141.43 0,78.18 63.32,141.55 141.5,141.55z"/>
   <path class="fil0" d="M8104.04 3115.69c-78.13,0 -141.5,63.37 -141.5,141.5 0,78.11 63.37,141.5 141.5,141.5 78.18,0 141.5,-63.39 141.5,-141.5 0,-78.13 -63.32,-141.5 -141.5,-141.5z"/>
   <path class="fil0" d="M8104.04 2769.51c-78.13,0 -141.5,63.37 -141.5,141.5 0,78.13 63.37,141.5 141.5,141.5 78.18,0 141.5,-63.37 141.5,-141.5 0,-78.13 -63.32,-141.5 -141.5,-141.5z"/>
   <path class="fil0" d="M8104.04 2423.35c-78.13,0 -141.5,63.3 -141.5,141.43 0,78.2 63.37,141.57 141.5,141.57 78.18,0 141.5,-63.37 141.5,-141.57 0,-78.13 -63.32,-141.43 -141.5,-141.43z"/>
   <path class="fil0" d="M8104.04 2077.17c-78.13,0 -141.5,63.32 -141.5,141.44 0,78.18 63.37,141.55 141.5,141.55 78.18,0 141.5,-63.37 141.5,-141.55 0,-78.13 -63.32,-141.44 -141.5,-141.44z"/>
   <path class="fil0" d="M8104.04 1730.93c-78.13,0 -141.5,63.39 -141.5,141.5 0,78.2 63.37,141.5 141.5,141.5 78.18,0 141.5,-63.3 141.5,-141.5 0,-78.11 -63.32,-141.5 -141.5,-141.5z"/>
   <path class="fil0" d="M8104.04 1384.76c-78.13,0 -141.5,63.37 -141.5,141.5 0,78.13 63.37,141.5 141.5,141.5 78.18,0 141.5,-63.37 141.5,-141.5 0,-78.13 -63.32,-141.5 -141.5,-141.5z"/>
   <path class="fil0" d="M8104.04 1038.59c-78.13,0 -141.5,63.3 -141.5,141.43 0,78.18 63.37,141.55 141.5,141.55 78.18,0 141.5,-63.37 141.5,-141.55 0,-78.13 -63.32,-141.43 -141.5,-141.43z"/>
   <path class="fil0" d="M7757.8 3744.85c78.18,0 141.5,-63.32 141.5,-141.5 0,-78.13 -63.32,-141.43 -141.5,-141.43 -78.13,0 -141.44,63.3 -141.44,141.43 0,78.18 63.32,141.5 141.44,141.5z"/>
   <path class="fil0" d="M7757.8 3398.68c78.18,0 141.5,-63.39 141.5,-141.5 0,-78.13 -63.32,-141.5 -141.5,-141.5 -78.13,0 -141.44,63.37 -141.44,141.5 0,78.11 63.32,141.5 141.44,141.5z"/>
   <path class="fil0" d="M7757.8 3052.5c78.18,0 141.5,-63.37 141.5,-141.5 0,-78.13 -63.32,-141.5 -141.5,-141.5 -78.13,0 -141.44,63.37 -141.44,141.5 0,78.13 63.32,141.5 141.44,141.5z"/>
   <path class="fil0" d="M7757.8 2706.33c78.18,0 141.5,-63.37 141.5,-141.57 0,-78.13 -63.32,-141.43 -141.5,-141.43 -78.13,0 -141.44,63.3 -141.44,141.43 0,78.2 63.32,141.57 141.44,141.57z"/>
   <path class="fil0" d="M7757.8 2360.16c78.18,0 141.5,-63.37 141.5,-141.55 0,-78.13 -63.32,-141.44 -141.5,-141.44 -78.13,0 -141.44,63.32 -141.44,141.44 0,78.18 63.32,141.55 141.44,141.55z"/>
   <path class="fil0" d="M7757.8 2013.92c78.18,0 141.5,-63.3 141.5,-141.5 0,-78.11 -63.32,-141.5 -141.5,-141.5 -78.13,0 -141.44,63.39 -141.44,141.5 0,78.2 63.32,141.5 141.44,141.5z"/>
   <path class="fil0" d="M7757.8 1667.75c78.18,0 141.5,-63.37 141.5,-141.5 0,-78.13 -63.32,-141.5 -141.5,-141.5 -78.13,0 -141.44,63.37 -141.44,141.5 0,78.13 63.32,141.5 141.44,141.5z"/>
   <path class="fil0" d="M7757.8 1321.57c78.18,0 141.5,-63.37 141.5,-141.55 0,-78.13 -63.32,-141.43 -141.5,-141.43 -78.13,0 -141.44,63.3 -141.44,141.43 0,78.18 63.32,141.55 141.44,141.55z"/>
   <path class="fil0" d="M8450.2 975.33c78.13,0 141.5,-63.3 141.5,-141.48 0,-78.13 -63.37,-141.5 -141.5,-141.5 -78.18,0 -141.5,63.37 -141.5,141.5 0,78.18 63.32,141.48 141.5,141.48z"/>
   <path class="fil0" d="M8450.2 629.16c78.13,0 141.5,-63.37 141.5,-141.5 0,-78.13 -63.37,-141.5 -141.5,-141.5 -78.18,0 -141.5,63.37 -141.5,141.5 0,78.13 63.32,141.5 141.5,141.5z"/>
   <path class="fil0" d="M8796.44 1321.57c78.13,0 141.5,-63.37 141.5,-141.55 0,-78.13 -63.37,-141.43 -141.5,-141.43 -78.18,0 -141.5,63.3 -141.5,141.43 0,78.18 63.32,141.55 141.5,141.55z"/>
   <path class="fil0" d="M8796.44 975.33c78.13,0 141.5,-63.3 141.5,-141.48 0,-78.13 -63.37,-141.5 -141.5,-141.5 -78.18,0 -141.5,63.37 -141.5,141.5 0,78.18 63.32,141.48 141.5,141.48z"/>
   <path class="fil0" d="M8104.04 692.35c-78.13,0 -141.5,63.37 -141.5,141.5 0,78.18 63.37,141.48 141.5,141.48 78.18,0 141.5,-63.3 141.5,-141.48 0,-78.13 -63.32,-141.5 -141.5,-141.5z"/>
   <path class="fil0" d="M7757.8 975.33c78.18,0 141.5,-63.3 141.5,-141.48 0,-78.13 -63.32,-141.5 -141.5,-141.5 -78.13,0 -141.44,63.37 -141.44,141.5 0,78.18 63.32,141.48 141.44,141.48z"/>
   <path class="fil0" d="M7411.61 3461.93c-78.13,0 -141.43,63.3 -141.43,141.43 0,78.18 63.3,141.5 141.43,141.5 78.2,0 141.5,-63.32 141.5,-141.5 0,-78.13 -63.3,-141.43 -141.5,-141.43z"/>
   <path class="fil0" d="M7411.61 3808.1c-78.13,0 -141.43,63.32 -141.43,141.44 0,78.18 63.3,141.55 141.43,141.55 78.2,0 141.5,-63.37 141.5,-141.55 0,-78.13 -63.3,-141.44 -141.5,-141.44z"/>
   <path class="fil0" d="M7411.61 3115.69c-78.13,0 -141.43,63.37 -141.43,141.5 0,78.11 63.3,141.5 141.43,141.5 78.2,0 141.5,-63.39 141.5,-141.5 0,-78.13 -63.3,-141.5 -141.5,-141.5z"/>
   <path class="fil0" d="M7411.61 2769.51c-78.13,0 -141.43,63.37 -141.43,141.5 0,78.13 63.3,141.5 141.43,141.5 78.2,0 141.5,-63.37 141.5,-141.5 0,-78.13 -63.3,-141.5 -141.5,-141.5z"/>
   <path class="fil0" d="M7411.61 2423.35c-78.13,0 -141.43,63.3 -141.43,141.43 0,78.2 63.3,141.57 141.43,141.57 78.2,0 141.5,-63.37 141.5,-141.57 0,-78.13 -63.3,-141.43 -141.5,-141.43z"/>
   <path class="fil0" d="M7411.61 2077.17c-78.13,0 -141.43,63.32 -141.43,141.44 0,78.18 63.3,141.55 141.43,141.55 78.2,0 141.5,-63.37 141.5,-141.55 0,-78.13 -63.3,-141.44 -141.5,-141.44z"/>
   <path class="fil0" d="M7411.61 1730.93c-78.13,0 -141.43,63.39 -141.43,141.5 0,78.2 63.3,141.5 141.43,141.5 78.2,0 141.5,-63.3 141.5,-141.5 0,-78.11 -63.3,-141.5 -141.5,-141.5z"/>
   <path class="fil0" d="M7411.61 1384.76c-78.13,0 -141.43,63.37 -141.43,141.5 0,78.13 63.3,141.5 141.43,141.5 78.2,0 141.5,-63.37 141.5,-141.5 0,-78.13 -63.3,-141.5 -141.5,-141.5z"/>
   <path class="fil0" d="M7411.61 1038.59c-78.13,0 -141.43,63.3 -141.43,141.43 0,78.18 63.3,141.55 141.43,141.55 78.2,0 141.5,-63.37 141.5,-141.55 0,-78.13 -63.3,-141.43 -141.5,-141.43z"/>
   <path class="fil0" d="M7065.44 3744.85c78.13,0 141.43,-63.32 141.43,-141.5 0,-78.13 -63.3,-141.43 -141.43,-141.43 -78.2,0 -141.5,63.3 -141.5,141.43 0,78.18 63.3,141.5 141.5,141.5z"/>
   <path class="fil0" d="M7065.44 3398.68c78.13,0 141.43,-63.39 141.43,-141.5 0,-78.13 -63.3,-141.5 -141.43,-141.5 -78.2,0 -141.5,63.37 -141.5,141.5 0,78.11 63.3,141.5 141.5,141.5z"/>
   <path class="fil0" d="M7065.44 3052.5c78.13,0 141.43,-63.37 141.43,-141.5 0,-78.13 -63.3,-141.5 -141.43,-141.5 -78.2,0 -141.5,63.37 -141.5,141.5 0,78.13 63.3,141.5 141.5,141.5z"/>
   <path class="fil0" d="M7065.44 2706.33c78.13,0 141.43,-63.37 141.43,-141.57 0,-78.13 -63.3,-141.43 -141.43,-141.43 -78.2,0 -141.5,63.3 -141.5,141.43 0,78.2 63.3,141.57 141.5,141.57z"/>
   <path class="fil0" d="M7065.44 2360.16c78.13,0 141.43,-63.37 141.43,-141.55 0,-78.13 -63.3,-141.44 -141.43,-141.44 -78.2,0 -141.5,63.32 -141.5,141.44 0,78.18 63.3,141.55 141.5,141.55z"/>
   <path class="fil0" d="M7065.44 2013.92c78.13,0 141.43,-63.3 141.43,-141.5 0,-78.11 -63.3,-141.5 -141.43,-141.5 -78.2,0 -141.5,63.39 -141.5,141.5 0,78.2 63.3,141.5 141.5,141.5z"/>
   <path class="fil0" d="M7065.44 1667.75c78.13,0 141.43,-63.37 141.43,-141.5 0,-78.13 -63.3,-141.5 -141.43,-141.5 -78.2,0 -141.5,63.37 -141.5,141.5 0,78.13 63.3,141.5 141.5,141.5z"/>
   <path class="fil0" d="M7065.44 1321.57c78.13,0 141.43,-63.37 141.43,-141.55 0,-78.13 -63.3,-141.43 -141.43,-141.43 -78.2,0 -141.5,63.3 -141.5,141.43 0,78.18 63.3,141.55 141.5,141.55z"/>
   <path class="fil0" d="M7065.44 629.16c78.13,0 141.43,-63.37 141.43,-141.5 0,-78.13 -63.3,-141.5 -141.43,-141.5 -78.2,0 -141.5,63.37 -141.5,141.5 0,78.13 63.3,141.5 141.5,141.5z"/>
   <path class="fil0" d="M7411.61 282.99c78.2,0 141.5,-63.39 141.5,-141.57 0,-78.13 -63.3,-141.43 -141.5,-141.43 -78.13,0 -141.43,63.3 -141.43,141.43 0,78.18 63.3,141.57 141.43,141.57z"/>
   <path class="fil0" d="M6719.26 4154.28c-78.18,0 -141.5,63.37 -141.5,141.5 0,78.11 63.32,141.48 141.5,141.48 78.13,0 141.5,-63.37 141.5,-141.48 0,-78.13 -63.37,-141.5 -141.5,-141.5z"/>
   <path class="fil0" d="M6719.26 4500.45c-78.18,0 -141.5,63.37 -141.5,141.5 0,78.18 63.32,141.5 141.5,141.5 78.13,0 141.5,-63.32 141.5,-141.5 0,-78.13 -63.37,-141.5 -141.5,-141.5z"/>
   <path class="fil0" d="M6719.26 3808.1c-78.18,0 -141.5,63.32 -141.5,141.44 0,78.18 63.32,141.55 141.5,141.55 78.13,0 141.5,-63.37 141.5,-141.55 0,-78.13 -63.37,-141.44 -141.5,-141.44z"/>
   <path class="fil0" d="M6719.26 3461.93c-78.18,0 -141.5,63.3 -141.5,141.43 0,78.18 63.32,141.5 141.5,141.5 78.13,0 141.5,-63.32 141.5,-141.5 0,-78.13 -63.37,-141.43 -141.5,-141.43z"/>
   <path class="fil0" d="M6719.26 3115.69c-78.18,0 -141.5,63.37 -141.5,141.5 0,78.11 63.32,141.5 141.5,141.5 78.13,0 141.5,-63.39 141.5,-141.5 0,-78.13 -63.37,-141.5 -141.5,-141.5z"/>
   <path class="fil0" d="M6719.26 2769.51c-78.18,0 -141.5,63.37 -141.5,141.5 0,78.13 63.32,141.5 141.5,141.5 78.13,0 141.5,-63.37 141.5,-141.5 0,-78.13 -63.37,-141.5 -141.5,-141.5z"/>
   <path class="fil0" d="M6719.26 2423.35c-78.18,0 -141.5,63.3 -141.5,141.43 0,78.2 63.32,141.57 141.5,141.57 78.13,0 141.5,-63.37 141.5,-141.57 0,-78.13 -63.37,-141.43 -141.5,-141.43z"/>
   <path class="fil0" d="M6719.26 2077.17c-78.18,0 -141.5,63.32 -141.5,141.44 0,78.18 63.32,141.55 141.5,141.55 78.13,0 141.5,-63.37 141.5,-141.55 0,-78.13 -63.37,-141.44 -141.5,-141.44z"/>
   <path class="fil0" d="M6719.26 1730.93c-78.18,0 -141.5,63.39 -141.5,141.5 0,78.2 63.32,141.5 141.5,141.5 78.13,0 141.5,-63.3 141.5,-141.5 0,-78.11 -63.37,-141.5 -141.5,-141.5z"/>
   <path class="fil0" d="M6719.26 1384.76c-78.18,0 -141.5,63.37 -141.5,141.5 0,78.13 63.32,141.5 141.5,141.5 78.13,0 141.5,-63.37 141.5,-141.5 0,-78.13 -63.37,-141.5 -141.5,-141.5z"/>
   <path class="fil0" d="M6719.26 1038.59c-78.18,0 -141.5,63.3 -141.5,141.43 0,78.18 63.32,141.55 141.5,141.55 78.13,0 141.5,-63.37 141.5,-141.55 0,-78.13 -63.37,-141.43 -141.5,-141.43z"/>
   <path class="fil0" d="M6373.02 1038.59c-78.11,0 -141.5,63.3 -141.5,141.43 0,78.18 63.39,141.55 141.5,141.55 78.2,0 141.5,-63.37 141.5,-141.55 0,-78.13 -63.3,-141.43 -141.5,-141.43z"/>
   <path class="fil0" d="M6373.02 4154.28c-78.11,0 -141.5,63.37 -141.5,141.5 0,78.11 63.39,141.48 141.5,141.48 78.2,0 141.5,-63.37 141.5,-141.48 0,-78.13 -63.3,-141.5 -141.5,-141.5z"/>
   <path class="fil0" d="M6373.02 4091.09c78.2,0 141.5,-63.37 141.5,-141.55 0,-78.13 -63.3,-141.44 -141.5,-141.44 -78.11,0 -141.5,63.32 -141.5,141.44 0,78.18 63.39,141.55 141.5,141.55z"/>
   <path class="fil0" d="M6373.02 3744.85c78.2,0 141.5,-63.32 141.5,-141.5 0,-78.13 -63.3,-141.43 -141.5,-141.43 -78.11,0 -141.5,63.3 -141.5,141.43 0,78.18 63.39,141.5 141.5,141.5z"/>
   <path class="fil0" d="M6373.02 3398.68c78.2,0 141.5,-63.39 141.5,-141.5 0,-78.13 -63.3,-141.5 -141.5,-141.5 -78.11,0 -141.5,63.37 -141.5,141.5 0,78.11 63.39,141.5 141.5,141.5z"/>
   <path class="fil0" d="M6373.02 3052.5c78.2,0 141.5,-63.37 141.5,-141.5 0,-78.13 -63.3,-141.5 -141.5,-141.5 -78.11,0 -141.5,63.37 -141.5,141.5 0,78.13 63.39,141.5 141.5,141.5z"/>
   <path class="fil0" d="M6373.02 2706.33c78.2,0 141.5,-63.37 141.5,-141.57 0,-78.13 -63.3,-141.43 -141.5,-141.43 -78.11,0 -141.5,63.3 -141.5,141.43 0,78.2 63.39,141.57 141.5,141.57z"/>
   <path class="fil0" d="M6373.02 2360.16c78.2,0 141.5,-63.37 141.5,-141.55 0,-78.13 -63.3,-141.44 -141.5,-141.44 -78.11,0 -141.5,63.32 -141.5,141.44 0,78.18 63.39,141.55 141.5,141.55z"/>
   <path class="fil0" d="M6373.02 2013.92c78.2,0 141.5,-63.3 141.5,-141.5 0,-78.11 -63.3,-141.5 -141.5,-141.5 -78.11,0 -141.5,63.39 -141.5,141.5 0,78.2 63.39,141.5 141.5,141.5z"/>
   <path class="fil0" d="M6373.02 1667.75c78.2,0 141.5,-63.37 141.5,-141.5 0,-78.13 -63.3,-141.5 -141.5,-141.5 -78.11,0 -141.5,63.37 -141.5,141.5 0,78.13 63.39,141.5 141.5,141.5z"/>
   <path class="fil0" d="M6026.87 3461.93c-78.13,0 -141.44,63.3 -141.44,141.43 0,78.18 63.32,141.5 141.44,141.5 78.18,0 141.5,-63.32 141.5,-141.5 0,-78.13 -63.32,-141.43 -141.5,-141.43z"/>
   <path class="fil0" d="M6026.87 3808.1c-78.13,0 -141.44,63.32 -141.44,141.44 0,78.18 63.32,141.55 141.44,141.55 78.18,0 141.5,-63.37 141.5,-141.55 0,-78.13 -63.32,-141.44 -141.5,-141.44z"/>
   <path class="fil0" d="M6026.87 3398.68c78.18,0 141.5,-63.39 141.5,-141.5 0,-78.13 -63.32,-141.5 -141.5,-141.5 -78.13,0 -141.44,63.37 -141.44,141.5 0,78.11 63.32,141.5 141.44,141.5z"/>
   <path class="fil0" d="M6026.87 3052.5c78.18,0 141.5,-63.37 141.5,-141.5 0,-78.13 -63.32,-141.5 -141.5,-141.5 -78.13,0 -141.44,63.37 -141.44,141.5 0,78.13 63.32,141.5 141.44,141.5z"/>
   <path class="fil0" d="M6026.87 2706.33c78.18,0 141.5,-63.37 141.5,-141.57 0,-78.13 -63.32,-141.43 -141.5,-141.43 -78.13,0 -141.44,63.3 -141.44,141.43 0,78.2 63.32,141.57 141.44,141.57z"/>
   <path class="fil0" d="M6026.87 2360.16c78.18,0 141.5,-63.37 141.5,-141.55 0,-78.13 -63.32,-141.44 -141.5,-141.44 -78.13,0 -141.44,63.32 -141.44,141.44 0,78.18 63.32,141.55 141.44,141.55z"/>
   <path class="fil0" d="M6026.87 2013.92c78.18,0 141.5,-63.3 141.5,-141.5 0,-78.11 -63.32,-141.5 -141.5,-141.5 -78.13,0 -141.44,63.39 -141.44,141.5 0,78.2 63.32,141.5 141.44,141.5z"/>
   <path class="fil0" d="M6026.87 1384.76c-78.13,0 -141.44,63.37 -141.44,141.5 0,78.13 63.32,141.5 141.44,141.5 78.18,0 141.5,-63.37 141.5,-141.5 0,-78.13 -63.32,-141.5 -141.5,-141.5z"/>
   <path class="fil0" d="M5680.68 3461.93c-78.11,0 -141.43,63.3 -141.43,141.43 0,78.18 63.32,141.5 141.43,141.5 78.2,0 141.5,-63.32 141.5,-141.5 0,-78.13 -63.3,-141.43 -141.5,-141.43z"/>
   <path class="fil0" d="M5680.68 3808.1c-78.11,0 -141.43,63.32 -141.43,141.44 0,78.18 63.32,141.55 141.43,141.55 78.2,0 141.5,-63.37 141.5,-141.55 0,-78.13 -63.3,-141.44 -141.5,-141.44z"/>
   <path class="fil0" d="M5680.68 4154.28c-78.11,0 -141.43,63.37 -141.43,141.5 0,78.11 63.32,141.48 141.43,141.48 78.2,0 141.5,-63.37 141.5,-141.48 0,-78.13 -63.3,-141.5 -141.5,-141.5z"/>
   <path class="fil0" d="M5680.68 3115.69c-78.11,0 -141.43,63.37 -141.43,141.5 0,78.11 63.32,141.5 141.43,141.5 78.2,0 141.5,-63.39 141.5,-141.5 0,-78.13 -63.3,-141.5 -141.5,-141.5z"/>
   <path class="fil0" d="M5680.68 2769.51c-78.11,0 -141.43,63.37 -141.43,141.5 0,78.13 63.32,141.5 141.43,141.5 78.2,0 141.5,-63.37 141.5,-141.5 0,-78.13 -63.3,-141.5 -141.5,-141.5z"/>
   <path class="fil0" d="M5680.68 2423.35c-78.11,0 -141.43,63.3 -141.43,141.43 0,78.2 63.32,141.57 141.43,141.57 78.2,0 141.5,-63.37 141.5,-141.57 0,-78.13 -63.3,-141.43 -141.5,-141.43z"/>
   <path class="fil0" d="M5680.68 2077.17c-78.11,0 -141.43,63.32 -141.43,141.44 0,78.18 63.32,141.55 141.43,141.55 78.2,0 141.5,-63.37 141.5,-141.55 0,-78.13 -63.3,-141.44 -141.5,-141.44z"/>
   <path class="fil0" d="M5680.68 1730.93c-78.11,0 -141.43,63.39 -141.43,141.5 0,78.2 63.32,141.5 141.43,141.5 78.2,0 141.5,-63.3 141.5,-141.5 0,-78.11 -63.3,-141.5 -141.5,-141.5z"/>
   <path class="fil0" d="M5539.26 1526.26c0,78.13 63.32,141.5 141.43,141.5 78.2,0 141.5,-63.37 141.5,-141.5 0,-78.13 -63.3,-141.5 -141.5,-141.5 -7.74,0 -15.18,1.1 -22.55,2.28 -13.64,8.29 -28.09,13.89 -43.72,14.93 -44.5,23.78 -75.16,70.18 -75.16,124.28z"/>
   <path class="fil0" d="M5334.51 3744.85c78.13,0 141.43,-63.32 141.43,-141.5 0,-78.13 -63.3,-141.43 -141.43,-141.43 -78.18,0 -141.5,63.3 -141.5,141.43 0,78.18 63.32,141.5 141.5,141.5z"/>
   <path class="fil0" d="M5334.51 4091.09c78.13,0 141.43,-63.37 141.43,-141.55 0,-78.13 -63.3,-141.44 -141.43,-141.44 -78.18,0 -141.5,63.32 -141.5,141.44 0,78.18 63.32,141.55 141.5,141.55z"/>
   <path class="fil0" d="M5334.51 3398.68c78.13,0 141.43,-63.39 141.43,-141.5 0,-78.13 -63.3,-141.5 -141.43,-141.5 -78.18,0 -141.5,63.37 -141.5,141.5 0,78.11 63.32,141.5 141.5,141.5z"/>
   <path class="fil0" d="M5334.51 3052.5c78.13,0 141.43,-63.37 141.43,-141.5 0,-78.13 -63.3,-141.5 -141.43,-141.5 -78.18,0 -141.5,63.37 -141.5,141.5 0,78.13 63.32,141.5 141.5,141.5z"/>
   <path class="fil0" d="M5334.51 2706.33c78.13,0 141.43,-63.37 141.43,-141.57 0,-78.13 -63.3,-141.43 -141.43,-141.43 -78.18,0 -141.5,63.3 -141.5,141.43 0,78.2 63.32,141.57 141.5,141.57z"/>
   <path class="fil0" d="M5334.51 2360.16c78.13,0 141.43,-63.37 141.43,-141.55 0,-78.13 -63.3,-141.44 -141.43,-141.44 -78.18,0 -141.5,63.32 -141.5,141.44 0,78.18 63.32,141.55 141.5,141.55z"/>
   <path class="fil0" d="M5334.51 2013.92c78.13,0 141.43,-63.3 141.43,-141.5 0,-78.11 -63.3,-141.5 -141.43,-141.5 -78.18,0 -141.5,63.39 -141.5,141.5 0,78.2 63.32,141.5 141.5,141.5z"/>
   <path class="fil0" d="M5129.77 3949.54c0,-78.13 -63.32,-141.44 -141.43,-141.44 -78.2,0 -141.5,63.32 -141.5,141.44 0,78.18 63.3,141.55 141.5,141.55 23.47,0 45.16,-6.27 64.66,-16.34 7.49,-5.3 15.12,-10.33 22.98,-14.88 32.58,-25.94 53.79,-65.46 53.79,-110.33z"/>
   <path class="fil0" d="M4988.34 3461.93c-78.2,0 -141.5,63.3 -141.5,141.43 0,78.18 63.3,141.5 141.5,141.5 78.11,0 141.43,-63.32 141.43,-141.5 0,-78.13 -63.32,-141.43 -141.43,-141.43z"/>
   <path class="fil0" d="M4988.34 3115.69c-78.2,0 -141.5,63.37 -141.5,141.5 0,78.11 63.3,141.5 141.5,141.5 78.11,0 141.43,-63.39 141.43,-141.5 0,-78.13 -63.32,-141.5 -141.43,-141.5z"/>
   <path class="fil0" d="M4988.34 2769.51c-78.2,0 -141.5,63.37 -141.5,141.5 0,78.13 63.3,141.5 141.5,141.5 78.11,0 141.43,-63.37 141.43,-141.5 0,-78.13 -63.32,-141.5 -141.43,-141.5z"/>
   <path class="fil0" d="M4988.34 2423.35c-78.2,0 -141.5,63.3 -141.5,141.43 0,78.2 63.3,141.57 141.5,141.57 78.11,0 141.43,-63.37 141.43,-141.57 0,-78.13 -63.32,-141.43 -141.43,-141.43z"/>
   <path class="fil0" d="M4988.34 2077.17c-78.2,0 -141.5,63.32 -141.5,141.44 0,78.18 63.3,141.55 141.5,141.55 78.11,0 141.43,-63.37 141.43,-141.55 0,-78.13 -63.32,-141.44 -141.43,-141.44z"/>
   <path class="fil0" d="M4988.34 1730.93c-78.2,0 -141.5,63.39 -141.5,141.5 0,78.2 63.3,141.5 141.5,141.5 78.11,0 141.43,-63.3 141.43,-141.5 0,-78.11 -63.32,-141.5 -141.43,-141.5z"/>
   <path class="fil0" d="M4988.34 1667.75c78.11,0 141.43,-63.37 141.43,-141.5 0,-78.13 -63.32,-141.5 -141.43,-141.5 -78.2,0 -141.5,63.37 -141.5,141.5 0,78.13 63.3,141.5 141.5,141.5z"/>
   <path class="fil0" d="M4642.11 4154.28c-78.2,0 -141.5,63.37 -141.5,141.5 0,78.11 63.3,141.48 141.5,141.48 78.11,0 141.5,-63.37 141.5,-141.48 0,-78.13 -63.39,-141.5 -141.5,-141.5z"/>
   <path class="fil0" d="M4642.11 4091.09c78.11,0 141.5,-63.37 141.5,-141.55 0,-78.13 -63.39,-141.44 -141.5,-141.44 -78.2,0 -141.5,63.32 -141.5,141.44 0,78.18 63.3,141.55 141.5,141.55z"/>
   <path class="fil0" d="M4642.11 3744.85c78.11,0 141.5,-63.32 141.5,-141.5 0,-78.13 -63.39,-141.43 -141.5,-141.43 -78.2,0 -141.5,63.3 -141.5,141.43 0,78.18 63.3,141.5 141.5,141.5z"/>
   <path class="fil0" d="M4642.11 3398.68c78.11,0 141.5,-63.39 141.5,-141.5 0,-78.13 -63.39,-141.5 -141.5,-141.5 -78.2,0 -141.5,63.37 -141.5,141.5 0,78.11 63.3,141.5 141.5,141.5z"/>
   <path class="fil0" d="M4642.11 3052.5c78.11,0 141.5,-63.37 141.5,-141.5 0,-78.13 -63.39,-141.5 -141.5,-141.5 -78.2,0 -141.5,63.37 -141.5,141.5 0,78.13 63.3,141.5 141.5,141.5z"/>
   <path class="fil0" d="M4642.11 2706.33c78.11,0 141.5,-63.37 141.5,-141.57 0,-78.13 -63.39,-141.43 -141.5,-141.43 -78.2,0 -141.5,63.3 -141.5,141.43 0,78.2 63.3,141.57 141.5,141.57z"/>
   <path class="fil0" d="M4642.11 2360.16c78.11,0 141.5,-63.37 141.5,-141.55 0,-78.13 -63.39,-141.44 -141.5,-141.44 -78.2,0 -141.5,63.32 -141.5,141.44 0,78.18 63.3,141.55 141.5,141.55z"/>
   <path class="fil0" d="M4642.11 1730.93c-78.2,0 -141.5,63.39 -141.5,141.5 0,78.2 63.3,141.5 141.5,141.5 78.11,0 141.5,-63.3 141.5,-141.5 0,-78.11 -63.39,-141.5 -141.5,-141.5z"/>
   <path class="fil0" d="M4642.11 1667.75c78.11,0 141.5,-63.37 141.5,-141.5 0,-78.13 -63.39,-141.5 -141.5,-141.5 -78.2,0 -141.5,63.37 -141.5,141.5 0,78.13 63.3,141.5 141.5,141.5z"/>
   <path class="fil0" d="M4642.11 1321.57c78.11,0 141.5,-63.37 141.5,-141.55 0,-78.13 -63.39,-141.43 -141.5,-141.43 -78.2,0 -141.5,63.3 -141.5,141.43 0,78.18 63.3,141.55 141.5,141.55z"/>
   <path class="fil0" d="M4295.92 4783.44c78.18,0 141.5,-63.32 141.5,-141.5 0,-78.13 -63.32,-141.5 -141.5,-141.5 -78.13,0 -141.5,63.37 -141.5,141.5 0,78.18 63.37,141.5 141.5,141.5z"/>
   <path class="fil0" d="M4642.16 4783.44c78.13,0 141.5,-63.32 141.5,-141.5 0,-78.13 -63.37,-141.5 -141.5,-141.5 -78.18,0 -141.5,63.37 -141.5,141.5 0,78.18 63.32,141.5 141.5,141.5z"/>
   <path class="fil0" d="M4295.92 4437.26c78.18,0 141.5,-63.37 141.5,-141.48 0,-78.13 -63.32,-141.5 -141.5,-141.5 -78.13,0 -141.5,63.37 -141.5,141.5 0,78.11 63.37,141.48 141.5,141.48z"/>
   <path class="fil0" d="M4295.92 3808.1c-78.13,0 -141.5,63.32 -141.5,141.44 0,78.18 63.37,141.55 141.5,141.55 78.18,0 141.5,-63.37 141.5,-141.55 0,-78.13 -63.32,-141.44 -141.5,-141.44z"/>
   <path class="fil0" d="M4295.92 3461.93c-78.13,0 -141.5,63.3 -141.5,141.43 0,78.18 63.37,141.5 141.5,141.5 78.18,0 141.5,-63.32 141.5,-141.5 0,-78.13 -63.32,-141.43 -141.5,-141.43z"/>
   <path class="fil0" d="M4295.92 3115.69c-78.13,0 -141.5,63.37 -141.5,141.5 0,78.11 63.37,141.5 141.5,141.5 78.18,0 141.5,-63.39 141.5,-141.5 0,-78.13 -63.32,-141.5 -141.5,-141.5z"/>
   <path class="fil0" d="M4295.92 2769.51c-78.13,0 -141.5,63.37 -141.5,141.5 0,78.13 63.37,141.5 141.5,141.5 78.18,0 141.5,-63.37 141.5,-141.5 0,-78.13 -63.32,-141.5 -141.5,-141.5z"/>
   <path class="fil0" d="M4295.92 2423.35c-78.13,0 -141.5,63.3 -141.5,141.43 0,78.2 63.37,141.57 141.5,141.57 78.18,0 141.5,-63.37 141.5,-141.57 0,-78.13 -63.32,-141.43 -141.5,-141.43z"/>
   <path class="fil0" d="M4295.92 1384.76c-78.13,0 -141.5,63.37 -141.5,141.5 0,78.13 63.37,141.5 141.5,141.5 78.18,0 141.5,-63.37 141.5,-141.5 0,-78.13 -63.32,-141.5 -141.5,-141.5z"/>
   <path class="fil0" d="M4295.92 1730.93c-78.13,0 -141.5,63.39 -141.5,141.5 0,78.13 63.37,141.5 141.5,141.5 78.18,0 141.5,-63.37 141.5,-141.5 0,-78.11 -63.32,-141.5 -141.5,-141.5z"/>
   <path class="fil0" d="M4295.92 1038.59c-78.13,0 -141.5,63.3 -141.5,141.43 0,78.18 63.37,141.55 141.5,141.55 78.18,0 141.5,-63.37 141.5,-141.55 0,-78.13 -63.32,-141.43 -141.5,-141.43z"/>
   <path class="fil0" d="M4295.92 692.35c-78.13,0 -141.5,63.37 -141.5,141.5 0,78.18 63.37,141.48 141.5,141.48 78.18,0 141.5,-63.3 141.5,-141.48 0,-78.13 -63.32,-141.5 -141.5,-141.5z"/>
   <path class="fil0" d="M4642.11 692.35c-78.2,0 -141.5,63.37 -141.5,141.5 0,78.18 63.3,141.48 141.5,141.48 78.11,0 141.5,-63.3 141.5,-141.48 0,-78.13 -63.39,-141.5 -141.5,-141.5z"/>
   <path class="fil0" d="M4988.27 692.35c-78.18,0 -141.5,63.37 -141.5,141.5 0,78.18 63.32,141.48 141.5,141.48 78.13,0 141.43,-63.3 141.43,-141.48 0,-78.13 -63.3,-141.5 -141.43,-141.5z"/>
   <path class="fil0" d="M3949.68 4846.69c-78.13,0 -141.5,63.32 -141.5,141.43 0,78.2 63.37,141.57 141.5,141.57 78.18,0 141.5,-63.37 141.5,-141.57 0,-78.11 -63.32,-141.43 -141.5,-141.43z"/>
   <path class="fil0" d="M3949.68 5192.86c-78.13,0 -141.5,63.39 -141.5,141.5 0,78.13 63.37,141.5 141.5,141.5 78.18,0 141.5,-63.37 141.5,-141.5 0,-78.11 -63.32,-141.5 -141.5,-141.5z"/>
   <path class="fil0" d="M3949.68 4783.44c78.18,0 141.5,-63.32 141.5,-141.5 0,-78.13 -63.32,-141.5 -141.5,-141.5 -78.13,0 -141.5,63.37 -141.5,141.5 0,78.18 63.37,141.5 141.5,141.5z"/>
   <path class="fil0" d="M3949.68 4437.26c78.18,0 141.5,-63.37 141.5,-141.48 0,-78.13 -63.32,-141.5 -141.5,-141.5 -78.13,0 -141.5,63.37 -141.5,141.5 0,78.11 63.37,141.48 141.5,141.48z"/>
   <path class="fil0" d="M3949.68 4091.09c78.18,0 141.5,-63.37 141.5,-141.55 0,-78.13 -63.32,-141.44 -141.5,-141.44 -78.13,0 -141.5,63.32 -141.5,141.44 0,78.18 63.37,141.55 141.5,141.55z"/>
   <path class="fil0" d="M3949.68 3744.85c78.18,0 141.5,-63.32 141.5,-141.5 0,-78.13 -63.32,-141.43 -141.5,-141.43 -78.13,0 -141.5,63.3 -141.5,141.43 0,78.18 63.37,141.5 141.5,141.5z"/>
   <path class="fil0" d="M3949.68 3398.68c78.18,0 141.5,-63.39 141.5,-141.5 0,-78.13 -63.32,-141.5 -141.5,-141.5 -78.13,0 -141.5,63.37 -141.5,141.5 0,78.11 63.37,141.5 141.5,141.5z"/>
   <path class="fil0" d="M3949.68 3052.5c78.18,0 141.5,-63.37 141.5,-141.5 0,-78.13 -63.32,-141.5 -141.5,-141.5 -78.13,0 -141.5,63.37 -141.5,141.5 0,78.13 63.37,141.5 141.5,141.5z"/>
   <path class="fil0" d="M3949.68 975.33c78.18,0 141.5,-63.3 141.5,-141.48 0,-78.13 -63.32,-141.5 -141.5,-141.5 -78.13,0 -141.5,63.37 -141.5,141.5 0,78.18 63.37,141.48 141.5,141.48z"/>
   <path class="fil0" d="M3949.68 1321.51c78.18,0 141.5,-63.37 141.5,-141.5 0,-78.13 -63.32,-141.5 -141.5,-141.5 -78.13,0 -141.5,63.37 -141.5,141.5 0,78.13 63.37,141.5 141.5,141.5z"/>
   <path class="fil0" d="M3949.68 1667.68c78.18,0 141.5,-63.37 141.5,-141.5 0,-78.11 -63.32,-141.5 -141.5,-141.5 -78.13,0 -141.5,63.39 -141.5,141.5 0,78.13 63.37,141.5 141.5,141.5z"/>
   <path class="fil0" d="M3949.68 2013.87c78.18,0 141.5,-63.37 141.5,-141.5 0,-78.13 -63.32,-141.5 -141.5,-141.5 -78.13,0 -141.5,63.37 -141.5,141.5 0,78.13 63.37,141.5 141.5,141.5z"/>
   <path class="fil0" d="M3603.51 4154.28c-78.2,0 -141.5,63.37 -141.5,141.5 0,78.11 63.3,141.48 141.5,141.48 78.13,0 141.43,-63.37 141.43,-141.48 0,-78.13 -63.3,-141.5 -141.43,-141.5z"/>
   <path class="fil0" d="M3603.51 3808.1c-78.2,0 -141.5,63.32 -141.5,141.44 0,78.18 63.3,141.55 141.5,141.55 78.13,0 141.43,-63.37 141.43,-141.55 0,-78.13 -63.3,-141.44 -141.43,-141.44z"/>
   <path class="fil0" d="M3603.51 3744.85c78.13,0 141.43,-63.32 141.43,-141.5 0,-78.13 -63.3,-141.43 -141.43,-141.43 -78.2,0 -141.5,63.3 -141.5,141.43 0,78.18 63.3,141.5 141.5,141.5z"/>
   <path class="fil0" d="M3603.51 3398.68c78.13,0 141.43,-63.39 141.43,-141.5 0,-78.13 -63.3,-141.5 -141.43,-141.5 -78.2,0 -141.5,63.37 -141.5,141.5 0,78.11 63.3,141.5 141.5,141.5z"/>
   <path class="fil0" d="M3603.51 1038.59c-78.2,0 -141.5,63.3 -141.5,141.43 0,78.18 63.3,141.55 141.5,141.55 78.13,0 141.43,-63.37 141.43,-141.55 0,-78.13 -63.3,-141.43 -141.43,-141.43z"/>
   <path class="fil0" d="M3603.51 975.33c78.13,0 141.43,-63.3 141.43,-141.48 0,-78.13 -63.3,-141.5 -141.43,-141.5 -78.2,0 -141.5,63.37 -141.5,141.5 0,78.18 63.3,141.48 141.5,141.48z"/>
   <path class="fil0" d="M3257.33 975.33c78.13,0 141.44,-63.3 141.44,-141.48 0,-78.13 -63.32,-141.5 -141.44,-141.5 -78.18,0 -141.5,63.37 -141.5,141.5 0,78.18 63.32,141.48 141.5,141.48z"/>
   <path class="fil0" d="M3257.27 4154.28c-78.13,0 -141.5,63.37 -141.5,141.5 0,78.11 63.37,141.48 141.5,141.48 78.13,0 141.5,-63.37 141.5,-141.48 0,-78.13 -63.37,-141.5 -141.5,-141.5z"/>
   <path class="fil0" d="M3257.27 3808.1c-78.13,0 -141.5,63.32 -141.5,141.44 0,78.18 63.37,141.55 141.5,141.55 78.13,0 141.5,-63.37 141.5,-141.55 0,-78.13 -63.37,-141.44 -141.5,-141.44z"/>
   <path class="fil0" d="M3257.27 3461.93c-78.13,0 -141.5,63.3 -141.5,141.43 0,78.18 63.37,141.5 141.5,141.5 78.13,0 141.5,-63.32 141.5,-141.5 0,-78.13 -63.37,-141.43 -141.5,-141.43z"/>
   <path class="fil0" d="M3257.27 3398.68c78.13,0 141.5,-63.39 141.5,-141.5 0,-78.13 -63.37,-141.5 -141.5,-141.5 -78.13,0 -141.5,63.37 -141.5,141.5 0,78.11 63.37,141.5 141.5,141.5z"/>
   <path class="fil0" d="M3257.27 1321.57c78.13,0 141.5,-63.37 141.5,-141.55 0,-78.13 -63.37,-141.43 -141.5,-141.43 -78.13,0 -141.5,63.3 -141.5,141.43 0,78.18 63.37,141.55 141.5,141.55z"/>
   <path class="fil0" d="M2911.09 1321.57c78.13,0 141.57,-63.37 141.57,-141.55 0,-78.13 -63.44,-141.43 -141.57,-141.43 -78.13,0 -141.5,63.3 -141.5,141.43 0,78.18 63.37,141.55 141.5,141.55z"/>
   <path class="fil0" d="M3257.27 1667.75c78.13,0 141.5,-63.37 141.5,-141.57 0,-78.11 -63.37,-141.43 -141.5,-141.43 -78.13,0 -141.5,63.32 -141.5,141.43 0,78.2 63.37,141.57 141.5,141.57z"/>
   <path class="fil0" d="M3257.27 2013.87c78.13,0 141.5,-63.32 141.5,-141.5 0,-78.13 -63.37,-141.5 -141.5,-141.5 -78.13,0 -141.5,63.37 -141.5,141.5 0,78.18 63.37,141.5 141.5,141.5z"/>
   <path class="fil0" d="M3257.27 2360.04c78.13,0 141.5,-63.37 141.5,-141.5 0,-78.13 -63.37,-141.5 -141.5,-141.5 -78.13,0 -141.5,63.37 -141.5,141.5 0,78.13 63.37,141.5 141.5,141.5z"/>
   <path class="fil0" d="M2911.09 3808.1c-78.18,0 -141.5,63.32 -141.5,141.44 0,78.18 63.32,141.55 141.5,141.55 78.13,0 141.5,-63.37 141.5,-141.55 0,-78.13 -63.37,-141.44 -141.5,-141.44z"/>
   <path class="fil0" d="M2911.09 3461.93c-78.18,0 -141.5,63.3 -141.5,141.43 0,78.18 63.32,141.5 141.5,141.5 78.13,0 141.5,-63.32 141.5,-141.5 0,-78.13 -63.37,-141.43 -141.5,-141.43z"/>
   <path class="fil0" d="M2911.09 3398.68c78.13,0 141.5,-63.39 141.5,-141.5 0,-78.13 -63.37,-141.5 -141.5,-141.5 -78.18,0 -141.5,63.37 -141.5,141.5 0,78.11 63.32,141.5 141.5,141.5z"/>
   <path class="fil0" d="M2911.09 2360.16c78.13,0 141.5,-63.37 141.5,-141.55 0,-78.13 -63.37,-141.44 -141.5,-141.44 -78.18,0 -141.5,63.32 -141.5,141.44 0,78.18 63.32,141.55 141.5,141.55z"/>
   <path class="fil0" d="M2911.09 2013.92c78.13,0 141.5,-63.3 141.5,-141.5 0,-78.11 -63.37,-141.5 -141.5,-141.5 -78.18,0 -141.5,63.39 -141.5,141.5 0,78.2 63.32,141.5 141.5,141.5z"/>
   <path class="fil0" d="M2911.09 1667.75c78.13,0 141.5,-63.37 141.5,-141.5 0,-78.13 -63.37,-141.5 -141.5,-141.5 -78.18,0 -141.5,63.37 -141.5,141.5 0,78.13 63.32,141.5 141.5,141.5z"/>
   <path class="fil0" d="M2564.92 1667.75c78.13,0 141.5,-63.37 141.5,-141.5 0,-78.13 -63.37,-141.5 -141.5,-141.5 -78.2,0 -141.5,63.37 -141.5,141.5 0,78.13 63.3,141.5 141.5,141.5z"/>
   <path class="fil0" d="M2564.92 3808.1c-78.2,0 -141.5,63.32 -141.5,141.44 0,78.18 63.3,141.55 141.5,141.55 78.13,0 141.5,-63.37 141.5,-141.55 0,-78.13 -63.37,-141.44 -141.5,-141.44z"/>
   <path class="fil0" d="M2564.92 4154.28c-78.2,0 -141.5,63.37 -141.5,141.5 0,78.11 63.3,141.48 141.5,141.48 78.13,0 141.5,-63.37 141.5,-141.48 0,-78.13 -63.37,-141.5 -141.5,-141.5z"/>
   <path class="fil0" d="M2911.09 4500.45c-78.18,0 -141.5,63.37 -141.5,141.5 0,78.13 63.32,141.5 141.5,141.5 78.13,0 141.5,-63.37 141.5,-141.5 0,-78.13 -63.37,-141.5 -141.5,-141.5z"/>
   <path class="fil0" d="M3257.33 4846.69c-78.18,0 -141.5,63.32 -141.5,141.43 0,78.2 63.32,141.57 141.5,141.57 78.13,0 141.44,-63.37 141.44,-141.57 0,-78.11 -63.32,-141.43 -141.44,-141.43z"/>
   <path class="fil0" d="M2564.92 3461.93c-78.2,0 -141.5,63.3 -141.5,141.43 0,78.18 63.3,141.5 141.5,141.5 78.13,0 141.5,-63.32 141.5,-141.5 0,-78.13 -63.37,-141.43 -141.5,-141.43z"/>
   <path class="fil0" d="M2564.92 3398.68c78.13,0 141.5,-63.39 141.5,-141.5 0,-78.13 -63.37,-141.5 -141.5,-141.5 -78.2,0 -141.5,63.37 -141.5,141.5 0,78.11 63.3,141.5 141.5,141.5z"/>
   <path class="fil0" d="M2564.92 3052.5c78.13,0 141.5,-63.37 141.5,-141.5 0,-78.13 -63.37,-141.5 -141.5,-141.5 -78.2,0 -141.5,63.37 -141.5,141.5 0,78.13 63.3,141.5 141.5,141.5z"/>
   <path class="fil0" d="M2564.92 1730.93c-78.2,0 -141.5,63.39 -141.5,141.5 0,78.2 63.3,141.5 141.5,141.5 78.13,0 141.5,-63.3 141.5,-141.5 0,-78.11 -63.37,-141.5 -141.5,-141.5z"/>
   <path class="fil0" d="M2218.68 3808.1c-78.06,0 -141.5,63.32 -141.5,141.44 0,78.18 63.44,141.55 141.5,141.55 78.18,0 141.55,-63.37 141.55,-141.55 0,-78.13 -63.37,-141.44 -141.55,-141.44z"/>
   <path class="fil0" d="M2218.68 3744.85c78.18,0 141.55,-63.32 141.55,-141.5 0,-78.13 -63.37,-141.43 -141.55,-141.43 -78.06,0 -141.5,63.3 -141.5,141.43 0,78.18 63.44,141.5 141.5,141.5z"/>
   <path class="fil0" d="M2218.68 3115.69c-78.06,0 -141.5,63.37 -141.5,141.5 0,78.11 63.44,141.5 141.5,141.5 78.18,0 141.55,-63.39 141.55,-141.5 0,-78.13 -63.37,-141.5 -141.55,-141.5z"/>
   <path class="fil0" d="M1872.5 3115.69c-78.11,0 -141.43,63.37 -141.43,141.5 0,78.11 63.32,141.5 141.43,141.5 78.2,0 141.5,-63.39 141.5,-141.5 0,-78.13 -63.3,-141.5 -141.5,-141.5z"/>
   <path class="fil0" d="M2218.68 2769.51c-78.06,0 -141.5,63.37 -141.5,141.5 0,78.13 63.44,141.5 141.5,141.5 78.18,0 141.55,-63.37 141.55,-141.5 0,-78.13 -63.37,-141.5 -141.55,-141.5z"/>
   <path class="fil0" d="M2218.68 2013.92c78.18,0 141.55,-63.3 141.55,-141.5 0,-78.11 -63.37,-141.5 -141.55,-141.5 -78.06,0 -141.5,63.39 -141.5,141.5 0,78.2 63.44,141.5 141.5,141.5z"/>
   <path class="fil0" d="M2218.68 2360.11c78.18,0 141.55,-63.37 141.55,-141.5 0,-78.13 -63.37,-141.5 -141.55,-141.5 -78.06,0 -141.5,63.37 -141.5,141.5 0,78.13 63.44,141.5 141.5,141.5z"/>
   <path class="fil0" d="M1872.5 4437.26c78.2,0 141.5,-63.37 141.5,-141.48 0,-78.13 -63.3,-141.5 -141.5,-141.5 -78.11,0 -141.43,63.37 -141.43,141.5 0,78.11 63.32,141.48 141.43,141.48z"/>
   <path class="fil0" d="M1872.5 3808.1c-78.11,0 -141.43,63.32 -141.43,141.44 0,78.18 63.32,141.55 141.43,141.55 78.2,0 141.5,-63.37 141.5,-141.55 0,-78.13 -63.3,-141.44 -141.5,-141.44z"/>
   <path class="fil0" d="M1872.5 3461.93c-78.11,0 -141.43,63.3 -141.43,141.43 0,78.18 63.32,141.5 141.43,141.5 78.2,0 141.5,-63.32 141.5,-141.5 0,-78.13 -63.3,-141.43 -141.5,-141.43z"/>
   <path class="fil0" d="M1526.33 4154.28c-78.13,0 -141.5,63.37 -141.5,141.5 0,78.11 63.37,141.48 141.5,141.48 78.13,0 141.5,-63.37 141.5,-141.48 0,-78.13 -63.37,-141.5 -141.5,-141.5z"/>
   <path class="fil0" d="M1526.33 3808.1c-78.13,0 -141.5,63.32 -141.5,141.44 0,78.18 63.37,141.55 141.5,141.55 78.13,0 141.5,-63.37 141.5,-141.55 0,-78.13 -63.37,-141.44 -141.5,-141.44z"/>
   <path class="fil0" d="M1526.33 3744.85c78.13,0 141.5,-63.32 141.5,-141.5 0,-78.13 -63.37,-141.43 -141.5,-141.43 -78.13,0 -141.5,63.3 -141.5,141.43 0,78.18 63.37,141.5 141.5,141.5z"/>
   <path class="fil0" d="M1180.16 4783.44c78.11,0 141.43,-63.32 141.43,-141.5 0,-78.13 -63.32,-141.5 -141.43,-141.5 -78.2,0 -141.5,63.37 -141.5,141.5 0,78.18 63.3,141.5 141.5,141.5z"/>
   <path class="fil0" d="M1180.16 4154.28c-78.2,0 -141.5,63.37 -141.5,141.5 0,78.11 63.3,141.48 141.5,141.48 78.11,0 141.43,-63.37 141.43,-141.48 0,-78.13 -63.32,-141.5 -141.43,-141.5z"/>
   <path class="fil0" d="M1180.16 3808.1c-78.2,0 -141.5,63.32 -141.5,141.44 0,78.18 63.3,141.55 141.5,141.55 78.11,0 141.43,-63.37 141.43,-141.55 0,-78.13 -63.32,-141.44 -141.43,-141.44z"/>
   <path class="fil0" d="M1180.16 3115.69c-78.2,0 -141.5,63.37 -141.5,141.5 0,78.11 63.3,141.5 141.5,141.5 78.11,0 141.43,-63.39 141.43,-141.5 0,-78.13 -63.32,-141.5 -141.43,-141.5z"/>
   <path class="fil0" d="M833.92 3115.69c-78.13,0 -141.5,63.37 -141.5,141.5 0,78.11 63.37,141.5 141.5,141.5 78.11,0 141.55,-63.39 141.55,-141.5 0,-78.13 -63.44,-141.5 -141.55,-141.5z"/>
   <path class="fil0" d="M833.92 2769.51c-78.13,0 -141.5,63.37 -141.5,141.5 0,78.13 63.37,141.5 141.5,141.5 78.11,0 141.55,-63.37 141.55,-141.5 0,-78.13 -63.44,-141.5 -141.55,-141.5z"/>
   <path class="fil0" d="M833.92 2423.35c-78.13,0 -141.5,63.3 -141.5,141.43 0,78.2 63.37,141.57 141.5,141.57 78.11,0 141.55,-63.37 141.55,-141.57 0,-78.13 -63.44,-141.43 -141.55,-141.43z"/>
   <path class="fil0" d="M487.73 2769.51c-78.13,0 -141.5,63.37 -141.5,141.5 0,78.13 63.37,141.5 141.5,141.5 78.13,0 141.5,-63.37 141.5,-141.5 0,-78.13 -63.37,-141.5 -141.5,-141.5z"/>
   <path class="fil0" d="M833.92 5129.68c78.11,0 141.55,-63.37 141.55,-141.57 0,-78.11 -63.44,-141.43 -141.55,-141.43 -78.13,0 -141.5,63.32 -141.5,141.43 0,78.2 63.37,141.57 141.5,141.57z"/>
   <path class="fil0" d="M487.73 5475.85c78.13,0 141.5,-63.37 141.5,-141.5 0,-78.11 -63.37,-141.5 -141.5,-141.5 -78.13,0 -141.5,63.39 -141.5,141.5 0,78.13 63.37,141.5 141.5,141.5z"/>
   <path class="fil0" d="M487.73 4846.69c-78.13,0 -141.5,63.32 -141.5,141.43 0,78.2 63.37,141.57 141.5,141.57 78.13,0 141.5,-63.37 141.5,-141.57 0,-78.11 -63.37,-141.43 -141.5,-141.43z"/>
   <path class="fil0" d="M283.06 5334.36c0,-78.11 -63.39,-141.5 -141.57,-141.5 -78.06,0 -141.5,63.39 -141.5,141.5 0,55.95 32.83,103.83 79.85,126.81 22.01,2.77 42.41,8.05 62.01,14.69 78,-0.24 141.2,-63.49 141.2,-141.5z"/>
   <path class="fil0" d="M141.5 5129.68c78.18,0 141.57,-63.37 141.57,-141.57 0,-78.11 -63.39,-141.43 -141.57,-141.43 -78.06,0 -141.5,63.32 -141.5,141.43 0,78.2 63.44,141.57 141.5,141.57z"/>
   <path class="fil0" d="M141.5 4500.45c-78.06,0 -141.5,63.37 -141.5,141.5 0,78.18 63.44,141.5 141.5,141.5 78.18,0 141.57,-63.32 141.57,-141.5 0,-78.13 -63.39,-141.5 -141.57,-141.5z"/>
   <path class="fil0" d="M2218.68 3115.69c-78.06,0 -141.5,63.37 -141.5,141.5 0,78.11 63.44,141.5 141.5,141.5 78.18,0 141.55,-63.39 141.55,-141.5 0,-78.13 -63.37,-141.5 -141.55,-141.5z"/>
   <path class="fil0" d="M487.73 4500.45c-78.13,0 -141.5,63.37 -141.5,141.5 0,78.18 63.37,141.5 141.5,141.5 78.13,0 141.5,-63.32 141.5,-141.5 0,-78.13 -63.37,-141.5 -141.5,-141.5z"/>
   <path class="fil0" d="M2564.92 3115.69c-78.2,0 -141.5,63.37 -141.5,141.5 0,78.11 63.3,141.5 141.5,141.5 78.13,0 141.5,-63.39 141.5,-141.5 0,-78.13 -63.37,-141.5 -141.5,-141.5z"/>
   <path class="fil0" d="M833.92 4500.45c-78.13,0 -141.5,63.37 -141.5,141.5 0,78.18 63.37,141.5 141.5,141.5 78.11,0 141.55,-63.32 141.55,-141.5 0,-78.13 -63.44,-141.5 -141.55,-141.5z"/>
   <path class="fil0" d="M7206.87 4641.95c0,-78.13 -63.3,-141.43 -141.37,-141.5 -78.18,0.07 -141.5,63.37 -141.5,141.5 0,78.18 63.32,141.5 141.5,141.5 78.07,0 141.37,-63.32 141.37,-141.5z"/>
   <path class="fil0" d="M6924 3949.54c0,78.18 63.32,141.5 141.5,141.55 78.07,-0.05 141.37,-63.37 141.37,-141.55 0,-78.13 -63.3,-141.44 -141.37,-141.44 -78.18,0 -141.5,63.32 -141.5,141.44z"/>
   <path class="fil0" d="M6924 4295.78c0,78.11 63.32,141.48 141.5,141.48 78.07,0 141.37,-63.37 141.37,-141.48 0,-78.13 -63.3,-141.44 -141.37,-141.5 -78.18,0.05 -141.5,63.37 -141.5,141.5z"/>
  </g>
 </g>
</svg>
