<?xml version="1.0" encoding="UTF-8"?>
<!DOCTYPE svg PUBLIC "-//W3C//DTD SVG 1.1//EN" "http://www.w3.org/Graphics/SVG/1.1/DTD/svg11.dtd">
<!-- Creator: CorelDRAW (Nie do użytku komercyjnego) -->
<svg xmlns="http://www.w3.org/2000/svg" xml:space="preserve" width="37.389mm" height="55.2717mm" version="1.1" style="shape-rendering:geometricPrecision; text-rendering:geometricPrecision; image-rendering:optimizeQuality; fill-rule:evenodd; clip-rule:evenodd"
viewBox="0 0 940.37 1390.14"
 xmlns:xlink="http://www.w3.org/1999/xlink"
 xmlns:xodm="http://www.corel.com/coreldraw/odm/2003">
 <defs>
  <style type="text/css">
   <![CDATA[
    .fil0 {fill:#422CB7;fill-rule:nonzero}
   ]]>
  </style>
 </defs>
 <g id="Warstwa_x0020_1">
  <metadata id="CorelCorpID_0Corel-Layer"/>
  <g id="_105553175090304">
   <path class="fil0" d="M869.97 440.64c11.29,0 20.44,-9.14 20.44,-20.42 0,-11.29 -9.15,-20.42 -20.44,-20.42 -11.27,0 -20.42,9.14 -20.42,20.42 0,11.28 9.15,20.42 20.42,20.42z"/>
   <path class="fil0" d="M869.97 390.67c11.29,0 20.44,-9.15 20.44,-20.43 0,-11.29 -9.15,-20.42 -20.44,-20.42 -11.27,0 -20.42,9.14 -20.42,20.42 0,11.28 9.15,20.43 20.42,20.43z"/>
   <path class="fil0" d="M919.95 390.67c11.29,0 20.43,-9.15 20.43,-20.43 0,-11.29 -9.14,-20.42 -20.43,-20.42 -11.28,0 -20.42,9.14 -20.42,20.42 0,11.28 9.14,20.43 20.42,20.43z"/>
   <path class="fil0" d="M820 599.69c-11.29,0 -20.43,9.14 -20.43,20.43 0,11.28 9.14,20.43 20.43,20.43 11.28,0 20.42,-9.15 20.42,-20.43 0,-11.29 -9.14,-20.43 -20.42,-20.43z"/>
   <path class="fil0" d="M820 590.56c11.28,0 20.42,-9.14 20.42,-20.43 0,-11.28 -9.14,-20.43 -20.42,-20.43 -11.29,0 -20.43,9.15 -20.43,20.43 0,11.29 9.14,20.43 20.43,20.43z"/>
   <path class="fil0" d="M820 540.59c11.28,0 20.42,-9.14 20.42,-20.43 0,-11.28 -9.14,-20.43 -20.42,-20.43 -11.29,0 -20.43,9.15 -20.43,20.43 0,11.29 9.14,20.43 20.43,20.43z"/>
   <path class="fil0" d="M820 490.61c11.28,0 20.42,-9.14 20.42,-20.43 0,-11.28 -9.14,-20.42 -20.42,-20.42 -11.29,0 -20.43,9.14 -20.43,20.42 0,11.29 9.14,20.43 20.43,20.43z"/>
   <path class="fil0" d="M869.97 490.61c11.29,0 20.44,-9.14 20.44,-20.43 0,-11.28 -9.15,-20.42 -20.44,-20.42 -11.27,0 -20.42,9.14 -20.42,20.42 0,11.29 9.15,20.43 20.42,20.43z"/>
   <path class="fil0" d="M820 440.64c11.28,0 20.42,-9.14 20.42,-20.42 0,-11.29 -9.14,-20.42 -20.42,-20.42 -11.29,0 -20.43,9.14 -20.43,20.42 0,11.28 9.14,20.42 20.43,20.42z"/>
   <path class="fil0" d="M820 349.82c-11.29,0 -20.43,9.14 -20.43,20.42 0,11.28 9.14,20.43 20.43,20.43 11.28,0 20.42,-9.15 20.42,-20.43 0,-11.29 -9.14,-20.42 -20.42,-20.42z"/>
   <path class="fil0" d="M820 340.7c11.28,0 20.42,-9.15 20.42,-20.43 0,-11.29 -9.14,-20.43 -20.42,-20.43 -11.29,0 -20.43,9.14 -20.43,20.43 0,11.28 9.14,20.43 20.43,20.43z"/>
   <path class="fil0" d="M770.02 690.5c11.28,0 20.44,-9.14 20.44,-20.42 0,-11.29 -9.16,-20.43 -20.44,-20.43 -11.28,0 -20.43,9.14 -20.43,20.43 0,11.28 9.15,20.42 20.43,20.42z"/>
   <path class="fil0" d="M820 690.5c11.28,0 20.42,-9.14 20.42,-20.42 0,-11.29 -9.14,-20.43 -20.42,-20.43 -11.29,0 -20.43,9.14 -20.43,20.43 0,11.28 9.14,20.42 20.43,20.42z"/>
   <path class="fil0" d="M770.02 640.54c11.28,0 20.44,-9.15 20.44,-20.43 0,-11.29 -9.16,-20.43 -20.44,-20.43 -11.28,0 -20.43,9.14 -20.43,20.43 0,11.28 9.15,20.43 20.43,20.43z"/>
   <path class="fil0" d="M770.02 549.71c-11.28,0 -20.43,9.15 -20.43,20.43 0,11.29 9.15,20.43 20.43,20.43 11.28,0 20.44,-9.14 20.44,-20.43 0,-11.28 -9.16,-20.43 -20.44,-20.43z"/>
   <path class="fil0" d="M770.02 540.59c11.28,0 20.44,-9.14 20.44,-20.43 0,-11.28 -9.16,-20.43 -20.44,-20.43 -11.28,0 -20.43,9.15 -20.43,20.43 0,11.29 9.15,20.43 20.43,20.43z"/>
   <path class="fil0" d="M770.02 449.77c-11.28,0 -20.43,9.14 -20.43,20.42 0,11.29 9.15,20.43 20.43,20.43 11.28,0 20.44,-9.14 20.44,-20.43 0,-11.28 -9.16,-20.42 -20.44,-20.42z"/>
   <path class="fil0" d="M770.02 440.64c11.28,0 20.44,-9.14 20.44,-20.42 0,-11.29 -9.16,-20.42 -20.44,-20.42 -11.28,0 -20.43,9.14 -20.43,20.42 0,11.28 9.15,20.42 20.43,20.42z"/>
   <path class="fil0" d="M770.02 349.82c-11.28,0 -20.43,9.14 -20.43,20.42 0,11.28 9.15,20.43 20.43,20.43 11.28,0 20.44,-9.15 20.44,-20.43 0,-11.29 -9.16,-20.42 -20.44,-20.42z"/>
   <path class="fil0" d="M770.02 340.7c11.28,0 20.44,-9.15 20.44,-20.43 0,-11.29 -9.16,-20.43 -20.44,-20.43 -11.28,0 -20.43,9.14 -20.43,20.43 0,11.28 9.15,20.43 20.43,20.43z"/>
   <path class="fil0" d="M720.05 740.48c11.28,0 20.43,-9.14 20.43,-20.42 0,-11.29 -9.15,-20.43 -20.43,-20.43 -11.29,0 -20.43,9.14 -20.43,20.43 0,11.28 9.14,20.42 20.43,20.42z"/>
   <path class="fil0" d="M770.02 740.48c11.28,0 20.44,-9.14 20.44,-20.42 0,-11.29 -9.16,-20.43 -20.44,-20.43 -11.28,0 -20.43,9.14 -20.43,20.43 0,11.28 9.15,20.42 20.43,20.42z"/>
   <path class="fil0" d="M720.05 649.66c-11.29,0 -20.43,9.14 -20.43,20.43 0,11.28 9.14,20.42 20.43,20.42 11.28,0 20.43,-9.14 20.43,-20.42 0,-11.29 -9.15,-20.43 -20.43,-20.43z"/>
   <path class="fil0" d="M720.05 640.54c11.28,0 20.43,-9.15 20.43,-20.43 0,-11.29 -9.15,-20.43 -20.43,-20.43 -11.29,0 -20.43,9.14 -20.43,20.43 0,11.28 9.14,20.43 20.43,20.43z"/>
   <path class="fil0" d="M720.05 549.71c-11.29,0 -20.43,9.15 -20.43,20.43 0,11.29 9.14,20.43 20.43,20.43 11.28,0 20.43,-9.14 20.43,-20.43 0,-11.28 -9.15,-20.43 -20.43,-20.43z"/>
   <path class="fil0" d="M720.05 540.59c11.28,0 20.43,-9.14 20.43,-20.43 0,-11.28 -9.15,-20.43 -20.43,-20.43 -11.29,0 -20.43,9.15 -20.43,20.43 0,11.29 9.14,20.43 20.43,20.43z"/>
   <path class="fil0" d="M720.05 449.77c-11.29,0 -20.43,9.14 -20.43,20.42 0,11.29 9.14,20.43 20.43,20.43 11.28,0 20.43,-9.14 20.43,-20.43 0,-11.28 -9.15,-20.42 -20.43,-20.42z"/>
   <path class="fil0" d="M720.05 440.64c11.28,0 20.43,-9.14 20.43,-20.42 0,-11.29 -9.15,-20.42 -20.43,-20.42 -11.29,0 -20.43,9.14 -20.43,20.42 0,11.28 9.14,20.42 20.43,20.42z"/>
   <path class="fil0" d="M720.05 349.82c-11.29,0 -20.43,9.14 -20.43,20.42 0,11.28 9.14,20.43 20.43,20.43 11.28,0 20.43,-9.15 20.43,-20.43 0,-11.29 -9.15,-20.42 -20.43,-20.42z"/>
   <path class="fil0" d="M720.05 340.7c11.28,0 20.43,-9.15 20.43,-20.43 0,-11.29 -9.15,-20.43 -20.43,-20.43 -11.29,0 -20.43,9.14 -20.43,20.43 0,11.28 9.14,20.43 20.43,20.43z"/>
   <path class="fil0" d="M670.07 740.48c11.29,0 20.43,-9.14 20.43,-20.42 0,-11.29 -9.15,-20.43 -20.43,-20.43 -11.27,0 -20.43,9.14 -20.43,20.43 0,11.28 9.16,20.42 20.43,20.42z"/>
   <path class="fil0" d="M670.07 649.66c-11.27,0 -20.43,9.14 -20.43,20.43 0,11.28 9.16,20.42 20.43,20.42 11.29,0 20.43,-9.14 20.43,-20.42 0,-11.29 -9.15,-20.43 -20.43,-20.43z"/>
   <path class="fil0" d="M670.07 640.54c11.29,0 20.43,-9.15 20.43,-20.43 0,-11.29 -9.15,-20.43 -20.43,-20.43 -11.27,0 -20.43,9.14 -20.43,20.43 0,11.28 9.16,20.43 20.43,20.43z"/>
   <path class="fil0" d="M670.07 549.71c-11.27,0 -20.43,9.15 -20.43,20.43 0,11.29 9.16,20.43 20.43,20.43 11.29,0 20.43,-9.14 20.43,-20.43 0,-11.28 -9.15,-20.43 -20.43,-20.43z"/>
   <path class="fil0" d="M670.07 540.59c11.29,0 20.43,-9.14 20.43,-20.43 0,-11.28 -9.15,-20.43 -20.43,-20.43 -11.27,0 -20.43,9.15 -20.43,20.43 0,11.29 9.16,20.43 20.43,20.43z"/>
   <path class="fil0" d="M670.07 449.77c-11.27,0 -20.43,9.14 -20.43,20.42 0,11.29 9.16,20.43 20.43,20.43 11.29,0 20.43,-9.14 20.43,-20.43 0,-11.28 -9.15,-20.42 -20.43,-20.42z"/>
   <path class="fil0" d="M670.07 440.64c11.29,0 20.43,-9.14 20.43,-20.42 0,-11.29 -9.15,-20.42 -20.43,-20.42 -11.27,0 -20.43,9.14 -20.43,20.42 0,11.28 9.16,20.42 20.43,20.42z"/>
   <path class="fil0" d="M670.07 349.82c-11.27,0 -20.43,9.14 -20.43,20.42 0,11.28 9.16,20.43 20.43,20.43 11.29,0 20.43,-9.15 20.43,-20.43 0,-11.29 -9.15,-20.42 -20.43,-20.42z"/>
   <path class="fil0" d="M670.07 340.7c11.29,0 20.43,-9.15 20.43,-20.43 0,-11.29 -9.15,-20.43 -20.43,-20.43 -11.27,0 -20.43,9.14 -20.43,20.43 0,11.28 9.16,20.43 20.43,20.43z"/>
   <path class="fil0" d="M670.07 290.72c11.29,0 20.43,-9.14 20.43,-20.43 0,-11.28 -9.15,-20.43 -20.43,-20.43 -11.27,0 -20.43,9.15 -20.43,20.43 0,11.29 9.16,20.43 20.43,20.43z"/>
   <path class="fil0" d="M620.1 899.52c-11.28,0 -20.42,9.14 -20.42,20.43 0,11.28 9.14,20.43 20.42,20.43 11.29,0 20.43,-9.15 20.43,-20.43 0,-11.29 -9.14,-20.43 -20.43,-20.43z"/>
   <path class="fil0" d="M620.1 890.4c11.29,0 20.43,-9.14 20.43,-20.42 0,-11.28 -9.14,-20.43 -20.43,-20.43 -11.28,0 -20.42,9.15 -20.42,20.43 0,11.29 9.14,20.42 20.42,20.42z"/>
   <path class="fil0" d="M620.1 840.43c11.29,0 20.43,-9.14 20.43,-20.43 0,-11.28 -9.14,-20.43 -20.43,-20.43 -11.28,0 -20.42,9.15 -20.42,20.43 0,11.29 9.14,20.43 20.42,20.43z"/>
   <path class="fil0" d="M670.07 840.43c11.29,0 20.43,-9.14 20.43,-20.43 0,-11.28 -9.15,-20.43 -20.43,-20.43 -11.27,0 -20.43,9.15 -20.43,20.43 0,11.29 9.16,20.43 20.43,20.43z"/>
   <path class="fil0" d="M620.1 790.45c11.29,0 20.43,-9.14 20.43,-20.43 0,-11.28 -9.14,-20.42 -20.43,-20.42 -11.28,0 -20.42,9.14 -20.42,20.42 0,11.29 9.14,20.43 20.42,20.43z"/>
   <path class="fil0" d="M670.07 790.45c11.29,0 20.43,-9.14 20.43,-20.43 0,-11.28 -9.15,-20.42 -20.43,-20.42 -11.27,0 -20.43,9.14 -20.43,20.42 0,11.29 9.16,20.43 20.43,20.43z"/>
   <path class="fil0" d="M620.1 740.48c11.29,0 20.43,-9.14 20.43,-20.42 0,-11.29 -9.14,-20.43 -20.43,-20.43 -11.28,0 -20.42,9.14 -20.42,20.43 0,11.28 9.14,20.42 20.42,20.42z"/>
   <path class="fil0" d="M620.1 649.66c-11.28,0 -20.42,9.14 -20.42,20.43 0,11.28 9.14,20.42 20.42,20.42 11.29,0 20.43,-9.14 20.43,-20.42 0,-11.29 -9.14,-20.43 -20.43,-20.43z"/>
   <path class="fil0" d="M620.1 640.54c11.29,0 20.43,-9.15 20.43,-20.43 0,-11.29 -9.14,-20.43 -20.43,-20.43 -11.28,0 -20.42,9.14 -20.42,20.43 0,11.28 9.14,20.43 20.42,20.43z"/>
   <path class="fil0" d="M620.1 549.71c-11.28,0 -20.42,9.15 -20.42,20.43 0,11.29 9.14,20.43 20.42,20.43 11.29,0 20.43,-9.14 20.43,-20.43 0,-11.28 -9.14,-20.43 -20.43,-20.43z"/>
   <path class="fil0" d="M620.1 540.59c11.29,0 20.43,-9.14 20.43,-20.43 0,-11.28 -9.14,-20.43 -20.43,-20.43 -11.28,0 -20.42,9.15 -20.42,20.43 0,11.29 9.14,20.43 20.42,20.43z"/>
   <path class="fil0" d="M620.1 449.77c-11.28,0 -20.42,9.14 -20.42,20.42 0,11.29 9.14,20.43 20.42,20.43 11.29,0 20.43,-9.14 20.43,-20.43 0,-11.28 -9.14,-20.42 -20.43,-20.42z"/>
   <path class="fil0" d="M620.1 440.64c11.29,0 20.43,-9.14 20.43,-20.42 0,-11.29 -9.14,-20.42 -20.43,-20.42 -11.28,0 -20.42,9.14 -20.42,20.42 0,11.28 9.14,20.42 20.42,20.42z"/>
   <path class="fil0" d="M620.1 349.82c-11.28,0 -20.42,9.14 -20.42,20.42 0,11.28 9.14,20.43 20.42,20.43 11.29,0 20.43,-9.15 20.43,-20.43 0,-11.29 -9.14,-20.42 -20.43,-20.42z"/>
   <path class="fil0" d="M620.1 340.7c11.29,0 20.43,-9.15 20.43,-20.43 0,-11.29 -9.14,-20.43 -20.43,-20.43 -11.28,0 -20.42,9.14 -20.42,20.43 0,11.28 9.14,20.43 20.42,20.43z"/>
   <path class="fil0" d="M570.13 949.5c-11.28,0 -20.43,9.14 -20.43,20.43 0,11.28 9.15,20.42 20.43,20.42 11.28,0 20.43,-9.14 20.43,-20.42 0,-11.29 -9.15,-20.43 -20.43,-20.43z"/>
   <path class="fil0" d="M570.13 940.37c11.28,0 20.43,-9.15 20.43,-20.43 0,-11.29 -9.15,-20.43 -20.43,-20.43 -11.28,0 -20.43,9.14 -20.43,20.43 0,11.28 9.15,20.43 20.43,20.43z"/>
   <path class="fil0" d="M570.13 849.56c-11.28,0 -20.43,9.15 -20.43,20.43 0,11.29 9.15,20.42 20.43,20.42 11.28,0 20.43,-9.14 20.43,-20.42 0,-11.28 -9.15,-20.43 -20.43,-20.43z"/>
   <path class="fil0" d="M570.13 840.43c11.28,0 20.43,-9.14 20.43,-20.43 0,-11.28 -9.15,-20.43 -20.43,-20.43 -11.28,0 -20.43,9.15 -20.43,20.43 0,11.29 9.15,20.43 20.43,20.43z"/>
   <path class="fil0" d="M570.13 749.61c-11.28,0 -20.43,9.14 -20.43,20.42 0,11.29 9.15,20.43 20.43,20.43 11.28,0 20.43,-9.14 20.43,-20.43 0,-11.28 -9.15,-20.42 -20.43,-20.42z"/>
   <path class="fil0" d="M570.13 740.48c11.28,0 20.43,-9.14 20.43,-20.42 0,-11.29 -9.15,-20.43 -20.43,-20.43 -11.28,0 -20.43,9.14 -20.43,20.43 0,11.28 9.15,20.42 20.43,20.42z"/>
   <path class="fil0" d="M570.13 649.66c-11.28,0 -20.43,9.14 -20.43,20.43 0,11.28 9.15,20.42 20.43,20.42 11.28,0 20.43,-9.14 20.43,-20.42 0,-11.29 -9.15,-20.43 -20.43,-20.43z"/>
   <path class="fil0" d="M570.13 640.54c11.28,0 20.43,-9.15 20.43,-20.43 0,-11.29 -9.15,-20.43 -20.43,-20.43 -11.28,0 -20.43,9.14 -20.43,20.43 0,11.28 9.15,20.43 20.43,20.43z"/>
   <path class="fil0" d="M570.13 549.71c-11.28,0 -20.43,9.15 -20.43,20.43 0,11.29 9.15,20.43 20.43,20.43 11.28,0 20.43,-9.14 20.43,-20.43 0,-11.28 -9.15,-20.43 -20.43,-20.43z"/>
   <path class="fil0" d="M570.13 540.59c11.28,0 20.43,-9.14 20.43,-20.43 0,-11.28 -9.15,-20.43 -20.43,-20.43 -11.28,0 -20.43,9.15 -20.43,20.43 0,11.29 9.15,20.43 20.43,20.43z"/>
   <path class="fil0" d="M570.13 449.77c-11.28,0 -20.43,9.14 -20.43,20.42 0,11.29 9.15,20.43 20.43,20.43 11.28,0 20.43,-9.14 20.43,-20.43 0,-11.28 -9.15,-20.42 -20.43,-20.42z"/>
   <path class="fil0" d="M570.13 440.64c11.28,0 20.43,-9.14 20.43,-20.42 0,-11.29 -9.15,-20.42 -20.43,-20.42 -11.28,0 -20.43,9.14 -20.43,20.42 0,11.28 9.15,20.42 20.43,20.42z"/>
   <path class="fil0" d="M570.13 349.82c-11.28,0 -20.43,9.14 -20.43,20.42 0,11.28 9.15,20.43 20.43,20.43 11.28,0 20.43,-9.15 20.43,-20.43 0,-11.29 -9.15,-20.42 -20.43,-20.42z"/>
   <path class="fil0" d="M570.13 340.7c11.28,0 20.43,-9.15 20.43,-20.43 0,-11.29 -9.15,-20.43 -20.43,-20.43 -11.28,0 -20.43,9.14 -20.43,20.43 0,11.28 9.15,20.43 20.43,20.43z"/>
   <path class="fil0" d="M570.13 190.77c11.28,0 20.43,-9.14 20.43,-20.43 0,-11.28 -9.15,-20.42 -20.43,-20.42 -11.28,0 -20.43,9.14 -20.43,20.42 0,11.29 9.15,20.43 20.43,20.43z"/>
   <path class="fil0" d="M520.16 899.52c-11.29,0 -20.43,9.14 -20.43,20.43 0,11.28 9.14,20.43 20.43,20.43 11.28,0 20.42,-9.15 20.42,-20.43 0,-11.29 -9.14,-20.43 -20.42,-20.43z"/>
   <path class="fil0" d="M520.16 890.4c11.28,0 20.42,-9.14 20.42,-20.42 0,-11.28 -9.14,-20.43 -20.42,-20.43 -11.29,0 -20.43,9.15 -20.43,20.43 0,11.29 9.14,20.42 20.43,20.42z"/>
   <path class="fil0" d="M520.16 840.43c11.28,0 20.42,-9.14 20.42,-20.43 0,-11.28 -9.14,-20.43 -20.42,-20.43 -11.29,0 -20.43,9.15 -20.43,20.43 0,11.29 9.14,20.43 20.43,20.43z"/>
   <path class="fil0" d="M520.16 749.61c-11.29,0 -20.43,9.14 -20.43,20.42 0,11.29 9.14,20.43 20.43,20.43 11.28,0 20.42,-9.14 20.42,-20.43 0,-11.28 -9.14,-20.42 -20.42,-20.42z"/>
   <path class="fil0" d="M520.16 740.48c11.28,0 20.42,-9.14 20.42,-20.42 0,-11.29 -9.14,-20.43 -20.42,-20.43 -11.29,0 -20.43,9.14 -20.43,20.43 0,11.28 9.14,20.42 20.43,20.42z"/>
   <path class="fil0" d="M520.16 649.66c-11.29,0 -20.43,9.14 -20.43,20.43 0,11.28 9.14,20.42 20.43,20.42 11.28,0 20.42,-9.14 20.42,-20.42 0,-11.29 -9.14,-20.43 -20.42,-20.43z"/>
   <path class="fil0" d="M520.16 640.54c11.28,0 20.42,-9.15 20.42,-20.43 0,-11.29 -9.14,-20.43 -20.42,-20.43 -11.29,0 -20.43,9.14 -20.43,20.43 0,11.28 9.14,20.43 20.43,20.43z"/>
   <path class="fil0" d="M520.16 549.71c-11.29,0 -20.43,9.15 -20.43,20.43 0,11.29 9.14,20.43 20.43,20.43 11.28,0 20.42,-9.14 20.42,-20.43 0,-11.28 -9.14,-20.43 -20.42,-20.43z"/>
   <path class="fil0" d="M520.16 540.59c11.28,0 20.42,-9.14 20.42,-20.43 0,-11.28 -9.14,-20.43 -20.42,-20.43 -11.29,0 -20.43,9.15 -20.43,20.43 0,11.29 9.14,20.43 20.43,20.43z"/>
   <path class="fil0" d="M520.16 449.77c-11.29,0 -20.43,9.14 -20.43,20.42 0,11.29 9.14,20.43 20.43,20.43 11.28,0 20.42,-9.14 20.42,-20.43 0,-11.28 -9.14,-20.42 -20.42,-20.42z"/>
   <path class="fil0" d="M520.16 440.64c11.28,0 20.42,-9.14 20.42,-20.42 0,-11.29 -9.14,-20.42 -20.42,-20.42 -11.29,0 -20.43,9.14 -20.43,20.42 0,11.28 9.14,20.42 20.43,20.42z"/>
   <path class="fil0" d="M520.16 349.82c-11.29,0 -20.43,9.14 -20.43,20.42 0,11.28 9.14,20.43 20.43,20.43 11.28,0 20.42,-9.15 20.42,-20.43 0,-11.29 -9.14,-20.42 -20.42,-20.42z"/>
   <path class="fil0" d="M520.16 340.7c11.28,0 20.42,-9.15 20.42,-20.43 0,-11.29 -9.14,-20.43 -20.42,-20.43 -11.29,0 -20.43,9.14 -20.43,20.43 0,11.28 9.14,20.43 20.43,20.43z"/>
   <path class="fil0" d="M520.16 249.87c-11.29,0 -20.43,9.15 -20.43,20.43 0,11.29 9.14,20.43 20.43,20.43 11.28,0 20.42,-9.14 20.42,-20.43 0,-11.28 -9.14,-20.43 -20.42,-20.43z"/>
   <path class="fil0" d="M570.13 249.87c-11.28,0 -20.43,9.15 -20.43,20.43 0,11.29 9.15,20.43 20.43,20.43 11.28,0 20.43,-9.14 20.43,-20.43 0,-11.28 -9.15,-20.43 -20.43,-20.43z"/>
   <path class="fil0" d="M620.1 249.87c-11.28,0 -20.42,9.15 -20.42,20.43 0,11.29 9.14,20.43 20.42,20.43 11.29,0 20.43,-9.14 20.43,-20.43 0,-11.28 -9.14,-20.43 -20.43,-20.43z"/>
   <path class="fil0" d="M520.16 240.75c11.28,0 20.42,-9.14 20.42,-20.43 0,-11.28 -9.14,-20.42 -20.42,-20.42 -11.29,0 -20.43,9.14 -20.43,20.42 0,11.29 9.14,20.43 20.43,20.43z"/>
   <path class="fil0" d="M570.13 240.75c11.28,0 20.43,-9.14 20.43,-20.43 0,-11.28 -9.15,-20.42 -20.43,-20.42 -11.28,0 -20.43,9.14 -20.43,20.42 0,11.29 9.15,20.43 20.43,20.43z"/>
   <path class="fil0" d="M620.1 240.75c11.29,0 20.43,-9.14 20.43,-20.43 0,-11.28 -9.14,-20.42 -20.43,-20.42 -11.28,0 -20.42,9.14 -20.42,20.42 0,11.29 9.14,20.43 20.42,20.43z"/>
   <path class="fil0" d="M520.16 149.92c-11.29,0 -20.43,9.14 -20.43,20.42 0,11.29 9.14,20.43 20.43,20.43 11.28,0 20.42,-9.14 20.42,-20.43 0,-11.28 -9.14,-20.42 -20.42,-20.42z"/>
   <path class="fil0" d="M520.16 140.79c11.28,0 20.42,-9.14 20.42,-20.42 0,-11.29 -9.14,-20.43 -20.42,-20.43 -11.29,0 -20.43,9.14 -20.43,20.43 0,11.28 9.14,20.42 20.43,20.42z"/>
   <path class="fil0" d="M470.18 1049.45c-11.28,0 -20.43,9.14 -20.43,20.42 0,11.29 9.15,20.43 20.43,20.43 11.28,0 20.43,-9.14 20.43,-20.43 0,-11.28 -9.16,-20.42 -20.43,-20.42z"/>
   <path class="fil0" d="M470.18 1040.32c11.28,0 20.43,-9.14 20.43,-20.42 0,-11.29 -9.16,-20.43 -20.43,-20.43 -11.28,0 -20.43,9.14 -20.43,20.43 0,11.28 9.15,20.42 20.43,20.42z"/>
   <path class="fil0" d="M520.16 1049.45c-11.29,0 -20.43,9.14 -20.43,20.42 0,11.29 9.14,20.43 20.43,20.43 11.28,0 20.42,-9.14 20.42,-20.43 0,-11.28 -9.14,-20.42 -20.42,-20.42z"/>
   <path class="fil0" d="M520.16 1040.32c11.28,0 20.42,-9.14 20.42,-20.42 0,-11.29 -9.14,-20.43 -20.42,-20.43 -11.29,0 -20.43,9.14 -20.43,20.43 0,11.28 9.14,20.42 20.43,20.42z"/>
   <path class="fil0" d="M470.18 990.34c11.28,0 20.43,-9.14 20.43,-20.42 0,-11.29 -9.16,-20.43 -20.43,-20.43 -11.28,0 -20.43,9.14 -20.43,20.43 0,11.28 9.15,20.42 20.43,20.42z"/>
   <path class="fil0" d="M520.16 990.34c11.28,0 20.42,-9.14 20.42,-20.42 0,-11.29 -9.14,-20.43 -20.42,-20.43 -11.29,0 -20.43,9.14 -20.43,20.43 0,11.28 9.14,20.42 20.43,20.42z"/>
   <path class="fil0" d="M570.13 990.34c11.28,0 20.43,-9.14 20.43,-20.42 0,-11.29 -9.15,-20.43 -20.43,-20.43 -11.28,0 -20.43,9.14 -20.43,20.43 0,11.28 9.15,20.42 20.43,20.42z"/>
   <path class="fil0" d="M470.18 899.52c-11.28,0 -20.43,9.14 -20.43,20.43 0,11.28 9.15,20.43 20.43,20.43 11.28,0 20.43,-9.15 20.43,-20.43 0,-11.29 -9.16,-20.43 -20.43,-20.43z"/>
   <path class="fil0" d="M470.18 890.4c11.28,0 20.43,-9.14 20.43,-20.42 0,-11.28 -9.16,-20.43 -20.43,-20.43 -11.28,0 -20.43,9.15 -20.43,20.43 0,11.29 9.15,20.42 20.43,20.42z"/>
   <path class="fil0" d="M470.18 840.43c11.28,0 20.43,-9.14 20.43,-20.43 0,-11.28 -9.16,-20.43 -20.43,-20.43 -11.28,0 -20.43,9.15 -20.43,20.43 0,11.29 9.15,20.43 20.43,20.43z"/>
   <path class="fil0" d="M470.18 749.61c-11.28,0 -20.43,9.14 -20.43,20.42 0,11.29 9.15,20.43 20.43,20.43 11.28,0 20.43,-9.14 20.43,-20.43 0,-11.28 -9.16,-20.42 -20.43,-20.42z"/>
   <path class="fil0" d="M470.18 740.48c11.28,0 20.43,-9.14 20.43,-20.42 0,-11.29 -9.16,-20.43 -20.43,-20.43 -11.28,0 -20.43,9.14 -20.43,20.43 0,11.28 9.15,20.42 20.43,20.42z"/>
   <path class="fil0" d="M470.18 649.66c-11.28,0 -20.43,9.14 -20.43,20.43 0,11.28 9.15,20.42 20.43,20.42 11.28,0 20.43,-9.14 20.43,-20.42 0,-11.29 -9.16,-20.43 -20.43,-20.43z"/>
   <path class="fil0" d="M470.18 640.54c11.28,0 20.43,-9.15 20.43,-20.43 0,-11.29 -9.16,-20.43 -20.43,-20.43 -11.28,0 -20.43,9.14 -20.43,20.43 0,11.28 9.15,20.43 20.43,20.43z"/>
   <path class="fil0" d="M470.18 549.71c-11.28,0 -20.43,9.15 -20.43,20.43 0,11.29 9.15,20.43 20.43,20.43 11.28,0 20.43,-9.14 20.43,-20.43 0,-11.28 -9.16,-20.43 -20.43,-20.43z"/>
   <path class="fil0" d="M470.18 540.59c11.28,0 20.43,-9.14 20.43,-20.43 0,-11.28 -9.16,-20.43 -20.43,-20.43 -11.28,0 -20.43,9.15 -20.43,20.43 0,11.29 9.15,20.43 20.43,20.43z"/>
   <path class="fil0" d="M470.18 449.77c-11.28,0 -20.43,9.14 -20.43,20.42 0,11.29 9.15,20.43 20.43,20.43 11.28,0 20.43,-9.14 20.43,-20.43 0,-11.28 -9.16,-20.42 -20.43,-20.42z"/>
   <path class="fil0" d="M470.18 440.64c11.28,0 20.43,-9.14 20.43,-20.42 0,-11.29 -9.16,-20.42 -20.43,-20.42 -11.28,0 -20.43,9.14 -20.43,20.42 0,11.28 9.15,20.42 20.43,20.42z"/>
   <path class="fil0" d="M470.18 349.82c-11.28,0 -20.43,9.14 -20.43,20.42 0,11.28 9.15,20.43 20.43,20.43 11.28,0 20.43,-9.15 20.43,-20.43 0,-11.29 -9.16,-20.42 -20.43,-20.42z"/>
   <path class="fil0" d="M470.18 340.7c11.28,0 20.43,-9.15 20.43,-20.43 0,-11.29 -9.16,-20.43 -20.43,-20.43 -11.28,0 -20.43,9.14 -20.43,20.43 0,11.28 9.15,20.43 20.43,20.43z"/>
   <path class="fil0" d="M470.18 249.87c-11.28,0 -20.43,9.15 -20.43,20.43 0,11.29 9.15,20.43 20.43,20.43 11.28,0 20.43,-9.14 20.43,-20.43 0,-11.28 -9.16,-20.43 -20.43,-20.43z"/>
   <path class="fil0" d="M470.18 240.75c11.28,0 20.43,-9.14 20.43,-20.43 0,-11.28 -9.16,-20.42 -20.43,-20.42 -11.28,0 -20.43,9.14 -20.43,20.42 0,11.29 9.15,20.43 20.43,20.43z"/>
   <path class="fil0" d="M470.18 149.92c-11.28,0 -20.43,9.14 -20.43,20.42 0,11.29 9.15,20.43 20.43,20.43 11.28,0 20.43,-9.14 20.43,-20.43 0,-11.28 -9.16,-20.42 -20.43,-20.42z"/>
   <path class="fil0" d="M470.18 140.79c11.28,0 20.43,-9.14 20.43,-20.42 0,-11.29 -9.16,-20.43 -20.43,-20.43 -11.28,0 -20.43,9.14 -20.43,20.43 0,11.28 9.15,20.42 20.43,20.42z"/>
   <path class="fil0" d="M420.21 1349.3c-11.28,0 -20.43,9.14 -20.43,20.42 0,11.29 9.15,20.42 20.43,20.42 11.29,0 20.43,-9.14 20.43,-20.42 0,-11.28 -9.14,-20.42 -20.43,-20.42z"/>
   <path class="fil0" d="M420.21 1340.16c11.29,0 20.43,-9.14 20.43,-20.43 0,-11.28 -9.14,-20.42 -20.43,-20.42 -11.28,0 -20.43,9.14 -20.43,20.42 0,11.29 9.15,20.43 20.43,20.43z"/>
   <path class="fil0" d="M420.21 1199.37c-11.28,0 -20.43,9.14 -20.43,20.43 0,11.28 9.15,20.43 20.43,20.43 5.55,0 10.55,-2.23 14.24,-5.82 0.94,-1.12 1.9,-2.24 2.8,-3.39 2.13,-3.22 3.38,-7.06 3.38,-11.21 0,-11.29 -9.14,-20.43 -20.43,-20.43z"/>
   <path class="fil0" d="M420.21 1090.3c11.29,0 20.43,-9.14 20.43,-20.43 0,-11.28 -9.14,-20.42 -20.43,-20.42 -11.28,0 -20.43,9.14 -20.43,20.42 0,11.29 9.15,20.43 20.43,20.43z"/>
   <path class="fil0" d="M420.21 999.47c-11.28,0 -20.43,9.14 -20.43,20.43 0,11.28 9.15,20.42 20.43,20.42 11.29,0 20.43,-9.14 20.43,-20.42 0,-11.29 -9.14,-20.43 -20.43,-20.43z"/>
   <path class="fil0" d="M420.21 990.34c11.29,0 20.43,-9.14 20.43,-20.42 0,-11.29 -9.14,-20.43 -20.43,-20.43 -11.28,0 -20.43,9.14 -20.43,20.43 0,11.28 9.15,20.42 20.43,20.42z"/>
   <path class="fil0" d="M420.21 899.52c-11.28,0 -20.43,9.14 -20.43,20.43 0,11.28 9.15,20.43 20.43,20.43 11.29,0 20.43,-9.15 20.43,-20.43 0,-11.29 -9.14,-20.43 -20.43,-20.43z"/>
   <path class="fil0" d="M420.21 890.4c11.29,0 20.43,-9.14 20.43,-20.42 0,-11.28 -9.14,-20.43 -20.43,-20.43 -11.28,0 -20.43,9.15 -20.43,20.43 0,11.29 9.15,20.42 20.43,20.42z"/>
   <path class="fil0" d="M420.21 840.43c11.29,0 20.43,-9.14 20.43,-20.43 0,-11.28 -9.14,-20.43 -20.43,-20.43 -11.28,0 -20.43,9.15 -20.43,20.43 0,11.29 9.15,20.43 20.43,20.43z"/>
   <path class="fil0" d="M420.21 749.61c-11.28,0 -20.43,9.14 -20.43,20.42 0,11.29 9.15,20.43 20.43,20.43 11.29,0 20.43,-9.14 20.43,-20.43 0,-11.28 -9.14,-20.42 -20.43,-20.42z"/>
   <path class="fil0" d="M420.21 740.48c11.29,0 20.43,-9.14 20.43,-20.42 0,-11.29 -9.14,-20.43 -20.43,-20.43 -11.28,0 -20.43,9.14 -20.43,20.43 0,11.28 9.15,20.42 20.43,20.42z"/>
   <path class="fil0" d="M420.21 649.66c-11.28,0 -20.43,9.14 -20.43,20.43 0,11.28 9.15,20.42 20.43,20.42 11.29,0 20.43,-9.14 20.43,-20.42 0,-11.29 -9.14,-20.43 -20.43,-20.43z"/>
   <path class="fil0" d="M420.21 640.54c11.29,0 20.43,-9.15 20.43,-20.43 0,-11.29 -9.14,-20.43 -20.43,-20.43 -11.28,0 -20.43,9.14 -20.43,20.43 0,11.28 9.15,20.43 20.43,20.43z"/>
   <path class="fil0" d="M420.21 549.71c-11.28,0 -20.43,9.15 -20.43,20.43 0,11.29 9.15,20.43 20.43,20.43 11.29,0 20.43,-9.14 20.43,-20.43 0,-11.28 -9.14,-20.43 -20.43,-20.43z"/>
   <path class="fil0" d="M420.21 540.59c11.29,0 20.43,-9.14 20.43,-20.43 0,-11.28 -9.14,-20.43 -20.43,-20.43 -11.28,0 -20.43,9.15 -20.43,20.43 0,11.29 9.15,20.43 20.43,20.43z"/>
   <path class="fil0" d="M420.21 449.77c-11.28,0 -20.43,9.14 -20.43,20.42 0,11.29 9.15,20.43 20.43,20.43 11.29,0 20.43,-9.14 20.43,-20.43 0,-11.28 -9.14,-20.42 -20.43,-20.42z"/>
   <path class="fil0" d="M420.21 440.64c11.29,0 20.43,-9.14 20.43,-20.42 0,-11.29 -9.14,-20.42 -20.43,-20.42 -11.28,0 -20.43,9.14 -20.43,20.42 0,11.28 9.15,20.42 20.43,20.42z"/>
   <path class="fil0" d="M420.21 349.82c-11.28,0 -20.43,9.14 -20.43,20.42 0,11.28 9.15,20.43 20.43,20.43 11.29,0 20.43,-9.15 20.43,-20.43 0,-11.29 -9.14,-20.42 -20.43,-20.42z"/>
   <path class="fil0" d="M420.21 340.7c11.29,0 20.43,-9.15 20.43,-20.43 0,-11.29 -9.14,-20.43 -20.43,-20.43 -11.28,0 -20.43,9.14 -20.43,20.43 0,11.28 9.15,20.43 20.43,20.43z"/>
   <path class="fil0" d="M420.21 249.87c-11.28,0 -20.43,9.15 -20.43,20.43 0,11.29 9.15,20.43 20.43,20.43 11.29,0 20.43,-9.14 20.43,-20.43 0,-11.28 -9.14,-20.43 -20.43,-20.43z"/>
   <path class="fil0" d="M420.21 240.75c11.29,0 20.43,-9.14 20.43,-20.43 0,-11.28 -9.14,-20.42 -20.43,-20.42 -11.28,0 -20.43,9.14 -20.43,20.42 0,11.29 9.15,20.43 20.43,20.43z"/>
   <path class="fil0" d="M420.21 149.92c-11.28,0 -20.43,9.14 -20.43,20.42 0,11.29 9.15,20.43 20.43,20.43 11.29,0 20.43,-9.14 20.43,-20.43 0,-11.28 -9.14,-20.42 -20.43,-20.42z"/>
   <path class="fil0" d="M420.21 140.79c11.29,0 20.43,-9.14 20.43,-20.42 0,-11.29 -9.14,-20.43 -20.43,-20.43 -11.28,0 -20.43,9.14 -20.43,20.43 0,11.28 9.15,20.42 20.43,20.42z"/>
   <path class="fil0" d="M370.24 1299.32c-11.28,0 -20.43,9.14 -20.43,20.42 0,11.29 9.15,20.43 20.43,20.43 11.29,0 20.43,-9.14 20.43,-20.43 0,-11.28 -9.14,-20.42 -20.43,-20.42z"/>
   <path class="fil0" d="M370.24 1290.19c11.29,0 20.43,-9.14 20.43,-20.42 0,-11.29 -9.14,-20.43 -20.43,-20.43 -11.28,0 -20.43,9.14 -20.43,20.43 0,11.28 9.15,20.42 20.43,20.42z"/>
   <path class="fil0" d="M420.21 1290.19c11.29,0 20.44,-9.14 20.44,-20.42 0,-11.29 -9.15,-20.43 -20.44,-20.43 -11.27,0 -20.43,9.14 -20.43,20.43 0,11.28 9.16,20.42 20.43,20.42z"/>
   <path class="fil0" d="M370.24 1199.37c-11.28,0 -20.43,9.14 -20.43,20.43 0,11.28 9.15,20.43 20.43,20.43 11.29,0 20.43,-9.15 20.43,-20.43 0,-11.29 -9.14,-20.43 -20.43,-20.43z"/>
   <path class="fil0" d="M370.24 1190.25c11.29,0 20.43,-9.14 20.43,-20.43 0,-11.29 -9.14,-20.43 -20.43,-20.43 -11.28,0 -20.43,9.14 -20.43,20.43 0,11.29 9.15,20.43 20.43,20.43z"/>
   <path class="fil0" d="M420.21 1190.25c11.29,0 20.44,-9.14 20.44,-20.43 0,-11.29 -9.15,-20.43 -20.44,-20.43 -11.27,0 -20.43,9.14 -20.43,20.43 0,11.29 9.16,20.43 20.43,20.43z"/>
   <path class="fil0" d="M370.24 1099.42c-11.28,0 -20.43,9.15 -20.43,20.43 0,11.29 9.15,20.43 20.43,20.43 11.29,0 20.43,-9.14 20.43,-20.43 0,-11.28 -9.14,-20.43 -20.43,-20.43z"/>
   <path class="fil0" d="M420.21 1099.42c-11.27,0 -20.43,9.15 -20.43,20.43 0,11.29 9.16,20.43 20.43,20.43 11.29,0 20.44,-9.14 20.44,-20.43 0,-11.28 -9.15,-20.43 -20.44,-20.43z"/>
   <path class="fil0" d="M370.24 1090.3c11.29,0 20.43,-9.14 20.43,-20.43 0,-11.28 -9.14,-20.42 -20.43,-20.42 -11.28,0 -20.43,9.14 -20.43,20.42 0,11.29 9.15,20.43 20.43,20.43z"/>
   <path class="fil0" d="M370.24 999.47c-11.28,0 -20.43,9.14 -20.43,20.43 0,11.28 9.15,20.42 20.43,20.42 11.29,0 20.43,-9.14 20.43,-20.42 0,-11.29 -9.14,-20.43 -20.43,-20.43z"/>
   <path class="fil0" d="M370.24 990.34c11.29,0 20.43,-9.14 20.43,-20.42 0,-11.29 -9.14,-20.43 -20.43,-20.43 -11.28,0 -20.43,9.14 -20.43,20.43 0,11.28 9.15,20.42 20.43,20.42z"/>
   <path class="fil0" d="M370.24 899.52c-11.28,0 -20.43,9.14 -20.43,20.43 0,11.28 9.15,20.43 20.43,20.43 11.29,0 20.43,-9.15 20.43,-20.43 0,-11.29 -9.14,-20.43 -20.43,-20.43z"/>
   <path class="fil0" d="M370.24 890.4c11.29,0 20.43,-9.14 20.43,-20.42 0,-11.28 -9.14,-20.43 -20.43,-20.43 -11.28,0 -20.43,9.15 -20.43,20.43 0,11.29 9.15,20.42 20.43,20.42z"/>
   <path class="fil0" d="M370.24 840.43c11.29,0 20.43,-9.14 20.43,-20.43 0,-11.28 -9.14,-20.43 -20.43,-20.43 -11.28,0 -20.43,9.15 -20.43,20.43 0,11.29 9.15,20.43 20.43,20.43z"/>
   <path class="fil0" d="M370.24 749.61c-11.28,0 -20.43,9.14 -20.43,20.42 0,11.29 9.15,20.43 20.43,20.43 11.29,0 20.43,-9.14 20.43,-20.43 0,-11.28 -9.14,-20.42 -20.43,-20.42z"/>
   <path class="fil0" d="M370.24 740.48c11.29,0 20.43,-9.14 20.43,-20.42 0,-11.29 -9.14,-20.43 -20.43,-20.43 -11.28,0 -20.43,9.14 -20.43,20.43 0,11.28 9.15,20.42 20.43,20.42z"/>
   <path class="fil0" d="M370.24 649.66c-11.28,0 -20.43,9.14 -20.43,20.43 0,11.28 9.15,20.42 20.43,20.42 11.29,0 20.43,-9.14 20.43,-20.42 0,-11.29 -9.14,-20.43 -20.43,-20.43z"/>
   <path class="fil0" d="M370.24 640.54c11.29,0 20.43,-9.15 20.43,-20.43 0,-11.29 -9.14,-20.43 -20.43,-20.43 -11.28,0 -20.43,9.14 -20.43,20.43 0,11.28 9.15,20.43 20.43,20.43z"/>
   <path class="fil0" d="M370.24 549.71c-11.28,0 -20.43,9.15 -20.43,20.43 0,11.29 9.15,20.43 20.43,20.43 11.29,0 20.43,-9.14 20.43,-20.43 0,-11.28 -9.14,-20.43 -20.43,-20.43z"/>
   <path class="fil0" d="M370.24 540.59c11.29,0 20.43,-9.14 20.43,-20.43 0,-11.28 -9.14,-20.43 -20.43,-20.43 -11.28,0 -20.43,9.15 -20.43,20.43 0,11.29 9.15,20.43 20.43,20.43z"/>
   <path class="fil0" d="M370.24 449.77c-11.28,0 -20.43,9.14 -20.43,20.42 0,11.29 9.15,20.43 20.43,20.43 11.29,0 20.43,-9.14 20.43,-20.43 0,-11.28 -9.14,-20.42 -20.43,-20.42z"/>
   <path class="fil0" d="M370.24 440.64c11.29,0 20.43,-9.14 20.43,-20.42 0,-11.29 -9.14,-20.42 -20.43,-20.42 -11.28,0 -20.43,9.14 -20.43,20.42 0,11.28 9.15,20.42 20.43,20.42z"/>
   <path class="fil0" d="M370.24 349.82c-11.28,0 -20.43,9.14 -20.43,20.42 0,11.28 9.15,20.43 20.43,20.43 11.29,0 20.43,-9.15 20.43,-20.43 0,-11.29 -9.14,-20.42 -20.43,-20.42z"/>
   <path class="fil0" d="M370.24 340.7c11.29,0 20.43,-9.15 20.43,-20.43 0,-11.29 -9.14,-20.43 -20.43,-20.43 -11.28,0 -20.43,9.14 -20.43,20.43 0,11.28 9.15,20.43 20.43,20.43z"/>
   <path class="fil0" d="M370.24 249.87c-11.28,0 -20.43,9.15 -20.43,20.43 0,11.29 9.15,20.43 20.43,20.43 11.29,0 20.43,-9.14 20.43,-20.43 0,-11.28 -9.14,-20.43 -20.43,-20.43z"/>
   <path class="fil0" d="M370.24 240.75c11.29,0 20.43,-9.14 20.43,-20.43 0,-11.28 -9.14,-20.42 -20.43,-20.42 -11.28,0 -20.43,9.14 -20.43,20.42 0,11.29 9.15,20.43 20.43,20.43z"/>
   <path class="fil0" d="M370.24 149.92c-11.28,0 -20.43,9.14 -20.43,20.42 0,11.29 9.15,20.43 20.43,20.43 11.29,0 20.43,-9.14 20.43,-20.43 0,-11.28 -9.14,-20.42 -20.43,-20.42z"/>
   <path class="fil0" d="M370.24 140.79c11.29,0 20.43,-9.14 20.43,-20.42 0,-11.29 -9.14,-20.43 -20.43,-20.43 -11.28,0 -20.43,9.14 -20.43,20.43 0,11.28 9.15,20.42 20.43,20.42z"/>
   <path class="fil0" d="M370.24 49.97c-11.28,0 -20.43,9.14 -20.43,20.43 0,11.28 9.15,20.43 20.43,20.43 11.29,0 20.43,-9.15 20.43,-20.43 0,-11.29 -9.14,-20.43 -20.43,-20.43z"/>
   <path class="fil0" d="M420.21 49.97c-11.27,0 -20.43,9.14 -20.43,20.43 0,11.28 9.16,20.43 20.43,20.43 11.29,0 20.44,-9.15 20.44,-20.43 0,-11.29 -9.15,-20.43 -20.44,-20.43z"/>
   <path class="fil0" d="M320.26 1190.25c11.29,0 20.43,-9.14 20.43,-20.43 0,-11.29 -9.15,-20.43 -20.43,-20.43 -11.27,0 -20.42,9.14 -20.42,20.43 0,1.31 0.15,2.57 0.39,3.81 0.37,0.86 0.63,1.77 0.76,2.7 2.72,8.07 10.28,13.92 19.26,13.92z"/>
   <path class="fil0" d="M320.26 1099.42c-11.27,0 -20.42,9.15 -20.42,20.43 0,11.29 9.15,20.43 20.42,20.43 11.29,0 20.43,-9.14 20.43,-20.43 0,-11.28 -9.15,-20.43 -20.43,-20.43z"/>
   <path class="fil0" d="M320.26 1090.3c11.29,0 20.43,-9.14 20.43,-20.43 0,-11.28 -9.15,-20.42 -20.43,-20.42 -11.27,0 -20.42,9.14 -20.42,20.42 0,11.29 9.15,20.43 20.42,20.43z"/>
   <path class="fil0" d="M320.26 999.47c-11.27,0 -20.42,9.14 -20.42,20.43 0,11.28 9.15,20.42 20.42,20.42 11.29,0 20.43,-9.14 20.43,-20.42 0,-11.29 -9.15,-20.43 -20.43,-20.43z"/>
   <path class="fil0" d="M320.26 990.34c11.29,0 20.43,-9.14 20.43,-20.42 0,-11.29 -9.15,-20.43 -20.43,-20.43 -11.27,0 -20.42,9.14 -20.42,20.43 0,11.28 9.15,20.42 20.42,20.42z"/>
   <path class="fil0" d="M270.3 999.47c-11.29,0 -20.43,9.14 -20.43,20.43 0,11.28 9.14,20.42 20.43,20.42 11.28,0 20.42,-9.14 20.42,-20.42 0,-11.29 -9.14,-20.43 -20.42,-20.43z"/>
   <path class="fil0" d="M270.3 990.34c11.28,0 20.42,-9.14 20.42,-20.42 0,-11.29 -9.14,-20.43 -20.42,-20.43 -11.29,0 -20.43,9.14 -20.43,20.43 0,11.28 9.14,20.42 20.43,20.42z"/>
   <path class="fil0" d="M320.26 899.52c-11.27,0 -20.42,9.14 -20.42,20.43 0,11.28 9.15,20.43 20.42,20.43 11.29,0 20.43,-9.15 20.43,-20.43 0,-11.29 -9.15,-20.43 -20.43,-20.43z"/>
   <path class="fil0" d="M320.26 849.56c-11.27,0 -20.42,9.15 -20.42,20.43 0,11.29 9.15,20.42 20.42,20.42 11.29,0 20.43,-9.14 20.43,-20.42 0,-11.28 -9.15,-20.43 -20.43,-20.43z"/>
   <path class="fil0" d="M320.26 840.43c11.29,0 20.43,-9.14 20.43,-20.43 0,-11.28 -9.15,-20.43 -20.43,-20.43 -11.27,0 -20.42,9.15 -20.42,20.43 0,11.29 9.15,20.43 20.42,20.43z"/>
   <path class="fil0" d="M320.26 749.61c-11.27,0 -20.42,9.14 -20.42,20.42 0,11.29 9.15,20.43 20.42,20.43 11.29,0 20.43,-9.14 20.43,-20.43 0,-11.28 -9.15,-20.42 -20.43,-20.42z"/>
   <path class="fil0" d="M320.26 740.48c11.29,0 20.43,-9.14 20.43,-20.42 0,-11.29 -9.15,-20.43 -20.43,-20.43 -11.27,0 -20.42,9.14 -20.42,20.43 0,11.28 9.15,20.42 20.42,20.42z"/>
   <path class="fil0" d="M320.26 649.66c-11.27,0 -20.42,9.14 -20.42,20.43 0,11.28 9.15,20.42 20.42,20.42 11.29,0 20.43,-9.14 20.43,-20.42 0,-11.29 -9.15,-20.43 -20.43,-20.43z"/>
   <path class="fil0" d="M320.26 640.54c11.29,0 20.43,-9.15 20.43,-20.43 0,-11.29 -9.15,-20.43 -20.43,-20.43 -11.27,0 -20.42,9.14 -20.42,20.43 0,11.28 9.15,20.43 20.42,20.43z"/>
   <path class="fil0" d="M320.26 549.71c-11.27,0 -20.42,9.15 -20.42,20.43 0,11.29 9.15,20.43 20.42,20.43 11.29,0 20.43,-9.14 20.43,-20.43 0,-11.28 -9.15,-20.43 -20.43,-20.43z"/>
   <path class="fil0" d="M320.26 540.59c11.29,0 20.43,-9.14 20.43,-20.43 0,-11.28 -9.15,-20.43 -20.43,-20.43 -11.27,0 -20.42,9.15 -20.42,20.43 0,11.29 9.15,20.43 20.42,20.43z"/>
   <path class="fil0" d="M320.26 449.77c-11.27,0 -20.42,9.14 -20.42,20.42 0,11.29 9.15,20.43 20.42,20.43 11.29,0 20.43,-9.14 20.43,-20.43 0,-11.28 -9.15,-20.42 -20.43,-20.42z"/>
   <path class="fil0" d="M320.26 440.64c11.29,0 20.43,-9.14 20.43,-20.42 0,-11.29 -9.15,-20.42 -20.43,-20.42 -11.27,0 -20.42,9.14 -20.42,20.42 0,11.28 9.15,20.42 20.42,20.42z"/>
   <path class="fil0" d="M320.26 349.82c-11.27,0 -20.42,9.14 -20.42,20.42 0,11.28 9.15,20.43 20.42,20.43 11.29,0 20.43,-9.15 20.43,-20.43 0,-11.29 -9.15,-20.42 -20.43,-20.42z"/>
   <path class="fil0" d="M320.26 340.7c11.29,0 20.43,-9.15 20.43,-20.43 0,-11.29 -9.15,-20.43 -20.43,-20.43 -11.27,0 -20.42,9.14 -20.42,20.43 0,11.28 9.15,20.43 20.42,20.43z"/>
   <path class="fil0" d="M320.26 249.87c-11.27,0 -20.42,9.15 -20.42,20.43 0,11.29 9.15,20.43 20.42,20.43 11.29,0 20.43,-9.14 20.43,-20.43 0,-11.28 -9.15,-20.43 -20.43,-20.43z"/>
   <path class="fil0" d="M320.26 240.75c11.29,0 20.43,-9.14 20.43,-20.43 0,-11.28 -9.15,-20.42 -20.43,-20.42 -11.27,0 -20.42,9.14 -20.42,20.42 0,11.29 9.15,20.43 20.42,20.43z"/>
   <path class="fil0" d="M320.26 149.92c-11.27,0 -20.42,9.14 -20.42,20.42 0,11.29 9.15,20.43 20.42,20.43 11.29,0 20.43,-9.14 20.43,-20.43 0,-11.28 -9.15,-20.42 -20.43,-20.42z"/>
   <path class="fil0" d="M320.26 140.79c11.29,0 20.43,-9.14 20.43,-20.42 0,-11.29 -9.15,-20.43 -20.43,-20.43 -11.27,0 -20.42,9.14 -20.42,20.43 0,11.28 9.15,20.42 20.42,20.42z"/>
   <path class="fil0" d="M320.26 49.97c-11.27,0 -20.42,9.14 -20.42,20.43 0,11.28 9.15,20.43 20.42,20.43 11.29,0 20.43,-9.15 20.43,-20.43 0,-11.29 -9.15,-20.43 -20.43,-20.43z"/>
   <path class="fil0" d="M299.84 20.43c0,11.28 9.15,20.43 20.42,20.43 11.29,0 20.43,-9.15 20.43,-20.43 0,-11.28 -9.15,-20.43 -20.43,-20.43 -11.27,0 -20.42,9.15 -20.42,20.43z"/>
   <path class="fil0" d="M349.82 20.43c0,11.28 9.15,20.43 20.43,20.43 11.29,0 20.43,-9.15 20.43,-20.43 0,-11.28 -9.14,-20.43 -20.43,-20.43 -11.28,0 -20.43,9.15 -20.43,20.43z"/>
   <path class="fil0" d="M270.3 1049.45c-11.29,0 -20.43,9.14 -20.43,20.42 0,11.29 9.14,20.43 20.43,20.43 11.28,0 20.42,-9.14 20.42,-20.43 0,-11.28 -9.14,-20.42 -20.42,-20.42z"/>
   <path class="fil0" d="M270.3 899.52c-11.29,0 -20.43,9.14 -20.43,20.43 0,11.28 9.14,20.43 20.43,20.43 11.28,0 20.42,-9.15 20.42,-20.43 0,-11.29 -9.14,-20.43 -20.42,-20.43z"/>
   <path class="fil0" d="M270.3 849.56c-11.29,0 -20.43,9.15 -20.43,20.43 0,11.29 9.14,20.42 20.43,20.42 11.28,0 20.42,-9.14 20.42,-20.42 0,-11.28 -9.14,-20.43 -20.42,-20.43z"/>
   <path class="fil0" d="M270.3 840.43c11.28,0 20.42,-9.14 20.42,-20.43 0,-11.28 -9.14,-20.43 -20.42,-20.43 -11.29,0 -20.43,9.15 -20.43,20.43 0,11.29 9.14,20.43 20.43,20.43z"/>
   <path class="fil0" d="M270.3 749.61c-11.29,0 -20.43,9.14 -20.43,20.42 0,11.29 9.14,20.43 20.43,20.43 11.28,0 20.42,-9.14 20.42,-20.43 0,-11.28 -9.14,-20.42 -20.42,-20.42z"/>
   <path class="fil0" d="M270.3 740.48c11.28,0 20.42,-9.14 20.42,-20.42 0,-11.29 -9.14,-20.43 -20.42,-20.43 -11.29,0 -20.43,9.14 -20.43,20.43 0,11.28 9.14,20.42 20.43,20.42z"/>
   <path class="fil0" d="M270.3 649.66c-11.29,0 -20.43,9.14 -20.43,20.43 0,11.28 9.14,20.42 20.43,20.42 11.28,0 20.42,-9.14 20.42,-20.42 0,-11.29 -9.14,-20.43 -20.42,-20.43z"/>
   <path class="fil0" d="M270.3 640.54c11.28,0 20.42,-9.15 20.42,-20.43 0,-11.29 -9.14,-20.43 -20.42,-20.43 -11.29,0 -20.43,9.14 -20.43,20.43 0,11.28 9.14,20.43 20.43,20.43z"/>
   <path class="fil0" d="M220.32 640.54c11.28,0 20.43,-9.15 20.43,-20.43 0,-11.29 -9.15,-20.43 -20.43,-20.43 -11.28,0 -20.43,9.14 -20.43,20.43 0,11.28 9.15,20.43 20.43,20.43z"/>
   <path class="fil0" d="M270.3 549.71c-11.29,0 -20.43,9.15 -20.43,20.43 0,11.29 9.14,20.43 20.43,20.43 11.28,0 20.42,-9.14 20.42,-20.43 0,-11.28 -9.14,-20.43 -20.42,-20.43z"/>
   <path class="fil0" d="M270.3 540.59c11.28,0 20.42,-9.14 20.42,-20.43 0,-11.28 -9.14,-20.43 -20.42,-20.43 -11.29,0 -20.43,9.15 -20.43,20.43 0,11.29 9.14,20.43 20.43,20.43z"/>
   <path class="fil0" d="M270.3 449.77c-11.29,0 -20.43,9.14 -20.43,20.42 0,11.29 9.14,20.43 20.43,20.43 11.28,0 20.42,-9.14 20.42,-20.43 0,-11.28 -9.14,-20.42 -20.42,-20.42z"/>
   <path class="fil0" d="M270.3 440.64c11.28,0 20.42,-9.14 20.42,-20.42 0,-11.29 -9.14,-20.42 -20.42,-20.42 -11.29,0 -20.43,9.14 -20.43,20.42 0,11.28 9.14,20.42 20.43,20.42z"/>
   <path class="fil0" d="M270.3 349.82c-11.29,0 -20.43,9.14 -20.43,20.42 0,11.28 9.14,20.43 20.43,20.43 11.28,0 20.42,-9.15 20.42,-20.43 0,-11.29 -9.14,-20.42 -20.42,-20.42z"/>
   <path class="fil0" d="M270.3 340.7c11.28,0 20.42,-9.15 20.42,-20.43 0,-11.29 -9.14,-20.43 -20.42,-20.43 -11.29,0 -20.43,9.14 -20.43,20.43 0,11.28 9.14,20.43 20.43,20.43z"/>
   <path class="fil0" d="M270.3 249.87c-11.29,0 -20.43,9.15 -20.43,20.43 0,11.29 9.14,20.43 20.43,20.43 11.28,0 20.42,-9.14 20.42,-20.43 0,-11.28 -9.14,-20.43 -20.42,-20.43z"/>
   <path class="fil0" d="M270.3 240.75c11.28,0 20.42,-9.14 20.42,-20.43 0,-11.28 -9.14,-20.42 -20.42,-20.42 -11.29,0 -20.43,9.14 -20.43,20.42 0,11.29 9.14,20.43 20.43,20.43z"/>
   <path class="fil0" d="M270.3 149.92c-11.29,0 -20.43,9.14 -20.43,20.42 0,11.29 9.14,20.43 20.43,20.43 11.28,0 20.42,-9.14 20.42,-20.43 0,-11.28 -9.14,-20.42 -20.42,-20.42z"/>
   <path class="fil0" d="M270.3 140.79c11.28,0 20.42,-9.14 20.42,-20.42 0,-11.29 -9.14,-20.43 -20.42,-20.43 -11.29,0 -20.43,9.14 -20.43,20.43 0,11.28 9.14,20.42 20.43,20.42z"/>
   <path class="fil0" d="M270.3 49.97c-11.29,0 -20.43,9.14 -20.43,20.43 0,11.28 9.14,20.43 20.43,20.43 11.28,0 20.42,-9.15 20.42,-20.43 0,-11.29 -9.14,-20.43 -20.42,-20.43z"/>
   <path class="fil0" d="M249.87 20.43c0,11.28 9.14,20.43 20.43,20.43 11.28,0 20.42,-9.15 20.42,-20.43 0,-11.28 -9.14,-20.43 -20.42,-20.43 -11.29,0 -20.43,9.15 -20.43,20.43z"/>
   <path class="fil0" d="M220.32 549.71c-11.28,0 -20.43,9.15 -20.43,20.43 0,11.29 9.15,20.43 20.43,20.43 11.28,0 20.43,-9.14 20.43,-20.43 0,-11.28 -9.15,-20.43 -20.43,-20.43z"/>
   <path class="fil0" d="M220.32 540.59c11.28,0 20.43,-9.14 20.43,-20.43 0,-11.28 -9.15,-20.43 -20.43,-20.43 -11.28,0 -20.43,9.15 -20.43,20.43 0,11.29 9.15,20.43 20.43,20.43z"/>
   <path class="fil0" d="M220.32 449.77c-11.28,0 -20.43,9.14 -20.43,20.42 0,11.29 9.15,20.43 20.43,20.43 11.28,0 20.43,-9.14 20.43,-20.43 0,-11.28 -9.15,-20.42 -20.43,-20.42z"/>
   <path class="fil0" d="M220.32 440.64c11.28,0 20.43,-9.14 20.43,-20.42 0,-11.29 -9.15,-20.42 -20.43,-20.42 -11.28,0 -20.43,9.14 -20.43,20.42 0,11.28 9.15,20.42 20.43,20.42z"/>
   <path class="fil0" d="M220.32 349.82c-11.28,0 -20.43,9.14 -20.43,20.42 0,11.28 9.15,20.43 20.43,20.43 11.28,0 20.43,-9.15 20.43,-20.43 0,-11.29 -9.15,-20.42 -20.43,-20.42z"/>
   <path class="fil0" d="M220.32 340.7c11.28,0 20.43,-9.15 20.43,-20.43 0,-11.29 -9.15,-20.43 -20.43,-20.43 -11.28,0 -20.43,9.14 -20.43,20.43 0,11.28 9.15,20.43 20.43,20.43z"/>
   <path class="fil0" d="M220.32 249.87c-11.28,0 -20.43,9.15 -20.43,20.43 0,11.29 9.15,20.43 20.43,20.43 11.28,0 20.43,-9.14 20.43,-20.43 0,-11.28 -9.15,-20.43 -20.43,-20.43z"/>
   <path class="fil0" d="M220.32 240.75c11.28,0 20.43,-9.14 20.43,-20.43 0,-11.28 -9.15,-20.42 -20.43,-20.42 -11.28,0 -20.43,9.14 -20.43,20.42 0,11.29 9.15,20.43 20.43,20.43z"/>
   <path class="fil0" d="M220.32 149.92c-11.28,0 -20.43,9.14 -20.43,20.42 0,11.29 9.15,20.43 20.43,20.43 11.28,0 20.43,-9.14 20.43,-20.43 0,-11.28 -9.15,-20.42 -20.43,-20.42z"/>
   <path class="fil0" d="M220.32 140.79c11.28,0 20.43,-9.14 20.43,-20.42 0,-11.29 -9.15,-20.43 -20.43,-20.43 -11.28,0 -20.43,9.14 -20.43,20.43 0,11.28 9.15,20.42 20.43,20.42z"/>
   <path class="fil0" d="M220.32 49.97c-11.28,0 -20.43,9.14 -20.43,20.43 0,11.28 9.15,20.43 20.43,20.43 11.28,0 20.43,-9.15 20.43,-20.43 0,-11.29 -9.15,-20.43 -20.43,-20.43z"/>
   <path class="fil0" d="M220.32 0c-11.28,0 -20.43,9.15 -20.43,20.43 0,11.28 9.15,20.43 20.43,20.43 11.28,0 20.43,-9.15 20.43,-20.43 0,-11.28 -9.15,-20.43 -20.43,-20.43z"/>
   <path class="fil0" d="M170.35 549.71c-11.29,0 -20.43,9.15 -20.43,20.43 0,11.29 9.14,20.43 20.43,20.43 11.28,0 20.43,-9.14 20.43,-20.43 0,-11.28 -9.15,-20.43 -20.43,-20.43z"/>
   <path class="fil0" d="M170.35 540.59c11.28,0 20.43,-9.14 20.43,-20.43 0,-11.28 -9.15,-20.43 -20.43,-20.43 -11.29,0 -20.43,9.15 -20.43,20.43 0,11.29 9.14,20.43 20.43,20.43z"/>
   <path class="fil0" d="M170.35 449.77c-11.29,0 -20.43,9.14 -20.43,20.42 0,11.29 9.14,20.43 20.43,20.43 11.28,0 20.43,-9.14 20.43,-20.43 0,-11.28 -9.15,-20.42 -20.43,-20.42z"/>
   <path class="fil0" d="M170.35 440.64c11.28,0 20.43,-9.14 20.43,-20.42 0,-11.29 -9.15,-20.42 -20.43,-20.42 -11.29,0 -20.43,9.14 -20.43,20.42 0,11.28 9.14,20.42 20.43,20.42z"/>
   <path class="fil0" d="M170.35 349.82c-11.29,0 -20.43,9.14 -20.43,20.42 0,11.28 9.14,20.43 20.43,20.43 11.28,0 20.43,-9.15 20.43,-20.43 0,-11.29 -9.15,-20.42 -20.43,-20.42z"/>
   <path class="fil0" d="M170.35 340.7c11.28,0 20.43,-9.15 20.43,-20.43 0,-11.29 -9.15,-20.43 -20.43,-20.43 -11.29,0 -20.43,9.14 -20.43,20.43 0,11.28 9.14,20.43 20.43,20.43z"/>
   <path class="fil0" d="M170.35 249.87c-11.29,0 -20.43,9.15 -20.43,20.43 0,11.29 9.14,20.43 20.43,20.43 11.28,0 20.43,-9.14 20.43,-20.43 0,-11.28 -9.15,-20.43 -20.43,-20.43z"/>
   <path class="fil0" d="M170.35 240.75c11.28,0 20.43,-9.14 20.43,-20.43 0,-11.28 -9.15,-20.42 -20.43,-20.42 -11.29,0 -20.43,9.14 -20.43,20.42 0,11.29 9.14,20.43 20.43,20.43z"/>
   <path class="fil0" d="M170.35 149.92c-11.29,0 -20.43,9.14 -20.43,20.42 0,11.29 9.14,20.43 20.43,20.43 11.28,0 20.43,-9.14 20.43,-20.43 0,-11.28 -9.15,-20.42 -20.43,-20.42z"/>
   <path class="fil0" d="M170.35 140.79c11.28,0 20.43,-9.14 20.43,-20.42 0,-11.29 -9.15,-20.43 -20.43,-20.43 -11.29,0 -20.43,9.14 -20.43,20.43 0,11.28 9.14,20.42 20.43,20.42z"/>
   <path class="fil0" d="M170.35 49.97c-11.29,0 -20.43,9.14 -20.43,20.43 0,11.28 9.14,20.43 20.43,20.43 11.28,0 20.43,-9.15 20.43,-20.43 0,-11.29 -9.15,-20.43 -20.43,-20.43z"/>
   <path class="fil0" d="M120.37 540.59c11.29,0 20.44,-9.14 20.44,-20.43 0,-11.28 -9.15,-20.43 -20.44,-20.43 -11.27,0 -20.42,9.15 -20.42,20.43 0,11.29 9.15,20.43 20.42,20.43z"/>
   <path class="fil0" d="M120.37 449.77c-11.27,0 -20.42,9.14 -20.42,20.42 0,11.29 9.15,20.43 20.42,20.43 11.29,0 20.44,-9.14 20.44,-20.43 0,-11.28 -9.15,-20.42 -20.44,-20.42z"/>
   <path class="fil0" d="M120.37 440.64c11.29,0 20.44,-9.14 20.44,-20.42 0,-11.29 -9.15,-20.42 -20.44,-20.42 -11.27,0 -20.42,9.14 -20.42,20.42 0,11.28 9.15,20.42 20.42,20.42z"/>
   <path class="fil0" d="M120.37 349.82c-11.27,0 -20.42,9.14 -20.42,20.42 0,11.28 9.15,20.43 20.42,20.43 11.29,0 20.44,-9.15 20.44,-20.43 0,-11.29 -9.15,-20.42 -20.44,-20.42z"/>
   <path class="fil0" d="M120.37 340.7c11.29,0 20.44,-9.15 20.44,-20.43 0,-11.29 -9.15,-20.43 -20.44,-20.43 -11.27,0 -20.42,9.14 -20.42,20.43 0,11.28 9.15,20.43 20.42,20.43z"/>
   <path class="fil0" d="M120.37 249.87c-11.27,0 -20.42,9.15 -20.42,20.43 0,11.29 9.15,20.43 20.42,20.43 11.29,0 20.44,-9.14 20.44,-20.43 0,-11.28 -9.15,-20.43 -20.44,-20.43z"/>
   <path class="fil0" d="M120.37 240.75c11.29,0 20.44,-9.14 20.44,-20.43 0,-11.28 -9.15,-20.42 -20.44,-20.42 -11.27,0 -20.42,9.14 -20.42,20.42 0,11.29 9.15,20.43 20.42,20.43z"/>
   <path class="fil0" d="M120.37 149.92c-11.27,0 -20.42,9.14 -20.42,20.42 0,11.29 9.15,20.43 20.42,20.43 11.29,0 20.44,-9.14 20.44,-20.43 0,-11.28 -9.15,-20.42 -20.44,-20.42z"/>
   <path class="fil0" d="M120.37 99.95c-11.27,0 -20.42,9.14 -20.42,20.43 0,11.28 9.15,20.42 20.42,20.42 11.29,0 20.44,-9.14 20.44,-20.42 0,-11.29 -9.15,-20.43 -20.44,-20.43z"/>
   <path class="fil0" d="M120.37 49.97c-11.27,0 -20.42,9.14 -20.42,20.43 0,11.28 9.15,20.43 20.42,20.43 11.29,0 20.44,-9.15 20.44,-20.43 0,-11.29 -9.15,-20.43 -20.44,-20.43z"/>
   <path class="fil0" d="M120.37 40.85c11.29,0 20.44,-9.15 20.44,-20.43 0,-11.28 -9.15,-20.43 -20.44,-20.43 -11.27,0 -20.42,9.15 -20.42,20.43 0,11.28 9.15,20.43 20.42,20.43z"/>
   <path class="fil0" d="M70.4 440.64c11.29,0 20.43,-9.14 20.43,-20.42 0,-11.29 -9.14,-20.42 -20.43,-20.42 -11.28,0 -20.43,9.14 -20.43,20.42 0,11.28 9.15,20.42 20.43,20.42z"/>
   <path class="fil0" d="M70.4 349.82c-11.28,0 -20.43,9.14 -20.43,20.42 0,11.28 9.15,20.43 20.43,20.43 11.29,0 20.43,-9.15 20.43,-20.43 0,-11.29 -9.14,-20.42 -20.43,-20.42z"/>
   <path class="fil0" d="M70.4 299.85c-11.28,0 -20.43,9.14 -20.43,20.43 0,11.28 9.15,20.43 20.43,20.43 11.29,0 20.43,-9.15 20.43,-20.43 0,-11.29 -9.14,-20.43 -20.43,-20.43z"/>
   <path class="fil0" d="M70.4 249.87c-11.28,0 -20.43,9.15 -20.43,20.43 0,11.29 9.15,20.43 20.43,20.43 11.29,0 20.43,-9.14 20.43,-20.43 0,-11.28 -9.14,-20.43 -20.43,-20.43z"/>
   <path class="fil0" d="M70.4 199.9c-11.28,0 -20.43,9.14 -20.43,20.42 0,11.29 9.15,20.43 20.43,20.43 11.29,0 20.43,-9.14 20.43,-20.43 0,-11.28 -9.14,-20.42 -20.43,-20.42z"/>
   <path class="fil0" d="M70.4 190.77c11.29,0 20.43,-9.14 20.43,-20.43 0,-11.28 -9.14,-20.42 -20.43,-20.42 -11.28,0 -20.43,9.14 -20.43,20.42 0,11.29 9.15,20.43 20.43,20.43z"/>
   <path class="fil0" d="M70.4 49.97c-11.28,0 -20.43,9.14 -20.43,20.43 0,11.28 9.15,20.43 20.43,20.43 11.29,0 20.43,-9.15 20.43,-20.43 0,-11.29 -9.14,-20.43 -20.43,-20.43z"/>
   <path class="fil0" d="M20.42 299.85c-11.27,0 -20.42,9.14 -20.42,20.43 0,11.28 9.15,20.43 20.42,20.43 11.29,0 20.44,-9.15 20.44,-20.43 0,-11.29 -9.15,-20.43 -20.44,-20.43z"/>
   <path class="fil0" d="M20.42 290.72c11.29,0 20.44,-9.14 20.44,-20.43 0,-11.28 -9.15,-20.43 -20.44,-20.43 -11.27,0 -20.42,9.15 -20.42,20.43 0,11.29 9.15,20.43 20.42,20.43z"/>
   <path class="fil0" d="M20.42 240.75c11.29,0 20.44,-9.14 20.44,-20.43 0,-11.28 -9.15,-20.42 -20.44,-20.42 -11.27,0 -20.42,9.14 -20.42,20.42 0,11.29 9.15,20.43 20.42,20.43z"/>
  </g>
 </g>
</svg>
