<svg fill="#4d31ba" height="512" viewBox="0 0 60 60" width="512" xmlns="http://www.w3.org/2000/svg"><g id="Page-1" fill="#4d31ba"><g id="019---Law-Writing" fill="#4d31ba" fill-rule="nonzero"><path id="Shape" d="m9.033 34c.69232227.0034233 1.3641905-.2345595 1.9-.673l8.9-7.182c.4878145.4611831 1.1164663.7450449 1.785.806.091.007.182.012.272.012.7286997.0003952 1.4327172-.2640111 1.981-.744l.888-.77.384.485c-.3419168.6922921-.256373 1.5193453.22 2.127l.989 1.25c.3276707.4174838.8095046.6856098 1.337.744.0754073.0079342.1511764.0119396.227.012.4513572.0006693.8891996-.153988 1.24-.438l8.094-6.5c.8521203-.690648.9923669-1.9372847.315-2.8l-.988-1.25c-.4401252-.5721345-1.1626067-.8510208-1.873-.723l-8.131-10.289c.3079664-.67965934.211969-1.47423969-.249-2.061l-.988-1.25c-.3285625-.41430458-.8085739-.68072637-1.33397-.74039636s-1.0529275.09232373-1.46603.42239636l-8.094 6.5c-.8545906.6913086-.9953625 1.9408824-.316 2.805l.984 1.257c.3283229.4175755.8109424.6853771 1.339.743.0746966.0084475.1498287.0124545.225.012.1287058-.0010127.2569963-.0147462.383-.041l.545.689-1.064.859c-1.2710523 1.0177838-1.5116261 2.8576214-.545 4.168l-8.86 7.145c-1.30059626 1.0574894-1.51083618 2.9634568-.472 4.279.57226796.7265606 1.44713763 1.1492421 2.372 1.146zm18.889-5.93-.989-1.255 5.2-4.174 2.879-2.312.011-.008.977 1.245zm-1.338-3.54-.932-1.178-5.856-7.4c-.006-.007-.007-.016-.013-.023s-.013-.009-.018-.016l-1.007-1.272 6.4-5.139 7.826 9.893zm-2.81-18.525.983 1.246-.069.056-7.957 6.393c-.014.012-.021.03-.034.042l-.018.014-.991-1.256zm-5.983 12.813 1.052-.849 4.676 5.91-.956.829c-.2106545.1841254-.4872563.2744367-.7659763.2500935-.2787201-.0243432-.5354779-.1612377-.7110237-.3790935l-3.45-4.279c-.1783935-.2196867-.2612428-.5017343-.23-.783.029738-.275096.1683901-.5268305.385-.699zm-9.4 11.31 8.847-7.135 1.309 1.622-8.873 7.159c-.18072714.1478617-.40750034.2278161-.641.226-.31272137-.0008534-.60769831-.1453921-.8-.392-.36214936-.4529812-.29212539-1.1130797.157-1.48z"/><path id="Shape" d="m7 39h23c.5522847 0 1-.4477153 1-1s-.4477153-1-1-1h-23c-.55228475 0-1 .4477153-1 1s.44771525 1 1 1z"/><path id="Shape" d="m7 44h18c.5522847 0 1-.4477153 1-1s-.4477153-1-1-1h-18c-.55228475 0-1 .4477153-1 1s.44771525 1 1 1z"/><path id="Shape" d="m7 49h15c.5522847 0 1-.4477153 1-1s-.4477153-1-1-1h-15c-.55228475 0-1 .4477153-1 1s.44771525 1 1 1z"/><path id="Shape" d="m57.424 20.81c-1.5847285-1.5533019-4.1253883-1.5385721-5.692.033l-4.916 4.918-2.816 2.818v-25.579c0-1.65685425-1.3431458-3-3-3h-33c-.26519481.00005664-.51950727.10545063-.707.293l-7 7c-.18754937.18749273-.29294336.44180519-.293.707v49c0 1.6568542 1.34314575 3 3 3h38c1.6568542 0 3-1.3431458 3-3v-14.287l9.869-9.869c.005-.005.012-.006.018-.011s.006-.013.011-.018l2.8-2.8c.006 0 .013-.006.018-.012s.006-.012.012-.017l2.078-2.078c.7591525-.7492833 1.18913-1.7697329 1.1951328-2.836364.0060029-1.0666311-.4124619-2.0918556-1.1631328-2.849636zm-4.247 9.9-2.118-2.117-2.121-2.121 1.414-1.415 4.24 4.24zm-18.385 18.383-1.411-1.411 16.97-16.971 1.412 1.412zm-6.808 2.89c-.0901108.0366438-.1934839.0139813-.26-.057-.0668913-.0590134-.0934271-.1514986-.068-.237l1.878-5.026 3.453 3.453zm19.539-24.1 1.414 1.417-16.97 16.968-1.411-1.411zm-40.523-24.469v2.586c0 .55228475-.44771525 1-1 1h-2.586zm35 53.586c0 .5522847-.4477153 1-1 1h-38c-.55228475 0-1-.4477153-1-1v-48h4c1.65685425 0 3-1.34314575 3-3v-4h32c.5522847 0 1 .44771525 1 1v27.58l-13.24 13.246c-.3155735.3018316-.5571838.6724604-.706 1.083l-2.281 6.105c-.1027014.3179423-.133108.6548061-.089.986h-18.684c-.55228475 0-1 .4477153-1 1s.44771525 1 1 1h21c.2231011-.0256975.4435797-.0705292.659-.134l6.077-2.266c.4051036-.1454844.7714806-.3818677 1.071-.691l6.193-6.196zm15.4-30.511-1.395 1.391-4.241-4.24 1.382-1.383c.3863893-.3872598.9109471-.6049261 1.458-.605.5272133-.0021416 1.0338179.2045991 1.409.575l1.407 1.407c.3756064.3786624.5844076.8916652.58 1.425-.0018863.5374878-.2178008 1.052084-.6 1.43z"/></g></g></svg>