<?xml version="1.0" encoding="utf-8"?>
<!-- Generator: Adobe Illustrator 27.7.0, SVG Export Plug-In . SVG Version: 6.00 Build 0)  -->
<svg version="1.1" id="Warstwa_1" xmlns="http://www.w3.org/2000/svg" xmlns:xlink="http://www.w3.org/1999/xlink" x="0px" y="0px"
	 viewBox="0 0 481.4 511" style="enable-background:new 0 0 481.4 511;" xml:space="preserve">
<path d="M481.4,124.8c0-23.1-18.8-41.9-41.9-41.9c-11.9,0-22.6,5-30.2,12.9L245.7,1.3c-3.1-1.8-6.9-1.8-10,0L72.1,95.8
	c-7.6-8-18.4-12.9-30.2-12.9C18.8,82.9,0,101.7,0,124.8c0,19.7,13.6,36.2,31.9,40.7v188.8c0,3.6,1.9,6.9,5,8.6l163.5,94.4
	c-1.1,3.7-1.7,7.6-1.7,11.7c0,23.1,18.8,41.9,41.9,41.9c23.1,0,41.9-18.8,41.9-41.9c0-4.1-0.6-8-1.7-11.7l163.6-94.4
	c3.1-1.8,5-5.1,5-8.6V165.5C467.8,161,481.4,144.5,481.4,124.8z M20,124.8c0-12.1,9.8-22,22-22c12.1,0,22,9.8,22,22
	c0,12.1-9.8,22-22,22C29.8,146.7,20,136.9,20,124.8z M240.7,491c-12.1,0-22-9.8-22-22c0-12.1,9.8-22,22-22c12.1,0,22,9.9,22,22
	C262.7,481.2,252.8,491,240.7,491z M270.9,440.1c-7.6-8-18.4-12.9-30.2-12.9c-11.9,0-22.6,5-30.2,12.9L51.9,348.5V165.5
	c18.3-4.5,31.9-21,31.9-40.7c0-4.1-0.6-8-1.7-11.7l158.6-91.5L399.3,113c-1.1,3.7-1.7,7.7-1.7,11.7c0,19.7,13.6,36.2,31.9,40.7
	v183.1L270.9,440.1z M439.5,146.7c-12.1,0-22-9.9-22-22c0-12.1,9.9-22,22-22c12.1,0,22,9.8,22,22
	C461.5,136.9,451.6,146.7,439.5,146.7z"/>
<path d="M377.4,154.8L245.7,78.8c-3.1-1.8-6.9-1.8-10,0L104,154.8c-3.1,1.8-5,5.1-5,8.6v152.1c0,3.6,1.9,6.9,5,8.6l131.7,76.1
	c1.5,0.9,3.3,1.3,5,1.3c1.7,0,3.4-0.4,5-1.3l131.7-76.1c3.1-1.8,5-5.1,5-8.6V163.5C382.4,159.9,380.5,156.6,377.4,154.8z
	 M240.7,98.9l111.8,64.5L240.7,228l-111.8-64.5L240.7,98.9z M250.7,374.4v-45c0-5.5-4.5-10-10-10c-5.5,0-10,4.5-10,10v45L119,309.8
	V180.8l116.8,67.4c1.5,0.9,3.3,1.3,5,1.3c1.7,0,3.4-0.4,5-1.3l116.8-67.4v129.1L250.7,374.4z"/>
<path d="M240.7,274.5c-2.6,0-5.2,1.1-7.1,2.9c-1.9,1.9-2.9,4.4-2.9,7.1c0,2.6,1.1,5.2,2.9,7.1c1.9,1.9,4.4,2.9,7.1,2.9
	c2.6,0,5.2-1.1,7.1-2.9c1.9-1.9,2.9-4.4,2.9-7.1c0-2.6-1.1-5.2-2.9-7.1C245.9,275.5,243.3,274.5,240.7,274.5z"/>
</svg>
