<?xml version="1.0" encoding="utf-8"?>
<!-- Generator: Adobe Illustrator 27.7.0, SVG Export Plug-In . SVG Version: 6.00 Build 0)  -->
<svg version="1.1" id="svg1734" xmlns:svg="http://www.w3.org/2000/svg"
	 xmlns="http://www.w3.org/2000/svg" xmlns:xlink="http://www.w3.org/1999/xlink" x="0px" y="0px" viewBox="0 0 682.7 655.3"
	 style="enable-background:new 0 0 682.7 655.3;" xml:space="preserve">
<style type="text/css">
	.st0{fill:none;stroke:#000000;stroke-width:26.6667;stroke-linecap:round;stroke-linejoin:round;stroke-miterlimit:13.3333;}
</style>
<g id="g1740" transform="matrix(1.3333333,0,0,-1.3333333,0,682.66667)">
	<g id="g1742">
		<g>
			<g id="g1744">
				<g id="g1750" transform="translate(414.6342,51.2314)">
					<path id="path1752" class="st0" d="M0,10.3c-74.4-48.5-175.1-40-240.4,25.3c-75,75-75,196.5,0,271.5c75,75,196.5,75,271.5,0
						c65.3-65.3,73.7-165.8,25.4-240.2"/>
				</g>
				<g id="g1754" transform="translate(445.7652,76.4976)">
					<path id="path1756" class="st0" d="M0,10.3L0,10.3"/>
				</g>
				<g id="g1758" transform="translate(310.0006,67.1331)">
					<path id="path1760" class="st0" d="M0,10.3c-80.2,0-145.1,65-145.1,145.1S-80.2,300.5,0,300.5s145.1-65,145.1-145.1
						S80.2,10.3,0,10.3z"/>
				</g>
				<g id="g1762" transform="translate(273.8483,443.7379)">
					<path id="path1764" class="st0" d="M0,10.3h72c13.3,0,24,10.7,24,24l0,0c0,13.3-10.7,24-24,24H0c-13.3,0-24-10.7-24-24l0,0
						C-24,21-13.3,10.3,0,10.3z"/>
				</g>
				<g id="g1766" transform="translate(344.0551,404.2621)">
					<path id="path1768" class="st0" d="M0,10.3v39.5h-68.4V10.3"/>
				</g>
				<g id="g1770" transform="translate(328.9551,231.2166)">
					<path id="path1772" class="st0" d="M0,10.3l51.4,51.4"/>
				</g>
				<g id="g1774" transform="translate(288.9265,212.2621)">
					<path id="path1776" class="st0" d="M0,10.3C0-1.4,9.4-10.8,21.1-10.8s21.1,9.4,21.1,21.1s-9.4,21.1-21.1,21.1S0,21.9,0,10.3z"
						/>
				</g>
				<g id="g1778" transform="translate(416.9196,212.14)">
					<path id="path1780" class="st0" d="M0,10.3h-9.3"/>
				</g>
				<g id="g1782" transform="translate(203.0817,212.3842)">
					<path id="path1784" class="st0" d="M0,10.3h9.3"/>
				</g>
				<g id="g1786" transform="translate(310.1228,319.1811)">
					<path id="path1788" class="st0" d="M0,10.3V1"/>
				</g>
				<g id="g1790" transform="translate(309.8785,105.3432)">
					<path id="path1792" class="st0" d="M0,10.3v9.3"/>
				</g>
				<g id="g1794" transform="translate(294.1852,228.0776)">
					<path id="path1796" class="st0" d="M0,10.3l-27.1,27.1"/>
				</g>
				<g id="g1798" transform="translate(324.9023,227.1638)">
					<path id="path1800" class="st0" d="M0,10.3l54,54"/>
				</g>
				<g id="g1802" transform="translate(126.7609,150.5582)">
					<path id="path1804" class="st0" d="M0,10.3h-76.8"/>
				</g>
				<g id="g1806" transform="translate(118.0007,208.9946)">
					<path id="path1808" class="st0" d="M0,10.3h-54"/>
				</g>
				<g id="g1810" transform="translate(124.0942,267.431)">
					<path id="path1812" class="st0" d="M0,10.3h-114.1"/>
				</g>
				<g id="g1814" transform="translate(149.4276,325.8674)">
					<path id="path1816" class="st0" d="M0,10.3h-71.3"/>
				</g>
				<g id="g1818" transform="translate(10,150.5582)">
					<path id="path1820" class="st0" d="M0,10.3L0,10.3"/>
				</g>
			</g>
		</g>
	</g>
</g>
</svg>
