<?xml version="1.0" encoding="utf-8"?>
<!-- Generator: Adobe Illustrator 27.7.0, SVG Export Plug-In . SVG Version: 6.00 Build 0)  -->
<svg version="1.1" id="Layer_1" xmlns="http://www.w3.org/2000/svg" xmlns:xlink="http://www.w3.org/1999/xlink" x="0px" y="0px"
	 viewBox="0 0 512 494.9" style="enable-background:new 0 0 512 494.9;" xml:space="preserve">
<style type="text/css">
	.st0{fill:#4A9279;}
	.st1{fill:#3B71B8;}
</style>
<g>
	<path class="st0" d="M212,368c-14.9,5.2-30.1,9.4-45.8,11.7l-11.3,1.6l-54.4,54.4l-53-53l21.2-21.2l31.8,31.8l29.2-29.2l2.6-18.4
		c3-21,9.2-41.2,17.4-60.8H0v210h212V368z"/>
	<polygon class="st1" points="422,157.3 422,203.6 362,270.8 362,314.8 392,314.8 392,282.7 452,215.5 452,127.3 384.7,63.6 
		236.2,212.1 299.9,275.8 	"/>
	<path class="st1" d="M215.9,234.2c-28.6,32.7-47.7,72.6-53.9,115.8c43.2-6.2,83.1-25.3,115.8-53.9L215.9,234.2z"/>
	<path class="st1" d="M466.3,24.5c-9.9-2.5-20.8-0.4-28.6,7.4l-21.2,21.2L459,95.5l21.2-21.2c7.8-7.8,9.9-18.6,7.4-28.6L512,21.2
		L490.8,0L466.3,24.5z"/>
</g>
</svg>
