<?xml version="1.0" encoding="utf-8"?>
<!-- Generator: Adobe Illustrator 27.7.0, SVG Export Plug-In . SVG Version: 6.00 Build 0)  -->
<svg version="1.1" id="Capa_1" xmlns="http://www.w3.org/2000/svg" xmlns:xlink="http://www.w3.org/1999/xlink" x="0px" y="0px"
	 viewBox="0 0 409.5 512.1" style="enable-background:new 0 0 409.5 512.1;" xml:space="preserve">
<style type="text/css">
	.st0{fill:#4A9279;}
	.st1{fill:#3B71B8;}
</style>
<g>
	<path class="st0" d="M135.6,456.9H27.5C12.3,456.9,0,469.3,0,484.4c0,15.2,12.3,27.5,27.5,27.5h156.7
		C164.1,497.6,147.4,478.8,135.6,456.9z"/>
	<path class="st0" d="M27.5,426.9h95.7c-4.4-14.7-6.8-30.3-6.8-46.5c0-2.9,0.1-5.7,0.2-8.5h-89c-15.2,0-27.5,12.4-27.5,27.5
		C-0.1,414.6,12.3,426.9,27.5,426.9z"/>
	<path class="st0" d="M27.5,341.8H121c4.9-20.1,13.6-38.7,25.3-55.1H27.5C12.3,286.7,0,299.1,0,314.2
		C-0.1,329.5,12.3,341.8,27.5,341.8L27.5,341.8z"/>
	<path class="st0" d="M27.5,256.8H174c24.1-20.3,54.2-33.7,87.2-37.1c-3.9-10.5-14-17.9-25.8-17.9H27.5C12.3,201.8,0,214.2,0,229.3
		C-0.1,244.4,12.3,256.8,27.5,256.8z"/>
	<path class="st1" d="M185.5,286.8c-15.3,15.1-27,34-33.4,55.1c-27,87.8,42.7,175.7,133.9,169.9c68.8-4.2,123.5-61.5,123.5-131.3
		C409.5,265.4,269.6,203.7,185.5,286.8L185.5,286.8z M325.4,415.9c-2.7,16.1-14.5,32.5-32.9,38.5v4c0,8.8-7.6,15.7-16.1,15
		c-7.8-0.5-13.9-7-13.9-15v-2.2c-9.9-1.3-17.5-4.9-26-10.5c-1.6-1-3-2.4-4-3.8c-9.3-13,5.5-29.4,19.3-21.9l0,0
		c7.9,4.2,7.8,7,25.1,6.9c4.1,0,7.6-1.2,10.4-3l0,0c9.7-6.3,14-23.8-1.8-29.4c-12.7-4.5-34.7-12.7-43.5-23.1l0,0
		c-17.7-20.3-7.4-56.9,20.4-65c0-3.9-0.9-12.1,7.4-17c8.5-5,22.6-1.7,22.6,16.2c3.5,0.9,8.1,2.8,12.8,4.9
		c9.3,4.3,11.7,16.4,4.8,23.9c-4.4,4.8-11.5,6.2-17.5,3.4c-4.6-2.1-10.9-6-21.3-2.8c-8.4,2.5-9.6,14.4-6.2,17.1
		c7.3,5.8,21.6,11,30.5,14.1C317.1,373.8,329.1,393.8,325.4,415.9L325.4,415.9z"/>
	<path class="st1" d="M70.5,102.1h18.6c6.8,0,12.2,5.5,12.2,12.2v45.2c0,6.8,5.5,12.2,12.2,12.2h35.8c6.7,0,12.2-5.5,12.2-12.2
		v-45.2c0-6.8,5.5-12.2,12.2-12.2h18.6c9.8,0,15.6-10.9,10.1-19L141.6,5.4c-4.8-7.2-15.5-7.2-20.3,0L60.4,83
		C54.9,91.2,60.7,102.1,70.5,102.1L70.5,102.1z"/>
</g>
</svg>
