<?xml version="1.0" encoding="UTF-8"?>
<!DOCTYPE svg PUBLIC "-//W3C//DTD SVG 1.1//EN" "http://www.w3.org/Graphics/SVG/1.1/DTD/svg11.dtd">
<!-- Creator: CorelDRAW (Nie do użytku komercyjnego) -->
<svg xmlns="http://www.w3.org/2000/svg" xml:space="preserve" width="53.2848mm" height="63.2193mm" version="1.1" style="shape-rendering:geometricPrecision; text-rendering:geometricPrecision; image-rendering:optimizeQuality; fill-rule:evenodd; clip-rule:evenodd"
viewBox="0 0 6864.27 8144.06"
 xmlns:xlink="http://www.w3.org/1999/xlink"
 xmlns:xodm="http://www.corel.com/coreldraw/odm/2003">
 <defs>
  <style type="text/css">
   <![CDATA[
    .fil0 {fill:#422CB7;fill-rule:nonzero}
   ]]>
  </style>
 </defs>
 <g id="Warstwa_x0020_1">
  <metadata id="CorelCorpID_0Corel-Layer"/>
  <g id="_105553177537632">
   <path class="fil0" d="M6503.7 3327.56c-57.76,0 -104.57,46.81 -104.57,104.62 0,57.76 46.8,104.62 104.57,104.62 57.8,0 104.62,-46.85 104.62,-104.62 0,-57.8 -46.81,-104.62 -104.62,-104.62z"/>
   <path class="fil0" d="M6759.66 3071.56c-57.76,0 -104.62,46.87 -104.62,104.62 0,57.76 46.85,104.62 104.62,104.62 57.8,0 104.62,-46.85 104.62,-104.62 0,-57.75 -46.81,-104.62 -104.62,-104.62z"/>
   <path class="fil0" d="M6503.66 3071.56c-57.76,0 -104.58,46.87 -104.58,104.62 0,57.76 46.81,104.62 104.58,104.62 57.8,0 104.62,-46.85 104.62,-104.62 0,-57.75 -46.81,-104.62 -104.62,-104.62z"/>
   <path class="fil0" d="M6247.7 3792.7c57.82,0 104.62,-46.8 104.62,-104.57 0,-57.82 -46.8,-104.62 -104.62,-104.62 -57.76,0 -104.57,46.8 -104.57,104.62 0,57.76 46.8,104.57 104.57,104.57z"/>
   <path class="fil0" d="M6247.7 3536.79c57.82,0 104.62,-46.85 104.62,-104.62 0,-57.8 -46.8,-104.62 -104.62,-104.62 -57.76,0 -104.57,46.81 -104.57,104.62 0,57.76 46.8,104.62 104.57,104.62z"/>
   <path class="fil0" d="M6247.7 3280.8c57.82,0 104.62,-46.85 104.62,-104.62 0,-57.75 -46.8,-104.62 -104.62,-104.62 -57.76,0 -104.57,46.87 -104.57,104.62 0,57.76 46.8,104.62 104.57,104.62z"/>
   <path class="fil0" d="M5991.8 3839.51c-57.8,0 -104.62,46.8 -104.62,104.57 0,57.82 46.81,104.62 104.62,104.62 57.76,0 104.58,-46.8 104.58,-104.62 0,-57.76 -46.81,-104.57 -104.58,-104.57z"/>
   <path class="fil0" d="M5991.8 3583.52c-57.8,0 -104.62,46.8 -104.62,104.62 0,57.76 46.81,104.57 104.62,104.57 57.76,0 104.58,-46.8 104.58,-104.57 0,-57.82 -46.81,-104.62 -104.58,-104.62z"/>
   <path class="fil0" d="M5887.18 3432.18c0,57.76 46.81,104.62 104.62,104.62 57.76,0 104.58,-46.85 104.58,-104.62 0,-57.8 -46.81,-104.62 -104.58,-104.62 -57.8,0 -104.62,46.81 -104.62,104.62z"/>
   <path class="fil0" d="M5991.8 3071.56c-57.8,0 -104.62,46.87 -104.62,104.62 0,57.76 46.81,104.62 104.62,104.62 57.76,0 104.58,-46.85 104.58,-104.62 0,-57.75 -46.81,-104.62 -104.58,-104.62z"/>
   <path class="fil0" d="M5735.8 4304.65c57.76,0 104.62,-46.81 104.62,-104.62 0,-57.76 -46.85,-104.58 -104.62,-104.58 -57.8,0 -104.62,46.81 -104.62,104.58 0,57.8 46.81,104.62 104.62,104.62z"/>
   <path class="fil0" d="M6503.7 3578.25c-57.76,0 -104.57,46.8 -104.57,104.57 0,57.8 46.8,104.62 104.57,104.62 57.8,0 104.62,-46.81 104.62,-104.62 0,-57.76 -46.81,-104.57 -104.62,-104.57z"/>
   <path class="fil0" d="M6247.7 4043.37c57.82,0 104.62,-46.8 104.62,-104.62 0,-57.75 -46.8,-104.57 -104.62,-104.57 -57.76,0 -104.57,46.81 -104.57,104.57 0,57.82 46.8,104.62 104.57,104.62z"/>
   <path class="fil0" d="M5991.8 4090.14c-57.8,0 -104.62,46.87 -104.62,104.62 0,57.82 46.81,104.62 104.62,104.62 57.76,0 104.58,-46.8 104.58,-104.62 0,-57.75 -46.81,-104.62 -104.58,-104.62z"/>
   <path class="fil0" d="M5735.8 4555.33c57.76,0 104.62,-46.85 104.62,-104.62 0,-57.8 -46.85,-104.62 -104.62,-104.62 -57.8,0 -104.62,46.81 -104.62,104.62 0,57.76 46.81,104.62 104.62,104.62z"/>
   <path class="fil0" d="M5735.8 4048.69c57.76,0 104.62,-46.8 104.62,-104.62 0,-57.76 -46.85,-104.57 -104.62,-104.57 -57.8,0 -104.62,46.8 -104.62,104.57 0,57.82 46.81,104.62 104.62,104.62z"/>
   <path class="fil0" d="M5735.8 3792.7c57.76,0 104.62,-46.8 104.62,-104.57 0,-57.82 -46.85,-104.62 -104.62,-104.62 -57.8,0 -104.62,46.8 -104.62,104.62 0,57.76 46.81,104.57 104.62,104.57z"/>
   <path class="fil0" d="M5735.8 3536.79c57.76,0 104.62,-46.85 104.62,-104.62 0,-57.8 -46.85,-104.62 -104.62,-104.62 -57.8,0 -104.62,46.81 -104.62,104.62 0,57.76 46.81,104.62 104.62,104.62z"/>
   <path class="fil0" d="M5735.8 3280.8c57.76,0 104.62,-46.85 104.62,-104.62 0,-57.75 -46.85,-104.62 -104.62,-104.62 -57.8,0 -104.62,46.87 -104.62,104.62 0,57.76 46.81,104.62 104.62,104.62z"/>
   <path class="fil0" d="M5735.8 3024.8c57.76,0 104.62,-46.8 104.62,-104.62 0,-57.75 -46.85,-104.62 -104.62,-104.62 -57.8,0 -104.62,46.87 -104.62,104.62 0,57.82 46.81,104.62 104.62,104.62z"/>
   <path class="fil0" d="M5735.8 2768.86c57.76,0 104.62,-46.85 104.62,-104.62 0,-57.76 -46.85,-104.62 -104.62,-104.62 -57.8,0 -104.62,46.85 -104.62,104.62 0,57.76 46.81,104.62 104.62,104.62z"/>
   <path class="fil0" d="M5479.86 5887.16c-57.76,0 -104.62,46.85 -104.62,104.62 0,57.8 46.85,104.62 104.62,104.62 57.76,0 104.62,-46.81 104.62,-104.62 0,-57.76 -46.85,-104.62 -104.62,-104.62z"/>
   <path class="fil0" d="M5479.86 5631.2c-57.76,0 -104.62,46.87 -104.62,104.62 0,57.82 46.85,104.62 104.62,104.62 57.76,0 104.62,-46.8 104.62,-104.62 0,-57.75 -46.85,-104.62 -104.62,-104.62z"/>
   <path class="fil0" d="M5479.86 5375.26c-57.76,0 -104.62,46.81 -104.62,104.57 0,57.82 46.85,104.62 104.62,104.62 57.76,0 104.62,-46.8 104.62,-104.62 0,-57.75 -46.85,-104.57 -104.62,-104.57z"/>
   <path class="fil0" d="M5479.86 5119.31c-57.76,0 -104.62,46.8 -104.62,104.6 0,57.76 46.85,104.58 104.62,104.58 57.76,0 104.62,-46.81 104.62,-104.58 0,-57.8 -46.85,-104.6 -104.62,-104.6z"/>
   <path class="fil0" d="M5479.86 4863.32c-57.76,0 -104.62,46.8 -104.62,104.6 0,57.76 46.85,104.62 104.62,104.62 57.76,0 104.62,-46.85 104.62,-104.62 0,-57.8 -46.85,-104.6 -104.62,-104.6z"/>
   <path class="fil0" d="M5479.86 4607.36c-57.76,0 -104.62,46.81 -104.62,104.62 0,57.76 46.85,104.62 104.62,104.62 57.76,0 104.62,-46.85 104.62,-104.62 0,-57.8 -46.85,-104.62 -104.62,-104.62z"/>
   <path class="fil0" d="M5479.86 4351.36c-57.76,0 -104.62,46.85 -104.62,104.62 0,57.8 46.85,104.62 104.62,104.62 57.76,0 104.62,-46.81 104.62,-104.62 0,-57.76 -46.85,-104.62 -104.62,-104.62z"/>
   <path class="fil0" d="M5479.86 4095.46c-57.76,0 -104.62,46.81 -104.62,104.58 0,57.8 46.85,104.62 104.62,104.62 57.76,0 104.62,-46.81 104.62,-104.62 0,-57.76 -46.85,-104.58 -104.62,-104.58z"/>
   <path class="fil0" d="M5479.86 3839.51c-57.76,0 -104.62,46.8 -104.62,104.57 0,57.82 46.85,104.62 104.62,104.62 57.76,0 104.62,-46.8 104.62,-104.62 0,-57.76 -46.85,-104.57 -104.62,-104.57z"/>
   <path class="fil0" d="M5479.86 3583.52c-57.76,0 -104.62,46.8 -104.62,104.62 0,57.76 46.85,104.57 104.62,104.57 57.76,0 104.62,-46.8 104.62,-104.57 0,-57.82 -46.85,-104.62 -104.62,-104.62z"/>
   <path class="fil0" d="M5375.24 3432.18c0,57.76 46.85,104.62 104.62,104.62 57.76,0 104.62,-46.85 104.62,-104.62 0,-57.8 -46.85,-104.62 -104.62,-104.62 -57.76,0 -104.62,46.81 -104.62,104.62z"/>
   <path class="fil0" d="M5479.86 3071.56c-57.76,0 -104.62,46.87 -104.62,104.62 0,57.76 46.85,104.62 104.62,104.62 57.76,0 104.62,-46.85 104.62,-104.62 0,-57.75 -46.85,-104.62 -104.62,-104.62z"/>
   <path class="fil0" d="M5479.86 2815.57c-57.76,0 -104.62,46.87 -104.62,104.62 0,57.82 46.85,104.62 104.62,104.62 57.76,0 104.62,-46.8 104.62,-104.62 0,-57.75 -46.85,-104.62 -104.62,-104.62z"/>
   <path class="fil0" d="M5479.86 2559.64c-57.76,0 -104.62,46.85 -104.62,104.62 0,57.76 46.85,104.62 104.62,104.62 57.76,0 104.62,-46.85 104.62,-104.62 0,-57.76 -46.85,-104.62 -104.62,-104.62z"/>
   <path class="fil0" d="M5375.24 2408.3c0,57.76 46.85,104.62 104.62,104.62 57.76,0 104.62,-46.85 104.62,-104.62 0,-57.75 -46.85,-104.62 -104.62,-104.62 -57.76,0 -104.62,46.87 -104.62,104.62z"/>
   <path class="fil0" d="M5223.88 6143.15c-57.76,0 -104.58,46.8 -104.58,104.62 0,57.76 46.81,104.62 104.58,104.62 57.8,0 104.62,-46.85 104.62,-104.62 0,-57.82 -46.81,-104.62 -104.62,-104.62z"/>
   <path class="fil0" d="M5223.88 6096.39c57.8,0 104.62,-46.81 104.62,-104.62 0,-57.76 -46.81,-104.62 -104.62,-104.62 -57.76,0 -104.58,46.85 -104.58,104.62 0,57.8 46.81,104.62 104.58,104.62z"/>
   <path class="fil0" d="M5223.88 5840.43c57.8,0 104.62,-46.8 104.62,-104.62 0,-57.75 -46.81,-104.62 -104.62,-104.62 -57.76,0 -104.58,46.87 -104.58,104.62 0,57.82 46.81,104.62 104.58,104.62z"/>
   <path class="fil0" d="M5223.88 5584.44c57.8,0 104.62,-46.8 104.62,-104.62 0,-57.75 -46.81,-104.57 -104.62,-104.57 -57.76,0 -104.58,46.81 -104.58,104.57 0,57.82 46.81,104.62 104.58,104.62z"/>
   <path class="fil0" d="M5223.88 5328.49c57.8,0 104.62,-46.81 104.62,-104.58 0,-57.8 -46.81,-104.6 -104.62,-104.6 -57.76,0 -104.58,46.8 -104.58,104.6 0,57.76 46.81,104.58 104.58,104.58z"/>
   <path class="fil0" d="M5223.88 5072.54c57.8,0 104.62,-46.85 104.62,-104.62 0,-57.8 -46.81,-104.6 -104.62,-104.6 -57.76,0 -104.58,46.8 -104.58,104.6 0,57.76 46.81,104.62 104.58,104.62z"/>
   <path class="fil0" d="M5223.88 4816.59c57.8,0 104.62,-46.85 104.62,-104.62 0,-57.8 -46.81,-104.62 -104.62,-104.62 -57.76,0 -104.58,46.81 -104.58,104.62 0,57.76 46.81,104.62 104.58,104.62z"/>
   <path class="fil0" d="M5223.88 4560.6c57.8,0 104.62,-46.81 104.62,-104.62 0,-57.76 -46.81,-104.62 -104.62,-104.62 -57.76,0 -104.58,46.85 -104.58,104.62 0,57.8 46.81,104.62 104.58,104.62z"/>
   <path class="fil0" d="M5223.88 4304.65c57.8,0 104.62,-46.81 104.62,-104.62 0,-57.76 -46.81,-104.58 -104.62,-104.58 -57.76,0 -104.58,46.81 -104.58,104.58 0,57.8 46.81,104.62 104.58,104.62z"/>
   <path class="fil0" d="M5223.88 4048.69c57.8,0 104.62,-46.8 104.62,-104.62 0,-57.76 -46.81,-104.57 -104.62,-104.57 -57.76,0 -104.58,46.8 -104.58,104.57 0,57.82 46.81,104.62 104.58,104.62z"/>
   <path class="fil0" d="M5223.88 3792.7c57.8,0 104.62,-46.8 104.62,-104.57 0,-57.82 -46.81,-104.62 -104.62,-104.62 -57.76,0 -104.58,46.8 -104.58,104.62 0,57.76 46.81,104.57 104.58,104.57z"/>
   <path class="fil0" d="M5223.88 3536.79c57.8,0 104.62,-46.85 104.62,-104.62 0,-57.8 -46.81,-104.62 -104.62,-104.62 -57.76,0 -104.58,46.81 -104.58,104.62 0,57.76 46.81,104.62 104.58,104.62z"/>
   <path class="fil0" d="M5223.88 3280.8c57.8,0 104.62,-46.85 104.62,-104.62 0,-57.75 -46.81,-104.62 -104.62,-104.62 -57.76,0 -104.58,46.87 -104.58,104.62 0,57.76 46.81,104.62 104.58,104.62z"/>
   <path class="fil0" d="M5223.88 3024.8c57.8,0 104.62,-46.8 104.62,-104.62 0,-57.75 -46.81,-104.62 -104.62,-104.62 -57.76,0 -104.58,46.87 -104.58,104.62 0,57.82 46.81,104.62 104.58,104.62z"/>
   <path class="fil0" d="M5223.88 2768.86c57.8,0 104.62,-46.85 104.62,-104.62 0,-57.76 -46.81,-104.62 -104.62,-104.62 -57.76,0 -104.58,46.85 -104.58,104.62 0,57.76 46.81,104.62 104.58,104.62z"/>
   <path class="fil0" d="M5223.88 2512.91c57.8,0 104.62,-46.85 104.62,-104.62 0,-57.75 -46.81,-104.62 -104.62,-104.62 -57.76,0 -104.58,46.87 -104.58,104.62 0,57.76 46.81,104.62 104.58,104.62z"/>
   <path class="fil0" d="M5223.88 2256.92c57.8,0 104.62,-46.8 104.62,-104.62 0,-57.75 -46.81,-104.6 -104.62,-104.6 -57.76,0 -104.58,46.85 -104.58,104.6 0,57.82 46.81,104.62 104.58,104.62z"/>
   <path class="fil0" d="M5223.88 2001.01c57.8,0 104.62,-46.85 104.62,-104.66 0,-57.76 -46.81,-104.57 -104.62,-104.57 -57.76,0 -104.58,46.8 -104.58,104.57 0,57.8 46.81,104.66 104.58,104.66z"/>
   <path class="fil0" d="M4967.92 6655.09c-57.75,0 -104.57,46.81 -104.57,104.62 0,57.76 46.81,104.58 104.57,104.58 57.82,0 104.62,-46.81 104.62,-104.58 0,-57.8 -46.8,-104.62 -104.62,-104.62z"/>
   <path class="fil0" d="M4967.92 6399.1c-57.75,0 -104.57,46.81 -104.57,104.62 0,57.76 46.81,104.58 104.57,104.58 57.82,0 104.62,-46.81 104.62,-104.58 0,-57.8 -46.8,-104.62 -104.62,-104.62z"/>
   <path class="fil0" d="M4967.92 6143.15c-57.75,0 -104.57,46.8 -104.57,104.62 0,57.76 46.81,104.62 104.57,104.62 57.82,0 104.62,-46.85 104.62,-104.62 0,-57.82 -46.8,-104.62 -104.62,-104.62z"/>
   <path class="fil0" d="M4967.92 5887.16c-57.75,0 -104.57,46.85 -104.57,104.62 0,57.8 46.81,104.62 104.57,104.62 57.82,0 104.62,-46.81 104.62,-104.62 0,-57.76 -46.8,-104.62 -104.62,-104.62z"/>
   <path class="fil0" d="M4967.92 5631.2c-57.75,0 -104.57,46.87 -104.57,104.62 0,57.82 46.81,104.62 104.57,104.62 57.82,0 104.62,-46.8 104.62,-104.62 0,-57.75 -46.8,-104.62 -104.62,-104.62z"/>
   <path class="fil0" d="M4967.92 5375.26c-57.75,0 -104.57,46.81 -104.57,104.57 0,57.82 46.81,104.62 104.57,104.62 57.82,0 104.62,-46.8 104.62,-104.62 0,-57.75 -46.8,-104.57 -104.62,-104.57z"/>
   <path class="fil0" d="M4967.92 5119.31c-57.75,0 -104.57,46.8 -104.57,104.6 0,57.76 46.81,104.58 104.57,104.58 57.82,0 104.62,-46.81 104.62,-104.58 0,-57.8 -46.8,-104.6 -104.62,-104.6z"/>
   <path class="fil0" d="M4967.92 4863.32c-57.75,0 -104.57,46.8 -104.57,104.6 0,57.76 46.81,104.62 104.57,104.62 57.82,0 104.62,-46.85 104.62,-104.62 0,-57.8 -46.8,-104.6 -104.62,-104.6z"/>
   <path class="fil0" d="M4967.92 4607.36c-57.75,0 -104.57,46.81 -104.57,104.62 0,57.76 46.81,104.62 104.57,104.62 57.82,0 104.62,-46.85 104.62,-104.62 0,-57.8 -46.8,-104.62 -104.62,-104.62z"/>
   <path class="fil0" d="M4967.92 4351.36c-57.75,0 -104.57,46.85 -104.57,104.62 0,57.8 46.81,104.62 104.57,104.62 57.82,0 104.62,-46.81 104.62,-104.62 0,-57.76 -46.8,-104.62 -104.62,-104.62z"/>
   <path class="fil0" d="M4967.92 4095.46c-57.75,0 -104.57,46.81 -104.57,104.58 0,57.8 46.81,104.62 104.57,104.62 57.82,0 104.62,-46.81 104.62,-104.62 0,-57.76 -46.8,-104.58 -104.62,-104.58z"/>
   <path class="fil0" d="M4967.92 3839.51c-57.75,0 -104.57,46.8 -104.57,104.57 0,57.82 46.81,104.62 104.57,104.62 57.82,0 104.62,-46.8 104.62,-104.62 0,-57.76 -46.8,-104.57 -104.62,-104.57z"/>
   <path class="fil0" d="M4967.92 3583.52c-57.75,0 -104.57,46.8 -104.57,104.62 0,57.76 46.81,104.57 104.57,104.57 57.82,0 104.62,-46.8 104.62,-104.57 0,-57.82 -46.8,-104.62 -104.62,-104.62z"/>
   <path class="fil0" d="M4967.92 3327.56c-57.75,0 -104.57,46.81 -104.57,104.62 0,57.76 46.81,104.62 104.57,104.62 57.82,0 104.62,-46.85 104.62,-104.62 0,-57.8 -46.8,-104.62 -104.62,-104.62z"/>
   <path class="fil0" d="M4967.92 3071.56c-57.75,0 -104.57,46.87 -104.57,104.62 0,57.76 46.81,104.62 104.57,104.62 57.82,0 104.62,-46.85 104.62,-104.62 0,-57.75 -46.8,-104.62 -104.62,-104.62z"/>
   <path class="fil0" d="M4967.92 2815.57c-57.75,0 -104.57,46.87 -104.57,104.62 0,57.82 46.81,104.62 104.57,104.62 57.82,0 104.62,-46.8 104.62,-104.62 0,-57.75 -46.8,-104.62 -104.62,-104.62z"/>
   <path class="fil0" d="M4967.92 2559.64c-57.75,0 -104.57,46.85 -104.57,104.62 0,57.76 46.81,104.62 104.57,104.62 57.82,0 104.62,-46.85 104.62,-104.62 0,-57.76 -46.8,-104.62 -104.62,-104.62z"/>
   <path class="fil0" d="M4967.92 2303.68c-57.75,0 -104.57,46.87 -104.57,104.62 0,57.76 46.81,104.62 104.57,104.62 57.82,0 104.62,-46.85 104.62,-104.62 0,-57.75 -46.8,-104.62 -104.62,-104.62z"/>
   <path class="fil0" d="M4967.92 2047.7c-57.75,0 -104.57,46.85 -104.57,104.6 0,57.82 46.81,104.62 104.57,104.62 57.82,0 104.62,-46.8 104.62,-104.62 0,-57.75 -46.8,-104.6 -104.62,-104.6z"/>
   <path class="fil0" d="M4967.92 2001.01c57.82,0 104.62,-46.85 104.62,-104.66 0,-57.76 -46.8,-104.57 -104.62,-104.57 -57.75,0 -104.57,46.8 -104.57,104.57 0,57.8 46.81,104.66 104.57,104.66z"/>
   <path class="fil0" d="M4967.92 1745.03c57.82,0 104.62,-46.81 104.62,-104.62 0,-57.76 -46.8,-104.62 -104.62,-104.62 -57.75,0 -104.57,46.85 -104.57,104.62 0,57.8 46.81,104.62 104.57,104.62z"/>
   <path class="fil0" d="M4967.92 1489.07c57.82,0 104.62,-46.85 104.62,-104.62 0,-57.76 -46.8,-104.62 -104.62,-104.62 -57.75,0 -104.57,46.85 -104.57,104.62 0,57.76 46.81,104.62 104.57,104.62z"/>
   <path class="fil0" d="M4711.97 7376.23c57.76,0 104.57,-46.81 104.57,-104.62 0,-57.76 -46.8,-104.62 -104.57,-104.62 -57.8,0 -104.62,46.85 -104.62,104.62 0,57.8 46.81,104.62 104.62,104.62z"/>
   <path class="fil0" d="M4711.97 7120.23c57.76,0 104.57,-46.81 104.57,-104.62 0,-57.76 -46.8,-104.57 -104.57,-104.57 -57.8,0 -104.62,46.8 -104.62,104.57 0,57.8 46.81,104.62 104.62,104.62z"/>
   <path class="fil0" d="M4711.97 6864.29c57.76,0 104.57,-46.81 104.57,-104.58 0,-57.8 -46.8,-104.62 -104.57,-104.62 -57.8,0 -104.62,46.81 -104.62,104.62 0,57.76 46.81,104.58 104.62,104.58z"/>
   <path class="fil0" d="M4711.97 6608.29c57.76,0 104.57,-46.81 104.57,-104.58 0,-57.8 -46.8,-104.62 -104.57,-104.62 -57.8,0 -104.62,46.81 -104.62,104.62 0,57.76 46.81,104.58 104.62,104.58z"/>
   <path class="fil0" d="M4711.97 6352.39c57.76,0 104.57,-46.85 104.57,-104.62 0,-57.82 -46.8,-104.62 -104.57,-104.62 -57.8,0 -104.62,46.8 -104.62,104.62 0,57.76 46.81,104.62 104.62,104.62z"/>
   <path class="fil0" d="M4711.97 6096.39c57.76,0 104.57,-46.81 104.57,-104.62 0,-57.76 -46.8,-104.62 -104.57,-104.62 -57.8,0 -104.62,46.85 -104.62,104.62 0,57.8 46.81,104.62 104.62,104.62z"/>
   <path class="fil0" d="M4711.97 5840.43c57.76,0 104.57,-46.8 104.57,-104.62 0,-57.75 -46.8,-104.62 -104.57,-104.62 -57.8,0 -104.62,46.87 -104.62,104.62 0,57.82 46.81,104.62 104.62,104.62z"/>
   <path class="fil0" d="M4711.97 5584.44c57.76,0 104.57,-46.8 104.57,-104.62 0,-57.75 -46.8,-104.57 -104.57,-104.57 -57.8,0 -104.62,46.81 -104.62,104.57 0,57.82 46.81,104.62 104.62,104.62z"/>
   <path class="fil0" d="M4711.97 5328.49c57.76,0 104.57,-46.81 104.57,-104.58 0,-57.8 -46.8,-104.6 -104.57,-104.6 -57.8,0 -104.62,46.8 -104.62,104.6 0,57.76 46.81,104.58 104.62,104.58z"/>
   <path class="fil0" d="M4711.97 5072.54c57.76,0 104.57,-46.85 104.57,-104.62 0,-57.8 -46.8,-104.6 -104.57,-104.6 -57.8,0 -104.62,46.8 -104.62,104.6 0,57.76 46.81,104.62 104.62,104.62z"/>
   <path class="fil0" d="M4711.97 4816.59c57.76,0 104.57,-46.85 104.57,-104.62 0,-57.8 -46.8,-104.62 -104.57,-104.62 -57.8,0 -104.62,46.81 -104.62,104.62 0,57.76 46.81,104.62 104.62,104.62z"/>
   <path class="fil0" d="M4711.97 4560.6c57.76,0 104.57,-46.81 104.57,-104.62 0,-57.76 -46.8,-104.62 -104.57,-104.62 -57.8,0 -104.62,46.85 -104.62,104.62 0,57.8 46.81,104.62 104.62,104.62z"/>
   <path class="fil0" d="M4711.97 4304.65c57.76,0 104.57,-46.81 104.57,-104.62 0,-57.76 -46.8,-104.58 -104.57,-104.58 -57.8,0 -104.62,46.81 -104.62,104.58 0,57.8 46.81,104.62 104.62,104.62z"/>
   <path class="fil0" d="M4711.97 4048.69c57.76,0 104.57,-46.8 104.57,-104.62 0,-57.76 -46.8,-104.57 -104.57,-104.57 -57.8,0 -104.62,46.8 -104.62,104.57 0,57.82 46.81,104.62 104.62,104.62z"/>
   <path class="fil0" d="M4711.97 3792.7c57.76,0 104.57,-46.8 104.57,-104.57 0,-57.82 -46.8,-104.62 -104.57,-104.62 -57.8,0 -104.62,46.8 -104.62,104.62 0,57.76 46.81,104.57 104.62,104.57z"/>
   <path class="fil0" d="M4711.97 3536.79c57.76,0 104.57,-46.85 104.57,-104.62 0,-57.8 -46.8,-104.62 -104.57,-104.62 -57.8,0 -104.62,46.81 -104.62,104.62 0,57.76 46.81,104.62 104.62,104.62z"/>
   <path class="fil0" d="M4711.97 3280.8c57.76,0 104.57,-46.85 104.57,-104.62 0,-57.75 -46.8,-104.62 -104.57,-104.62 -57.8,0 -104.62,46.87 -104.62,104.62 0,57.76 46.81,104.62 104.62,104.62z"/>
   <path class="fil0" d="M4711.97 3024.8c57.76,0 104.57,-46.8 104.57,-104.62 0,-57.75 -46.8,-104.62 -104.57,-104.62 -57.8,0 -104.62,46.87 -104.62,104.62 0,57.82 46.81,104.62 104.62,104.62z"/>
   <path class="fil0" d="M4711.97 2768.86c57.76,0 104.57,-46.85 104.57,-104.62 0,-57.76 -46.8,-104.62 -104.57,-104.62 -57.8,0 -104.62,46.85 -104.62,104.62 0,57.76 46.81,104.62 104.62,104.62z"/>
   <path class="fil0" d="M4711.97 2512.91c57.76,0 104.57,-46.85 104.57,-104.62 0,-57.75 -46.8,-104.62 -104.57,-104.62 -57.8,0 -104.62,46.87 -104.62,104.62 0,57.76 46.81,104.62 104.62,104.62z"/>
   <path class="fil0" d="M4711.97 2256.92c57.76,0 104.57,-46.8 104.57,-104.62 0,-57.75 -46.8,-104.6 -104.57,-104.6 -57.8,0 -104.62,46.85 -104.62,104.6 0,57.82 46.81,104.62 104.62,104.62z"/>
   <path class="fil0" d="M4711.97 2001.01c57.76,0 104.57,-46.85 104.57,-104.66 0,-57.76 -46.8,-104.57 -104.57,-104.57 -57.8,0 -104.62,46.8 -104.62,104.57 0,57.8 46.81,104.66 104.62,104.66z"/>
   <path class="fil0" d="M4711.97 1745.03c57.76,0 104.57,-46.81 104.57,-104.62 0,-57.76 -46.8,-104.62 -104.57,-104.62 -57.8,0 -104.62,46.85 -104.62,104.62 0,57.8 46.81,104.62 104.62,104.62z"/>
   <path class="fil0" d="M4711.97 1489.07c57.76,0 104.57,-46.85 104.57,-104.62 0,-57.76 -46.8,-104.62 -104.57,-104.62 -57.8,0 -104.62,46.85 -104.62,104.62 0,57.76 46.81,104.62 104.62,104.62z"/>
   <path class="fil0" d="M4711.97 1233.13c57.76,0 104.57,-46.87 104.57,-104.67 0,-57.76 -46.8,-104.57 -104.57,-104.57 -57.8,0 -104.62,46.8 -104.62,104.57 0,57.8 46.81,104.67 104.62,104.67z"/>
   <path class="fil0" d="M4711.97 767.9c-57.8,0 -104.62,46.85 -104.62,104.62 0,57.8 46.81,104.62 104.62,104.62 57.76,0 104.57,-46.81 104.57,-104.62 0,-57.76 -46.8,-104.62 -104.57,-104.62z"/>
   <path class="fil0" d="M4456.03 7422.95c-57.82,0 -104.62,46.85 -104.62,104.62 0,57.8 46.8,104.6 104.62,104.6 57.75,0 104.57,-46.8 104.57,-104.6 0,-57.76 -46.81,-104.62 -104.57,-104.62z"/>
   <path class="fil0" d="M4456.03 7376.23c57.75,0 104.57,-46.81 104.57,-104.62 0,-57.76 -46.81,-104.62 -104.57,-104.62 -57.82,0 -104.62,46.85 -104.62,104.62 0,57.8 46.8,104.62 104.62,104.62z"/>
   <path class="fil0" d="M4456.03 6911.05c-57.82,0 -104.62,46.8 -104.62,104.57 0,57.8 46.8,104.62 104.62,104.62 57.75,0 104.57,-46.81 104.57,-104.62 0,-57.76 -46.81,-104.57 -104.57,-104.57z"/>
   <path class="fil0" d="M4456.03 6864.29c57.75,0 104.57,-46.81 104.57,-104.58 0,-57.8 -46.81,-104.62 -104.57,-104.62 -57.82,0 -104.62,46.81 -104.62,104.62 0,57.76 46.8,104.58 104.62,104.58z"/>
   <path class="fil0" d="M4456.03 6399.1c-57.82,0 -104.62,46.81 -104.62,104.62 0,57.76 46.8,104.58 104.62,104.58 57.75,0 104.57,-46.81 104.57,-104.58 0,-57.8 -46.81,-104.62 -104.57,-104.62z"/>
   <path class="fil0" d="M4456.03 6352.39c57.75,0 104.57,-46.85 104.57,-104.62 0,-57.82 -46.81,-104.62 -104.57,-104.62 -57.82,0 -104.62,46.8 -104.62,104.62 0,57.76 46.8,104.62 104.62,104.62z"/>
   <path class="fil0" d="M4456.03 5887.16c-57.82,0 -104.62,46.85 -104.62,104.62 0,57.8 46.8,104.62 104.62,104.62 57.75,0 104.57,-46.81 104.57,-104.62 0,-57.76 -46.81,-104.62 -104.57,-104.62z"/>
   <path class="fil0" d="M4456.03 5840.43c57.75,0 104.57,-46.8 104.57,-104.62 0,-57.75 -46.81,-104.62 -104.57,-104.62 -57.82,0 -104.62,46.87 -104.62,104.62 0,57.82 46.8,104.62 104.62,104.62z"/>
   <path class="fil0" d="M4456.03 5375.26c-57.82,0 -104.62,46.81 -104.62,104.57 0,57.82 46.8,104.62 104.62,104.62 57.75,0 104.57,-46.8 104.57,-104.62 0,-57.75 -46.81,-104.57 -104.57,-104.57z"/>
   <path class="fil0" d="M4456.03 5328.49c57.75,0 104.57,-46.81 104.57,-104.58 0,-57.8 -46.81,-104.6 -104.57,-104.6 -57.82,0 -104.62,46.8 -104.62,104.6 0,57.76 46.8,104.58 104.62,104.58z"/>
   <path class="fil0" d="M4456.03 4863.32c-57.82,0 -104.62,46.8 -104.62,104.6 0,57.76 46.8,104.62 104.62,104.62 57.75,0 104.57,-46.85 104.57,-104.62 0,-57.8 -46.81,-104.6 -104.57,-104.6z"/>
   <path class="fil0" d="M4456.03 4816.59c57.75,0 104.57,-46.85 104.57,-104.62 0,-57.8 -46.81,-104.62 -104.57,-104.62 -57.82,0 -104.62,46.81 -104.62,104.62 0,57.76 46.8,104.62 104.62,104.62z"/>
   <path class="fil0" d="M4456.03 4351.36c-57.82,0 -104.62,46.85 -104.62,104.62 0,57.8 46.8,104.62 104.62,104.62 57.75,0 104.57,-46.81 104.57,-104.62 0,-57.76 -46.81,-104.62 -104.57,-104.62z"/>
   <path class="fil0" d="M4456.03 4304.65c57.75,0 104.57,-46.81 104.57,-104.62 0,-57.76 -46.81,-104.58 -104.57,-104.58 -57.82,0 -104.62,46.81 -104.62,104.58 0,57.8 46.8,104.62 104.62,104.62z"/>
   <path class="fil0" d="M4456.03 4048.69c57.75,0 104.57,-46.8 104.57,-104.62 0,-57.76 -46.81,-104.57 -104.57,-104.57 -57.82,0 -104.62,46.8 -104.62,104.57 0,57.82 46.8,104.62 104.62,104.62z"/>
   <path class="fil0" d="M4456.03 3583.52c-57.82,0 -104.62,46.8 -104.62,104.62 0,57.76 46.8,104.57 104.62,104.57 57.75,0 104.57,-46.8 104.57,-104.57 0,-57.82 -46.81,-104.62 -104.57,-104.62z"/>
   <path class="fil0" d="M4456.03 3536.79c57.75,0 104.57,-46.85 104.57,-104.62 0,-57.8 -46.81,-104.62 -104.57,-104.62 -57.82,0 -104.62,46.81 -104.62,104.62 0,57.76 46.8,104.62 104.62,104.62z"/>
   <path class="fil0" d="M4456.03 3071.56c-57.82,0 -104.62,46.87 -104.62,104.62 0,57.76 46.8,104.62 104.62,104.62 57.75,0 104.57,-46.85 104.57,-104.62 0,-57.75 -46.81,-104.62 -104.57,-104.62z"/>
   <path class="fil0" d="M4456.03 3024.8c57.75,0 104.57,-46.8 104.57,-104.62 0,-57.75 -46.81,-104.62 -104.57,-104.62 -57.82,0 -104.62,46.87 -104.62,104.62 0,57.82 46.8,104.62 104.62,104.62z"/>
   <path class="fil0" d="M4456.03 2768.86c57.75,0 104.57,-46.85 104.57,-104.62 0,-57.76 -46.81,-104.62 -104.57,-104.62 -57.82,0 -104.62,46.85 -104.62,104.62 0,57.76 46.8,104.62 104.62,104.62z"/>
   <path class="fil0" d="M4456.03 2512.91c57.75,0 104.57,-46.85 104.57,-104.62 0,-57.75 -46.81,-104.62 -104.57,-104.62 -57.82,0 -104.62,46.87 -104.62,104.62 0,57.76 46.8,104.62 104.62,104.62z"/>
   <path class="fil0" d="M4456.03 2256.92c57.75,0 104.57,-46.8 104.57,-104.62 0,-57.75 -46.81,-104.6 -104.57,-104.6 -57.82,0 -104.62,46.85 -104.62,104.6 0,57.82 46.8,104.62 104.62,104.62z"/>
   <path class="fil0" d="M4456.03 2001.01c57.75,0 104.57,-46.85 104.57,-104.66 0,-57.76 -46.81,-104.57 -104.57,-104.57 -57.82,0 -104.62,46.8 -104.62,104.57 0,57.8 46.8,104.66 104.62,104.66z"/>
   <path class="fil0" d="M4456.03 1745.03c57.75,0 104.57,-46.81 104.57,-104.62 0,-57.76 -46.81,-104.62 -104.57,-104.62 -57.82,0 -104.62,46.85 -104.62,104.62 0,57.8 46.8,104.62 104.62,104.62z"/>
   <path class="fil0" d="M4456.03 1489.07c57.75,0 104.57,-46.85 104.57,-104.62 0,-57.76 -46.81,-104.62 -104.57,-104.62 -57.82,0 -104.62,46.85 -104.62,104.62 0,57.76 46.8,104.62 104.62,104.62z"/>
   <path class="fil0" d="M4456.03 1233.13c57.75,0 104.57,-46.87 104.57,-104.67 0,-57.76 -46.81,-104.57 -104.57,-104.57 -57.82,0 -104.62,46.8 -104.62,104.57 0,57.8 46.8,104.67 104.62,104.67z"/>
   <path class="fil0" d="M4456.03 977.13c57.75,0 104.57,-46.81 104.57,-104.62 0,-57.76 -46.81,-104.62 -104.57,-104.62 -57.82,0 -104.62,46.85 -104.62,104.62 0,57.8 46.8,104.62 104.62,104.62z"/>
   <path class="fil0" d="M4200.07 7678.93c-57.8,0 -104.62,46.8 -104.62,104.6 0,57.76 46.81,104.62 104.62,104.62 57.76,0 104.62,-46.85 104.62,-104.62 0,-57.8 -46.85,-104.6 -104.62,-104.6z"/>
   <path class="fil0" d="M4200.07 7422.95c-57.8,0 -104.62,46.85 -104.62,104.62 0,57.8 46.81,104.6 104.62,104.6 57.76,0 104.62,-46.8 104.62,-104.6 0,-57.76 -46.85,-104.62 -104.62,-104.62z"/>
   <path class="fil0" d="M4200.07 7166.99c-57.8,0 -104.62,46.85 -104.62,104.62 0,57.8 46.81,104.62 104.62,104.62 57.76,0 104.62,-46.81 104.62,-104.62 0,-57.76 -46.85,-104.62 -104.62,-104.62z"/>
   <path class="fil0" d="M4200.07 6911.05c-57.8,0 -104.62,46.8 -104.62,104.57 0,57.8 46.81,104.62 104.62,104.62 57.76,0 104.62,-46.81 104.62,-104.62 0,-57.76 -46.85,-104.57 -104.62,-104.57z"/>
   <path class="fil0" d="M4200.07 6655.09c-57.8,0 -104.62,46.81 -104.62,104.62 0,57.76 46.81,104.58 104.62,104.58 57.76,0 104.62,-46.81 104.62,-104.58 0,-57.8 -46.85,-104.62 -104.62,-104.62z"/>
   <path class="fil0" d="M4200.07 6399.1c-57.8,0 -104.62,46.81 -104.62,104.62 0,57.76 46.81,104.58 104.62,104.58 57.76,0 104.62,-46.81 104.62,-104.58 0,-57.8 -46.85,-104.62 -104.62,-104.62z"/>
   <path class="fil0" d="M4200.07 6143.15c-57.8,0 -104.62,46.8 -104.62,104.62 0,57.76 46.81,104.62 104.62,104.62 57.76,0 104.62,-46.85 104.62,-104.62 0,-57.82 -46.85,-104.62 -104.62,-104.62z"/>
   <path class="fil0" d="M4200.07 5887.16c-57.8,0 -104.62,46.85 -104.62,104.62 0,57.8 46.81,104.62 104.62,104.62 57.76,0 104.62,-46.81 104.62,-104.62 0,-57.76 -46.85,-104.62 -104.62,-104.62z"/>
   <path class="fil0" d="M4200.07 5631.2c-57.8,0 -104.62,46.87 -104.62,104.62 0,57.82 46.81,104.62 104.62,104.62 57.76,0 104.62,-46.8 104.62,-104.62 0,-57.75 -46.85,-104.62 -104.62,-104.62z"/>
   <path class="fil0" d="M4200.07 5375.26c-57.8,0 -104.62,46.81 -104.62,104.57 0,57.82 46.81,104.62 104.62,104.62 57.76,0 104.62,-46.8 104.62,-104.62 0,-57.75 -46.85,-104.57 -104.62,-104.57z"/>
   <path class="fil0" d="M4200.07 5119.31c-57.8,0 -104.62,46.8 -104.62,104.6 0,57.76 46.81,104.58 104.62,104.58 57.76,0 104.62,-46.81 104.62,-104.58 0,-57.8 -46.85,-104.6 -104.62,-104.6z"/>
   <path class="fil0" d="M4200.07 4863.32c-57.8,0 -104.62,46.8 -104.62,104.6 0,57.76 46.81,104.62 104.62,104.62 57.76,0 104.62,-46.85 104.62,-104.62 0,-57.8 -46.85,-104.6 -104.62,-104.6z"/>
   <path class="fil0" d="M4200.07 4607.36c-57.8,0 -104.62,46.81 -104.62,104.62 0,57.76 46.81,104.62 104.62,104.62 57.76,0 104.62,-46.85 104.62,-104.62 0,-57.8 -46.85,-104.62 -104.62,-104.62z"/>
   <path class="fil0" d="M4200.07 4351.36c-57.8,0 -104.62,46.85 -104.62,104.62 0,57.8 46.81,104.62 104.62,104.62 57.76,0 104.62,-46.81 104.62,-104.62 0,-57.76 -46.85,-104.62 -104.62,-104.62z"/>
   <path class="fil0" d="M4200.07 4095.46c-57.8,0 -104.62,46.81 -104.62,104.58 0,57.8 46.81,104.62 104.62,104.62 57.76,0 104.62,-46.81 104.62,-104.62 0,-57.76 -46.85,-104.58 -104.62,-104.58z"/>
   <path class="fil0" d="M4200.07 3839.51c-57.8,0 -104.62,46.8 -104.62,104.57 0,57.82 46.81,104.62 104.62,104.62 57.76,0 104.62,-46.8 104.62,-104.62 0,-57.76 -46.85,-104.57 -104.62,-104.57z"/>
   <path class="fil0" d="M4200.07 3583.52c-57.8,0 -104.62,46.8 -104.62,104.62 0,57.76 46.81,104.57 104.62,104.57 57.76,0 104.62,-46.8 104.62,-104.57 0,-57.82 -46.85,-104.62 -104.62,-104.62z"/>
   <path class="fil0" d="M4200.07 3327.56c-57.8,0 -104.62,46.81 -104.62,104.62 0,57.76 46.81,104.62 104.62,104.62 57.76,0 104.62,-46.85 104.62,-104.62 0,-57.8 -46.85,-104.62 -104.62,-104.62z"/>
   <path class="fil0" d="M4200.07 3071.56c-57.8,0 -104.62,46.87 -104.62,104.62 0,57.76 46.81,104.62 104.62,104.62 57.76,0 104.62,-46.85 104.62,-104.62 0,-57.75 -46.85,-104.62 -104.62,-104.62z"/>
   <path class="fil0" d="M4200.07 2815.57c-57.8,0 -104.62,46.87 -104.62,104.62 0,57.82 46.81,104.62 104.62,104.62 57.76,0 104.62,-46.8 104.62,-104.62 0,-57.75 -46.85,-104.62 -104.62,-104.62z"/>
   <path class="fil0" d="M4200.07 2559.64c-57.8,0 -104.62,46.85 -104.62,104.62 0,57.76 46.81,104.62 104.62,104.62 57.76,0 104.62,-46.85 104.62,-104.62 0,-57.76 -46.85,-104.62 -104.62,-104.62z"/>
   <path class="fil0" d="M4200.07 2303.68c-57.8,0 -104.62,46.87 -104.62,104.62 0,57.76 46.81,104.62 104.62,104.62 57.76,0 104.62,-46.85 104.62,-104.62 0,-57.75 -46.85,-104.62 -104.62,-104.62z"/>
   <path class="fil0" d="M4200.07 2047.7c-57.8,0 -104.62,46.85 -104.62,104.6 0,57.82 46.81,104.62 104.62,104.62 57.76,0 104.62,-46.8 104.62,-104.62 0,-57.75 -46.85,-104.6 -104.62,-104.6z"/>
   <path class="fil0" d="M4200.07 1791.79c-57.8,0 -104.62,46.8 -104.62,104.57 0,57.8 46.81,104.66 104.62,104.66 57.76,0 104.62,-46.85 104.62,-104.66 0,-57.76 -46.85,-104.57 -104.62,-104.57z"/>
   <path class="fil0" d="M4200.07 1535.79c-57.8,0 -104.62,46.85 -104.62,104.62 0,57.8 46.81,104.62 104.62,104.62 57.76,0 104.62,-46.81 104.62,-104.62 0,-57.76 -46.85,-104.62 -104.62,-104.62z"/>
   <path class="fil0" d="M4200.07 1279.84c-57.8,0 -104.62,46.85 -104.62,104.62 0,57.76 46.81,104.62 104.62,104.62 57.76,0 104.62,-46.85 104.62,-104.62 0,-57.76 -46.85,-104.62 -104.62,-104.62z"/>
   <path class="fil0" d="M4200.07 1023.89c-57.8,0 -104.62,46.8 -104.62,104.57 0,57.8 46.81,104.67 104.62,104.67 57.76,0 104.62,-46.87 104.62,-104.67 0,-57.76 -46.85,-104.57 -104.62,-104.57z"/>
   <path class="fil0" d="M4200.07 767.9c-57.8,0 -104.62,46.85 -104.62,104.62 0,57.8 46.81,104.62 104.62,104.62 57.76,0 104.62,-46.81 104.62,-104.62 0,-57.76 -46.85,-104.62 -104.62,-104.62z"/>
   <path class="fil0" d="M3944.08 7888.15c57.8,0 104.62,-46.85 104.62,-104.62 0,-57.8 -46.81,-104.6 -104.62,-104.6 -57.76,0 -104.62,46.8 -104.62,104.6 0,57.76 46.85,104.62 104.62,104.62z"/>
   <path class="fil0" d="M3944.08 7632.16c57.8,0 104.62,-46.8 104.62,-104.6 0,-57.76 -46.81,-104.62 -104.62,-104.62 -57.76,0 -104.62,46.85 -104.62,104.62 0,57.8 46.85,104.6 104.62,104.6z"/>
   <path class="fil0" d="M3944.08 7376.23c57.8,0 104.62,-46.81 104.62,-104.62 0,-57.76 -46.81,-104.62 -104.62,-104.62 -57.76,0 -104.62,46.85 -104.62,104.62 0,57.8 46.85,104.62 104.62,104.62z"/>
   <path class="fil0" d="M3944.08 7120.23c57.8,0 104.62,-46.81 104.62,-104.62 0,-57.76 -46.81,-104.57 -104.62,-104.57 -57.76,0 -104.62,46.8 -104.62,104.57 0,57.8 46.85,104.62 104.62,104.62z"/>
   <path class="fil0" d="M3944.08 6864.29c57.8,0 104.62,-46.81 104.62,-104.58 0,-57.8 -46.81,-104.62 -104.62,-104.62 -57.76,0 -104.62,46.81 -104.62,104.62 0,57.76 46.85,104.58 104.62,104.58z"/>
   <path class="fil0" d="M3944.08 6608.29c57.8,0 104.62,-46.81 104.62,-104.58 0,-57.8 -46.81,-104.62 -104.62,-104.62 -57.76,0 -104.62,46.81 -104.62,104.62 0,57.76 46.85,104.58 104.62,104.58z"/>
   <path class="fil0" d="M3944.08 6352.39c57.8,0 104.62,-46.85 104.62,-104.62 0,-57.82 -46.81,-104.62 -104.62,-104.62 -57.76,0 -104.62,46.8 -104.62,104.62 0,57.76 46.85,104.62 104.62,104.62z"/>
   <path class="fil0" d="M3944.08 6096.39c57.8,0 104.62,-46.81 104.62,-104.62 0,-57.76 -46.81,-104.62 -104.62,-104.62 -57.76,0 -104.62,46.85 -104.62,104.62 0,57.8 46.85,104.62 104.62,104.62z"/>
   <path class="fil0" d="M3944.08 5840.43c57.8,0 104.62,-46.8 104.62,-104.62 0,-57.75 -46.81,-104.62 -104.62,-104.62 -57.76,0 -104.62,46.87 -104.62,104.62 0,57.82 46.85,104.62 104.62,104.62z"/>
   <path class="fil0" d="M3944.08 5584.44c57.8,0 104.62,-46.8 104.62,-104.62 0,-57.75 -46.81,-104.57 -104.62,-104.57 -57.76,0 -104.62,46.81 -104.62,104.57 0,57.82 46.85,104.62 104.62,104.62z"/>
   <path class="fil0" d="M3944.08 5328.49c57.8,0 104.62,-46.81 104.62,-104.58 0,-57.8 -46.81,-104.6 -104.62,-104.6 -57.76,0 -104.62,46.8 -104.62,104.6 0,57.76 46.85,104.58 104.62,104.58z"/>
   <path class="fil0" d="M3944.08 5072.54c57.8,0 104.62,-46.85 104.62,-104.62 0,-57.8 -46.81,-104.6 -104.62,-104.6 -57.76,0 -104.62,46.8 -104.62,104.6 0,57.76 46.85,104.62 104.62,104.62z"/>
   <path class="fil0" d="M3944.08 4816.59c57.8,0 104.62,-46.85 104.62,-104.62 0,-57.8 -46.81,-104.62 -104.62,-104.62 -57.76,0 -104.62,46.81 -104.62,104.62 0,57.76 46.85,104.62 104.62,104.62z"/>
   <path class="fil0" d="M3944.08 4560.6c57.8,0 104.62,-46.81 104.62,-104.62 0,-57.76 -46.81,-104.62 -104.62,-104.62 -57.76,0 -104.62,46.85 -104.62,104.62 0,57.8 46.85,104.62 104.62,104.62z"/>
   <path class="fil0" d="M3944.08 4304.65c57.8,0 104.62,-46.81 104.62,-104.62 0,-57.76 -46.81,-104.58 -104.62,-104.58 -57.76,0 -104.62,46.81 -104.62,104.58 0,57.8 46.85,104.62 104.62,104.62z"/>
   <path class="fil0" d="M3944.08 3839.51c-57.76,0 -104.62,46.8 -104.62,104.57 0,57.82 46.85,104.62 104.62,104.62 57.8,0 104.62,-46.8 104.62,-104.62 0,-57.76 -46.81,-104.57 -104.62,-104.57z"/>
   <path class="fil0" d="M3944.08 3792.7c57.8,0 104.62,-46.8 104.62,-104.57 0,-57.82 -46.81,-104.62 -104.62,-104.62 -57.76,0 -104.62,46.8 -104.62,104.62 0,57.76 46.85,104.57 104.62,104.57z"/>
   <path class="fil0" d="M3944.08 3536.79c57.8,0 104.62,-46.85 104.62,-104.62 0,-57.8 -46.81,-104.62 -104.62,-104.62 -57.76,0 -104.62,46.81 -104.62,104.62 0,57.76 46.85,104.62 104.62,104.62z"/>
   <path class="fil0" d="M3944.08 3280.8c57.8,0 104.62,-46.85 104.62,-104.62 0,-57.75 -46.81,-104.62 -104.62,-104.62 -57.76,0 -104.62,46.87 -104.62,104.62 0,57.76 46.85,104.62 104.62,104.62z"/>
   <path class="fil0" d="M3944.08 3024.8c57.8,0 104.62,-46.8 104.62,-104.62 0,-57.75 -46.81,-104.62 -104.62,-104.62 -57.76,0 -104.62,46.87 -104.62,104.62 0,57.82 46.85,104.62 104.62,104.62z"/>
   <path class="fil0" d="M3944.08 2768.86c57.8,0 104.62,-46.85 104.62,-104.62 0,-57.76 -46.81,-104.62 -104.62,-104.62 -57.76,0 -104.62,46.85 -104.62,104.62 0,57.76 46.85,104.62 104.62,104.62z"/>
   <path class="fil0" d="M3944.08 2512.91c57.8,0 104.62,-46.85 104.62,-104.62 0,-57.75 -46.81,-104.62 -104.62,-104.62 -57.76,0 -104.62,46.87 -104.62,104.62 0,57.76 46.85,104.62 104.62,104.62z"/>
   <path class="fil0" d="M3944.08 2256.92c57.8,0 104.62,-46.8 104.62,-104.62 0,-57.75 -46.81,-104.6 -104.62,-104.6 -57.76,0 -104.62,46.85 -104.62,104.6 0,57.82 46.85,104.62 104.62,104.62z"/>
   <path class="fil0" d="M3944.08 2001.01c57.8,0 104.62,-46.85 104.62,-104.66 0,-57.76 -46.81,-104.57 -104.62,-104.57 -57.76,0 -104.62,46.8 -104.62,104.57 0,57.8 46.85,104.66 104.62,104.66z"/>
   <path class="fil0" d="M3944.08 1745.03c57.8,0 104.62,-46.81 104.62,-104.62 0,-57.76 -46.81,-104.62 -104.62,-104.62 -57.76,0 -104.62,46.85 -104.62,104.62 0,57.8 46.85,104.62 104.62,104.62z"/>
   <path class="fil0" d="M3944.08 1489.07c57.8,0 104.62,-46.85 104.62,-104.62 0,-57.76 -46.81,-104.62 -104.62,-104.62 -57.76,0 -104.62,46.85 -104.62,104.62 0,57.76 46.85,104.62 104.62,104.62z"/>
   <path class="fil0" d="M3944.08 1233.13c57.8,0 104.62,-46.87 104.62,-104.67 0,-57.76 -46.81,-104.57 -104.62,-104.57 -57.76,0 -104.62,46.8 -104.62,104.57 0,57.8 46.85,104.67 104.62,104.67z"/>
   <path class="fil0" d="M3944.08 977.13c57.8,0 104.62,-46.81 104.62,-104.62 0,-57.76 -46.81,-104.62 -104.62,-104.62 -57.76,0 -104.62,46.85 -104.62,104.62 0,57.8 46.85,104.62 104.62,104.62z"/>
   <path class="fil0" d="M3688.13 7934.88c-57.76,0 -104.62,46.81 -104.62,104.62 0,57.76 46.85,104.57 104.62,104.57 57.8,0 104.62,-46.8 104.62,-104.57 0,-57.8 -46.81,-104.62 -104.62,-104.62z"/>
   <path class="fil0" d="M3688.13 7678.93c-57.76,0 -104.62,46.8 -104.62,104.6 0,57.76 46.85,104.62 104.62,104.62 57.8,0 104.62,-46.85 104.62,-104.62 0,-57.8 -46.81,-104.6 -104.62,-104.6z"/>
   <path class="fil0" d="M3688.13 7422.95c-57.76,0 -104.62,46.85 -104.62,104.62 0,57.8 46.85,104.6 104.62,104.6 57.8,0 104.62,-46.8 104.62,-104.6 0,-57.76 -46.81,-104.62 -104.62,-104.62z"/>
   <path class="fil0" d="M3688.13 7166.99c-57.76,0 -104.62,46.85 -104.62,104.62 0,57.8 46.85,104.62 104.62,104.62 57.8,0 104.62,-46.81 104.62,-104.62 0,-57.76 -46.81,-104.62 -104.62,-104.62z"/>
   <path class="fil0" d="M3688.13 6911.05c-57.76,0 -104.62,46.8 -104.62,104.57 0,57.8 46.85,104.62 104.62,104.62 57.8,0 104.62,-46.81 104.62,-104.62 0,-57.76 -46.81,-104.57 -104.62,-104.57z"/>
   <path class="fil0" d="M3688.13 6655.09c-57.76,0 -104.62,46.81 -104.62,104.62 0,57.76 46.85,104.58 104.62,104.58 57.8,0 104.62,-46.81 104.62,-104.58 0,-57.8 -46.81,-104.62 -104.62,-104.62z"/>
   <path class="fil0" d="M3688.13 6399.1c-57.76,0 -104.62,46.81 -104.62,104.62 0,57.76 46.85,104.58 104.62,104.58 57.8,0 104.62,-46.81 104.62,-104.58 0,-57.8 -46.81,-104.62 -104.62,-104.62z"/>
   <path class="fil0" d="M3688.13 6143.15c-57.76,0 -104.62,46.8 -104.62,104.62 0,57.76 46.85,104.62 104.62,104.62 57.8,0 104.62,-46.85 104.62,-104.62 0,-57.82 -46.81,-104.62 -104.62,-104.62z"/>
   <path class="fil0" d="M3688.13 5887.16c-57.76,0 -104.62,46.85 -104.62,104.62 0,57.8 46.85,104.62 104.62,104.62 57.8,0 104.62,-46.81 104.62,-104.62 0,-57.76 -46.81,-104.62 -104.62,-104.62z"/>
   <path class="fil0" d="M3688.13 5631.2c-57.76,0 -104.62,46.87 -104.62,104.62 0,57.82 46.85,104.62 104.62,104.62 57.8,0 104.62,-46.8 104.62,-104.62 0,-57.75 -46.81,-104.62 -104.62,-104.62z"/>
   <path class="fil0" d="M3688.13 5375.26c-57.76,0 -104.62,46.81 -104.62,104.57 0,57.82 46.85,104.62 104.62,104.62 57.8,0 104.62,-46.8 104.62,-104.62 0,-57.75 -46.81,-104.57 -104.62,-104.57z"/>
   <path class="fil0" d="M3688.13 5119.31c-57.76,0 -104.62,46.8 -104.62,104.6 0,57.76 46.85,104.58 104.62,104.58 57.8,0 104.62,-46.81 104.62,-104.58 0,-57.8 -46.81,-104.6 -104.62,-104.6z"/>
   <path class="fil0" d="M3688.13 4863.32c-57.76,0 -104.62,46.8 -104.62,104.6 0,57.76 46.85,104.62 104.62,104.62 57.8,0 104.62,-46.85 104.62,-104.62 0,-57.8 -46.81,-104.6 -104.62,-104.6z"/>
   <path class="fil0" d="M3688.13 4607.36c-57.76,0 -104.62,46.81 -104.62,104.62 0,57.76 46.85,104.62 104.62,104.62 57.8,0 104.62,-46.85 104.62,-104.62 0,-57.8 -46.81,-104.62 -104.62,-104.62z"/>
   <path class="fil0" d="M3688.13 4351.36c-57.76,0 -104.62,46.85 -104.62,104.62 0,57.8 46.85,104.62 104.62,104.62 57.8,0 104.62,-46.81 104.62,-104.62 0,-57.76 -46.81,-104.62 -104.62,-104.62z"/>
   <path class="fil0" d="M3688.13 4095.46c-57.76,0 -104.62,46.81 -104.62,104.58 0,57.8 46.85,104.62 104.62,104.62 57.8,0 104.62,-46.81 104.62,-104.62 0,-57.76 -46.81,-104.58 -104.62,-104.58z"/>
   <path class="fil0" d="M3688.13 3839.51c-57.76,0 -104.62,46.8 -104.62,104.57 0,57.82 46.85,104.62 104.62,104.62 57.8,0 104.62,-46.8 104.62,-104.62 0,-57.76 -46.81,-104.57 -104.62,-104.57z"/>
   <path class="fil0" d="M3688.13 3583.52c-57.76,0 -104.62,46.8 -104.62,104.62 0,57.76 46.85,104.57 104.62,104.57 57.8,0 104.62,-46.8 104.62,-104.57 0,-57.82 -46.81,-104.62 -104.62,-104.62z"/>
   <path class="fil0" d="M3688.13 3327.56c-57.76,0 -104.62,46.81 -104.62,104.62 0,57.76 46.85,104.62 104.62,104.62 57.8,0 104.62,-46.85 104.62,-104.62 0,-57.8 -46.81,-104.62 -104.62,-104.62z"/>
   <path class="fil0" d="M3688.13 3071.56c-57.76,0 -104.62,46.87 -104.62,104.62 0,57.76 46.85,104.62 104.62,104.62 57.8,0 104.62,-46.85 104.62,-104.62 0,-57.75 -46.81,-104.62 -104.62,-104.62z"/>
   <path class="fil0" d="M3688.13 2815.57c-57.76,0 -104.62,46.87 -104.62,104.62 0,57.82 46.85,104.62 104.62,104.62 57.8,0 104.62,-46.8 104.62,-104.62 0,-57.75 -46.81,-104.62 -104.62,-104.62z"/>
   <path class="fil0" d="M3688.13 2559.64c-57.76,0 -104.62,46.85 -104.62,104.62 0,57.76 46.85,104.62 104.62,104.62 57.8,0 104.62,-46.85 104.62,-104.62 0,-57.76 -46.81,-104.62 -104.62,-104.62z"/>
   <path class="fil0" d="M3688.13 2303.68c-57.76,0 -104.62,46.87 -104.62,104.62 0,57.76 46.85,104.62 104.62,104.62 57.8,0 104.62,-46.85 104.62,-104.62 0,-57.75 -46.81,-104.62 -104.62,-104.62z"/>
   <path class="fil0" d="M3688.13 2047.7c-57.76,0 -104.62,46.85 -104.62,104.6 0,57.82 46.85,104.62 104.62,104.62 57.8,0 104.62,-46.8 104.62,-104.62 0,-57.75 -46.81,-104.6 -104.62,-104.6z"/>
   <path class="fil0" d="M3688.13 1791.79c-57.76,0 -104.62,46.8 -104.62,104.57 0,57.8 46.85,104.66 104.62,104.66 57.8,0 104.62,-46.85 104.62,-104.66 0,-57.76 -46.81,-104.57 -104.62,-104.57z"/>
   <path class="fil0" d="M3688.13 1535.79c-57.76,0 -104.62,46.85 -104.62,104.62 0,57.8 46.85,104.62 104.62,104.62 57.8,0 104.62,-46.81 104.62,-104.62 0,-57.76 -46.81,-104.62 -104.62,-104.62z"/>
   <path class="fil0" d="M3688.13 1279.84c-57.76,0 -104.62,46.85 -104.62,104.62 0,57.76 46.85,104.62 104.62,104.62 57.8,0 104.62,-46.85 104.62,-104.62 0,-57.76 -46.81,-104.62 -104.62,-104.62z"/>
   <path class="fil0" d="M3688.13 1023.89c-57.76,0 -104.62,46.8 -104.62,104.57 0,57.8 46.85,104.67 104.62,104.67 57.8,0 104.62,-46.87 104.62,-104.67 0,-57.76 -46.81,-104.57 -104.62,-104.57z"/>
   <path class="fil0" d="M3688.13 767.9c-57.76,0 -104.62,46.85 -104.62,104.62 0,57.8 46.85,104.62 104.62,104.62 57.8,0 104.62,-46.81 104.62,-104.62 0,-57.76 -46.81,-104.62 -104.62,-104.62z"/>
   <path class="fil0" d="M3688.13 511.94c-57.76,0 -104.62,46.85 -104.62,104.62 0,57.76 46.85,104.62 104.62,104.62 57.8,0 104.62,-46.85 104.62,-104.62 0,-57.76 -46.81,-104.62 -104.62,-104.62z"/>
   <path class="fil0" d="M3944.08 511.94c-57.76,0 -104.62,46.85 -104.62,104.62 0,57.76 46.85,104.62 104.62,104.62 57.8,0 104.62,-46.85 104.62,-104.62 0,-57.76 -46.81,-104.62 -104.62,-104.62z"/>
   <path class="fil0" d="M3432.14 7422.95c-57.76,0 -104.62,46.85 -104.62,104.62 0,57.8 46.85,104.6 104.62,104.6 57.8,0 104.62,-46.8 104.62,-104.6 0,-57.76 -46.81,-104.62 -104.62,-104.62z"/>
   <path class="fil0" d="M3432.14 7376.23c57.8,0 104.62,-46.81 104.62,-104.62 0,-57.76 -46.81,-104.62 -104.62,-104.62 -57.76,0 -104.62,46.85 -104.62,104.62 0,57.8 46.85,104.62 104.62,104.62z"/>
   <path class="fil0" d="M3432.14 7120.23c57.8,0 104.62,-46.81 104.62,-104.62 0,-57.76 -46.81,-104.57 -104.62,-104.57 -57.76,0 -104.62,46.8 -104.62,104.57 0,57.8 46.85,104.62 104.62,104.62z"/>
   <path class="fil0" d="M3432.14 6864.29c57.8,0 104.62,-46.81 104.62,-104.58 0,-57.8 -46.81,-104.62 -104.62,-104.62 -57.76,0 -104.62,46.81 -104.62,104.62 0,57.76 46.85,104.58 104.62,104.58z"/>
   <path class="fil0" d="M3432.14 6608.29c57.8,0 104.62,-46.81 104.62,-104.58 0,-57.8 -46.81,-104.62 -104.62,-104.62 -57.76,0 -104.62,46.81 -104.62,104.62 0,57.76 46.85,104.58 104.62,104.58z"/>
   <path class="fil0" d="M3432.14 6352.39c57.8,0 104.62,-46.85 104.62,-104.62 0,-57.82 -46.81,-104.62 -104.62,-104.62 -57.76,0 -104.62,46.8 -104.62,104.62 0,57.76 46.85,104.62 104.62,104.62z"/>
   <path class="fil0" d="M3432.14 6096.39c57.8,0 104.62,-46.81 104.62,-104.62 0,-57.76 -46.81,-104.62 -104.62,-104.62 -57.76,0 -104.62,46.85 -104.62,104.62 0,57.8 46.85,104.62 104.62,104.62z"/>
   <path class="fil0" d="M3432.14 5840.43c57.8,0 104.62,-46.8 104.62,-104.62 0,-57.75 -46.81,-104.62 -104.62,-104.62 -57.76,0 -104.62,46.87 -104.62,104.62 0,57.82 46.85,104.62 104.62,104.62z"/>
   <path class="fil0" d="M3432.14 5584.44c57.8,0 104.62,-46.8 104.62,-104.62 0,-57.75 -46.81,-104.57 -104.62,-104.57 -57.76,0 -104.62,46.81 -104.62,104.57 0,57.82 46.85,104.62 104.62,104.62z"/>
   <path class="fil0" d="M3432.14 5328.49c57.8,0 104.62,-46.81 104.62,-104.58 0,-57.8 -46.81,-104.6 -104.62,-104.6 -57.76,0 -104.62,46.8 -104.62,104.6 0,57.76 46.85,104.58 104.62,104.58z"/>
   <path class="fil0" d="M3432.14 5072.54c57.8,0 104.62,-46.85 104.62,-104.62 0,-57.8 -46.81,-104.6 -104.62,-104.6 -57.76,0 -104.62,46.8 -104.62,104.6 0,57.76 46.85,104.62 104.62,104.62z"/>
   <path class="fil0" d="M3432.14 4816.59c57.8,0 104.62,-46.85 104.62,-104.62 0,-57.8 -46.81,-104.62 -104.62,-104.62 -57.76,0 -104.62,46.81 -104.62,104.62 0,57.76 46.85,104.62 104.62,104.62z"/>
   <path class="fil0" d="M3432.14 4560.6c57.8,0 104.62,-46.81 104.62,-104.62 0,-57.76 -46.81,-104.62 -104.62,-104.62 -57.76,0 -104.62,46.85 -104.62,104.62 0,57.8 46.85,104.62 104.62,104.62z"/>
   <path class="fil0" d="M3432.14 4304.65c57.8,0 104.62,-46.81 104.62,-104.62 0,-57.76 -46.81,-104.58 -104.62,-104.58 -57.76,0 -104.62,46.81 -104.62,104.58 0,57.8 46.85,104.62 104.62,104.62z"/>
   <path class="fil0" d="M3327.52 3944.08c0,57.82 46.85,104.62 104.62,104.62 57.8,0 104.62,-46.8 104.62,-104.62 0,-57.76 -46.81,-104.57 -104.62,-104.57 -57.76,0 -104.62,46.8 -104.62,104.57z"/>
   <path class="fil0" d="M3327.52 3688.13c0,57.76 46.85,104.57 104.62,104.57 57.8,0 104.62,-46.8 104.62,-104.57 0,-57.82 -46.81,-104.62 -104.62,-104.62 -57.76,0 -104.62,46.8 -104.62,104.62z"/>
   <path class="fil0" d="M3327.52 3432.18c0,57.76 46.85,104.62 104.62,104.62 57.8,0 104.62,-46.85 104.62,-104.62 0,-57.8 -46.81,-104.62 -104.62,-104.62 -57.76,0 -104.62,46.81 -104.62,104.62z"/>
   <path class="fil0" d="M3327.52 3176.18c0,57.76 46.85,104.62 104.62,104.62 57.8,0 104.62,-46.85 104.62,-104.62 0,-57.75 -46.81,-104.62 -104.62,-104.62 -57.76,0 -104.62,46.87 -104.62,104.62z"/>
   <path class="fil0" d="M3327.52 2920.18c0,57.82 46.85,104.62 104.62,104.62 57.8,0 104.62,-46.8 104.62,-104.62 0,-57.75 -46.81,-104.62 -104.62,-104.62 -57.76,0 -104.62,46.87 -104.62,104.62z"/>
   <path class="fil0" d="M3327.52 2664.25c0,57.76 46.85,104.62 104.62,104.62 57.8,0 104.62,-46.85 104.62,-104.62 0,-57.76 -46.81,-104.62 -104.62,-104.62 -57.76,0 -104.62,46.85 -104.62,104.62z"/>
   <path class="fil0" d="M3327.52 2408.3c0,57.76 46.85,104.62 104.62,104.62 57.8,0 104.62,-46.85 104.62,-104.62 0,-57.75 -46.81,-104.62 -104.62,-104.62 -57.76,0 -104.62,46.87 -104.62,104.62z"/>
   <path class="fil0" d="M3327.52 2152.3c0,57.82 46.85,104.62 104.62,104.62 57.8,0 104.62,-46.8 104.62,-104.62 0,-57.75 -46.81,-104.6 -104.62,-104.6 -57.76,0 -104.62,46.85 -104.62,104.6z"/>
   <path class="fil0" d="M3327.52 1896.36c0,57.8 46.85,104.66 104.62,104.66 57.8,0 104.62,-46.85 104.62,-104.66 0,-57.76 -46.81,-104.57 -104.62,-104.57 -57.76,0 -104.62,46.8 -104.62,104.57z"/>
   <path class="fil0" d="M3327.52 1640.41c0,57.8 46.85,104.62 104.62,104.62 57.8,0 104.62,-46.81 104.62,-104.62 0,-57.76 -46.81,-104.62 -104.62,-104.62 -57.76,0 -104.62,46.85 -104.62,104.62z"/>
   <path class="fil0" d="M3327.52 1384.45c0,57.76 46.85,104.62 104.62,104.62 57.8,0 104.62,-46.85 104.62,-104.62 0,-57.76 -46.81,-104.62 -104.62,-104.62 -57.76,0 -104.62,46.85 -104.62,104.62z"/>
   <path class="fil0" d="M3327.52 1128.46c0,57.8 46.85,104.67 104.62,104.67 57.8,0 104.62,-46.87 104.62,-104.67 0,-57.76 -46.81,-104.57 -104.62,-104.57 -57.76,0 -104.62,46.8 -104.62,104.57z"/>
   <path class="fil0" d="M3327.52 872.51c0,57.8 46.85,104.62 104.62,104.62 57.8,0 104.62,-46.81 104.62,-104.62 0,-57.76 -46.81,-104.62 -104.62,-104.62 -57.76,0 -104.62,46.85 -104.62,104.62z"/>
   <path class="fil0" d="M3176.18 7120.23c57.76,0 104.58,-46.81 104.58,-104.62 0,-57.76 -46.81,-104.57 -104.58,-104.57 -55.48,0 -100.39,43.26 -103.97,97.84 2.63,15.95 5.41,31.81 7.72,47.77 15.96,37.36 53.04,63.57 96.26,63.57z"/>
   <path class="fil0" d="M3176.18 6655.09c-57.8,0 -104.62,46.81 -104.62,104.62 0,57.76 46.81,104.58 104.62,104.58 57.76,0 104.58,-46.81 104.58,-104.58 0,-57.8 -46.81,-104.62 -104.58,-104.62z"/>
   <path class="fil0" d="M3176.18 6399.1c-57.8,0 -104.62,46.81 -104.62,104.62 0,57.76 46.81,104.58 104.62,104.58 57.76,0 104.58,-46.81 104.58,-104.58 0,-57.8 -46.81,-104.62 -104.58,-104.62z"/>
   <path class="fil0" d="M3176.18 6352.39c57.76,0 104.58,-46.85 104.58,-104.62 0,-57.82 -46.81,-104.62 -104.58,-104.62 -57.8,0 -104.62,46.8 -104.62,104.62 0,57.76 46.81,104.62 104.62,104.62z"/>
   <path class="fil0" d="M3176.18 5887.16c-57.8,0 -104.62,46.85 -104.62,104.62 0,57.8 46.81,104.62 104.62,104.62 57.76,0 104.58,-46.81 104.58,-104.62 0,-57.76 -46.81,-104.62 -104.58,-104.62z"/>
   <path class="fil0" d="M3176.18 5840.43c57.76,0 104.58,-46.8 104.58,-104.62 0,-57.75 -46.81,-104.62 -104.58,-104.62 -57.8,0 -104.62,46.87 -104.62,104.62 0,57.82 46.81,104.62 104.62,104.62z"/>
   <path class="fil0" d="M3176.18 5375.26c-57.8,0 -104.62,46.81 -104.62,104.57 0,57.82 46.81,104.62 104.62,104.62 57.76,0 104.58,-46.8 104.58,-104.62 0,-57.75 -46.81,-104.57 -104.58,-104.57z"/>
   <path class="fil0" d="M3176.18 5328.49c57.76,0 104.58,-46.81 104.58,-104.58 0,-57.8 -46.81,-104.6 -104.58,-104.6 -57.8,0 -104.62,46.8 -104.62,104.6 0,57.76 46.81,104.58 104.62,104.58z"/>
   <path class="fil0" d="M3176.18 4863.32c-57.8,0 -104.62,46.8 -104.62,104.6 0,57.76 46.81,104.62 104.62,104.62 57.76,0 104.58,-46.85 104.58,-104.62 0,-57.8 -46.81,-104.6 -104.58,-104.6z"/>
   <path class="fil0" d="M3176.18 4816.59c57.76,0 104.58,-46.85 104.58,-104.62 0,-57.8 -46.81,-104.62 -104.58,-104.62 -57.8,0 -104.62,46.81 -104.62,104.62 0,57.76 46.81,104.62 104.62,104.62z"/>
   <path class="fil0" d="M3176.18 4351.36c-57.8,0 -104.62,46.85 -104.62,104.62 0,57.8 46.81,104.62 104.62,104.62 57.76,0 104.58,-46.81 104.58,-104.62 0,-57.76 -46.81,-104.62 -104.58,-104.62z"/>
   <path class="fil0" d="M3176.18 4304.65c57.76,0 104.58,-46.81 104.58,-104.62 0,-57.76 -46.81,-104.58 -104.58,-104.58 -57.8,0 -104.62,46.81 -104.62,104.58 0,57.8 46.81,104.62 104.62,104.62z"/>
   <path class="fil0" d="M3071.56 3944.08c0,57.82 46.81,104.62 104.62,104.62 57.76,0 104.58,-46.8 104.58,-104.62 0,-57.76 -46.81,-104.57 -104.58,-104.57 -57.8,0 -104.62,46.8 -104.62,104.57z"/>
   <path class="fil0" d="M3176.18 3583.52c-57.8,0 -104.62,46.8 -104.62,104.62 0,57.76 46.81,104.57 104.62,104.57 57.76,0 104.58,-46.8 104.58,-104.57 0,-57.82 -46.81,-104.62 -104.58,-104.62z"/>
   <path class="fil0" d="M3071.56 3432.18c0,57.76 46.81,104.62 104.62,104.62 57.76,0 104.58,-46.85 104.58,-104.62 0,-57.8 -46.81,-104.62 -104.58,-104.62 -57.8,0 -104.62,46.81 -104.62,104.62z"/>
   <path class="fil0" d="M3176.18 3071.56c-57.8,0 -104.62,46.87 -104.62,104.62 0,57.76 46.81,104.62 104.62,104.62 57.76,0 104.58,-46.85 104.58,-104.62 0,-57.75 -46.81,-104.62 -104.58,-104.62z"/>
   <path class="fil0" d="M3176.18 2815.57c-57.8,0 -104.62,46.87 -104.62,104.62 0,57.82 46.81,104.62 104.62,104.62 57.76,0 104.58,-46.8 104.58,-104.62 0,-57.75 -46.81,-104.62 -104.58,-104.62z"/>
   <path class="fil0" d="M3176.18 2559.64c-57.8,0 -104.62,46.85 -104.62,104.62 0,57.76 46.81,104.62 104.62,104.62 57.76,0 104.58,-46.85 104.58,-104.62 0,-57.76 -46.81,-104.62 -104.58,-104.62z"/>
   <path class="fil0" d="M3176.18 2303.68c-57.8,0 -104.62,46.87 -104.62,104.62 0,57.76 46.81,104.62 104.62,104.62 57.76,0 104.58,-46.85 104.58,-104.62 0,-57.75 -46.81,-104.62 -104.58,-104.62z"/>
   <path class="fil0" d="M3176.18 2047.7c-57.8,0 -104.62,46.85 -104.62,104.6 0,57.82 46.81,104.62 104.62,104.62 57.76,0 104.58,-46.8 104.58,-104.62 0,-57.75 -46.81,-104.6 -104.58,-104.6z"/>
   <path class="fil0" d="M3176.18 1791.79c-57.8,0 -104.62,46.8 -104.62,104.57 0,57.8 46.81,104.66 104.62,104.66 57.76,0 104.58,-46.85 104.58,-104.66 0,-57.76 -46.81,-104.57 -104.58,-104.57z"/>
   <path class="fil0" d="M3176.18 1535.79c-57.8,0 -104.62,46.85 -104.62,104.62 0,57.8 46.81,104.62 104.62,104.62 57.76,0 104.58,-46.81 104.58,-104.62 0,-57.76 -46.81,-104.62 -104.58,-104.62z"/>
   <path class="fil0" d="M3176.18 1279.84c-57.8,0 -104.62,46.85 -104.62,104.62 0,57.76 46.81,104.62 104.62,104.62 57.76,0 104.58,-46.85 104.58,-104.62 0,-57.76 -46.81,-104.62 -104.58,-104.62z"/>
   <path class="fil0" d="M3176.18 1023.89c-57.8,0 -104.62,46.8 -104.62,104.57 0,57.8 46.81,104.67 104.62,104.67 57.76,0 104.58,-46.87 104.58,-104.67 0,-57.76 -46.81,-104.57 -104.58,-104.57z"/>
   <path class="fil0" d="M3071.56 872.51c0,57.8 46.81,104.62 104.62,104.62 57.76,0 104.58,-46.81 104.58,-104.62 0,-57.76 -46.81,-104.62 -104.58,-104.62 -57.8,0 -104.62,46.85 -104.62,104.62z"/>
   <path class="fil0" d="M2920.18 6143.15c-57.76,0 -104.62,46.8 -104.62,104.62 0,57.76 46.85,104.62 104.62,104.62 57.76,0 104.67,-46.85 104.67,-104.62 0,-57.82 -46.9,-104.62 -104.67,-104.62z"/>
   <path class="fil0" d="M2920.18 6096.39c57.76,0 104.67,-46.81 104.67,-104.62 0,-57.76 -46.9,-104.62 -104.67,-104.62 -57.76,0 -104.62,46.85 -104.62,104.62 0,57.8 46.85,104.62 104.62,104.62z"/>
   <path class="fil0" d="M2920.18 4607.36c-57.76,0 -104.62,46.81 -104.62,104.62 0,57.76 46.85,104.62 104.62,104.62 57.76,0 104.67,-46.85 104.67,-104.62 0,-57.8 -46.9,-104.62 -104.67,-104.62z"/>
   <path class="fil0" d="M2920.18 4351.36c-57.76,0 -104.62,46.85 -104.62,104.62 0,57.8 46.85,104.62 104.62,104.62 57.76,0 104.67,-46.81 104.67,-104.62 0,-57.76 -46.9,-104.62 -104.67,-104.62z"/>
   <path class="fil0" d="M2920.18 4095.46c-57.76,0 -104.62,46.81 -104.62,104.58 0,57.8 46.85,104.62 104.62,104.62 57.76,0 104.67,-46.81 104.67,-104.62 0,-57.76 -46.9,-104.58 -104.67,-104.58z"/>
   <path class="fil0" d="M2815.57 3944.08c0,57.82 46.85,104.62 104.62,104.62 57.76,0 104.67,-46.8 104.67,-104.62 0,-57.76 -46.9,-104.57 -104.67,-104.57 -57.76,0 -104.62,46.8 -104.62,104.57z"/>
   <path class="fil0" d="M2920.18 3583.52c-57.76,0 -104.62,46.8 -104.62,104.62 0,57.76 46.85,104.57 104.62,104.57 57.76,0 104.67,-46.8 104.67,-104.57 0,-57.82 -46.9,-104.62 -104.67,-104.62z"/>
   <path class="fil0" d="M2815.57 3432.18c0,57.76 46.85,104.62 104.62,104.62 57.76,0 104.67,-46.85 104.67,-104.62 0,-57.8 -46.9,-104.62 -104.67,-104.62 -57.76,0 -104.62,46.81 -104.62,104.62z"/>
   <path class="fil0" d="M2920.18 3071.56c-57.76,0 -104.62,46.87 -104.62,104.62 0,57.76 46.85,104.62 104.62,104.62 57.76,0 104.67,-46.85 104.67,-104.62 0,-57.75 -46.9,-104.62 -104.67,-104.62z"/>
   <path class="fil0" d="M2920.18 2815.57c-57.76,0 -104.62,46.87 -104.62,104.62 0,57.82 46.85,104.62 104.62,104.62 57.76,0 104.67,-46.8 104.67,-104.62 0,-57.75 -46.9,-104.62 -104.67,-104.62z"/>
   <path class="fil0" d="M2920.18 2559.64c-57.76,0 -104.62,46.85 -104.62,104.62 0,57.76 46.85,104.62 104.62,104.62 57.76,0 104.67,-46.85 104.67,-104.62 0,-57.76 -46.9,-104.62 -104.67,-104.62z"/>
   <path class="fil0" d="M2920.18 2303.68c-57.76,0 -104.62,46.87 -104.62,104.62 0,57.76 46.85,104.62 104.62,104.62 57.76,0 104.67,-46.85 104.67,-104.62 0,-57.75 -46.9,-104.62 -104.67,-104.62z"/>
   <path class="fil0" d="M2920.18 2047.7c-57.76,0 -104.62,46.85 -104.62,104.6 0,57.82 46.85,104.62 104.62,104.62 57.76,0 104.67,-46.8 104.67,-104.62 0,-57.75 -46.9,-104.6 -104.67,-104.6z"/>
   <path class="fil0" d="M2920.18 1791.79c-57.76,0 -104.62,46.8 -104.62,104.57 0,57.8 46.85,104.66 104.62,104.66 57.76,0 104.67,-46.85 104.67,-104.66 0,-57.76 -46.9,-104.57 -104.67,-104.57z"/>
   <path class="fil0" d="M2920.18 1535.79c-57.76,0 -104.62,46.85 -104.62,104.62 0,57.8 46.85,104.62 104.62,104.62 57.76,0 104.67,-46.81 104.67,-104.62 0,-57.76 -46.9,-104.62 -104.67,-104.62z"/>
   <path class="fil0" d="M2920.18 1279.84c-57.76,0 -104.62,46.85 -104.62,104.62 0,57.76 46.85,104.62 104.62,104.62 57.76,0 104.67,-46.85 104.67,-104.62 0,-57.76 -46.9,-104.62 -104.67,-104.62z"/>
   <path class="fil0" d="M2815.57 1128.46c0,57.8 46.85,104.67 104.62,104.67 57.76,0 104.67,-46.87 104.67,-104.67 0,-57.76 -46.9,-104.57 -104.67,-104.57 -57.76,0 -104.62,46.8 -104.62,104.57z"/>
   <path class="fil0" d="M2815.57 872.51c0,57.8 46.85,104.62 104.62,104.62 57.76,0 104.67,-46.81 104.67,-104.62 0,-57.76 -46.9,-104.62 -104.67,-104.62 -57.76,0 -104.62,46.85 -104.62,104.62z"/>
   <path class="fil0" d="M2815.57 616.56c0,57.76 46.85,104.62 104.62,104.62 57.76,0 104.67,-46.85 104.67,-104.62 0,-57.76 -46.9,-104.62 -104.67,-104.62 -57.76,0 -104.62,46.85 -104.62,104.62z"/>
   <path class="fil0" d="M2664.24 4351.36c-57.82,0 -104.62,46.85 -104.62,104.62 0,57.8 46.8,104.62 104.62,104.62 57.76,0 104.62,-46.81 104.62,-104.62 0,-57.76 -46.85,-104.62 -104.62,-104.62z"/>
   <path class="fil0" d="M2664.24 4304.65c57.76,0 104.62,-46.81 104.62,-104.62 0,-57.76 -46.85,-104.58 -104.62,-104.58 -57.82,0 -104.62,46.81 -104.62,104.58 0,57.8 46.8,104.62 104.62,104.62z"/>
   <path class="fil0" d="M2664.24 3839.51c-57.82,0 -104.62,46.8 -104.62,104.57 0,57.82 46.8,104.62 104.62,104.62 57.76,0 104.62,-46.8 104.62,-104.62 0,-57.76 -46.85,-104.57 -104.62,-104.57z"/>
   <path class="fil0" d="M2664.24 3583.52c-57.82,0 -104.62,46.8 -104.62,104.62 0,57.76 46.8,104.57 104.62,104.57 57.76,0 104.62,-46.8 104.62,-104.57 0,-57.82 -46.85,-104.62 -104.62,-104.62z"/>
   <path class="fil0" d="M2664.24 3536.79c57.76,0 104.62,-46.85 104.62,-104.62 0,-57.8 -46.85,-104.62 -104.62,-104.62 -57.82,0 -104.62,46.81 -104.62,104.62 0,57.76 46.8,104.62 104.62,104.62z"/>
   <path class="fil0" d="M2664.24 3071.56c-57.82,0 -104.62,46.87 -104.62,104.62 0,57.76 46.8,104.62 104.62,104.62 57.76,0 104.62,-46.85 104.62,-104.62 0,-57.75 -46.85,-104.62 -104.62,-104.62z"/>
   <path class="fil0" d="M2664.24 2815.57c-57.82,0 -104.62,46.87 -104.62,104.62 0,57.82 46.8,104.62 104.62,104.62 57.76,0 104.62,-46.8 104.62,-104.62 0,-57.75 -46.85,-104.62 -104.62,-104.62z"/>
   <path class="fil0" d="M2664.24 2559.64c-57.82,0 -104.62,46.85 -104.62,104.62 0,57.76 46.8,104.62 104.62,104.62 57.76,0 104.62,-46.85 104.62,-104.62 0,-57.76 -46.85,-104.62 -104.62,-104.62z"/>
   <path class="fil0" d="M2664.24 2303.68c-57.82,0 -104.62,46.87 -104.62,104.62 0,57.76 46.8,104.62 104.62,104.62 57.76,0 104.62,-46.85 104.62,-104.62 0,-57.75 -46.85,-104.62 -104.62,-104.62z"/>
   <path class="fil0" d="M2664.24 2047.7c-57.82,0 -104.62,46.85 -104.62,104.6 0,57.82 46.8,104.62 104.62,104.62 57.76,0 104.62,-46.8 104.62,-104.62 0,-57.75 -46.85,-104.6 -104.62,-104.6z"/>
   <path class="fil0" d="M2664.24 1791.79c-57.82,0 -104.62,46.8 -104.62,104.57 0,57.8 46.8,104.66 104.62,104.66 57.76,0 104.62,-46.85 104.62,-104.66 0,-57.76 -46.85,-104.57 -104.62,-104.57z"/>
   <path class="fil0" d="M2664.24 1535.79c-57.82,0 -104.62,46.85 -104.62,104.62 0,57.8 46.8,104.62 104.62,104.62 57.76,0 104.62,-46.81 104.62,-104.62 0,-57.76 -46.85,-104.62 -104.62,-104.62z"/>
   <path class="fil0" d="M2664.24 1489.07c57.76,0 104.62,-46.85 104.62,-104.62 0,-57.76 -46.85,-104.62 -104.62,-104.62 -57.82,0 -104.62,46.85 -104.62,104.62 0,57.76 46.8,104.62 104.62,104.62z"/>
   <path class="fil0" d="M2664.24 1233.13c57.76,0 104.62,-46.87 104.62,-104.67 0,-57.76 -46.85,-104.57 -104.62,-104.57 -57.82,0 -104.62,46.8 -104.62,104.57 0,57.8 46.8,104.67 104.62,104.67z"/>
   <path class="fil0" d="M2664.24 767.9c-57.82,0 -104.62,46.85 -104.62,104.62 0,57.8 46.8,104.62 104.62,104.62 57.76,0 104.62,-46.81 104.62,-104.62 0,-57.76 -46.85,-104.62 -104.62,-104.62z"/>
   <path class="fil0" d="M2664.24 721.17c57.76,0 104.62,-46.85 104.62,-104.62 0,-57.76 -46.85,-104.62 -104.62,-104.62 -57.82,0 -104.62,46.85 -104.62,104.62 0,57.76 46.8,104.62 104.62,104.62z"/>
   <path class="fil0" d="M2408.24 3536.79c57.8,0 104.66,-46.85 104.66,-104.62 0,-57.8 -46.85,-104.62 -104.66,-104.62 -57.71,0 -104.62,46.81 -104.62,104.62 0,57.76 46.9,104.62 104.62,104.62z"/>
   <path class="fil0" d="M2408.24 3071.56c-57.71,0 -104.62,46.87 -104.62,104.62 0,57.76 46.9,104.62 104.62,104.62 57.8,0 104.66,-46.85 104.66,-104.62 0,-57.75 -46.85,-104.62 -104.66,-104.62z"/>
   <path class="fil0" d="M2408.24 2815.57c-57.71,0 -104.62,46.87 -104.62,104.62 0,57.82 46.9,104.62 104.62,104.62 57.8,0 104.66,-46.8 104.66,-104.62 0,-57.75 -46.85,-104.62 -104.66,-104.62z"/>
   <path class="fil0" d="M2408.24 2559.64c-57.71,0 -104.62,46.85 -104.62,104.62 0,57.76 46.9,104.62 104.62,104.62 57.8,0 104.66,-46.85 104.66,-104.62 0,-57.76 -46.85,-104.62 -104.66,-104.62z"/>
   <path class="fil0" d="M2408.24 2303.68c-57.71,0 -104.62,46.87 -104.62,104.62 0,57.76 46.9,104.62 104.62,104.62 57.8,0 104.66,-46.85 104.66,-104.62 0,-57.75 -46.85,-104.62 -104.66,-104.62z"/>
   <path class="fil0" d="M2408.24 2256.92c57.8,0 104.66,-46.8 104.66,-104.62 0,-57.75 -46.85,-104.6 -104.66,-104.6 -57.71,0 -104.62,46.85 -104.62,104.6 0,57.82 46.9,104.62 104.62,104.62z"/>
   <path class="fil0" d="M2408.24 2001.01c57.8,0 104.66,-46.85 104.66,-104.66 0,-57.76 -46.85,-104.57 -104.66,-104.57 -57.71,0 -104.62,46.8 -104.62,104.57 0,57.8 46.9,104.66 104.62,104.66z"/>
   <path class="fil0" d="M2408.24 1745.03c57.8,0 104.66,-46.81 104.66,-104.62 0,-57.76 -46.85,-104.62 -104.66,-104.62 -57.71,0 -104.62,46.85 -104.62,104.62 0,57.8 46.9,104.62 104.62,104.62z"/>
   <path class="fil0" d="M2408.24 1489.07c57.8,0 104.66,-46.85 104.66,-104.62 0,-57.76 -46.85,-104.62 -104.66,-104.62 -57.71,0 -104.62,46.85 -104.62,104.62 0,57.76 46.9,104.62 104.62,104.62z"/>
   <path class="fil0" d="M2408.24 1233.13c57.8,0 104.66,-46.87 104.66,-104.67 0,-57.76 -46.85,-104.57 -104.66,-104.57 -57.71,0 -104.62,46.8 -104.62,104.57 0,57.8 46.9,104.67 104.62,104.67z"/>
   <path class="fil0" d="M2408.24 977.13c57.8,0 104.66,-46.81 104.66,-104.62 0,-57.76 -46.85,-104.62 -104.66,-104.62 -57.71,0 -104.62,46.85 -104.62,104.62 0,57.8 46.9,104.62 104.62,104.62z"/>
   <path class="fil0" d="M2408.24 721.17c57.8,0 104.66,-46.85 104.66,-104.62 0,-57.76 -46.85,-104.62 -104.66,-104.62 -57.71,0 -104.62,46.85 -104.62,104.62 0,57.76 46.9,104.62 104.62,104.62z"/>
   <path class="fil0" d="M2408.24 465.23c57.8,0 104.66,-46.85 104.66,-104.67 0,-57.76 -46.85,-104.57 -104.66,-104.57 -57.71,0 -104.62,46.8 -104.62,104.57 0,57.82 46.9,104.67 104.62,104.67z"/>
   <path class="fil0" d="M2664.24 465.23c57.76,0 104.62,-46.85 104.62,-104.67 0,-57.76 -46.85,-104.57 -104.62,-104.57 -57.82,0 -104.62,46.8 -104.62,104.57 0,57.82 46.8,104.67 104.62,104.67z"/>
   <path class="fil0" d="M2408.24 209.23c57.8,0 104.66,-46.81 104.66,-104.62 0,-57.76 -46.85,-104.62 -104.66,-104.62 -57.71,0 -104.62,46.85 -104.62,104.62 0,57.8 46.9,104.62 104.62,104.62z"/>
   <path class="fil0" d="M2152.29 3327.56c-57.75,0 -104.57,46.81 -104.57,104.62 0,57.76 46.81,104.62 104.57,104.62 57.82,0 104.62,-46.85 104.62,-104.62 0,-57.8 -46.8,-104.62 -104.62,-104.62z"/>
   <path class="fil0" d="M2152.29 3071.56c-57.75,0 -104.57,46.87 -104.57,104.62 0,57.76 46.81,104.62 104.57,104.62 57.82,0 104.62,-46.85 104.62,-104.62 0,-57.75 -46.8,-104.62 -104.62,-104.62z"/>
   <path class="fil0" d="M2152.29 2815.57c-57.75,0 -104.57,46.87 -104.57,104.62 0,57.82 46.81,104.62 104.57,104.62 57.82,0 104.62,-46.8 104.62,-104.62 0,-57.75 -46.8,-104.62 -104.62,-104.62z"/>
   <path class="fil0" d="M2152.29 2559.64c-57.75,0 -104.57,46.85 -104.57,104.62 0,57.76 46.81,104.62 104.57,104.62 57.82,0 104.62,-46.85 104.62,-104.62 0,-57.76 -46.8,-104.62 -104.62,-104.62z"/>
   <path class="fil0" d="M2152.29 2303.68c-57.75,0 -104.57,46.87 -104.57,104.62 0,57.76 46.81,104.62 104.57,104.62 57.82,0 104.62,-46.85 104.62,-104.62 0,-57.75 -46.8,-104.62 -104.62,-104.62z"/>
   <path class="fil0" d="M2152.29 2047.7c-57.75,0 -104.57,46.85 -104.57,104.6 0,57.82 46.81,104.62 104.57,104.62 57.82,0 104.62,-46.8 104.62,-104.62 0,-57.75 -46.8,-104.6 -104.62,-104.6z"/>
   <path class="fil0" d="M2152.29 2001.01c57.82,0 104.62,-46.85 104.62,-104.66 0,-57.76 -46.8,-104.57 -104.62,-104.57 -57.75,0 -104.57,46.8 -104.57,104.57 0,57.8 46.81,104.66 104.57,104.66z"/>
   <path class="fil0" d="M2152.29 1745.03c57.82,0 104.62,-46.81 104.62,-104.62 0,-57.76 -46.8,-104.62 -104.62,-104.62 -57.75,0 -104.57,46.85 -104.57,104.62 0,57.8 46.81,104.62 104.57,104.62z"/>
   <path class="fil0" d="M2152.29 1489.07c57.82,0 104.62,-46.85 104.62,-104.62 0,-57.76 -46.8,-104.62 -104.62,-104.62 -57.75,0 -104.57,46.85 -104.57,104.62 0,57.76 46.81,104.62 104.57,104.62z"/>
   <path class="fil0" d="M2152.29 1233.13c57.82,0 104.62,-46.87 104.62,-104.67 0,-57.76 -46.8,-104.57 -104.62,-104.57 -57.75,0 -104.57,46.8 -104.57,104.57 0,57.8 46.81,104.67 104.57,104.67z"/>
   <path class="fil0" d="M2152.29 977.13c57.82,0 104.62,-46.81 104.62,-104.62 0,-57.76 -46.8,-104.62 -104.62,-104.62 -57.75,0 -104.57,46.85 -104.57,104.62 0,57.8 46.81,104.62 104.57,104.62z"/>
   <path class="fil0" d="M2152.29 721.17c57.82,0 104.62,-46.85 104.62,-104.62 0,-57.76 -46.8,-104.62 -104.62,-104.62 -57.75,0 -104.57,46.85 -104.57,104.62 0,57.76 46.81,104.62 104.57,104.62z"/>
   <path class="fil0" d="M2152.29 465.23c57.82,0 104.62,-46.85 104.62,-104.67 0,-57.76 -46.8,-104.57 -104.62,-104.57 -57.75,0 -104.57,46.8 -104.57,104.57 0,57.82 46.81,104.67 104.57,104.67z"/>
   <path class="fil0" d="M2152.29 209.23c57.82,0 104.62,-46.81 104.62,-104.62 0,-57.76 -46.8,-104.62 -104.62,-104.62 -57.75,0 -104.57,46.85 -104.57,104.62 0,57.8 46.81,104.62 104.57,104.62z"/>
   <path class="fil0" d="M1896.34 3071.56c-57.76,0 -104.57,46.87 -104.57,104.62 0,57.76 46.8,104.62 104.57,104.62 57.8,0 104.62,-46.85 104.62,-104.62 0,-57.75 -46.81,-104.62 -104.62,-104.62z"/>
   <path class="fil0" d="M1896.34 2815.57c-57.76,0 -104.57,46.87 -104.57,104.62 0,57.82 46.8,104.62 104.57,104.62 57.8,0 104.62,-46.8 104.62,-104.62 0,-57.75 -46.81,-104.62 -104.62,-104.62z"/>
   <path class="fil0" d="M1896.34 2559.64c-57.76,0 -104.57,46.85 -104.57,104.62 0,57.76 46.8,104.62 104.57,104.62 57.8,0 104.62,-46.85 104.62,-104.62 0,-57.76 -46.81,-104.62 -104.62,-104.62z"/>
   <path class="fil0" d="M1896.34 2303.68c-57.76,0 -104.57,46.87 -104.57,104.62 0,57.76 46.8,104.62 104.57,104.62 57.8,0 104.62,-46.85 104.62,-104.62 0,-57.75 -46.81,-104.62 -104.62,-104.62z"/>
   <path class="fil0" d="M1896.34 2047.7c-57.76,0 -104.57,46.85 -104.57,104.6 0,57.82 46.8,104.62 104.57,104.62 57.8,0 104.62,-46.8 104.62,-104.62 0,-57.75 -46.81,-104.6 -104.62,-104.6z"/>
   <path class="fil0" d="M1896.34 1791.79c-57.76,0 -104.57,46.8 -104.57,104.57 0,57.8 46.8,104.66 104.57,104.66 57.8,0 104.62,-46.85 104.62,-104.66 0,-57.76 -46.81,-104.57 -104.62,-104.57z"/>
   <path class="fil0" d="M1896.34 1535.79c-57.76,0 -104.57,46.85 -104.57,104.62 0,57.8 46.8,104.62 104.57,104.62 57.8,0 104.62,-46.81 104.62,-104.62 0,-57.76 -46.81,-104.62 -104.62,-104.62z"/>
   <path class="fil0" d="M1791.78 1384.45c0,57.76 46.8,104.62 104.57,104.62 57.8,0 104.62,-46.85 104.62,-104.62 0,-57.76 -46.81,-104.62 -104.62,-104.62 -57.76,0 -104.57,46.85 -104.57,104.62z"/>
   <path class="fil0" d="M1896.34 1023.89c-57.76,0 -104.57,46.8 -104.57,104.57 0,57.8 46.8,104.67 104.57,104.67 57.8,0 104.62,-46.87 104.62,-104.67 0,-57.76 -46.81,-104.57 -104.62,-104.57z"/>
   <path class="fil0" d="M1791.78 872.51c0,57.8 46.8,104.62 104.57,104.62 57.8,0 104.62,-46.81 104.62,-104.62 0,-57.76 -46.81,-104.62 -104.62,-104.62 -57.76,0 -104.57,46.85 -104.57,104.62z"/>
   <path class="fil0" d="M1791.78 616.56c0,57.76 46.8,104.62 104.57,104.62 57.8,0 104.62,-46.85 104.62,-104.62 0,-57.76 -46.81,-104.62 -104.62,-104.62 -57.76,0 -104.57,46.85 -104.57,104.62z"/>
   <path class="fil0" d="M1791.78 360.56c0,57.82 46.8,104.67 104.57,104.67 57.8,0 104.62,-46.85 104.62,-104.67 0,-57.76 -46.81,-104.57 -104.62,-104.57 -57.76,0 -104.57,46.8 -104.57,104.57z"/>
   <path class="fil0" d="M1791.78 104.62c0,57.8 46.8,104.62 104.57,104.62 57.8,0 104.62,-46.81 104.62,-104.62 0,-57.76 -46.81,-104.62 -104.62,-104.62 -57.76,0 -104.57,46.85 -104.57,104.62z"/>
   <path class="fil0" d="M1640.4 3071.56c-57.76,0 -104.62,46.87 -104.62,104.62 0,57.76 46.85,104.62 104.62,104.62 57.75,0 104.6,-46.85 104.6,-104.62 0,-57.75 -46.85,-104.62 -104.6,-104.62z"/>
   <path class="fil0" d="M1640.4 2815.57c-57.76,0 -104.62,46.87 -104.62,104.62 0,57.82 46.85,104.62 104.62,104.62 57.75,0 104.6,-46.8 104.6,-104.62 0,-57.75 -46.85,-104.62 -104.6,-104.62z"/>
   <path class="fil0" d="M1640.4 2559.64c-57.76,0 -104.62,46.85 -104.62,104.62 0,57.76 46.85,104.62 104.62,104.62 57.75,0 104.6,-46.85 104.6,-104.62 0,-57.76 -46.85,-104.62 -104.6,-104.62z"/>
   <path class="fil0" d="M1640.4 2303.68c-57.76,0 -104.62,46.87 -104.62,104.62 0,57.76 46.85,104.62 104.62,104.62 57.75,0 104.6,-46.85 104.6,-104.62 0,-57.75 -46.85,-104.62 -104.6,-104.62z"/>
   <path class="fil0" d="M1640.4 2047.7c-57.76,0 -104.62,46.85 -104.62,104.6 0,57.82 46.85,104.62 104.62,104.62 57.75,0 104.6,-46.8 104.6,-104.62 0,-57.75 -46.85,-104.6 -104.6,-104.6z"/>
   <path class="fil0" d="M1535.78 1896.36c0,57.8 46.85,104.66 104.62,104.66 57.75,0 104.6,-46.85 104.6,-104.66 0,-57.76 -46.85,-104.57 -104.6,-104.57 -57.76,0 -104.62,46.8 -104.62,104.57z"/>
   <path class="fil0" d="M1640.4 1535.79c-57.76,0 -104.62,46.85 -104.62,104.62 0,57.8 46.85,104.62 104.62,104.62 57.75,0 104.6,-46.81 104.6,-104.62 0,-57.76 -46.85,-104.62 -104.6,-104.62z"/>
   <path class="fil0" d="M1640.4 1279.84c-57.76,0 -104.62,46.85 -104.62,104.62 0,57.76 46.85,104.62 104.62,104.62 57.75,0 104.6,-46.85 104.6,-104.62 0,-57.76 -46.85,-104.62 -104.6,-104.62z"/>
   <path class="fil0" d="M1535.78 1128.46c0,57.8 46.85,104.67 104.62,104.67 57.75,0 104.6,-46.87 104.6,-104.67 0,-57.76 -46.85,-104.57 -104.6,-104.57 -57.76,0 -104.62,46.8 -104.62,104.57z"/>
   <path class="fil0" d="M1640.4 767.9c-57.76,0 -104.62,46.85 -104.62,104.62 0,57.8 46.85,104.62 104.62,104.62 57.75,0 104.6,-46.81 104.6,-104.62 0,-57.76 -46.85,-104.62 -104.6,-104.62z"/>
   <path class="fil0" d="M1535.78 616.56c0,57.76 46.85,104.62 104.62,104.62 57.75,0 104.6,-46.85 104.6,-104.62 0,-57.76 -46.85,-104.62 -104.6,-104.62 -57.76,0 -104.62,46.85 -104.62,104.62z"/>
   <path class="fil0" d="M1535.78 360.56c0,57.82 46.85,104.67 104.62,104.67 57.75,0 104.6,-46.85 104.6,-104.67 0,-57.76 -46.85,-104.57 -104.6,-104.57 -57.76,0 -104.62,46.8 -104.62,104.57z"/>
   <path class="fil0" d="M1384.44 3327.56c-57.8,0 -104.62,46.81 -104.62,104.62 0,57.76 46.81,104.62 104.62,104.62 57.76,0 104.62,-46.85 104.62,-104.62 0,-57.8 -46.85,-104.62 -104.62,-104.62z"/>
   <path class="fil0" d="M1384.44 3071.56c-57.8,0 -104.62,46.87 -104.62,104.62 0,57.76 46.81,104.62 104.62,104.62 57.76,0 104.62,-46.85 104.62,-104.62 0,-57.75 -46.85,-104.62 -104.62,-104.62z"/>
   <path class="fil0" d="M1384.44 2815.57c-57.8,0 -104.62,46.87 -104.62,104.62 0,57.82 46.81,104.62 104.62,104.62 57.76,0 104.62,-46.8 104.62,-104.62 0,-57.75 -46.85,-104.62 -104.62,-104.62z"/>
   <path class="fil0" d="M1384.44 2559.64c-57.8,0 -104.62,46.85 -104.62,104.62 0,57.76 46.81,104.62 104.62,104.62 57.76,0 104.62,-46.85 104.62,-104.62 0,-57.76 -46.85,-104.62 -104.62,-104.62z"/>
   <path class="fil0" d="M1384.44 2303.68c-57.8,0 -104.62,46.87 -104.62,104.62 0,57.76 46.81,104.62 104.62,104.62 57.76,0 104.62,-46.85 104.62,-104.62 0,-57.75 -46.85,-104.62 -104.62,-104.62z"/>
   <path class="fil0" d="M1384.44 2047.7c-57.8,0 -104.62,46.85 -104.62,104.6 0,57.82 46.81,104.62 104.62,104.62 57.76,0 104.62,-46.8 104.62,-104.62 0,-57.75 -46.85,-104.6 -104.62,-104.6z"/>
   <path class="fil0" d="M1384.44 1791.79c-57.8,0 -104.62,46.8 -104.62,104.57 0,57.8 46.81,104.66 104.62,104.66 57.76,0 104.62,-46.85 104.62,-104.66 0,-57.76 -46.85,-104.57 -104.62,-104.57z"/>
   <path class="fil0" d="M1279.82 1640.41c0,57.8 46.81,104.62 104.62,104.62 57.76,0 104.62,-46.81 104.62,-104.62 0,-57.76 -46.85,-104.62 -104.62,-104.62 -57.8,0 -104.62,46.85 -104.62,104.62z"/>
   <path class="fil0" d="M1384.44 1279.84c-57.8,0 -104.62,46.85 -104.62,104.62 0,57.76 46.81,104.62 104.62,104.62 57.76,0 104.62,-46.85 104.62,-104.62 0,-57.76 -46.85,-104.62 -104.62,-104.62z"/>
   <path class="fil0" d="M1384.44 1023.89c-57.8,0 -104.62,46.8 -104.62,104.57 0,57.8 46.81,104.67 104.62,104.67 57.76,0 104.62,-46.87 104.62,-104.67 0,-57.76 -46.85,-104.57 -104.62,-104.57z"/>
   <path class="fil0" d="M1279.82 872.51c0,57.8 46.81,104.62 104.62,104.62 57.76,0 104.62,-46.81 104.62,-104.62 0,-57.76 -46.85,-104.62 -104.62,-104.62 -57.8,0 -104.62,46.85 -104.62,104.62z"/>
   <path class="fil0" d="M1384.44 511.94c-57.8,0 -104.62,46.85 -104.62,104.62 0,57.76 46.81,104.62 104.62,104.62 57.76,0 104.62,-46.85 104.62,-104.62 0,-57.76 -46.85,-104.62 -104.62,-104.62z"/>
   <path class="fil0" d="M1279.82 360.56c0,57.82 46.81,104.67 104.62,104.67 57.76,0 104.62,-46.85 104.62,-104.67 0,-57.76 -46.85,-104.57 -104.62,-104.57 -57.8,0 -104.62,46.8 -104.62,104.57z"/>
   <path class="fil0" d="M1023.83 3432.18c0,57.76 46.85,104.62 104.62,104.62 57.76,0 104.67,-46.85 104.67,-104.62 0,-57.8 -46.9,-104.62 -104.67,-104.62 -57.76,0 -104.62,46.81 -104.62,104.62z"/>
   <path class="fil0" d="M1128.45 3071.56c-57.76,0 -104.62,46.87 -104.62,104.62 0,57.76 46.85,104.62 104.62,104.62 57.76,0 104.67,-46.85 104.67,-104.62 0,-57.75 -46.9,-104.62 -104.67,-104.62z"/>
   <path class="fil0" d="M1128.45 2815.57c-57.76,0 -104.62,46.87 -104.62,104.62 0,57.82 46.85,104.62 104.62,104.62 57.76,0 104.67,-46.8 104.67,-104.62 0,-57.75 -46.9,-104.62 -104.67,-104.62z"/>
   <path class="fil0" d="M1128.45 2559.64c-57.76,0 -104.62,46.85 -104.62,104.62 0,57.76 46.85,104.62 104.62,104.62 57.76,0 104.67,-46.85 104.67,-104.62 0,-57.76 -46.9,-104.62 -104.67,-104.62z"/>
   <path class="fil0" d="M1128.45 2303.68c-57.76,0 -104.62,46.87 -104.62,104.62 0,57.76 46.85,104.62 104.62,104.62 57.76,0 104.67,-46.85 104.67,-104.62 0,-57.75 -46.9,-104.62 -104.67,-104.62z"/>
   <path class="fil0" d="M1128.45 2047.7c-57.76,0 -104.62,46.85 -104.62,104.6 0,57.82 46.85,104.62 104.62,104.62 57.76,0 104.67,-46.8 104.67,-104.62 0,-57.75 -46.9,-104.6 -104.67,-104.6z"/>
   <path class="fil0" d="M1023.83 1896.36c0,57.8 46.85,104.66 104.62,104.66 57.76,0 104.67,-46.85 104.67,-104.66 0,-57.76 -46.9,-104.57 -104.67,-104.57 -57.76,0 -104.62,46.8 -104.62,104.57z"/>
   <path class="fil0" d="M1128.45 1535.79c-57.76,0 -104.62,46.85 -104.62,104.62 0,57.8 46.85,104.62 104.62,104.62 57.76,0 104.67,-46.81 104.67,-104.62 0,-57.76 -46.9,-104.62 -104.67,-104.62z"/>
   <path class="fil0" d="M1023.83 1384.45c0,57.76 46.85,104.62 104.62,104.62 57.76,0 104.67,-46.85 104.67,-104.62 0,-57.76 -46.9,-104.62 -104.67,-104.62 -57.76,0 -104.62,46.85 -104.62,104.62z"/>
   <path class="fil0" d="M1128.45 1023.89c-57.76,0 -104.62,46.8 -104.62,104.57 0,57.8 46.85,104.67 104.62,104.67 57.76,0 104.67,-46.87 104.67,-104.67 0,-57.76 -46.9,-104.57 -104.67,-104.57z"/>
   <path class="fil0" d="M1128.45 767.9c-57.76,0 -104.62,46.85 -104.62,104.62 0,57.8 46.85,104.62 104.62,104.62 57.76,0 104.67,-46.81 104.67,-104.62 0,-57.76 -46.9,-104.62 -104.67,-104.62z"/>
   <path class="fil0" d="M1023.83 616.56c0,57.76 46.85,104.62 104.62,104.62 57.76,0 104.67,-46.85 104.67,-104.62 0,-57.76 -46.9,-104.62 -104.67,-104.62 -57.76,0 -104.62,46.85 -104.62,104.62z"/>
   <path class="fil0" d="M1128.45 256c-57.76,0 -104.62,46.8 -104.62,104.57 0,57.82 46.85,104.67 104.62,104.67 57.76,0 104.67,-46.85 104.67,-104.67 0,-57.76 -46.9,-104.57 -104.67,-104.57z"/>
   <path class="fil0" d="M767.88 3432.18c0,57.76 46.85,104.62 104.62,104.62 57.8,0 104.62,-46.85 104.62,-104.62 0,-57.8 -46.81,-104.62 -104.62,-104.62 -57.76,0 -104.62,46.81 -104.62,104.62z"/>
   <path class="fil0" d="M872.5 3071.56c-57.76,0 -104.62,46.87 -104.62,104.62 0,57.76 46.85,104.62 104.62,104.62 57.8,0 104.62,-46.85 104.62,-104.62 0,-57.75 -46.81,-104.62 -104.62,-104.62z"/>
   <path class="fil0" d="M872.5 2815.57c-57.76,0 -104.62,46.87 -104.62,104.62 0,57.82 46.85,104.62 104.62,104.62 57.8,0 104.62,-46.8 104.62,-104.62 0,-57.75 -46.81,-104.62 -104.62,-104.62z"/>
   <path class="fil0" d="M872.5 2559.64c-57.76,0 -104.62,46.85 -104.62,104.62 0,57.76 46.85,104.62 104.62,104.62 57.8,0 104.62,-46.85 104.62,-104.62 0,-57.76 -46.81,-104.62 -104.62,-104.62z"/>
   <path class="fil0" d="M872.5 2303.68c-57.76,0 -104.62,46.87 -104.62,104.62 0,57.76 46.85,104.62 104.62,104.62 57.8,0 104.62,-46.85 104.62,-104.62 0,-57.75 -46.81,-104.62 -104.62,-104.62z"/>
   <path class="fil0" d="M872.5 2047.7c-57.76,0 -104.62,46.85 -104.62,104.6 0,57.82 46.85,104.62 104.62,104.62 57.8,0 104.62,-46.8 104.62,-104.62 0,-57.75 -46.81,-104.6 -104.62,-104.6z"/>
   <path class="fil0" d="M872.5 1791.79c-57.76,0 -104.62,46.8 -104.62,104.57 0,57.8 46.85,104.66 104.62,104.66 57.8,0 104.62,-46.85 104.62,-104.66 0,-57.76 -46.81,-104.57 -104.62,-104.57z"/>
   <path class="fil0" d="M767.88 1640.41c0,57.8 46.85,104.62 104.62,104.62 57.8,0 104.62,-46.81 104.62,-104.62 0,-57.76 -46.81,-104.62 -104.62,-104.62 -57.76,0 -104.62,46.85 -104.62,104.62z"/>
   <path class="fil0" d="M872.5 1279.84c-57.76,0 -104.62,46.85 -104.62,104.62 0,57.76 46.85,104.62 104.62,104.62 57.8,0 104.62,-46.85 104.62,-104.62 0,-57.76 -46.81,-104.62 -104.62,-104.62z"/>
   <path class="fil0" d="M767.88 1128.46c0,57.8 46.85,104.67 104.62,104.67 57.8,0 104.62,-46.87 104.62,-104.67 0,-57.76 -46.81,-104.57 -104.62,-104.57 -57.76,0 -104.62,46.8 -104.62,104.57z"/>
   <path class="fil0" d="M872.5 767.9c-57.76,0 -104.62,46.85 -104.62,104.62 0,57.8 46.85,104.62 104.62,104.62 57.8,0 104.62,-46.81 104.62,-104.62 0,-57.76 -46.81,-104.62 -104.62,-104.62z"/>
   <path class="fil0" d="M872.5 511.94c-57.76,0 -104.62,46.85 -104.62,104.62 0,57.76 46.85,104.62 104.62,104.62 57.8,0 104.62,-46.85 104.62,-104.62 0,-57.76 -46.81,-104.62 -104.62,-104.62z"/>
   <path class="fil0" d="M511.93 3432.18c0,57.76 46.85,104.62 104.58,104.62 57.8,0 104.66,-46.85 104.66,-104.62 0,-57.8 -46.85,-104.62 -104.66,-104.62 -57.73,0 -104.58,46.81 -104.58,104.62z"/>
   <path class="fil0" d="M616.51 3071.56c-57.73,0 -104.58,46.87 -104.58,104.62 0,57.76 46.85,104.62 104.58,104.62 57.8,0 104.66,-46.85 104.66,-104.62 0,-57.75 -46.85,-104.62 -104.66,-104.62z"/>
   <path class="fil0" d="M616.51 2815.57c-57.73,0 -104.58,46.87 -104.58,104.62 0,57.82 46.85,104.62 104.58,104.62 57.8,0 104.66,-46.8 104.66,-104.62 0,-57.75 -46.85,-104.62 -104.66,-104.62z"/>
   <path class="fil0" d="M616.51 2559.64c-57.73,0 -104.58,46.85 -104.58,104.62 0,57.76 46.85,104.62 104.58,104.62 57.8,0 104.66,-46.85 104.66,-104.62 0,-57.76 -46.85,-104.62 -104.66,-104.62z"/>
   <path class="fil0" d="M616.51 2303.68c-57.73,0 -104.58,46.87 -104.58,104.62 0,57.76 46.85,104.62 104.58,104.62 57.8,0 104.66,-46.85 104.66,-104.62 0,-57.75 -46.85,-104.62 -104.66,-104.62z"/>
   <path class="fil0" d="M616.51 2047.7c-57.73,0 -104.58,46.85 -104.58,104.6 0,57.82 46.85,104.62 104.58,104.62 57.8,0 104.66,-46.8 104.66,-104.62 0,-57.75 -46.85,-104.6 -104.66,-104.6z"/>
   <path class="fil0" d="M511.93 1896.36c0,57.8 46.85,104.66 104.58,104.66 57.8,0 104.66,-46.85 104.66,-104.66 0,-57.76 -46.85,-104.57 -104.66,-104.57 -57.73,0 -104.58,46.8 -104.58,104.57z"/>
   <path class="fil0" d="M616.51 1535.79c-57.73,0 -104.58,46.85 -104.58,104.62 0,57.8 46.85,104.62 104.58,104.62 57.8,0 104.66,-46.81 104.66,-104.62 0,-57.76 -46.85,-104.62 -104.66,-104.62z"/>
   <path class="fil0" d="M511.93 1384.45c0,57.76 46.85,104.62 104.58,104.62 57.8,0 104.66,-46.85 104.66,-104.62 0,-57.76 -46.85,-104.62 -104.66,-104.62 -57.73,0 -104.58,46.85 -104.58,104.62z"/>
   <path class="fil0" d="M616.51 1023.89c-57.73,0 -104.58,46.8 -104.58,104.57 0,57.8 46.85,104.67 104.58,104.67 57.8,0 104.66,-46.87 104.66,-104.67 0,-57.76 -46.85,-104.57 -104.66,-104.57z"/>
   <path class="fil0" d="M511.93 872.51c0,57.8 46.85,104.62 104.58,104.62 57.8,0 104.66,-46.81 104.66,-104.62 0,-57.76 -46.85,-104.62 -104.66,-104.62 -57.73,0 -104.58,46.85 -104.58,104.62z"/>
   <path class="fil0" d="M360.61 3071.56c-57.82,0 -104.62,46.87 -104.62,104.62 0,57.76 46.8,104.62 104.62,104.62 57.76,0 104.57,-46.85 104.57,-104.62 0,-57.75 -46.8,-104.62 -104.57,-104.62z"/>
   <path class="fil0" d="M360.61 2815.57c-57.82,0 -104.62,46.87 -104.62,104.62 0,57.82 46.8,104.62 104.62,104.62 57.76,0 104.57,-46.8 104.57,-104.62 0,-57.75 -46.8,-104.62 -104.57,-104.62z"/>
   <path class="fil0" d="M360.61 2559.64c-57.82,0 -104.62,46.85 -104.62,104.62 0,57.76 46.8,104.62 104.62,104.62 57.76,0 104.57,-46.85 104.57,-104.62 0,-57.76 -46.8,-104.62 -104.57,-104.62z"/>
   <path class="fil0" d="M360.61 2303.68c-57.82,0 -104.62,46.87 -104.62,104.62 0,57.76 46.8,104.62 104.62,104.62 57.76,0 104.57,-46.85 104.57,-104.62 0,-57.75 -46.8,-104.62 -104.57,-104.62z"/>
   <path class="fil0" d="M360.61 2047.7c-57.82,0 -104.62,46.85 -104.62,104.6 0,57.82 46.8,104.62 104.62,104.62 57.76,0 104.57,-46.8 104.57,-104.62 0,-57.75 -46.8,-104.6 -104.57,-104.6z"/>
   <path class="fil0" d="M360.61 1791.79c-57.82,0 -104.62,46.8 -104.62,104.57 0,57.8 46.8,104.66 104.62,104.66 57.76,0 104.57,-46.85 104.57,-104.66 0,-57.76 -46.8,-104.57 -104.57,-104.57z"/>
   <path class="fil0" d="M360.61 1745.03c57.76,0 104.57,-46.81 104.57,-104.62 0,-57.76 -46.8,-104.62 -104.57,-104.62 -57.82,0 -104.62,46.85 -104.62,104.62 0,57.8 46.8,104.62 104.62,104.62z"/>
   <path class="fil0" d="M360.61 1279.84c-57.82,0 -104.62,46.85 -104.62,104.62 0,57.76 46.8,104.62 104.62,104.62 57.76,0 104.57,-46.85 104.57,-104.62 0,-57.76 -46.8,-104.62 -104.57,-104.62z"/>
   <path class="fil0" d="M360.61 1233.13c57.76,0 104.57,-46.87 104.57,-104.67 0,-57.76 -46.8,-104.57 -104.57,-104.57 -57.82,0 -104.62,46.8 -104.62,104.57 0,57.8 46.8,104.67 104.62,104.67z"/>
   <path class="fil0" d="M104.62 2815.57c-57.76,0 -104.62,46.87 -104.62,104.62 0,57.82 46.85,104.62 104.62,104.62 57.76,0 104.62,-46.8 104.62,-104.62 0,-57.75 -46.85,-104.62 -104.62,-104.62z"/>
   <path class="fil0" d="M104.62 2559.64c-57.76,0 -104.62,46.85 -104.62,104.62 0,57.76 46.85,104.62 104.62,104.62 57.76,0 104.62,-46.85 104.62,-104.62 0,-57.76 -46.85,-104.62 -104.62,-104.62z"/>
   <path class="fil0" d="M104.62 2303.68c-57.76,0 -104.62,46.87 -104.62,104.62 0,57.76 46.85,104.62 104.62,104.62 57.76,0 104.62,-46.85 104.62,-104.62 0,-57.75 -46.85,-104.62 -104.62,-104.62z"/>
   <path class="fil0" d="M104.62 2047.7c-57.76,0 -104.62,46.85 -104.62,104.6 0,57.82 46.85,104.62 104.62,104.62 57.76,0 104.62,-46.8 104.62,-104.62 0,-57.75 -46.85,-104.6 -104.62,-104.6z"/>
   <path class="fil0" d="M104.62 1791.79c-57.76,0 -104.62,46.8 -104.62,104.57 0,57.8 46.85,104.66 104.62,104.66 57.76,0 104.62,-46.85 104.62,-104.66 0,-57.76 -46.85,-104.57 -104.62,-104.57z"/>
   <path class="fil0" d="M104.62 1535.79c-57.76,0 -104.62,46.85 -104.62,104.62 0,57.8 46.85,104.62 104.62,104.62 57.76,0 104.62,-46.81 104.62,-104.62 0,-57.76 -46.85,-104.62 -104.62,-104.62z"/>
   <path class="fil0" d="M6503.7 6143.1c-57.76,0 -104.57,46.81 -104.57,104.62 0,57.76 46.8,104.62 104.57,104.62 57.8,0 104.62,-46.85 104.62,-104.62 0,-57.8 -46.81,-104.62 -104.62,-104.62z"/>
   <path class="fil0" d="M6503.7 5887.16c-57.76,0 -104.57,46.85 -104.57,104.62 0,57.8 46.8,104.62 104.57,104.62 57.8,0 104.62,-46.81 104.62,-104.62 0,-57.76 -46.81,-104.62 -104.62,-104.62z"/>
   <path class="fil0" d="M6247.7 6911c-57.76,0 -104.57,46.81 -104.57,104.58 0,57.8 46.8,104.62 104.57,104.62 57.82,0 104.62,-46.81 104.62,-104.62 0,-57.76 -46.8,-104.58 -104.62,-104.58z"/>
   <path class="fil0" d="M6247.7 6655.05c-57.76,0 -104.57,46.8 -104.57,104.62 0,57.75 46.8,104.57 104.57,104.57 57.82,0 104.62,-46.81 104.62,-104.57 0,-57.82 -46.8,-104.62 -104.62,-104.62z"/>
   <path class="fil0" d="M2664.24 209.27c57.76,0 104.62,-46.85 104.62,-104.62 0,-57.75 -46.85,-104.62 -104.62,-104.62 -57.82,0 -104.62,46.87 -104.62,104.62 0,57.76 46.8,104.62 104.62,104.62z"/>
   <path class="fil0" d="M6247.7 6399.1c-57.76,0 -104.57,46.81 -104.57,104.62 0,57.76 46.8,104.58 104.57,104.58 57.82,0 104.62,-46.81 104.62,-104.58 0,-57.8 -46.8,-104.62 -104.62,-104.62z"/>
   <path class="fil0" d="M2920.24 209.27c57.76,0 104.62,-46.85 104.62,-104.62 0,-57.75 -46.85,-104.62 -104.62,-104.62 -57.82,0 -104.62,46.87 -104.62,104.62 0,57.76 46.8,104.62 104.62,104.62z"/>
   <path class="fil0" d="M6503.7 6399.1c-57.76,0 -104.57,46.81 -104.57,104.62 0,57.76 46.8,104.58 104.57,104.58 57.8,0 104.62,-46.81 104.62,-104.58 0,-57.8 -46.81,-104.62 -104.62,-104.62z"/>
   <path class="fil0" d="M6247.7 6143.1c-57.76,0 -104.57,46.81 -104.57,104.62 0,57.76 46.8,104.62 104.57,104.62 57.82,0 104.62,-46.85 104.62,-104.62 0,-57.8 -46.8,-104.62 -104.62,-104.62z"/>
  </g>
 </g>
</svg>
