<?xml version="1.0" encoding="UTF-8"?>
<!DOCTYPE svg PUBLIC "-//W3C//DTD SVG 1.1//EN" "http://www.w3.org/Graphics/SVG/1.1/DTD/svg11.dtd">
<!-- Creator: CorelDRAW (Nie do użytku komercyjnego) -->
<svg xmlns="http://www.w3.org/2000/svg" xml:space="preserve" width="29.4414mm" height="37.3891mm" version="1.1" style="shape-rendering:geometricPrecision; text-rendering:geometricPrecision; image-rendering:optimizeQuality; fill-rule:evenodd; clip-rule:evenodd"
viewBox="0 0 524.44 666.02"
 xmlns:xlink="http://www.w3.org/1999/xlink"
 xmlns:xodm="http://www.corel.com/coreldraw/odm/2003">
 <defs>
  <style type="text/css">
   <![CDATA[
    .fil0 {fill:#422CB7;fill-rule:nonzero}
   ]]>
  </style>
 </defs>
 <g id="Warstwa_x0020_1">
  <metadata id="CorelCorpID_0Corel-Layer"/>
  <g id="_105553175584800">
   <path class="fil0" d="M509.98 424.73c-7.99,0 -14.47,6.48 -14.47,14.47 0,7.99 6.48,14.46 14.47,14.46 7.99,0 14.47,-6.47 14.47,-14.46 0,-7.99 -6.47,-14.47 -14.47,-14.47z"/>
   <path class="fil0" d="M474.58 489.05c7.99,0 14.47,-6.48 14.47,-14.47 0,-7.99 -6.47,-14.47 -14.47,-14.47 -7.99,0 -14.46,6.47 -14.46,14.47 0,7.99 6.47,14.47 14.46,14.47z"/>
   <path class="fil0" d="M474.58 424.73c-7.99,0 -14.46,6.48 -14.46,14.47 0,7.99 6.47,14.46 14.46,14.46 7.99,0 14.47,-6.47 14.47,-14.46 0,-7.99 -6.47,-14.47 -14.47,-14.47z"/>
   <path class="fil0" d="M439.19 524.44c7.99,0 14.47,-6.47 14.47,-14.46 0,-7.99 -6.47,-14.47 -14.47,-14.47 -7.99,0 -14.46,6.47 -14.46,14.47 0,7.99 6.47,14.46 14.46,14.46z"/>
   <path class="fil0" d="M439.19 489.05c7.99,0 14.47,-6.48 14.47,-14.47 0,-7.99 -6.47,-14.47 -14.47,-14.47 -7.99,0 -14.46,6.47 -14.46,14.47 0,7.99 6.47,14.47 14.46,14.47z"/>
   <path class="fil0" d="M439.19 276.69c7.99,0 14.47,-6.48 14.47,-14.47 0,-7.99 -6.47,-14.47 -14.47,-14.47 -7.99,0 -14.46,6.47 -14.46,14.47 0,7.99 6.47,14.47 14.46,14.47z"/>
   <path class="fil0" d="M439.19 241.3c7.99,0 14.47,-6.47 14.47,-14.47 0,-7.99 -6.47,-14.47 -14.47,-14.47 -7.99,0 -14.46,6.48 -14.46,14.47 0,7.99 6.47,14.47 14.46,14.47z"/>
   <path class="fil0" d="M439.19 205.9c7.99,0 14.47,-6.47 14.47,-14.47 0,-7.99 -6.47,-14.47 -14.47,-14.47 -7.99,0 -14.46,6.48 -14.46,14.47 0,7.99 6.47,14.47 14.46,14.47z"/>
   <path class="fil0" d="M403.8 530.91c-7.99,0 -14.47,6.47 -14.47,14.47 0,7.99 6.47,14.46 14.47,14.46 7.99,0 14.46,-6.47 14.46,-14.46 0,-7.99 -6.47,-14.47 -14.46,-14.47z"/>
   <path class="fil0" d="M403.8 495.52c-7.99,0 -14.47,6.47 -14.47,14.47 0,7.99 6.47,14.46 14.47,14.46 7.99,0 14.46,-6.47 14.46,-14.46 0,-7.99 -6.47,-14.47 -14.46,-14.47z"/>
   <path class="fil0" d="M403.8 318.55c-7.99,0 -14.47,6.47 -14.47,14.47 0,7.99 6.47,14.46 14.47,14.46 7.99,0 14.46,-6.47 14.46,-14.46 0,-7.99 -6.47,-14.47 -14.46,-14.47z"/>
   <path class="fil0" d="M403.8 283.15c-7.99,0 -14.47,6.47 -14.47,14.47 0,7.99 6.47,14.46 14.47,14.46 7.99,0 14.46,-6.47 14.46,-14.46 0,-7.99 -6.47,-14.47 -14.46,-14.47z"/>
   <path class="fil0" d="M403.8 247.76c-7.99,0 -14.47,6.47 -14.47,14.47 0,7.99 6.47,14.47 14.47,14.47 7.99,0 14.46,-6.48 14.46,-14.47 0,-7.99 -6.47,-14.47 -14.46,-14.47z"/>
   <path class="fil0" d="M368.4 559.83c7.99,0 14.47,-6.47 14.47,-14.46 0,-7.99 -6.48,-14.47 -14.47,-14.47 -7.99,0 -14.47,6.47 -14.47,14.47 0,7.99 6.47,14.46 14.47,14.46z"/>
   <path class="fil0" d="M368.4 595.23c7.99,0 14.47,-6.47 14.47,-14.47 0,-7.99 -6.48,-14.46 -14.47,-14.46 -7.99,0 -14.47,6.47 -14.47,14.46 0,7.99 6.47,14.47 14.47,14.47z"/>
   <path class="fil0" d="M368.4 524.44c7.99,0 14.47,-6.47 14.47,-14.46 0,-7.99 -6.48,-14.47 -14.47,-14.47 -7.99,0 -14.47,6.47 -14.47,14.47 0,7.99 6.47,14.46 14.47,14.46z"/>
   <path class="fil0" d="M368.4 382.87c7.99,0 14.47,-6.47 14.47,-14.47 0,-7.99 -6.48,-14.46 -14.47,-14.46 -7.99,0 -14.47,6.47 -14.47,14.46 0,7.99 6.47,14.47 14.47,14.47z"/>
   <path class="fil0" d="M368.4 347.47c7.99,0 14.47,-6.47 14.47,-14.46 0,-7.99 -6.48,-14.47 -14.47,-14.47 -7.99,0 -14.47,6.47 -14.47,14.47 0,7.99 6.47,14.46 14.47,14.46z"/>
   <path class="fil0" d="M368.4 312.08c7.99,0 14.47,-6.47 14.47,-14.46 0,-7.99 -6.48,-14.47 -14.47,-14.47 -7.99,0 -14.47,6.47 -14.47,14.47 0,7.99 6.47,14.46 14.47,14.46z"/>
   <path class="fil0" d="M368.4 276.69c7.99,0 14.47,-6.48 14.47,-14.47 0,-7.99 -6.48,-14.47 -14.47,-14.47 -7.99,0 -14.47,6.47 -14.47,14.47 0,7.99 6.47,14.47 14.47,14.47z"/>
   <path class="fil0" d="M333.01 530.91c-7.99,0 -14.47,6.47 -14.47,14.47 0,7.99 6.48,14.46 14.47,14.46 7.99,0 14.47,-6.47 14.47,-14.46 0,-7.99 -6.48,-14.47 -14.47,-14.47z"/>
   <path class="fil0" d="M333.01 566.3c-7.99,0 -14.47,6.47 -14.47,14.46 0,7.99 6.48,14.47 14.47,14.47 7.99,0 14.47,-6.47 14.47,-14.47 0,-7.99 -6.48,-14.46 -14.47,-14.46z"/>
   <path class="fil0" d="M333.01 389.33c-7.99,0 -14.47,6.48 -14.47,14.47 0,7.99 6.48,14.46 14.47,14.46 7.99,0 14.47,-6.47 14.47,-14.46 0,-7.99 -6.48,-14.47 -14.47,-14.47z"/>
   <path class="fil0" d="M333.01 353.94c-7.99,0 -14.47,6.47 -14.47,14.46 0,7.99 6.48,14.47 14.47,14.47 7.99,0 14.47,-6.47 14.47,-14.47 0,-7.99 -6.48,-14.46 -14.47,-14.46z"/>
   <path class="fil0" d="M333.01 318.55c-7.99,0 -14.47,6.47 -14.47,14.47 0,7.99 6.48,14.46 14.47,14.46 7.99,0 14.47,-6.47 14.47,-14.46 0,-7.99 -6.48,-14.47 -14.47,-14.47z"/>
   <path class="fil0" d="M333.01 283.15c-7.99,0 -14.47,6.47 -14.47,14.47 0,7.99 6.48,14.46 14.47,14.46 7.99,0 14.47,-6.47 14.47,-14.46 0,-7.99 -6.48,-14.47 -14.47,-14.47z"/>
   <path class="fil0" d="M333.01 247.76c-7.99,0 -14.47,6.47 -14.47,14.47 0,7.99 6.48,14.47 14.47,14.47 7.99,0 14.47,-6.48 14.47,-14.47 0,-7.99 -6.48,-14.47 -14.47,-14.47z"/>
   <path class="fil0" d="M333.01 212.36c-7.99,0 -14.47,6.48 -14.47,14.47 0,7.99 6.48,14.47 14.47,14.47 7.99,0 14.47,-6.47 14.47,-14.47 0,-7.99 -6.48,-14.47 -14.47,-14.47z"/>
   <path class="fil0" d="M297.61 453.66c7.99,0 14.47,-6.47 14.47,-14.46 0,-7.99 -6.47,-14.47 -14.47,-14.47 -7.99,0 -14.47,6.48 -14.47,14.47 0,7.99 6.48,14.46 14.47,14.46z"/>
   <path class="fil0" d="M297.61 418.26c7.99,0 14.47,-6.47 14.47,-14.46 0,-7.99 -6.47,-14.47 -14.47,-14.47 -7.99,0 -14.47,6.48 -14.47,14.47 0,7.99 6.48,14.46 14.47,14.46z"/>
   <path class="fil0" d="M297.61 382.87c7.99,0 14.47,-6.47 14.47,-14.47 0,-7.99 -6.47,-14.46 -14.47,-14.46 -7.99,0 -14.47,6.47 -14.47,14.46 0,7.99 6.48,14.47 14.47,14.47z"/>
   <path class="fil0" d="M297.61 347.47c7.99,0 14.47,-6.47 14.47,-14.46 0,-7.99 -6.47,-14.47 -14.47,-14.47 -7.99,0 -14.47,6.47 -14.47,14.47 0,7.99 6.48,14.46 14.47,14.46z"/>
   <path class="fil0" d="M297.61 312.08c7.99,0 14.47,-6.47 14.47,-14.46 0,-7.99 -6.47,-14.47 -14.47,-14.47 -7.99,0 -14.47,6.47 -14.47,14.47 0,7.99 6.48,14.46 14.47,14.46z"/>
   <path class="fil0" d="M297.61 276.69c7.99,0 14.47,-6.48 14.47,-14.47 0,-7.99 -6.47,-14.47 -14.47,-14.47 -7.99,0 -14.47,6.47 -14.47,14.47 0,7.99 6.48,14.47 14.47,14.47z"/>
   <path class="fil0" d="M297.61 241.3c7.99,0 14.47,-6.47 14.47,-14.47 0,-7.99 -6.47,-14.47 -14.47,-14.47 -7.99,0 -14.47,6.48 -14.47,14.47 0,7.99 6.48,14.47 14.47,14.47z"/>
   <path class="fil0" d="M297.61 205.9c7.99,0 14.47,-6.47 14.47,-14.47 0,-7.99 -6.47,-14.46 -14.47,-14.46 -7.99,0 -14.47,6.47 -14.47,14.46 0,7.99 6.48,14.47 14.47,14.47z"/>
   <path class="fil0" d="M262.22 460.12c-7.99,0 -14.46,6.47 -14.46,14.47 0,7.99 6.47,14.47 14.46,14.47 7.99,0 14.46,-6.48 14.46,-14.47 0,-7.99 -6.47,-14.47 -14.46,-14.47z"/>
   <path class="fil0" d="M262.22 424.73c-7.99,0 -14.46,6.48 -14.46,14.47 0,7.99 6.47,14.46 14.46,14.46 7.99,0 14.46,-6.47 14.46,-14.46 0,-7.99 -6.47,-14.47 -14.46,-14.47z"/>
   <path class="fil0" d="M262.22 389.33c-7.99,0 -14.46,6.48 -14.46,14.47 0,7.99 6.47,14.46 14.46,14.46 7.99,0 14.46,-6.47 14.46,-14.46 0,-7.99 -6.47,-14.47 -14.46,-14.47z"/>
   <path class="fil0" d="M262.22 353.94c-7.99,0 -14.46,6.47 -14.46,14.46 0,7.99 6.47,14.47 14.46,14.47 7.99,0 14.46,-6.47 14.46,-14.47 0,-7.99 -6.47,-14.46 -14.46,-14.46z"/>
   <path class="fil0" d="M262.22 318.55c-7.99,0 -14.46,6.47 -14.46,14.47 0,7.99 6.47,14.46 14.46,14.46 7.99,0 14.46,-6.47 14.46,-14.46 0,-7.99 -6.47,-14.47 -14.46,-14.47z"/>
   <path class="fil0" d="M262.22 283.15c-7.99,0 -14.46,6.47 -14.46,14.47 0,7.99 6.47,14.46 14.46,14.46 7.99,0 14.46,-6.47 14.46,-14.46 0,-7.99 -6.47,-14.47 -14.46,-14.47z"/>
   <path class="fil0" d="M262.22 247.76c-7.99,0 -14.46,6.47 -14.46,14.47 0,7.99 6.47,14.47 14.46,14.47 7.99,0 14.46,-6.48 14.46,-14.47 0,-7.99 -6.47,-14.47 -14.46,-14.47z"/>
   <path class="fil0" d="M262.22 241.3c7.99,0 14.46,-6.47 14.46,-14.47 0,-7.99 -6.47,-14.47 -14.46,-14.47 -7.99,0 -14.46,6.48 -14.46,14.47 0,7.99 6.47,14.47 14.46,14.47z"/>
   <path class="fil0" d="M226.83 460.12c-7.99,0 -14.47,6.47 -14.47,14.47 0,7.99 6.47,14.47 14.47,14.47 7.99,0 14.46,-6.48 14.46,-14.47 0,-7.99 -6.47,-14.47 -14.46,-14.47z"/>
   <path class="fil0" d="M226.83 453.66c7.99,0 14.46,-6.47 14.46,-14.46 0,-7.99 -6.47,-14.47 -14.46,-14.47 -7.99,0 -14.47,6.48 -14.47,14.47 0,7.99 6.47,14.46 14.47,14.46z"/>
   <path class="fil0" d="M226.83 418.26c7.99,0 14.46,-6.47 14.46,-14.46 0,-7.99 -6.47,-14.47 -14.46,-14.47 -7.99,0 -14.47,6.48 -14.47,14.47 0,7.99 6.47,14.46 14.47,14.46z"/>
   <path class="fil0" d="M226.83 382.87c7.99,0 14.46,-6.47 14.46,-14.47 0,-7.99 -6.47,-14.46 -14.46,-14.46 -7.99,0 -14.47,6.47 -14.47,14.46 0,7.99 6.47,14.47 14.47,14.47z"/>
   <path class="fil0" d="M226.83 347.47c7.99,0 14.46,-6.47 14.46,-14.46 0,-7.99 -6.47,-14.47 -14.46,-14.47 -7.99,0 -14.47,6.47 -14.47,14.47 0,7.99 6.47,14.46 14.47,14.46z"/>
   <path class="fil0" d="M226.83 312.08c7.99,0 14.46,-6.47 14.46,-14.46 0,-7.99 -6.47,-14.47 -14.46,-14.47 -7.99,0 -14.47,6.47 -14.47,14.47 0,7.99 6.47,14.46 14.47,14.46z"/>
   <path class="fil0" d="M226.83 276.69c7.99,0 14.46,-6.48 14.46,-14.47 0,-7.99 -6.47,-14.47 -14.46,-14.47 -7.99,0 -14.47,6.47 -14.47,14.47 0,7.99 6.47,14.47 14.47,14.47z"/>
   <path class="fil0" d="M191.44 424.73c-7.99,0 -14.47,6.48 -14.47,14.47 0,7.99 6.47,14.46 14.47,14.46 7.99,0 14.47,-6.47 14.47,-14.46 0,-7.99 -6.48,-14.47 -14.47,-14.47z"/>
   <path class="fil0" d="M191.44 460.12c-7.99,0 -14.47,6.47 -14.47,14.47 0,7.99 6.47,14.47 14.47,14.47 7.99,0 14.47,-6.48 14.47,-14.47 0,-7.99 -6.48,-14.47 -14.47,-14.47z"/>
   <path class="fil0" d="M191.44 389.33c-7.99,0 -14.47,6.48 -14.47,14.47 0,7.99 6.47,14.46 14.47,14.46 7.99,0 14.47,-6.47 14.47,-14.46 0,-7.99 -6.48,-14.47 -14.47,-14.47z"/>
   <path class="fil0" d="M191.44 353.94c-7.99,0 -14.47,6.47 -14.47,14.46 0,7.99 6.47,14.47 14.47,14.47 7.99,0 14.47,-6.47 14.47,-14.47 0,-7.99 -6.48,-14.46 -14.47,-14.46z"/>
   <path class="fil0" d="M191.44 318.55c-7.99,0 -14.47,6.47 -14.47,14.47 0,7.99 6.47,14.46 14.47,14.46 7.99,0 14.47,-6.47 14.47,-14.46 0,-7.99 -6.48,-14.47 -14.47,-14.47z"/>
   <path class="fil0" d="M191.44 283.15c-7.99,0 -14.47,6.47 -14.47,14.47 0,7.99 6.47,14.46 14.47,14.46 7.99,0 14.47,-6.47 14.47,-14.46 0,-7.99 -6.48,-14.47 -14.47,-14.47z"/>
   <path class="fil0" d="M191.44 247.76c-7.99,0 -14.47,6.47 -14.47,14.47 0,7.99 6.47,14.47 14.47,14.47 7.99,0 14.47,-6.48 14.47,-14.47 0,-7.99 -6.48,-14.47 -14.47,-14.47z"/>
   <path class="fil0" d="M226.83 241.3c7.99,0 14.46,-6.47 14.46,-14.47 0,-7.99 -6.47,-14.47 -14.46,-14.47 -7.99,0 -14.47,6.48 -14.47,14.47 0,7.99 6.47,14.47 14.47,14.47z"/>
   <path class="fil0" d="M191.44 212.36c-7.99,0 -14.47,6.48 -14.47,14.47 0,7.99 6.47,14.47 14.47,14.47 7.99,0 14.47,-6.47 14.47,-14.47 0,-7.99 -6.48,-14.47 -14.47,-14.47z"/>
   <path class="fil0" d="M156.04 460.12c-7.99,0 -14.47,6.47 -14.47,14.47 0,7.99 6.47,14.47 14.47,14.47 7.99,0 14.47,-6.48 14.47,-14.47 0,-7.99 -6.48,-14.47 -14.47,-14.47z"/>
   <path class="fil0" d="M156.04 453.66c7.99,0 14.47,-6.47 14.47,-14.46 0,-7.99 -6.48,-14.47 -14.47,-14.47 -7.99,0 -14.47,6.48 -14.47,14.47 0,7.99 6.47,14.46 14.47,14.46z"/>
   <path class="fil0" d="M156.04 418.26c7.99,0 14.47,-6.47 14.47,-14.46 0,-7.99 -6.48,-14.47 -14.47,-14.47 -7.99,0 -14.47,6.48 -14.47,14.47 0,7.99 6.47,14.46 14.47,14.46z"/>
   <path class="fil0" d="M156.04 382.87c7.99,0 14.47,-6.47 14.47,-14.47 0,-7.99 -6.48,-14.46 -14.47,-14.46 -7.99,0 -14.47,6.47 -14.47,14.46 0,7.99 6.47,14.47 14.47,14.47z"/>
   <path class="fil0" d="M156.04 347.47c7.99,0 14.47,-6.47 14.47,-14.46 0,-7.99 -6.48,-14.47 -14.47,-14.47 -7.99,0 -14.47,6.47 -14.47,14.47 0,7.99 6.47,14.46 14.47,14.46z"/>
   <path class="fil0" d="M156.04 312.08c7.99,0 14.47,-6.47 14.47,-14.46 0,-7.99 -6.48,-14.47 -14.47,-14.47 -7.99,0 -14.47,6.47 -14.47,14.47 0,7.99 6.47,14.46 14.47,14.46z"/>
   <path class="fil0" d="M156.04 276.69c7.99,0 14.47,-6.48 14.47,-14.47 0,-7.99 -6.48,-14.47 -14.47,-14.47 -7.99,0 -14.47,6.47 -14.47,14.47 0,7.99 6.47,14.47 14.47,14.47z"/>
   <path class="fil0" d="M120.65 460.12c-7.99,0 -14.47,6.47 -14.47,14.47 0,7.99 6.48,14.47 14.47,14.47 7.99,0 14.47,-6.48 14.47,-14.47 0,-7.99 -6.47,-14.47 -14.47,-14.47z"/>
   <path class="fil0" d="M120.65 424.73c-7.99,0 -14.47,6.48 -14.47,14.47 0,7.99 6.48,14.46 14.47,14.46 7.99,0 14.47,-6.47 14.47,-14.46 0,-7.99 -6.47,-14.47 -14.47,-14.47z"/>
   <path class="fil0" d="M120.65 389.33c-7.99,0 -14.47,6.48 -14.47,14.47 0,7.99 6.48,14.46 14.47,14.46 7.99,0 14.47,-6.47 14.47,-14.46 0,-7.99 -6.47,-14.47 -14.47,-14.47z"/>
   <path class="fil0" d="M120.65 353.94c-7.99,0 -14.47,6.47 -14.47,14.46 0,7.99 6.48,14.47 14.47,14.47 7.99,0 14.47,-6.47 14.47,-14.47 0,-7.99 -6.47,-14.46 -14.47,-14.46z"/>
   <path class="fil0" d="M120.65 318.55c-7.99,0 -14.47,6.47 -14.47,14.47 0,7.99 6.48,14.46 14.47,14.46 7.99,0 14.47,-6.47 14.47,-14.46 0,-7.99 -6.47,-14.47 -14.47,-14.47z"/>
   <path class="fil0" d="M120.65 283.15c-7.99,0 -14.47,6.47 -14.47,14.47 0,7.99 6.48,14.46 14.47,14.46 7.99,0 14.47,-6.47 14.47,-14.46 0,-7.99 -6.47,-14.47 -14.47,-14.47z"/>
   <path class="fil0" d="M85.25 489.05c7.99,0 14.47,-6.48 14.47,-14.47 0,-7.99 -6.47,-14.47 -14.47,-14.47 -7.99,0 -14.47,6.47 -14.47,14.47 0,7.99 6.48,14.47 14.47,14.47z"/>
   <path class="fil0" d="M85.25 453.66c7.99,0 14.47,-6.47 14.47,-14.46 0,-7.99 -6.47,-14.47 -14.47,-14.47 -7.99,0 -14.47,6.48 -14.47,14.47 0,7.99 6.48,14.46 14.47,14.46z"/>
   <path class="fil0" d="M85.25 418.26c7.99,0 14.47,-6.47 14.47,-14.46 0,-7.99 -6.47,-14.47 -14.47,-14.47 -7.99,0 -14.47,6.48 -14.47,14.47 0,7.99 6.48,14.46 14.47,14.46z"/>
   <path class="fil0" d="M85.25 382.87c7.99,0 14.47,-6.47 14.47,-14.47 0,-7.99 -6.47,-14.46 -14.47,-14.46 -7.99,0 -14.47,6.47 -14.47,14.46 0,7.99 6.48,14.47 14.47,14.47z"/>
   <path class="fil0" d="M85.25 347.47c7.99,0 14.47,-6.47 14.47,-14.46 0,-7.99 -6.47,-14.47 -14.47,-14.47 -7.99,0 -14.47,6.47 -14.47,14.47 0,7.99 6.48,14.46 14.47,14.46z"/>
   <path class="fil0" d="M49.86 460.12c-7.99,0 -14.47,6.47 -14.47,14.47 0,7.99 6.47,14.47 14.47,14.47 7.99,0 14.46,-6.48 14.46,-14.47 0,-7.99 -6.47,-14.47 -14.46,-14.47z"/>
   <path class="fil0" d="M49.86 495.51c-7.99,0 -14.47,6.47 -14.47,14.47 0,7.99 6.47,14.46 14.47,14.46 7.99,0 14.46,-6.47 14.46,-14.46 0,-7.99 -6.47,-14.47 -14.46,-14.47z"/>
   <path class="fil0" d="M49.86 424.73c-7.99,0 -14.47,6.48 -14.47,14.47 0,7.99 6.47,14.46 14.47,14.46 7.99,0 14.46,-6.47 14.46,-14.46 0,-7.99 -6.47,-14.47 -14.46,-14.47z"/>
   <path class="fil0" d="M49.86 389.33c-7.99,0 -14.47,6.48 -14.47,14.47 0,7.99 6.47,14.46 14.47,14.46 7.99,0 14.46,-6.47 14.46,-14.46 0,-7.99 -6.47,-14.47 -14.46,-14.47z"/>
   <path class="fil0" d="M49.86 353.94c-7.99,0 -14.47,6.47 -14.47,14.46 0,7.99 6.47,14.47 14.47,14.47 7.99,0 14.46,-6.47 14.46,-14.47 0,-7.99 -6.47,-14.46 -14.46,-14.46z"/>
   <path class="fil0" d="M49.86 347.47c7.99,0 14.46,-6.47 14.46,-14.46 0,-7.99 -6.47,-14.47 -14.46,-14.47 -7.99,0 -14.47,6.47 -14.47,14.47 0,7.99 6.47,14.46 14.47,14.46z"/>
   <path class="fil0" d="M14.47 495.52c-7.99,0 -14.47,6.47 -14.47,14.47 0,7.99 6.47,14.46 14.47,14.46 7.99,0 14.46,-6.47 14.46,-14.46 0,-7.99 -6.47,-14.47 -14.46,-14.47z"/>
   <path class="fil0" d="M14.47 489.05c7.99,0 14.46,-6.48 14.46,-14.47 0,-7.99 -6.47,-14.47 -14.46,-14.47 -7.99,0 -14.47,6.47 -14.47,14.47 0,7.99 6.47,14.47 14.47,14.47z"/>
   <path class="fil0" d="M14.47 453.66c7.99,0 14.46,-6.47 14.46,-14.46 0,-7.99 -6.47,-14.47 -14.46,-14.47 -7.99,0 -14.47,6.48 -14.47,14.47 0,7.99 6.47,14.46 14.47,14.46z"/>
   <path class="fil0" d="M14.47 418.26c7.99,0 14.46,-6.47 14.46,-14.46 0,-7.99 -6.47,-14.47 -14.46,-14.47 -7.99,0 -14.47,6.48 -14.47,14.47 0,7.99 6.47,14.46 14.47,14.46z"/>
   <path class="fil0" d="M14.47 382.87c7.99,0 14.46,-6.47 14.46,-14.47 0,-7.99 -6.47,-14.46 -14.46,-14.46 -7.99,0 -14.47,6.47 -14.47,14.46 0,7.99 6.47,14.47 14.47,14.47z"/>
   <path class="fil0" d="M474.58 99.72c7.99,0 14.47,-6.48 14.47,-14.47 0,-7.99 -6.47,-14.46 -14.47,-14.46 -7.99,0 -14.46,6.47 -14.46,14.46 0,7.99 6.47,14.47 14.46,14.47z"/>
   <path class="fil0" d="M439.19 70.79c-7.99,0 -14.46,6.47 -14.46,14.46 0,7.99 6.47,14.47 14.46,14.47 7.99,0 14.47,-6.48 14.47,-14.47 0,-7.99 -6.47,-14.46 -14.47,-14.46z"/>
   <path class="fil0" d="M439.19 106.18c-7.99,0 -14.46,6.47 -14.46,14.47 0,7.99 6.47,14.46 14.46,14.46 7.99,0 14.47,-6.47 14.47,-14.46 0,-7.99 -6.47,-14.47 -14.47,-14.47z"/>
   <path class="fil0" d="M439.19 64.33c7.99,0 14.47,-6.48 14.47,-14.47 0,-7.99 -6.47,-14.47 -14.47,-14.47 -7.99,0 -14.46,6.47 -14.46,14.47 0,7.99 6.47,14.47 14.46,14.47z"/>
   <path class="fil0" d="M403.79 64.33c7.99,0 14.46,-6.48 14.46,-14.47 0,-7.99 -6.47,-14.47 -14.46,-14.47 -7.99,0 -14.47,6.47 -14.47,14.47 0,7.99 6.47,14.47 14.47,14.47z"/>
   <path class="fil0" d="M403.79 99.72c7.99,0 14.46,-6.48 14.46,-14.47 0,-7.99 -6.47,-14.46 -14.46,-14.46 -7.99,0 -14.47,6.47 -14.47,14.46 0,7.99 6.47,14.47 14.47,14.47z"/>
   <path class="fil0" d="M368.4 64.33c7.99,0 14.47,-6.48 14.47,-14.47 0,-7.99 -6.48,-14.47 -14.47,-14.47 -7.99,0 -14.47,6.47 -14.47,14.47 0,7.99 6.47,14.47 14.47,14.47z"/>
   <path class="fil0" d="M368.4 28.93c7.99,0 14.47,-6.47 14.47,-14.47 0,-7.99 -6.48,-14.47 -14.47,-14.47 -7.99,0 -14.47,6.48 -14.47,14.47 0,7.99 6.47,14.47 14.47,14.47z"/>
   <path class="fil0" d="M333 637.08c-7.99,0 -14.47,6.48 -14.47,14.47 0,7.99 6.48,14.47 14.47,14.47 7.99,0 14.47,-6.47 14.47,-14.47 0,-7.99 -6.47,-14.47 -14.47,-14.47z"/>
  </g>
 </g>
</svg>
