<?xml version="1.0" encoding="iso-8859-1"?>
<!-- Generator: Adobe Illustrator 19.0.0, SVG Export Plug-In . SVG Version: 6.00 Build 0)  -->
<svg fill="#4d31ba" xmlns="http://www.w3.org/2000/svg" xmlns:xlink="http://www.w3.org/1999/xlink" version="1.1" id="Layer_1" x="0px" y="0px" viewBox="0 0 512 512" style="enable-background:new 0 0 512 512;" xml:space="preserve" width="512" height="512">
<g>
	<path d="M228.416,362.299c28.398,0,55.098-11.059,75.18-31.14c41.453-41.454,41.453-108.905,0-150.358   c-20.082-20.082-46.781-31.141-75.18-31.141c-28.399,0-55.099,11.059-75.18,31.141c-20.081,20.081-31.14,46.78-31.14,75.179   s11.059,55.098,31.14,75.179S200.017,362.299,228.416,362.299z M163.844,191.407c17.247-17.248,40.18-26.747,64.572-26.747   c24.392,0,47.324,9.499,64.572,26.747c35.605,35.605,35.605,93.54,0,129.146c-17.248,17.248-40.181,26.747-64.572,26.747   c-24.393,0-47.325-9.499-64.572-26.747c-17.249-17.248-26.747-40.181-26.747-64.573   C137.097,231.587,146.595,208.655,163.844,191.407z"/>
	<path d="M204.083,280.313v29.24c0,9.358,7.613,16.972,16.972,16.972h14.722c9.358,0,16.972-7.613,16.972-16.972v-29.24h29.24   c9.358,0,16.972-7.613,16.972-16.972v-14.722c0-9.358-7.613-16.972-16.972-16.972h-29.24v-29.24   c0-9.358-7.613-16.972-16.972-16.972h-14.722c-9.358,0-16.972,7.613-16.972,16.972v29.24h-29.24   c-9.358,0-16.972,7.614-16.972,16.972v14.722c0,9.358,7.613,16.972,16.972,16.972H204.083z M172.871,263.341v-14.722   c0-1.087,0.885-1.972,1.972-1.972h36.74c4.143,0,7.5-3.358,7.5-7.5v-36.74c0-1.087,0.885-1.972,1.972-1.972h14.722   c1.087,0,1.972,0.884,1.972,1.972v36.74c0,4.142,3.357,7.5,7.5,7.5h36.74c1.087,0,1.972,0.885,1.972,1.972v14.722   c0,1.087-0.885,1.972-1.972,1.972h-36.74c-4.143,0-7.5,3.358-7.5,7.5v36.74c0,1.087-0.885,1.972-1.972,1.972h-14.722   c-1.087,0-1.972-0.884-1.972-1.972v-36.74c0-4.142-3.357-7.5-7.5-7.5h-36.74C173.756,265.313,172.871,264.428,172.871,263.341z"/>
	<path d="M477.99,136.79c-1.959-5.252-5.846-9.428-10.944-11.757l-12.189-5.568c-10.526-4.807-23.002-0.155-27.81,10.37   l-15.053,32.954V67.831c0-23.207-18.88-42.086-42.087-42.086h-70.953v-1.572C298.954,10.844,288.11,0,274.782,0H169.888   c-13.328,0-24.172,10.844-24.172,24.172v1.572H74.763c-23.207,0-42.087,18.88-42.087,42.086v402.083   c0,23.207,18.88,42.086,42.087,42.086h295.145c23.207,0,42.087-18.88,42.087-42.086V296.067l65.422-143.225   C479.745,147.743,479.949,142.042,477.99,136.79z M446.145,132.568c0.831,0,1.675,0.174,2.479,0.541l12.189,5.568   c3.003,1.372,4.33,4.931,2.958,7.933l-6.583,14.412l-23.08-10.542l6.583-14.412C441.695,133.868,443.873,132.568,446.145,132.568z    M446.72,183.939l-23.08-10.542l4.236-9.274l23.08,10.542L446.72,183.939z M327.581,444.739l-23.061-10.534   c0.107-0.25,112.888-247.165,112.888-247.165l23.08,10.542C440.488,197.583,327.701,444.495,327.581,444.739z M300.657,448.932   l18.322,8.369l-28.989,39.223L300.657,448.932z M336.539,458.779C336.54,458.779,336.54,458.778,336.539,458.779   c1.968-2.663,3.661-5.537,5.035-8.544l20.797-45.53v51.137c0,4.461-3.63,8.116-8.089,8.146l-21.695,0.139L336.539,458.779z    M160.716,24.172c0-5.058,4.114-9.172,9.172-9.172h104.895c5.058,0,9.172,4.115,9.172,9.172v19.246   c0,5.058-4.114,9.172-9.172,9.172H169.888c-5.058,0-9.172-4.115-9.172-9.172V24.172z M47.676,469.914V67.831   c0-12.329,8.28-22.76,19.571-26.025v348.527c0,4.142,3.357,7.5,7.5,7.5s7.5-3.358,7.5-7.5l0.001-349.588h63.468v2.674   c0,13.329,10.844,24.172,24.172,24.172h104.895c13.328,0,24.172-10.844,24.172-24.172v-2.674h63.417v59.508   c0,4.142,3.357,7.5,7.5,7.5s7.5-3.358,7.5-7.5V41.79c11.318,3.249,19.623,13.693,19.623,26.041v127.797l-19.623,42.96V130.252   c0-4.142-3.357-7.5-7.5-7.5s-7.5,3.358-7.5,7.5v141.174l-71.166,155.8c-1.374,3.01-2.438,6.172-3.162,9.4l-6.236,27.823   l-191.36,1.224c-0.019,0-0.037,0-0.056,0c-2.165,0-4.202-0.839-5.739-2.367c-1.551-1.541-2.405-3.593-2.405-5.778v-37.197   c0-4.142-3.357-7.5-7.5-7.5s-7.5,3.358-7.5,7.5v37.197c0,6.211,2.427,12.042,6.833,16.42c4.37,4.34,10.156,6.725,16.307,6.725   c0.053,0,0.105,0,0.158,0l187.896-1.202L274.454,497H74.763C59.827,497,47.676,484.849,47.676,469.914z M396.994,469.914   c0,14.936-12.151,27.086-27.087,27.086h-61.616l13.157-17.802l32.932-0.21c12.678-0.085,22.991-10.468,22.991-23.146v-83.976   l19.623-42.96V469.914z"/>
</g>















</svg>
