<?xml version="1.0" encoding="UTF-8"?>
<!DOCTYPE svg PUBLIC "-//W3C//DTD SVG 1.1//EN" "http://www.w3.org/Graphics/SVG/1.1/DTD/svg11.dtd">
<!-- Creator: CorelDRAW (Nie do użytku komercyjnego) -->
<svg xmlns="http://www.w3.org/2000/svg" xml:space="preserve" width="95.0106mm" height="61.2325mm" version="1.1" style="shape-rendering:geometricPrecision; text-rendering:geometricPrecision; image-rendering:optimizeQuality; fill-rule:evenodd; clip-rule:evenodd"
viewBox="0 0 4027 2595.32"
 xmlns:xlink="http://www.w3.org/1999/xlink"
 xmlns:xodm="http://www.corel.com/coreldraw/odm/2003">
 <defs>
  <style type="text/css">
   <![CDATA[
    .fil0 {fill:#422CB7;fill-rule:nonzero}
   ]]>
  </style>
 </defs>
 <g id="Warstwa_x0020_1">
  <metadata id="CorelCorpID_0Corel-Layer"/>
  <g id="_105553172829920">
   <path class="fil0" d="M2560.9 926.39c-19.01,0 -34.42,15.4 -34.42,34.41 0,19.02 15.42,34.43 34.42,34.43 19.01,0 34.42,-15.42 34.42,-34.43 0,-19.01 -15.42,-34.41 -34.42,-34.41z"/>
   <path class="fil0" d="M2645.11 926.39c-18.99,0 -34.4,15.4 -34.4,34.41 0,19.02 15.42,34.43 34.4,34.43 19.02,0 34.44,-15.42 34.44,-34.43 0,-19.01 -15.42,-34.41 -34.44,-34.41z"/>
   <path class="fil0" d="M2729.34 926.39c-18.99,0 -34.42,15.4 -34.42,34.41 0,19.02 15.43,34.43 34.42,34.43 19.02,0 34.44,-15.42 34.44,-34.43 0,-19.01 -15.42,-34.41 -34.44,-34.41z"/>
   <path class="fil0" d="M2729.34 1010.6c-18.99,0 -34.42,15.4 -34.42,34.4 0,19.02 15.43,34.42 34.42,34.42 19.02,0 34.44,-15.4 34.44,-34.42 0,-19.01 -15.42,-34.4 -34.44,-34.4z"/>
   <path class="fil0" d="M2560.9 911c19.01,0 34.42,-15.42 34.42,-34.42 0,-19.01 -15.42,-34.42 -34.42,-34.42 -19.01,0 -34.42,15.42 -34.42,34.42 0,19.01 15.42,34.42 34.42,34.42z"/>
   <path class="fil0" d="M2560.9 826.79c19.01,0 34.42,-15.42 34.42,-34.42 0,-19.01 -15.42,-34.42 -34.42,-34.42 -19.01,0 -34.42,15.42 -34.42,34.42 0,19.01 15.42,34.42 34.42,34.42z"/>
   <path class="fil0" d="M2645.11 911c19.02,0 34.44,-15.42 34.44,-34.42 0,-19.01 -15.42,-34.42 -34.44,-34.42 -18.99,0 -34.4,15.42 -34.4,34.42 0,19.01 15.42,34.42 34.4,34.42z"/>
   <path class="fil0" d="M2645.11 826.79c19.02,0 34.44,-15.42 34.44,-34.42 0,-19.01 -15.42,-34.42 -34.44,-34.42 -18.99,0 -34.4,15.42 -34.4,34.42 0,19.01 15.42,34.42 34.4,34.42z"/>
   <path class="fil0" d="M2476.69 995.23c19,0 34.4,-15.42 34.4,-34.43 0,-19.01 -15.4,-34.41 -34.4,-34.41 -19.02,0 -34.42,15.4 -34.42,34.41 0,19.02 15.4,34.43 34.42,34.43z"/>
   <path class="fil0" d="M2476.69 842.16c-19.02,0 -34.42,15.42 -34.42,34.42 0,19.01 15.4,34.42 34.42,34.42 19,0 34.4,-15.42 34.4,-34.42 0,-19.01 -15.4,-34.42 -34.4,-34.42z"/>
   <path class="fil0" d="M2476.69 826.79c19,0 34.4,-15.42 34.4,-34.42 0,-19.01 -15.4,-34.42 -34.4,-34.42 -19.02,0 -34.42,15.42 -34.42,34.42 0,19.01 15.4,34.42 34.42,34.42z"/>
   <path class="fil0" d="M2392.47 995.23c19,0 34.43,-15.42 34.43,-34.43 0,-19.01 -15.43,-34.41 -34.43,-34.41 -19.01,0 -34.42,15.4 -34.42,34.41 0,19.02 15.42,34.43 34.42,34.43z"/>
   <path class="fil0" d="M2392.47 842.16c-19.01,0 -34.42,15.42 -34.42,34.42 0,19.01 15.42,34.42 34.42,34.42 19,0 34.43,-15.42 34.43,-34.42 0,-19.01 -15.43,-34.42 -34.43,-34.42z"/>
   <path class="fil0" d="M2392.47 826.79c19,0 34.43,-15.42 34.43,-34.42 0,-19.01 -15.43,-34.42 -34.43,-34.42 -19.01,0 -34.42,15.42 -34.42,34.42 0,19.01 15.42,34.42 34.42,34.42z"/>
   <path class="fil0" d="M2392.47 673.74c-19.01,0 -34.42,15.4 -34.42,34.41 0,19.02 15.42,34.43 34.42,34.43 19,0 34.43,-15.42 34.43,-34.43 0,-19.01 -15.43,-34.41 -34.43,-34.41z"/>
   <path class="fil0" d="M2476.69 673.74c-19.02,0 -34.42,15.4 -34.42,34.41 0,19.02 15.4,34.43 34.42,34.43 19,0 34.4,-15.42 34.4,-34.43 0,-19.01 -15.4,-34.41 -34.4,-34.41z"/>
   <path class="fil0" d="M2392.47 658.35c19,0 34.43,-15.4 34.43,-34.42 0,-19 -15.43,-34.42 -34.43,-34.42 -19.01,0 -34.42,15.42 -34.42,34.42 0,19.02 15.42,34.42 34.42,34.42z"/>
   <path class="fil0" d="M2273.84 1129.22c0,19.02 15.42,34.43 34.42,34.43 19.02,0 34.42,-15.42 34.42,-34.43 0,-19.01 -15.4,-34.41 -34.42,-34.41 -2.36,0 -4.66,0.24 -6.89,0.69 -1.75,0.9 -3.51,1.77 -5.25,2.66 -2.53,1.3 -4.61,1.93 -6.43,2.15 -9.51,6.15 -15.85,16.76 -15.85,28.91z"/>
   <path class="fil0" d="M2358.05 1129.22c0,19.02 15.42,34.43 34.42,34.43 19,0 34.43,-15.42 34.43,-34.43 0,-19.01 -15.43,-34.41 -34.43,-34.41 -2.35,0 -4.67,0.24 -6.9,0.69 -1.73,0.9 -3.51,1.77 -5.26,2.66 -2.51,1.3 -4.59,1.93 -6.42,2.15 -9.51,6.15 -15.85,16.76 -15.85,28.91z"/>
   <path class="fil0" d="M2308.26 926.39c-19.01,0 -34.42,15.4 -34.42,34.41 0,19.02 15.42,34.43 34.42,34.43 19.02,0 34.42,-15.42 34.42,-34.43 0,-19.01 -15.4,-34.41 -34.42,-34.41z"/>
   <path class="fil0" d="M2308.26 1010.6c-19.01,0 -34.42,15.4 -34.42,34.4 0,19.02 15.42,34.42 34.42,34.42 19.02,0 34.42,-15.4 34.42,-34.42 0,-19.01 -15.4,-34.4 -34.42,-34.4z"/>
   <path class="fil0" d="M2308.26 911c19.02,0 34.42,-15.42 34.42,-34.42 0,-19.01 -15.4,-34.42 -34.42,-34.42 -19.01,0 -34.42,15.42 -34.42,34.42 0,19.01 15.42,34.42 34.42,34.42z"/>
   <path class="fil0" d="M2308.26 757.95c-19.01,0 -34.42,15.42 -34.42,34.42 0,19.01 15.42,34.42 34.42,34.42 19.02,0 34.42,-15.42 34.42,-34.42 0,-19.01 -15.4,-34.42 -34.42,-34.42z"/>
   <path class="fil0" d="M2308.26 742.58c19.02,0 34.42,-15.42 34.42,-34.43 0,-19.01 -15.4,-34.41 -34.42,-34.41 -19.01,0 -34.42,15.4 -34.42,34.41 0,19.02 15.42,34.43 34.42,34.43z"/>
   <path class="fil0" d="M2224.03 1163.65c19.02,0 34.44,-15.42 34.44,-34.43 0,-19.01 -15.42,-34.41 -34.44,-34.41 -18.99,0 -34.42,15.4 -34.42,34.41 0,19.02 15.43,34.43 34.42,34.43z"/>
   <path class="fil0" d="M2224.03 1247.86c19.02,0 34.44,-15.42 34.44,-34.43 0,-19.01 -15.42,-34.4 -34.44,-34.4 -18.99,0 -34.42,15.4 -34.42,34.4 0,19.02 15.43,34.43 34.42,34.43z"/>
   <path class="fil0" d="M2224.03 1079.43c19.02,0 34.44,-15.4 34.44,-34.42 0,-19.01 -15.42,-34.4 -34.44,-34.4 -18.99,0 -34.42,15.4 -34.42,34.4 0,19.02 15.43,34.42 34.42,34.42z"/>
   <path class="fil0" d="M2224.03 995.23c19.02,0 34.44,-15.42 34.44,-34.43 0,-19.01 -15.42,-34.41 -34.44,-34.41 -18.99,0 -34.42,15.4 -34.42,34.41 0,19.02 15.43,34.43 34.42,34.43z"/>
   <path class="fil0" d="M2224.03 842.16c-18.99,0 -34.42,15.42 -34.42,34.42 0,19.01 15.43,34.42 34.42,34.42 19.02,0 34.44,-15.42 34.44,-34.42 0,-19.01 -15.42,-34.42 -34.44,-34.42z"/>
   <path class="fil0" d="M2139.82 1247.86c19.02,0 34.42,-15.42 34.42,-34.42 0,-19.01 -15.4,-34.42 -34.42,-34.42 -19.01,0 -34.41,15.42 -34.41,34.42 0,19 15.4,34.42 34.41,34.42z"/>
   <path class="fil0" d="M2139.82 1094.81c-19.01,0 -34.41,15.4 -34.41,34.41 0,19.02 15.4,34.43 34.41,34.43 19.02,0 34.42,-15.42 34.42,-34.43 0,-19.01 -15.4,-34.41 -34.42,-34.41z"/>
   <path class="fil0" d="M2139.82 1079.43c19.02,0 34.42,-15.4 34.42,-34.42 0,-19.01 -15.4,-34.4 -34.42,-34.4 -19.01,0 -34.41,15.4 -34.41,34.4 0,19.02 15.4,34.42 34.41,34.42z"/>
   <path class="fil0" d="M2139.82 926.39c-19.01,0 -34.41,15.4 -34.41,34.41 0,19.02 15.4,34.43 34.41,34.43 19.02,0 34.42,-15.42 34.42,-34.43 0,-19.01 -15.4,-34.41 -34.42,-34.41z"/>
   <path class="fil0" d="M2139.82 336.87c-19.01,0 -34.41,15.42 -34.41,34.42 0,19.02 15.4,34.42 34.41,34.42 19.02,0 34.42,-15.4 34.42,-34.42 0,-3.76 -0.75,-7.32 -1.86,-10.69 -0.01,-0.01 -0.03,-0.01 -0.03,-0.03 -3.08,-4.22 -5.71,-8.52 -7.63,-12.92 -6.26,-6.61 -15.07,-10.78 -24.91,-10.78z"/>
   <path class="fil0" d="M2055.61 1263.24c-19,0 -34.42,15.42 -34.42,34.42 0,19.02 15.42,34.42 34.42,34.42 19.01,0 34.42,-15.4 34.42,-34.42 0,-19.01 -15.42,-34.42 -34.42,-34.42z"/>
   <path class="fil0" d="M2055.61 1179.03c-19,0 -34.42,15.42 -34.42,34.42 0,19 15.42,34.42 34.42,34.42 19.01,0 34.42,-15.42 34.42,-34.42 0,-19.01 -15.42,-34.42 -34.42,-34.42z"/>
   <path class="fil0" d="M2055.61 1163.65c19.01,0 34.42,-15.42 34.42,-34.43 0,-19.01 -15.42,-34.41 -34.42,-34.41 -19,0 -34.42,15.4 -34.42,34.41 0,19.02 15.42,34.43 34.42,34.43z"/>
   <path class="fil0" d="M2055.61 1079.43c19.01,0 34.42,-15.4 34.42,-34.42 0,-19.01 -15.42,-34.4 -34.42,-34.4 -19,0 -34.42,15.4 -34.42,34.4 0,19.02 15.42,34.42 34.42,34.42z"/>
   <path class="fil0" d="M2055.61 421.09c-19,0 -34.42,15.4 -34.42,34.4 0,19.02 15.42,34.43 34.42,34.43 19.01,0 34.42,-15.42 34.42,-34.43 0,-19.01 -15.42,-34.4 -34.42,-34.4z"/>
   <path class="fil0" d="M2139.82 421.09c-19.01,0 -34.41,15.4 -34.41,34.4 0,19.02 15.4,34.43 34.41,34.43 19.02,0 34.42,-15.42 34.42,-34.43 0,-19.01 -15.4,-34.4 -34.42,-34.4z"/>
   <path class="fil0" d="M2224.03 421.09c-18.99,0 -34.42,15.4 -34.42,34.4 0,19.02 15.43,34.43 34.42,34.43 19.02,0 34.44,-15.42 34.44,-34.43 0,-19.01 -15.42,-34.4 -34.44,-34.4z"/>
   <path class="fil0" d="M2308.26 336.87c-19.01,0 -34.42,15.42 -34.42,34.42 0,19.02 15.42,34.42 34.42,34.42 19.02,0 34.42,-15.4 34.42,-34.42 0,-19.01 -15.4,-34.42 -34.42,-34.42z"/>
   <path class="fil0" d="M1971.4 1094.81c-19.02,0 -34.42,15.4 -34.42,34.41 0,19.02 15.4,34.43 34.42,34.43 19.01,0 34.4,-15.42 34.4,-34.43 0,-19.01 -15.4,-34.41 -34.4,-34.41z"/>
   <path class="fil0" d="M1971.4 1079.43c19.01,0 34.4,-15.4 34.4,-34.42 0,-19.01 -15.4,-34.4 -34.4,-34.4 -19.02,0 -34.42,15.4 -34.42,34.4 0,19.02 15.4,34.42 34.42,34.42z"/>
   <path class="fil0" d="M1971.4 995.23c19.01,0 34.4,-15.42 34.4,-34.43 0,-19.01 -15.4,-34.41 -34.4,-34.41 -19.02,0 -34.42,15.4 -34.42,34.41 0,19.02 15.4,34.43 34.42,34.43z"/>
   <path class="fil0" d="M1971.4 911c19.01,0 34.4,-15.42 34.4,-34.42 0,-19.01 -15.4,-34.42 -34.4,-34.42 -19.02,0 -34.42,15.42 -34.42,34.42 0,19.01 15.4,34.42 34.42,34.42z"/>
   <path class="fil0" d="M1887.18 995.23c19.01,0 34.42,-15.42 34.42,-34.43 0,-19.01 -15.42,-34.41 -34.42,-34.41 -19.02,0 -34.42,15.4 -34.42,34.41 0,19.02 15.4,34.43 34.42,34.43z"/>
   <path class="fil0" d="M1887.18 911c19.01,0 34.42,-15.42 34.42,-34.42 0,-19.01 -15.42,-34.42 -34.42,-34.42 -19.02,0 -34.42,15.42 -34.42,34.42 0,19.01 15.4,34.42 34.42,34.42z"/>
   <path class="fil0" d="M1887.18 505.3c-19.02,0 -34.42,15.42 -34.42,34.42 0,19.01 15.4,34.42 34.42,34.42 19.01,0 34.42,-15.42 34.42,-34.42 0,-19.01 -15.42,-34.42 -34.42,-34.42z"/>
   <path class="fil0" d="M1887.18 489.93c19.01,0 34.42,-15.42 34.42,-34.43 0,-19.01 -15.42,-34.4 -34.42,-34.4 -19.02,0 -34.42,15.4 -34.42,34.4 0,19.02 15.4,34.43 34.42,34.43z"/>
   <path class="fil0" d="M1971.41 489.93c19.01,0 34.41,-15.42 34.41,-34.43 0,-19.01 -15.4,-34.4 -34.41,-34.4 -19.02,0 -34.42,15.4 -34.42,34.4 0,19.02 15.4,34.43 34.42,34.43z"/>
   <path class="fil0" d="M1802.95 1584.73c19.02,0 34.44,-15.4 34.44,-34.42 0,-19.01 -15.42,-34.42 -34.44,-34.42 -18.99,0 -34.42,15.42 -34.42,34.42 0,19.02 15.43,34.42 34.42,34.42z"/>
   <path class="fil0" d="M1802.95 1500.51c19.02,0 34.44,-15.42 34.44,-34.42 0,-19 -15.42,-34.42 -34.44,-34.42 -18.99,0 -34.42,15.42 -34.42,34.42 0,19.01 15.43,34.42 34.42,34.42z"/>
   <path class="fil0" d="M1802.95 995.23c19.02,0 34.44,-15.42 34.44,-34.43 0,-19.01 -15.42,-34.41 -34.44,-34.41 -18.99,0 -34.42,15.4 -34.42,34.41 0,19.02 15.43,34.43 34.42,34.43z"/>
   <path class="fil0" d="M1802.95 911c19.02,0 34.44,-15.42 34.44,-34.42 0,-19.01 -15.42,-34.42 -34.44,-34.42 -18.99,0 -34.42,15.42 -34.42,34.42 0,19.01 15.43,34.42 34.42,34.42z"/>
   <path class="fil0" d="M1802.95 574.14c19.02,0 34.44,-15.42 34.44,-34.42 0,-19.01 -15.42,-34.42 -34.44,-34.42 -18.99,0 -34.42,15.42 -34.42,34.42 0,19.01 15.43,34.42 34.42,34.42z"/>
   <path class="fil0" d="M1802.95 421.09c-18.99,0 -34.42,15.4 -34.42,34.4 0,19.02 15.43,34.43 34.42,34.43 19.02,0 34.44,-15.42 34.44,-34.43 0,-19.01 -15.42,-34.4 -34.44,-34.4z"/>
   <path class="fil0" d="M1718.74 1600.11c-19.01,0 -34.42,15.4 -34.42,34.4 0,19.02 15.42,34.44 34.42,34.44 19.02,0 34.42,-15.42 34.42,-34.44 0,-19.01 -15.4,-34.4 -34.42,-34.4z"/>
   <path class="fil0" d="M1718.74 1515.89c-19.01,0 -34.42,15.42 -34.42,34.42 0,19.02 15.42,34.42 34.42,34.42 19.02,0 34.42,-15.4 34.42,-34.42 0,-19.01 -15.4,-34.42 -34.42,-34.42z"/>
   <path class="fil0" d="M1718.74 1500.51c19.02,0 34.42,-15.42 34.42,-34.42 0,-19 -15.4,-34.42 -34.42,-34.42 -19.01,0 -34.42,15.42 -34.42,34.42 0,19.01 15.42,34.42 34.42,34.42z"/>
   <path class="fil0" d="M1718.74 1416.3c19.02,0 34.42,-15.42 34.42,-34.44 0,-19 -15.4,-34.4 -34.42,-34.4 -19.01,0 -34.42,15.4 -34.42,34.4 0,19.02 15.42,34.44 34.42,34.44z"/>
   <path class="fil0" d="M1718.74 995.23c19.02,0 34.42,-15.42 34.42,-34.43 0,-19.01 -15.4,-34.41 -34.42,-34.41 -19.01,0 -34.42,15.4 -34.42,34.41 0,19.02 15.42,34.43 34.42,34.43z"/>
   <path class="fil0" d="M1718.74 911c19.02,0 34.42,-15.42 34.42,-34.42 0,-19.01 -15.4,-34.42 -34.42,-34.42 -19.01,0 -34.42,15.42 -34.42,34.42 0,19.01 15.42,34.42 34.42,34.42z"/>
   <path class="fil0" d="M1718.74 826.79c19.02,0 34.42,-15.42 34.42,-34.42 0,-19.01 -15.4,-34.42 -34.42,-34.42 -19.01,0 -34.42,15.42 -34.42,34.42 0,19.01 15.42,34.42 34.42,34.42z"/>
   <path class="fil0" d="M1718.74 742.58c19.02,0 34.42,-15.42 34.42,-34.43 0,-19.01 -15.4,-34.41 -34.42,-34.41 -19.01,0 -34.42,15.4 -34.42,34.41 0,19.02 15.42,34.43 34.42,34.43z"/>
   <path class="fil0" d="M1718.74 658.35c19.02,0 34.42,-15.4 34.42,-34.42 0,-19 -15.4,-34.42 -34.42,-34.42 -19.01,0 -34.42,15.42 -34.42,34.42 0,19.02 15.42,34.42 34.42,34.42z"/>
   <path class="fil0" d="M1802.95 826.79c19.02,0 34.44,-15.42 34.44,-34.42 0,-19.01 -15.42,-34.42 -34.44,-34.42 -18.99,0 -34.42,15.42 -34.42,34.42 0,19.01 15.43,34.42 34.42,34.42z"/>
   <path class="fil0" d="M1802.95 658.35c19.02,0 34.44,-15.4 34.44,-34.42 0,-19 -15.42,-34.42 -34.44,-34.42 -18.99,0 -34.42,15.42 -34.42,34.42 0,19.02 15.43,34.42 34.42,34.42z"/>
   <path class="fil0" d="M1718.74 574.14c19.02,0 34.42,-15.42 34.42,-34.42 0,-19.01 -15.4,-34.42 -34.42,-34.42 -19.01,0 -34.42,15.42 -34.42,34.42 0,19.01 15.42,34.42 34.42,34.42z"/>
   <path class="fil0" d="M1718.74 489.93c19.02,0 34.42,-15.42 34.42,-34.43 0,-19.01 -15.4,-34.4 -34.42,-34.4 -19.01,0 -34.42,15.4 -34.42,34.4 0,19.02 15.42,34.43 34.42,34.43z"/>
   <path class="fil0" d="M1634.52 1684.32c-18.99,0 -34.4,15.42 -34.4,34.42 0,19.01 15.42,34.42 34.4,34.42 19.02,0 34.44,-15.42 34.44,-34.42 0,-19.01 -15.42,-34.42 -34.44,-34.42z"/>
   <path class="fil0" d="M1634.52 1768.54c-18.99,0 -34.4,15.42 -34.4,34.42 0,19.02 15.42,34.42 34.4,34.42 19.02,0 34.44,-15.4 34.44,-34.42 0,-19.01 -15.42,-34.42 -34.44,-34.42z"/>
   <path class="fil0" d="M1634.52 1668.95c19.02,0 34.44,-15.42 34.44,-34.44 0,-19.01 -15.42,-34.4 -34.44,-34.4 -18.99,0 -34.4,15.4 -34.4,34.4 0,19.02 15.42,34.44 34.4,34.44z"/>
   <path class="fil0" d="M1634.52 1515.89c-18.99,0 -34.4,15.42 -34.4,34.42 0,19.02 15.42,34.42 34.4,34.42 19.02,0 34.44,-15.4 34.44,-34.42 0,-19.01 -15.42,-34.42 -34.44,-34.42z"/>
   <path class="fil0" d="M1634.52 1431.67c-18.99,0 -34.4,15.42 -34.4,34.42 0,19.01 15.42,34.42 34.4,34.42 19.02,0 34.44,-15.42 34.44,-34.42 0,-19 -15.42,-34.42 -34.44,-34.42z"/>
   <path class="fil0" d="M1634.52 1416.3c19.02,0 34.44,-15.42 34.44,-34.44 0,-19 -15.42,-34.4 -34.44,-34.4 -18.99,0 -34.4,15.4 -34.4,34.4 0,19.02 15.42,34.44 34.4,34.44z"/>
   <path class="fil0" d="M1634.52 995.23c19.02,0 34.44,-15.42 34.44,-34.43 0,-19.01 -15.42,-34.41 -34.44,-34.41 -18.99,0 -34.4,15.4 -34.4,34.41 0,19.02 15.42,34.43 34.4,34.43z"/>
   <path class="fil0" d="M1634.52 911c19.02,0 34.44,-15.42 34.44,-34.42 0,-19.01 -15.42,-34.42 -34.44,-34.42 -18.99,0 -34.4,15.42 -34.4,34.42 0,19.01 15.42,34.42 34.4,34.42z"/>
   <path class="fil0" d="M1634.52 826.79c19.02,0 34.44,-15.42 34.44,-34.42 0,-19.01 -15.42,-34.42 -34.44,-34.42 -18.99,0 -34.4,15.42 -34.4,34.42 0,19.01 15.42,34.42 34.4,34.42z"/>
   <path class="fil0" d="M1634.52 742.58c19.02,0 34.44,-15.42 34.44,-34.43 0,-19.01 -15.42,-34.41 -34.44,-34.41 -18.99,0 -34.4,15.4 -34.4,34.41 0,19.02 15.42,34.43 34.4,34.43z"/>
   <path class="fil0" d="M1634.52 658.35c19.02,0 34.44,-15.4 34.44,-34.42 0,-19 -15.42,-34.42 -34.44,-34.42 -18.99,0 -34.4,15.42 -34.4,34.42 0,19.02 15.42,34.42 34.4,34.42z"/>
   <path class="fil0" d="M1634.52 574.14c19.02,0 34.44,-15.42 34.44,-34.42 0,-19.01 -15.42,-34.42 -34.44,-34.42 -18.99,0 -34.4,15.42 -34.4,34.42 0,19.01 15.42,34.42 34.4,34.42z"/>
   <path class="fil0" d="M1550.32 1684.32c-19.02,0 -34.42,15.42 -34.42,34.42 0,19.01 15.4,34.42 34.42,34.42 19.01,0 34.41,-15.42 34.41,-34.42 0,-19.01 -15.4,-34.42 -34.41,-34.42z"/>
   <path class="fil0" d="M1550.32 1600.11c-19.02,0 -34.42,15.4 -34.42,34.4 0,19.02 15.4,34.44 34.42,34.44 19.01,0 34.41,-15.42 34.41,-34.44 0,-19.01 -15.4,-34.4 -34.41,-34.4z"/>
   <path class="fil0" d="M1550.32 1584.73c19.01,0 34.41,-15.4 34.41,-34.42 0,-19.01 -15.4,-34.42 -34.41,-34.42 -19.02,0 -34.42,15.42 -34.42,34.42 0,19.02 15.4,34.42 34.42,34.42z"/>
   <path class="fil0" d="M1550.32 1431.67c-19.02,0 -34.42,15.42 -34.42,34.42 0,19.01 15.4,34.42 34.42,34.42 19.01,0 34.41,-15.42 34.41,-34.42 0,-19 -15.4,-34.42 -34.41,-34.42z"/>
   <path class="fil0" d="M1550.32 1347.46c-19.02,0 -34.42,15.4 -34.42,34.4 0,19.02 15.4,34.44 34.42,34.44 19.01,0 34.41,-15.42 34.41,-34.44 0,-19 -15.4,-34.4 -34.41,-34.4z"/>
   <path class="fil0" d="M1550.32 995.23c19.01,0 34.41,-15.42 34.41,-34.43 0,-19.01 -15.4,-34.41 -34.41,-34.41 -19.02,0 -34.42,15.4 -34.42,34.41 0,19.02 15.4,34.43 34.42,34.43z"/>
   <path class="fil0" d="M1550.32 911c19.01,0 34.41,-15.42 34.41,-34.42 0,-19.01 -15.4,-34.42 -34.41,-34.42 -19.02,0 -34.42,15.42 -34.42,34.42 0,19.01 15.4,34.42 34.42,34.42z"/>
   <path class="fil0" d="M1550.32 826.79c19.01,0 34.41,-15.42 34.41,-34.42 0,-19.01 -15.4,-34.42 -34.41,-34.42 -19.02,0 -34.42,15.42 -34.42,34.42 0,19.01 15.4,34.42 34.42,34.42z"/>
   <path class="fil0" d="M1550.32 742.58c19.01,0 34.41,-15.42 34.41,-34.43 0,-19.01 -15.4,-34.41 -34.41,-34.41 -19.02,0 -34.42,15.4 -34.42,34.41 0,19.02 15.4,34.43 34.42,34.43z"/>
   <path class="fil0" d="M1550.32 658.35c19.01,0 34.41,-15.4 34.41,-34.42 0,-19 -15.4,-34.42 -34.41,-34.42 -19.02,0 -34.42,15.42 -34.42,34.42 0,19.02 15.4,34.42 34.42,34.42z"/>
   <path class="fil0" d="M1550.32 574.14c19.01,0 34.41,-15.42 34.41,-34.42 0,-19.01 -15.4,-34.42 -34.41,-34.42 -19.02,0 -34.42,15.42 -34.42,34.42 0,19.01 15.4,34.42 34.42,34.42z"/>
   <path class="fil0" d="M1550.32 489.93c19.01,0 34.41,-15.42 34.41,-34.43 0,-19.01 -15.4,-34.4 -34.41,-34.4 -19.02,0 -34.42,15.4 -34.42,34.4 0,19.02 15.4,34.43 34.42,34.43z"/>
   <path class="fil0" d="M1466.09 1600.11c-19.01,0 -34.42,15.4 -34.42,34.4 0,19.02 15.42,34.44 34.42,34.44 19.01,0 34.44,-15.42 34.44,-34.44 0,-19.01 -15.43,-34.4 -34.44,-34.4z"/>
   <path class="fil0" d="M1466.09 1515.89c-19.01,0 -34.42,15.42 -34.42,34.42 0,19.02 15.42,34.42 34.42,34.42 19.01,0 34.44,-15.4 34.44,-34.42 0,-19.01 -15.43,-34.42 -34.44,-34.42z"/>
   <path class="fil0" d="M1466.09 1500.51c19.01,0 34.44,-15.42 34.44,-34.42 0,-19 -15.43,-34.42 -34.44,-34.42 -19.01,0 -34.42,15.42 -34.42,34.42 0,19.01 15.42,34.42 34.42,34.42z"/>
   <path class="fil0" d="M1466.09 1347.46c-19.01,0 -34.42,15.4 -34.42,34.4 0,19.02 15.42,34.44 34.42,34.44 19.01,0 34.44,-15.42 34.44,-34.44 0,-19 -15.43,-34.4 -34.44,-34.4z"/>
   <path class="fil0" d="M1466.09 1263.24c-19.01,0 -34.42,15.42 -34.42,34.42 0,19.02 15.42,34.42 34.42,34.42 19.01,0 34.44,-15.4 34.44,-34.42 0,-19.01 -15.43,-34.42 -34.44,-34.42z"/>
   <path class="fil0" d="M1466.09 1247.86c19.01,0 34.44,-15.42 34.44,-34.42 0,-19.01 -15.43,-34.42 -34.44,-34.42 -19.01,0 -34.42,15.42 -34.42,34.42 0,19 15.42,34.42 34.42,34.42z"/>
   <path class="fil0" d="M1466.09 1163.65c19.01,0 34.44,-15.42 34.44,-34.43 0,-19.01 -15.43,-34.41 -34.44,-34.41 -19.01,0 -34.42,15.4 -34.42,34.41 0,19.02 15.42,34.43 34.42,34.43z"/>
   <path class="fil0" d="M1466.09 1079.43c19.01,0 34.44,-15.4 34.44,-34.42 0,-19.01 -15.43,-34.4 -34.44,-34.4 -19.01,0 -34.42,15.4 -34.42,34.4 0,19.02 15.42,34.42 34.42,34.42z"/>
   <path class="fil0" d="M1466.09 995.23c19.01,0 34.44,-15.42 34.44,-34.43 0,-19.01 -15.43,-34.41 -34.44,-34.41 -19.01,0 -34.42,15.4 -34.42,34.41 0,19.02 15.42,34.43 34.42,34.43z"/>
   <path class="fil0" d="M1466.09 911c19.01,0 34.44,-15.42 34.44,-34.42 0,-19.01 -15.43,-34.42 -34.44,-34.42 -19.01,0 -34.42,15.42 -34.42,34.42 0,19.01 15.42,34.42 34.42,34.42z"/>
   <path class="fil0" d="M1466.09 826.79c19.01,0 34.44,-15.42 34.44,-34.42 0,-19.01 -15.43,-34.42 -34.44,-34.42 -19.01,0 -34.42,15.42 -34.42,34.42 0,19.01 15.42,34.42 34.42,34.42z"/>
   <path class="fil0" d="M1466.09 742.58c19.01,0 34.44,-15.42 34.44,-34.43 0,-19.01 -15.43,-34.41 -34.44,-34.41 -19.01,0 -34.42,15.4 -34.42,34.41 0,19.02 15.42,34.43 34.42,34.43z"/>
   <path class="fil0" d="M1466.09 658.35c19.01,0 34.44,-15.4 34.44,-34.42 0,-19 -15.43,-34.42 -34.44,-34.42 -19.01,0 -34.42,15.42 -34.42,34.42 0,19.02 15.42,34.42 34.42,34.42z"/>
   <path class="fil0" d="M1466.09 574.14c19.01,0 34.44,-15.42 34.44,-34.42 0,-19.01 -15.43,-34.42 -34.44,-34.42 -19.01,0 -34.42,15.42 -34.42,34.42 0,19.01 15.42,34.42 34.42,34.42z"/>
   <path class="fil0" d="M1466.09 489.93c19.01,0 34.44,-15.42 34.44,-34.43 0,-19.01 -15.43,-34.4 -34.44,-34.4 -19.01,0 -34.42,15.4 -34.42,34.4 0,19.02 15.42,34.43 34.42,34.43z"/>
   <path class="fil0" d="M1381.88 1684.32c-19.02,0 -34.42,15.42 -34.42,34.42 0,19.01 15.4,34.42 34.42,34.42 19.01,0 34.42,-15.42 34.42,-34.42 0,-19.01 -15.42,-34.42 -34.42,-34.42z"/>
   <path class="fil0" d="M1381.88 1600.11c-19.02,0 -34.42,15.4 -34.42,34.4 0,19.02 15.4,34.44 34.42,34.44 19.01,0 34.42,-15.42 34.42,-34.44 0,-19.01 -15.42,-34.4 -34.42,-34.4z"/>
   <path class="fil0" d="M1381.88 1515.89c-19.02,0 -34.42,15.42 -34.42,34.42 0,19.02 15.4,34.42 34.42,34.42 19.01,0 34.42,-15.4 34.42,-34.42 0,-19.01 -15.42,-34.42 -34.42,-34.42z"/>
   <path class="fil0" d="M1381.88 1431.67c-19.02,0 -34.42,15.42 -34.42,34.42 0,19.01 15.4,34.42 34.42,34.42 19.01,0 34.42,-15.42 34.42,-34.42 0,-19 -15.42,-34.42 -34.42,-34.42z"/>
   <path class="fil0" d="M1381.88 1416.3c19.01,0 34.42,-15.42 34.42,-34.44 0,-19 -15.42,-34.4 -34.42,-34.4 -19.02,0 -34.42,15.4 -34.42,34.4 0,19.02 15.4,34.44 34.42,34.44z"/>
   <path class="fil0" d="M1381.88 1263.24c-19.02,0 -34.42,15.42 -34.42,34.42 0,19.02 15.4,34.42 34.42,34.42 19.01,0 34.42,-15.4 34.42,-34.42 0,-19.01 -15.42,-34.42 -34.42,-34.42z"/>
   <path class="fil0" d="M1381.88 1179.03c-19.02,0 -34.42,15.42 -34.42,34.42 0,19 15.4,34.42 34.42,34.42 19.01,0 34.42,-15.42 34.42,-34.42 0,-19.01 -15.42,-34.42 -34.42,-34.42z"/>
   <path class="fil0" d="M1381.88 1163.65c19.01,0 34.42,-15.42 34.42,-34.43 0,-19.01 -15.42,-34.41 -34.42,-34.41 -19.02,0 -34.42,15.4 -34.42,34.41 0,19.02 15.4,34.43 34.42,34.43z"/>
   <path class="fil0" d="M1381.88 1079.43c19.01,0 34.42,-15.4 34.42,-34.42 0,-19.01 -15.42,-34.4 -34.42,-34.4 -19.02,0 -34.42,15.4 -34.42,34.4 0,19.02 15.4,34.42 34.42,34.42z"/>
   <path class="fil0" d="M1381.88 995.23c19.01,0 34.42,-15.42 34.42,-34.43 0,-19.01 -15.42,-34.41 -34.42,-34.41 -19.02,0 -34.42,15.4 -34.42,34.41 0,19.02 15.4,34.43 34.42,34.43z"/>
   <path class="fil0" d="M1381.88 911c19.01,0 34.42,-15.42 34.42,-34.42 0,-19.01 -15.42,-34.42 -34.42,-34.42 -19.02,0 -34.42,15.42 -34.42,34.42 0,19.01 15.4,34.42 34.42,34.42z"/>
   <path class="fil0" d="M1381.88 826.79c19.01,0 34.42,-15.42 34.42,-34.42 0,-19.01 -15.42,-34.42 -34.42,-34.42 -19.02,0 -34.42,15.42 -34.42,34.42 0,19.01 15.4,34.42 34.42,34.42z"/>
   <path class="fil0" d="M1381.88 742.58c19.01,0 34.42,-15.42 34.42,-34.43 0,-19.01 -15.42,-34.41 -34.42,-34.41 -19.02,0 -34.42,15.4 -34.42,34.41 0,19.02 15.4,34.43 34.42,34.43z"/>
   <path class="fil0" d="M1381.88 658.35c19.01,0 34.42,-15.4 34.42,-34.42 0,-19 -15.42,-34.42 -34.42,-34.42 -19.02,0 -34.42,15.42 -34.42,34.42 0,19.02 15.4,34.42 34.42,34.42z"/>
   <path class="fil0" d="M1381.88 574.14c19.01,0 34.42,-15.42 34.42,-34.42 0,-19.01 -15.42,-34.42 -34.42,-34.42 -19.02,0 -34.42,15.42 -34.42,34.42 0,19.01 15.4,34.42 34.42,34.42z"/>
   <path class="fil0" d="M1381.88 489.93c19.01,0 34.42,-15.42 34.42,-34.43 0,-19.01 -15.42,-34.4 -34.42,-34.4 -19.02,0 -34.42,15.4 -34.42,34.4 0,19.02 15.4,34.43 34.42,34.43z"/>
   <path class="fil0" d="M1297.66 2273.84c-18.99,0 -34.42,15.42 -34.42,34.42 0,19.02 15.43,34.42 34.42,34.42 19.02,0 34.43,-15.4 34.43,-34.42 0,-3.23 -0.6,-6.29 -1.43,-9.27 -0.87,-1.91 -1.68,-3.81 -2.2,-5.84 -5.62,-11.38 -17.24,-19.31 -30.8,-19.31z"/>
   <path class="fil0" d="M1381.88 2273.84c-19.02,0 -34.42,15.42 -34.42,34.42 0,19.02 15.4,34.42 34.42,34.42 19.01,0 34.42,-15.4 34.42,-34.42 0,-3.23 -0.58,-6.29 -1.42,-9.27 -0.9,-1.91 -1.69,-3.81 -2.22,-5.84 -5.61,-11.38 -17.24,-19.31 -30.78,-19.31z"/>
   <path class="fil0" d="M1466.09 2273.84c-19.01,0 -34.42,15.42 -34.42,34.42 0,19.02 15.42,34.42 34.42,34.42 19.01,0 34.44,-15.4 34.44,-34.42 0,-3.23 -0.61,-6.29 -1.44,-9.27 -0.88,-1.91 -1.67,-3.81 -2.21,-5.84 -5.62,-11.38 -17.23,-19.31 -30.79,-19.31z"/>
   <path class="fil0" d="M1381.88 2358.06c-19.02,0 -34.42,15.4 -34.42,34.41 0,19.02 15.4,34.43 34.42,34.43 19.01,0 34.42,-15.42 34.42,-34.43 0,-3.23 -0.58,-6.29 -1.42,-9.26 -0.9,-1.91 -1.69,-3.83 -2.22,-5.84 -5.61,-11.39 -17.24,-19.31 -30.78,-19.31z"/>
   <path class="fil0" d="M1466.09 2358.06c-19.01,0 -34.42,15.4 -34.42,34.41 0,19.02 15.42,34.43 34.42,34.43 19.01,0 34.44,-15.42 34.44,-34.43 0,-3.23 -0.61,-6.29 -1.44,-9.26 -0.88,-1.91 -1.67,-3.83 -2.21,-5.84 -5.62,-11.39 -17.23,-19.31 -30.79,-19.31z"/>
   <path class="fil0" d="M1466.09 2442.27c-19.01,0 -34.42,15.42 -34.42,34.42 0,19.01 15.42,34.42 34.42,34.42 19.01,0 34.44,-15.42 34.44,-34.42 0,-3.25 -0.61,-6.31 -1.44,-9.27 -0.88,-1.92 -1.67,-3.81 -2.21,-5.85 -5.62,-11.39 -17.23,-19.3 -30.79,-19.3z"/>
   <path class="fil0" d="M1466.09 2526.48c-19.01,0 -34.42,15.42 -34.42,34.42 0,19.01 15.42,34.42 34.42,34.42 19.01,0 34.44,-15.42 34.44,-34.42 0,-3.24 -0.61,-6.31 -1.44,-9.27 -0.88,-1.91 -1.67,-3.81 -2.21,-5.84 -5.62,-11.38 -17.23,-19.31 -30.79,-19.31z"/>
   <path class="fil0" d="M1554.1 2526.48c-19.01,0 -34.42,15.42 -34.42,34.42 0,19.01 15.42,34.42 34.42,34.42 19,0 34.42,-15.42 34.42,-34.42 0,-3.24 -0.6,-6.31 -1.42,-9.27 -0.88,-1.91 -1.69,-3.81 -2.21,-5.84 -5.62,-11.38 -17.23,-19.31 -30.78,-19.31z"/>
   <path class="fil0" d="M1297.66 2258.47c19.02,0 34.43,-15.42 34.43,-34.42 0,-19.01 -15.42,-34.42 -34.43,-34.42 -18.99,0 -34.42,15.42 -34.42,34.42 0,19.01 15.43,34.42 34.42,34.42z"/>
   <path class="fil0" d="M1381.88 2174.25c19.01,0 34.42,-15.42 34.42,-34.43 0,-19.01 -15.42,-34.4 -34.42,-34.4 -19.02,0 -34.42,15.4 -34.42,34.4 0,19.02 15.4,34.43 34.42,34.43z"/>
   <path class="fil0" d="M1887.18 2174.25c19.01,0 34.42,-15.42 34.42,-34.43 0,-19.01 -15.42,-34.4 -34.42,-34.4 -19.02,0 -34.42,15.4 -34.42,34.4 0,19.02 15.4,34.43 34.42,34.43z"/>
   <path class="fil0" d="M1971.4 2174.25c19.01,0 34.42,-15.42 34.42,-34.43 0,-19.01 -15.42,-34.4 -34.42,-34.4 -19.01,0 -34.42,15.4 -34.42,34.4 0,19.02 15.42,34.43 34.42,34.43z"/>
   <path class="fil0" d="M1802.95 2090.03c19.02,0 34.44,-15.4 34.44,-34.42 0,-19.01 -15.42,-34.42 -34.44,-34.42 -18.99,0 -34.42,15.42 -34.42,34.42 0,19.02 15.43,34.42 34.42,34.42z"/>
   <path class="fil0" d="M1297.66 1753.16c19.02,0 34.43,-15.42 34.43,-34.42 0,-19.01 -15.42,-34.42 -34.43,-34.42 -18.99,0 -34.42,15.42 -34.42,34.42 0,19.01 15.43,34.42 34.42,34.42z"/>
   <path class="fil0" d="M1297.66 1600.11c-18.99,0 -34.42,15.4 -34.42,34.4 0,19.02 15.43,34.44 34.42,34.44 19.02,0 34.43,-15.42 34.43,-34.44 0,-19.01 -15.42,-34.4 -34.43,-34.4z"/>
   <path class="fil0" d="M1297.66 1515.89c-18.99,0 -34.42,15.42 -34.42,34.42 0,19.02 15.43,34.42 34.42,34.42 19.02,0 34.43,-15.4 34.43,-34.42 0,-19.01 -15.42,-34.42 -34.43,-34.42z"/>
   <path class="fil0" d="M1297.66 1431.67c-18.99,0 -34.42,15.42 -34.42,34.42 0,19.01 15.43,34.42 34.42,34.42 19.02,0 34.43,-15.42 34.43,-34.42 0,-19 -15.42,-34.42 -34.43,-34.42z"/>
   <path class="fil0" d="M1297.66 1347.46c-18.99,0 -34.42,15.4 -34.42,34.4 0,19.02 15.43,34.44 34.42,34.44 19.02,0 34.43,-15.42 34.43,-34.44 0,-19 -15.42,-34.4 -34.43,-34.4z"/>
   <path class="fil0" d="M1297.66 1332.08c19.02,0 34.43,-15.4 34.43,-34.42 0,-19.01 -15.42,-34.42 -34.43,-34.42 -18.99,0 -34.42,15.42 -34.42,34.42 0,19.02 15.43,34.42 34.42,34.42z"/>
   <path class="fil0" d="M1297.66 1179.03c-18.99,0 -34.42,15.42 -34.42,34.42 0,19 15.43,34.42 34.42,34.42 19.02,0 34.43,-15.42 34.43,-34.42 0,-19.01 -15.42,-34.42 -34.43,-34.42z"/>
   <path class="fil0" d="M1297.66 1163.65c19.02,0 34.43,-15.42 34.43,-34.43 0,-19.01 -15.42,-34.41 -34.43,-34.41 -18.99,0 -34.42,15.4 -34.42,34.41 0,19.02 15.43,34.43 34.42,34.43z"/>
   <path class="fil0" d="M1297.66 1079.43c19.02,0 34.43,-15.4 34.43,-34.42 0,-19.01 -15.42,-34.4 -34.43,-34.4 -18.99,0 -34.42,15.4 -34.42,34.4 0,19.02 15.43,34.42 34.42,34.42z"/>
   <path class="fil0" d="M1297.66 995.23c19.02,0 34.43,-15.42 34.43,-34.43 0,-19.01 -15.42,-34.41 -34.43,-34.41 -18.99,0 -34.42,15.4 -34.42,34.41 0,19.02 15.43,34.43 34.42,34.43z"/>
   <path class="fil0" d="M1297.66 911c19.02,0 34.43,-15.42 34.43,-34.42 0,-19.01 -15.42,-34.42 -34.43,-34.42 -18.99,0 -34.42,15.42 -34.42,34.42 0,19.01 15.43,34.42 34.42,34.42z"/>
   <path class="fil0" d="M1297.66 826.79c19.02,0 34.43,-15.42 34.43,-34.42 0,-19.01 -15.42,-34.42 -34.43,-34.42 -18.99,0 -34.42,15.42 -34.42,34.42 0,19.01 15.43,34.42 34.42,34.42z"/>
   <path class="fil0" d="M1297.66 742.58c19.02,0 34.43,-15.42 34.43,-34.43 0,-19.01 -15.42,-34.41 -34.43,-34.41 -18.99,0 -34.42,15.4 -34.42,34.41 0,19.02 15.43,34.43 34.42,34.43z"/>
   <path class="fil0" d="M1297.66 658.35c19.02,0 34.43,-15.4 34.43,-34.42 0,-19 -15.42,-34.42 -34.43,-34.42 -18.99,0 -34.42,15.42 -34.42,34.42 0,19.02 15.43,34.42 34.42,34.42z"/>
   <path class="fil0" d="M1297.66 574.14c19.02,0 34.43,-15.42 34.43,-34.42 0,-19.01 -15.42,-34.42 -34.43,-34.42 -18.99,0 -34.42,15.42 -34.42,34.42 0,19.01 15.43,34.42 34.42,34.42z"/>
   <path class="fil0" d="M1297.66 489.93c19.02,0 34.43,-15.42 34.43,-34.43 0,-19.01 -15.42,-34.4 -34.43,-34.4 -18.99,0 -34.42,15.4 -34.42,34.4 0,19.02 15.43,34.43 34.42,34.43z"/>
   <path class="fil0" d="M1213.44 1684.32c-19.01,0 -34.4,15.42 -34.4,34.42 0,19.01 15.4,34.42 34.4,34.42 19.02,0 34.42,-15.42 34.42,-34.42 0,-19.01 -15.4,-34.42 -34.42,-34.42z"/>
   <path class="fil0" d="M1213.44 1668.95c19.02,0 34.42,-15.42 34.42,-34.44 0,-19.01 -15.4,-34.4 -34.42,-34.4 -19.01,0 -34.4,15.4 -34.4,34.4 0,19.02 15.4,34.44 34.4,34.44z"/>
   <path class="fil0" d="M1213.44 1515.89c-19.01,0 -34.4,15.42 -34.4,34.42 0,19.02 15.4,34.42 34.4,34.42 19.02,0 34.42,-15.4 34.42,-34.42 0,-19.01 -15.4,-34.42 -34.42,-34.42z"/>
   <path class="fil0" d="M1213.44 1431.67c-19.01,0 -34.4,15.42 -34.4,34.42 0,19.01 15.4,34.42 34.4,34.42 19.02,0 34.42,-15.42 34.42,-34.42 0,-19 -15.4,-34.42 -34.42,-34.42z"/>
   <path class="fil0" d="M1213.44 1347.46c-19.01,0 -34.4,15.4 -34.4,34.4 0,19.02 15.4,34.44 34.4,34.44 19.02,0 34.42,-15.42 34.42,-34.44 0,-19 -15.4,-34.4 -34.42,-34.4z"/>
   <path class="fil0" d="M1213.44 1263.24c-19.01,0 -34.4,15.42 -34.4,34.42 0,19.02 15.4,34.42 34.4,34.42 19.02,0 34.42,-15.4 34.42,-34.42 0,-19.01 -15.4,-34.42 -34.42,-34.42z"/>
   <path class="fil0" d="M1213.44 1179.03c-19.01,0 -34.4,15.42 -34.4,34.42 0,19 15.4,34.42 34.4,34.42 19.02,0 34.42,-15.42 34.42,-34.42 0,-19.01 -15.4,-34.42 -34.42,-34.42z"/>
   <path class="fil0" d="M1213.44 1094.81c-19.01,0 -34.4,15.4 -34.4,34.41 0,19.02 15.4,34.43 34.4,34.43 19.02,0 34.42,-15.42 34.42,-34.43 0,-19.01 -15.4,-34.41 -34.42,-34.41z"/>
   <path class="fil0" d="M1213.44 1010.6c-19.01,0 -34.4,15.4 -34.4,34.4 0,19.02 15.4,34.42 34.4,34.42 19.02,0 34.42,-15.4 34.42,-34.42 0,-19.01 -15.4,-34.4 -34.42,-34.4z"/>
   <path class="fil0" d="M1213.44 926.39c-19.01,0 -34.4,15.4 -34.4,34.41 0,19.02 15.4,34.43 34.4,34.43 19.02,0 34.42,-15.42 34.42,-34.43 0,-19.01 -15.4,-34.41 -34.42,-34.41z"/>
   <path class="fil0" d="M1213.44 911c19.02,0 34.42,-15.42 34.42,-34.42 0,-19.01 -15.4,-34.42 -34.42,-34.42 -19.01,0 -34.4,15.42 -34.4,34.42 0,19.01 15.4,34.42 34.4,34.42z"/>
   <path class="fil0" d="M1213.44 826.79c19.02,0 34.42,-15.42 34.42,-34.42 0,-19.01 -15.4,-34.42 -34.42,-34.42 -19.01,0 -34.4,15.42 -34.4,34.42 0,19.01 15.4,34.42 34.4,34.42z"/>
   <path class="fil0" d="M1213.44 742.58c19.02,0 34.42,-15.42 34.42,-34.43 0,-19.01 -15.4,-34.41 -34.42,-34.41 -19.01,0 -34.4,15.4 -34.4,34.41 0,19.02 15.4,34.43 34.4,34.43z"/>
   <path class="fil0" d="M1213.44 658.35c19.02,0 34.42,-15.4 34.42,-34.42 0,-19 -15.4,-34.42 -34.42,-34.42 -19.01,0 -34.4,15.42 -34.4,34.42 0,19.02 15.4,34.42 34.4,34.42z"/>
   <path class="fil0" d="M1213.44 574.14c19.02,0 34.42,-15.42 34.42,-34.42 0,-19.01 -15.4,-34.42 -34.42,-34.42 -19.01,0 -34.4,15.42 -34.4,34.42 0,19.01 15.4,34.42 34.4,34.42z"/>
   <path class="fil0" d="M1213.44 489.93c19.02,0 34.42,-15.42 34.42,-34.43 0,-19.01 -15.4,-34.4 -34.42,-34.4 -19.01,0 -34.4,15.4 -34.4,34.4 0,19.02 15.4,34.43 34.4,34.43z"/>
   <path class="fil0" d="M1129.21 1684.32c-18.99,0 -34.4,15.42 -34.4,34.42 0,19.01 15.42,34.42 34.4,34.42 19.02,0 34.44,-15.42 34.44,-34.42 0,-19.01 -15.42,-34.42 -34.44,-34.42z"/>
   <path class="fil0" d="M1129.21 1600.11c-18.99,0 -34.4,15.4 -34.4,34.4 0,19.02 15.42,34.44 34.4,34.44 19.02,0 34.44,-15.42 34.44,-34.44 0,-19.01 -15.42,-34.4 -34.44,-34.4z"/>
   <path class="fil0" d="M1129.21 1584.73c19.02,0 34.44,-15.4 34.44,-34.42 0,-19.01 -15.42,-34.42 -34.44,-34.42 -18.99,0 -34.4,15.42 -34.4,34.42 0,19.02 15.42,34.42 34.4,34.42z"/>
   <path class="fil0" d="M1129.21 1431.67c-18.99,0 -34.4,15.42 -34.4,34.42 0,19.01 15.42,34.42 34.4,34.42 19.02,0 34.44,-15.42 34.44,-34.42 0,-19 -15.42,-34.42 -34.44,-34.42z"/>
   <path class="fil0" d="M1129.21 1347.46c-18.99,0 -34.4,15.4 -34.4,34.4 0,19.02 15.42,34.44 34.4,34.44 19.02,0 34.44,-15.42 34.44,-34.44 0,-19 -15.42,-34.4 -34.44,-34.4z"/>
   <path class="fil0" d="M1129.21 1263.24c-18.99,0 -34.4,15.42 -34.4,34.42 0,19.02 15.42,34.42 34.4,34.42 19.02,0 34.44,-15.4 34.44,-34.42 0,-19.01 -15.42,-34.42 -34.44,-34.42z"/>
   <path class="fil0" d="M1129.21 1179.03c-18.99,0 -34.4,15.42 -34.4,34.42 0,19 15.42,34.42 34.4,34.42 19.02,0 34.44,-15.42 34.44,-34.42 0,-19.01 -15.42,-34.42 -34.44,-34.42z"/>
   <path class="fil0" d="M1129.21 1094.81c-18.99,0 -34.4,15.4 -34.4,34.41 0,19.02 15.42,34.43 34.4,34.43 19.02,0 34.44,-15.42 34.44,-34.43 0,-19.01 -15.42,-34.41 -34.44,-34.41z"/>
   <path class="fil0" d="M1129.21 1010.6c-18.99,0 -34.4,15.4 -34.4,34.4 0,19.02 15.42,34.42 34.4,34.42 19.02,0 34.44,-15.4 34.44,-34.42 0,-19.01 -15.42,-34.4 -34.44,-34.4z"/>
   <path class="fil0" d="M1129.21 926.39c-18.99,0 -34.4,15.4 -34.4,34.41 0,19.02 15.42,34.43 34.4,34.43 19.02,0 34.44,-15.42 34.44,-34.43 0,-19.01 -15.42,-34.41 -34.44,-34.41z"/>
   <path class="fil0" d="M1129.21 842.16c-18.99,0 -34.4,15.42 -34.4,34.42 0,19.01 15.42,34.42 34.4,34.42 19.02,0 34.44,-15.42 34.44,-34.42 0,-19.01 -15.42,-34.42 -34.44,-34.42z"/>
   <path class="fil0" d="M1129.21 757.95c-18.99,0 -34.4,15.42 -34.4,34.42 0,19.01 15.42,34.42 34.4,34.42 19.02,0 34.44,-15.42 34.44,-34.42 0,-19.01 -15.42,-34.42 -34.44,-34.42z"/>
   <path class="fil0" d="M1129.21 742.58c19.02,0 34.44,-15.42 34.44,-34.43 0,-19.01 -15.42,-34.41 -34.44,-34.41 -18.99,0 -34.4,15.4 -34.4,34.41 0,19.02 15.42,34.43 34.4,34.43z"/>
   <path class="fil0" d="M1129.21 658.35c19.02,0 34.44,-15.4 34.44,-34.42 0,-19 -15.42,-34.42 -34.44,-34.42 -18.99,0 -34.4,15.42 -34.4,34.42 0,19.02 15.42,34.42 34.4,34.42z"/>
   <path class="fil0" d="M1129.21 574.14c19.02,0 34.44,-15.42 34.44,-34.42 0,-19.01 -15.42,-34.42 -34.44,-34.42 -18.99,0 -34.4,15.42 -34.4,34.42 0,19.01 15.42,34.42 34.4,34.42z"/>
   <path class="fil0" d="M1129.21 489.93c19.02,0 34.44,-15.42 34.44,-34.43 0,-19.01 -15.42,-34.4 -34.44,-34.4 -18.99,0 -34.4,15.4 -34.4,34.4 0,19.02 15.42,34.43 34.4,34.43z"/>
   <path class="fil0" d="M1045.02 2189.63c-19.02,0 -34.42,15.42 -34.42,34.42 0,19.01 15.4,34.42 34.42,34.42 19.01,0 34.41,-15.42 34.41,-34.42 0,-19.01 -15.4,-34.42 -34.41,-34.42z"/>
   <path class="fil0" d="M1129.21 2189.63c-18.99,0 -34.4,15.42 -34.4,34.42 0,19.01 15.42,34.42 34.4,34.42 19.02,0 34.44,-15.42 34.44,-34.42 0,-19.01 -15.42,-34.42 -34.44,-34.42z"/>
   <path class="fil0" d="M1213.44 2189.63c-19.01,0 -34.4,15.42 -34.4,34.42 0,19.01 15.4,34.42 34.4,34.42 19.02,0 34.42,-15.42 34.42,-34.42 0,-19.01 -15.4,-34.42 -34.42,-34.42z"/>
   <path class="fil0" d="M1213.44 2273.84c-19.01,0 -34.4,15.42 -34.4,34.42 0,19.02 15.4,34.42 34.4,34.42 19.02,0 34.42,-15.4 34.42,-34.42 0,-19 -15.4,-34.42 -34.42,-34.42z"/>
   <path class="fil0" d="M1045.02 1852.76c-19.02,0 -34.42,15.4 -34.42,34.4 0,19.02 15.4,34.44 34.42,34.44 19.01,0 34.41,-15.42 34.41,-34.44 0,-19.01 -15.4,-34.4 -34.41,-34.4z"/>
   <path class="fil0" d="M1045.02 1837.38c19.01,0 34.41,-15.4 34.41,-34.42 0,-19.01 -15.4,-34.42 -34.41,-34.42 -19.02,0 -34.42,15.42 -34.42,34.42 0,19.02 15.4,34.42 34.42,34.42z"/>
   <path class="fil0" d="M1129.21 1837.38c19.02,0 34.44,-15.4 34.44,-34.42 0,-19.01 -15.42,-34.42 -34.44,-34.42 -18.99,0 -34.4,15.42 -34.4,34.42 0,19.02 15.42,34.42 34.4,34.42z"/>
   <path class="fil0" d="M1045.02 1684.32c-19.02,0 -34.42,15.42 -34.42,34.42 0,19.01 15.4,34.42 34.42,34.42 19.01,0 34.41,-15.42 34.41,-34.42 0,-19.01 -15.4,-34.42 -34.41,-34.42z"/>
   <path class="fil0" d="M1045.02 1600.11c-19.02,0 -34.42,15.4 -34.42,34.4 0,19.02 15.4,34.44 34.42,34.44 19.01,0 34.41,-15.42 34.41,-34.44 0,-19.01 -15.4,-34.4 -34.41,-34.4z"/>
   <path class="fil0" d="M1045.02 1515.89c-19.02,0 -34.42,15.42 -34.42,34.42 0,19.02 15.4,34.42 34.42,34.42 19.01,0 34.41,-15.4 34.41,-34.42 0,-19.01 -15.4,-34.42 -34.41,-34.42z"/>
   <path class="fil0" d="M1045.02 1500.51c19.01,0 34.41,-15.42 34.41,-34.42 0,-19 -15.4,-34.42 -34.41,-34.42 -19.02,0 -34.42,15.42 -34.42,34.42 0,19.01 15.4,34.42 34.42,34.42z"/>
   <path class="fil0" d="M1045.02 1347.46c-19.02,0 -34.42,15.4 -34.42,34.4 0,19.02 15.4,34.44 34.42,34.44 19.01,0 34.41,-15.42 34.41,-34.44 0,-19 -15.4,-34.4 -34.41,-34.4z"/>
   <path class="fil0" d="M1045.02 1263.24c-19.02,0 -34.42,15.42 -34.42,34.42 0,19.02 15.4,34.42 34.42,34.42 19.01,0 34.41,-15.4 34.41,-34.42 0,-19.01 -15.4,-34.42 -34.41,-34.42z"/>
   <path class="fil0" d="M1045.02 1179.03c-19.02,0 -34.42,15.42 -34.42,34.42 0,19 15.4,34.42 34.42,34.42 19.01,0 34.41,-15.42 34.41,-34.42 0,-19.01 -15.4,-34.42 -34.41,-34.42z"/>
   <path class="fil0" d="M1045.02 1094.81c-19.02,0 -34.42,15.4 -34.42,34.41 0,19.02 15.4,34.43 34.42,34.43 19.01,0 34.41,-15.42 34.41,-34.43 0,-19.01 -15.4,-34.41 -34.41,-34.41z"/>
   <path class="fil0" d="M1045.02 1010.6c-19.02,0 -34.42,15.4 -34.42,34.4 0,19.02 15.4,34.42 34.42,34.42 19.01,0 34.41,-15.4 34.41,-34.42 0,-19.01 -15.4,-34.4 -34.41,-34.4z"/>
   <path class="fil0" d="M1045.02 926.39c-19.02,0 -34.42,15.4 -34.42,34.41 0,19.02 15.4,34.43 34.42,34.43 19.01,0 34.41,-15.42 34.41,-34.43 0,-19.01 -15.4,-34.41 -34.41,-34.41z"/>
   <path class="fil0" d="M1045.02 842.16c-19.02,0 -34.42,15.42 -34.42,34.42 0,19.01 15.4,34.42 34.42,34.42 19.01,0 34.41,-15.42 34.41,-34.42 0,-19.01 -15.4,-34.42 -34.41,-34.42z"/>
   <path class="fil0" d="M1045.02 757.95c-19.02,0 -34.42,15.42 -34.42,34.42 0,19.01 15.4,34.42 34.42,34.42 19.01,0 34.41,-15.42 34.41,-34.42 0,-19.01 -15.4,-34.42 -34.41,-34.42z"/>
   <path class="fil0" d="M1045.02 742.58c19.01,0 34.41,-15.42 34.41,-34.43 0,-19.01 -15.4,-34.41 -34.41,-34.41 -19.02,0 -34.42,15.4 -34.42,34.41 0,19.02 15.4,34.43 34.42,34.43z"/>
   <path class="fil0" d="M1045.02 658.35c19.01,0 34.41,-15.4 34.41,-34.42 0,-19 -15.4,-34.42 -34.41,-34.42 -19.02,0 -34.42,15.42 -34.42,34.42 0,19.02 15.4,34.42 34.42,34.42z"/>
   <path class="fil0" d="M1045.02 574.14c19.01,0 34.41,-15.42 34.41,-34.42 0,-19.01 -15.4,-34.42 -34.41,-34.42 -19.02,0 -34.42,15.42 -34.42,34.42 0,19.01 15.4,34.42 34.42,34.42z"/>
   <path class="fil0" d="M1045.02 489.93c19.01,0 34.41,-15.42 34.41,-34.43 0,-19.01 -15.4,-34.4 -34.41,-34.4 -19.02,0 -34.42,15.4 -34.42,34.4 0,19.02 15.4,34.43 34.42,34.43z"/>
   <path class="fil0" d="M960.79 2189.63c-19,0 -34.42,15.42 -34.42,34.42 0,19.01 15.42,34.42 34.42,34.42 19.01,0 34.44,-15.42 34.44,-34.42 0,-19.01 -15.43,-34.42 -34.44,-34.42z"/>
   <path class="fil0" d="M960.79 2105.42c-19,0 -34.42,15.4 -34.42,34.4 0,19.02 15.42,34.43 34.42,34.43 19.01,0 34.44,-15.42 34.44,-34.43 0,-19.01 -15.43,-34.4 -34.44,-34.4z"/>
   <path class="fil0" d="M960.79 2090.03c19.01,0 34.44,-15.4 34.44,-34.42 0,-19.01 -15.43,-34.42 -34.44,-34.42 -19,0 -34.42,15.42 -34.42,34.42 0,19.02 15.42,34.42 34.42,34.42z"/>
   <path class="fil0" d="M960.79 2005.82c19.01,0 34.44,-15.42 34.44,-34.42 0,-19.01 -15.43,-34.42 -34.44,-34.42 -19,0 -34.42,15.42 -34.42,34.42 0,19.01 15.42,34.42 34.42,34.42z"/>
   <path class="fil0" d="M1045.02 2105.42c-19.02,0 -34.42,15.4 -34.42,34.4 0,19.02 15.4,34.43 34.42,34.43 19.01,0 34.41,-15.42 34.41,-34.43 0,-19.01 -15.4,-34.4 -34.41,-34.4z"/>
   <path class="fil0" d="M1045.02 2090.03c19.01,0 34.41,-15.4 34.41,-34.42 0,-19.01 -15.4,-34.42 -34.41,-34.42 -19.02,0 -34.42,15.42 -34.42,34.42 0,19.02 15.4,34.42 34.42,34.42z"/>
   <path class="fil0" d="M1045.02 2005.82c19.01,0 34.41,-15.42 34.41,-34.42 0,-19.01 -15.4,-34.42 -34.41,-34.42 -19.02,0 -34.42,15.42 -34.42,34.42 0,19.01 15.4,34.42 34.42,34.42z"/>
   <path class="fil0" d="M960.79 1921.61c19.01,0 34.44,-15.42 34.44,-34.44 0,-19.01 -15.43,-34.4 -34.44,-34.4 -19,0 -34.42,15.4 -34.42,34.4 0,19.02 15.42,34.44 34.42,34.44z"/>
   <path class="fil0" d="M960.79 1768.54c-19,0 -34.42,15.42 -34.42,34.42 0,19.02 15.42,34.42 34.42,34.42 19.01,0 34.44,-15.4 34.44,-34.42 0,-19.01 -15.43,-34.42 -34.44,-34.42z"/>
   <path class="fil0" d="M960.79 1753.16c19.01,0 34.44,-15.42 34.44,-34.42 0,-19.01 -15.43,-34.42 -34.44,-34.42 -19,0 -34.42,15.42 -34.42,34.42 0,19.01 15.42,34.42 34.42,34.42z"/>
   <path class="fil0" d="M960.79 1600.11c-19,0 -34.42,15.4 -34.42,34.4 0,19.02 15.42,34.44 34.42,34.44 19.01,0 34.44,-15.42 34.44,-34.44 0,-19.01 -15.43,-34.4 -34.44,-34.4z"/>
   <path class="fil0" d="M960.79 1515.89c-19,0 -34.42,15.42 -34.42,34.42 0,19.02 15.42,34.42 34.42,34.42 19.01,0 34.44,-15.4 34.44,-34.42 0,-19.01 -15.43,-34.42 -34.44,-34.42z"/>
   <path class="fil0" d="M960.79 1431.67c-19,0 -34.42,15.42 -34.42,34.42 0,19.01 15.42,34.42 34.42,34.42 19.01,0 34.44,-15.42 34.44,-34.42 0,-19 -15.43,-34.42 -34.44,-34.42z"/>
   <path class="fil0" d="M960.79 1416.3c19.01,0 34.44,-15.42 34.44,-34.44 0,-19 -15.43,-34.4 -34.44,-34.4 -19,0 -34.42,15.4 -34.42,34.4 0,19.02 15.42,34.44 34.42,34.44z"/>
   <path class="fil0" d="M960.79 1263.24c-19,0 -34.42,15.42 -34.42,34.42 0,19.02 15.42,34.42 34.42,34.42 19.01,0 34.44,-15.4 34.44,-34.42 0,-19.01 -15.43,-34.42 -34.44,-34.42z"/>
   <path class="fil0" d="M960.79 1179.03c-19,0 -34.42,15.42 -34.42,34.42 0,19 15.42,34.42 34.42,34.42 19.01,0 34.44,-15.42 34.44,-34.42 0,-19.01 -15.43,-34.42 -34.44,-34.42z"/>
   <path class="fil0" d="M960.79 1094.81c-19,0 -34.42,15.4 -34.42,34.41 0,19.02 15.42,34.43 34.42,34.43 19.01,0 34.44,-15.42 34.44,-34.43 0,-19.01 -15.43,-34.41 -34.44,-34.41z"/>
   <path class="fil0" d="M960.79 1010.6c-19,0 -34.42,15.4 -34.42,34.4 0,19.02 15.42,34.42 34.42,34.42 19.01,0 34.44,-15.4 34.44,-34.42 0,-19.01 -15.43,-34.4 -34.44,-34.4z"/>
   <path class="fil0" d="M960.79 926.39c-19,0 -34.42,15.4 -34.42,34.41 0,19.02 15.42,34.43 34.42,34.43 19.01,0 34.44,-15.42 34.44,-34.43 0,-19.01 -15.43,-34.41 -34.44,-34.41z"/>
   <path class="fil0" d="M960.79 842.16c-19,0 -34.42,15.42 -34.42,34.42 0,19.01 15.42,34.42 34.42,34.42 19.01,0 34.44,-15.42 34.44,-34.42 0,-19.01 -15.43,-34.42 -34.44,-34.42z"/>
   <path class="fil0" d="M960.79 757.95c-19,0 -34.42,15.42 -34.42,34.42 0,19.01 15.42,34.42 34.42,34.42 19.01,0 34.44,-15.42 34.44,-34.42 0,-19.01 -15.43,-34.42 -34.44,-34.42z"/>
   <path class="fil0" d="M960.79 673.74c-19,0 -34.42,15.4 -34.42,34.41 0,19.02 15.42,34.43 34.42,34.43 19.01,0 34.44,-15.42 34.44,-34.43 0,-19.01 -15.43,-34.41 -34.44,-34.41z"/>
   <path class="fil0" d="M960.79 658.35c19.01,0 34.44,-15.4 34.44,-34.42 0,-19 -15.43,-34.42 -34.44,-34.42 -19,0 -34.42,15.42 -34.42,34.42 0,19.02 15.42,34.42 34.42,34.42z"/>
   <path class="fil0" d="M960.79 574.14c19.01,0 34.44,-15.42 34.44,-34.42 0,-19.01 -15.43,-34.42 -34.44,-34.42 -19,0 -34.42,15.42 -34.42,34.42 0,19.01 15.42,34.42 34.42,34.42z"/>
   <path class="fil0" d="M960.79 489.93c19.01,0 34.44,-15.42 34.44,-34.43 0,-19.01 -15.43,-34.4 -34.44,-34.4 -19,0 -34.42,15.4 -34.42,34.4 0,19.02 15.42,34.43 34.42,34.43z"/>
   <path class="fil0" d="M876.58 2105.42c-19.01,0 -34.42,15.4 -34.42,34.4 0,19.02 15.42,34.43 34.42,34.43 19.01,0 34.42,-15.42 34.42,-34.43 0,-19.01 -15.42,-34.4 -34.42,-34.4z"/>
   <path class="fil0" d="M876.58 2021.19c-19.01,0 -34.42,15.42 -34.42,34.42 0,19.02 15.42,34.42 34.42,34.42 19.01,0 34.42,-15.4 34.42,-34.42 0,-19.01 -15.42,-34.42 -34.42,-34.42z"/>
   <path class="fil0" d="M876.58 1936.97c-19.01,0 -34.42,15.42 -34.42,34.42 0,19.01 15.42,34.42 34.42,34.42 19.01,0 34.42,-15.42 34.42,-34.42 0,-19.01 -15.42,-34.42 -34.42,-34.42z"/>
   <path class="fil0" d="M876.58 1852.76c-19.01,0 -34.42,15.4 -34.42,34.4 0,19.02 15.42,34.44 34.42,34.44 19.01,0 34.42,-15.42 34.42,-34.44 0,-19.01 -15.42,-34.4 -34.42,-34.4z"/>
   <path class="fil0" d="M876.58 1768.54c-19.01,0 -34.42,15.42 -34.42,34.42 0,19.02 15.42,34.42 34.42,34.42 19.01,0 34.42,-15.4 34.42,-34.42 0,-19.01 -15.42,-34.42 -34.42,-34.42z"/>
   <path class="fil0" d="M876.58 1684.32c-19.01,0 -34.42,15.42 -34.42,34.42 0,19.01 15.42,34.42 34.42,34.42 19.01,0 34.42,-15.42 34.42,-34.42 0,-19.01 -15.42,-34.42 -34.42,-34.42z"/>
   <path class="fil0" d="M876.58 1600.11c-19.01,0 -34.42,15.4 -34.42,34.4 0,19.02 15.42,34.44 34.42,34.44 19.01,0 34.42,-15.42 34.42,-34.44 0,-19.01 -15.42,-34.4 -34.42,-34.4z"/>
   <path class="fil0" d="M876.58 1515.89c-19.01,0 -34.42,15.42 -34.42,34.42 0,19.02 15.42,34.42 34.42,34.42 19.01,0 34.42,-15.4 34.42,-34.42 0,-19.01 -15.42,-34.42 -34.42,-34.42z"/>
   <path class="fil0" d="M876.58 1431.67c-19.01,0 -34.42,15.42 -34.42,34.42 0,19.01 15.42,34.42 34.42,34.42 19.01,0 34.42,-15.42 34.42,-34.42 0,-19 -15.42,-34.42 -34.42,-34.42z"/>
   <path class="fil0" d="M876.58 1416.3c19.01,0 34.42,-15.42 34.42,-34.44 0,-19 -15.42,-34.4 -34.42,-34.4 -19.01,0 -34.42,15.4 -34.42,34.4 0,19.02 15.42,34.44 34.42,34.44z"/>
   <path class="fil0" d="M876.58 1332.08c19.01,0 34.42,-15.4 34.42,-34.42 0,-19.01 -15.42,-34.42 -34.42,-34.42 -19.01,0 -34.42,15.42 -34.42,34.42 0,19.02 15.42,34.42 34.42,34.42z"/>
   <path class="fil0" d="M876.58 1179.03c-19.01,0 -34.42,15.42 -34.42,34.42 0,19 15.42,34.42 34.42,34.42 19.01,0 34.42,-15.42 34.42,-34.42 0,-19.01 -15.42,-34.42 -34.42,-34.42z"/>
   <path class="fil0" d="M876.58 1094.81c-19.01,0 -34.42,15.4 -34.42,34.41 0,19.02 15.42,34.43 34.42,34.43 19.01,0 34.42,-15.42 34.42,-34.43 0,-19.01 -15.42,-34.41 -34.42,-34.41z"/>
   <path class="fil0" d="M876.58 1010.6c-19.01,0 -34.42,15.4 -34.42,34.4 0,19.02 15.42,34.42 34.42,34.42 19.01,0 34.42,-15.4 34.42,-34.42 0,-19.01 -15.42,-34.4 -34.42,-34.4z"/>
   <path class="fil0" d="M876.58 926.39c-19.01,0 -34.42,15.4 -34.42,34.41 0,19.02 15.42,34.43 34.42,34.43 19.01,0 34.42,-15.42 34.42,-34.43 0,-19.01 -15.42,-34.41 -34.42,-34.41z"/>
   <path class="fil0" d="M876.58 842.16c-19.01,0 -34.42,15.42 -34.42,34.42 0,19.01 15.42,34.42 34.42,34.42 19.01,0 34.42,-15.42 34.42,-34.42 0,-19.01 -15.42,-34.42 -34.42,-34.42z"/>
   <path class="fil0" d="M876.58 757.95c-19.01,0 -34.42,15.42 -34.42,34.42 0,19.01 15.42,34.42 34.42,34.42 19.01,0 34.42,-15.42 34.42,-34.42 0,-19.01 -15.42,-34.42 -34.42,-34.42z"/>
   <path class="fil0" d="M876.58 673.74c-19.01,0 -34.42,15.4 -34.42,34.41 0,19.02 15.42,34.43 34.42,34.43 19.01,0 34.42,-15.42 34.42,-34.43 0,-19.01 -15.42,-34.41 -34.42,-34.41z"/>
   <path class="fil0" d="M876.58 589.51c-19.01,0 -34.42,15.42 -34.42,34.42 0,19.02 15.42,34.42 34.42,34.42 19.01,0 34.42,-15.4 34.42,-34.42 0,-19 -15.42,-34.42 -34.42,-34.42z"/>
   <path class="fil0" d="M876.58 574.14c19.01,0 34.42,-15.42 34.42,-34.42 0,-19.01 -15.42,-34.42 -34.42,-34.42 -19.01,0 -34.42,15.42 -34.42,34.42 0,19.01 15.42,34.42 34.42,34.42z"/>
   <path class="fil0" d="M876.58 489.93c19.01,0 34.42,-15.42 34.42,-34.43 0,-19.01 -15.42,-34.4 -34.42,-34.4 -19.01,0 -34.42,15.4 -34.42,34.4 0,19.02 15.42,34.43 34.42,34.43z"/>
   <path class="fil0" d="M1381.88 405.7c19.01,0 34.42,-15.4 34.42,-34.42 0,-19.01 -15.42,-34.42 -34.42,-34.42 -19.02,0 -34.42,15.42 -34.42,34.42 0,19.02 15.4,34.42 34.42,34.42z"/>
   <path class="fil0" d="M1297.66 405.7c19.02,0 34.43,-15.4 34.43,-34.42 0,-19.01 -15.42,-34.42 -34.43,-34.42 -18.99,0 -34.42,15.42 -34.42,34.42 0,19.02 15.43,34.42 34.42,34.42z"/>
   <path class="fil0" d="M1213.44 405.7c19.02,0 34.42,-15.4 34.42,-34.42 0,-19.01 -15.4,-34.42 -34.42,-34.42 -19.01,0 -34.4,15.42 -34.4,34.42 0,19.02 15.4,34.42 34.4,34.42z"/>
   <path class="fil0" d="M1129.21 405.7c19.02,0 34.44,-15.4 34.44,-34.42 0,-19.01 -15.42,-34.42 -34.44,-34.42 -18.99,0 -34.4,15.42 -34.4,34.42 0,19.02 15.42,34.42 34.4,34.42z"/>
   <path class="fil0" d="M1045.02 405.7c19.01,0 34.41,-15.4 34.41,-34.42 0,-19.01 -15.4,-34.42 -34.41,-34.42 -19.02,0 -34.42,15.42 -34.42,34.42 0,19.02 15.4,34.42 34.42,34.42z"/>
   <path class="fil0" d="M960.79 405.7c19.01,0 34.44,-15.4 34.44,-34.42 0,-19.01 -15.43,-34.42 -34.44,-34.42 -19,0 -34.42,15.42 -34.42,34.42 0,19.02 15.42,34.42 34.42,34.42z"/>
   <path class="fil0" d="M876.58 405.7c19.01,0 34.42,-15.4 34.42,-34.42 0,-19.01 -15.42,-34.42 -34.42,-34.42 -19.01,0 -34.42,15.42 -34.42,34.42 0,19.02 15.42,34.42 34.42,34.42z"/>
   <path class="fil0" d="M792.36 1936.97c-18.99,0 -34.42,15.42 -34.42,34.42 0,19.01 15.43,34.42 34.42,34.42 19.02,0 34.43,-15.42 34.43,-34.42 0,-19.01 -15.42,-34.42 -34.43,-34.42z"/>
   <path class="fil0" d="M792.36 1852.76c-18.99,0 -34.42,15.4 -34.42,34.4 0,19.02 15.43,34.44 34.42,34.44 19.02,0 34.43,-15.42 34.43,-34.44 0,-19.01 -15.42,-34.4 -34.43,-34.4z"/>
   <path class="fil0" d="M792.36 1768.54c-18.99,0 -34.42,15.42 -34.42,34.42 0,19.02 15.43,34.42 34.42,34.42 19.02,0 34.43,-15.4 34.43,-34.42 0,-19.01 -15.42,-34.42 -34.43,-34.42z"/>
   <path class="fil0" d="M792.36 1684.32c-18.99,0 -34.42,15.42 -34.42,34.42 0,19.01 15.43,34.42 34.42,34.42 19.02,0 34.43,-15.42 34.43,-34.42 0,-19.01 -15.42,-34.42 -34.43,-34.42z"/>
   <path class="fil0" d="M792.36 1600.11c-18.99,0 -34.42,15.4 -34.42,34.4 0,19.02 15.43,34.44 34.42,34.44 19.02,0 34.43,-15.42 34.43,-34.44 0,-19.01 -15.42,-34.4 -34.43,-34.4z"/>
   <path class="fil0" d="M792.36 1515.89c-18.99,0 -34.42,15.42 -34.42,34.42 0,19.02 15.43,34.42 34.42,34.42 19.02,0 34.43,-15.4 34.43,-34.42 0,-19.01 -15.42,-34.42 -34.43,-34.42z"/>
   <path class="fil0" d="M792.36 1431.67c-18.99,0 -34.42,15.42 -34.42,34.42 0,19.01 15.43,34.42 34.42,34.42 19.02,0 34.43,-15.42 34.43,-34.42 0,-19 -15.42,-34.42 -34.43,-34.42z"/>
   <path class="fil0" d="M792.36 1347.46c-18.99,0 -34.42,15.4 -34.42,34.4 0,19.02 15.43,34.44 34.42,34.44 19.02,0 34.43,-15.42 34.43,-34.44 0,-19 -15.42,-34.4 -34.43,-34.4z"/>
   <path class="fil0" d="M792.36 1332.08c19.02,0 34.43,-15.4 34.43,-34.42 0,-19.01 -15.42,-34.42 -34.43,-34.42 -18.99,0 -34.42,15.42 -34.42,34.42 0,19.02 15.43,34.42 34.42,34.42z"/>
   <path class="fil0" d="M792.36 1247.86c19.02,0 34.43,-15.42 34.43,-34.42 0,-19.01 -15.42,-34.42 -34.43,-34.42 -18.99,0 -34.42,15.42 -34.42,34.42 0,19 15.43,34.42 34.42,34.42z"/>
   <path class="fil0" d="M792.36 1094.81c-18.99,0 -34.42,15.4 -34.42,34.41 0,19.02 15.43,34.43 34.42,34.43 19.02,0 34.43,-15.42 34.43,-34.43 0,-19.01 -15.42,-34.41 -34.43,-34.41z"/>
   <path class="fil0" d="M792.36 1010.6c-18.99,0 -34.42,15.4 -34.42,34.4 0,19.02 15.43,34.42 34.42,34.42 19.02,0 34.43,-15.4 34.43,-34.42 0,-19.01 -15.42,-34.4 -34.43,-34.4z"/>
   <path class="fil0" d="M792.36 926.39c-18.99,0 -34.42,15.4 -34.42,34.41 0,19.02 15.43,34.43 34.42,34.43 19.02,0 34.43,-15.42 34.43,-34.43 0,-19.01 -15.42,-34.41 -34.43,-34.41z"/>
   <path class="fil0" d="M792.36 842.16c-18.99,0 -34.42,15.42 -34.42,34.42 0,19.01 15.43,34.42 34.42,34.42 19.02,0 34.43,-15.42 34.43,-34.42 0,-19.01 -15.42,-34.42 -34.43,-34.42z"/>
   <path class="fil0" d="M792.36 757.95c-18.99,0 -34.42,15.42 -34.42,34.42 0,19.01 15.43,34.42 34.42,34.42 19.02,0 34.43,-15.42 34.43,-34.42 0,-19.01 -15.42,-34.42 -34.43,-34.42z"/>
   <path class="fil0" d="M792.36 673.74c-18.99,0 -34.42,15.4 -34.42,34.41 0,19.02 15.43,34.43 34.42,34.43 19.02,0 34.43,-15.42 34.43,-34.43 0,-19.01 -15.42,-34.41 -34.43,-34.41z"/>
   <path class="fil0" d="M792.36 589.51c-18.99,0 -34.42,15.42 -34.42,34.42 0,19.02 15.43,34.42 34.42,34.42 19.02,0 34.43,-15.4 34.43,-34.42 0,-19 -15.42,-34.42 -34.43,-34.42z"/>
   <path class="fil0" d="M792.36 505.3c-18.99,0 -34.42,15.42 -34.42,34.42 0,19.01 15.43,34.42 34.42,34.42 19.02,0 34.43,-15.42 34.43,-34.42 0,-19.01 -15.42,-34.42 -34.43,-34.42z"/>
   <path class="fil0" d="M792.36 489.93c19.02,0 34.43,-15.42 34.43,-34.43 0,-19.01 -15.42,-34.4 -34.43,-34.4 -18.99,0 -34.42,15.4 -34.42,34.4 0,19.02 15.43,34.43 34.42,34.43z"/>
   <path class="fil0" d="M792.36 405.7c19.02,0 34.43,-15.4 34.43,-34.42 0,-19.01 -15.42,-34.42 -34.43,-34.42 -18.99,0 -34.42,15.42 -34.42,34.42 0,19.02 15.43,34.42 34.42,34.42z"/>
   <path class="fil0" d="M708.15 1768.54c-19.01,0 -34.41,15.42 -34.41,34.42 0,19.02 15.4,34.42 34.41,34.42 19.02,0 34.42,-15.4 34.42,-34.42 0,-19.01 -15.4,-34.42 -34.42,-34.42z"/>
   <path class="fil0" d="M708.15 1684.32c-19.01,0 -34.41,15.42 -34.41,34.42 0,19.01 15.4,34.42 34.41,34.42 19.02,0 34.42,-15.42 34.42,-34.42 0,-19.01 -15.4,-34.42 -34.42,-34.42z"/>
   <path class="fil0" d="M623.95 1684.32c-19.02,0 -34.42,15.42 -34.42,34.42 0,19.01 15.4,34.42 34.42,34.42 19,0 34.4,-15.42 34.4,-34.42 0,-19.01 -15.4,-34.42 -34.4,-34.42z"/>
   <path class="fil0" d="M708.15 1600.11c-19.01,0 -34.41,15.4 -34.41,34.4 0,19.02 15.4,34.44 34.41,34.44 19.02,0 34.42,-15.42 34.42,-34.44 0,-19.01 -15.4,-34.4 -34.42,-34.4z"/>
   <path class="fil0" d="M708.15 1515.89c-19.01,0 -34.41,15.42 -34.41,34.42 0,19.02 15.4,34.42 34.41,34.42 19.02,0 34.42,-15.4 34.42,-34.42 0,-19.01 -15.4,-34.42 -34.42,-34.42z"/>
   <path class="fil0" d="M708.15 1431.67c-19.01,0 -34.41,15.42 -34.41,34.42 0,19.01 15.4,34.42 34.41,34.42 19.02,0 34.42,-15.42 34.42,-34.42 0,-19 -15.4,-34.42 -34.42,-34.42z"/>
   <path class="fil0" d="M708.15 1347.46c-19.01,0 -34.41,15.4 -34.41,34.4 0,19.02 15.4,34.44 34.41,34.44 19.02,0 34.42,-15.42 34.42,-34.44 0,-19 -15.4,-34.4 -34.42,-34.4z"/>
   <path class="fil0" d="M708.15 1263.24c-19.01,0 -34.41,15.42 -34.41,34.42 0,19.02 15.4,34.42 34.41,34.42 19.02,0 34.42,-15.4 34.42,-34.42 0,-19.01 -15.4,-34.42 -34.42,-34.42z"/>
   <path class="fil0" d="M708.15 1247.86c19.02,0 34.42,-15.42 34.42,-34.42 0,-19.01 -15.4,-34.42 -34.42,-34.42 -19.01,0 -34.41,15.42 -34.41,34.42 0,19 15.4,34.42 34.41,34.42z"/>
   <path class="fil0" d="M708.15 1163.65c19.02,0 34.42,-15.42 34.42,-34.43 0,-19.01 -15.4,-34.41 -34.42,-34.41 -19.01,0 -34.41,15.4 -34.41,34.41 0,19.02 15.4,34.43 34.41,34.43z"/>
   <path class="fil0" d="M623.95 1163.65c19,0 34.4,-15.42 34.4,-34.43 0,-19.01 -15.4,-34.41 -34.4,-34.41 -19.02,0 -34.42,15.4 -34.42,34.41 0,19.02 15.4,34.43 34.42,34.43z"/>
   <path class="fil0" d="M708.15 995.23c19.02,0 34.42,-15.42 34.42,-34.43 0,-19.01 -15.4,-34.41 -34.42,-34.41 -19.01,0 -34.41,15.4 -34.41,34.41 0,19.02 15.4,34.43 34.41,34.43z"/>
   <path class="fil0" d="M708.15 1079.44c19.02,0 34.42,-15.42 34.42,-34.42 0,-19.01 -15.4,-34.42 -34.42,-34.42 -19.01,0 -34.41,15.42 -34.41,34.42 0,19 15.4,34.42 34.41,34.42z"/>
   <path class="fil0" d="M708.15 911c19.02,0 34.42,-15.42 34.42,-34.42 0,-19.01 -15.4,-34.42 -34.42,-34.42 -19.01,0 -34.41,15.42 -34.41,34.42 0,19.01 15.4,34.42 34.41,34.42z"/>
   <path class="fil0" d="M623.95 995.23c19,0 34.4,-15.42 34.4,-34.43 0,-19.01 -15.4,-34.41 -34.4,-34.41 -19.02,0 -34.42,15.4 -34.42,34.41 0,19.02 15.4,34.43 34.42,34.43z"/>
   <path class="fil0" d="M623.95 911c19,0 34.4,-15.42 34.4,-34.42 0,-19.01 -15.4,-34.42 -34.4,-34.42 -19.02,0 -34.42,15.42 -34.42,34.42 0,19.01 15.4,34.42 34.42,34.42z"/>
   <path class="fil0" d="M708.15 826.79c19.02,0 34.42,-15.42 34.42,-34.42 0,-19.01 -15.4,-34.42 -34.42,-34.42 -19.01,0 -34.41,15.42 -34.41,34.42 0,19.01 15.4,34.42 34.41,34.42z"/>
   <path class="fil0" d="M708.15 742.58c19.02,0 34.42,-15.42 34.42,-34.43 0,-19.01 -15.4,-34.41 -34.42,-34.41 -19.01,0 -34.41,15.4 -34.41,34.41 0,19.02 15.4,34.43 34.41,34.43z"/>
   <path class="fil0" d="M708.15 658.35c19.02,0 34.42,-15.4 34.42,-34.42 0,-19 -15.4,-34.42 -34.42,-34.42 -19.01,0 -34.41,15.42 -34.41,34.42 0,19.02 15.4,34.42 34.41,34.42z"/>
   <path class="fil0" d="M708.15 505.3c-19.01,0 -34.41,15.42 -34.41,34.42 0,19.01 15.4,34.42 34.41,34.42 19.02,0 34.42,-15.42 34.42,-34.42 0,-19.01 -15.4,-34.42 -34.42,-34.42z"/>
   <path class="fil0" d="M708.15 489.93c19.02,0 34.42,-15.42 34.42,-34.43 0,-19.01 -15.4,-34.4 -34.42,-34.4 -19.01,0 -34.41,15.4 -34.41,34.4 0,19.02 15.4,34.43 34.41,34.43z"/>
   <path class="fil0" d="M708.15 405.7c19.02,0 34.42,-15.4 34.42,-34.42 0,-19.01 -15.4,-34.42 -34.42,-34.42 -19.01,0 -34.41,15.42 -34.41,34.42 0,19.02 15.4,34.42 34.41,34.42z"/>
   <path class="fil0" d="M623.93 1600.11c-19.01,0 -34.42,15.4 -34.42,34.4 0,19.02 15.42,34.44 34.42,34.44 19.01,0 34.42,-15.42 34.42,-34.44 0,-19.01 -15.42,-34.4 -34.42,-34.4z"/>
   <path class="fil0" d="M539.72 1600.11c-19.01,0 -34.42,15.4 -34.42,34.4 0,19.02 15.42,34.44 34.42,34.44 19,0 34.42,-15.42 34.42,-34.44 0,-19.01 -15.42,-34.4 -34.42,-34.4z"/>
   <path class="fil0" d="M539.72 1684.32c-19.01,0 -34.42,15.42 -34.42,34.42 0,19.01 15.42,34.42 34.42,34.42 19,0 34.42,-15.42 34.42,-34.42 0,-19.01 -15.42,-34.42 -34.42,-34.42z"/>
   <path class="fil0" d="M539.72 1768.54c-19.01,0 -34.42,15.42 -34.42,34.42 0,19.02 15.42,34.42 34.42,34.42 19,0 34.42,-15.4 34.42,-34.42 0,-19.01 -15.42,-34.42 -34.42,-34.42z"/>
   <path class="fil0" d="M623.93 1852.76c-19.01,0 -34.42,15.4 -34.42,34.4 0,19.02 15.42,34.44 34.42,34.44 19.01,0 34.42,-15.42 34.42,-34.44 0,-19.01 -15.42,-34.4 -34.42,-34.4z"/>
   <path class="fil0" d="M623.93 1515.89c-19.01,0 -34.42,15.42 -34.42,34.42 0,19.02 15.42,34.42 34.42,34.42 19.01,0 34.42,-15.4 34.42,-34.42 0,-19.01 -15.42,-34.42 -34.42,-34.42z"/>
   <path class="fil0" d="M623.93 1431.67c-19.01,0 -34.42,15.42 -34.42,34.42 0,19.01 15.42,34.42 34.42,34.42 19.01,0 34.42,-15.42 34.42,-34.42 0,-19 -15.42,-34.42 -34.42,-34.42z"/>
   <path class="fil0" d="M623.93 1416.3c19.01,0 34.42,-15.42 34.42,-34.44 0,-19 -15.42,-34.4 -34.42,-34.4 -19.01,0 -34.42,15.4 -34.42,34.4 0,19.02 15.42,34.44 34.42,34.44z"/>
   <path class="fil0" d="M623.93 1263.24c-19.01,0 -34.42,15.42 -34.42,34.42 0,19.02 15.42,34.42 34.42,34.42 19.01,0 34.42,-15.4 34.42,-34.42 0,-19.01 -15.42,-34.42 -34.42,-34.42z"/>
   <path class="fil0" d="M623.93 1179.03c-19.01,0 -34.42,15.42 -34.42,34.42 0,19 15.42,34.42 34.42,34.42 19.01,0 34.42,-15.42 34.42,-34.42 0,-19.01 -15.42,-34.42 -34.42,-34.42z"/>
   <path class="fil0" d="M623.93 589.51c-19.01,0 -34.42,15.42 -34.42,34.42 0,19.02 15.42,34.42 34.42,34.42 19.01,0 34.42,-15.4 34.42,-34.42 0,-19 -15.42,-34.42 -34.42,-34.42z"/>
   <path class="fil0" d="M623.93 673.74c-19.01,0 -34.42,15.4 -34.42,34.41 0,19.02 15.42,34.43 34.42,34.43 19.01,0 34.42,-15.42 34.42,-34.43 0,-19.01 -15.42,-34.41 -34.42,-34.41z"/>
   <path class="fil0" d="M623.93 505.3c-19.01,0 -34.42,15.42 -34.42,34.42 0,19.01 15.42,34.42 34.42,34.42 19.01,0 34.42,-15.42 34.42,-34.42 0,-19.01 -15.42,-34.42 -34.42,-34.42z"/>
   <path class="fil0" d="M623.93 421.09c-19.01,0 -34.42,15.4 -34.42,34.4 0,19.02 15.42,34.43 34.42,34.43 19.01,0 34.42,-15.42 34.42,-34.43 0,-19.01 -15.42,-34.4 -34.42,-34.4z"/>
   <path class="fil0" d="M623.93 405.7c19.01,0 34.42,-15.4 34.42,-34.42 0,-19.01 -15.42,-34.42 -34.42,-34.42 -19.01,0 -34.42,15.42 -34.42,34.42 0,19.02 15.42,34.42 34.42,34.42z"/>
   <path class="fil0" d="M539.72 1515.89c-19.02,0 -34.42,15.42 -34.42,34.42 0,19.02 15.4,34.42 34.42,34.42 19,0 34.4,-15.4 34.4,-34.42 0,-19.01 -15.4,-34.42 -34.4,-34.42z"/>
   <path class="fil0" d="M455.51 1515.89c-19.02,0 -34.42,15.42 -34.42,34.42 0,19.02 15.4,34.42 34.42,34.42 19.01,0 34.42,-15.4 34.42,-34.42 0,-19.01 -15.42,-34.42 -34.42,-34.42z"/>
   <path class="fil0" d="M539.72 1431.67c-19.02,0 -34.42,15.42 -34.42,34.42 0,19.01 15.4,34.42 34.42,34.42 19,0 34.4,-15.42 34.4,-34.42 0,-19 -15.4,-34.42 -34.4,-34.42z"/>
   <path class="fil0" d="M539.72 1416.3c19,0 34.4,-15.42 34.4,-34.44 0,-19 -15.4,-34.4 -34.4,-34.4 -19.02,0 -34.42,15.4 -34.42,34.4 0,19.02 15.4,34.44 34.42,34.44z"/>
   <path class="fil0" d="M455.51 1431.67c-19.02,0 -34.42,15.42 -34.42,34.42 0,19.01 15.4,34.42 34.42,34.42 19.01,0 34.42,-15.42 34.42,-34.42 0,-19 -15.42,-34.42 -34.42,-34.42z"/>
   <path class="fil0" d="M455.51 1416.3c19.01,0 34.42,-15.42 34.42,-34.44 0,-19 -15.42,-34.4 -34.42,-34.4 -19.02,0 -34.42,15.4 -34.42,34.4 0,19.02 15.4,34.44 34.42,34.44z"/>
   <path class="fil0" d="M539.72 1332.08c19,0 34.4,-15.4 34.4,-34.42 0,-19.01 -15.4,-34.42 -34.4,-34.42 -19.02,0 -34.42,15.42 -34.42,34.42 0,19.02 15.4,34.42 34.42,34.42z"/>
   <path class="fil0" d="M539.72 589.51c-19.02,0 -34.42,15.42 -34.42,34.42 0,19.02 15.4,34.42 34.42,34.42 19,0 34.4,-15.4 34.4,-34.42 0,-19 -15.4,-34.42 -34.4,-34.42z"/>
   <path class="fil0" d="M539.72 505.3c-19.02,0 -34.42,15.42 -34.42,34.42 0,19.01 15.4,34.42 34.42,34.42 19,0 34.4,-15.42 34.4,-34.42 0,-19.01 -15.4,-34.42 -34.4,-34.42z"/>
   <path class="fil0" d="M539.72 421.09c-19.02,0 -34.42,15.4 -34.42,34.4 0,19.02 15.4,34.43 34.42,34.43 19,0 34.4,-15.42 34.4,-34.43 0,-19.01 -15.4,-34.4 -34.4,-34.4z"/>
   <path class="fil0" d="M539.72 405.7c19,0 34.4,-15.4 34.4,-34.42 0,-19.01 -15.4,-34.42 -34.4,-34.42 -19.02,0 -34.42,15.42 -34.42,34.42 0,19.02 15.4,34.42 34.42,34.42z"/>
   <path class="fil0" d="M455.51 505.3c-19.02,0 -34.42,15.42 -34.42,34.42 0,19.01 15.4,34.42 34.42,34.42 19.01,0 34.42,-15.42 34.42,-34.42 0,-19.01 -15.42,-34.42 -34.42,-34.42z"/>
   <path class="fil0" d="M455.51 489.93c19.01,0 34.42,-15.42 34.42,-34.43 0,-19.01 -15.42,-34.4 -34.42,-34.4 -19.02,0 -34.42,15.4 -34.42,34.4 0,19.02 15.4,34.43 34.42,34.43z"/>
   <path class="fil0" d="M455.51 405.7c19.01,0 34.42,-15.4 34.42,-34.42 0,-19.01 -15.42,-34.42 -34.42,-34.42 -19.02,0 -34.42,15.42 -34.42,34.42 0,19.02 15.4,34.42 34.42,34.42z"/>
   <path class="fil0" d="M371.28 405.7c19.02,0 34.44,-15.4 34.44,-34.42 0,-19.01 -15.42,-34.42 -34.44,-34.42 -18.99,0 -34.42,15.42 -34.42,34.42 0,19.02 15.43,34.42 34.42,34.42z"/>
   <path class="fil0" d="M371.28 505.3c-18.99,0 -34.42,15.42 -34.42,34.42 0,19.01 15.43,34.42 34.42,34.42 19.02,0 34.44,-15.42 34.44,-34.42 0,-19.01 -15.42,-34.42 -34.44,-34.42z"/>
   <path class="fil0" d="M371.28 421.09c-18.99,0 -34.42,15.4 -34.42,34.4 0,19.02 15.43,34.43 34.42,34.43 19.02,0 34.44,-15.42 34.44,-34.43 0,-19.01 -15.42,-34.4 -34.44,-34.4z"/>
   <path class="fil0" d="M287.07 505.3c-19.01,0 -34.42,15.42 -34.42,34.42 0,19.01 15.42,34.42 34.42,34.42 19.02,0 34.42,-15.42 34.42,-34.42 0,-19.01 -15.4,-34.42 -34.42,-34.42z"/>
   <path class="fil0" d="M455.51 589.51c-19.02,0 -34.42,15.42 -34.42,34.42 0,19.02 15.4,34.42 34.42,34.42 19.01,0 34.42,-15.4 34.42,-34.42 0,-19 -15.42,-34.42 -34.42,-34.42z"/>
   <path class="fil0" d="M371.28 589.51c-18.99,0 -34.42,15.42 -34.42,34.42 0,19.02 15.43,34.42 34.42,34.42 19.02,0 34.44,-15.4 34.44,-34.42 0,-19 -15.42,-34.42 -34.44,-34.42z"/>
   <path class="fil0" d="M287.07 589.51c-19.01,0 -34.42,15.42 -34.42,34.42 0,19.02 15.42,34.42 34.42,34.42 19.02,0 34.42,-15.4 34.42,-34.42 0,-19 -15.4,-34.42 -34.42,-34.42z"/>
   <path class="fil0" d="M287.07 489.93c19.02,0 34.42,-15.42 34.42,-34.43 0,-19.01 -15.4,-34.4 -34.42,-34.4 -9.65,0 -18.33,3.99 -24.58,10.38 0.58,1.96 -0.06,3.9 -3.38,5.86 -0.57,0.33 -1.14,0.69 -1.7,1.02 -2.93,5.07 -4.76,10.88 -4.76,17.15 0,19.02 15.42,34.43 34.42,34.43z"/>
   <path class="fil0" d="M202.84 589.51c-18.99,0 -34.41,15.42 -34.41,34.42 0,19.02 15.42,34.42 34.41,34.42 19.02,0 34.43,-15.4 34.43,-34.42 0,-19 -15.42,-34.42 -34.43,-34.42z"/>
   <path class="fil0" d="M202.84 574.14c19.02,0 34.43,-15.42 34.43,-34.42 0,-19.01 -15.42,-34.42 -34.43,-34.42 -6.68,0 -12.88,1.99 -18.15,5.29 -0.08,0.28 -0.06,0.76 -0.21,0.88 -2.54,1.88 -5.04,3.86 -7.55,5.83 -5.23,6.02 -8.49,13.8 -8.49,22.41 0,19.01 15.42,34.42 34.41,34.42z"/>
   <path class="fil0" d="M118.65 658.35c19.01,0 34.4,-15.4 34.4,-34.42 0,-19 -15.4,-34.42 -34.4,-34.42 -19.02,0 -34.42,15.42 -34.42,34.42 0,19.02 15.4,34.42 34.42,34.42z"/>
   <path class="fil0" d="M34.42 589.51c-19.01,0 -34.42,15.42 -34.42,34.42 0,19.02 15.42,34.42 34.42,34.42 19.01,0 34.43,-15.4 34.43,-34.42 0,-19 -15.43,-34.42 -34.43,-34.42z"/>
   <path class="fil0" d="M34.42 673.74c-19.01,0 -34.42,15.4 -34.42,34.41 0,19.02 15.42,34.43 34.42,34.43 19.01,0 34.43,-15.42 34.43,-34.43 0,-19.01 -15.43,-34.41 -34.43,-34.41z"/>
   <path class="fil0" d="M1887.18 1079.43c19.01,0 34.42,-15.4 34.42,-34.42 0,-19.01 -15.42,-34.4 -34.42,-34.4 -19.02,0 -34.42,15.4 -34.42,34.4 0,19.02 15.4,34.42 34.42,34.42z"/>
   <path class="fil0" d="M1887.18 1163.65c19.01,0 34.42,-15.42 34.42,-34.43 0,-19.01 -15.42,-34.41 -34.42,-34.41 -19.02,0 -34.42,15.4 -34.42,34.41 0,19.02 15.4,34.43 34.42,34.43z"/>
   <path class="fil0" d="M1802.95 1079.43c19.02,0 34.44,-15.4 34.44,-34.42 0,-19.01 -15.42,-34.4 -34.44,-34.4 -18.99,0 -34.42,15.4 -34.42,34.4 0,19.02 15.43,34.42 34.42,34.42z"/>
   <path class="fil0" d="M1718.74 1263.24c-19.01,0 -34.42,15.42 -34.42,34.42 0,19.02 15.42,34.42 34.42,34.42 19.02,0 34.42,-15.4 34.42,-34.42 0,-19.01 -15.4,-34.42 -34.42,-34.42z"/>
   <path class="fil0" d="M1634.52 1079.43c19.02,0 34.44,-15.4 34.44,-34.42 0,-19.01 -15.42,-34.4 -34.44,-34.4 -18.99,0 -34.4,15.4 -34.4,34.4 0,19.02 15.42,34.42 34.4,34.42z"/>
   <path class="fil0" d="M1550.32 1332.08c19.01,0 34.41,-15.4 34.41,-34.42 0,-19.01 -15.4,-34.42 -34.41,-34.42 -19.02,0 -34.42,15.42 -34.42,34.42 0,19.02 15.4,34.42 34.42,34.42z"/>
   <path class="fil0" d="M1550.32 1179.03c-19.02,0 -34.42,15.42 -34.42,34.42 0,19 15.4,34.42 34.42,34.42 19.01,0 34.41,-15.42 34.41,-34.42 0,-19.01 -15.4,-34.42 -34.41,-34.42z"/>
   <path class="fil0" d="M1634.52 1179.03c-18.99,0 -34.4,15.42 -34.4,34.42 0,19 15.42,34.42 34.4,34.42 19.02,0 34.44,-15.42 34.44,-34.42 0,-19.01 -15.42,-34.42 -34.44,-34.42z"/>
   <path class="fil0" d="M1550.32 1094.81c-19.02,0 -34.42,15.4 -34.42,34.41 0,19.02 15.4,34.43 34.42,34.43 19.01,0 34.41,-15.42 34.41,-34.43 0,-19.01 -15.4,-34.41 -34.41,-34.41z"/>
   <path class="fil0" d="M1550.32 1079.43c19.01,0 34.41,-15.4 34.41,-34.42 0,-19.01 -15.4,-34.4 -34.41,-34.4 -19.02,0 -34.42,15.4 -34.42,34.4 0,19.02 15.4,34.42 34.42,34.42z"/>
   <path class="fil0" d="M1887.18 1347.46c-19.02,0 -34.42,15.4 -34.42,34.4 0,19.02 15.4,34.44 34.42,34.44 19.01,0 34.42,-15.42 34.42,-34.44 0,-19 -15.42,-34.4 -34.42,-34.4z"/>
   <path class="fil0" d="M1887.18 1431.67c-19.02,0 -34.42,15.42 -34.42,34.42 0,19.01 15.4,34.42 34.42,34.42 19.01,0 34.42,-15.42 34.42,-34.42 0,-19 -15.42,-34.42 -34.42,-34.42z"/>
   <path class="fil0" d="M1971.4 1347.46c-19.02,0 -34.42,15.4 -34.42,34.4 0,19.02 15.4,34.44 34.42,34.44 19.01,0 34.4,-15.42 34.4,-34.44 0,-19 -15.4,-34.4 -34.4,-34.4z"/>
   <path class="fil0" d="M1971.4 1263.24c-19.02,0 -34.42,15.42 -34.42,34.42 0,19.02 15.4,34.42 34.42,34.42 19.01,0 34.4,-15.4 34.4,-34.42 0,-19.01 -15.4,-34.42 -34.4,-34.42z"/>
   <path class="fil0" d="M1887.18 1263.24c-19.02,0 -34.42,15.42 -34.42,34.42 0,19.02 15.4,34.42 34.42,34.42 19.01,0 34.42,-15.4 34.42,-34.42 0,-19.01 -15.42,-34.42 -34.42,-34.42z"/>
   <path class="fil0" d="M1802.95 1347.46c-18.99,0 -34.42,15.4 -34.42,34.4 0,19.02 15.43,34.44 34.42,34.44 19.02,0 34.44,-15.42 34.44,-34.44 0,-19 -15.42,-34.4 -34.44,-34.4z"/>
   <path class="fil0" d="M3992.58 84.21c-19.01,0 -34.42,15.42 -34.42,34.42 0,19.02 15.42,34.42 34.42,34.42 19.01,0 34.42,-15.4 34.42,-34.42 0,-19.01 -15.42,-34.42 -34.42,-34.42z"/>
   <path class="fil0" d="M3992.58 68.84c19.01,0 34.42,-15.42 34.42,-34.42 0,-19.01 -15.42,-34.42 -34.42,-34.42 -19.01,0 -34.42,15.42 -34.42,34.42 0,19.01 15.42,34.42 34.42,34.42z"/>
   <path class="fil0" d="M3908.37 153.06c19.01,0 34.4,-15.4 34.4,-34.42 0,-19.01 -15.4,-34.42 -34.4,-34.42 -19.02,0 -34.42,15.42 -34.42,34.42 0,19.02 15.4,34.42 34.42,34.42z"/>
   <path class="fil0" d="M3908.37 68.84c19.01,0 34.4,-15.42 34.4,-34.42 0,-19.01 -15.4,-34.42 -34.4,-34.42 -19.02,0 -34.42,15.42 -34.42,34.42 0,19.01 15.4,34.42 34.42,34.42z"/>
   <path class="fil0" d="M3824.14 168.44c-19.01,0 -34.42,15.4 -34.42,34.4 0,19.02 15.42,34.44 34.42,34.44 19.01,0 34.43,-15.42 34.43,-34.44 0,-19.01 -15.43,-34.4 -34.43,-34.4z"/>
   <path class="fil0" d="M3824.14 84.21c-19.01,0 -34.42,15.42 -34.42,34.42 0,19.02 15.42,34.42 34.42,34.42 19.01,0 34.43,-15.4 34.43,-34.42 0,-19.01 -15.43,-34.42 -34.43,-34.42z"/>
   <path class="fil0" d="M3824.14 68.84c19.01,0 34.43,-15.42 34.43,-34.42 0,-19.01 -15.43,-34.42 -34.43,-34.42 -19.01,0 -34.42,15.42 -34.42,34.42 0,19.01 15.42,34.42 34.42,34.42z"/>
   <path class="fil0" d="M3739.93 321.49c19.02,0 34.42,-15.42 34.42,-34.42 0,-19.01 -15.4,-34.42 -34.42,-34.42 -19,0 -34.42,15.42 -34.42,34.42 0,19.01 15.42,34.42 34.42,34.42z"/>
   <path class="fil0" d="M3739.93 237.28c19.02,0 34.42,-15.42 34.42,-34.44 0,-19.01 -15.4,-34.4 -34.42,-34.4 -19,0 -34.42,15.4 -34.42,34.4 0,19.02 15.42,34.44 34.42,34.44z"/>
   <path class="fil0" d="M3739.93 84.21c-19,0 -34.42,15.42 -34.42,34.42 0,19.02 15.42,34.42 34.42,34.42 19.02,0 34.42,-15.4 34.42,-34.42 0,-19.01 -15.4,-34.42 -34.42,-34.42z"/>
   <path class="fil0" d="M3739.93 68.84c19.02,0 34.42,-15.42 34.42,-34.42 0,-19.01 -15.4,-34.42 -34.42,-34.42 -19,0 -34.42,15.42 -34.42,34.42 0,19.01 15.42,34.42 34.42,34.42z"/>
   <path class="fil0" d="M3655.7 252.65c-18.99,0 -34.42,15.42 -34.42,34.42 0,19.01 15.43,34.42 34.42,34.42 19.02,0 34.44,-15.42 34.44,-34.42 0,-19.01 -15.42,-34.42 -34.44,-34.42z"/>
   <path class="fil0" d="M3655.7 237.28c19.02,0 34.44,-15.42 34.44,-34.44 0,-19.01 -15.42,-34.4 -34.44,-34.4 -18.99,0 -34.42,15.4 -34.42,34.4 0,19.02 15.43,34.44 34.42,34.44z"/>
   <path class="fil0" d="M3655.7 84.21c-18.99,0 -34.42,15.42 -34.42,34.42 0,19.02 15.43,34.42 34.42,34.42 19.02,0 34.44,-15.4 34.44,-34.42 0,-19.01 -15.42,-34.42 -34.44,-34.42z"/>
   <path class="fil0" d="M3655.7 68.84c19.02,0 34.44,-15.42 34.44,-34.42 0,-19.01 -15.42,-34.42 -34.44,-34.42 -18.99,0 -34.42,15.42 -34.42,34.42 0,19.01 15.43,34.42 34.42,34.42z"/>
   <path class="fil0" d="M3571.49 336.87c-18.99,0 -34.4,15.42 -34.4,34.42 0,19.02 15.42,34.42 34.4,34.42 19.02,0 34.43,-15.4 34.43,-34.42 0,-19.01 -15.42,-34.42 -34.43,-34.42z"/>
   <path class="fil0" d="M3571.49 252.65c-18.99,0 -34.4,15.42 -34.4,34.42 0,19.01 15.42,34.42 34.4,34.42 19.02,0 34.43,-15.42 34.43,-34.42 0,-19.01 -15.42,-34.42 -34.43,-34.42z"/>
   <path class="fil0" d="M3571.49 237.28c19.02,0 34.43,-15.42 34.43,-34.44 0,-19.01 -15.42,-34.4 -34.43,-34.4 -18.99,0 -34.4,15.4 -34.4,34.4 0,19.02 15.42,34.44 34.4,34.44z"/>
   <path class="fil0" d="M3571.49 153.06c19.02,0 34.43,-15.4 34.43,-34.42 0,-19.01 -15.42,-34.42 -34.43,-34.42 -18.99,0 -34.4,15.42 -34.4,34.42 0,19.02 15.42,34.42 34.4,34.42z"/>
   <path class="fil0" d="M3571.49 68.84c19.02,0 34.43,-15.42 34.43,-34.42 0,-19.01 -15.42,-34.42 -34.43,-34.42 -18.99,0 -34.4,15.42 -34.4,34.42 0,19.01 15.42,34.42 34.4,34.42z"/>
   <path class="fil0" d="M3487.29 405.7c19.01,0 34.4,-15.4 34.4,-34.42 0,-19.01 -15.4,-34.42 -34.4,-34.42 -19.02,0 -34.42,15.42 -34.42,34.42 0,19.02 15.4,34.42 34.42,34.42z"/>
   <path class="fil0" d="M3487.29 252.65c-19.02,0 -34.42,15.42 -34.42,34.42 0,19.01 15.4,34.42 34.42,34.42 19.01,0 34.4,-15.42 34.4,-34.42 0,-19.01 -15.4,-34.42 -34.4,-34.42z"/>
   <path class="fil0" d="M3487.29 237.28c19.01,0 34.4,-15.42 34.4,-34.44 0,-19.01 -15.4,-34.4 -34.4,-34.4 -19.02,0 -34.42,15.4 -34.42,34.4 0,19.02 15.4,34.44 34.42,34.44z"/>
   <path class="fil0" d="M3487.29 153.06c19.01,0 34.4,-15.4 34.4,-34.42 0,-19.01 -15.4,-34.42 -34.4,-34.42 -19.02,0 -34.42,15.42 -34.42,34.42 0,19.02 15.4,34.42 34.42,34.42z"/>
   <path class="fil0" d="M3403.07 336.87c-19.01,0 -34.42,15.42 -34.42,34.42 0,19.02 15.42,34.42 34.42,34.42 19.01,0 34.42,-15.4 34.42,-34.42 0,-19.01 -15.42,-34.42 -34.42,-34.42z"/>
   <path class="fil0" d="M3403.07 252.65c-19.01,0 -34.42,15.42 -34.42,34.42 0,19.01 15.42,34.42 34.42,34.42 19.01,0 34.42,-15.42 34.42,-34.42 0,-19.01 -15.42,-34.42 -34.42,-34.42z"/>
   <path class="fil0" d="M3403.07 168.44c-19.01,0 -34.42,15.4 -34.42,34.4 0,19.02 15.42,34.44 34.42,34.44 19.01,0 34.42,-15.42 34.42,-34.44 0,-19.01 -15.42,-34.4 -34.42,-34.4z"/>
   <path class="fil0" d="M3403.07 153.06c19.01,0 34.42,-15.4 34.42,-34.42 0,-19.01 -15.42,-34.42 -34.42,-34.42 -19.01,0 -34.42,15.42 -34.42,34.42 0,19.02 15.42,34.42 34.42,34.42z"/>
   <path class="fil0" d="M3318.86 421.09c-19.02,0 -34.42,15.4 -34.42,34.4 0,19.02 15.4,34.43 34.42,34.43 19,0 34.42,-15.42 34.42,-34.43 0,-19.01 -15.42,-34.4 -34.42,-34.4z"/>
   <path class="fil0" d="M3318.86 336.87c-19.02,0 -34.42,15.42 -34.42,34.42 0,19.02 15.4,34.42 34.42,34.42 19,0 34.42,-15.4 34.42,-34.42 0,-19.01 -15.42,-34.42 -34.42,-34.42z"/>
   <path class="fil0" d="M3318.86 252.65c-19.02,0 -34.42,15.42 -34.42,34.42 0,19.01 15.4,34.42 34.42,34.42 19,0 34.42,-15.42 34.42,-34.42 0,-19.01 -15.42,-34.42 -34.42,-34.42z"/>
   <path class="fil0" d="M3318.86 168.44c-19.02,0 -34.42,15.4 -34.42,34.4 0,19.02 15.4,34.44 34.42,34.44 19,0 34.42,-15.42 34.42,-34.44 0,-19.01 -15.42,-34.4 -34.42,-34.4z"/>
   <path class="fil0" d="M3318.86 153.06c19,0 34.42,-15.4 34.42,-34.42 0,-19.01 -15.42,-34.42 -34.42,-34.42 -19.02,0 -34.42,15.42 -34.42,34.42 0,19.02 15.4,34.42 34.42,34.42z"/>
   <path class="fil0" d="M3318.86 68.84c19,0 34.42,-15.42 34.42,-34.42 0,-19.01 -15.42,-34.42 -34.42,-34.42 -19.02,0 -34.42,15.42 -34.42,34.42 0,19.01 15.4,34.42 34.42,34.42z"/>
   <path class="fil0" d="M3234.63 574.14c19.02,0 34.43,-15.42 34.43,-34.42 0,-19.01 -15.42,-34.42 -34.43,-34.42 -18.99,0 -34.42,15.42 -34.42,34.42 0,19.01 15.43,34.42 34.42,34.42z"/>
   <path class="fil0" d="M3234.63 421.09c-18.99,0 -34.42,15.4 -34.42,34.4 0,19.02 15.43,34.43 34.42,34.43 19.02,0 34.43,-15.42 34.43,-34.43 0,-19.01 -15.42,-34.4 -34.43,-34.4z"/>
   <path class="fil0" d="M3234.63 405.7c19.02,0 34.43,-15.4 34.43,-34.42 0,-19.01 -15.42,-34.42 -34.43,-34.42 -18.99,0 -34.42,15.42 -34.42,34.42 0,19.02 15.43,34.42 34.42,34.42z"/>
   <path class="fil0" d="M3234.63 252.65c-18.99,0 -34.42,15.42 -34.42,34.42 0,19.01 15.43,34.42 34.42,34.42 19.02,0 34.43,-15.42 34.43,-34.42 0,-19.01 -15.42,-34.42 -34.43,-34.42z"/>
   <path class="fil0" d="M3234.63 168.44c-18.99,0 -34.42,15.4 -34.42,34.4 0,19.02 15.43,34.44 34.42,34.44 19.02,0 34.43,-15.42 34.43,-34.44 0,-19.01 -15.42,-34.4 -34.43,-34.4z"/>
   <path class="fil0" d="M3234.63 84.21c-18.99,0 -34.42,15.42 -34.42,34.42 0,19.02 15.43,34.42 34.42,34.42 19.02,0 34.43,-15.4 34.43,-34.42 0,-19.01 -15.42,-34.42 -34.43,-34.42z"/>
   <path class="fil0" d="M3234.63 68.84c19.02,0 34.43,-15.42 34.43,-34.42 0,-19.01 -15.42,-34.42 -34.43,-34.42 -18.99,0 -34.42,15.42 -34.42,34.42 0,19.01 15.43,34.42 34.42,34.42z"/>
   <path class="fil0" d="M2897.77 68.84c19.01,0 34.44,-15.42 34.44,-34.42 0,-19.01 -15.43,-34.42 -34.44,-34.42 -19,0 -34.42,15.42 -34.42,34.42 0,19.01 15.42,34.42 34.42,34.42z"/>
   <path class="fil0" d="M2813.56 68.84c19.01,0 34.42,-15.42 34.42,-34.42 0,-19.01 -15.42,-34.42 -34.42,-34.42 -19.02,0 -34.42,15.42 -34.42,34.42 0,19.01 15.4,34.42 34.42,34.42z"/>
   <path class="fil0" d="M2563.36 153.06c19,0 34.42,-15.4 34.42,-34.42 0,-19.01 -15.42,-34.42 -34.42,-34.42 -19.01,0 -34.42,15.42 -34.42,34.42 0,19.02 15.42,34.42 34.42,34.42z"/>
   <path class="fil0" d="M2645.11 153.06c19.02,0 34.44,-15.4 34.44,-34.42 0,-19.01 -15.42,-34.42 -34.44,-34.42 -18.99,0 -34.4,15.42 -34.4,34.42 0,19.02 15.42,34.42 34.4,34.42z"/>
   <path class="fil0" d="M3150.42 505.3c-19.01,0 -34.4,15.42 -34.4,34.42 0,19.01 15.4,34.42 34.4,34.42 19.02,0 34.42,-15.42 34.42,-34.42 0,-19.01 -15.4,-34.42 -34.42,-34.42z"/>
   <path class="fil0" d="M3150.42 489.93c19.02,0 34.42,-15.42 34.42,-34.43 0,-19.01 -15.4,-34.4 -34.42,-34.4 -19.01,0 -34.4,15.4 -34.4,34.4 0,19.02 15.4,34.43 34.4,34.43z"/>
   <path class="fil0" d="M3150.42 84.21c-19.01,0 -34.4,15.42 -34.4,34.42 0,19.02 15.4,34.42 34.4,34.42 19.02,0 34.42,-15.4 34.42,-34.42 0,-19.01 -15.4,-34.42 -34.42,-34.42z"/>
   <path class="fil0" d="M2730.77 336.87c-19.01,0 -34.42,15.42 -34.42,34.42 0,19.02 15.42,34.42 34.42,34.42 19,0 34.43,-15.4 34.43,-34.42 0,-19.01 -15.43,-34.42 -34.43,-34.42z"/>
   <path class="fil0" d="M2730.77 422.51c-19.01,0 -34.42,15.42 -34.42,34.42 0,19 15.42,34.42 34.42,34.42 19,0 34.43,-15.42 34.43,-34.42 0,-19.01 -15.43,-34.42 -34.43,-34.42z"/>
   <path class="fil0" d="M2645.11 422.51c-18.99,0 -34.4,15.42 -34.4,34.42 0,19 15.42,34.42 34.4,34.42 19.02,0 34.44,-15.42 34.44,-34.42 0,-19.01 -15.42,-34.42 -34.44,-34.42z"/>
   <path class="fil0" d="M2563.36 504.29c-19.01,0 -34.42,15.4 -34.42,34.41 0,19.02 15.42,34.43 34.42,34.43 19,0 34.42,-15.42 34.42,-34.43 0,-19.01 -15.42,-34.41 -34.42,-34.41z"/>
   <path class="fil0" d="M2564.39 256.12c-19.02,0 -34.42,15.42 -34.42,34.42 0,19.02 15.4,34.42 34.42,34.42 19.01,0 34.42,-15.4 34.42,-34.42 0,-19.01 -15.42,-34.42 -34.42,-34.42z"/>
   <path class="fil0" d="M2476.69 252.65c-19.01,0 -34.42,15.42 -34.42,34.42 0,19.01 15.42,34.42 34.42,34.42 19,0 34.42,-15.42 34.42,-34.42 0,-19.01 -15.42,-34.42 -34.42,-34.42z"/>
   <path class="fil0" d="M2392.47 252.65c-19.01,0 -34.42,15.42 -34.42,34.42 0,19.01 15.42,34.42 34.42,34.42 19,0 34.43,-15.42 34.43,-34.42 0,-19.01 -15.43,-34.42 -34.43,-34.42z"/>
   <path class="fil0" d="M1768.54 287.07c0,19.01 15.43,34.42 34.42,34.42 19.02,0 34.44,-15.42 34.44,-34.42 0,-19.01 -15.42,-34.42 -34.44,-34.42 -2.41,0 -4.75,0.25 -7.03,0.73 -3.35,2.92 -6.53,3.89 -9.78,3.83 -10.45,5.91 -17.61,16.99 -17.61,29.86z"/>
   <path class="fil0" d="M1718.74 321.49c19.02,0 34.42,-15.42 34.42,-34.42 0,-19.01 -15.4,-34.42 -34.42,-34.42 -19.01,0 -34.42,15.42 -34.42,34.42 0,19.01 15.42,34.42 34.42,34.42z"/>
   <path class="fil0" d="M1634.59 237.34c19.02,0 34.42,-15.42 34.42,-34.42 0,-19.01 -15.4,-34.42 -34.42,-34.42 -19.01,0 -34.41,15.42 -34.41,34.42 0,19.01 15.4,34.42 34.41,34.42z"/>
   <path class="fil0" d="M1550.32 237.34c19.01,0 34.41,-15.42 34.41,-34.42 0,-19.01 -15.4,-34.42 -34.41,-34.42 -19.02,0 -34.42,15.42 -34.42,34.42 0,19.01 15.4,34.42 34.42,34.42z"/>
   <path class="fil0" d="M1634.59 320.39c19.02,0 34.42,-15.42 34.42,-34.42 0,-19.01 -15.4,-34.42 -34.42,-34.42 -19.01,0 -34.41,15.42 -34.41,34.42 0,19.01 15.4,34.42 34.41,34.42z"/>
   <path class="fil0" d="M1550.32 320.39c19.01,0 34.41,-15.42 34.41,-34.42 0,-19.01 -15.4,-34.42 -34.41,-34.42 -19.02,0 -34.42,15.42 -34.42,34.42 0,19.01 15.4,34.42 34.42,34.42z"/>
  </g>
 </g>
</svg>
