<?xml version="1.0" encoding="utf-8"?>
<!-- Generator: Adobe Illustrator 27.7.0, SVG Export Plug-In . SVG Version: 6.00 Build 0)  -->
<svg version="1.1" id="Warstwa_1" xmlns="http://www.w3.org/2000/svg" xmlns:xlink="http://www.w3.org/1999/xlink" x="0px" y="0px"
	 viewBox="0 0 610.3 458.7" style="enable-background:new 0 0 610.3 458.7;" xml:space="preserve">
<style type="text/css">
	.st0{fill-rule:evenodd;clip-rule:evenodd;fill:#3B71B8;}
	.st1{fill:#4A9279;}
	.st2{font-family:'OpenSans-Extrabold';}
	.st3{font-size:237.5917px;}
	.st4{fill:none;stroke:#FFFFFF;stroke-width:8.7704;stroke-miterlimit:10;}
</style>
<g id="Icon">
	<path class="st0" d="M348.8,15.9l-24.2,31.9c-2.1,2.8-5.9,3.8-9.3,2.7l-39.2-12.2c-12-3.7-25.2-1.7-35.4,5.4
		c-10.6,7.3-16.8,19.2-16.8,31.7v39.4c0,3.1-2.3,5.6-5.3,6.5l-39.2,12.2c-12.3,3.8-21.8,13.1-25.8,24.9c-4.1,12-1.9,25.2,5.8,35.4
		l24.2,31.9c1.7,2.3,1.7,5.3,0,7.6l-24.2,31.9c-7.8,10.2-9.9,23.4-5.8,35.4c4,11.8,13.5,21.1,25.8,24.9l39.2,12.2
		c3,1,5.3,3.5,5.3,6.5v39.2c0,12.5,6.2,24.3,16.8,31.7c10.2,7.1,23.4,9.1,35.4,5.4l39.2-12.2c3.4-1.1,7.2-0.1,9.3,2.7l24.2,31.9
		c7.5,9.9,19.4,15.8,32.1,15.8s24.7-5.9,32.1-15.8l24.2-31.9c2.1-2.8,5.9-3.8,9.3-2.7l39.2,12.2c12,3.7,25.2,1.7,35.4-5.4
		c10.6-7.4,16.8-19.2,16.8-31.7V344c0-3.1,2.3-5.6,5.3-6.5l39.2-12.2c12.3-3.8,21.8-13.1,25.8-24.9c4.1-12,1.9-25.2-5.8-35.4
		l-24.2-31.9c-1.7-2.3-1.7-5.3,0-7.6l24.2-31.9c7.8-10.2,9.9-23.4,5.8-35.4c-4-11.8-13.5-21.1-25.8-24.9l-39.2-12.2
		c-3-1-5.3-3.5-5.3-6.5V75.4c0-12.5-6.2-24.3-16.8-31.7c-10.2-7.1-23.4-9.1-35.4-5.4l-39.1,12.1c-3.4,1.1-7.2,0.1-9.3-2.7
		l-24.2-31.9C405.6,5.9,393.7,0,381,0C368.2,0.1,356.2,6,348.8,15.9L348.8,15.9z M461.3,269.7c-12.5-12.5-32.8-12.5-45.3,0
		s-12.5,32.8,0,45.2c12.5,12.5,32.8,12.5,45.3,0C473.8,302.5,473.8,282.2,461.3,269.7z M445,142.7L294.2,293.5
		c-6.3,6.3-6.3,16.4,0,22.6c6.3,6.3,16.4,6.3,22.6,0l150.8-150.8c6.3-6.3,6.3-16.4,0-22.6S451.3,136.4,445,142.7L445,142.7z
		 M345.8,143.9c-12.5-12.5-32.8-12.5-45.3,0s-12.5,32.8,0,45.2c12.5,12.5,32.8,12.5,45.3,0S358.3,156.3,345.8,143.9L345.8,143.9z"/>
</g>
<text transform="matrix(1 0 0 1 4.3853 308.6512)" class="st1 st2 st3">20</text>
<text transform="matrix(1 0 0 1 4.3853 308.6512)" class="st4 st2 st3">20</text>
</svg>
