<?xml version="1.0" encoding="UTF-8" standalone="no"?>
<!-- Generator: Adobe Illustrator 27.7.0, SVG Export Plug-In . SVG Version: 6.00 Build 0)  -->

<svg
   version="1.1"
   id="Capa_1"
   x="0px"
   y="0px"
   viewBox="0 0 118.8 117.2"
   style="enable-background:new 0 0 118.8 117.2;"
   xml:space="preserve"
   xmlns="http://www.w3.org/2000/svg"
   xmlns:svg="http://www.w3.org/2000/svg"><defs
   id="defs13">
	
</defs>
<style
   type="text/css"
   id="style2">
	.st0{fill:#4A9279;}
	.st1{font-family:'OpenSans-Bold';}
	.st2{font-size:69.7124px;}
	.st3{fill:#3B71B8;}
</style>
<path
   d="m 66.728079,57.882182 q 0,5.276085 -4.007956,8.782128 -4.007955,3.472005 -10.500182,4.118751 V 83.105272 H 48.311356 V 70.953257 Q 43.93904,70.919218 40.096702,70.102276 36.254365,69.251294 33.438858,67.923763 V 61.18399 h 0.529978 q 0.629349,0.476549 2.252405,1.395609 1.623057,0.885021 3.146742,1.463688 1.722428,0.646746 4.007956,1.225414 2.318653,0.544628 4.935417,0.646746 V 51.176448 q -1.324944,-0.272314 -2.451147,-0.510589 -1.126202,-0.272314 -2.086786,-0.544628 -5.399147,-1.39561 -7.750924,-4.186829 -2.351775,-2.825259 -2.351775,-6.944009 0,-5.03781 3.842338,-8.509815 3.875461,-3.472004 10.798294,-4.050672 v -9.258678 h 3.908585 v 9.1906 q 3.345484,0.06808 6.856587,0.816942 3.511101,0.748864 5.896001,1.736002 v 6.671695 h -0.463731 q -2.48427,-1.565806 -5.200406,-2.75718 -2.683012,-1.225413 -7.088451,-1.531767 v 14.670921 q 0.993709,0.170196 2.153035,0.47655 1.159326,0.272314 2.02054,0.44251 4.935416,1.089256 7.618428,3.744318 2.716135,2.655063 2.716135,7.250363 z M 48.311356,45.389774 V 31.33156 q -3.544225,0.272314 -5.962248,2.008316 -2.418023,1.701963 -2.418023,4.765496 0,3.097573 1.788674,4.663379 1.788675,1.565806 6.591597,2.621023 z m 12.156362,13.377428 q 0,-3.19969 -1.954292,-4.663378 -1.921169,-1.497728 -6.293485,-2.348709 v 14.092253 q 3.974833,-0.408471 6.094744,-2.076395 2.153033,-1.667923 2.153033,-5.003771 z"
   id="path952"
   style="font-size:69.7124px;font-family:OpenSans-Bold;fill:#4a9279;stroke-width:0.986458" />
<path
   class="st3"
   d="M 116,100.8 88.7,73.5 C 93.3,66.1 96,57.4 96,48 96,21.5 74.5,0 48,0 21.5,0 0,21.5 0,48 0,74.5 21.5,96 48,96 58.2,96 67.6,92.8 75.4,87.4 l 27,27 c 1.9,1.9 4.3,2.8 6.8,2.8 2.5,0 4.9,-0.9 6.8,-2.8 3.7,-3.8 3.7,-9.9 0,-13.6 z M 48,80.4 C 30.1,80.4 15.6,65.9 15.6,48 15.6,30.1 30.1,15.6 48,15.6 65.9,15.6 80.4,30.1 80.4,48 80.4,65.9 65.9,80.4 48,80.4 Z"
   id="path6" />
</svg>
