<?xml version="1.0" encoding="utf-8"?>
<!-- Generator: Adobe Illustrator 27.7.0, SVG Export Plug-In . SVG Version: 6.00 Build 0)  -->
<svg version="1.1" id="Layer_1" xmlns="http://www.w3.org/2000/svg" xmlns:xlink="http://www.w3.org/1999/xlink" x="0px" y="0px"
	 viewBox="0 0 512 512" style="enable-background:new 0 0 512 512;" xml:space="preserve">
<style type="text/css">
	.st0{fill:#3B71B8;}
	.st1{fill:#4A9279;}
</style>
<g>
	<path class="st0" d="M347,182c-91,0-165,74-165,165s74,165,165,165s165-74,165-165S438,182,347,182z M347,332c24.8,0,45,20.2,45,45
		c0,19.5-12.6,36-30,42.2V452h-30v-32.8c-17.4-6.2-30-22.7-30-42.2h30c0,8.3,6.7,15,15,15s15-6.7,15-15s-6.7-15-15-15
		c-24.8,0-45-20.2-45-45c0-19.5,12.6-36,30-42.2V242h30v32.8c17.4,6.2,30,22.7,30,42.2h-30c0-8.3-6.7-15-15-15s-15,6.7-15,15
		S338.7,332,347,332z"/>
	<path class="st1" d="M167,182c92.5,0,165-39.5,165-90S259.5,0,167,0S0,41.5,0,92S74.5,182,167,182z"/>
	<path class="st1" d="M0,337.6V362c0,50.5,74.5,90,167,90c5.2,0,10.3-0.5,15.5-0.7c-11.5-18.1-20.1-38.2-25.1-59.6
		C90.5,389.8,32.4,369.2,0,337.6z"/>
	<path class="st1" d="M152.7,361.2c-0.3-4.7-0.7-9.4-0.7-14.2c0-15.6,2-30.8,5.5-45.4c-67-1.8-125.2-22.4-157.5-54.1V272
		C0,319.8,67.3,357.3,152.7,361.2z"/>
	<path class="st1" d="M167,272L167,272c9.9-23.6,24.3-45,42.2-62.8c-13.5,1.7-27.5,2.8-42.2,2.8c-71.2,0-133.1-21.2-167-54.4V182
		C0,232.5,74.5,272,167,272z"/>
</g>
</svg>
