<?xml version="1.0" encoding="utf-8"?>
<!-- Generator: Adobe Illustrator 27.7.0, SVG Export Plug-In . SVG Version: 6.00 Build 0)  -->
<svg version="1.1" id="Warstwa_1" xmlns="http://www.w3.org/2000/svg" xmlns:xlink="http://www.w3.org/1999/xlink" x="0px" y="0px"
	 viewBox="0 0 469.3 341.3" style="enable-background:new 0 0 469.3 341.3;" xml:space="preserve">
<style type="text/css">
	.st0{fill:#3B71B8;}
	.st1{fill:#4A9279;}
</style>
<path class="st0" d="M469.3,320c0,11.8-9.6,21.3-21.3,21.3H192c-11.8,0-21.3-9.6-21.3-21.3c0-70.7,57.3-128,128-128h42.7
	C412,192,469.3,249.3,469.3,320z M319.9,0c-47.1,0-85.3,38.2-85.3,85.3s38.2,85.3,85.3,85.3s85.3-38.2,85.3-85.3S367.1,0,319.9,0z"
	/>
<path class="st1" d="M213.3,85.4c0-47.1-38.2-85.3-85.3-85.3S42.6,38.2,42.6,85.4s38.2,85.3,85.3,85.3S213.3,132.5,213.3,85.4"/>
<path class="st1" d="M178.1,199.5c-13-4.9-26.8-7.4-40.7-7.5h-18.8C53.1,192.1,0.1,245.2,0,310.6v9.4c0,11.8,9.6,21.3,21.3,21.3
	h110.5c-2.5-6.8-3.8-14.1-3.8-21.3l0,0C127.9,274.8,145.9,231.4,178.1,199.5"/>
</svg>
