<?xml version="1.0" encoding="utf-8"?>
<!-- Generator: Adobe Illustrator 27.7.0, SVG Export Plug-In . SVG Version: 6.00 Build 0)  -->
<svg version="1.1" id="Warstwa_1" xmlns="http://www.w3.org/2000/svg" xmlns:xlink="http://www.w3.org/1999/xlink" x="0px" y="0px"
	 viewBox="0 0 730.5 463.5" style="enable-background:new 0 0 730.5 463.5;" xml:space="preserve">
<style type="text/css">
	.st0{fill:#3B71B8;}
	.st1{fill:#4A9279;stroke:#FFFFFF;stroke-width:13;stroke-miterlimit:10;}
</style>
<path class="st0" d="M471.4,44.6C444.9,15.8,408.5,0,369,0c-29.6,0-56.6,9.3-80.4,27.8c-12,9.3-22.9,20.7-32.5,34
	c-9.6-13.3-20.5-24.7-32.5-34C199.6,9.3,172.6,0,143,0C103.5,0,67.1,15.8,40.6,44.6C14.4,73,0,111.8,0,153.9
	c0,43.3,16.1,82.9,50.8,124.7c31,37.4,75.5,75.4,127.1,119.3c17.6,15,37.6,32,58.3,50.2c5.5,4.8,12.5,7.4,19.8,7.4
	c7.3,0,14.3-2.6,19.8-7.4c20.7-18.1,40.7-35.2,58.3-50.2c51.6-43.9,96.1-81.9,127.1-119.3c34.6-41.8,50.8-81.4,50.8-124.7
	C512,111.8,497.6,73,471.4,44.6z"/>
<path class="st1" d="M690.4,116.7c-21.9-23.9-52.1-36.9-84.8-36.9c-24.5,0-46.9,7.7-66.6,23c-9.9,7.7-19,17.1-26.9,28.2
	c-8-11-17-20.5-26.9-28.2c-19.9-15.3-42.2-23-66.8-23c-32.7,0-62.9,13.1-84.8,36.9c-21.7,23.5-33.6,55.7-33.6,90.5
	c0,35.9,13.3,68.7,42.1,103.3c25.7,31,62.5,62.5,105.3,98.8c14.6,12.4,31.1,26.5,48.3,41.6c4.6,4,10.4,6.1,16.4,6.1
	c6,0,11.8-2.2,16.4-6.1c17.1-15,33.7-29.2,48.3-41.6c42.7-36.4,79.6-67.8,105.3-98.8c28.7-34.6,42.1-67.4,42.1-103.3
	C724,172.3,712.1,140.2,690.4,116.7z"/>
</svg>
