<?xml version="1.0" encoding="UTF-8" standalone="no"?>
<!-- Created with Inkscape (http://www.inkscape.org/) -->

<svg
   version="1.1"
   id="svg2"
   width="3333.3333"
   height="3333.3333"
   viewBox="0 0 3333.3333 3333.3333"
   sodipodi:docname="o-nas.ai"
   xmlns:inkscape="http://www.inkscape.org/namespaces/inkscape"
   xmlns:sodipodi="http://sodipodi.sourceforge.net/DTD/sodipodi-0.dtd"
   xmlns="http://www.w3.org/2000/svg"
   xmlns:svg="http://www.w3.org/2000/svg">
  <defs
     id="defs6">
    <clipPath
       clipPathUnits="userSpaceOnUse"
       id="clipPath16">
      <path
         d="M 0,2500 H 2500 V 0 H 0 Z"
         id="path14" />
    </clipPath>
  </defs>
  <sodipodi:namedview
     id="namedview4"
     pagecolor="#ffffff"
     bordercolor="#000000"
     borderopacity="0.25"
     inkscape:showpageshadow="2"
     inkscape:pageopacity="0.0"
     inkscape:pagecheckerboard="0"
     inkscape:deskcolor="#d1d1d1" />
  <g
     id="g8"
     inkscape:groupmode="layer"
     inkscape:label="o-nas"
     transform="matrix(1.3333333,0,0,-1.3333333,0,3333.3333)">
    <g
       id="g10">
      <g
         id="g12"
         clip-path="url(#clipPath16)">
        <g
           id="g18"
           transform="translate(2091.104,1722.5201)">
          <path
             d="m 0,0 c 236.583,-345.674 63.738,-767.304 -207.999,-998.064 -356.017,-302.331 -941.021,-327.342 -1287.826,-113.848 -144.196,88.768 -343.968,274.1 -317.04,471.97 22.824,167.712 187.073,190.081 444.434,469.315 291.81,316.611 233.264,453.441 417.365,527.328 C -676.728,466.804 -205.315,299.988 0,0"
             style="fill:#caddff;fill-opacity:1;fill-rule:nonzero;stroke:none"
             id="path20" />
        </g>
        <g
           id="g22"
           transform="translate(823.0456,980.1669)">
          <path
             d="m 0,0 -300.982,2.92 c -54.427,0 -100.979,34.653 -110.513,87.404 l -51.527,285.101 c -6.138,33.965 20.394,65.141 55.439,65.141 h 196.386 z"
             style="fill:#3e6eb4;fill-opacity:1;fill-rule:nonzero;stroke:none"
             id="path24" />
        </g>
        <g
           id="g26"
           transform="translate(643.4843,559.7085)">
          <path
             d="M 0,0 H -49.517 V 429.932 L 0,427.685 Z"
             style="fill:#3e6eb4;fill-opacity:1;fill-rule:nonzero;stroke:none"
             id="path28" />
        </g>
        <g
           id="g30"
           transform="translate(439.8103,574.7976)">
          <path
             d="m 0,0 169.379,23.113 h 15.532 L 357.831,0 V -18.334 H 0 Z"
             style="fill:#3c72b9;fill-opacity:1;fill-rule:nonzero;stroke:none"
             id="path32" />
        </g>
        <g
           id="g34"
           transform="translate(428.9537,1173.4293)">
          <path
             d="m 0,0 c -1.448,0 -2.733,1.034 -2.999,2.51 l -24.976,138.398 c -0.298,1.658 0.802,3.245 2.461,3.544 1.649,0.3 3.246,-0.801 3.546,-2.46 L 3.007,3.593 C 3.305,1.935 2.205,0.348 0.546,0.049 0.363,0.016 0.181,0 0,0"
             style="fill:#caddff;fill-opacity:1;fill-rule:nonzero;stroke:none"
             id="path36" />
        </g>
        <g
           id="g38"
           transform="translate(1165.0697,1867.4038)">
          <path
             d="m 0,0 c 0,0 57.759,-11.849 114.311,26.59 56.552,38.439 92.309,65.262 92.309,65.262 0,0 0.104,21.143 12.211,29.988 12.108,8.844 19.295,38.959 28.782,38.751 l -3.397,-34.139 c 0,0 28.728,13.6 43.436,21.896 14.707,8.297 24.767,3.371 24.767,3.371 0,0 -50.91,-62.696 -67.306,-68.511 C 228.718,77.393 220.08,53.326 210.942,41.084 l -9.138,-12.242 c 0,0 -67.684,-114.022 -201.804,-103.016 z"
             style="fill:#ffffff;fill-opacity:1;fill-rule:nonzero;stroke:none"
             id="path40" />
        </g>
        <g
           id="g42"
           transform="translate(1168.3798,1796.3014)">
          <path
             d="m 0,0 c 66.543,-4.527 115.836,22.798 145.62,46.735 32.904,26.444 49.861,54.619 50.029,54.901 0.058,0.099 0.122,0.196 0.192,0.289 l 9.137,12.242 c 2.493,3.341 5.017,7.724 7.69,12.365 7.109,12.345 15.166,26.337 28.03,30.899 11.833,4.197 46.48,44.022 62.536,63.449 -3.796,0.373 -9.797,-0.098 -17.265,-4.313 -14.642,-8.259 -43.357,-21.868 -43.646,-22.005 -1.08,-0.51 -2.345,-0.401 -3.324,0.287 -0.974,0.687 -1.504,1.846 -1.386,3.034 l 2.723,27.358 c -2.445,-3.254 -5.145,-8.443 -7.335,-12.654 -4.533,-8.707 -9.217,-17.71 -15.526,-22.318 -10.592,-7.739 -10.853,-27.14 -10.855,-27.335 -0.006,-1.033 -0.498,-2.008 -1.323,-2.628 -0.358,-0.269 -36.467,-27.31 -92.435,-65.352 C 63.664,61.512 14.23,65.23 0,67.205 Z m 14.549,-7.12 c -5.904,0 -11.941,0.241 -18.132,0.749 -1.717,0.141 -3.039,1.576 -3.039,3.299 v 74.174 c 0,0.994 0.449,1.935 1.218,2.564 0.77,0.629 1.791,0.878 2.755,0.68 0.567,-0.114 57.135,-11.065 111.79,26.085 49.988,33.978 84.076,59.144 90.918,64.23 0.308,5.483 2.175,22.674 13.51,30.954 5.057,3.694 9.572,12.372 13.558,20.029 5.447,10.472 10.163,19.541 17.25,19.359 0.92,-0.02 1.793,-0.424 2.406,-1.114 0.612,-0.691 0.907,-1.605 0.814,-2.524 l -2.812,-28.286 c 8.986,4.326 27.285,13.25 37.929,19.255 16.045,9.05 27.374,3.693 27.851,3.461 0.905,-0.444 1.558,-1.276 1.776,-2.262 0.218,-0.985 -0.028,-2.015 -0.664,-2.799 -5.27,-6.491 -51.981,-63.59 -68.768,-69.544 -10.557,-3.744 -17.966,-16.611 -24.503,-27.963 -2.772,-4.816 -5.393,-9.364 -8.122,-13.021 L 201.249,98.099 C 199.707,95.545 182.811,68.186 149.964,41.731 121.503,18.81 75.762,-7.12 14.549,-7.12"
             style="fill:#000000;fill-opacity:1;fill-rule:nonzero;stroke:none"
             id="path44" />
        </g>
        <g
           id="g46"
           transform="translate(1197.9078,1874.7144)">
          <path
             d="m 0,0 c 1.397,0.212 2.807,-0.288 3.758,-1.332 0.952,-1.044 1.32,-2.496 0.978,-3.866 l -28.335,-113.655 c 0,0 -62.566,9.559 -65.78,-16.883 -3.215,-26.441 5.002,-111.303 8.422,-141.804 3.42,-30.5 8.998,-67.905 -30.574,-77.587 -39.573,-9.682 -183.873,19.781 -221.674,3.554 -37.801,-16.226 -51.22,1.356 -48.09,29.948 3.13,28.592 10.751,159.38 10.751,159.38 l -26.467,-86.229 -72.183,7.649 c 0,0 15.948,188.672 111.778,224.736 95.829,36.065 138.025,37.681 209.616,31.74 C -80.696,10.082 -32.677,-4.963 0,0"
             style="fill:#3e6eb4;fill-opacity:1;fill-rule:nonzero;stroke:none"
             id="path48" />
        </g>
        <g
           id="g50"
           transform="translate(1197.9073,1874.7144)">
          <path
             d="m 0,0 h 0.021 z m -365.637,-134.98 -1.601,-27.457 c -0.076,-1.309 -7.663,-131.201 -10.765,-159.549 -1.077,-9.835 -0.618,-22.849 7.684,-28.993 7.228,-5.351 19.613,-4.504 35.809,2.448 21.514,9.237 74.197,4.394 125.152,-0.289 40.995,-3.769 79.724,-7.327 97.039,-3.091 35.49,8.682 31.724,41.833 28.403,71.081 l -0.33,2.921 c -0.125,1.102 -12.31,110.586 -8.419,142.573 0.636,5.233 3.226,9.607 7.701,13.003 15.103,11.458 48.601,8.413 58.87,7.156 L 1.524,-4.397 c 0.073,0.297 -0.007,0.609 -0.214,0.836 -0.204,0.225 -0.517,0.333 -0.812,0.288 -19.559,-2.97 -43.829,0.935 -74.549,5.881 -21.638,3.484 -46.161,7.432 -74.023,9.744 -70.849,5.88 -111.952,4.674 -208.176,-31.539 -86.007,-32.368 -106.637,-193.759 -109.32,-218.693 l 66.196,-7.015 z m 7.462,-226.126 c -6.382,0 -11.756,1.601 -16.084,4.805 -8.57,6.343 -12.141,18.459 -10.326,35.036 2.196,20.063 6.668,91.585 9.091,131.604 l -19.151,-62.393 -78.12,8.278 0.271,3.229 c 0.041,0.475 4.201,48.12 20.089,99.543 21.203,68.628 53.647,112.895 93.823,128.014 97.043,36.522 140.771,37.774 211.056,31.94 28.114,-2.333 52.772,-6.302 74.527,-9.804 30.148,-4.854 53.968,-8.689 72.501,-5.873 2.511,0.378 5.001,-0.508 6.704,-2.374 1.702,-1.872 2.353,-4.451 1.741,-6.9 l -29.062,-116.579 -2.983,0.454 c -0.414,0.064 -41.521,6.166 -56.865,-5.484 -3.033,-2.303 -4.712,-5.091 -5.128,-8.525 -3.151,-25.914 5.013,-110.594 8.423,-141.037 l 0.33,-2.911 c 3.451,-30.382 7.747,-68.192 -33.407,-78.26 -18.393,-4.5 -57.655,-0.892 -99.22,2.929 -47.793,4.394 -101.964,9.372 -121.932,0.799 -10.079,-4.326 -18.859,-6.491 -26.278,-6.491"
             style="fill:#000000;fill-opacity:1;fill-rule:nonzero;stroke:none"
             id="path52" />
        </g>
        <g
           id="g54"
           transform="translate(939.5183,2038.9534)">
          <path
             d="m 0,0 c -5.813,-10.831 -2.93,-24.129 7.36,-31.117 11.321,-7.688 24.151,-18.852 31.497,-33.304 15.243,-29.985 -2.922,-49.912 -49.583,-46.928 -46.659,2.987 -48.132,-4.167 -90.354,-24.515 -42.22,-20.349 -59.956,-9.089 -60.806,27.649 -0.848,36.738 40.009,81.732 59.329,88.662 1.718,0.617 4.755,2.451 8.844,5.245 16.269,11.118 20.083,22.626 27.289,29.874 17.922,18.023 62.157,14.886 68.57,0.251 C 3.924,11.759 3.498,6.517 0,0"
             style="fill:#000000;fill-opacity:1;fill-rule:nonzero;stroke:none"
             id="path56" />
        </g>
        <g
           id="g58"
           transform="translate(842.4109,2058.9419)">
          <path
             d="m 0,0 c 12.378,-10.032 19.418,-28.692 12.71,-36.555 -6.709,-7.863 -24.625,-1.952 -37.004,8.08 -12.378,10.033 -14.531,20.388 -7.822,28.251 C -25.408,7.639 -12.378,10.032 0,0"
             style="fill:#000000;fill-opacity:1;fill-rule:nonzero;stroke:none"
             id="path60" />
        </g>
        <g
           id="g62"
           transform="translate(852.7363,1975.2582)">
          <path
             d="m 0,0 c 2.521,1.945 6.084,2.031 9.67,0.676 0.969,5.916 2.296,10.878 2.296,10.878 -1.215,24.864 44.802,33.528 44.802,33.528 h 1.778 c 6.568,-8.471 11.429,-16.243 14.998,-23.351 0.965,-1.922 2.356,-3.609 4.132,-4.868 l 7.687,-5.446 c 2.631,-1.864 3.083,-5.515 0.983,-7.936 l -4.414,-5.089 c 10.236,-31.096 -8.694,-34.368 -8.694,-34.368 -2.734,-0.674 -5.385,-1.112 -7.976,-1.412 6.295,-16.609 22.445,-46.748 57.428,-49.595 3.718,-0.303 5.31,-4.725 2.482,-7.096 -14.726,-12.351 -51.239,-35.669 -107.795,-24.665 -4.089,0.796 -5.298,5.857 -2.051,8.407 11.244,8.829 25.514,30.786 8.8,82.803 -1.921,1.22 -3.638,2.423 -5.078,3.524 C 14.407,-27.236 6.592,-24.784 1.359,-18.343 -3.99,-11.763 -4.598,-3.55 0,0"
             style="fill:#ffffff;fill-opacity:1;fill-rule:nonzero;stroke:none"
             id="path64" />
        </g>
        <g
           id="g66"
           transform="translate(871.7843,1954.559)">
          <path
             d="m 0,0 c 0.709,0 1.418,-0.228 2.011,-0.681 1.436,-1.097 3.108,-2.258 4.841,-3.359 0.653,-0.414 1.143,-1.045 1.378,-1.782 17.556,-54.64 1.327,-77.598 -9.907,-86.42 -0.666,-0.522 -0.631,-1.149 -0.552,-1.477 0.08,-0.331 0.341,-0.91 1.19,-1.076 56.031,-10.901 92.118,13.119 105.036,23.952 0.17,0.143 0.331,0.333 0.226,0.66 -0.052,0.163 -0.239,0.55 -0.851,0.599 -36.495,2.97 -53.415,33.68 -60.254,51.722 -0.362,0.955 -0.263,2.023 0.267,2.895 0.53,0.872 1.433,1.45 2.449,1.568 2.707,0.312 5.181,0.75 7.563,1.337 0.076,0.019 0.153,0.035 0.229,0.048 0.135,0.027 4.199,0.871 6.787,5.294 3.132,5.355 2.899,13.922 -0.672,24.776 -0.365,1.107 -0.121,2.324 0.642,3.204 l 4.412,5.089 c 0.395,0.452 0.572,1.018 0.502,1.594 -0.071,0.59 -0.39,1.113 -0.896,1.471 l -7.687,5.447 C 54.557,36.39 52.766,38.494 51.537,40.947 48.052,47.886 43.465,55.11 37.891,62.438 33.323,61.487 -4.776,52.914 -3.776,32.414 -3.759,32.072 -3.796,31.73 -3.884,31.399 -3.897,31.351 -5.182,26.51 -6.111,20.84 c -0.161,-0.98 -0.752,-1.836 -1.612,-2.332 -0.86,-0.496 -1.895,-0.581 -2.826,-0.229 -2.653,1.002 -5.013,0.927 -6.475,-0.2 -0.978,-0.756 -1.567,-1.923 -1.746,-3.468 -0.355,-3.065 1.044,-6.96 3.65,-10.166 4.42,-5.442 10.417,-6.998 13.23,-5.037 C -1.321,-0.197 -0.659,0 0,0 m 26.963,-104.193 c -9.092,0 -18.854,0.873 -29.265,2.899 -3.179,0.618 -5.617,2.925 -6.365,6.021 -0.746,3.091 0.366,6.248 2.899,8.239 9.81,7.701 23.816,28.057 8.053,78.062 -0.899,0.588 -1.763,1.179 -2.591,1.771 -6.066,-2.385 -14.349,0.575 -19.953,7.47 -3.748,4.611 -5.65,10.258 -5.087,15.105 0.386,3.337 1.864,6.085 4.274,7.946 0.002,0 0.002,0.001 0.002,0.001 2.445,1.884 5.613,2.611 9.062,2.136 0.662,3.397 1.326,6.089 1.599,7.158 -0.722,27.022 45.534,36.046 47.517,36.42 0.203,0.038 0.408,0.057 0.613,0.057 h 1.778 c 1.024,0 1.989,-0.474 2.616,-1.282 6.292,-8.117 11.455,-16.156 15.341,-23.894 0.744,-1.487 1.81,-2.749 3.086,-3.652 l 7.687,-5.447 c 2.022,-1.431 3.349,-3.649 3.643,-6.083 0.291,-2.42 -0.466,-4.871 -2.074,-6.724 l -3.196,-3.687 c 3.7,-12.156 3.504,-21.764 -0.589,-28.578 -3.893,-6.481 -9.997,-8.022 -11.096,-8.252 -1.326,-0.326 -2.673,-0.609 -4.063,-0.854 7.115,-16.759 22.615,-41.146 53.056,-43.623 3.1,-0.252 5.699,-2.29 6.624,-5.19 0.903,-2.838 0.028,-5.805 -2.282,-7.743 -11.228,-9.417 -39.012,-28.275 -81.289,-28.276"
             style="fill:#000000;fill-opacity:1;fill-rule:nonzero;stroke:none"
             id="path68" />
        </g>
        <g
           id="g70"
           transform="translate(910.9878,1934.0198)">
          <path
             d="m 0,0 c -15.198,0 -21.636,7.658 -21.94,8.031 -1.156,1.418 -0.942,3.504 0.476,4.659 1.41,1.146 3.475,0.944 4.636,-0.45 0.319,-0.37 6.786,-7.57 23.353,-5.114 1.797,0.269 3.489,-0.981 3.759,-2.79 C 10.553,2.528 9.303,0.844 7.495,0.576 4.792,0.175 2.296,0 0,0"
             style="fill:#000000;fill-opacity:1;fill-rule:nonzero;stroke:none"
             id="path72" />
        </g>
        <g
           id="g74"
           transform="translate(1175.0325,908.6678)">
          <path
             d="m 0,0 c -3.84,-1.227 -7.703,-2.13 -11.565,-2.817 -19.269,-3.378 -38.074,-0.754 -48.492,1.418 -5.209,1.055 -8.321,2.002 -8.321,2.002 -30.327,106.896 -29.333,215.848 -29.333,215.848 0,0 -23.375,35.841 -36.861,91.259 -3.377,13.918 -7.548,29.171 -12.051,44.595 -3.509,12.025 -7.195,24.181 -10.882,35.906 -14.61,46.639 -28.826,86.675 -28.826,86.675 l 2.671,-75.705 1.655,-46.876 12.714,-359.369 c -4.701,-0.882 -9.292,-1.462 -13.706,-1.786 -17.724,-1.334 -32.931,1.29 -43.482,4.13 -9.822,2.647 -15.605,5.465 -15.605,5.465 2.273,53.372 -35.028,217.406 -63.324,351.56 -4.568,21.641 -8.917,42.532 -12.802,62.021 -7.195,35.969 -12.89,67.293 -15.803,90.247 -0.199,1.592 -0.398,3.14 -0.574,4.647 -0.795,6.84 -1.302,12.821 -1.501,17.834 -0.176,4.71 -0.221,9.292 -0.176,13.746 0.021,1.42 0.065,2.84 0.132,4.237 0.353,11.122 1.479,21.471 3.112,30.979 2.163,12.67 5.252,23.899 8.674,33.666 5.518,15.769 11.963,27.687 16.973,35.606 0.287,0.472 0.574,0.924 0.862,1.355 4.414,6.819 7.525,10.281 7.525,10.281 0,0 14.701,-4.989 50.479,-2.689 1.523,0.109 3.112,0.216 4.724,0.345 6.202,0.495 12.978,1.182 20.35,2.151 7.747,1.012 15.914,1.807 24.234,2.454 10.132,0.752 20.462,1.269 30.504,1.59 9.623,0.324 18.982,0.475 27.612,0.496 h 0.044 c 5.894,0.021 11.478,0 16.554,-0.021 3.399,-0.044 6.6,-0.109 9.513,-0.151 12.295,-0.238 20.02,-0.58 20.02,-0.58 0,0 0.242,-0.755 0.683,-2.175 0.288,-0.859 0.64,-1.979 1.061,-3.334 2.338,-7.378 6.864,-21.899 12.712,-41.454 4.084,-13.727 8.808,-29.924 13.884,-47.931 1.809,-6.411 3.664,-13.08 5.562,-19.943 0.265,-0.945 0.529,-1.914 0.794,-2.882 3.245,-11.874 6.6,-24.351 9.955,-37.217 0.308,-1.162 0.596,-2.324 0.904,-3.506 12.317,-47.459 24.655,-100.078 33.572,-149.772 3.443,-19.147 6.357,-37.861 8.564,-55.674 C 11.324,146.773 0,0 0,0"
             style="fill:#000000;fill-opacity:1;fill-rule:nonzero;stroke:none"
             id="path76" />
        </g>
        <g
           id="g78"
           transform="translate(1115.5774,1066.5172)">
          <path
             d="M 0,0 C -1.039,0 -2.063,0.489 -2.707,1.404 L -28.67,38.23 c -1.054,1.494 -0.696,3.559 0.798,4.614 1.493,1.051 3.559,0.697 4.612,-0.799 L 2.703,5.219 C 3.757,3.725 3.399,1.659 1.905,0.605 1.326,0.197 0.66,0 0,0"
             style="fill:#ffffff;fill-opacity:1;fill-rule:nonzero;stroke:none"
             id="path80" />
        </g>
        <g
           id="g82"
           transform="translate(940.9724,1156.0625)">
          <path
             d="m 0,0 c -9.184,0 -20.861,1.748 -30.607,8.795 -1.481,1.072 -1.815,3.141 -0.744,4.623 1.075,1.482 3.145,1.814 4.623,0.743 C -10.325,2.298 13.795,8.052 14.036,8.111 15.817,8.547 17.606,7.467 18.043,5.692 18.483,3.918 17.403,2.125 15.629,1.684 15.092,1.551 8.652,0 0,0"
             style="fill:#ffffff;fill-opacity:1;fill-rule:nonzero;stroke:none"
             id="path84" />
        </g>
        <g
           id="g86"
           transform="translate(875.3064,1539.0624)">
          <path
             d="M 0,0 H 197.56 L 110.286,209.421 H -87.274 Z"
             style="fill:#ffffff;fill-opacity:1;fill-rule:nonzero;stroke:none"
             id="path88" />
        </g>
        <g
           id="g90"
           transform="translate(877.5136,1542.3734)">
          <path
             d="M 0,0 H 190.387 L 105.872,202.799 H -84.516 Z M 195.353,-6.622 H -2.207 c -1.337,0 -2.542,0.804 -3.057,2.038 l -87.274,209.42 c -0.425,1.022 -0.313,2.189 0.302,3.11 0.614,0.921 1.646,1.475 2.754,1.475 h 197.561 c 1.336,0 2.541,-0.804 3.056,-2.038 L 198.41,-2.037 c 0.425,-1.022 0.312,-2.189 -0.302,-3.11 -0.614,-0.921 -1.647,-1.475 -2.755,-1.475"
             style="fill:#000000;fill-opacity:1;fill-rule:nonzero;stroke:none"
             id="path92" />
        </g>
        <g
           id="g94"
           transform="translate(949.9077,1605.0122)">
          <path
             d="M 0,0 C 0,0 34.418,19.654 50.059,23.832 65.7,28.009 53.849,15.133 42.592,9.881 31.334,4.628 30.983,-2.282 30.983,-2.282 c 0,0 61.566,1.937 68.47,2.282 6.903,0.345 -3.452,-9.001 -21.863,-11.991 0,0 -5.149,-15.182 -18.471,-22.43 -13.321,-7.248 -56.704,0 -56.704,0 0,0 -51.084,-20.789 -135.71,-17.502 -55.986,2.175 -84.079,47.7 -80.471,78.947 l 53.895,-4.858 c 0,0 23.058,-50.979 159.871,-22.166"
             style="fill:#ffffff;fill-opacity:1;fill-rule:nonzero;stroke:none"
             id="path96" />
        </g>
        <g
           id="g98"
           transform="translate(949.9068,1605.0121)">
          <path
             d="m 0,0 h 0.021 z m -210.724,23.426 c -0.582,-14.449 5.721,-31.044 16.903,-44.095 14.629,-17.07 36.169,-26.994 60.657,-27.946 82.834,-3.215 133.828,17.056 134.334,17.261 0.567,0.23 1.186,0.299 1.792,0.198 11.76,-1.962 44.475,-5.851 54.576,-0.357 12.047,6.554 16.871,20.446 16.918,20.585 0.394,1.16 1.397,2.008 2.606,2.204 7.141,1.161 12.758,3.271 16.463,5.177 C 76.553,-4.16 33.233,-5.523 31.088,-5.591 30.192,-5.624 29.269,-5.26 28.62,-4.6 c -0.646,0.661 -0.989,1.562 -0.942,2.486 0.046,0.911 0.819,9.071 13.513,14.995 4.934,2.301 9.273,5.759 11.516,8.177 C 52.199,20.955 51.606,20.817 50.914,20.633 35.862,16.613 1.983,-2.681 1.642,-2.875 1.343,-3.046 1.019,-3.169 0.683,-3.24 -124.31,-29.564 -156.305,9.829 -161.92,19.027 Z m 95.719,-79.017 c -5.946,0 -12.083,0.114 -18.418,0.36 -26.348,1.023 -49.584,11.768 -65.424,30.253 -13.386,15.619 -20.191,35.201 -18.208,52.383 0.205,1.785 1.811,3.076 3.587,2.917 l 53.895,-4.858 c 1.188,-0.108 2.227,-0.846 2.72,-1.933 0.218,-0.461 24.245,-47.942 155.665,-20.397 4.313,2.445 35.322,19.871 50.395,23.897 2.632,0.703 9.628,2.568 11.407,-2.319 C 63.004,18.138 49.265,9.341 43.991,6.88 39.904,4.973 37.533,2.906 36.16,1.195 c 15.067,0.477 57.525,1.832 63.127,2.111 5.022,0.242 5.535,-3.124 5.604,-3.802 0.61,-5.748 -12.28,-12 -24.891,-14.43 -1.914,-4.535 -7.725,-16.107 -19.298,-22.403 -13.239,-7.207 -50.423,-1.712 -57.921,-0.506 -6.766,-2.597 -49.214,-17.755 -117.786,-17.756"
             style="fill:#000000;fill-opacity:1;fill-rule:nonzero;stroke:none"
             id="path100" />
        </g>
        <g
           id="g102"
           transform="translate(1546.5826,1422.2706)">
          <path
             d="m 0,0 v -57.786 c 0,-82.816 -66.743,-149.951 -149.074,-149.951 -82.332,0 -149.075,-67.136 -149.075,-149.951 0,-7.38 6.101,-13.363 13.627,-13.363 h 394.611 c 123.426,0 223.483,100.645 223.483,224.797 V 7.534 c 0,49.38 -39.797,89.41 -88.888,89.41 H 96.377 C 43.15,96.944 0,53.541 0,0"
             style="fill:#3e6eb4;fill-opacity:1;fill-rule:nonzero;stroke:none"
             id="path104" />
        </g>
        <path
           d="m 1545.998,588.229 h -41.532 v 439.402 h 41.532 z"
           style="fill:#3c72b9;fill-opacity:1;fill-rule:nonzero;stroke:none"
           id="path106" />
        <g
           id="g108"
           transform="translate(1330.5747,594.7408)">
          <path
             d="m 0,0 183.805,15.812 h 16.854 L 388.306,0 V -18.99 H 0 Z"
             style="fill:#3c72b9;fill-opacity:1;fill-rule:nonzero;stroke:none"
             id="path110" />
        </g>
        <g
           id="g112"
           transform="translate(841.2052,662.648)">
          <path
             d="M 0,0 C 4.57,4.623 30.981,86.781 30.981,86.781 L 83.169,49.545 25.954,-27.35 Z"
             style="fill:#ffffff;fill-opacity:1;fill-rule:nonzero;stroke:none"
             id="path114" />
        </g>
        <g
           id="g116"
           transform="translate(845.2968,663.147)">
          <path
             d="M 0,0 21.557,-22.716 74.404,48.312 28.652,80.957 C 21.914,60.117 6.302,12.6 0,0 m 21.863,-31.16 c -0.906,0 -1.774,0.371 -2.401,1.032 l -25.954,27.35 c -1.212,1.277 -1.21,3.275 -0.009,4.549 3.054,3.956 17.845,46.972 30.239,85.524 0.323,1.006 1.106,1.797 2.11,2.129 1.005,0.333 2.104,0.167 2.964,-0.447 L 81,51.741 c 0.724,-0.517 1.209,-1.303 1.347,-2.182 0.138,-0.878 -0.082,-1.776 -0.614,-2.49 L 24.518,-29.826 c -0.582,-0.783 -1.483,-1.27 -2.457,-1.328 -0.067,-0.004 -0.134,-0.006 -0.198,-0.006"
             style="fill:#000000;fill-opacity:1;fill-rule:nonzero;stroke:none"
             id="path118" />
        </g>
        <g
           id="g120"
           transform="translate(935.2519,558.7668)">
          <path
             d="m 0,0 -34.707,0.206 c -22.962,0.136 -44.32,11.803 -56.842,31.051 l -34.316,54.332 c -9.484,15.015 -4.179,34.909 11.503,43.243 14.323,7.612 29.331,15.029 32.848,14.694 7.141,-0.681 10.024,-34.458 10.024,-34.458 l 30.92,-1.191 c 0,0 15.276,-63.52 28.716,-70.739 C -2.062,31.877 4.773,24.154 9.372,17.103 14.188,9.719 8.815,-0.052 0,0"
             style="fill:#000000;fill-opacity:1;fill-rule:nonzero;stroke:none"
             id="path122" />
        </g>
        <g
           id="g124"
           transform="translate(931.7651,569.0079)">
          <path
             d="m 0,0 c -0.164,0 -0.33,0.012 -0.498,0.038 l -47.474,7.15 C -59.639,8.945 -69.809,15.76 -75.87,25.885 l -41.947,70.079 c -0.94,1.569 -0.429,3.603 1.14,4.542 1.565,0.936 3.602,0.43 4.542,-1.14 l 41.947,-70.079 c 5.042,-8.422 13.497,-14.09 23.203,-15.552 L 0.489,6.585 C 2.298,6.313 3.541,4.626 3.27,2.818 3.022,1.177 1.61,0 0,0"
             style="fill:#ffffff;fill-opacity:1;fill-rule:nonzero;stroke:none"
             id="path126" />
        </g>
        <g
           id="g128"
           transform="translate(873.1625,621.7083)">
          <path
             d="m 0,0 c -1.457,0 -2.791,0.969 -3.192,2.442 -0.481,1.764 0.56,3.584 2.323,4.064 l 26.448,7.203 c 1.761,0.48 3.584,-0.559 4.065,-2.324 C 30.125,9.621 29.084,7.801 27.32,7.32 L 0.873,0.117 C 0.582,0.038 0.289,0 0,0"
             style="fill:#ffffff;fill-opacity:1;fill-rule:nonzero;stroke:none"
             id="path130" />
        </g>
        <g
           id="g132"
           transform="translate(886.9381,608.1257)">
          <path
             d="m 0,0 c -1.492,0 -2.843,1.013 -3.214,2.525 -0.435,1.776 0.653,3.568 2.429,4.002 l 17.733,4.338 C 18.727,11.3 20.516,10.213 20.951,8.436 21.386,6.66 20.298,4.868 18.522,4.433 L 0.789,0.095 C 0.524,0.031 0.261,0 0,0"
             style="fill:#ffffff;fill-opacity:1;fill-rule:nonzero;stroke:none"
             id="path134" />
        </g>
        <g
           id="g136"
           transform="translate(1019.2775,678.3241)">
          <path
             d="M 0,0 60.59,-60.878 92.711,-49.082 36.857,28.803 Z"
             style="fill:#ffffff;fill-opacity:1;fill-rule:nonzero;stroke:none"
             id="path138" />
        </g>
        <g
           id="g140"
           transform="translate(1024.2559,678.0137)">
          <path
             d="M 0,0 56.462,-56.728 82.504,-47.164 31.2,24.38 Z m 55.613,-63.879 c -0.864,0 -1.714,0.34 -2.347,0.976 L -7.326,-2.025 c -0.669,0.671 -1.016,1.596 -0.957,2.541 0.058,0.945 0.519,1.82 1.265,2.403 L 29.84,31.722 c 0.711,0.557 1.628,0.794 2.509,0.669 0.895,-0.128 1.694,-0.615 2.22,-1.348 l 55.852,-77.885 c 0.604,-0.84 0.779,-1.914 0.475,-2.903 -0.304,-0.988 -1.052,-1.778 -2.022,-2.134 L 56.755,-63.675 c -0.373,-0.137 -0.758,-0.204 -1.142,-0.204"
             style="fill:#000000;fill-opacity:1;fill-rule:nonzero;stroke:none"
             id="path142" />
        </g>
        <g
           id="g144"
           transform="translate(1060.7249,626.9712)">
          <path
             d="M 0,0 C 0,0 -2.929,-25.899 2.04,-48.786 4.688,-60.983 15.678,-69.56 28.158,-69.56 h 148.703 c 10.63,0 15.448,13.266 7.3,20.093 C 157.721,-27.314 109.081,6.51 49.28,16.439 L 32.6,-6.906 Z"
             style="fill:#000000;fill-opacity:1;fill-rule:nonzero;stroke:none"
             id="path146" />
        </g>
        <g
           id="g148"
           transform="translate(1230.5159,574.5453)">
          <path
             d="m 0,0 h -154.111 c -1.828,0 -3.311,1.482 -3.311,3.311 0,1.828 1.483,3.311 3.311,3.311 H 0 C 1.828,6.622 3.311,5.139 3.311,3.311 3.311,1.482 1.828,0 0,0"
             style="fill:#ffffff;fill-opacity:1;fill-rule:nonzero;stroke:none"
             id="path150" />
        </g>
        <g
           id="g152"
           transform="translate(1144.5239,601.9212)">
          <path
             d="m 0,0 c -0.42,0 -0.847,0.081 -1.259,0.251 -1.692,0.697 -2.496,2.632 -1.8,4.323 L 5.1,24.361 c 0.696,1.69 2.638,2.496 4.322,1.799 1.692,-0.697 2.495,-2.633 1.799,-4.323 L 3.063,2.05 C 2.537,0.772 1.302,0 0,0"
             style="fill:#ffffff;fill-opacity:1;fill-rule:nonzero;stroke:none"
             id="path154" />
        </g>
        <g
           id="g156"
           transform="translate(1171.3464,596.7185)">
          <path
             d="m 0,0 c -0.345,0 -0.694,0.054 -1.039,0.169 -1.737,0.573 -2.679,2.446 -2.104,4.182 l 5.902,17.851 c 0.573,1.735 2.446,2.677 4.182,2.103 1.737,-0.573 2.679,-2.446 2.103,-4.182 L 3.143,2.272 C 2.684,0.881 1.39,0 0,0"
             style="fill:#ffffff;fill-opacity:1;fill-rule:nonzero;stroke:none"
             id="path158" />
        </g>
        <g
           id="g160"
           transform="translate(698.5565,1104.3251)">
          <path
             d="m 0,0 c 0,0 276.913,32.235 359.255,-39.045 82.343,-71.279 -129.984,-377.796 -129.984,-377.796 l -67.146,49.797 63.692,216.643 -255.977,72.695 z"
             style="fill:#000000;fill-opacity:1;fill-rule:nonzero;stroke:none"
             id="path162" />
        </g>
        <g
           id="g164"
           transform="translate(546.1571,963.2471)">
          <path
             d="m 0,0 c 40.224,-12.767 112.195,-29.27 212.789,-27.898 28.582,0.39 54.969,-15.402 67.953,-40.866 29.796,-58.433 94.286,-163.643 199.334,-231.835 l 50.171,27.032 L 402.195,14.687 C 390.503,41.006 368.639,61.46 341.601,71.375 L 87.815,164.437 c 0,0 -78.693,21.994 -117.273,-48.255 -6.89,-12.544 -19.685,9.881 -22.732,-0.241 C -62.637,81.234 -34.547,10.965 0,0"
             style="fill:#000000;fill-opacity:1;fill-rule:nonzero;stroke:none"
             id="path166" />
        </g>
        <g
           id="g168"
           transform="translate(1006.219,844.3623)">
          <path
             d="m 0,0 c -1.27,0 -2.479,0.733 -3.029,1.968 l -57.865,130.26 c -11.262,25.353 -32.659,45.371 -58.708,54.923 l -121.536,44.567 c -1.715,0.63 -2.597,2.531 -1.967,4.248 0.629,1.718 2.53,2.598 4.248,1.968 l 121.535,-44.566 c 27.722,-10.165 50.494,-31.47 62.481,-58.453 L 3.024,4.656 C 3.766,2.985 3.013,1.029 1.343,0.286 0.905,0.092 0.448,0 0,0"
             style="fill:#ffffff;fill-opacity:1;fill-rule:nonzero;stroke:none"
             id="path170" />
        </g>
        <g
           id="g172"
           transform="translate(938.654,732.3846)">
          <path
             d="m 0,0 c -0.869,0 -1.737,0.34 -2.386,1.016 -11.661,12.127 -23.139,25.155 -34.115,38.723 -1.151,1.422 -0.931,3.506 0.492,4.656 1.423,1.151 3.509,0.929 4.656,-0.492 C -20.494,30.482 -9.143,17.597 2.386,5.605 3.654,4.287 3.612,2.192 2.296,0.924 1.653,0.307 0.826,0 0,0"
             style="fill:#ffffff;fill-opacity:1;fill-rule:nonzero;stroke:none"
             id="path174" />
        </g>
        <g
           id="g176"
           transform="translate(904.7292,770.8951)">
          <path
             d="m 0,0 c -0.966,0 -1.923,0.42 -2.576,1.229 -5.406,6.684 -10.775,13.603 -15.961,20.564 -1.093,1.467 -0.789,3.541 0.679,4.633 1.464,1.092 3.539,0.788 4.632,-0.677 C -8.094,18.857 -2.778,12.008 2.572,5.393 3.723,3.971 3.5,1.887 2.08,0.737 1.468,0.241 0.731,0 0,0"
             style="fill:#ffffff;fill-opacity:1;fill-rule:nonzero;stroke:none"
             id="path178" />
        </g>
        <g
           id="g180"
           transform="translate(761.474,1327.9922)">
          <path
             d="M 0,0 C 0,0 24.357,-221.156 187.905,-235.627 L 0,-238.297 c 0,0 -69.574,140.985 -72.399,195.879 C -75.224,12.476 0,0 0,0"
             style="fill:#ffffff;fill-opacity:1;fill-rule:nonzero;stroke:none"
             id="path182" />
        </g>
        <g
           id="g184"
           transform="translate(744.111,1325.8809)">
          <path
             d="m 0,0 c -13.002,0 -30.569,-2.084 -41.501,-11.857 -7.413,-6.624 -10.853,-16.139 -10.228,-28.28 2.582,-50.197 62.937,-175.836 71.143,-192.708 l 152.518,2.167 C 119.111,-215.389 76.327,-174.82 46.982,-111.671 23.753,-61.685 15.991,-12.473 14.401,-0.83 11.519,-0.488 6.294,0 0,0 m 17.362,-239.496 c -1.259,0 -2.41,0.714 -2.968,1.845 -2.854,5.782 -69.91,142.229 -72.736,197.174 -0.733,14.248 3.453,25.542 12.441,33.569 21.35,19.068 62.08,12.572 63.804,12.285 1.464,-0.242 2.587,-1.429 2.751,-2.903 0.06,-0.549 6.365,-55.546 32.403,-111.507 34.679,-74.527 85.987,-115.3 152.502,-121.185 1.757,-0.155 3.083,-1.659 3.018,-3.42 -0.065,-1.762 -1.5,-3.163 -3.261,-3.188 l -187.906,-2.67 c -0.016,0 -0.033,0 -0.048,0"
             style="fill:#000000;fill-opacity:1;fill-rule:nonzero;stroke:none"
             id="path186" />
        </g>
        <g
           id="g188"
           transform="translate(528.7063,1468.5435)">
          <path
             d="m 0,0 c 31.727,7.459 44.963,7.557 160.291,3.38 28.189,-1.02 61.717,-36.397 65.033,-64.408 -8.961,-26.868 -50.307,-159.522 21.875,-263.167 10.243,-14.706 24.166,-30.834 43.282,-46.297 -10.74,-8.685 -27.428,-19.989 -49.839,-26.644 -36.031,-10.699 -59.607,-1.574 -85.907,0 -88.363,5.289 -128.268,-80.165 -176.405,-62.483 -15.277,5.612 -35.613,23.165 -46.559,83.805 -10.452,53.036 -12.569,97.935 -12.303,130.439 0.622,75.977 14.565,120.72 30.989,173.422 C -41.015,-44.588 -30.106,-7.078 0,0"
             style="fill:#c7e8cc;fill-opacity:1;fill-rule:nonzero;stroke:none"
             id="path190" />
        </g>
        <g
           id="g192"
           transform="translate(782.9688,1303.2104)">
          <path
             d="m 0,0 c 0,0 -11.533,145.24 -83.474,166.877 l 23.416,-201.28 z"
             style="fill:#c7e8cc;fill-opacity:1;fill-rule:nonzero;stroke:none"
             id="path194" />
        </g>
        <g
           id="g196"
           transform="translate(1568.9694,635.7629)">
          <path
             d="M 0,0 C -4.189,4.66 -28.396,87.461 -28.396,87.461 L -76.231,49.933 -23.789,-27.565 Z"
             style="fill:#ffffff;fill-opacity:1;fill-rule:nonzero;stroke:none"
             id="path198" />
        </g>
        <g
           id="g200"
           transform="translate(1496.9357,684.9536)">
          <path
             d="m 0,0 48.515,-71.695 19.86,23.011 C 62.582,-35.937 48.234,12.093 42.084,33.018 Z m 48.245,-80.066 c -0.059,0 -0.116,0.002 -0.175,0.006 -0.853,0.057 -1.641,0.531 -2.159,1.296 L -6.531,-1.266 c -0.485,0.718 -0.69,1.629 -0.566,2.521 0.123,0.892 0.566,1.689 1.224,2.205 L 41.96,40.988 c 0.757,0.597 1.728,0.755 2.605,0.423 0.88,-0.332 1.57,-1.112 1.861,-2.105 11.386,-38.945 24.975,-82.397 27.734,-86.216 1.149,-1.278 1.105,-3.286 -0.021,-4.59 L 50.35,-79.064 c -0.554,-0.643 -1.315,-1.002 -2.105,-1.002"
             style="fill:#000000;fill-opacity:1;fill-rule:nonzero;stroke:none"
             id="path202" />
        </g>
        <g
           id="g204"
           transform="translate(1561.5118,677.8082)">
          <path
             d="m 0,0 31.411,-37.389 c 6.457,-7.686 6.716,-19.442 0.598,-27.456 -24.147,-31.628 -81.918,-105.245 -93.577,-101.303 -27.488,9.295 20.631,123.84 20.631,123.84 10.638,-4.968 22.946,0.202 27.861,11.705 z"
             style="fill:#ffffff;fill-opacity:1;fill-rule:nonzero;stroke:none"
             id="path206" />
        </g>
        <g
           id="g208"
           transform="translate(1522.1118,631.3905)">
          <path
             d="m 0,0 c -10.932,-26.637 -34.056,-91.318 -26.094,-111.502 1.055,-2.675 2.615,-4.329 4.768,-5.057 4.219,-1.223 28.069,18.51 90.509,100.291 5.112,6.697 4.894,16.593 -0.504,23.02 L 40.197,40.655 28.969,14.377 C 23.763,2.194 11.421,-3.723 0,0 m -21.102,-123.26 c -0.851,0 -1.442,0.2 -1.91,0.359 -3.837,1.297 -6.68,4.227 -8.448,8.709 -11.024,27.943 25.7,115.985 27.269,119.719 0.668,1.594 2.331,2.317 3.778,1.642 9.243,-4.318 19.829,0.111 24.09,10.083 l 13.077,30.603 c 0.418,0.981 1.239,1.666 2.193,1.834 0.95,0.166 1.921,-0.203 2.584,-0.994 l 31.411,-37.39 c 7.479,-8.901 7.777,-22.612 0.692,-31.892 -71.378,-93.49 -88.978,-102.673 -94.736,-102.673"
             style="fill:#000000;fill-opacity:1;fill-rule:nonzero;stroke:none"
             id="path210" />
        </g>
        <g
           id="g212"
           transform="translate(1496.2263,513.6028)">
          <path
             d="m 0,0 c -0.682,0 -1.367,0.267 -1.923,0.811 -1.226,1.199 -1.356,3.29 -0.293,4.67 l 69.828,90.667 c 1.063,1.38 2.914,1.529 4.143,0.329 1.225,-1.199 1.355,-3.29 0.292,-4.67 L 2.22,1.14 C 1.638,0.386 0.822,0 0,0"
             style="fill:#000000;fill-opacity:1;fill-rule:nonzero;stroke:none"
             id="path214" />
        </g>
        <g
           id="g216"
           transform="translate(1405.7516,651.562)">
          <path
             d="m 0,0 -29.138,-32.191 c -5.198,-5.743 -8.461,-13.262 -9.252,-21.318 l -2.954,-30.098 -53.761,22.367 61.322,90.269 z"
             style="fill:#ffffff;fill-opacity:1;fill-rule:nonzero;stroke:none"
             id="path218" />
        </g>
        <g
           id="g220"
           transform="translate(1315.3993,591.8734)">
          <path
             d="m 0,0 46.502,-19.347 2.541,25.891 c 0.864,8.783 4.456,17.064 10.117,23.318 L 85.873,59.375 57.12,84.082 Z m 49.008,-27.229 c -0.342,0 -0.686,0.067 -1.017,0.204 L -5.77,-4.657 c -0.874,0.364 -1.544,1.175 -1.803,2.185 -0.26,1.01 -0.078,2.099 0.49,2.934 l 61.322,90.269 c 0.983,1.45 2.824,1.726 4.11,0.62 L 92.132,62.322 c 0.679,-0.583 1.097,-1.469 1.151,-2.428 0.054,-0.96 -0.266,-1.898 -0.876,-2.57 L 63.27,25.133 C 58.575,19.944 55.594,13.084 54.881,5.815 l -2.954,-30.098 c -0.099,-1.012 -0.607,-1.917 -1.376,-2.452 -0.468,-0.327 -1.004,-0.494 -1.543,-0.494"
             style="fill:#000000;fill-opacity:1;fill-rule:nonzero;stroke:none"
             id="path222" />
        </g>
        <g
           id="g224"
           transform="translate(1373.2797,608.011)">
          <path
             d="m 0,0 9.398,-49.747 c -0.954,-11.132 -9.277,-19.758 -19.44,-20.124 -40.128,-1.448 -134.669,-3.448 -140.139,9.571 -12.896,30.691 104.368,70.356 104.368,70.356 3.904,-12.51 16.039,-19.461 27.6,-15.809 z"
             style="fill:#ffffff;fill-opacity:1;fill-rule:nonzero;stroke:none"
             id="path226" />
        </g>
        <g
           id="g228"
           transform="translate(1325.7839,614.0277)">
          <path
             d="m 0,0 c -27.199,-9.47 -91.367,-35.734 -99.881,-57.317 -1.086,-2.757 -1.135,-5.238 -0.151,-7.582 2.098,-4.617 33.399,-11.432 137.392,-7.68 8.511,0.307 15.554,7.426 16.562,16.646 l -8.645,45.777 -15.203,-4.802 C 17.946,-18.785 5.284,-12.283 0,0 m -17.015,-80.259 c -9.647,0 -19.37,0.122 -28.682,0.423 -48.735,1.572 -57.499,6.999 -59.642,12.102 -1.738,4.135 -1.707,8.546 0.092,13.108 C -93.568,-25.017 -3.011,5.908 0.839,7.21 2.342,7.719 3.933,6.805 4.453,5.138 7.846,-5.74 18.401,-11.769 28.491,-8.582 l 18.214,5.754 c 0.778,0.247 1.615,0.118 2.311,-0.356 0.694,-0.473 1.183,-1.248 1.352,-2.143 l 9.396,-49.747 c 0.063,-0.331 0.08,-0.671 0.052,-1.008 -1.092,-12.759 -10.664,-22.696 -22.269,-23.115 -14.965,-0.54 -34.599,-1.062 -54.562,-1.062"
             style="fill:#000000;fill-opacity:1;fill-rule:nonzero;stroke:none"
             id="path230" />
        </g>
        <g
           id="g232"
           transform="translate(1347.2322,553.2767)">
          <path
             d="m 0,0 h -0.01 l -123.951,0.467 c -1.622,0.006 -2.933,1.493 -2.927,3.321 0.005,1.825 1.319,3.3 2.936,3.3 h 0.01 L 0.01,6.622 C 1.631,6.616 2.942,5.128 2.937,3.3 2.931,1.475 1.617,0 0,0"
             style="fill:#000000;fill-opacity:1;fill-rule:nonzero;stroke:none"
             id="path234" />
        </g>
        <g
           id="g236"
           transform="translate(1699.7185,1080.9009)">
          <path
             d="m 0,0 c 0,0 -253.813,32.487 -329.287,-39.351 -75.473,-71.838 119.141,-380.756 119.141,-380.756 l 61.545,50.187 -58.379,218.341 234.624,73.264 z"
             style="fill:#000000;fill-opacity:1;fill-rule:nonzero;stroke:none"
             id="path238" />
        </g>
        <g
           id="g240"
           transform="translate(1836.5032,964.2216)">
          <path
             d="m 0,0 c -36.868,-12.867 -102.076,-40.417 -191.789,-47.531 -26.132,-2.072 -50.731,-21.613 -62.633,-47.276 -27.31,-58.891 -86.42,-164.925 -182.705,-233.652 l -45.986,27.244 117.371,290.513 c 10.716,26.525 30.756,47.139 55.539,57.132 l 232.615,93.791 c 0,0 72.128,22.167 107.491,-48.633 6.315,-12.643 18.043,9.959 20.835,-0.242 C 60.314,56.366 31.665,11.05 0,0"
             style="fill:#000000;fill-opacity:1;fill-rule:nonzero;stroke:none"
             id="path242" />
        </g>
        <g
           id="g244"
           transform="translate(1398.2747,779.3007)">
          <path
             d="M 0,0 C -0.424,0 -0.856,0.104 -1.266,0.324 -2.728,1.113 -3.348,3.09 -2.648,4.739 l 72.485,170.908 c 10.958,27.127 31.816,48.587 57.2,58.821 l 33.822,13.637 c 1.521,0.617 3.206,-0.28 3.752,-2.002 0.547,-1.722 -0.248,-3.617 -1.776,-4.233 L 129.014,228.233 C 105.115,218.598 85.487,198.41 75.16,172.846 L 2.652,1.883 C 2.147,0.694 1.095,0 0,0"
             style="fill:#caddff;fill-opacity:1;fill-rule:nonzero;stroke:none"
             id="path246" />
        </g>
        <g
           id="g248"
           transform="translate(1459.2966,677.666)">
          <path
             d="m 0,0 c -0.746,0 -1.489,0.317 -2.061,0.953 -1.155,1.284 -1.168,3.38 -0.03,4.682 12.156,13.903 47.312,61.614 51.281,67.008 1.032,1.407 2.885,1.602 4.135,0.435 1.248,-1.168 1.42,-3.255 0.384,-4.662 C 49.725,62.999 14.421,15.086 2.091,0.987 1.516,0.329 0.759,0 0,0"
             style="fill:#caddff;fill-opacity:1;fill-rule:nonzero;stroke:none"
             id="path250" />
        </g>
        <g
           id="g252"
           transform="translate(442.6667,912.7006)">
          <path
             d="m 0,0 -0.425,88.641 c -0.008,1.69 1.395,3.062 3.124,3.054 L 1443.35,85.094 c 2.523,-0.011 3.982,-2.801 2.515,-4.807 l -65.698,-89.835 c -0.581,-0.795 -1.517,-1.268 -2.517,-1.272 L 16.661,-16.146 C 7.5,-16.182 0.043,-8.955 0,0"
             style="fill:#3e6eb4;fill-opacity:1;fill-rule:nonzero;stroke:none"
             id="path254" />
        </g>
        <g
           id="g256"
           transform="translate(1910.5162,931.9776)">
          <path
             d="m 0,0 -1450.444,-4.266 c -9.356,-0.027 -16.955,7.379 -16.955,16.526 v 191.674 c 0,9.113 7.547,16.507 16.869,16.526 l 1450.444,2.96 c 9.35,0.019 16.94,-7.385 16.94,-16.526 V 16.526 C 16.854,7.418 9.316,0.027 0,0"
             style="fill:#ffffff;fill-opacity:1;fill-rule:nonzero;stroke:none"
             id="path258" />
        </g>
        <g
           id="g260"
           transform="translate(1910.4675,1152.0864)">
          <path
             d="m 0,0 h -0.03 l -1450.444,-2.96 c -7.482,-0.015 -13.569,-5.944 -13.569,-13.215 v -191.674 c 0,-3.463 1.37,-6.737 3.854,-9.218 2.584,-2.578 6.042,-3.997 9.743,-3.997 h 0.041 l 1450.446,4.266 0.009,-3.311 -0.009,3.311 c 7.473,0.022 13.554,5.95 13.554,13.215 v 190.369 c 0,3.461 -1.367,6.733 -3.85,9.214 C 7.161,-1.42 3.701,0 0,0 m -1450.446,-227.685 c -5.464,0 -10.58,2.104 -14.413,5.929 -3.74,3.733 -5.798,8.671 -5.798,13.907 v 191.674 c 0,10.916 9.047,19.814 20.17,19.837 L -0.043,6.622 H 0 c 5.467,0 10.585,-2.107 14.417,-5.935 3.736,-3.732 5.792,-8.669 5.792,-13.901 v -190.369 c 0,-10.905 -9.039,-19.804 -20.149,-19.837 l -1450.443,-4.265 z"
             style="fill:#000000;fill-opacity:1;fill-rule:nonzero;stroke:none"
             id="path262" />
        </g>
        <g
           id="g264"
           transform="translate(1871.399,1480.1218)">
          <path
             d="m 0,0 c -11.555,24.811 -42.313,40.839 -66.224,49.951 -16.531,6.299 -34.057,9.727 -51.789,10.405 l -62.695,2.396 c -23.689,1.658 -51.579,0.589 -82.038,-4.687 -40.46,-7.008 -63.94,-23.505 -89.75,-54.69 -11.67,-14.1 -47.444,-91.018 -72.525,-107.529 -16.08,-10.586 -41.561,7.762 -65.369,20.138 -13.812,7.18 -27.447,10.07 -37.353,10.069 -24.124,-0.003 -32.516,-21.558 -36.866,-31.214 -5.223,-11.596 -0.165,-25.742 4.44,-34.826 2.947,-5.814 8.855,-8.85 14.135,-12.796 21.793,-16.286 111.36,-79.861 159.248,-53.395 40.838,22.569 67.23,62.647 80.848,92.708 -2.315,-50.437 -47.452,-123.151 -61.857,-142.231 -2.332,-3.09 -5.877,-5.078 -9.783,-5.512 l -94.503,-10.495 c -1.292,-0.093 -2.712,-0.616 -4.115,-1.348 -6.193,-3.231 -10.222,-9.377 -11.155,-16.17 -1.49,-10.85 -0.554,-31.196 2.868,-37.757 l 3.241,-6.215 c 2.615,-5.014 7.846,-8.209 13.607,-8.301 50.203,-0.798 262.412,-1.907 322.664,1.613 56.111,3.278 94.2,25.195 124.2,101.64 C -8.85,-207.87 30.846,-66.234 0,0"
             style="fill:#4b937a;fill-opacity:1;fill-rule:nonzero;stroke:none"
             id="path266" />
        </g>
        <g
           id="g268"
           transform="translate(1430.3126,1207.0146)">
          <path
             d="m 0,0 c -1.638,0 -3.061,1.215 -3.278,2.881 -0.238,1.814 1.038,3.476 2.853,3.713 8.247,1.08 21.814,1.478 38.988,1.982 81.063,2.376 249.743,7.322 289.981,101.92 0.713,1.682 2.659,2.468 4.341,1.751 1.683,-0.716 2.466,-2.66 1.75,-4.343 C 292.739,9.404 121.197,4.374 38.757,1.957 21.77,1.459 8.35,1.065 0.433,0.029 0.289,0.01 0.144,0 0,0"
             style="fill:#000000;fill-opacity:1;fill-rule:nonzero;stroke:none"
             id="path270" />
        </g>
        <g
           id="g272"
           transform="translate(1512.6771,1233.6324)">
          <path
             d="m 0,0 c -0.655,0 -1.315,0.193 -1.893,0.596 -1.5,1.046 -1.866,3.11 -0.821,4.61 17.252,24.72 45.161,73.587 51.067,113.627 C 33.328,93.238 9.467,55.941 -28.866,36.173 c -36.802,-18.98 -135.69,30.987 -166.287,58.123 -1.369,1.213 -1.494,3.306 -0.28,4.674 1.211,1.367 3.306,1.494 4.673,0.28 31.816,-28.217 127.424,-73.403 158.859,-57.192 40.085,20.671 64.069,62.032 78.398,86.744 1.205,2.077 2.348,4.048 3.434,5.895 0.759,1.288 2.281,1.91 3.727,1.516 1.442,-0.394 2.44,-1.705 2.438,-3.199 C 56.014,79.339 8.171,9.234 2.718,1.417 2.073,0.494 1.045,0 0,0"
             style="fill:#000000;fill-opacity:1;fill-rule:nonzero;stroke:none"
             id="path274" />
        </g>
        <g
           id="g276"
           transform="translate(1858.2207,1261.3878)">
          <path
             d="m 0,0 c -0.315,0 -0.631,0.045 -0.948,0.139 -1.753,0.522 -2.749,2.366 -2.227,4.118 20.261,68.014 35.916,164.63 13.353,213.079 -11.098,23.831 -41.15,39.396 -64.407,48.257 -15.97,6.085 -33.039,9.512 -50.733,10.188 l -62.694,2.397 c -25.452,1.78 -53.55,0.173 -81.347,-4.641 -36.977,-6.405 -60.764,-20.916 -87.764,-53.538 -3.69,-4.46 -10.374,-16.127 -18.112,-29.637 -16.071,-28.06 -38.083,-66.49 -55.053,-78.486 -18.461,-13.046 -37.024,-1.553 -54.977,9.562 -8.546,5.29 -17.383,10.762 -26.438,13.93 -1.727,0.603 -2.637,2.491 -2.033,4.217 0.604,1.725 2.494,2.635 4.218,2.033 9.741,-3.407 18.891,-9.072 27.739,-14.551 17.595,-10.893 32.791,-20.3 47.668,-9.784 15.776,11.151 37.367,48.846 53.132,76.37 8.214,14.342 14.702,25.67 18.757,30.568 28.135,33.996 52.998,49.13 91.734,55.84 28.314,4.904 56.962,6.54 82.834,4.728 l 62.59,-2.391 c 18.416,-0.703 36.192,-4.276 52.837,-10.618 24.402,-9.297 56.016,-25.805 68.05,-51.648 C 46.286,155.488 10.624,27.389 3.171,2.367 2.742,0.929 1.425,0 0,0"
             style="fill:#000000;fill-opacity:1;fill-rule:nonzero;stroke:none"
             id="path278" />
        </g>
        <g
           id="g280"
           transform="translate(1564.0287,1353.0723)">
          <path
             d="m 0,0 c -0.151,0 -0.304,0.011 -0.459,0.032 -1.811,0.251 -3.076,1.923 -2.824,3.734 3.949,28.471 6.521,39.98 17.095,66.7 0.673,1.703 2.608,2.531 4.296,1.86 1.701,-0.673 2.533,-2.596 1.86,-4.296 C 10.167,43.26 7.359,32.296 3.274,2.856 3.046,1.199 1.627,0 0,0"
             style="fill:#000000;fill-opacity:1;fill-rule:nonzero;stroke:none"
             id="path282" />
        </g>
        <g
           id="g284"
           transform="translate(1409.8705,1186.6055)">
          <path
             d="m 0,0 c -1.941,3.698 -5.196,6.627 -9.204,8.03 -2.871,1.004 -5.698,2.333 -8.392,3.726 l -37.326,19.291 c -6.992,3.336 -16.988,-4.439 -24.245,-6.761 -21.902,-7.009 -67.252,-23.517 -63.516,-39.023 4.031,-16.729 43.005,-8.811 56.84,-5.438 3.163,0.772 31.799,-9.332 40.851,-10 12.51,-0.922 15.399,2.176 21.515,5.306 2.789,1.427 5.894,2.071 9.264,2.092 5.154,0.033 10.061,2.14 13.285,6.064 l 0.076,0.092 c 3.555,4.326 4.176,10.287 1.586,15.223 z"
             style="fill:#ffffff;fill-opacity:1;fill-rule:nonzero;stroke:none"
             id="path286" />
        </g>
        <g
           id="g288"
           transform="translate(1324.4581,1169.7786)">
          <path
             d="m 0,0 c 2.358,0 6.712,-1.156 17.761,-4.353 8.697,-2.519 18.556,-5.372 22.904,-5.693 9.54,-0.701 12.644,1.029 16.944,3.427 0.89,0.496 1.813,1.01 2.817,1.524 3.134,1.604 6.751,2.43 10.751,2.456 4.32,0.028 8.237,1.797 10.75,4.855 2.778,3.38 3.252,7.926 1.287,11.674 l -0.733,1.4 c -1.602,3.052 -4.218,5.34 -7.365,6.441 -2.654,0.928 -5.456,2.171 -8.821,3.911 L 28.972,44.932 C 25.598,46.538 19.856,43.722 14.791,41.241 12.148,39.948 9.652,38.727 7.253,37.959 -32.09,25.369 -56.154,11.594 -54.052,2.865 c 0.472,-1.959 1.661,-3.498 3.638,-4.703 7.548,-4.603 25.941,-3.965 49.198,1.707 C -0.864,-0.046 -0.472,0 0,0 m 44.521,-16.819 c -1.328,0 -2.768,0.053 -4.343,0.17 -5.037,0.371 -14.808,3.2 -24.258,5.935 -6.207,1.796 -13.898,4.022 -15.788,4.096 -14.91,-3.621 -41.525,-8.476 -53.993,-0.873 -3.506,2.137 -5.735,5.1 -6.628,8.805 -3.252,13.504 18.861,27.956 65.725,42.952 1.94,0.621 4.224,1.739 6.643,2.923 6.421,3.141 13.698,6.697 20.037,3.672 L 69.337,31.524 c 3.082,-1.594 5.613,-2.72 7.964,-3.543 4.738,-1.657 8.661,-5.073 11.043,-9.616 v -10e-4 l 0.732,-1.398 C 92.284,10.858 91.514,3.454 87.119,-1.896 83.278,-6.57 77.51,-9.22 71.221,-9.26 c -2.999,-0.02 -5.542,-0.586 -7.777,-1.729 -0.931,-0.477 -1.785,-0.953 -2.611,-1.413 -4.056,-2.263 -7.921,-4.417 -16.312,-4.417"
             style="fill:#000000;fill-opacity:1;fill-rule:nonzero;stroke:none"
             id="path290" />
        </g>
        <g
           id="g292"
           transform="translate(1216.9072,1461.9641)">
          <path
             d="m 0,0 c -0.606,3.102 7.097,1.775 10.311,1.49 l 62.872,-9.087 c 9.995,-0.885 13.971,-8.641 20.495,-15.939 6.7,-7.496 28.452,-28.802 28.452,-28.802 0,0 25.479,-14.564 22.036,-29.941 -3.264,-14.575 -24.388,-30.757 -42.244,-13.448 -10.617,10.29 -12.542,25.471 -12.542,25.471 0.082,-0.082 -24.498,-7.001 -40.555,9.107 -8.395,8.421 -11.643,16.685 -13.526,21.945 -1.592,4.445 -6.003,7.493 -9.716,10.487 C 15.272,-20.401 3.301,-16.881 0,0"
             style="fill:#ffffff;fill-opacity:1;fill-rule:nonzero;stroke:none"
             id="path294" />
        </g>
        <g
           id="g296"
           transform="translate(1220.1577,1462.5986)">
          <path
             d="m 0,0 c 0.002,-0.001 0,-0.001 0,-0.002 z m 86.128,-67.58 c 0.062,0 0.127,-0.002 0.19,-0.005 1.592,-0.09 2.896,-1.305 3.097,-2.889 0.017,-0.135 1.944,-14.19 11.56,-23.511 7.626,-7.39 15.047,-7.203 19.922,-5.744 7.857,2.348 15.074,9.888 16.787,17.538 2.386,10.659 -13.95,22.631 -20.447,26.344 -0.245,0.14 -0.471,0.312 -0.674,0.509 -0.89,0.873 -21.908,21.469 -28.603,28.961 -1.347,1.506 -2.589,3.031 -3.796,4.515 -4.431,5.447 -7.93,9.749 -14.523,10.332 L 6.587,-2.421 c -0.272,0.019 -0.808,0.079 -1.399,0.144 -1.009,0.112 -3.27,0.36 -4.755,0.351 2.602,-10.151 8.989,-14.44 16.317,-19.361 2.518,-1.69 5.119,-3.438 7.661,-5.488 l 1.351,-1.074 c 3.602,-2.847 7.684,-6.075 9.402,-10.874 1.44,-4.017 4.432,-12.375 12.756,-20.723 14.181,-14.227 35.731,-8.707 37.044,-8.346 0.364,0.138 0.759,0.212 1.164,0.212 m 29.396,-39.577 c -6.816,0 -13.435,2.87 -19.158,8.418 -8.212,7.96 -11.579,18.456 -12.842,23.874 -7.359,-1.281 -26.618,-2.978 -40.294,10.744 -8.256,8.28 -11.862,16.357 -14.299,23.166 -1.078,3.014 -4.229,5.504 -7.275,7.912 l -1.401,1.115 c -2.317,1.867 -4.798,3.533 -7.195,5.144 -8.247,5.537 -16.774,11.262 -19.559,25.514 0,0 -0.002,0 -0.002,0 -0.295,1.514 0.095,2.947 1.097,4.036 2.162,2.349 6.23,2.105 11.325,1.538 C 6.456,4.245 6.943,4.19 7.352,4.154 l 63.054,-9.109 c 9.197,-0.809 14.127,-6.869 18.895,-12.728 1.144,-1.406 2.319,-2.853 3.595,-4.281 6.132,-6.863 25.4,-25.798 28.01,-28.357 3.451,-2.047 26.963,-16.683 23.24,-33.316 -2.233,-9.971 -11.212,-19.406 -21.354,-22.437 -2.425,-0.725 -4.858,-1.083 -7.268,-1.083"
             style="fill:#000000;fill-opacity:1;fill-rule:nonzero;stroke:none"
             id="path298" />
        </g>
        <g
           id="g300"
           transform="translate(1288.9985,1439.2384)">
          <path
             d="m 0,0 -19.999,2.262 c -9.428,0.655 -10.993,-3.914 -11.093,-7.284 0,0 -0.723,-8.667 20.37,-11.403 4.494,-0.582 9.116,-5.205 11.99,-10.73 5.434,-10.454 18.889,-5.916 18.889,-5.916 z"
             style="fill:#ffffff;fill-opacity:1;fill-rule:nonzero;stroke:none"
             id="path302" />
        </g>
        <g
           id="g304"
           transform="translate(1302.77,1401.8638)">
          <path
             d="m 0,0 c -5.546,0 -11.931,1.939 -15.442,8.692 -2.543,4.891 -6.44,8.581 -9.475,8.975 -23.551,3.053 -23.346,13.75 -23.247,14.96 0.086,3.01 1.166,5.559 3.203,7.401 2.522,2.283 6.361,3.263 11.42,2.911 l 20.143,-2.275 c 1.817,-0.205 3.123,-1.845 2.916,-3.662 -0.205,-1.817 -1.854,-3.121 -3.662,-2.917 l -19.999,2.262 c -2.957,0.2 -5.27,-0.229 -6.375,-1.228 -0.419,-0.379 -0.983,-1.09 -1.037,-2.866 0.086,-1.595 3.399,-6.192 17.489,-8.02 6.331,-0.82 11.64,-6.988 14.5,-12.486 C -5.525,3.971 4.893,7.299 5.337,7.444 7.066,8.017 8.941,7.08 9.521,5.349 10.096,3.619 9.171,1.75 7.443,1.167 5.535,0.523 2.88,0 0,0"
             style="fill:#000000;fill-opacity:1;fill-rule:nonzero;stroke:none"
             id="path306" />
        </g>
        <g
           id="g308"
           transform="translate(1751.2968,1531.7311)">
          <path
             d="M 0,0 8.67,82.038 -63.864,58.49 -70.176,10.413 c -1.487,-12.916 8.517,-21.737 8.517,-21.737 12.234,-11.987 31.797,-13.056 47.303,-5.575 l 3.592,1.733 C -4.757,-12.268 -0.691,-6.539 0,0"
             style="fill:#ffffff;fill-opacity:1;fill-rule:nonzero;stroke:none"
             id="path310" />
        </g>
        <g
           id="g312"
           transform="translate(1751.2971,1531.7312)">
          <path
             d="M 0,0 H 0.021 Z M -60.853,55.986 -66.895,9.982 c -1.254,-10.921 7.346,-18.753 7.434,-18.831 10.575,-10.354 28.483,-12.394 43.668,-5.068 l 3.591,1.733 c 5.003,2.414 8.335,7.099 8.91,12.533 l 8.133,76.965 z m 25.995,-80.983 c -11.049,0 -21.518,3.862 -29.118,11.308 -0.334,0.288 -11.155,10.012 -9.491,24.481 l 6.32,48.128 c 0.166,1.266 1.045,2.324 2.261,2.719 L 7.647,85.187 c 1.063,0.344 2.238,0.129 3.106,-0.577 0.871,-0.706 1.326,-1.805 1.208,-2.92 L 3.291,-0.348 V -0.349 C 2.474,-8.077 -2.242,-14.73 -9.327,-18.148 l -3.591,-1.733 c -7.121,-3.437 -14.657,-5.116 -21.94,-5.116"
             style="fill:#000000;fill-opacity:1;fill-rule:nonzero;stroke:none"
             id="path314" />
        </g>
        <g
           id="g316"
           transform="translate(1680.6497,1731.8071)">
          <path
             d="m 0,0 c 18.136,-1.661 -7.253,-16.368 62.164,-7.303 27.642,3.609 9.596,-24.583 16.769,-23.665 26.492,3.389 25.586,3.301 37.488,-1.723 7.882,-3.327 10.947,-18.895 7.702,-29.703 -4.282,-14.266 -17.174,-16.2 -32.819,-45.362 -10.988,-20.481 -11.134,-33.898 -20.492,-35.732 -9.463,-1.854 -14.276,10.889 -24.769,9.627 -13.579,-1.633 -14.399,-24.045 -28.491,-31.297 -8.882,-4.571 -27.902,-4.476 -55.541,14.134 -4.479,3.015 -6.136,8.746 -3.924,13.615 2.835,6.24 6.459,14.103 10.564,21.331 19.565,34.448 34.149,40.726 30.783,50.904 -5.157,15.595 -34.516,11.46 -37.331,24.059 C -40.82,-28.03 -24.831,2.275 0,0"
             style="fill:#000000;fill-opacity:1;fill-rule:nonzero;stroke:none"
             id="path318" />
        </g>
        <g
           id="g320"
           transform="translate(1733.7068,1659.5798)">
          <path
             d="m 0,0 -6.59,-8.615 c -3.105,-4.057 -5.915,-8.314 -8.42,-12.754 -4.697,-8.325 -12.882,-22.582 -18.088,-30.223 -7.647,-11.226 -44.847,9.411 -44.847,9.411 l -1.226,7.817 -4.307,2.509 c -0.833,0.486 -1.572,1.142 -2.047,1.971 -1.187,2.071 -0.816,4.528 0.717,6.152 8.382,8.874 26.113,28.961 34.326,48.139 0,0 30.436,3.029 50.482,-24.407"
             style="fill:#ffffff;fill-opacity:1;fill-rule:nonzero;stroke:none"
             id="path322" />
        </g>
        <g
           id="g324"
           transform="translate(1658.7805,1619.5236)">
          <path
             d="m 0,0 c 14.004,-7.517 35.175,-15.42 39.094,-9.672 5.183,7.612 13.465,22.055 17.939,29.986 2.576,4.563 5.493,8.984 8.674,13.14 l 5.054,6.608 C 54.798,60.182 33.144,61.385 26.648,61.262 18.123,42.624 1.733,23.8 -7.473,14.051 c -0.58,-0.613 -0.679,-1.488 -0.254,-2.231 0.148,-0.26 0.448,-0.528 0.842,-0.759 l 4.307,-2.508 c 0.86,-0.501 1.451,-1.364 1.604,-2.348 z m 33.412,-18.128 c -13.513,0 -33.125,10.383 -38.036,13.107 -0.892,0.496 -1.506,1.375 -1.664,2.383 l -0.982,6.261 -2.949,1.718 c -1.405,0.819 -2.528,1.922 -3.253,3.188 -1.881,3.28 -1.405,7.328 1.186,10.069 7.419,7.856 25.555,28.181 33.687,47.169 0.475,1.109 1.516,1.872 2.716,1.991 1.317,0.132 32.559,2.89 53.482,-25.748 0.866,-1.186 0.849,-2.799 -0.044,-3.965 L 70.966,29.43 C 67.97,25.517 65.224,21.356 62.801,17.06 58.275,9.038 49.888,-5.587 44.564,-13.4 c -2.328,-3.42 -6.359,-4.728 -11.152,-4.728"
             style="fill:#000000;fill-opacity:1;fill-rule:nonzero;stroke:none"
             id="path326" />
        </g>
        <g
           id="g328"
           transform="translate(1721.395,1627.9188)">
          <path
             d="M 0,0 C 0,0 15.818,20.732 23.904,11.665 31.989,2.598 13.99,-19.795 0,0"
             style="fill:#ffffff;fill-opacity:1;fill-rule:nonzero;stroke:none"
             id="path330" />
        </g>
        <g
           id="g332"
           transform="translate(719.2479,1125.3802)">
          <path
             d="m 0,0 -37.503,26.151 c -5.573,3.887 -12.822,4.658 -19.125,2.035 L -80.759,18.144 c -4.607,-1.916 -9.778,-2.026 -14.475,-0.335 -20.501,7.382 -107.493,61.886 -112.249,80.847 -2.35,9.373 -0.408,38.64 1.769,62.685 1.823,20.142 -11.085,40.322 -31.175,45.321 l -43.449,12.605 c 0,0 -18.253,-107.718 7.003,-149.98 19.607,-32.809 79.775,-63.744 174.165,-85.035 0,0 20.035,-3.454 42.024,10.781 C -43.102,4.124 -19.697,-9.4 -3.608,-10.14 2.104,-10.402 4.652,-3.244 0,0"
             style="fill:#ffffff;fill-opacity:1;fill-rule:nonzero;stroke:none"
             id="path334" />
        </g>
        <g
           id="g336"
           transform="translate(620.8058,1112.8623)">
          <path
             d="M 0,0 C 0.037,-0.001 18.97,-2.96 39.497,10.33 49.882,17.054 63.612,13.223 76.892,9.514 83.5,7.669 89.74,5.926 94.987,5.685 c 1.713,-0.074 2.295,1.199 2.429,1.592 0.16,0.467 0.392,1.647 -0.869,2.525 L 59.044,35.953 c -4.617,3.221 -10.731,3.868 -15.958,1.695 L 18.955,27.606 C 13.586,25.371 7.592,25.229 2.086,27.212 c -20.067,7.226 -109.087,62.219 -114.338,83.157 -1.994,7.947 -1.427,29.409 1.681,63.788 1.723,19.016 -10.874,37.381 -28.676,41.81 l -39.96,11.591 c -2.862,-19.131 -14.601,-107.647 7.156,-144.054 C -152.432,50.674 -89.721,20.238 0,0 m 5.139,-6.922 c -3.809,0 -6.15,0.382 -6.43,0.43 -92.993,20.971 -155.596,51.715 -176.444,86.599 -25.589,42.817 -8.18,147.784 -7.425,152.231 0.157,0.931 0.705,1.75 1.504,2.252 0.798,0.502 1.768,0.639 2.682,0.375 l 43.449,-12.605 c 21.115,-5.251 35.591,-26.245 33.55,-48.8 -2.957,-32.689 -3.615,-54.559 -1.854,-61.581 4.072,-16.237 87.527,-70.388 110.157,-78.537 3.947,-1.421 8.238,-1.322 12.084,0.277 l 24.13,10.042 c 7.296,3.037 15.836,2.124 22.292,-2.376 l 37.503,-26.151 c 3.328,-2.321 4.642,-6.28 3.349,-10.086 C 102.389,1.324 98.748,-1.104 94.683,-0.93 88.684,-0.654 82.091,1.188 75.111,3.137 63.245,6.45 50.979,9.874 43.096,4.771 27.635,-5.236 13.144,-6.922 5.139,-6.922"
             style="fill:#000000;fill-opacity:1;fill-rule:nonzero;stroke:none"
             id="path338" />
        </g>
        <g
           id="g340"
           transform="translate(415.149,1314.9611)">
          <path
             d="M 0,0 C 0,0 7.346,49.671 15.022,83.997 31.17,156.203 124.75,156.963 124.75,156.963 L 108.405,-26.815 Z"
             style="fill:#c7e8cc;fill-opacity:1;fill-rule:nonzero;stroke:none"
             id="path342" />
        </g>
        <g
           id="g344"
           transform="translate(616.1524,1475.4277)">
          <path
             d="m 0,0 3.843,54.463 c 2.603,0.179 4.401,0.291 4.93,0.297 15.196,0.175 20.132,5.098 21.44,17.579 0.818,7.803 1.106,19.395 -2.699,33.901 -0.406,1.548 -0.317,3.195 0.311,4.667 l 2.597,6.086 c 0.539,1.994 -0.153,4.146 -1.752,5.457 l -1.383,1.135 c -4.955,4.063 -9.076,9.06 -12.381,14.605 -3.041,5.104 -8.208,14.666 -11.751,16.359 -9.983,4.768 -50.49,25.958 -73.132,-11.07 -17.654,-28.869 11.194,-68.611 21.676,-81.63 2.534,-3.148 -17.114,-64.86 -17.114,-64.86 L -90.82,-9.149 c 0,0 19.604,-34.812 79.143,-20.415 42.401,10.253 37.843,23.139 37.843,23.139 z"
             style="fill:#ffffff;fill-opacity:1;fill-rule:nonzero;stroke:none"
             id="path346" />
        </g>
        <g
           id="g348"
           transform="translate(530.8974,1464.217)">
          <path
             d="m 0,0 c 6.865,-8.161 27.711,-26.041 72.801,-15.135 27.656,6.688 33.754,14.148 35.08,17.381 L 84.466,7.995 c -1.567,0.385 -2.628,1.84 -2.513,3.448 l 3.843,54.463 c 0.116,1.647 1.427,2.956 3.074,3.07 2.7,0.187 4.569,0.299 5.117,0.306 14.269,0.164 17.142,4.64 18.187,14.613 1.149,10.942 0.296,21.644 -2.608,32.716 -0.597,2.274 -0.433,4.692 0.468,6.804 l 2.485,5.822 c 0.117,0.686 -0.149,1.417 -0.694,1.863 l -1.384,1.138 c -5.065,4.153 -9.482,9.358 -13.122,15.468 -0.425,0.712 -0.89,1.509 -1.386,2.36 -2.039,3.496 -6.813,11.687 -8.949,12.707 l -1.091,0.524 C 74.159,168.966 38.44,186.224 18.102,152.963 2.039,126.693 27.739,89.785 39.531,75.136 40.807,73.552 43.182,70.603 22.994,7.195 22.643,6.093 21.742,5.253 20.617,4.982 Z M 46.129,-25.194 C 6.529,-25.196 -7.747,-0.813 -8.449,0.437 -8.96,1.341 -9.014,2.431 -8.6,3.382 c 0.413,0.952 1.248,1.654 2.256,1.898 l 23.592,5.7 c 8.346,26.349 16.539,55.185 16.632,60.622 -12.879,16.145 -39.45,55.341 -21.426,84.815 15.569,25.463 41.249,29.784 76.319,12.843 l 1.064,-0.512 c 3.682,-1.76 7.374,-7.728 11.817,-15.347 0.484,-0.831 0.937,-1.61 1.353,-2.306 3.246,-5.449 7.161,-10.071 11.635,-13.739 l 1.384,-1.137 c 2.608,-2.137 3.727,-5.624 2.847,-8.879 -0.04,-0.149 -0.09,-0.295 -0.15,-0.436 l -2.598,-6.086 c -0.325,-0.765 -0.381,-1.662 -0.155,-2.524 3.113,-11.862 4.024,-23.339 2.791,-35.09 C 117.231,68.608 110.305,62.848 94.066,62.66 93.788,62.657 93.14,62.622 92.198,62.562 L 88.753,13.76 112.209,8.002 c 1.084,-0.267 1.959,-1.06 2.332,-2.112 0.196,-0.551 1.056,-3.504 -1.127,-7.532 -4.339,-8.006 -17.481,-14.712 -39.057,-19.929 -10.584,-2.559 -19.96,-3.623 -28.228,-3.623"
             style="fill:#000000;fill-opacity:1;fill-rule:nonzero;stroke:none"
             id="path350" />
        </g>
        <g
           id="g352"
           transform="translate(558.658,1665.9893)">
          <path
             d="m 0,0 c 10.979,2.366 23.596,0.678 28.922,2.637 8.593,3.159 8.832,13.452 20.719,16.344 14.392,3.502 20.396,-2.642 26.023,-11.208 0.939,-1.428 1.764,-3.025 2.439,-4.834 9.047,-24.263 -2.375,-36.095 -7.461,-39.947 0,0 -32.376,-16.728 -37.919,-21.508 -5.185,-4.47 -11.168,-15.056 -7.405,-30.267 0.485,-1.962 -0.37,-4.002 -2.031,-5.003 -1.947,-1.175 -4.467,-0.617 -5.801,1.32 -4.208,6.106 -13.405,17.909 -19.949,15.114 -8.221,-3.511 -5.661,-28.154 12.477,-30.997 5.567,-0.872 10.095,-6.575 9.545,-12.404 -0.359,-3.804 -3.945,-8.42 -9.279,-9.645 -3.251,-0.747 -6.464,0.567 -9.33,2.397 -11.836,7.556 -45.222,39.6 -49.369,68.33 C -53.415,-25.066 -14.609,-3.148 0,0"
             style="fill:#000000;fill-opacity:1;fill-rule:nonzero;stroke:none"
             id="path354" />
        </g>
        <g
           id="g356"
           transform="translate(624.0843,1527.3628)">
          <path
             d="m 0,0 c -0.039,0 -0.078,0.001 -0.114,0.002 -0.561,0.021 -13.797,0.597 -23.348,8.708 -1.293,1.099 -1.453,3.04 -0.354,4.335 1.102,1.293 3.037,1.455 4.337,0.354 C -11.583,6.693 0,6.154 0.116,6.149 1.811,6.081 3.134,4.653 3.069,2.958 3.005,1.301 1.645,0 0,0"
             style="fill:#000000;fill-opacity:1;fill-rule:nonzero;stroke:none"
             id="path358" />
        </g>
        <g
           id="g360"
           transform="translate(1316.0435,1066.329)">
          <path
             d="m 0,0 h 377.819 c 8.205,0 14.857,6.652 14.857,14.857 v 6.601 H -14.857 V 14.857 C -14.857,6.652 -8.205,0 0,0"
             style="fill:#68a2e0;fill-opacity:1;fill-rule:nonzero;stroke:none"
             id="path362" />
        </g>
        <g
           id="g364"
           transform="translate(1304.4977,1084.476)">
          <path
             d="m 0,0 v -3.29 c 0,-6.366 5.18,-11.546 11.547,-11.546 h 377.817 c 6.367,0 11.547,5.18 11.547,11.546 V 0 Z M 389.364,-21.458 H 11.547 c -10.019,0 -18.169,8.15 -18.169,18.168 v 6.601 c 0,1.828 1.483,3.311 3.311,3.311 h 407.533 c 1.828,0 3.31,-1.483 3.31,-3.311 V -3.29 c 0,-10.018 -8.149,-18.168 -18.168,-18.168"
             style="fill:#000000;fill-opacity:1;fill-rule:nonzero;stroke:none"
             id="path366" />
        </g>
        <g
           id="g368"
           transform="translate(1301.1794,1087.3997)">
          <path
             d="M 0,0 H 233.191 L 164.2,198.9 c -4.433,6.692 -12.157,10.75 -20.46,10.75 H -53.386 c -8.941,0 -14.702,-8.512 -11.784,-16.025 C -64.009,190.637 0,0 0,0"
             style="fill:#98b9ea;fill-opacity:1;fill-rule:nonzero;stroke:none"
             id="path370" />
        </g>
        <g
           id="g372"
           transform="translate(1303.5623,1090.7106)">
          <path
             d="m 0,0 h 226.155 l -67.324,194.095 c -3.873,5.601 -10.374,8.933 -17.474,8.933 H -55.768 c -3.203,0 -6.029,-1.443 -7.751,-3.96 -1.574,-2.299 -1.919,-5.053 -0.946,-7.555 C -63.347,188.632 -7.557,22.501 0,0 M 230.809,-6.621 H -2.382 c -1.422,0 -2.686,0.908 -3.138,2.256 -22.042,65.641 -64.015,190.556 -65.121,193.49 -1.746,4.494 -1.127,9.613 1.658,13.683 2.931,4.284 7.871,6.842 13.215,6.842 h 197.125 c 9.467,0 18.147,-4.573 23.221,-12.233 0.153,-0.231 0.276,-0.48 0.366,-0.743 L 233.936,-2.225 c 0.351,-1.013 0.192,-2.132 -0.431,-3.005 -0.621,-0.873 -1.625,-1.391 -2.696,-1.391"
             style="fill:#000000;fill-opacity:1;fill-rule:nonzero;stroke:none"
             id="path374" />
        </g>
        <g
           id="g376"
           transform="translate(1315.9951,1105.9705)">
          <path
             d="M 0,0 H 191.879 L 132.75,172.115 -58.573,172.37 Z"
             style="fill:#ffffff;fill-opacity:1;fill-rule:nonzero;stroke:none"
             id="path378" />
        </g>
        <g
           id="g380"
           transform="translate(1255.5022,481.2712)">
          <path
             d="M 0,0 H -53.734 V 421.419 L 0,418.98 Z"
             style="fill:#3e6eb4;fill-opacity:1;fill-rule:nonzero;stroke:none"
             id="path382" />
        </g>
        <g
           id="g384"
           transform="translate(1427.58,531.1733)">
          <path
             d="m 0,0 h -394.47 c -29.777,0 -53.916,-23.542 -53.916,-52.582 H -197.235 53.916 C 53.916,-23.542 29.777,0 0,0"
             style="fill:#3e6eb4;fill-opacity:1;fill-rule:nonzero;stroke:none"
             id="path386" />
        </g>
        <g
           id="g388"
           transform="translate(1019.3211,1090.3086)">
          <path
             d="m 0,0 h -346.256 c -8.797,0 -15.928,7.131 -15.928,15.928 v 3.897 H 15.928 V 15.928 C 15.928,7.131 8.797,0 0,0"
             style="fill:#98b9ea;fill-opacity:1;fill-rule:nonzero;stroke:none"
             id="path390" />
        </g>
        <g
           id="g392"
           transform="translate(660.4469,1106.8228)">
          <path
             d="m 0,0 v -0.586 c 0,-6.958 5.66,-12.617 12.618,-12.617 h 346.257 c 6.956,0 12.616,5.659 12.616,12.617 V 0 Z M 358.875,-19.825 H 12.618 c -10.609,0 -19.24,8.631 -19.24,19.239 v 3.897 c 0,1.828 1.483,3.31 3.311,3.31 h 378.113 c 1.828,0 3.311,-1.482 3.311,-3.31 v -3.897 c 0,-10.608 -8.631,-19.239 -19.238,-19.239"
             style="fill:#000000;fill-opacity:1;fill-rule:nonzero;stroke:none"
             id="path394" />
        </g>
        <g
           id="g396"
           transform="translate(1035.255,1109.7759)">
          <path
             d="m 0,0 h -216.356 l 68.741,197.596 c 4.114,6.182 11.28,9.931 18.984,9.931 H 54.263 c 8.296,0 13.641,-7.864 10.933,-14.805 -1.076,-2.761 -2.239,-5.489 -3.182,-8.295 z"
             style="fill:#98b9ea;fill-opacity:1;fill-rule:nonzero;stroke:none"
             id="path398" />
        </g>
        <g
           id="g400"
           transform="translate(823.5568,1113.0864)">
          <path
             d="m 0,0 h 209.319 l 61.256,182.171 c 0.709,2.112 1.534,4.174 2.332,6.168 l 0.903,2.276 c 0.866,2.221 0.56,4.671 -0.839,6.719 -1.551,2.27 -4.106,3.571 -7.009,3.571 H 83.067 c -6.499,0 -12.448,-3.028 -16,-8.121 z M 211.698,-6.622 H -4.658 c -1.071,0 -2.078,0.519 -2.699,1.393 -0.62,0.873 -0.78,1.994 -0.429,3.006 l 68.742,197.596 c 0.093,0.263 0.218,0.513 0.371,0.746 4.753,7.143 12.879,11.408 21.74,11.408 h 182.895 c 5.048,0 9.712,-2.414 12.476,-6.457 2.614,-3.826 3.19,-8.633 1.541,-12.862 l -0.925,-2.329 c -0.797,-1.996 -1.552,-3.881 -2.203,-5.816 L 214.837,-4.366 c -0.453,-1.348 -1.716,-2.256 -3.139,-2.256"
             style="fill:#000000;fill-opacity:1;fill-rule:nonzero;stroke:none"
             id="path402" />
        </g>
        <g
           id="g404"
           transform="translate(954.964,1216.2061)">
          <path
             d="m 0,0 c -2.578,-8.354 1.363,-16.904 8.801,-19.095 7.438,-2.192 15.558,2.804 18.135,11.158 C 29.513,0.417 25.573,8.967 18.135,11.158 10.697,13.35 2.577,8.354 0,0"
             style="fill:#ffffff;fill-opacity:1;fill-rule:nonzero;stroke:none"
             id="path406" />
        </g>
        <g
           id="g408"
           transform="translate(970.2638,1106.4648)">
          <path
             d="m 0,0 h -119.197 c -1.828,0 -3.311,1.482 -3.311,3.311 0,1.828 1.483,3.311 3.311,3.311 H 0 C 1.828,6.622 3.311,5.139 3.311,3.311 3.311,1.482 1.828,0 0,0"
             style="fill:#ffffff;fill-opacity:1;fill-rule:nonzero;stroke:none"
             id="path410" />
        </g>
        <g
           id="g412"
           transform="translate(1030.9528,1106.4648)">
          <path
             d="m 0,0 h -21.128 c -1.828,0 -3.31,1.482 -3.31,3.311 0,1.828 1.482,3.311 3.31,3.311 H 0 C 1.828,6.622 3.311,5.139 3.311,3.311 3.311,1.482 1.828,0 0,0"
             style="fill:#ffffff;fill-opacity:1;fill-rule:nonzero;stroke:none"
             id="path414" />
        </g>
        <g
           id="g416"
           transform="translate(1728.8387,1893.1294)">
          <path
             d="m 0,0 c -1.305,1.897 -1.305,4.343 0,6.241 1.801,2.618 2.783,5.441 2.783,8.384 0,13.683 -21.198,24.776 -47.345,24.776 -26.148,0 -47.345,-11.093 -47.345,-24.776 0,-2.943 0.982,-5.766 2.783,-8.384 1.304,-1.898 1.304,-4.344 0,-6.241 -1.801,-2.619 -2.783,-5.442 -2.783,-8.385 0,-6.491 4.773,-12.398 12.58,-16.816 -0.172,-0.737 -0.271,-1.486 -0.271,-2.247 0,-10.126 15.686,-18.335 35.036,-18.335 19.35,0 35.036,8.209 35.036,18.335 0,0.761 -0.099,1.51 -0.271,2.247 7.807,4.418 12.58,10.325 12.58,16.816 C 2.783,-5.441 1.801,-2.619 0,0"
             style="fill:#4b937a;fill-opacity:1;fill-rule:nonzero;stroke:none"
             id="path418" />
        </g>
        <g
           id="g420"
           transform="translate(1684.2762,1929.2192)">
          <path
             d="m 0,0 c -23.87,0 -44.034,-9.829 -44.034,-21.464 0,-2.195 0.74,-4.385 2.201,-6.51 2.086,-3.035 2.086,-6.956 0,-9.991 -1.461,-2.125 -2.201,-4.315 -2.201,-6.51 0,-5.009 3.871,-9.957 10.898,-13.935 l 2.16,-1.221 -0.565,-2.414 c -0.125,-0.531 -0.185,-1.019 -0.185,-1.493 0,-7.106 13.03,-15.024 31.726,-15.024 18.696,0 31.726,7.918 31.726,15.024 0,0.474 -0.06,0.962 -0.185,1.493 l -0.565,2.414 2.16,1.221 c 7.027,3.978 10.898,8.926 10.898,13.935 0,2.198 -0.739,4.388 -2.199,6.508 -2.086,3.035 -2.088,6.958 -0.002,9.993 1.462,2.122 2.201,4.311 2.201,6.51 C 44.034,-9.829 23.87,0 0,0 m 0,-85.183 c -21.503,0 -38.348,9.508 -38.348,21.645 0,0.175 0.004,0.351 0.011,0.529 -7.964,5.06 -12.318,11.58 -12.318,18.534 0,3.56 1.131,7.012 3.364,10.26 0.528,0.768 0.528,1.723 0,2.491 -2.233,3.248 -3.364,6.7 -3.364,10.26 0,15.749 22.25,28.086 50.655,28.086 28.405,0 50.655,-12.337 50.655,-28.086 0,-3.564 -1.131,-7.017 -3.366,-10.262 -0.526,-0.766 -0.526,-1.721 0.002,-2.489 2.233,-3.245 3.364,-6.697 3.364,-10.26 0,-6.954 -4.354,-13.474 -12.318,-18.534 0.006,-0.178 0.011,-0.354 0.011,-0.529 0,-12.137 -16.845,-21.645 -38.348,-21.645"
             style="fill:#000000;fill-opacity:1;fill-rule:nonzero;stroke:none"
             id="path422" />
        </g>
        <g
           id="g424"
           transform="translate(1812.7817,2097.7046)">
          <path
             d="m 0,0 c 0,70.166 -58.401,130.025 -128.568,130.025 -70.033,0 -127.803,-58.237 -128.269,-128.269 -0.237,-35.661 16.966,-68.834 40.42,-92.046 16.919,-16.745 29.251,-37.555 35.241,-60.594 l 0.289,-1.113 c 5.814,-22.36 26,-37.969 49.103,-37.969 h 9.473 c 23.103,0 43.289,15.609 49.103,37.969 l 0.175,0.674 c 5.947,22.875 17.782,43.884 34.701,60.39 C -14.685,-67.862 0,-35.648 0,0"
             style="fill:#ffffff;fill-opacity:1;fill-rule:nonzero;stroke:none"
             id="path426" />
        </g>
        <g
           id="g428"
           transform="translate(1684.2137,2224.4187)">
          <path
             d="m 0,0 c -68.444,0 -124.499,-56.066 -124.958,-124.98 -0.214,-31.972 14.161,-64.655 39.436,-89.671 17.588,-17.406 30.079,-38.884 36.119,-62.113 l 0.289,-1.116 c 5.432,-20.895 24.307,-35.489 45.898,-35.489 h 9.473 c 21.592,0 40.465,14.595 45.896,35.491 l 0.179,0.681 c 6.197,23.836 18.505,45.25 35.591,61.92 24.077,23.488 37.335,54.94 37.335,88.563 C 125.258,-58.028 67.897,0 0,0 m 6.257,-319.99 h -9.473 c -24.607,0 -46.116,16.632 -52.309,40.446 l -0.288,1.116 c -5.74,22.075 -17.623,42.502 -34.365,59.071 -26.536,26.262 -41.626,60.677 -41.402,94.421 0.231,34.797 14.086,67.723 39.014,92.712 C -67.58,-7.175 -34.703,6.622 0,6.622 c 0.002,0 -0.002,0 0,0 71.486,0 131.88,-61.061 131.88,-133.336 0,-35.422 -13.968,-68.558 -39.331,-93.303 -16.224,-15.827 -27.915,-36.178 -33.808,-58.853 l -0.179,-0.681 c -6.191,-23.807 -27.7,-40.439 -52.305,-40.439"
             style="fill:#000000;fill-opacity:1;fill-rule:nonzero;stroke:none"
             id="path430" />
        </g>
        <g
           id="g432"
           transform="translate(1704.2983,2119.1426)">
          <path
             d="m 0,0 c -1.515,-1.474 -2.914,-3.257 -4.132,-5.405 -8.881,-15.67 -6.068,-23.926 -3.6,-27.453 2.509,-3.585 6.857,-5.445 11.06,-4.74 3.283,0.55 5.662,2.599 6.527,5.624 C 13.053,-20.791 7.788,-7.849 0,0 m -37.867,-1.097 c -3.757,-4.457 -6.822,-10.458 -9.07,-17.843 -2.533,-8.327 -1.768,-15.328 2.099,-19.207 2.442,-2.449 5.854,-3.32 9.124,-2.336 4.078,1.228 7.044,5.044 8.139,10.472 1.645,8.15 -2.722,23.939 -10.292,28.914 m 24.992,-195.424 h -0.012 c -1.83,0.008 -3.305,1.496 -3.298,3.325 0.278,68.576 40.285,145.922 48.301,160.73 4.671,8.628 6.462,15.653 5.473,21.475 C 36.13,-2.403 31.759,3.117 24.6,5.416 21.026,6.563 12.833,7.566 5.453,3.871 c 8.805,-9.368 14.636,-24.146 10.769,-37.666 -1.574,-5.497 -5.984,-9.36 -11.799,-10.334 -6.719,-1.124 -13.618,1.81 -17.58,7.475 -3.362,4.805 -7.41,15.68 3.266,34.515 1.388,2.45 2.985,4.548 4.729,6.333 -0.002,0.002 -0.005,0.004 -0.009,0.005 -5.156,3.255 -13.65,5.625 -22.001,2.516 -2.056,-0.765 -4.007,-1.834 -5.837,-3.195 9.325,-7.413 13.935,-24.879 11.926,-34.841 -1.592,-7.898 -6.231,-13.548 -12.721,-15.502 -5.57,-1.677 -11.592,-0.143 -15.724,4.001 -5.647,5.664 -7.012,15.071 -3.742,25.81 2.414,7.933 5.524,13.881 8.874,18.339 -13.297,3.161 -22.501,-3.216 -25.038,-9.481 -3.093,-7.628 -1.961,-16.727 2.951,-23.747 11.754,-16.796 39.242,-65.829 40.585,-158.15 0.026,-1.828 -1.433,-3.332 -3.263,-3.358 -1.919,-0.071 -3.33,1.435 -3.358,3.262 -1.317,90.485 -27.985,138.154 -39.389,154.449 -6.279,8.973 -7.648,20.2 -3.665,30.031 4.372,10.785 18.908,18.101 36.139,12.462 3.453,3.118 6.921,4.998 9.952,6.126 C -18.856,16.874 -8.135,13.898 -1.636,9.8 -1.007,9.402 -0.379,8.974 0.237,8.521 9.139,14.022 19.83,13.902 26.624,11.72 36.188,8.65 42.236,1.18 44.116,-9.882 45.381,-17.322 43.417,-25.5 37.94,-35.618 30.056,-50.183 -9.292,-126.23 -9.564,-193.223 c -0.006,-1.824 -1.489,-3.298 -3.311,-3.298"
             style="fill:#000000;fill-opacity:1;fill-rule:nonzero;stroke:none"
             id="path434" />
        </g>
        <g
           id="g436"
           transform="translate(1743.1375,2014.662)">
          <path
             d="m 0,0 c -1.099,0 -2.175,0.548 -2.804,1.549 -0.974,1.548 -0.509,3.592 1.039,4.565 22.522,14.161 38.733,37.163 44.478,63.109 0.394,1.785 2.159,2.914 3.948,2.516 1.785,-0.395 2.912,-2.162 2.518,-3.948 C 43.053,40.13 25.771,15.606 1.761,0.508 1.214,0.164 0.604,0 0,0"
             style="fill:#000000;fill-opacity:1;fill-rule:nonzero;stroke:none"
             id="path438" />
        </g>
        <g
           id="g440"
           transform="translate(1604.8563,2029.3816)">
          <path
             d="m 0,0 c -0.914,0 -1.821,0.375 -2.477,1.111 -17.353,19.52 -26.911,44.668 -26.911,70.811 0,40.782 22.695,77.388 59.228,95.531 1.632,0.812 3.624,0.146 4.438,-1.493 0.813,-1.638 0.145,-3.625 -1.494,-4.438 -34.265,-17.017 -55.55,-51.35 -55.55,-89.6 0,-24.519 8.962,-48.105 25.238,-66.412 C 3.688,4.144 3.565,2.051 2.199,0.836 1.567,0.276 0.782,0 0,0"
             style="fill:#000000;fill-opacity:1;fill-rule:nonzero;stroke:none"
             id="path442" />
        </g>
        <g
           id="g444"
           transform="translate(1692.3657,1891.1906)">
          <path
             d="m 0,0 c -1.582,0 -2.983,1.139 -3.259,2.752 -0.308,1.803 0.901,3.514 2.705,3.823 4.27,0.732 8.426,1.664 12.351,2.773 C 13.553,9.841 15.386,8.82 15.881,7.061 16.379,5.301 15.355,3.472 13.594,2.975 9.447,1.804 5.063,0.819 0.563,0.048 0.375,0.016 0.185,0 0,0"
             style="fill:#ffffff;fill-opacity:1;fill-rule:nonzero;stroke:none"
             id="path446" />
        </g>
        <g
           id="g448"
           transform="translate(1672.4083,1866.8485)">
          <path
             d="m 0,0 c -1.815,0 -3.296,1.463 -3.311,3.282 -0.015,1.828 1.453,3.323 3.283,3.339 9.652,0.085 23.809,1.424 36.432,7.326 1.657,0.775 3.625,0.06 4.401,-1.597 C 41.581,10.694 40.865,8.724 39.21,7.949 25.508,1.543 10.34,0.09 0.028,0 Z"
             style="fill:#ffffff;fill-opacity:1;fill-rule:nonzero;stroke:none"
             id="path450" />
        </g>
        <g
           id="g452"
           transform="translate(1684.9186,2254.9958)">
          <path
             d="m 0,0 c -0.024,0 -0.047,0 -0.071,0.001 -1.828,0.038 -3.279,1.55 -3.242,3.378 l 1.166,56.117 c 0.039,1.829 1.468,3.292 3.38,3.241 1.828,-0.038 3.278,-1.55 3.242,-3.379 L 3.309,3.242 C 3.27,1.437 1.796,0 0,0"
             style="fill:#000000;fill-opacity:1;fill-rule:nonzero;stroke:none"
             id="path454" />
        </g>
        <g
           id="g456"
           transform="translate(1522.2699,2140.6777)">
          <path
             d="m 0,0 -35.832,0.024 c -1.828,0.001 -3.311,1.485 -3.309,3.313 0.002,1.828 1.483,3.309 3.311,3.309 L 0.002,6.622 C 1.83,6.62 3.313,5.137 3.311,3.309 3.309,1.481 1.828,0 0,0"
             style="fill:#000000;fill-opacity:1;fill-rule:nonzero;stroke:none"
             id="path458" />
        </g>
        <g
           id="g460"
           transform="translate(1555.3325,2215.5996)">
          <path
             d="m 0,0 c -0.535,0 -1.073,0.129 -1.576,0.401 l -40.41,21.9 c -1.608,0.871 -2.205,2.88 -1.332,4.488 0.873,1.61 2.879,2.202 4.487,1.334 L 1.58,6.222 C 3.188,5.351 3.785,3.342 2.912,1.734 2.313,0.627 1.175,0 0,0"
             style="fill:#000000;fill-opacity:1;fill-rule:nonzero;stroke:none"
             id="path462" />
        </g>
        <g
           id="g464"
           transform="translate(1846.287,2140.6777)">
          <path
             d="m 0,0 c -1.828,0 -3.311,1.481 -3.313,3.309 -0.002,1.828 1.481,3.311 3.309,3.313 l 35.83,0.024 c 1.828,0 3.311,-1.481 3.313,-3.309 C 39.141,1.509 37.658,0.025 35.83,0.024 Z"
             style="fill:#000000;fill-opacity:1;fill-rule:nonzero;stroke:none"
             id="path466" />
        </g>
        <g
           id="g468"
           transform="translate(1813.2223,2215.5996)">
          <path
             d="m 0,0 c -1.175,0 -2.313,0.627 -2.912,1.734 -0.873,1.607 -0.276,3.617 1.332,4.488 l 40.408,21.9 c 1.604,0.869 3.617,0.277 4.488,-1.333 0.873,-1.607 0.276,-3.617 -1.332,-4.488 L 1.576,0.401 C 1.073,0.129 0.535,0 0,0"
             style="fill:#000000;fill-opacity:1;fill-rule:nonzero;stroke:none"
             id="path470" />
        </g>
        <g
           id="g472"
           transform="translate(1462.2665,1875.1548)">
          <path
             d="m 0,0 c -2.7,8.758 -12,13.661 -20.774,10.951 -8.774,-2.709 -13.698,-12.005 -10.998,-20.763 2.699,-8.757 12,-13.66 20.774,-10.951 C -2.224,-18.053 2.7,-8.757 0,0"
             style="fill:#3e6eb4;fill-opacity:1;fill-rule:nonzero;stroke:none"
             id="path474" />
        </g>
        <g
           id="g476"
           transform="translate(1346.4615,1768.6646)">
          <path
             d="m 0,0 c -3.082,9.998 -13.7,15.595 -23.716,12.502 -10.016,-3.093 -15.637,-13.705 -12.555,-23.703 3.082,-9.997 13.699,-15.595 23.716,-12.502 C -2.539,-20.61 3.082,-9.998 0,0"
             style="fill:#4b937a;fill-opacity:1;fill-rule:nonzero;stroke:none"
             id="path478" />
        </g>
        <g
           id="g480"
           transform="translate(1334.2904,1589.1705)">
          <path
             d="m 0,0 c -0.972,0 -1.933,0.425 -2.589,1.243 -1.14,1.428 -0.909,3.512 0.52,4.654 l 13.32,10.651 c 1.43,1.142 3.51,0.908 4.654,-0.518 1.14,-1.428 0.91,-3.512 -0.519,-4.654 L 2.065,0.725 C 1.455,0.237 0.724,0 0,0"
             style="fill:#000000;fill-opacity:1;fill-rule:nonzero;stroke:none"
             id="path482" />
        </g>
        <g
           id="g484"
           transform="translate(1365.3204,1613.9825)">
          <path
             d="m 0,0 c -0.972,0 -1.933,0.426 -2.589,1.243 -1.14,1.428 -0.909,3.512 0.52,4.654 l 13.32,10.65 c 1.432,1.143 3.512,0.908 4.654,-0.518 1.14,-1.428 0.91,-3.512 -0.519,-4.654 L 2.065,0.725 C 1.455,0.237 0.724,0 0,0"
             style="fill:#000000;fill-opacity:1;fill-rule:nonzero;stroke:none"
             id="path486" />
        </g>
        <g
           id="g488"
           transform="translate(1349.3894,1615.7338)">
          <path
             d="m 0,0 c -0.97,0 -1.931,0.425 -2.587,1.24 l -10.645,13.287 c -1.143,1.427 -0.912,3.51 0.515,4.654 1.427,1.142 3.509,0.913 4.654,-0.514 L 2.582,5.381 C 3.725,3.954 3.494,1.87 2.067,0.727 1.457,0.238 0.726,0 0,0"
             style="fill:#000000;fill-opacity:1;fill-rule:nonzero;stroke:none"
             id="path490" />
        </g>
        <g
           id="g492"
           transform="translate(1374.188,1584.7842)">
          <path
             d="m 0,0 c -0.97,0 -1.931,0.425 -2.587,1.24 l -10.645,13.287 c -1.143,1.427 -0.912,3.51 0.515,4.654 1.427,1.142 3.509,0.913 4.653,-0.514 L 2.582,5.381 C 3.725,3.954 3.494,1.87 2.067,0.727 1.457,0.238 0.726,0 0,0"
             style="fill:#000000;fill-opacity:1;fill-rule:nonzero;stroke:none"
             id="path494" />
        </g>
      </g>
    </g>
  </g>
</svg>
