<?xml version="1.0" encoding="UTF-8" standalone="no"?>
<!-- Created with Inkscape (http://www.inkscape.org/) -->

<svg
   version="1.1"
   id="svg2"
   width="4266.6665"
   height="3733.3333"
   viewBox="0 0 4266.6665 3733.3333"
   sodipodi:docname="opal5.ai"
   xmlns:inkscape="http://www.inkscape.org/namespaces/inkscape"
   xmlns:sodipodi="http://sodipodi.sourceforge.net/DTD/sodipodi-0.dtd"
   xmlns="http://www.w3.org/2000/svg"
   xmlns:svg="http://www.w3.org/2000/svg">
  <defs
     id="defs6">
    <clipPath
       clipPathUnits="userSpaceOnUse"
       id="clipPath20">
      <path
         d="M 0,2800 H 3200 V 0 H 0 Z"
         id="path18" />
    </clipPath>
  </defs>
  <sodipodi:namedview
     id="namedview4"
     pagecolor="#ffffff"
     bordercolor="#000000"
     borderopacity="0.25"
     inkscape:showpageshadow="2"
     inkscape:pageopacity="0.0"
     inkscape:pagecheckerboard="0"
     inkscape:deskcolor="#d1d1d1" />
  <g
     id="g8"
     inkscape:groupmode="layer"
     inkscape:label="opal5"
     transform="matrix(1.3333333,0,0,-1.3333333,0,3733.3333)">
    <g
       id="g10"
       transform="translate(233.6815,2132.7766)">
      <path
         d="m 0,0 h 1485.031 l 351.861,-516.873 H 351.862 Z"
         style="fill:#caddff;fill-opacity:1;fill-rule:nonzero;stroke:none"
         id="path12" />
    </g>
    <g
       id="g14">
      <g
         id="g16"
         clip-path="url(#clipPath20)">
        <g
           id="g22"
           transform="translate(1424.6882,1836.8228)">
          <path
             d="m 0,0 c 0,-5.183 -4.202,-9.385 -9.384,-9.385 -5.183,0 -9.385,4.202 -9.385,9.385 0,5.183 4.202,9.384 9.385,9.384 C -4.202,9.384 0,5.183 0,0"
             style="fill:#4b937a;fill-opacity:1;fill-rule:nonzero;stroke:none"
             id="path24" />
        </g>
        <g
           id="g26"
           transform="translate(1474.0802,1836.8228)">
          <path
             d="m 0,0 c 0,-5.183 -4.202,-9.385 -9.385,-9.385 -5.182,0 -9.384,4.202 -9.384,9.385 0,5.183 4.202,9.384 9.384,9.384 C -4.202,9.384 0,5.183 0,0"
             style="fill:#4b937a;fill-opacity:1;fill-rule:nonzero;stroke:none"
             id="path28" />
        </g>
        <g
           id="g30"
           transform="translate(1523.472,1836.8228)">
          <path
             d="m 0,0 c 0,-5.183 -4.201,-9.385 -9.384,-9.385 -5.183,0 -9.385,4.202 -9.385,9.385 0,5.183 4.202,9.384 9.385,9.384 C -4.201,9.384 0,5.183 0,0"
             style="fill:#4b937a;fill-opacity:1;fill-rule:nonzero;stroke:none"
             id="path32" />
        </g>
        <g
           id="g34"
           transform="translate(1572.8641,1836.8228)">
          <path
             d="m 0,0 c 0,-5.183 -4.202,-9.385 -9.385,-9.385 -5.183,0 -9.384,4.202 -9.384,9.385 0,5.183 4.201,9.384 9.384,9.384 C -4.202,9.384 0,5.183 0,0"
             style="fill:#4b937a;fill-opacity:1;fill-rule:nonzero;stroke:none"
             id="path36" />
        </g>
        <g
           id="g38"
           transform="translate(1622.256,1836.8228)">
          <path
             d="m 0,0 c 0,-5.183 -4.202,-9.385 -9.385,-9.385 -5.182,0 -9.384,4.202 -9.384,9.385 0,5.183 4.202,9.384 9.384,9.384 C -4.202,9.384 0,5.183 0,0"
             style="fill:#4b937a;fill-opacity:1;fill-rule:nonzero;stroke:none"
             id="path40" />
        </g>
        <g
           id="g42"
           transform="translate(1671.6479,1836.8228)">
          <path
             d="m 0,0 c 0,-5.183 -4.202,-9.385 -9.385,-9.385 -5.182,0 -9.384,4.202 -9.384,9.385 0,5.183 4.202,9.384 9.384,9.384 C -4.202,9.384 0,5.183 0,0"
             style="fill:#4b937a;fill-opacity:1;fill-rule:nonzero;stroke:none"
             id="path44" />
        </g>
        <g
           id="g46"
           transform="translate(1424.6882,1787.4308)">
          <path
             d="m 0,0 c 0,-5.183 -4.202,-9.385 -9.384,-9.385 -5.183,0 -9.385,4.202 -9.385,9.385 0,5.183 4.202,9.384 9.385,9.384 C -4.202,9.384 0,5.183 0,0"
             style="fill:#4b937a;fill-opacity:1;fill-rule:nonzero;stroke:none"
             id="path48" />
        </g>
        <g
           id="g50"
           transform="translate(1474.0802,1787.4308)">
          <path
             d="m 0,0 c 0,-5.183 -4.202,-9.385 -9.385,-9.385 -5.182,0 -9.384,4.202 -9.384,9.385 0,5.183 4.202,9.384 9.384,9.384 C -4.202,9.384 0,5.183 0,0"
             style="fill:#4b937a;fill-opacity:1;fill-rule:nonzero;stroke:none"
             id="path52" />
        </g>
        <g
           id="g54"
           transform="translate(1523.472,1787.4308)">
          <path
             d="m 0,0 c 0,-5.183 -4.201,-9.385 -9.384,-9.385 -5.183,0 -9.385,4.202 -9.385,9.385 0,5.183 4.202,9.384 9.385,9.384 C -4.201,9.384 0,5.183 0,0"
             style="fill:#4b937a;fill-opacity:1;fill-rule:nonzero;stroke:none"
             id="path56" />
        </g>
        <g
           id="g58"
           transform="translate(1572.8641,1787.4308)">
          <path
             d="m 0,0 c 0,-5.183 -4.202,-9.385 -9.385,-9.385 -5.183,0 -9.384,4.202 -9.384,9.385 0,5.183 4.201,9.384 9.384,9.384 C -4.202,9.384 0,5.183 0,0"
             style="fill:#4b937a;fill-opacity:1;fill-rule:nonzero;stroke:none"
             id="path60" />
        </g>
        <g
           id="g62"
           transform="translate(1622.256,1787.4308)">
          <path
             d="m 0,0 c 0,-5.183 -4.202,-9.385 -9.385,-9.385 -5.182,0 -9.384,4.202 -9.384,9.385 0,5.183 4.202,9.384 9.384,9.384 C -4.202,9.384 0,5.183 0,0"
             style="fill:#4b937a;fill-opacity:1;fill-rule:nonzero;stroke:none"
             id="path64" />
        </g>
        <g
           id="g66"
           transform="translate(1671.6479,1787.4308)">
          <path
             d="m 0,0 c 0,-5.183 -4.202,-9.385 -9.385,-9.385 -5.182,0 -9.384,4.202 -9.384,9.385 0,5.183 4.202,9.384 9.384,9.384 C -4.202,9.384 0,5.183 0,0"
             style="fill:#4b937a;fill-opacity:1;fill-rule:nonzero;stroke:none"
             id="path68" />
        </g>
        <g
           id="g70"
           transform="translate(1424.6882,1738.0388)">
          <path
             d="m 0,0 c 0,-5.183 -4.202,-9.384 -9.384,-9.384 -5.183,0 -9.385,4.201 -9.385,9.384 0,5.183 4.202,9.385 9.385,9.385 C -4.202,9.385 0,5.183 0,0"
             style="fill:#4b937a;fill-opacity:1;fill-rule:nonzero;stroke:none"
             id="path72" />
        </g>
        <g
           id="g74"
           transform="translate(1474.0802,1738.0388)">
          <path
             d="m 0,0 c 0,-5.183 -4.202,-9.384 -9.385,-9.384 -5.182,0 -9.384,4.201 -9.384,9.384 0,5.183 4.202,9.385 9.384,9.385 C -4.202,9.385 0,5.183 0,0"
             style="fill:#4b937a;fill-opacity:1;fill-rule:nonzero;stroke:none"
             id="path76" />
        </g>
        <g
           id="g78"
           transform="translate(1523.472,1738.0388)">
          <path
             d="m 0,0 c 0,-5.183 -4.201,-9.384 -9.384,-9.384 -5.183,0 -9.385,4.201 -9.385,9.384 0,5.183 4.202,9.385 9.385,9.385 C -4.201,9.385 0,5.183 0,0"
             style="fill:#4b937a;fill-opacity:1;fill-rule:nonzero;stroke:none"
             id="path80" />
        </g>
        <g
           id="g82"
           transform="translate(1572.8641,1738.0388)">
          <path
             d="m 0,0 c 0,-5.183 -4.202,-9.384 -9.385,-9.384 -5.183,0 -9.384,4.201 -9.384,9.384 0,5.183 4.201,9.385 9.384,9.385 C -4.202,9.385 0,5.183 0,0"
             style="fill:#4b937a;fill-opacity:1;fill-rule:nonzero;stroke:none"
             id="path84" />
        </g>
        <g
           id="g86"
           transform="translate(1622.256,1738.0388)">
          <path
             d="m 0,0 c 0,-5.183 -4.202,-9.384 -9.385,-9.384 -5.182,0 -9.384,4.201 -9.384,9.384 0,5.183 4.202,9.385 9.384,9.385 C -4.202,9.385 0,5.183 0,0"
             style="fill:#4b937a;fill-opacity:1;fill-rule:nonzero;stroke:none"
             id="path88" />
        </g>
        <g
           id="g90"
           transform="translate(1671.6479,1738.0388)">
          <path
             d="m 0,0 c 0,-5.183 -4.202,-9.384 -9.385,-9.384 -5.182,0 -9.384,4.201 -9.384,9.384 0,5.183 4.202,9.385 9.384,9.385 C -4.202,9.385 0,5.183 0,0"
             style="fill:#4b937a;fill-opacity:1;fill-rule:nonzero;stroke:none"
             id="path92" />
        </g>
        <g
           id="g94"
           transform="translate(1424.6882,1688.6469)">
          <path
             d="m 0,0 c 0,-5.183 -4.202,-9.384 -9.384,-9.384 -5.183,0 -9.385,4.201 -9.385,9.384 0,5.183 4.202,9.385 9.385,9.385 C -4.202,9.385 0,5.183 0,0"
             style="fill:#4b937a;fill-opacity:1;fill-rule:nonzero;stroke:none"
             id="path96" />
        </g>
        <g
           id="g98"
           transform="translate(1474.0802,1688.6469)">
          <path
             d="m 0,0 c 0,-5.183 -4.202,-9.384 -9.385,-9.384 -5.182,0 -9.384,4.201 -9.384,9.384 0,5.183 4.202,9.385 9.384,9.385 C -4.202,9.385 0,5.183 0,0"
             style="fill:#4b937a;fill-opacity:1;fill-rule:nonzero;stroke:none"
             id="path100" />
        </g>
        <g
           id="g102"
           transform="translate(1523.472,1688.6469)">
          <path
             d="m 0,0 c 0,-5.183 -4.201,-9.384 -9.384,-9.384 -5.183,0 -9.385,4.201 -9.385,9.384 0,5.183 4.202,9.385 9.385,9.385 C -4.201,9.385 0,5.183 0,0"
             style="fill:#4b937a;fill-opacity:1;fill-rule:nonzero;stroke:none"
             id="path104" />
        </g>
        <g
           id="g106"
           transform="translate(1572.8641,1688.6469)">
          <path
             d="m 0,0 c 0,-5.183 -4.202,-9.384 -9.385,-9.384 -5.183,0 -9.384,4.201 -9.384,9.384 0,5.183 4.201,9.385 9.384,9.385 C -4.202,9.385 0,5.183 0,0"
             style="fill:#4b937a;fill-opacity:1;fill-rule:nonzero;stroke:none"
             id="path108" />
        </g>
        <g
           id="g110"
           transform="translate(1622.256,1688.6469)">
          <path
             d="m 0,0 c 0,-5.183 -4.202,-9.384 -9.385,-9.384 -5.182,0 -9.384,4.201 -9.384,9.384 0,5.183 4.202,9.385 9.384,9.385 C -4.202,9.385 0,5.183 0,0"
             style="fill:#4b937a;fill-opacity:1;fill-rule:nonzero;stroke:none"
             id="path112" />
        </g>
        <g
           id="g114"
           transform="translate(1671.6479,1688.6469)">
          <path
             d="m 0,0 c 0,-5.183 -4.202,-9.384 -9.385,-9.384 -5.182,0 -9.384,4.201 -9.384,9.384 0,5.183 4.202,9.385 9.384,9.385 C -4.202,9.385 0,5.183 0,0"
             style="fill:#4b937a;fill-opacity:1;fill-rule:nonzero;stroke:none"
             id="path116" />
        </g>
        <g
           id="g118"
           transform="translate(1424.6882,1639.255)">
          <path
             d="m 0,0 c 0,-5.183 -4.202,-9.385 -9.384,-9.385 -5.183,0 -9.385,4.202 -9.385,9.385 0,5.183 4.202,9.384 9.385,9.384 C -4.202,9.384 0,5.183 0,0"
             style="fill:#4b937a;fill-opacity:1;fill-rule:nonzero;stroke:none"
             id="path120" />
        </g>
        <g
           id="g122"
           transform="translate(1474.0802,1639.255)">
          <path
             d="m 0,0 c 0,-5.183 -4.202,-9.385 -9.385,-9.385 -5.182,0 -9.384,4.202 -9.384,9.385 0,5.183 4.202,9.384 9.384,9.384 C -4.202,9.384 0,5.183 0,0"
             style="fill:#4b937a;fill-opacity:1;fill-rule:nonzero;stroke:none"
             id="path124" />
        </g>
        <g
           id="g126"
           transform="translate(1523.472,1639.255)">
          <path
             d="m 0,0 c 0,-5.183 -4.201,-9.385 -9.384,-9.385 -5.183,0 -9.385,4.202 -9.385,9.385 0,5.183 4.202,9.384 9.385,9.384 C -4.201,9.384 0,5.183 0,0"
             style="fill:#4b937a;fill-opacity:1;fill-rule:nonzero;stroke:none"
             id="path128" />
        </g>
        <g
           id="g130"
           transform="translate(1572.8641,1639.255)">
          <path
             d="m 0,0 c 0,-5.183 -4.202,-9.385 -9.385,-9.385 -5.183,0 -9.384,4.202 -9.384,9.385 0,5.183 4.201,9.384 9.384,9.384 C -4.202,9.384 0,5.183 0,0"
             style="fill:#4b937a;fill-opacity:1;fill-rule:nonzero;stroke:none"
             id="path132" />
        </g>
        <g
           id="g134"
           transform="translate(1622.256,1639.255)">
          <path
             d="m 0,0 c 0,-5.183 -4.202,-9.385 -9.385,-9.385 -5.182,0 -9.384,4.202 -9.384,9.385 0,5.183 4.202,9.384 9.384,9.384 C -4.202,9.384 0,5.183 0,0"
             style="fill:#4b937a;fill-opacity:1;fill-rule:nonzero;stroke:none"
             id="path136" />
        </g>
        <g
           id="g138"
           transform="translate(1671.6479,1639.255)">
          <path
             d="m 0,0 c 0,-5.183 -4.202,-9.385 -9.385,-9.385 -5.182,0 -9.384,4.202 -9.384,9.385 0,5.183 4.202,9.384 9.384,9.384 C -4.202,9.384 0,5.183 0,0"
             style="fill:#4b937a;fill-opacity:1;fill-rule:nonzero;stroke:none"
             id="path140" />
        </g>
        <g
           id="g142"
           transform="translate(1424.6882,1589.863)">
          <path
             d="m 0,0 c 0,-5.183 -4.202,-9.384 -9.384,-9.384 -5.183,0 -9.385,4.201 -9.385,9.384 0,5.183 4.202,9.385 9.385,9.385 C -4.202,9.385 0,5.183 0,0"
             style="fill:#4b937a;fill-opacity:1;fill-rule:nonzero;stroke:none"
             id="path144" />
        </g>
        <g
           id="g146"
           transform="translate(1474.0802,1589.863)">
          <path
             d="m 0,0 c 0,-5.183 -4.202,-9.384 -9.385,-9.384 -5.182,0 -9.384,4.201 -9.384,9.384 0,5.183 4.202,9.385 9.384,9.385 C -4.202,9.385 0,5.183 0,0"
             style="fill:#4b937a;fill-opacity:1;fill-rule:nonzero;stroke:none"
             id="path148" />
        </g>
        <g
           id="g150"
           transform="translate(1523.472,1589.863)">
          <path
             d="m 0,0 c 0,-5.183 -4.201,-9.384 -9.384,-9.384 -5.183,0 -9.385,4.201 -9.385,9.384 0,5.183 4.202,9.385 9.385,9.385 C -4.201,9.385 0,5.183 0,0"
             style="fill:#4b937a;fill-opacity:1;fill-rule:nonzero;stroke:none"
             id="path152" />
        </g>
        <g
           id="g154"
           transform="translate(1572.8641,1589.863)">
          <path
             d="m 0,0 c 0,-5.183 -4.202,-9.384 -9.385,-9.384 -5.183,0 -9.384,4.201 -9.384,9.384 0,5.183 4.201,9.385 9.384,9.385 C -4.202,9.385 0,5.183 0,0"
             style="fill:#4b937a;fill-opacity:1;fill-rule:nonzero;stroke:none"
             id="path156" />
        </g>
        <g
           id="g158"
           transform="translate(1622.256,1589.863)">
          <path
             d="m 0,0 c 0,-5.183 -4.202,-9.384 -9.385,-9.384 -5.182,0 -9.384,4.201 -9.384,9.384 0,5.183 4.202,9.385 9.384,9.385 C -4.202,9.385 0,5.183 0,0"
             style="fill:#4b937a;fill-opacity:1;fill-rule:nonzero;stroke:none"
             id="path160" />
        </g>
        <g
           id="g162"
           transform="translate(1671.6479,1589.863)">
          <path
             d="m 0,0 c 0,-5.183 -4.202,-9.384 -9.385,-9.384 -5.182,0 -9.384,4.201 -9.384,9.384 0,5.183 4.202,9.385 9.384,9.385 C -4.202,9.385 0,5.183 0,0"
             style="fill:#4b937a;fill-opacity:1;fill-rule:nonzero;stroke:none"
             id="path164" />
        </g>
        <g
           id="g166"
           transform="translate(1880.5555,443.6385)">
          <path
             d="m 0,0 c -1.782,-17.324 -7.686,-29.703 -20.954,-29.703 h -302.617 c 0,0 -4.938,21.343 13.88,37.742 12.732,11.103 35.2,15.585 81.843,26.367 0,0 90.044,26.709 102.089,73.464 H -14.277 C -14.277,107.87 4.122,40.445 0,0"
             style="fill:#ffffff;fill-opacity:1;fill-rule:nonzero;stroke:none"
             id="path168" />
        </g>
        <g
           id="g170"
           transform="translate(1559.8047,416.9848)">
          <path
             d="m 0,0 h 299.796 c 9.913,0 15.872,9.065 17.712,26.943 3.597,35.297 -10.46,92.427 -13.587,104.532 H 197.493 C 182.962,85.064 97.573,59.247 93.887,58.153 L 93.684,58.1 C 90.073,57.266 86.608,56.469 83.281,55.703 44.083,46.689 24.407,42.165 13.281,32.461 -0.523,20.431 -0.596,5.72 0,0 M 299.796,-6.099 H -5.448 l -0.556,2.404 c -0.218,0.941 -5.101,23.238 14.844,40.62 12.366,10.784 32.592,15.436 72.888,24.701 3.291,0.757 6.716,1.545 10.284,2.369 3.338,1.013 88.508,27.359 99.813,71.244 l 0.602,2.334 h 116.577 l 0.626,-2.294 c 0.757,-2.774 18.492,-68.406 14.364,-108.915 l -0.001,-0.003 C 321.777,4.823 313.637,-6.099 299.796,-6.099"
             style="fill:#000000;fill-opacity:1;fill-rule:nonzero;stroke:none"
             id="path172" />
        </g>
        <g
           id="g174"
           transform="translate(1880.5555,443.6385)">
          <path
             d="m 0,0 c 3.768,-17.082 2.008,-29.703 -11.261,-29.703 h -312.31 c 0,0 -10.812,11.551 2.937,26.393 1.932,2.086 4.723,3.31 7.672,3.31 z"
             style="fill:#000000;fill-opacity:1;fill-rule:nonzero;stroke:none"
             id="path176" />
        </g>
        <g
           id="g178"
           transform="translate(1671.7112,458.8475)">
          <path
             d="m 0,0 c -2.94,6.335 -6.257,12.835 -10.672,18.391 -1.348,1.697 -2.83,3.467 -4.823,4.539 -2.7,1.453 -5.136,-2.453 -2.438,-3.904 0.147,-0.079 0.285,-0.173 0.432,-0.252 0.404,-0.216 -0.096,0.089 0.017,-0.001 0.315,-0.251 0.621,-0.506 0.913,-0.781 0.303,-0.285 0.592,-0.583 0.872,-0.888 0.162,-0.177 0.318,-0.358 0.477,-0.537 0.326,-0.369 -0.005,0.027 0.31,-0.372 1.357,-1.718 2.57,-3.528 3.713,-5.376 2.152,-3.481 4.08,-7.086 5.885,-10.735 0.389,-0.785 0.774,-1.572 1.143,-2.366 0.52,-1.12 2.274,-1.375 3.305,-0.811 C 0.369,-2.417 0.522,-1.125 0,0"
             style="fill:#4f50e0;fill-opacity:1;fill-rule:nonzero;stroke:none"
             id="path180" />
        </g>
        <g
           id="g182"
           transform="translate(1693.181,468.8959)">
          <path
             d="m 0,0 c -2.94,6.335 -6.257,12.835 -10.672,18.391 -1.348,1.697 -2.83,3.467 -4.823,4.539 -2.7,1.453 -5.136,-2.453 -2.438,-3.904 0.147,-0.079 0.285,-0.173 0.432,-0.252 0.404,-0.215 -0.096,0.089 0.017,-0.001 0.315,-0.251 0.621,-0.506 0.913,-0.781 0.303,-0.285 0.592,-0.583 0.872,-0.888 0.162,-0.177 0.318,-0.358 0.477,-0.537 0.326,-0.369 -0.005,0.027 0.31,-0.372 1.357,-1.718 2.57,-3.528 3.713,-5.376 2.152,-3.481 4.08,-7.086 5.885,-10.734 0.389,-0.786 0.774,-1.573 1.143,-2.367 0.52,-1.12 2.274,-1.375 3.304,-0.811 C 0.369,-2.417 0.522,-1.124 0,0"
             style="fill:#4f50e0;fill-opacity:1;fill-rule:nonzero;stroke:none"
             id="path184" />
        </g>
        <g
           id="g186"
           transform="translate(1715.7242,477.9396)">
          <path
             d="m 0,0 c -2.94,6.335 -6.257,12.835 -10.672,18.391 -1.348,1.697 -2.83,3.467 -4.823,4.539 -2.7,1.453 -5.136,-2.453 -2.438,-3.904 0.147,-0.079 0.285,-0.173 0.432,-0.252 0.404,-0.216 -0.096,0.089 0.017,-0.001 0.315,-0.251 0.621,-0.506 0.913,-0.781 0.303,-0.285 0.592,-0.583 0.872,-0.888 0.162,-0.177 0.318,-0.358 0.477,-0.537 0.326,-0.369 -0.005,0.027 0.31,-0.372 1.357,-1.718 2.57,-3.528 3.713,-5.376 2.152,-3.481 4.08,-7.086 5.885,-10.735 0.389,-0.785 0.774,-1.572 1.143,-2.366 0.52,-1.12 2.274,-1.375 3.305,-0.811 C 0.369,-2.417 0.522,-1.125 0,0"
             style="fill:#4f50e0;fill-opacity:1;fill-rule:nonzero;stroke:none"
             id="path188" />
        </g>
        <g
           id="g190"
           transform="translate(1106.2427,1573.0258)">
          <path
             d="M 0,0 C -12.109,0 -27.815,-3.429 -46.698,-10.269 -97.615,-28.713 -137.2,-62.061 -175.052,-118.4 c -82.282,-122.467 -91.017,-244.324 -83.855,-324.983 6.459,-72.743 26.605,-125.857 33.336,-141.956 29.341,41.768 105.978,212.674 173.907,364.163 26.11,58.228 50.772,113.226 71.267,157.608 11.823,25.603 12.888,46.721 2.847,56.491 C 17.598,-2.355 10.033,0 0,0 m -227.095,-597.587 -2.221,4.702 c -0.282,0.596 -28.234,60.596 -36.083,148.996 -4.61,51.91 -1.506,103.36 9.225,152.92 13.415,61.959 38.853,121.112 75.607,175.816 38.647,57.522 79.208,91.623 131.517,110.571 37.705,13.658 63.34,14.242 76.196,1.734 17.184,-16.722 4.632,-49.726 -1.563,-63.14 -20.481,-44.352 -45.136,-99.336 -71.24,-157.548 -70.852,-158.007 -151.158,-337.096 -178.095,-369.972 z"
             style="fill:#000000;fill-opacity:1;fill-rule:nonzero;stroke:none"
             id="path192" />
        </g>
        <g
           id="g194"
           transform="translate(871.4443,750.9589)">
          <path
             d="m 0,0 c -0.083,1.452 -7.914,147.153 19.186,320.45 15.924,101.836 40.617,193.167 73.393,271.455 41.041,98.032 94.957,175.802 160.25,231.15 l 4.373,-4.521 C 110.928,694.539 50.546,478.814 25.649,319.677 -1.372,146.961 6.424,1.77 6.506,0.324 Z"
             style="fill:#000000;fill-opacity:1;fill-rule:nonzero;stroke:none"
             id="path196" />
        </g>
        <g
           id="g198"
           transform="translate(661.6006,1378.0983)">
          <path
             d="m 0,0 c -5.054,0 -8.955,-1.208 -11.589,-3.63 -7.156,-6.581 -6.066,-23.482 2.844,-44.108 14.155,-32.765 31.264,-73.392 49.378,-116.403 45.706,-108.525 97.094,-230.545 117.626,-265.568 3.668,15.306 11.544,54.043 11.718,105.002 0.207,60.956 -10.884,152.39 -64.899,241.813 C 80.308,-41.886 55.714,-18.207 25.335,-6.116 15.104,-2.045 6.576,0 0,0 m 160.822,-444.828 -3.959,5.447 c -17.395,23.933 -73.123,156.256 -122.291,273.004 -18.109,42.998 -35.213,83.612 -49.357,116.353 -4.834,11.191 -14.645,38.537 -1.37,50.744 8.21,7.551 23.027,7.139 44.039,-1.224 31.786,-12.65 57.343,-37.135 82.866,-79.388 24.184,-40.039 41.966,-83.803 52.85,-130.078 8.703,-37.001 13.04,-75.679 12.891,-114.962 -0.254,-66.905 -13.66,-113.088 -13.795,-113.546 z"
             style="fill:#000000;fill-opacity:1;fill-rule:nonzero;stroke:none"
             id="path200" />
        </g>
        <g
           id="g202"
           transform="translate(832.2319,767.0162)">
          <path
             d="m 0,0 c -0.023,1.093 -2.584,110.771 -26.844,240.031 -22.342,119.053 -68.172,279.536 -159.617,367.99 l 4.681,4.241 c 40.955,-39.615 76.334,-96.504 105.155,-169.089 23,-57.922 41.913,-125.944 56.214,-202.172 C 3.925,111.292 6.491,1.217 6.514,0.121 Z"
             style="fill:#000000;fill-opacity:1;fill-rule:nonzero;stroke:none"
             id="path204" />
        </g>
        <path
           d="M 884.915,1568.379 H 347.537 v 400.091 h 537.378 z"
           style="fill:#ffffff;fill-opacity:1;fill-rule:nonzero;stroke:none"
           id="path206" />
        <path
           d="m 350.795,1571.637 h 530.862 v 393.576 H 350.795 Z m 537.378,-6.516 H 344.28 v 406.607 h 543.893 z"
           style="fill:#000000;fill-opacity:1;fill-rule:nonzero;stroke:none"
           id="path208" />
        <path
           d="M 1552.412,1734.449 H 816.95 v 547.57 h 735.462 z"
           style="fill:#ffffff;fill-opacity:1;fill-rule:nonzero;stroke:none"
           id="path210" />
        <path
           d="m 820.208,1737.707 h 728.947 v 541.054 H 820.208 Z m 735.462,-6.516 H 813.692 v 554.085 h 741.978 z"
           style="fill:#000000;fill-opacity:1;fill-rule:nonzero;stroke:none"
           id="path212" />
        <g
           id="g214"
           transform="translate(1506.9813,443.6385)">
          <path
             d="m 0,0 c -1.782,-17.324 -7.686,-29.703 -20.955,-29.703 h -302.616 c 0,0 -4.938,21.343 13.88,37.742 12.732,11.103 35.2,15.585 81.843,26.367 0,0 90.044,26.709 102.089,73.464 H -14.277 C -14.277,107.87 4.122,40.445 0,0"
             style="fill:#ffffff;fill-opacity:1;fill-rule:nonzero;stroke:none"
             id="path216" />
        </g>
        <g
           id="g218"
           transform="translate(1186.2305,416.9848)">
          <path
             d="m 0,0 h 299.796 c 9.913,0 15.872,9.065 17.712,26.943 3.597,35.297 -10.46,92.427 -13.588,104.532 H 197.493 C 182.961,85.064 97.574,59.247 93.887,58.153 L 93.684,58.1 C 90.075,57.266 86.611,56.469 83.285,55.704 44.084,46.69 24.407,42.165 13.281,32.461 -0.523,20.431 -0.596,5.72 0,0 M 299.796,-6.099 H -5.448 l -0.556,2.404 c -0.218,0.941 -5.101,23.238 14.844,40.62 12.367,10.784 32.593,15.436 72.89,24.702 3.291,0.756 6.716,1.544 10.283,2.368 3.347,1.017 88.507,27.361 99.812,71.244 l 0.601,2.334 h 116.577 l 0.626,-2.294 c 0.757,-2.774 18.494,-68.406 14.365,-108.915 V 26.361 C 321.778,4.823 313.637,-6.099 299.796,-6.099"
             style="fill:#000000;fill-opacity:1;fill-rule:nonzero;stroke:none"
             id="path220" />
        </g>
        <g
           id="g222"
           transform="translate(2281.1597,1943.0599)">
          <path
             d="M 0,0 C 8.47,-54.542 42.907,-122.412 42.907,-122.412 H -94.108 c 16.111,16.595 22.45,43.847 24.572,68.633 0.539,6.264 0.809,12.37 0.893,18.103 -1.889,-0.474 -3.788,-0.921 -5.715,-1.321 -3.751,-0.782 -7.25,-1.126 -10.517,-1.08 -58.879,0.773 -40.972,128.816 -40.972,128.816 0,0 32.93,66.595 107.967,40.962 C 57.157,106.059 51.666,73.026 40.218,42.61 40.218,42.61 25.865,21.081 0,0"
             style="fill:#ffffff;fill-opacity:1;fill-rule:nonzero;stroke:none"
             id="path224" />
        </g>
        <g
           id="g226"
           transform="translate(2194.1523,1823.9058)">
          <path
             d="M 0,0 H 124.69 C 116.777,16.435 90.952,72.521 83.788,118.654 l -0.287,1.846 1.448,1.18 c 23.527,19.174 37.542,38.957 39.364,41.596 5.502,14.696 9.587,30.265 2.774,44.707 -7.425,15.742 -26.729,28.757 -59.013,39.789 -29.933,10.226 -56.476,6.785 -78.892,-10.224 -15.299,-11.608 -23.418,-25.945 -24.867,-28.652 -0.935,-7.279 -10.172,-84.621 14.849,-113.764 6.133,-7.143 13.66,-10.675 23.011,-10.798 3.084,-0.044 6.38,0.297 9.809,1.012 1.727,0.359 3.554,0.781 5.586,1.292 l 4.113,1.033 -0.062,-4.24 C 21.531,77.183 21.227,71.014 20.716,65.096 18.277,36.604 11.317,14.753 0,0 M 129.915,-6.516 H -14.804 l 5.366,5.527 c 13.068,13.461 21.03,35.883 23.663,66.642 0.382,4.439 0.646,9.025 0.788,13.68 -0.578,-0.128 -1.144,-0.25 -1.7,-0.366 C 9.417,78.156 5.626,77.772 2.086,77.82 c -11.171,0.146 -20.548,4.544 -27.868,13.072 -28.045,32.671 -16.777,115.924 -16.283,119.452 l 0.073,0.521 0.233,0.471 c 0.35,0.708 8.778,17.491 26.788,31.24 16.7,12.748 45.033,25.068 85.152,11.361 34.04,-11.632 54.582,-25.754 62.798,-43.174 7.904,-16.754 3.371,-34.003 -2.706,-50.147 l -0.131,-0.349 -0.206,-0.31 C 129.35,159.078 115.547,138.571 90.52,117.824 99.287,64.738 132.482,-1.117 132.82,-1.784 l 2.401,-4.731 z"
             style="fill:#000000;fill-opacity:1;fill-rule:nonzero;stroke:none"
             id="path228" />
        </g>
        <g
           id="g230"
           transform="translate(2137.9072,2010.3815)">
          <path
             d="m 0,0 114.623,0.273 c 0,0 -5.509,94.591 -34.406,90.194 C 51.32,86.07 2.728,65.88 0,0"
             style="fill:#000000;fill-opacity:1;fill-rule:nonzero;stroke:none"
             id="path232" />
        </g>
        <g
           id="g234"
           transform="translate(1890.5917,514.9825)">
          <path
             d="m 0,0 h -211.032 l -10.521,149.35 -14.054,199.653 -4.933,70.017 199.367,137.664 0.689,-9.335 1.355,-18.248 z"
             style="fill:#3e6eb4;fill-opacity:1;fill-rule:nonzero;stroke:none"
             id="path236" />
        </g>
        <g
           id="g238"
           transform="translate(1851.4626,1044.0835)">
          <path
             d="M 0,0 C -41.54,-85.854 -141.096,-291.847 -182.424,-379.751 L -196.478,-180.098 -1.355,18.248 Z"
             style="fill:#000000;fill-opacity:1;fill-rule:nonzero;stroke:none"
             id="path240" />
        </g>
        <g
           id="g242"
           transform="translate(2314.5503,1412.3092)">
          <path
             d="m 0,0 c 8.39,0 16.06,-4.282 19.804,-11.073 31.415,-56.979 162.238,-315.89 -32.546,-352.595 -185.281,-34.915 -379.148,-10.835 -434.559,-2.574 -9.381,1.399 -18.696,-2.77 -23.156,-10.364 l -305.752,-520.721 h -242.29 l 314.532,561.709 c 42.448,70.006 46.836,107.949 126.931,141.499 8.957,3.752 18.235,6.807 27.72,9.164 l 248.334,61.717 c 53.935,10.339 107.926,54.28 107.996,104.146 l -0.358,0.099 c 0.015,11.048 9.922,19.998 22.138,19.998 z"
             style="fill:#3e6eb4;fill-opacity:1;fill-rule:nonzero;stroke:none"
             id="path244" />
        </g>
        <g
           id="g246"
           transform="translate(2318.7605,2103.3621)">
          <path
             d="M 0,0 C -26.224,-18.245 -62.805,-4.839 -71.93,25.777 -84.174,66.851 -71.706,130.652 -8.131,115.83 57.276,100.581 42.03,29.242 0,0"
             style="fill:#000000;fill-opacity:1;fill-rule:nonzero;stroke:none"
             id="path248" />
        </g>
        <g
           id="g250"
           transform="translate(2187.0476,1820.6466)">
          <path
             d="m 0,0 c 0,0 -92.32,-96.614 -94.467,-214.698 -2.147,-118.084 28.984,-228.653 28.984,-228.653 h 221.139 c 0,0 122.675,185.714 -18.638,443.351 z"
             style="fill:#ffffff;fill-opacity:1;fill-rule:nonzero;stroke:none"
             id="path252" />
        </g>
        <g
           id="g254"
           transform="translate(2124.0576,1380.5537)">
          <path
             d="m 0,0 h 216.843 c 5.175,8.462 30.873,53.122 42.317,122.669 11.661,70.865 10.469,182.777 -61.083,314.166 H 64.41 C 59.868,431.884 39.549,409.035 19.271,375.208 -1.79,340.076 -27.125,285.556 -28.221,225.336 -30.162,118.521 -4.434,16.693 0,0 M 220.397,-6.516 H -4.96 l -0.669,2.375 c -0.312,1.111 -31.236,112.387 -29.105,229.595 1.122,61.718 26.995,117.402 48.503,153.248 23.265,38.777 46.632,63.397 46.866,63.641 l 0.963,1.008 h 140.339 l 0.928,-1.692 c 32.414,-59.097 53.574,-119.331 62.89,-179.028 7.46,-47.801 7.386,-95.361 -0.222,-141.359 C 252.565,42.861 221.674,-4.583 221.363,-5.054 Z"
             style="fill:#000000;fill-opacity:1;fill-rule:nonzero;stroke:none"
             id="path256" />
        </g>
        <path
           d="m 2094.728,1351.532 h -859.865 v 44.013 h 859.865 z"
           style="fill:#000000;fill-opacity:1;fill-rule:nonzero;stroke:none"
           id="path258" />
        <g
           id="g260"
           transform="translate(2515.3857,1377.9486)">
          <path
             d="m 0,0 c -0.007,-18.736 -0.851,-37.479 -2.827,-56.127 -0.482,-4.548 -1.031,-9.09 -1.652,-13.623 -0.073,-0.538 -0.149,-1.076 -0.224,-1.614 -0.261,-1.883 0.301,2.039 0.024,0.16 -0.168,-1.139 -0.337,-2.277 -0.512,-3.415 -0.349,-2.267 -0.716,-4.531 -1.103,-6.793 -1.507,-8.807 -3.304,-17.572 -5.428,-26.268 -4.13,-16.903 -9.496,-33.553 -16.332,-49.674 -0.404,-0.953 -0.813,-1.904 -1.227,-2.853 -0.233,-0.533 -0.468,-1.066 -0.704,-1.598 -0.105,-0.237 -0.211,-0.473 -0.315,-0.709 -0.538,-1.222 0.736,1.617 0.324,0.715 -0.887,-1.938 -1.779,-3.874 -2.701,-5.798 -1.869,-3.896 -3.829,-7.755 -5.88,-11.569 -4.098,-7.618 -8.564,-15.062 -13.401,-22.289 -2.424,-3.623 -4.941,-7.191 -7.55,-10.699 -1.289,-1.733 -2.6,-3.451 -3.934,-5.155 -0.688,-0.879 -1.382,-1.755 -2.082,-2.626 -0.33,-0.41 -0.661,-0.82 -0.993,-1.229 -0.242,-0.297 -1.589,-1.937 -0.571,-0.701 1.049,1.274 -0.253,-0.3 -0.456,-0.543 -0.34,-0.405 -0.681,-0.81 -1.023,-1.213 -0.727,-0.858 -1.461,-1.713 -2.2,-2.562 -1.484,-1.706 -2.991,-3.393 -4.52,-5.062 -2.991,-3.264 -6.068,-6.458 -9.228,-9.579 -6.54,-6.46 -13.435,-12.604 -20.636,-18.414 -3.69,-2.977 -7.466,-5.855 -11.302,-8.665 -1.564,-1.147 1.607,1.146 0.024,0.017 -0.527,-0.376 -1.054,-0.754 -1.583,-1.128 -1.003,-0.71 -2.011,-1.414 -3.023,-2.113 -1.981,-1.366 -3.98,-2.709 -5.995,-4.03 -17.3,-11.339 -35.824,-20.995 -55.05,-29.155 -2.518,-1.068 -5.049,-2.111 -7.59,-3.13 -0.275,-0.11 -2.517,-1.007 -1.058,-0.423 1.437,0.576 -0.93,-0.36 -1.308,-0.507 -1.342,-0.52 -2.688,-1.033 -4.036,-1.54 -5.42,-2.037 -10.886,-3.966 -16.39,-5.794 -11.562,-3.839 -23.293,-7.23 -35.135,-10.229 -12.583,-3.186 -25.291,-5.929 -38.079,-8.292 -6.788,-1.255 -13.599,-2.402 -20.427,-3.45 -3.56,-0.546 -7.124,-1.065 -10.693,-1.559 -1.702,-0.235 -3.404,-0.465 -5.108,-0.688 -0.857,-0.113 -1.715,-0.223 -2.573,-0.334 -0.455,-0.059 -1.709,-0.226 0.385,0.047 -0.539,-0.07 -1.08,-0.135 -1.62,-0.201 -31.193,-3.842 -62.632,-5.824 -94.078,-6.499 -8.339,-0.178 -16.68,-0.261 -25.022,-0.264 -4.57,-10e-4 -8.949,-3.761 -8.737,-8.179 0.212,-4.43 3.839,-8.18 8.737,-8.179 32.807,0.011 65.633,1.302 98.271,4.473 28.791,2.797 57.478,6.946 85.672,13.125 24.04,5.269 47.742,12.018 70.635,20.7 20.788,7.883 40.959,17.16 59.918,28.405 17.245,10.228 33.549,21.991 48.316,35.193 13.981,12.498 26.538,26.378 37.581,41.227 10.502,14.121 19.493,29.205 26.998,44.907 7.859,16.442 14.272,33.443 19.218,50.85 5.106,17.969 8.638,36.268 11.172,54.701 2.549,18.542 3.899,37.221 4.342,55.908 0.111,4.68 0.163,9.362 0.164,14.044 0.002,4.278 -4.02,8.377 -8.737,8.179 C 4.002,7.98 0.001,4.585 0,0"
             style="fill:#000000;fill-opacity:1;fill-rule:nonzero;stroke:none"
             id="path262" />
        </g>
        <g
           id="g264"
           transform="translate(1977.0273,407.5017)">
          <path
             d="M 0,0 -6.135,2.055 232.548,626.33 319.751,637.378 320.613,635 550.181,2.007 l -6.17,-1.959 -228.704,630.613 -77.96,-9.877 z"
             style="fill:#000000;fill-opacity:1;fill-rule:nonzero;stroke:none"
             id="path266" />
        </g>
        <g
           id="g268"
           transform="translate(1396.3925,1751.2904)">
          <path
             d="m 0,0 c 1.523,-3.164 3.046,-6.328 4.569,-9.491 4.144,-8.61 8.289,-17.22 12.433,-25.829 6.13,-12.734 12.26,-25.468 18.39,-38.202 7.478,-15.536 14.957,-31.072 22.436,-46.608 8.151,-16.933 16.302,-33.866 24.454,-50.8 8.268,-17.176 16.537,-34.353 24.805,-51.529 7.711,-16.02 15.423,-32.039 23.134,-48.058 6.518,-13.539 13.035,-27.079 19.553,-40.618 4.688,-9.738 9.375,-19.476 14.063,-29.215 2.217,-4.604 4.291,-9.316 6.664,-13.843 0.102,-0.195 0.191,-0.397 0.287,-0.595 1.303,-2.709 4.659,-4.328 7.544,-4.328 h 10.153 27.81 40.948 50.214 54.74 55.53 51.528 43.759 31.312 c 4.954,0 9.922,-0.109 14.874,0 0.218,0.005 0.437,0 0.655,0 4.57,0 8.949,4.019 8.738,8.738 -0.213,4.734 -3.84,8.737 -8.738,8.737 H 549.702 521.892 480.944 430.73 375.991 320.46 268.932 225.173 193.861 c -4.944,0 -9.933,0.194 -14.874,0 -0.218,-0.008 -0.437,0 -0.655,0 2.515,-1.442 5.03,-2.885 7.545,-4.327 -1.523,3.164 -3.046,6.327 -4.569,9.491 -4.145,8.61 -8.289,17.22 -12.434,25.829 -6.13,12.734 -12.259,25.468 -18.389,38.202 -7.479,15.536 -14.958,31.072 -22.436,46.608 -8.151,16.933 -16.303,33.866 -24.454,50.8 -8.269,17.176 -16.537,34.353 -24.805,51.529 -7.712,16.019 -15.423,32.039 -23.134,48.057 -6.518,13.54 -13.036,27.08 -19.553,40.619 -4.688,9.738 -9.376,19.476 -14.063,29.214 C 19.823,-1.014 17.749,3.698 15.376,8.225 15.274,8.42 15.185,8.622 15.089,8.82 13.102,12.949 6.881,14.37 3.135,11.955 -1.104,9.222 -2.126,4.417 0,0"
             style="fill:#000000;fill-opacity:1;fill-rule:nonzero;stroke:none"
             id="path270" />
        </g>
        <g
           id="g272"
           transform="translate(1066.2124,407.5557)">
          <path
             d="M 0,0 -6.217,1.826 322.361,982.179 H 879.415 L 880.04,979.883 1146.535,1.666 1140.222,0.16 874.352,976.08 H 327.145 Z"
             style="fill:#000000;fill-opacity:1;fill-rule:nonzero;stroke:none"
             id="path274" />
        </g>
        <g
           id="g276"
           transform="translate(1495.7429,2152.7827)">
          <path
             d="m 0,0 c 0,-34.304 -27.809,-62.114 -62.113,-62.114 -34.305,0 -62.114,27.81 -62.114,62.114 0,34.304 27.809,62.113 62.114,62.113 C -27.809,62.113 0,34.304 0,0"
             style="fill:#4b937a;fill-opacity:1;fill-rule:nonzero;stroke:none"
             id="path278" />
        </g>
        <g
           id="g280"
           transform="translate(985.9678,1904.3292)">
          <path
             d="m 0,0 c 0,-34.304 -27.809,-62.113 -62.113,-62.113 -34.305,0 -62.114,27.809 -62.114,62.113 0,34.304 27.809,62.113 62.114,62.113 C -27.809,62.113 0,34.304 0,0"
             style="fill:#4b937a;fill-opacity:1;fill-rule:nonzero;stroke:none"
             id="path282" />
        </g>
        <g
           id="g284"
           transform="translate(884.9151,2184.572)">
          <path
             d="M 0,0 H 436.969"
             style="fill:#ffffff;fill-opacity:1;fill-rule:nonzero;stroke:none"
             id="path286" />
        </g>
        <path
           d="M 1321.884,2181.314 H 884.915 v 6.516 h 436.969 z"
           style="fill:#000000;fill-opacity:1;fill-rule:nonzero;stroke:none"
           id="path288" />
        <g
           id="g290"
           transform="translate(884.9151,2132.7766)">
          <path
             d="M 0,0 H 436.969"
             style="fill:#ffffff;fill-opacity:1;fill-rule:nonzero;stroke:none"
             id="path292" />
        </g>
        <path
           d="M 1321.884,2129.519 H 884.915 v 6.516 h 436.969 z"
           style="fill:#000000;fill-opacity:1;fill-rule:nonzero;stroke:none"
           id="path294" />
        <g
           id="g296"
           transform="translate(884.9151,2090.0454)">
          <path
             d="M 0,0 H 436.969"
             style="fill:#ffffff;fill-opacity:1;fill-rule:nonzero;stroke:none"
             id="path298" />
        </g>
        <path
           d="M 1321.884,2086.787 H 884.915 v 6.516 h 436.969 z"
           style="fill:#000000;fill-opacity:1;fill-rule:nonzero;stroke:none"
           id="path300" />
        <g
           id="g302"
           transform="translate(1028.6473,1951.4927)">
          <path
             d="M 0,0 H 436.969"
             style="fill:#ffffff;fill-opacity:1;fill-rule:nonzero;stroke:none"
             id="path304" />
        </g>
        <path
           d="m 1465.617,1948.235 h -436.969 v 6.516 h 436.969 z"
           style="fill:#000000;fill-opacity:1;fill-rule:nonzero;stroke:none"
           id="path306" />
        <g
           id="g308"
           transform="translate(1028.6473,1899.6971)">
          <path
             d="M 0,0 H 436.969"
             style="fill:#ffffff;fill-opacity:1;fill-rule:nonzero;stroke:none"
             id="path310" />
        </g>
        <path
           d="m 1465.617,1896.439 h -436.969 v 6.516 h 436.969 z"
           style="fill:#000000;fill-opacity:1;fill-rule:nonzero;stroke:none"
           id="path312" />
        <g
           id="g314"
           transform="translate(1028.6473,1856.9659)">
          <path
             d="M 0,0 H 436.969"
             style="fill:#ffffff;fill-opacity:1;fill-rule:nonzero;stroke:none"
             id="path316" />
        </g>
        <path
           d="m 1465.617,1853.708 h -436.969 v 6.516 h 436.969 z"
           style="fill:#000000;fill-opacity:1;fill-rule:nonzero;stroke:none"
           id="path318" />
        <g
           id="g320"
           transform="translate(410.7253,1695.6023)">
          <path
             d="M 0,0 H 362.264"
             style="fill:#ffffff;fill-opacity:1;fill-rule:nonzero;stroke:none"
             id="path322" />
        </g>
        <path
           d="M 772.99,1692.345 H 410.726 v 6.516 H 772.99 Z"
           style="fill:#000000;fill-opacity:1;fill-rule:nonzero;stroke:none"
           id="path324" />
        <g
           id="g326"
           transform="translate(410.7253,1632.153)">
          <path
             d="M 0,0 H 362.264"
             style="fill:#ffffff;fill-opacity:1;fill-rule:nonzero;stroke:none"
             id="path328" />
        </g>
        <path
           d="M 772.99,1628.895 H 410.726 v 6.516 H 772.99 Z"
           style="fill:#000000;fill-opacity:1;fill-rule:nonzero;stroke:none"
           id="path330" />
        <g
           id="g332"
           transform="translate(1110.3376,1154.064)">
          <path
             d="m 0,0 c 0,0 31.53,-45.285 61.189,-70.339 44.013,-37.179 108.422,4.019 61.189,64.31 -47.234,60.291 -139.554,-2.01 -139.554,-2.01 z"
             style="fill:#000000;fill-opacity:1;fill-rule:nonzero;stroke:none"
             id="path334" />
        </g>
        <g
           id="g336"
           transform="translate(958.6927,950.6558)">
          <path
             d="m 0,0 c 0,0 116.87,250.291 254.239,207.114 2.341,-0.736 4.131,1.991 2.34,3.582 C 228.816,235.363 132.029,309.92 52.2,231.462 -42.058,138.821 0,0 0,0"
             style="fill:#ffffff;fill-opacity:1;fill-rule:nonzero;stroke:none"
             id="path338" />
        </g>
        <g
           id="g340"
           transform="translate(1091.7822,1213.9156)">
          <path
             d="m 0,0 c -26.05,0 -53.199,-9.005 -78.53,-33.901 -47.976,-47.152 -59.408,-106.751 -60.55,-148.446 -0.878,-32.072 4.009,-58.7 6.975,-71.638 9.533,18.821 35.648,67.479 72.027,112.318 27.179,33.499 54.716,58.387 81.846,73.974 32.91,18.906 65.313,24.156 96.375,15.629 C 97.786,-34.58 51.019,0 0,0 m -133.744,-272.274 -2.48,8.182 c -0.106,0.351 -10.634,35.686 -9.369,81.901 0.745,27.177 5.352,52.784 13.693,76.113 10.451,29.227 26.82,54.926 48.652,76.384 81.825,80.418 180.643,4.518 208.98,-20.659 1.901,-1.688 2.287,-4.332 0.939,-6.43 -1.358,-2.113 -4.056,-3.039 -6.559,-2.253 -30.362,9.544 -62.29,4.89 -94.895,-13.831 -26.431,-15.176 -53.361,-39.538 -80.042,-72.41 -45.642,-56.231 -74.988,-118.581 -75.28,-119.204 z"
             style="fill:#000000;fill-opacity:1;fill-rule:nonzero;stroke:none"
             id="path342" />
        </g>
        <g
           id="g344"
           transform="translate(952.5864,863.0816)">
          <path
             d="m 0,0 -6.493,0.501 c 0.546,6.193 13.585,152.203 32.375,199.106 8.926,22.279 29.149,64.277 64.31,95.236 38.319,33.738 83.331,45.269 133.78,34.279 l -1.476,-5.94 C 102.89,349.24 46.437,233.545 31.983,197.466 13.509,151.355 0.133,1.508 0,0"
             style="fill:#000000;fill-opacity:1;fill-rule:nonzero;stroke:none"
             id="path346" />
        </g>
        <g
           id="g348"
           transform="translate(1506.9813,443.6385)">
          <path
             d="m 0,0 c 3.768,-17.082 2.007,-29.703 -11.261,-29.703 h -312.31 c 0,0 -10.812,11.551 2.937,26.393 1.932,2.086 4.723,3.31 7.671,3.31 z"
             style="fill:#000000;fill-opacity:1;fill-rule:nonzero;stroke:none"
             id="path350" />
        </g>
        <g
           id="g352"
           transform="translate(1298.1368,458.8475)">
          <path
             d="m 0,0 c -2.94,6.335 -6.257,12.835 -10.672,18.391 -1.348,1.697 -2.83,3.467 -4.823,4.539 -2.7,1.453 -5.136,-2.453 -2.438,-3.904 0.147,-0.079 0.285,-0.173 0.432,-0.252 0.404,-0.216 -0.096,0.089 0.017,-0.001 0.315,-0.251 0.621,-0.506 0.913,-0.781 0.303,-0.285 0.592,-0.583 0.872,-0.888 0.162,-0.177 0.318,-0.358 0.477,-0.537 0.326,-0.369 -0.005,0.027 0.31,-0.372 1.357,-1.718 2.57,-3.528 3.713,-5.376 2.152,-3.481 4.08,-7.086 5.885,-10.735 0.389,-0.785 0.774,-1.572 1.143,-2.366 0.52,-1.12 2.274,-1.375 3.305,-0.811 C 0.369,-2.417 0.522,-1.125 0,0"
             style="fill:#4f50e0;fill-opacity:1;fill-rule:nonzero;stroke:none"
             id="path354" />
        </g>
        <g
           id="g356"
           transform="translate(1319.6067,468.8959)">
          <path
             d="m 0,0 c -2.94,6.335 -6.257,12.835 -10.672,18.391 -1.348,1.697 -2.83,3.467 -4.823,4.539 -2.7,1.453 -5.136,-2.453 -2.438,-3.904 0.147,-0.079 0.285,-0.173 0.432,-0.252 0.404,-0.215 -0.096,0.089 0.017,-0.001 0.315,-0.251 0.621,-0.506 0.913,-0.781 0.303,-0.285 0.592,-0.583 0.872,-0.888 0.162,-0.177 0.318,-0.358 0.477,-0.537 0.326,-0.369 -0.005,0.027 0.31,-0.372 1.357,-1.718 2.57,-3.528 3.713,-5.376 2.152,-3.481 4.08,-7.086 5.885,-10.734 0.389,-0.786 0.774,-1.573 1.143,-2.367 0.52,-1.12 2.274,-1.375 3.305,-0.811 C 0.369,-2.417 0.522,-1.124 0,0"
             style="fill:#4f50e0;fill-opacity:1;fill-rule:nonzero;stroke:none"
             id="path358" />
        </g>
        <g
           id="g360"
           transform="translate(1342.15,477.9396)">
          <path
             d="m 0,0 c -2.94,6.335 -6.257,12.835 -10.672,18.391 -1.348,1.697 -2.83,3.467 -4.823,4.539 -2.7,1.453 -5.136,-2.453 -2.438,-3.904 0.147,-0.079 0.285,-0.173 0.432,-0.252 0.404,-0.216 -0.096,0.089 0.017,-0.001 0.315,-0.251 0.621,-0.506 0.913,-0.781 0.303,-0.285 0.592,-0.583 0.872,-0.888 0.162,-0.177 0.318,-0.358 0.477,-0.537 0.326,-0.369 -0.005,0.027 0.31,-0.372 1.357,-1.718 2.57,-3.528 3.713,-5.376 2.152,-3.481 4.08,-7.086 5.885,-10.735 0.389,-0.785 0.774,-1.572 1.143,-2.366 0.52,-1.12 2.274,-1.375 3.304,-0.811 C 0.369,-2.417 0.522,-1.125 0,0"
             style="fill:#4f50e0;fill-opacity:1;fill-rule:nonzero;stroke:none"
             id="path362" />
        </g>
        <g
           id="g364"
           transform="translate(2205.6624,1692.1245)">
          <path
             d="m 0,0 -73.723,-209.888 -236.911,-17.545 c -1.472,0.285 -3.111,0.463 -4.953,0.505 -33.957,0.781 -68.722,8.586 -87.318,10.927 -14.466,1.821 -44.099,-0.136 -56.548,-1.094 -3.709,-0.287 -7.196,-1.793 -9.887,-4.274 -8.932,-8.234 -29.423,-27.685 -33.819,-36.777 -5.66,-11.708 10.493,-3.887 10.493,-3.887 -8.911,-15.593 4.868,-13.284 10.528,-9.382 5.659,3.903 12.128,16.39 32.34,22.634 14.101,4.356 30.386,4.533 38.95,4.242 -3.117,0.031 -7.775,-0.036 -14.695,-0.339 -17.787,-0.781 -52.553,-26.537 -47.031,-33.221 5.522,-6.685 20.35,10.587 40.563,15.27 20.213,4.683 49.318,-18.731 71.957,-14.83 22.638,3.903 47.048,5.684 47.318,6.081 0,0 255.642,-31.918 265.137,-29.018 86.953,26.56 170.685,300.299 170.685,300.299 z"
             style="fill:#ffffff;fill-opacity:1;fill-rule:nonzero;stroke:none"
             id="path366" />
        </g>
        <g
           id="g368"
           transform="translate(1891.3555,1424.0254)">
          <path
             d="m 0,0 1.975,-0.247 c 101.002,-12.61 254.428,-30.74 263.858,-29.111 78.473,24.108 156.119,259.396 167.123,293.913 L 316.613,264.836 242.951,55.12 3.479,37.385 3.052,37.468 c -1.342,0.26 -2.825,0.41 -4.406,0.447 -24.512,0.563 -49.839,4.818 -68.333,7.926 -7.557,1.269 -14.084,2.366 -19.318,3.025 -14.204,1.787 -43.817,-0.18 -55.891,-1.11 -2.968,-0.23 -5.785,-1.444 -7.929,-3.421 -17.83,-16.435 -30.202,-29.818 -33.095,-35.8 -0.372,-0.77 -0.587,-1.346 -0.711,-1.759 1.579,0.161 4.476,1.076 6.856,2.223 l 9.446,4.555 -5.201,-9.104 c -3.134,-5.484 -2.422,-7.122 -2.413,-7.137 0.714,-0.664 5.095,-0.131 8.262,2.053 1.25,0.862 2.763,2.465 4.514,4.321 5.239,5.55 13.157,13.938 28.714,18.744 14.575,4.503 31.327,4.678 40.022,4.385 l -0.142,-6.513 c -3.706,0.036 -8.593,-0.077 -14.521,-0.337 -11.393,-0.5 -32.133,-13.038 -41.118,-22.952 -2.515,-2.775 -3.247,-4.462 -3.366,-5.096 1.538,-1.001 7.365,2.446 12.086,5.238 6.794,4.017 15.248,9.016 25.053,11.287 11.044,2.559 23.58,-2.186 36.852,-7.209 12.198,-4.616 24.816,-9.392 35.286,-7.583 15.323,2.641 31.635,4.337 40.398,5.247 2.201,0.229 4.314,0.449 5.56,0.599 z m 264.166,-35.943 c -7.758,0 -34.109,1.948 -133.965,13.632 -61.348,7.178 -122.39,14.772 -128.532,15.537 -1.282,-0.224 -3.357,-0.44 -6.898,-0.808 -8.687,-0.903 -24.857,-2.583 -39.964,-5.188 -12.235,-2.106 -25.686,2.986 -38.7,7.911 -12.322,4.662 -23.96,9.065 -33.076,6.955 -8.825,-2.044 -16.8,-6.76 -23.207,-10.548 -8.506,-5.03 -15.851,-9.375 -20.602,-3.623 -0.917,1.111 -2.201,3.551 -0.484,7.413 2.103,4.731 8.417,10.882 16.234,16.468 -7.291,-4 -11.816,-8.794 -15.401,-12.592 -2.005,-2.124 -3.737,-3.959 -5.552,-5.211 -4.144,-2.857 -12.215,-5.301 -16.38,-1.476 -2.033,1.868 -2.643,4.556 -1.833,8.029 -2.883,-0.573 -5.736,-0.445 -7.563,1.381 -2.053,2.052 -2.062,5.226 -0.028,9.434 4.488,9.283 23.569,27.639 34.544,37.754 3.216,2.964 7.422,4.785 11.845,5.127 12.271,0.945 42.41,2.94 57.206,1.078 5.367,-0.676 11.955,-1.783 19.583,-3.064 19.317,-3.246 43.358,-7.286 67.402,-7.838 1.779,-0.04 3.478,-0.203 5.058,-0.483 L 238.217,61.303 312,271.362 441.792,271.049 440.508,266.85 C 440.298,266.163 419.152,197.404 387.636,126.292 345.03,30.164 304.665,-24.31 267.659,-35.612 c -0.467,-0.143 -1.084,-0.331 -3.493,-0.331"
             style="fill:#000000;fill-opacity:1;fill-rule:nonzero;stroke:none"
             id="path370" />
        </g>
        <g
           id="g372"
           transform="translate(1776.6064,1460.5142)">
          <path
             d="m 0,0 c 0,0 -21.853,3.122 -32.78,-2.341 -10.926,-5.464 -21.853,-12.488 -23.414,-15.61 -1.561,-3.122 -7.821,-12.472 -7.821,-12.472"
             style="fill:#ffffff;fill-opacity:1;fill-rule:nonzero;stroke:none"
             id="path374" />
        </g>
        <g
           id="g376"
           transform="translate(1715.2666,1428.2993)">
          <path
             d="m 0,0 -5.352,3.584 c 1.71,2.554 6.413,9.71 7.617,12.12 3.047,6.093 23.965,16.606 24.854,17.05 11.693,5.846 33.744,2.782 34.676,2.649 L 60.886,29.026 C 60.677,29.055 39.892,31.938 30,26.993 17.888,20.937 9.035,14.653 8.021,12.815 6.421,9.612 0.652,0.975 0,0"
             style="fill:#000000;fill-opacity:1;fill-rule:nonzero;stroke:none"
             id="path378" />
        </g>
        <g
           id="g380"
           transform="translate(2271.9514,1792.4388)">
          <path
             d="m 0,0 c 0,0 -55.819,8.291 -77.339,-77.291 l -21.52,-85.582 c 0,0 70.256,6.441 129.595,-23.617 0,0 36.796,80.512 26.061,132.039"
             style="fill:#ffffff;fill-opacity:1;fill-rule:nonzero;stroke:none"
             id="path382" />
        </g>
        <g
           id="g384"
           transform="translate(2304.2402,1601.5103)">
          <path
             d="m 0,0 -3.024,1.532 c -57.779,29.267 -127.137,23.344 -127.828,23.279 l -4.576,-0.417 22.641,90.038 c 11.412,45.385 32.619,64.659 48.4,72.837 17.379,9.006 31.964,6.973 32.576,6.882 l -0.947,-6.446 c -0.135,0.019 -13.425,1.792 -28.994,-6.411 -20.74,-10.925 -36.203,-34.595 -44.717,-68.451 l -20.433,-81.261 c 16.317,0.779 73.623,1.475 123.733,-22.71 6.481,15.147 33.713,82.66 24.487,126.941 l 6.379,1.329 C 38.525,85.166 2.931,6.412 1.41,3.084 Z"
             style="fill:#000000;fill-opacity:1;fill-rule:nonzero;stroke:none"
             id="path386" />
        </g>
        <g
           id="g388"
           transform="translate(2209.5938,2099.1848)">
          <path
             d="m 0,0 c 0,0 102.669,38.14 143.699,-48.858 41.03,-86.999 105.932,-59.672 142.178,-111.876 36.246,-52.203 -0.465,-98.272 21.104,-133.853 21.57,-35.581 117.483,-13.041 132.866,-114.637 l -1.517,-68.293 -297.645,-0.69 z"
             style="fill:#000000;fill-opacity:1;fill-rule:nonzero;stroke:none"
             id="path390" />
        </g>
        <g
           id="g392"
           transform="translate(2249.2163,1925.1989)">
          <path
             d="m 0,0 c 0,0 -21.547,-22.552 -37.593,-35.918 0.54,6.264 0.81,12.37 0.894,18.103 -1.89,-0.474 -3.789,-0.921 -5.715,-1.321 -3.751,-0.782 -7.251,-1.126 -10.518,-1.08 0.475,1.564 0.81,2.532 0.81,2.532 0,0 25.13,2.792 52.122,17.684"
             style="fill:#000000;fill-opacity:1;fill-rule:nonzero;stroke:none"
             id="path394" />
        </g>
        <g
           id="g396"
           transform="translate(585.5434,407.2915)">
          <path
             d="m 0,0 h 55.508 149.719 222.848 270.022 297.764 298.532 280.257 235.247 170.328 c 26.715,0 53.454,-0.312 80.168,0 1.168,0.014 2.337,0 3.505,0 3.861,0 3.867,5.616 0,5.616 H 2008.389 1858.671 1635.823 1365.801 1068.037 769.505 489.247 254 83.673 c -26.715,0 -53.455,0.312 -80.168,0 C 2.337,5.603 1.168,5.616 0,5.616 -3.861,5.616 -3.867,0 0,0"
             style="fill:#0c0303;fill-opacity:1;fill-rule:nonzero;stroke:none"
             id="path398" />
        </g>
        <path
           d="M 963.27,413.149 H 783.997 V 868.344 H 963.27 Z"
           style="fill:#3e6eb4;fill-opacity:1;fill-rule:nonzero;stroke:none"
           id="path400" />
        <path
           d="M 787.255,416.199 H 960.012 V 865.295 H 787.255 Z M 966.527,410.1 H 780.739 v 461.294 h 185.788 z"
           style="fill:#000000;fill-opacity:1;fill-rule:nonzero;stroke:none"
           id="path402" />
        <g
           id="g404"
           transform="translate(447.1474,1841.3954)">
          <path
             d="m 0,0 c 0,-4.57 -1.652,-8.156 -4.957,-10.758 -3.305,-2.601 -7.863,-3.902 -13.676,-3.902 -5.813,0 -10.57,0.902 -14.273,2.707 v 7.945 c 2.343,-1.102 4.834,-1.969 7.47,-2.601 2.637,-0.633 5.092,-0.95 7.366,-0.95 3.327,0 5.783,0.633 7.365,1.899 1.582,1.265 2.373,2.965 2.373,5.098 0,1.921 -0.727,3.55 -2.18,4.886 -1.453,1.336 -4.453,2.918 -9,4.746 -4.688,1.899 -7.992,4.066 -9.914,6.504 -1.922,2.438 -2.883,5.367 -2.883,8.789 0,4.289 1.524,7.664 4.571,10.125 3.046,2.461 7.136,3.692 12.269,3.692 4.922,0 9.821,-1.078 14.696,-3.235 L -3.445,28.09 c -4.571,1.921 -8.649,2.883 -12.235,2.883 -2.719,0 -4.781,-0.593 -6.187,-1.776 -1.406,-1.183 -2.11,-2.748 -2.11,-4.693 0,-1.336 0.282,-2.479 0.844,-3.428 0.563,-0.949 1.488,-1.846 2.778,-2.689 1.288,-0.844 3.608,-1.957 6.96,-3.34 3.774,-1.57 6.54,-3.036 8.297,-4.395 C -3.34,9.293 -2.051,7.757 -1.23,6.047 -0.41,4.336 0,2.32 0,0"
             style="fill:#000000;fill-opacity:1;fill-rule:nonzero;stroke:none"
             id="path406" />
        </g>
        <g
           id="g408"
           transform="translate(474.8505,1827.4384)">
          <path
             d="M 0,0 H -8.402 V 44.191 H -23.52 v 7.207 H 15.117 V 44.191 H 0 Z"
             style="fill:#000000;fill-opacity:1;fill-rule:nonzero;stroke:none"
             id="path410" />
        </g>
        <g
           id="g412"
           transform="translate(522.3817,1848.954)">
          <path
             d="m 0,0 -4.816,13.992 c -0.352,0.937 -0.839,2.414 -1.459,4.43 -0.621,2.015 -1.05,3.492 -1.284,4.43 -0.632,-2.883 -1.559,-6.036 -2.777,-9.457 L -14.977,0 Z M 7.348,-21.516 2.215,-7.242 h -19.652 l -5.028,-14.274 h -8.859 l 19.23,51.61 h 9.141 l 19.23,-51.61 z"
             style="fill:#000000;fill-opacity:1;fill-rule:nonzero;stroke:none"
             id="path414" />
        </g>
        <g
           id="g416"
           transform="translate(553.8466,1854.9305)">
          <path
             d="m 0,0 h 5.836 c 3.914,0 6.75,0.726 8.508,2.18 1.758,1.453 2.636,3.609 2.636,6.468 0,2.906 -0.949,4.993 -2.847,6.258 -1.899,1.266 -4.758,1.899 -8.578,1.899 H 0 Z M 0,-6.961 V -27.492 H -8.402 V 23.906 H 6.117 c 6.633,0 11.543,-1.242 14.731,-3.726 3.187,-2.485 4.781,-6.235 4.781,-11.25 0,-6.399 -3.328,-10.957 -9.984,-13.676 L 30.164,-27.492 H 20.602 L 8.297,-6.961 Z"
             style="fill:#000000;fill-opacity:1;fill-rule:nonzero;stroke:none"
             id="path418" />
        </g>
        <g
           id="g420"
           transform="translate(609.2177,1827.4384)">
          <path
             d="M 0,0 H -8.402 V 44.191 H -23.52 v 7.207 H 15.117 V 44.191 H 0 Z"
             style="fill:#000000;fill-opacity:1;fill-rule:nonzero;stroke:none"
             id="path422" />
        </g>
        <g
           id="g424"
           transform="translate(672.4989,1878.8368)">
          <path
             d="m 0,0 v -33.258 c 0,-3.797 -0.814,-7.119 -2.443,-9.967 -1.63,-2.847 -3.985,-5.039 -7.067,-6.574 -3.082,-1.535 -6.767,-2.303 -11.056,-2.303 -6.376,0 -11.333,1.688 -14.872,5.063 -3.539,3.375 -5.308,8.016 -5.308,13.922 V 0 h 8.437 v -32.52 c 0,-4.242 0.985,-7.371 2.954,-9.386 1.968,-2.016 4.992,-3.024 9.07,-3.024 7.922,0 11.883,4.16 11.883,12.481 l 0,32.449 z"
             style="fill:#000000;fill-opacity:1;fill-rule:nonzero;stroke:none"
             id="path426" />
        </g>
        <g
           id="g428"
           transform="translate(694.0497,1853.7352)">
          <path
             d="m 0,0 h 4.465 c 4.312,0 7.476,0.75 9.492,2.25 2.016,1.5 3.023,3.844 3.023,7.031 0,2.953 -0.902,5.156 -2.707,6.61 -1.805,1.453 -4.617,2.179 -8.437,2.179 L 0,18.07 Z m 25.629,9.563 c 0,-5.368 -1.758,-9.481 -5.274,-12.34 -3.515,-2.86 -8.52,-4.289 -15.011,-4.289 H 0 v -19.231 h -8.402 v 51.399 h 14.8 c 6.422,0 11.233,-1.313 14.432,-3.938 3.199,-2.625 4.799,-6.492 4.799,-11.601"
             style="fill:#000000;fill-opacity:1;fill-rule:nonzero;stroke:none"
             id="path430" />
        </g>
      </g>
    </g>
  </g>
</svg>
