<?xml version="1.0" encoding="UTF-8" standalone="no"?>
<!-- Created with Inkscape (http://www.inkscape.org/) -->

<svg
   version="1.1"
   id="svg2"
   width="3333.3333"
   height="3333.3333"
   viewBox="0 0 3333.3333 3333.3333"
   sodipodi:docname="opal1.ai"
   xmlns:inkscape="http://www.inkscape.org/namespaces/inkscape"
   xmlns:sodipodi="http://sodipodi.sourceforge.net/DTD/sodipodi-0.dtd"
   xmlns="http://www.w3.org/2000/svg"
   xmlns:svg="http://www.w3.org/2000/svg">
  <defs
     id="defs6">
    <clipPath
       clipPathUnits="userSpaceOnUse"
       id="clipPath16">
      <path
         d="M 0,2500 H 2500 V 0 H 0 Z"
         id="path14" />
    </clipPath>
  </defs>
  <sodipodi:namedview
     id="namedview4"
     pagecolor="#ffffff"
     bordercolor="#000000"
     borderopacity="0.25"
     inkscape:showpageshadow="2"
     inkscape:pageopacity="0.0"
     inkscape:pagecheckerboard="0"
     inkscape:deskcolor="#d1d1d1" />
  <g
     id="g8"
     inkscape:groupmode="layer"
     inkscape:label="opal1"
     transform="matrix(1.3333333,0,0,-1.3333333,0,3333.3333)">
    <g
       id="g10">
      <g
         id="g12"
         clip-path="url(#clipPath16)">
        <g
           id="g18"
           transform="translate(2175.5098,649.0004)">
          <path
             d="m 0,0 c -292.582,-332.672 -816.121,-461.33 -1206.213,-320.912 -275.569,99.195 -410.412,329.563 -680.1,790.301 -228.693,390.704 -232.223,577.351 -229.977,650.902 2.866,93.866 30.223,497.508 316.551,637.382 180.592,88.221 373.878,27.388 389.347,22.278 180.708,-59.695 174.335,-182.234 389.667,-276.605 144.105,-63.156 295.521,-70.451 335.969,-75.617 182.597,-23.321 284.122,-5.337 380.944,-44.06 20.421,-8.167 57.796,-28.626 108.284,-70.22 C 263.804,935.026 228.249,506.433 228.249,506.433 206.085,239.262 44.387,50.468 0,0"
             style="fill:#caddff;fill-opacity:1;fill-rule:nonzero;stroke:none"
             id="path20" />
        </g>
        <g
           id="g22"
           transform="translate(321.5939,457.2492)">
          <path
             d="m 0,0 7.32,-70.419 37.357,0.441 -0.521,75.129 z"
             style="fill:#ffffff;fill-opacity:1;fill-rule:nonzero;stroke:none"
             id="path24" />
        </g>
        <g
           id="g26"
           transform="translate(324.1504,455.2014)">
          <path
             d="m 0,0 6.862,-66.016 32.911,0.389 -0.485,70.209 z m 4.763,-70.702 c -1.192,0 -2.194,0.901 -2.319,2.089 l -7.319,70.42 c -0.13,1.269 0.783,2.408 2.048,2.556 l 44.157,5.15 c 0.674,0.07 1.32,-0.131 1.814,-0.569 0.496,-0.438 0.783,-1.067 0.787,-1.729 l 0.519,-75.129 c 0.009,-1.283 -1.02,-2.332 -2.303,-2.347 L 4.791,-70.702 Z"
             style="fill:#000000;fill-opacity:1;fill-rule:nonzero;stroke:none"
             id="path28" />
        </g>
        <g
           id="g30"
           transform="translate(656.643,469.6986)">
          <path
             d="M 0,0 35.369,-76.467 H 71.274 L 47.951,5.594 Z"
             style="fill:#ffffff;fill-opacity:1;fill-rule:nonzero;stroke:none"
             id="path32" />
        </g>
        <g
           id="g34"
           transform="translate(693.5018,395.5621)">
          <path
             d="M 0,0 H 31.33 L 9.393,77.186 -33.392,72.194 Z M 34.416,-4.661 H -1.491 c -0.908,0 -1.734,0.528 -2.114,1.352 l -35.367,76.467 c -0.314,0.678 -0.284,1.466 0.082,2.118 0.364,0.652 1.02,1.089 1.761,1.175 l 47.951,5.594 c 1.126,0.138 2.198,-0.576 2.512,-1.677 L 36.658,-1.693 c 0.2,-0.704 0.059,-1.459 -0.383,-2.042 -0.439,-0.583 -1.129,-0.926 -1.859,-0.926"
             style="fill:#000000;fill-opacity:1;fill-rule:nonzero;stroke:none"
             id="path36" />
        </g>
        <g
           id="g38"
           transform="translate(484.4748,358.532)">
          <path
             d="m 0,0 c -13.096,15.568 -44.24,40.133 -117.376,61.212 -3.606,1.039 -7.496,-0.128 -9.967,-2.953 L -140.955,42.695 -160.76,53.03 c -5.177,2.702 -11.524,-0.244 -12.748,-5.955 -2.187,-10.191 -4.941,-26.475 -5.33,-45.14 -0.185,-8.858 6.732,-16.253 15.585,-16.608 31.342,-1.255 104.221,-3.704 155.827,-1.776 C 0.905,-16.139 5.367,-6.38 0,0"
             style="fill:#ffffff;fill-opacity:1;fill-rule:nonzero;stroke:none"
             id="path40" />
        </g>
        <g
           id="g42"
           transform="translate(319.6077,410.2449)">
          <path
             d="m 0,0 c -0.944,0 -1.893,-0.208 -2.783,-0.626 -1.848,-0.868 -3.152,-2.509 -3.58,-4.5 -2.197,-10.234 -4.896,-26.296 -5.278,-44.701 -0.157,-7.545 5.831,-13.929 13.348,-14.231 29.486,-1.18 103.675,-3.716 155.649,-1.775 3.045,0.113 5.603,1.85 6.841,4.646 1.209,2.728 0.792,5.709 -1.115,7.974 C 149.423,-36.973 118.166,-13.296 46.844,7.26 44.118,8.047 41.155,7.16 39.279,5.013 L 25.667,-10.552 c -0.71,-0.811 -1.88,-1.029 -2.833,-0.533 L 3.027,-0.749 C 2.071,-0.249 1.038,0 0,0 m 113.282,-71.203 c -43.699,0 -89.945,1.615 -111.762,2.489 -10.036,0.401 -18.031,8.919 -17.822,18.985 0.391,18.773 3.143,35.149 5.382,45.58 0.735,3.426 2.977,6.248 6.154,7.741 3.193,1.5 6.819,1.425 9.95,-0.208 L 23.366,-6.104 35.77,8.081 c 3.063,3.505 7.915,4.945 12.367,3.658 72.446,-20.881 104.435,-45.215 118.514,-61.952 3.034,-3.606 3.725,-8.533 1.809,-12.862 -1.948,-4.395 -6.136,-7.237 -10.931,-7.417 -13.628,-0.508 -28.783,-0.711 -44.247,-0.711"
             style="fill:#000000;fill-opacity:1;fill-rule:nonzero;stroke:none"
             id="path44" />
        </g>
        <g
           id="g46"
           transform="translate(470.0702,351.8927)">
          <path
             d="m 0,0 c -0.027,0 -0.052,0 -0.08,0.001 l -151.263,4.996 c -1.286,0.042 -2.294,1.119 -2.251,2.406 0.043,1.287 1.149,2.266 2.406,2.252 L 0.075,4.66 C 1.361,4.618 2.369,3.54 2.326,2.253 2.285,0.993 1.252,0 0,0"
             style="fill:#000000;fill-opacity:1;fill-rule:nonzero;stroke:none"
             id="path48" />
        </g>
        <g
           id="g50"
           transform="translate(394.4339,377.5793)">
          <path
             d="M 0,0 C -0.396,0 -0.799,0.101 -1.168,0.315 -2.28,0.96 -2.66,2.386 -2.014,3.5 l 14.87,25.635 c 0.644,1.112 2.069,1.495 3.187,0.845 1.112,-0.645 1.493,-2.071 0.846,-3.185 L 2.019,1.161 C 1.586,0.415 0.803,0 0,0"
             style="fill:#000000;fill-opacity:1;fill-rule:nonzero;stroke:none"
             id="path52" />
        </g>
        <g
           id="g54"
           transform="translate(844.14,365.0593)">
          <path
             d="m 0,0 c -13.098,15.568 -44.242,40.135 -117.378,61.212 -3.606,1.04 -7.496,-0.127 -9.965,-2.951 L -140.955,42.695 -160.76,53.03 c -5.179,2.702 -11.525,-0.244 -12.75,-5.954 -2.185,-10.192 -4.938,-26.476 -5.329,-45.139 -0.184,-8.859 6.733,-16.255 15.585,-16.609 31.342,-1.255 104.222,-3.705 155.827,-1.777 C 0.905,-16.137 5.366,-6.38 0,0"
             style="fill:#ffffff;fill-opacity:1;fill-rule:nonzero;stroke:none"
             id="path56" />
        </g>
        <g
           id="g58"
           transform="translate(679.273,416.7733)">
          <path
             d="m 0,0 c -0.947,0 -1.896,-0.209 -2.786,-0.628 -1.848,-0.868 -3.152,-2.508 -3.58,-4.498 -2.194,-10.242 -4.893,-26.309 -5.275,-44.701 -0.157,-7.545 5.831,-13.93 13.348,-14.231 29.502,-1.18 103.725,-3.715 155.647,-1.776 3.045,0.114 5.603,1.85 6.844,4.647 1.208,2.727 0.792,5.708 -1.116,7.974 C 149.418,-36.97 118.159,-13.293 46.842,7.259 44.131,8.044 41.157,7.162 39.279,5.013 L 25.667,-10.553 c -0.71,-0.812 -1.88,-1.03 -2.833,-0.533 L 3.027,-0.75 C 2.071,-0.25 1.036,0 0,0 m 113.329,-71.203 c -43.692,0 -89.974,1.615 -111.809,2.489 -10.036,0.4 -18.031,8.918 -17.822,18.985 0.391,18.758 3.141,35.14 5.38,45.579 0.735,3.426 2.977,6.248 6.154,7.74 3.195,1.503 6.821,1.426 9.953,-0.207 L 23.364,-6.105 35.77,8.08 c 3.066,3.506 7.925,4.937 12.365,3.658 72.441,-20.878 104.433,-45.213 118.516,-61.952 3.031,-3.605 3.725,-8.533 1.807,-12.862 -1.946,-4.395 -6.136,-7.237 -10.931,-7.417 -13.608,-0.507 -28.742,-0.71 -44.198,-0.71"
             style="fill:#000000;fill-opacity:1;fill-rule:nonzero;stroke:none"
             id="path60" />
        </g>
        <g
           id="g62"
           transform="translate(829.7356,358.421)">
          <path
             d="m 0,0 c -0.027,0 -0.052,0 -0.08,0.001 l -151.263,4.996 c -1.286,0.042 -2.294,1.119 -2.251,2.406 0.041,1.287 1.106,2.292 2.405,2.252 L 0.075,4.66 C 1.361,4.618 2.369,3.54 2.326,2.253 2.285,0.993 1.252,0 0,0"
             style="fill:#000000;fill-opacity:1;fill-rule:nonzero;stroke:none"
             id="path64" />
        </g>
        <g
           id="g66"
           transform="translate(754.0992,384.1077)">
          <path
             d="M 0,0 C -0.396,0 -0.799,0.101 -1.167,0.315 -2.28,0.96 -2.66,2.386 -2.014,3.5 l 14.87,25.634 c 0.644,1.113 2.067,1.495 3.187,0.846 1.113,-0.645 1.493,-2.071 0.846,-3.185 L 2.019,1.161 C 1.586,0.415 0.803,0 0,0"
             style="fill:#000000;fill-opacity:1;fill-rule:nonzero;stroke:none"
             id="path68" />
        </g>
        <g
           id="g70"
           transform="translate(378.949,1160.5345)">
          <path
             d="m 0,0 c 0,0 -39.688,-53.209 -52.772,-147.437 -13.084,-94.228 -9.09,-199.232 -18.992,-245.781 -9.903,-46.55 -29.722,-209.084 10.055,-316.893 h 58.622 c 0,0 83.217,432.658 112.537,502.387 0,0 22.392,-61.964 33.462,-121.113 11.069,-59.149 9.163,-134.701 35.089,-199.651 25.926,-64.951 100.917,-184.306 100.917,-184.306 l 64.364,2.767 c 0,0 -104.671,451.286 -117.674,670.331 0,0 -148.909,81.661 -225.608,39.696"
             style="fill:#000000;fill-opacity:1;fill-rule:nonzero;stroke:none"
             id="path72" />
        </g>
        <g
           id="g74"
           transform="translate(482.3304,919.253)">
          <path
             d="m 0,0 c -0.189,0 -0.382,0.023 -0.574,0.071 -1.247,0.315 -2.002,1.583 -1.688,2.831 l 18.489,73.196 c 0.152,0.601 0.537,1.118 1.072,1.434 l 19.964,11.829 c 1.111,0.657 2.54,0.289 3.193,-0.817 0.655,-1.107 0.291,-2.536 -0.817,-3.193 L 20.508,74.016 2.258,1.759 C 1.991,0.703 1.042,0 0,0"
             style="fill:#ffffff;fill-opacity:1;fill-rule:nonzero;stroke:none"
             id="path76" />
        </g>
        <g
           id="g78"
           transform="translate(379.2265,682.7045)">
          <path
             d="m 0,0 c -0.954,0 -1.848,0.589 -2.192,1.538 -0.437,1.21 0.189,2.546 1.398,2.985 26.352,9.544 34.104,30.801 34.181,31.015 0.428,1.212 1.75,1.851 2.968,1.427 1.213,-0.425 1.855,-1.749 1.431,-2.964 C 37.454,33.046 29.315,10.471 0.794,0.14 0.533,0.045 0.264,0 0,0"
             style="fill:#ffffff;fill-opacity:1;fill-rule:nonzero;stroke:none"
             id="path80" />
        </g>
        <g
           id="g82"
           transform="translate(784.4272,1649.9653)">
          <path
             d="m 0,0 c 0,0 44.705,-153.194 -47.129,-149.242 -91.834,3.952 -27.586,-8.978 -115.121,-14.799 -87.536,-5.821 -125.548,7.294 -217.808,-141.338 -92.261,-148.631 -109.306,-191.154 -27.833,-240.871 81.472,-49.717 222.193,-5.927 245.641,-26.031 31.833,-27.295 59.085,66.364 75.54,143.86 9.923,46.734 55.683,156.157 102.42,166.069 60.388,12.807 119.393,78.549 70.693,232.504 z"
             style="fill:#3e6eb4;fill-opacity:1;fill-rule:nonzero;stroke:none"
             id="path84" />
        </g>
        <g
           id="g86"
           transform="translate(592.9628,1085.7013)">
          <path
             d="m 0,0 c 14.604,0 25.21,-1.515 30.731,-6.247 4.641,-3.981 9.113,-5.166 13.689,-3.621 18.767,6.353 39.387,58.272 58.053,146.194 8.926,42.038 54.489,157.32 104.22,167.866 29.019,6.155 53.282,23.748 68.314,49.537 24.295,41.682 24.634,103.51 0.99,178.867 l -81.116,28.022 c 4.975,-18.974 22.258,-94.102 -5.563,-129.584 -10.205,-13.018 -25.36,-19.185 -45.082,-18.34 -48.096,2.069 -52.725,-0.516 -59.121,-4.099 -6.313,-3.534 -14.169,-7.932 -55.747,-10.697 -8.255,-0.55 -16.013,-0.928 -23.517,-1.294 -70.625,-3.441 -109.528,-5.338 -192.466,-138.948 -62.117,-100.071 -86.711,-147.671 -78.206,-183.403 4.68,-19.663 19.516,-35.888 49.608,-54.25 49.452,-30.176 122.034,-25.398 175.028,-21.91 C -24.768,-0.892 -11.206,0 0,0 m 40.551,-15.193 c -4.351,0 -8.657,1.808 -12.856,5.407 -8.309,7.129 -35.772,5.321 -67.575,3.228 -53.615,-3.53 -127.053,-8.363 -177.759,22.582 -31.255,19.072 -46.72,36.163 -51.715,57.149 -8.894,37.359 15.94,85.707 78.779,186.941 84.228,135.689 123.999,137.627 196.199,141.146 7.483,0.365 15.221,0.741 23.434,1.288 40.529,2.695 47.876,6.809 53.779,10.114 7.333,4.105 12.178,6.813 61.599,4.689 18.148,-0.784 31.99,4.793 41.214,16.559 29.846,38.065 3.844,128.789 3.577,129.701 -0.243,0.836 0,1.74 0.631,2.341 0.63,0.6 1.547,0.797 2.367,0.515 l 86.403,-29.848 c 0.699,-0.241 1.241,-0.798 1.461,-1.5 C 304.494,457.97 304.127,394.436 279.033,351.381 263.33,324.442 237.983,306.064 207.657,299.634 162.236,290 116.538,180.119 107.034,135.359 87.457,43.167 66.895,-7.18 45.913,-14.283 c -1.791,-0.607 -3.582,-0.91 -5.362,-0.91"
             style="fill:#000000;fill-opacity:1;fill-rule:nonzero;stroke:none"
             id="path88" />
        </g>
        <g
           id="g90"
           transform="translate(635.2667,1534.0939)">
          <path
             d="m 0,0 c 0,0 -36.091,33.372 -49.335,41.137 -13.244,7.765 -29.739,39.615 14.767,59.123 14.425,6.322 17.264,23.84 45.043,26.831 27.779,2.991 50.852,-11.109 53.843,-28.627 C 67.308,80.946 50.698,65.773 38.281,63.746 25.864,61.72 0,0 0,0"
             style="fill:#000000;fill-opacity:1;fill-rule:nonzero;stroke:none"
             id="path92" />
        </g>
        <g
           id="g94"
           transform="translate(698.0061,1575.2677)">
          <path
             d="M 0,0 3.866,5.592 -11.432,25.169 -21.921,50.881 C -51.559,52.89 -63.44,44.792 -63.828,22.056 -64.076,7.482 -71.751,7.135 -71.751,7.135 c 0,0 -11.268,12.129 -17.098,-2.259 -5.83,-14.387 18.404,-24.385 18.404,-24.385 l 5.109,-10.789 -50.175,-68.182 c 0,0 80.814,-21.397 81.665,-8.649 0.242,3.614 -0.987,6.699 -2.871,9.265 -9.316,12.688 7.514,46.991 7.514,46.991 l 26.975,10.897 c 4.945,1.997 7.575,7.414 6.086,12.535 L -1.476,-9.088 C -2.376,-5.991 -1.834,-2.653 0,0"
             style="fill:#ffffff;fill-opacity:1;fill-rule:nonzero;stroke:none"
             id="path96" />
        </g>
        <g
           id="g98"
           transform="translate(698.0058,1575.2678)">
          <path
             d="m 0,0 h 0.023 z m -111.595,-97.093 c 26.807,-6.894 68.287,-15.224 75.058,-10.361 0.353,0.252 0.362,0.395 0.367,0.48 0.179,2.695 -0.635,5.295 -2.424,7.729 -10.037,13.67 6.588,47.947 7.301,49.399 0.252,0.515 0.687,0.919 1.217,1.134 l 26.974,10.896 c 3.851,1.556 5.881,5.736 4.722,9.724 l -5.334,18.353 c -1.102,3.79 -0.446,7.822 1.798,11.065 l 2.89,4.182 -14.242,18.226 c -0.132,0.169 -0.242,0.356 -0.321,0.554 l -9.937,24.359 C -38.94,49.538 -48.822,47.479 -54.55,42.216 -59.127,38.013 -61.335,31.594 -61.496,22.017 -61.781,5.443 -71.244,4.825 -71.647,4.807 c -0.673,-0.011 -1.347,0.241 -1.811,0.742 -1.222,1.301 -5.119,4.551 -8.278,3.962 -1.952,-0.363 -3.618,-2.217 -4.952,-5.51 -4.893,-12.072 16.912,-21.265 17.133,-21.356 0.535,-0.222 0.969,-0.634 1.215,-1.156 l 5.109,-10.789 c 0.369,-0.775 0.28,-1.688 -0.227,-2.379 z m 66.273,-16.317 c -22.121,-0.002 -64.93,11.127 -70.784,12.676 -0.746,0.198 -1.345,0.751 -1.602,1.479 -0.255,0.728 -0.137,1.535 0.321,2.156 l 49.35,67.062 -4.14,8.74 c -4.536,2.047 -24.855,12.18 -18.831,27.048 1.974,4.872 4.814,7.679 8.439,8.346 4.891,0.908 9.518,-2.605 11.507,-4.393 1.534,0.672 4.748,3.176 4.905,12.392 0.184,10.791 2.949,18.495 8.452,23.552 6.912,6.35 18.321,8.757 35.941,7.558 0.887,-0.06 1.663,-0.62 2,-1.444 L -9.397,26.349 5.703,7.027 C 6.331,6.223 6.363,5.105 5.783,4.266 L 1.916,-1.326 C 0.476,-3.41 0.055,-6.003 0.76,-8.438 l 5.335,-18.353 c 1.829,-6.293 -1.373,-12.891 -7.449,-15.347 l -26.141,-10.559 c -4.668,-9.811 -14.101,-34.584 -7.344,-43.789 2.458,-3.344 3.575,-6.978 3.32,-10.798 -0.075,-1.106 -0.532,-2.689 -2.298,-3.956 -2.146,-1.54 -6.241,-2.17 -11.505,-2.17"
             style="fill:#000000;fill-opacity:1;fill-rule:nonzero;stroke:none"
             id="path100" />
        </g>
        <g
           id="g102"
           transform="translate(2128.1145,542.8364)">
          <path
             d="M 0,0 28.093,-75.776 -11.733,-87.996 -41.78,-17.52 Z"
             style="fill:#ffffff;fill-opacity:1;fill-rule:nonzero;stroke:none"
             id="path104" />
        </g>
        <g
           id="g106"
           transform="translate(2089.3972,524.0738)">
          <path
             d="m 0,0 28.307,-66.389 35.461,10.881 -26.391,71.181 z m 26.985,-71.564 c -0.913,0 -1.768,0.539 -2.144,1.417 L -5.207,0.329 c -0.244,0.57 -0.248,1.215 -0.016,1.79 0.234,0.574 0.687,1.033 1.258,1.273 l 41.781,17.52 c 0.587,0.243 1.247,0.241 1.83,-0.011 0.582,-0.253 1.035,-0.733 1.256,-1.328 l 28.093,-75.776 c 0.223,-0.6 0.189,-1.267 -0.095,-1.842 -0.285,-0.576 -0.792,-1.008 -1.407,-1.196 l -39.825,-12.22 c -0.226,-0.07 -0.455,-0.103 -0.683,-0.103"
             style="fill:#000000;fill-opacity:1;fill-rule:nonzero;stroke:none"
             id="path108" />
        </g>
        <g
           id="g110"
           transform="translate(2108.8574,470.9899)">
          <path
             d="m 0,0 c 14.278,-2.92 28.874,3.298 36.658,15.619 l 4.096,6.483 c 1.419,2.245 4.56,2.582 6.423,0.688 l 36.42,-37.037 c 6.409,-5.978 7.593,-16.627 2.477,-23.798 -6.663,-9.34 -17.058,-22.208 -30.443,-33.437 -25.246,-21.179 -43.331,-59.785 -73.68,-56.799 -30.349,2.986 -29.095,4.637 -34.021,13.149 -4.926,8.512 5.458,29.741 24.585,54.87 11.693,15.364 20.271,45.511 22.624,57.062 C -4.407,-0.97 -2.229,0.456 0,0"
             style="fill:#4b937a;fill-opacity:1;fill-rule:nonzero;stroke:none"
             id="path112" />
        </g>
        <g
           id="g114"
           transform="translate(2108.0251,468.744)">
          <path
             d="m 0,0 c -0.348,0 -0.689,-0.1 -0.985,-0.295 -0.394,-0.26 -0.665,-0.659 -0.761,-1.123 -2,-9.82 -10.528,-41.554 -23.052,-58.01 -22.904,-30.092 -27.633,-46.743 -24.422,-52.29 0.355,-0.611 0.676,-1.188 0.981,-1.732 3.523,-6.298 4.256,-7.609 31.25,-10.265 19.57,-1.911 34.02,14.844 49.318,32.6 7.141,8.289 14.525,16.86 22.636,23.664 13.37,11.215 23.719,24.139 30.044,33.006 4.422,6.195 3.448,15.5 -2.169,20.741 L 46.348,23.402 c -0.53,0.539 -1.158,0.563 -1.47,0.524 -0.321,-0.034 -0.92,-0.186 -1.32,-0.822 L 39.461,16.62 C 31.209,3.562 15.503,-3.133 0.366,-0.036 0.244,-0.011 0.121,0 0,0 m -13.944,-128.527 c -1.152,0 -2.317,0.056 -3.5,0.173 -28.429,2.798 -30.372,4.595 -34.862,12.629 -0.296,0.526 -0.606,1.082 -0.947,1.672 -7.135,12.323 12.442,41.282 24.745,57.447 11.104,14.591 19.75,44.109 22.197,56.118 0.342,1.689 1.325,3.142 2.768,4.088 1.433,0.945 3.149,1.274 4.843,0.93 13.245,-2.704 26.998,3.15 34.22,14.579 l 4.096,6.483 c 1.059,1.674 2.793,2.756 4.764,2.969 1.977,0.217 3.898,-0.477 5.291,-1.89 l 36.421,-37.038 c 7.191,-6.709 8.441,-18.756 2.713,-26.785 -6.484,-9.088 -17.099,-22.339 -30.845,-33.87 -7.82,-6.561 -15.08,-14.987 -22.101,-23.136 -14.57,-16.911 -29.614,-34.369 -49.803,-34.369"
             style="fill:#000000;fill-opacity:1;fill-rule:nonzero;stroke:none"
             id="path116" />
        </g>
        <g
           id="g118"
           transform="translate(2124.002,425.3624)">
          <path
             d="m 0,0 c -0.148,0 -0.298,0.014 -0.448,0.043 l -28.765,5.611 c -1.263,0.246 -2.087,1.471 -1.841,2.734 0.245,1.264 1.465,2.095 2.733,1.841 L 0.444,4.618 C 1.707,4.372 2.531,3.147 2.285,1.884 2.069,0.772 1.092,0 0,0"
             style="fill:#000000;fill-opacity:1;fill-rule:nonzero;stroke:none"
             id="path120" />
        </g>
        <g
           id="g122"
           transform="translate(2116.801,407.0598)">
          <path
             d="m 0,0 c -0.15,0 -0.301,0.014 -0.453,0.044 l -30.49,6.006 c -1.263,0.248 -2.085,1.474 -1.837,2.737 0.249,1.263 1.473,2.092 2.738,1.836 L 0.448,4.617 C 1.711,4.369 2.533,3.143 2.285,1.88 2.066,0.769 1.09,0 0,0"
             style="fill:#000000;fill-opacity:1;fill-rule:nonzero;stroke:none"
             id="path124" />
        </g>
        <g
           id="g126"
           transform="translate(2058.0583,353.8837)">
          <path
             d="m 0,0 c 0,0 18.646,-17.7 47.271,5.901 19.072,15.726 86.885,97.536 86.885,97.536 l 8.503,-8.012 c 4.307,-4.059 4.773,-10.785 1.077,-15.443 C 127.048,58.952 81.902,4.285 52.647,-10.027 16.195,-27.86 0,0 0,0"
             style="fill:#ffffff;fill-opacity:1;fill-rule:nonzero;stroke:none"
             id="path128" />
        </g>
        <g
           id="g130"
           transform="translate(2068.5889,346.1916)">
          <path
             d="m 0,0 c 7.806,-5.552 21.195,-9.973 41.093,-0.241 28.587,13.985 72.662,67.154 90.286,89.364 2.927,3.689 2.554,9.091 -0.848,12.297 l -6.698,6.312 C 113.268,95.035 55.848,26.326 38.221,11.796 22.174,-1.437 8.894,-2.179 0,0 m 19.222,-10.602 c -21.491,0 -31.637,16.897 -31.767,17.124 -0.582,1.002 -0.341,2.28 0.569,2.999 0.906,0.717 2.206,0.661 3.046,-0.134 0.732,-0.686 17.633,-15.887 44.188,6.005 18.685,15.405 85.896,96.409 86.574,97.225 0.41,0.496 1.008,0.799 1.65,0.839 0.64,0.042 1.275,-0.188 1.741,-0.631 l 8.503,-8.013 C 138.876,99.96 139.45,91.795 135.03,86.226 117.21,63.768 72.582,9.975 43.141,-4.429 34.001,-8.9 26.038,-10.602 19.222,-10.602"
             style="fill:#000000;fill-opacity:1;fill-rule:nonzero;stroke:none"
             id="path132" />
        </g>
        <g
           id="g134"
           transform="translate(1911.655,515.0298)">
          <path
             d="m 0,0 24.95,-108.957 -44.547,-24.645 -30.912,118.378 z"
             style="fill:#ffffff;fill-opacity:1;fill-rule:nonzero;stroke:none"
             id="path136" />
        </g>
        <g
           id="g138"
           transform="translate(1863.9674,498.2222)">
          <path
             d="M 0,0 29.589,-113.303 69.976,-90.96 45.973,13.857 Z m 28.091,-119.125 c -0.312,0 -0.623,0.063 -0.919,0.189 -0.66,0.283 -1.154,0.857 -1.336,1.553 L -5.078,0.996 c -0.316,1.212 0.383,2.458 1.585,2.819 l 50.51,15.224 c 0.615,0.185 1.284,0.108 1.844,-0.216 0.557,-0.325 0.956,-0.866 1.099,-1.496 L 74.91,-91.63 c 0.232,-1.013 -0.234,-2.056 -1.142,-2.559 L 29.22,-118.834 c -0.35,-0.193 -0.74,-0.291 -1.129,-0.291"
             style="fill:#000000;fill-opacity:1;fill-rule:nonzero;stroke:none"
             id="path140" />
        </g>
        <g
           id="g142"
           transform="translate(1943.0543,411.2827)">
          <path
             d="m 0,0 c 1.406,-10.547 3.657,-30.107 3.732,-47.633 0.046,-11.004 -8.235,-20.228 -19.097,-21.552 -30.713,-3.743 -100.342,-7.579 -159.589,-1.749 -4.056,0.4 -11.213,3.424 -13.139,13.631 -6.468,34.268 52.789,42.236 117.868,66.602 2.55,0.955 5.421,0.358 7.362,-1.559 l 6.95,-6.865 c 6.955,-6.871 17.327,-8.879 26.321,-5.096 L -8.24,4.759 C -4.605,6.288 -0.524,3.928 0,0"
             style="fill:#4b937a;fill-opacity:1;fill-rule:nonzero;stroke:none"
             id="path144" />
        </g>
        <g
           id="g146"
           transform="translate(1875.2876,418.6964)">
          <path
             d="m 0,0 c -0.551,0 -1.106,-0.097 -1.641,-0.297 -15.294,-5.726 -29.941,-10.445 -44.106,-15.007 -44.621,-14.375 -76.861,-24.759 -72.289,-48.98 1.951,-10.334 9.57,-11.596 11.077,-11.744 58.777,-5.782 127.333,-2.126 159.079,1.743 9.759,1.19 17.089,9.456 17.048,19.229 -0.075,17.528 -2.357,37.18 -3.712,47.334 -0.154,1.156 -0.817,2.148 -1.82,2.723 -0.99,0.567 -2.158,0.637 -3.207,0.196 l -21.35,-8.98 c -9.893,-4.16 -21.22,-1.966 -28.865,5.586 L 3.266,-1.333 C 2.387,-0.464 1.206,0 0,0 m -39.184,-83.696 c -22.481,0 -46.047,0.846 -68.23,3.03 -5.77,0.567 -13.212,4.97 -15.201,15.517 -5.335,28.26 30.31,39.743 75.438,54.281 14.115,4.547 28.708,9.248 43.902,14.936 3.396,1.273 7.246,0.454 9.818,-2.085 l 6.948,-6.864 c 6.298,-6.224 15.638,-8.03 23.781,-4.605 l 21.35,8.98 c 2.401,1.008 5.073,0.844 7.331,-0.448 2.273,-1.303 3.775,-3.544 4.123,-6.151 1.368,-10.266 3.676,-30.143 3.753,-47.931 0.05,-12.136 -9.039,-22.401 -21.145,-23.875 -19.966,-2.434 -54.407,-4.784 -91.868,-4.785"
             style="fill:#000000;fill-opacity:1;fill-rule:nonzero;stroke:none"
             id="path148" />
        </g>
        <g
           id="g150"
           transform="translate(1946.7588,366.2849)">
          <path
             d="m 0,0 c 0,0 0.024,-1.778 0.027,-2.635 0.047,-11.005 -8.234,-20.228 -19.097,-21.552 -30.713,-3.743 -100.342,-7.579 -159.588,-1.749 -4.056,0.399 -11.213,3.424 -13.139,13.63 -0.591,3.128 -0.174,8.759 -0.174,8.759 l 4.204,-0.239 c 59.885,-3.397 119.939,-2.378 179.677,3.051 z"
             style="fill:#ffffff;fill-opacity:1;fill-rule:nonzero;stroke:none"
             id="path152" />
        </g>
        <g
           id="g154"
           transform="translate(1757.0013,360.2781)">
          <path
             d="m 0,0 c -0.055,-1.898 -0.039,-4.331 0.25,-5.865 1.951,-10.335 9.57,-11.597 11.077,-11.744 58.777,-5.782 127.333,-2.126 159.079,1.743 9.759,1.189 17.09,9.455 17.049,19.229 V 3.458 L 181.879,2.951 C 122.226,-2.47 61.66,-3.498 1.857,-0.106 Z m 79.103,-25.278 c -22.482,0 -46.048,0.846 -68.231,3.03 -5.769,0.567 -13.212,4.971 -15.201,15.517 -0.641,3.388 -0.227,9.121 -0.209,9.363 0.093,1.27 1.227,2.226 2.456,2.155 L 2.121,4.548 C 61.697,1.167 122.032,2.192 181.455,7.594 l 8.091,0.735 c 0.642,0.05 1.291,-0.155 1.773,-0.591 0.483,-0.435 0.76,-1.052 0.769,-1.701 l 0.028,-2.653 c 0.05,-12.138 -9.04,-22.402 -21.146,-23.877 -19.966,-2.434 -54.407,-4.785 -91.867,-4.785"
             style="fill:#000000;fill-opacity:1;fill-rule:nonzero;stroke:none"
             id="path156" />
        </g>
        <g
           id="g158"
           transform="translate(1857.6815,381.4005)">
          <path
             d="m 0,0 c -0.605,0 -1.208,0.233 -1.664,0.7 l -22.608,23.073 c -0.901,0.919 -0.888,2.394 0.032,3.295 0.921,0.9 2.396,0.888 3.295,-0.034 L 1.664,3.961 C 2.565,3.042 2.551,1.567 1.632,0.666 1.177,0.222 0.589,0 0,0"
             style="fill:#000000;fill-opacity:1;fill-rule:nonzero;stroke:none"
             id="path160" />
        </g>
        <g
           id="g162"
           transform="translate(1835.296,379.1815)">
          <path
             d="m 0,0 c -0.619,0 -1.236,0.245 -1.696,0.731 l -18.061,19.141 c -0.883,0.936 -0.84,2.411 0.096,3.295 0.935,0.883 2.41,0.841 3.295,-0.095 L 1.695,3.931 C 2.578,2.994 2.535,1.519 1.6,0.635 1.149,0.211 0.573,0 0,0"
             style="fill:#000000;fill-opacity:1;fill-rule:nonzero;stroke:none"
             id="path164" />
        </g>
        <g
           id="g166"
           transform="translate(1700.2527,1054.8087)">
          <path
             d="m 0,0 c -8.642,-3.29 -19.678,-6.562 -19.678,-6.562 0,0 -0.857,-15.184 23.371,-31.841 19.41,-13.344 88.906,-51.32 201.64,-24.702 31.094,7.341 64.079,34.77 44.667,67.621 -25.883,43.801 -139.439,34.978 -139.439,34.978 z"
             style="fill:#000000;fill-opacity:1;fill-rule:nonzero;stroke:none"
             id="path168" />
        </g>
        <g
           id="g170"
           transform="translate(2136.9355,534.9514)">
          <path
             d="m 0,0 c -93.151,244.686 -154.552,250.358 -189.223,309.387 -36.669,62.43 -37.022,114.788 -44.262,182.892 -5.314,49.977 -38.119,97.969 -37.271,104.117 l -11.016,-0.979 c -3.204,8.094 -5.526,12.13 -5.526,12.13 L -427.76,582.733 c 0,0 -48.169,-159.216 20.654,-348.673 49.777,-137.027 116.531,-275.285 136.998,-318.282 4.007,-8.419 12.939,-13.339 22.198,-12.238 l 24.012,2.251 c 12.941,1.539 17.713,18.607 18.572,26.691 4.093,38.509 -2.45,90.05 -16.247,151.431 -7.887,35.086 -27.031,72.372 -33.691,104.857 -1.806,8.812 -3.519,17.346 -5.123,25.542 11.64,-16.988 21.898,-31.831 29.304,-43.098 29.741,-45.25 147.563,-158.328 172.448,-199.27 4.217,-6.94 12.002,-10.888 20.093,-10.178 l 20.916,7.508 c 0,0 23.828,14.436 17.626,30.726"
             style="fill:#000000;fill-opacity:1;fill-rule:nonzero;stroke:none"
             id="path172" />
        </g>
        <g
           id="g174"
           transform="translate(2119.3113,504.226)">
          <path
             d="m 0,0 h 0.023 z m -408.294,611.417 c -4.411,-15.962 -43.405,-168.531 21.002,-345.836 47.311,-130.232 109.993,-261.638 133.591,-311.108 l 3.323,-6.968 c 3.578,-7.519 11.566,-11.904 19.818,-10.926 l 24.068,2.257 c 11.09,1.32 15.63,16.681 16.472,24.617 3.817,35.903 -1.483,85.188 -16.201,150.674 -3.86,17.171 -10.526,35.102 -16.972,52.441 -6.852,18.431 -13.323,35.839 -16.73,52.46 -1.809,8.819 -3.52,17.359 -5.127,25.562 -0.212,1.085 0.366,2.169 1.386,2.597 1.024,0.421 2.198,0.08 2.824,-0.832 l 6.191,-9.028 c 9.155,-13.344 17.064,-24.866 23.138,-34.108 14.514,-22.082 50.846,-61.176 85.981,-98.983 37.92,-40.801 73.736,-79.34 86.51,-100.356 3.735,-6.146 10.467,-9.615 17.606,-9.09 l 20.388,7.317 c 2.132,1.355 21.639,14.219 16.472,27.789 -66.649,175.073 -116.442,226.891 -152.8,264.728 -14.119,14.694 -26.313,27.385 -36.254,44.308 -32.088,54.632 -36.664,102.367 -41.965,157.638 -0.815,8.495 -1.65,17.204 -2.604,26.188 -3.632,34.13 -20.141,67.125 -30.005,86.839 -3.83,7.657 -6.047,12.149 -6.893,15.012 l -8.867,-0.789 c -0.999,-0.092 -1.994,0.502 -2.374,1.465 -2.028,5.125 -3.703,8.603 -4.62,10.397 z m 175.395,-679.641 c -9.163,0 -17.663,5.268 -21.689,13.726 l -3.321,6.964 c -23.623,49.525 -86.376,181.08 -133.762,311.524 -68.299,188.01 -21.182,348.543 -20.697,350.143 0.255,0.841 0.961,1.467 1.826,1.62 l 140.462,24.814 c 0.969,0.175 1.934,-0.282 2.424,-1.132 0.093,-0.159 2.137,-3.735 5.025,-10.818 l 9.292,0.826 c 0.726,0.059 1.404,-0.201 1.894,-0.714 0.491,-0.514 0.719,-1.223 0.621,-1.926 0,-1.507 3.462,-8.428 6.812,-15.12 10.004,-19.996 26.75,-53.463 30.469,-88.433 0.958,-8.999 1.793,-17.725 2.611,-26.235 5.245,-54.721 9.777,-101.979 41.343,-155.723 9.661,-16.45 21.68,-28.957 35.597,-43.438 C -97.357,259.728 -47.186,207.513 19.802,31.555 26.616,13.655 2.246,-1.363 1.206,-1.995 1.072,-2.075 0.931,-2.142 0.785,-2.195 L -20.13,-9.702 c -0.189,-0.067 -0.385,-0.111 -0.583,-0.127 -9.055,-0.801 -17.579,3.533 -22.29,11.289 -12.526,20.61 -49.848,60.768 -85.941,99.603 -35.267,37.947 -71.733,77.187 -86.463,99.596 -6.001,9.131 -13.819,20.528 -22.87,33.718 0.942,-4.712 1.916,-9.52 2.92,-14.414 3.334,-16.268 9.745,-33.513 16.532,-51.772 6.5,-17.484 13.22,-35.563 17.151,-53.042 14.832,-65.99 20.162,-115.772 16.288,-152.188 -1.049,-9.895 -6.572,-27.09 -20.612,-28.76 l -24.068,-2.257 c -0.949,-0.112 -1.896,-0.168 -2.833,-0.168"
             style="fill:#ffffff;fill-opacity:1;fill-rule:nonzero;stroke:none"
             id="path176" />
        </g>
        <g
           id="g178"
           transform="translate(1909.2368,692.2631)">
          <path
             d="m 0,0 c -0.769,0 -1.522,0.38 -1.966,1.076 -0.132,0.205 -13.305,20.813 -31.562,46.977 l -1.682,2.41 c -32.727,46.884 -93.643,134.154 -112.895,221.853 -0.275,1.258 0.519,2.5 1.776,2.776 1.251,0.278 2.498,-0.518 2.776,-1.777 19.054,-86.792 79.624,-173.567 112.166,-220.185 l 1.682,-2.41 C -11.391,24.472 1.83,3.79 1.962,3.584 2.654,2.5 2.337,1.058 1.252,0.366 0.863,0.118 0.43,0 0,0"
             style="fill:#ffffff;fill-opacity:1;fill-rule:nonzero;stroke:none"
             id="path180" />
        </g>
        <g
           id="g182"
           transform="translate(1724.7653,1533.9904)">
          <path
             d="m 0,0 c -3.243,7.014 -5.365,14.506 -5.793,22.221 -0.899,16.189 3.177,40.237 29.619,58.119 43.958,29.727 92.6,-20.732 111.721,-26.478 24.302,-7.301 67.096,11.715 83.182,9.077 14.851,-2.435 71.615,-2.972 83.416,-73.744 1.302,-7.808 1.669,-15.735 1.658,-23.65 -0.014,-10.03 2.511,-36.888 36.401,-60.784 45.293,-31.934 88.755,-125.849 20.064,-177.236 -16.435,-12.295 -38.739,-10.064 -56.663,-4.358 -3.25,1.034 -6.682,2.302 -10.256,3.854 -10.335,4.488 -21.681,18.326 -34.1,16.14 -36.396,-6.409 -152.306,-60.559 -142.848,70.33 2.659,36.794 2.035,61.263 -30.542,68.907 -12.56,2.947 -34.585,-6.515 -58.949,-0.665 -51.792,12.435 -38.681,70.089 -28.601,89.181 C 5.751,-14.991 2.845,-6.153 0,0"
             style="fill:#000000;fill-opacity:1;fill-rule:nonzero;stroke:none"
             id="path184" />
        </g>
        <g
           id="g186"
           transform="translate(1577.5154,1634.1478)">
          <path
             d="M 0,0 C 0.058,0.711 0.714,1.207 1.415,1.081 L 10.7,-0.587 c 1.17,-0.21 2.185,0.795 2.02,1.972 -0.968,6.914 -1.002,12.307 -0.488,16.439 1.793,14.407 -2.466,40.437 -2.653,48.825 -0.189,8.488 1.529,12.805 6.683,13.372 4.428,0.484 8.523,-2.524 9.629,-6.839 0.267,-1.04 0.577,-3.291 0.964,-5.931 1.91,-13.027 26.172,-29.44 26.172,-29.44 0,0 2.215,-3.339 1.1,-5.029 L 43.271,16.319 C 41.397,13.068 41.427,5.38 42.073,-2.348 c 0.143,-1.718 1.468,-3.102 3.181,-3.297 l 10.433,-1.186 c 0.648,-0.075 1.143,-0.599 1.161,-1.254 0.271,-10.268 2.916,-88.315 21.212,-124.906 17.906,-35.811 76.97,-57.05 116.079,-48.479 2.952,0.648 5.928,1.245 8.921,1.776 27.048,4.809 57.502,-6.967 85.28,-20.94 43.682,-21.973 42.07,-58.254 35.292,-105.14 -5.209,-36.025 -13.875,-22.242 -18.332,-69.787 -6.978,-74.434 42.574,-169.621 62.985,-199.279 1.617,-2.347 -51.454,27.498 -84.585,32.058 -32.052,4.41 -64.69,1.155 -94.686,-10.968 l -78.457,-32.44 c -2.438,-1.009 -5.096,0.851 -4.966,3.487 1.2,24.253 5.909,121.957 8.141,204.175 0.351,12.927 -2.121,25.763 -7.245,37.638 l -1.808,4.19 c -3.118,7.228 -5.327,14.861 -6.011,22.703 -1.094,12.537 1.036,25.248 6.323,36.88 l 7.869,17.312 c -0.417,1.943 -0.902,3.1 -1.468,3.292 -24.509,8.333 -72.545,28.43 -87.249,59.801 C -8.131,-127.862 -1.099,-13.501 0,0"
             style="fill:#ffffff;fill-opacity:1;fill-rule:nonzero;stroke:none"
             id="path188" />
        </g>
        <g
           id="g190"
           transform="translate(1688.1584,1375.4291)">
          <path
             d="m 0,0 h 0.023 z m -108.411,257.285 c -0.917,-13.137 -7.724,-126.568 24.019,-194.29 C -69.603,31.448 -19.399,11.517 1.5,4.413 3.321,3.795 4.017,1.639 4.495,-0.599 4.6,-1.087 4.545,-1.597 4.338,-2.052 l -7.87,-17.311 c -5.068,-11.153 -7.185,-23.502 -6.122,-35.713 0.617,-7.05 2.578,-14.446 5.831,-21.982 l 1.807,-4.191 c 5.296,-12.272 7.797,-25.268 7.435,-38.625 -2.208,-81.33 -6.791,-176.878 -8.143,-204.225 -0.03,-0.6 0.318,-0.938 0.528,-1.086 0.171,-0.12 0.637,-0.372 1.217,-0.133 l 78.461,32.44 c 29.372,11.873 62.525,15.712 95.894,11.124 24.539,-3.378 59.35,-20.178 76.08,-28.252 0.676,-0.326 1.345,-0.65 1.994,-0.963 -24.498,38.557 -65.502,126.188 -59.114,194.344 2.499,26.649 6.393,34.534 10.16,42.161 3.036,6.146 5.903,11.951 8.186,27.743 6.755,46.726 8.271,81.445 -34.031,102.723 C 152.283,68.26 120.74,81.694 92.824,76.731 89.981,76.226 87.011,75.634 83.998,74.973 45.7,66.578 -15.767,86.885 -34.668,124.686 -52.764,160.877 -55.732,237.243 -56.1,249.672 l -9.552,1.086 c -2.799,0.319 -5.005,2.598 -5.239,5.42 -0.858,10.236 -0.367,16.786 1.5,20.023 l 10.928,16.582 c -0.002,0.23 -0.389,1.251 -0.878,2.105 -3.402,2.359 -24.837,17.687 -26.753,30.744 l -0.152,1.049 c -0.289,1.986 -0.563,3.862 -0.763,4.642 -0.837,3.262 -3.908,5.452 -7.119,5.1 -2.339,-0.257 -4.822,-1.342 -4.606,-11.003 0.057,-2.542 0.519,-6.946 1.056,-12.046 1.199,-11.385 2.842,-26.977 1.579,-37.119 -0.541,-4.347 -0.377,-9.673 0.483,-15.828 0.184,-1.296 -0.271,-2.613 -1.211,-3.52 -0.933,-0.897 -2.251,-1.297 -3.527,-1.069 z M -1.475,-330.08 c -1.199,0 -2.387,0.367 -3.407,1.084 -1.663,1.173 -2.599,3.09 -2.499,5.127 1.352,27.335 5.934,122.84 8.139,204.123 0.344,12.674 -2.03,25.005 -7.053,36.652 l -1.807,4.189 c -3.453,7.994 -5.535,15.876 -6.195,23.424 -1.133,13.009 1.122,26.165 6.523,38.047 l 7.542,16.59 c -0.132,0.511 -0.244,0.835 -0.325,1.033 -21.785,7.459 -72.64,27.943 -88.054,60.828 -34.084,72.712 -24.457,196.647 -24.356,197.891 0,0.002 0.002,0.003 0.002,0.004 0.082,0.989 0.58,1.903 1.365,2.507 0.79,0.607 1.803,0.855 2.786,0.675 l 8.475,-1.524 c -0.824,6.235 -0.953,11.701 -0.384,16.26 1.197,9.611 -0.414,24.896 -1.589,36.056 -0.548,5.203 -1.022,9.696 -1.083,12.43 -0.153,6.864 0.705,14.855 8.76,15.741 5.496,0.599 10.733,-3.084 12.141,-8.578 0.262,-1.02 0.526,-2.833 0.859,-5.127 l 0.152,-1.044 c 1.445,-9.841 18.662,-23.438 25.173,-27.848 0.253,-0.17 0.469,-0.388 0.635,-0.642 0.72,-1.084 2.925,-4.838 1.104,-7.6 l -10.856,-16.462 c -0.689,-1.207 -1.823,-5.219 -0.821,-17.19 0.052,-0.614 0.523,-1.108 1.124,-1.177 l 10.433,-1.185 c 1.82,-0.211 3.174,-1.684 3.227,-3.505 0.232,-8.864 2.806,-87.611 20.965,-123.928 18.002,-36.004 76.804,-55.29 113.498,-47.245 3.075,0.675 6.106,1.278 9.01,1.793 29.259,5.207 61.722,-8.572 86.736,-21.152 44.994,-22.632 43.36,-60.458 36.548,-107.555 -2.387,-16.524 -5.555,-22.939 -8.619,-29.141 -3.577,-7.246 -7.278,-14.739 -9.695,-40.531 -6.659,-71.026 39.289,-163.893 62.584,-197.74 0.599,-0.871 0.565,-2.146 -0.125,-2.948 -1.361,-1.59 -1.354,-1.597 -12.01,3.544 -16.513,7.97 -50.877,24.555 -74.689,27.832 -32.561,4.481 -64.892,0.739 -93.493,-10.821 L 0.803,-329.625 c -0.737,-0.305 -1.508,-0.455 -2.278,-0.455"
             style="fill:#000000;fill-opacity:1;fill-rule:nonzero;stroke:none"
             id="path192" />
        </g>
        <g
           id="g194"
           transform="translate(1751.1592,1288.5465)">
          <path
             d="m 0,0 c -0.81,0 -1.595,0.421 -2.026,1.174 -12.05,21.086 -6.395,52.459 -6.149,53.785 0.237,1.265 1.443,2.111 2.717,1.864 1.266,-0.235 2.101,-1.451 1.867,-2.716 C -3.648,53.798 -9.172,23.075 2.021,3.487 2.661,2.369 2.271,0.946 1.154,0.307 0.79,0.099 0.391,0 0,0"
             style="fill:#000000;fill-opacity:1;fill-rule:nonzero;stroke:none"
             id="path196" />
        </g>
        <g
           id="g198"
           transform="translate(1623.5944,1626.1141)">
          <path
             d="m 0,0 c -0.082,0 -0.164,0.005 -0.248,0.013 l -17.37,1.838 c -1.279,0.136 -2.207,1.284 -2.071,2.564 0.135,1.279 1.279,2.205 2.563,2.072 L 0.243,4.649 C 1.522,4.513 2.451,3.365 2.314,2.085 2.189,0.889 1.177,0 0,0"
             style="fill:#000000;fill-opacity:1;fill-rule:nonzero;stroke:none"
             id="path200" />
        </g>
        <g
           id="g202"
           transform="translate(789.3125,1696.8947)">
          <path
             d="m 0,0 c 52.482,56.727 124.402,87.874 202.525,87.701 58.396,-0.129 111.839,-18.723 158.847,-55.263 23.72,-18.443 45.201,-40.991 64.127,-67.296 19.024,26.213 40.603,48.674 64.404,67.012 47.147,36.331 100.663,54.689 159.059,54.56 78.124,-0.172 149.925,-31.637 202.18,-88.596 51.629,-56.292 79.979,-133.103 79.812,-216.292 -0.172,-85.623 -32.214,-163.93 -100.832,-246.444 -61.385,-73.808 -149.547,-148.677 -251.64,-235.372 -34.861,-29.607 -74.377,-63.167 -115.409,-98.917 -10.84,-9.461 -24.736,-14.652 -39.138,-14.62 -14.394,0.032 -28.277,5.284 -39.063,14.778 -40.889,35.939 -80.292,69.688 -115.049,99.464 -101.729,87.131 -189.589,162.381 -250.677,236.468 -68.287,82.808 -100.006,161.256 -99.834,246.886 C -80.521,-132.748 -51.863,-56.064 0,0"
             style="fill:#c7e8cc;fill-opacity:1;fill-rule:nonzero;stroke:none"
             id="path204" />
        </g>
        <g
           id="g206"
           transform="translate(791.023,1695.3121)">
          <path
             d="m 0,0 c -51.467,-55.636 -79.901,-131.76 -80.068,-214.352 -0.173,-85.061 31.383,-163.039 99.301,-245.399 60.957,-73.932 148.745,-149.119 250.392,-236.179 l 0.869,-0.744 c 34.521,-29.574 73.645,-63.093 114.206,-98.743 10.366,-9.125 23.694,-14.167 37.529,-14.198 h 0.123 c 13.792,0 27.097,4.986 37.479,14.047 40.961,35.688 80.411,69.195 115.221,98.756 l 0.211,0.181 c 101.996,86.612 190.083,161.413 251.357,235.086 68.251,82.073 100.12,159.91 100.293,244.958 0.164,82.595 -27.961,158.848 -79.2,214.713 -51.808,56.473 -123.002,87.669 -200.466,87.841 -0.203,0 -0.403,0.001 -0.605,0.001 -57.632,0 -110.46,-18.194 -157.027,-54.077 -23.562,-18.154 -45.073,-40.539 -63.94,-66.536 -0.439,-0.604 -1.141,-0.961 -1.887,-0.961 h -0.004 c -0.749,0.001 -1.45,0.362 -1.887,0.969 -18.765,26.081 -40.185,48.562 -63.668,66.818 -46.591,36.216 -99.556,54.644 -157.42,54.772 -0.214,0 -0.43,10e-4 -0.641,10e-4 C 122.959,86.954 51.894,56.09 0,0 m 422.352,-814.276 h -0.132 c -14.966,0.033 -29.384,5.489 -40.599,15.36 -40.536,35.629 -79.649,69.138 -114.158,98.702 l -0.867,0.743 c -101.816,87.202 -189.744,162.512 -250.958,236.754 -68.648,83.245 -100.539,162.167 -100.367,248.374 0.169,83.765 29.043,161.011 81.306,217.509 52.784,57.05 125.071,88.449 203.588,88.449 0.223,0 0.433,-10e-4 0.653,-10e-4 58.923,-0.131 112.847,-18.888 160.272,-55.753 23.052,-17.921 44.134,-39.839 62.707,-65.181 18.671,25.259 39.844,47.082 62.973,64.902 47.564,36.655 101.518,55.249 160.486,55.046 78.782,-0.175 151.193,-31.907 203.893,-89.351 52.029,-56.73 80.591,-134.105 80.425,-217.873 -0.175,-86.194 -32.386,-164.976 -101.372,-247.929 -61.53,-73.984 -149.759,-148.906 -251.921,-235.659 l -0.211,-0.181 c -34.799,-29.553 -74.239,-63.048 -115.176,-98.716 -11.229,-9.801 -25.624,-15.195 -40.542,-15.195"
             style="fill:#000000;fill-opacity:1;fill-rule:nonzero;stroke:none"
             id="path208" />
        </g>
        <g
           id="g210"
           transform="translate(982.1316,1363.0244)">
          <path
             d="M 0,0 -53.821,124.766 Z"
             style="fill:#ffffff;fill-opacity:1;fill-rule:nonzero;stroke:none"
             id="path212" />
        </g>
        <g
           id="g214"
           transform="translate(1050.6302,1385.0417)">
          <path
             d="m 0,0 -37.897,89.574 c -9.652,22.814 -32.019,37.638 -56.792,37.638 h -22.738 v 98.343 c 0,20.794 -11.417,39.91 -29.726,49.768 -15.312,8.246 -33.879,-2.845 -33.879,-20.236 V -21.548 c 0,-17.583 6.73,-34.498 18.81,-47.274 l 96.749,-102.332 c 7.483,-7.915 11.652,-18.393 11.652,-29.286 v -126.085 c 20.083,-17.404 43.813,-37.488 65.248,-55.846 28.819,-24.69 57.915,-48.7 91.321,-77.835 v 302.816 c 0,36.506 -14.728,71.466 -40.85,96.966 z"
             style="fill:#ffffff;fill-opacity:1;fill-rule:nonzero;stroke:none"
             id="path216" />
        </g>
        <g
           id="g218"
           transform="translate(1525.4137,1660.3652)">
          <path
             d="m 0,0 c -18.309,-9.859 -29.726,-28.974 -29.726,-49.768 v -98.343 h -22.738 c -24.773,0 -47.14,-14.824 -56.792,-37.639 l -37.897,-89.573 -61.898,-60.424 c -26.121,-25.5 -40.85,-60.461 -40.85,-96.966 l 0.816,-299.147 c 32.704,28.256 62.184,55.732 90.443,79.732 22.128,18.791 44.621,36.358 65.309,54.147 v 122.218 c 0,10.892 4.17,21.371 11.652,29.286 l 96.751,102.331 c 12.079,12.776 18.809,29.692 18.809,47.274 V -20.236 C 33.879,-2.846 15.312,8.245 0,0"
             style="fill:#ffffff;fill-opacity:1;fill-rule:nonzero;stroke:none"
             id="path220" />
        </g>
        <g
           id="g222"
           transform="translate(1446.7596,1363.0244)">
          <path
             d="M 0,0 53.82,124.766 Z"
             style="fill:#ffffff;fill-opacity:1;fill-rule:nonzero;stroke:none"
             id="path224" />
        </g>
        <g
           id="g226"
           transform="translate(1153.3784,914.0288)">
          <path
             d="m 0,0 c -1.288,0 -2.331,1.044 -2.331,2.331 v 311.292 c 0,35.655 -14.633,70.391 -40.146,95.299 l -61.899,60.424 c -0.223,0.217 -0.398,0.474 -0.519,0.759 l -37.896,89.574 c -9.308,22 -30.758,36.215 -54.646,36.215 h -22.738 c -1.288,0 -2.33,1.044 -2.33,2.331 v 98.342 c 0,19.967 -10.922,38.251 -28.501,47.717 -6.464,3.48 -14.083,3.307 -20.381,-0.452 -6.301,-3.764 -10.063,-10.392 -10.063,-17.732 V 449.464 c 0,-17.057 6.454,-33.279 18.172,-45.673 l 96.75,-102.331 c 7.925,-8.382 12.29,-19.351 12.29,-30.887 V 137.168 c 0,-1.287 -1.043,-2.33 -2.331,-2.33 -1.288,0 -2.33,1.043 -2.33,2.33 v 133.405 c 0,10.34 -3.912,20.172 -11.015,27.685 l -96.75,102.331 c -12.54,13.264 -19.447,30.621 -19.447,48.875 V 726.1 c 0,8.996 4.611,17.12 12.335,21.734 7.722,4.612 17.057,4.819 24.98,0.554 19.092,-10.28 30.952,-30.137 30.952,-51.821 v -96.012 h 20.407 c 25.766,0 48.9,-15.331 58.939,-39.06 l 37.713,-89.141 61.563,-60.097 C -12.816,386.476 2.33,350.526 2.33,313.623 V 2.331 C 2.33,1.044 1.288,0 0,0"
             style="fill:#000000;fill-opacity:1;fill-rule:nonzero;stroke:none"
             id="path228" />
        </g>
        <g
           id="g230"
           transform="translate(982.1326,1360.6927)">
          <path
             d="m 0,0 c -0.901,0 -1.759,0.528 -2.139,1.409 l -53.823,124.765 c -0.509,1.182 0.035,2.553 1.216,3.063 1.183,0.512 2.551,-0.033 3.063,-1.217 L 2.139,3.255 C 2.649,2.073 2.105,0.702 0.924,0.192 0.621,0.061 0.309,0 0,0"
             style="fill:#000000;fill-opacity:1;fill-rule:nonzero;stroke:none"
             id="path232" />
        </g>
        <g
           id="g234"
           transform="translate(1275.5131,915.7198)">
          <path
             d="m 0,0 c -1.288,0 -2.33,1.043 -2.33,2.33 v 309.602 c 0,36.906 15.146,72.856 41.552,98.634 l 61.561,60.097 37.715,89.141 c 10.039,23.729 33.173,39.06 58.939,39.06 h 20.407 v 96.012 c 0,21.685 11.86,41.541 30.952,51.821 7.923,4.265 17.26,4.057 24.982,-0.555 7.722,-4.614 12.333,-12.737 12.333,-21.733 V 447.773 c 0,-18.251 -6.907,-35.609 -19.447,-48.875 l -96.75,-102.331 c -7.103,-7.513 -11.015,-17.345 -11.015,-27.685 V 135.997 c 0,-1.287 -1.042,-2.33 -2.33,-2.33 -1.288,0 -2.331,1.043 -2.331,2.33 v 132.885 c 0,11.536 4.365,22.505 12.29,30.887 l 96.75,102.331 c 11.718,12.397 18.172,28.618 18.172,45.673 v 276.636 c 0,7.339 -3.762,13.967 -10.061,17.732 -6.304,3.763 -13.924,3.931 -20.385,0.452 -17.579,-9.466 -28.499,-27.749 -28.499,-47.717 v -98.342 c 0,-1.287 -1.042,-2.331 -2.33,-2.331 h -22.738 c -23.888,0 -45.338,-14.215 -54.646,-36.215 l -37.898,-89.574 c -0.121,-0.285 -0.296,-0.542 -0.519,-0.759 L 42.477,407.23 C 16.964,382.324 2.331,347.59 2.331,311.932 V 2.33 C 2.331,1.043 1.288,0 0,0"
             style="fill:#000000;fill-opacity:1;fill-rule:nonzero;stroke:none"
             id="path236" />
        </g>
        <g
           id="g238"
           transform="translate(1446.7589,1360.6927)">
          <path
             d="m 0,0 c -0.31,0 -0.621,0.061 -0.924,0.192 -1.181,0.51 -1.725,1.881 -1.215,3.063 L 51.683,128.02 c 0.51,1.184 1.877,1.73 3.063,1.217 1.181,-0.51 1.725,-1.881 1.216,-3.063 L 2.139,1.409 C 1.759,0.528 0.901,0 0,0"
             style="fill:#000000;fill-opacity:1;fill-rule:nonzero;stroke:none"
             id="path240" />
        </g>
        <g
           id="g242"
           transform="translate(1883.9915,1416.6031)">
          <path
             d="m 0,0 c 22.302,-17.156 31.877,-63.267 33.311,-99.805 l -4.7,-91.446 c 0.782,-19.942 -13.733,-37.206 -33.513,-39.86 l -241.159,-30.391 -6.863,62.741 188.475,38.874 c 6.52,1.303 10.972,7.361 10.267,13.972 l -7.088,66.509 z"
             style="fill:#ffffff;fill-opacity:1;fill-rule:nonzero;stroke:none"
             id="path244" />
        </g>
        <g
           id="g246"
           transform="translate(1631.0201,1208.1265)">
          <path
             d="m 0,0 -18.44,2.138 c -7.915,0.918 -15.904,1.008 -23.838,0.27 l -13.326,-1.24 c -1.995,-0.185 -3.843,-1.127 -5.166,-2.632 l -0.167,-0.19 c -2.426,-2.76 -2.61,-6.834 -0.444,-9.801 1.409,-1.932 3.623,-3.115 6.012,-3.214 l 13.004,-0.536 c 0.849,-0.035 0.996,-1.231 0.181,-1.47 l -22.427,-6.597 c -2.054,-0.604 -4.212,-0.769 -6.334,-0.484 l -10.187,1.369 c -7.765,1.043 -16.296,-2.863 -18.507,-9.935 -0.813,-2.601 0.271,-5.532 2.81,-6.523 0.03,-0.011 0.059,-0.022 0.089,-0.034 l 14.204,-4.954 c 14.332,-5 29.694,-6.296 44.661,-3.768 l 42.273,7.141 z"
             style="fill:#ffffff;fill-opacity:1;fill-rule:nonzero;stroke:none"
             id="path248" />
        </g>
        <g
           id="g250"
           transform="translate(1578.1838,1156.9441)">
          <path
             d="m 0,0 c -10.344,0 -20.667,1.73 -30.467,5.148 l -14.204,4.955 c -3.728,1.453 -5.567,5.577 -4.356,9.452 2.417,7.734 11.648,12.807 21.04,11.55 L -17.8,29.737 c 1.816,-0.244 3.619,-0.104 5.369,0.41 l 13.248,3.897 -3.446,0.142 c -3.115,0.127 -5.958,1.645 -7.799,4.166 -2.829,3.881 -2.592,9.109 0.578,12.714 l 0.157,0.181 c 1.732,1.971 4.112,3.183 6.709,3.424 l 13.325,1.24 c 8.078,0.752 16.259,0.659 24.323,-0.276 l 18.441,-2.138 c 1.279,-0.148 2.194,-1.304 2.046,-2.583 -0.146,-1.277 -1.29,-2.21 -2.583,-2.046 l -18.441,2.138 c -7.741,0.896 -15.601,0.986 -23.353,0.265 L -2.551,50.031 C -3.96,49.9 -5.25,49.242 -6.184,48.18 l -0.157,-0.181 c -1.727,-1.964 -1.855,-4.797 -0.323,-6.9 0.997,-1.363 2.538,-2.187 4.226,-2.257 l 13.005,-0.537 c 1.511,-0.06 2.747,-1.196 2.931,-2.699 0.187,-1.504 -0.733,-2.906 -2.187,-3.334 l -22.426,-6.597 c -2.385,-0.7 -4.846,-0.885 -7.304,-0.559 l -10.187,1.369 c -7.071,0.958 -14.24,-2.781 -15.974,-8.32 -0.423,-1.357 -0.002,-3.095 1.434,-3.656 L -28.933,9.55 C -15.009,4.694 0.034,3.424 14.572,5.88 l 42.272,7.14 c 1.275,0.228 2.472,-0.641 2.688,-1.909 C 59.746,9.842 58.89,8.639 57.623,8.425 L 15.351,1.285 C 10.271,0.427 5.132,0 0,0"
             style="fill:#000000;fill-opacity:1;fill-rule:nonzero;stroke:none"
             id="path252" />
        </g>
        <g
           id="g254"
           transform="translate(1637.9301,1152.7712)">
          <path
             d="m 0,0 c -0.521,0 -1.031,0.175 -1.443,0.502 -0.492,0.387 -0.806,0.955 -0.874,1.575 l -6.862,62.74 c -0.129,1.195 0.669,2.293 1.846,2.536 l 188.474,38.875 c 5.387,1.076 9.001,5.994 8.421,11.443 -0.018,0.159 -0.018,0.321 -0.002,0.481 l 5.166,51.068 c 0.132,1.279 1.263,2.203 2.553,2.085 1.282,-0.13 2.215,-1.273 2.085,-2.554 l -5.143,-50.837 c 0.703,-7.761 -4.481,-14.721 -12.151,-16.254 L -4.315,63.217 2.06,4.939 240.869,35.033 c 18.676,2.506 32.215,18.61 31.476,37.457 l 3.739,72.98 c 1.104,21.466 -0.064,42.013 -3.469,61.07 -3.564,19.94 -9.153,37.371 -16.616,51.81 -0.589,1.144 -0.143,2.549 1.002,3.14 1.14,0.595 2.549,0.142 3.14,-1 7.677,-14.854 13.416,-32.73 17.062,-53.131 3.469,-19.405 4.657,-40.308 3.537,-62.128 L 277.001,72.462 C 277.836,51.41 262.561,33.241 241.47,30.41 L 0.291,0.018 C 0.193,0.006 0.098,0 0,0"
             style="fill:#000000;fill-opacity:1;fill-rule:nonzero;stroke:none"
             id="path256" />
        </g>
        <g
           id="g258"
           transform="translate(1804.7885,1550.7169)">
          <path
             d="m 0,0 c -8.597,-3.377 -12.897,-2.376 -23.453,3.153 -20.57,10.775 -28.844,33.926 -34.742,23.589 -5.146,-9.021 -3.216,-15.477 -16.382,-25.859 -1.262,-0.995 -0.769,-3.094 0.301,-4.293 l 5.572,-6.946 c 1.201,-1.346 1.689,-5.16 1.508,-6.954 -0.56,-5.543 -1.834,-16.986 -0.603,-19.118 3.58,-6.204 23.354,-9.402 23.354,-9.402 l 2.27,-41.066 c 0.319,-5.78 -1.68,-11.449 -5.555,-15.75 l -4.296,-4.77 c 0,0 0.276,-11.433 35.212,-13.392 8.249,-0.463 17.723,1.972 23.632,3.848 2.592,0.823 3.54,3.953 1.918,6.137 -5.847,7.872 -19.776,28.352 -15.766,76.015 0.122,1.447 1.019,2.719 2.332,3.339 5.037,2.378 18.762,9.608 18.659,19.76 C 13.851,-0.922 6.268,2.462 0,0"
             style="fill:#ffffff;fill-opacity:1;fill-rule:nonzero;stroke:none"
             id="path260" />
        </g>
        <g
           id="g262"
           transform="translate(1755.34,1442.681)">
          <path
             d="m 0,0 c 1.054,-2.18 6.42,-8.968 32.764,-10.445 7.756,-0.446 16.668,1.794 22.797,3.743 0.667,0.211 0.919,0.72 1.013,1.006 0.166,0.517 0.072,1.071 -0.26,1.519 -5.054,6.805 -20.433,27.512 -16.218,77.601 0.191,2.265 1.596,4.277 3.66,5.25 5.237,2.473 17.408,9.145 17.322,17.63 -0.044,4.193 -1.384,7.391 -3.776,9.004 -1.971,1.328 -4.524,1.533 -7.003,0.559 -9.438,-3.713 -14.381,-2.507 -25.385,3.258 -9.738,5.101 -16.851,12.902 -22.044,18.597 -3.036,3.332 -6.853,7.5 -8.293,7.318 -0.253,-0.027 -0.726,-0.415 -1.3,-1.418 -1.495,-2.622 -2.342,-4.982 -3.238,-7.479 -2.015,-5.617 -4.097,-11.423 -13.587,-18.946 0.013,-0.227 0.152,-0.675 0.459,-1.018 l 5.651,-7.042 c 1.805,-2.014 2.21,-6.636 2.01,-8.642 l -0.121,-1.19 c -0.412,-4.018 -1.504,-14.689 -0.746,-16.606 2.05,-3.544 13.914,-6.939 21.673,-8.193 1.079,-0.175 1.893,-1.078 1.953,-2.172 L 9.6,21.269 C 9.95,14.913 7.708,8.556 3.45,3.829 Z m 34.748,-15.161 c -0.756,0 -1.504,0.021 -2.244,0.062 -36.043,2.021 -37.379,14.272 -37.413,15.662 -0.014,0.597 0.2,1.175 0.599,1.617 l 4.296,4.769 c 3.435,3.813 5.244,8.938 4.962,14.063 L 2.779,60.229 c -5.715,1.064 -19.693,4.227 -23.148,10.214 -1.29,2.233 -0.951,8.264 0.182,19.337 l 0.121,1.181 c 0.17,1.7 -0.417,4.575 -0.929,5.166 l -5.651,7.042 c -1.058,1.181 -1.679,2.947 -1.543,4.515 0.109,1.24 0.685,2.329 1.621,3.066 8.555,6.747 10.252,11.483 12.221,16.966 0.924,2.577 1.88,5.242 3.578,8.216 1.295,2.27 2.92,3.529 4.831,3.741 3.826,0.447 7.183,-3.251 12.254,-8.81 5.234,-5.743 11.75,-12.89 20.76,-17.61 10.549,-5.523 13.967,-6.014 21.521,-3.048 3.866,1.519 8.1,1.133 11.311,-1.032 3.7,-2.496 5.771,-7.05 5.831,-12.822 C 65.85,85.574 53.26,78.009 45.745,74.459 45.176,74.19 44.792,73.644 44.739,73.032 40.674,24.699 55.263,5.056 60.056,-1.398 c 1.224,-1.648 1.579,-3.791 0.951,-5.731 -0.623,-1.937 -2.096,-3.4 -4.035,-4.016 -5.933,-1.884 -14.379,-4.016 -22.224,-4.016"
             style="fill:#000000;fill-opacity:1;fill-rule:nonzero;stroke:none"
             id="path264" />
        </g>
        <g
           id="g266"
           transform="translate(853.8813,1126.5049)">
          <path
             d="m 0,0 c 0,0 37.9,-4.516 46.736,-10.408 8.837,-5.891 39.032,-20.049 33.36,-9.435 -5.671,10.614 -45.135,45.077 -45.135,45.077 0,0 16.194,4.713 13.248,14.138 -2.946,9.426 -27.099,0.884 -35.052,0 C 5.204,38.489 -2.455,33.014 -2.455,33.014 -2.455,33.014 -17.281,5.498 0,0"
             style="fill:#ffffff;fill-opacity:1;fill-rule:nonzero;stroke:none"
             id="path268" />
        </g>
        <g
           id="g270"
           transform="translate(854.3855,1128.7915)">
          <path
             d="m 0,0 c 3.498,-0.423 38.601,-4.806 47.525,-10.756 8.04,-5.359 25.656,-12.961 30.235,-12.928 -0.057,0.13 -0.13,0.281 -0.223,0.456 -4.327,8.098 -31.075,32.597 -44.614,44.42 -0.64,0.56 -0.924,1.424 -0.742,2.256 0.184,0.831 0.806,1.497 1.623,1.737 2.439,0.715 9.228,3.426 11.318,7.329 0.666,1.247 0.782,2.515 0.359,3.876 -1.62,5.187 -16.584,1.783 -24.62,-0.043 C 17.656,35.619 14.886,34.989 12.909,34.77 6.682,34.078 0.521,30.247 -1.158,29.135 -2.528,26.417 -8.89,13.035 -5.662,5.068 -4.666,2.603 -2.811,0.943 0,0 m 77.803,-28.189 c -9.504,0 -30.44,11.939 -32.864,13.555 -6.868,4.58 -35.332,8.796 -45.72,10.033 -0.145,0.019 -0.291,0.049 -0.43,0.094 -4.271,1.358 -7.223,3.994 -8.776,7.832 -4.401,10.886 4.591,27.794 4.978,28.508 0.168,0.314 0.405,0.583 0.694,0.791 0.335,0.237 8.25,5.838 16.71,6.777 1.715,0.191 4.365,0.793 7.433,1.491 11.477,2.609 27.201,6.181 30.1,-3.111 0.808,-2.585 0.571,-5.099 -0.703,-7.475 -2.144,-3.997 -6.912,-6.685 -10.314,-8.176 9.342,-8.284 37.793,-33.91 42.736,-43.161 1.846,-3.454 0.649,-5.307 -0.23,-6.102 -0.81,-0.736 -2.06,-1.056 -3.614,-1.056"
             style="fill:#000000;fill-opacity:1;fill-rule:nonzero;stroke:none"
             id="path272" />
        </g>
        <g
           id="g274"
           transform="translate(461.1025,1350.3278)">
          <path
             d="m 0,0 c 0,0 65.913,-334.458 404.047,-238.208 l -14.681,50.708 c 0,0 -213.264,-15.919 -270.504,208.222 0,0 -44.79,78.845 -118.862,-20.722"
             style="fill:#3e6eb4;fill-opacity:1;fill-rule:nonzero;stroke:none"
             id="path276" />
        </g>
        <g
           id="g278"
           transform="translate(750.014,1092.3901)">
          <path
             d="m 0,0 c -53.997,0 -102.43,12.991 -144.798,38.934 -116.165,71.135 -146.111,217.087 -146.4,218.553 -0.248,1.263 0.574,2.487 1.837,2.736 1.258,0.26 2.485,-0.571 2.738,-1.835 0.284,-1.447 29.873,-145.458 144.292,-215.498 C -73.276,0.618 12.367,-6.627 112.246,21.336 L 98.73,68.013 C 90.703,67.68 58.11,67.138 18.173,77.69 c -42.391,11.199 -102.039,37.531 -145.467,99.375 -0.74,1.054 -0.485,2.507 0.569,3.247 1.054,0.739 2.506,0.486 3.245,-0.568 C -41.942,63.632 98.866,72.666 100.282,72.761 c 1.122,0.103 2.103,-0.618 2.412,-1.675 l 14.682,-50.707 c 0.171,-0.596 0.1,-1.236 -0.2,-1.777 -0.301,-0.543 -0.806,-0.944 -1.402,-1.113 C 74.803,5.827 36.15,0 0,0"
             style="fill:#000000;fill-opacity:1;fill-rule:nonzero;stroke:none"
             id="path280" />
        </g>
        <g
           id="g282"
           transform="translate(818.7882,726.5911)">
          <path
             d="m 0,0 c -5.931,0 -10.824,-4.757 -10.958,-10.717 -0.137,-6.045 4.668,-11.072 10.712,-11.21 6.027,-0.097 11.072,4.669 11.209,10.714 0.066,2.929 -1.011,5.706 -3.034,7.824 -2.023,2.118 -4.75,3.32 -7.679,3.387 C 0.166,-0.001 0.084,0 0,0 m 0.007,-26.59 c -0.118,0 -0.239,0.001 -0.357,0.004 -8.615,0.195 -15.463,7.36 -15.269,15.974 0.195,8.611 7.458,15.506 15.974,15.268 4.174,-0.094 8.059,-1.808 10.942,-4.824 2.884,-3.018 4.42,-6.977 4.327,-11.15 C 15.43,-19.813 8.459,-26.59 0.007,-26.59"
             style="fill:#000000;fill-opacity:1;fill-rule:nonzero;stroke:none"
             id="path284" />
        </g>
        <g
           id="g286"
           transform="translate(976.682,776.1187)">
          <path
             d="m 0,0 c -0.467,0 -0.938,0.14 -1.347,0.431 l -12.936,9.194 c -1.05,0.745 -1.295,2.199 -0.551,3.249 0.746,1.049 2.198,1.297 3.25,0.549 L 1.352,4.23 C 2.401,3.484 2.647,2.03 1.903,0.981 1.447,0.341 0.728,0 0,0"
             style="fill:#000000;fill-opacity:1;fill-rule:nonzero;stroke:none"
             id="path288" />
        </g>
        <g
           id="g290"
           transform="translate(931.4035,808.2939)">
          <path
             d="m 0,0 c -0.467,0 -0.938,0.14 -1.347,0.431 l -12.936,9.194 c -1.05,0.745 -1.295,2.199 -0.551,3.248 0.744,1.051 2.198,1.297 3.25,0.55 L 1.352,4.23 C 2.401,3.484 2.647,2.03 1.903,0.981 1.448,0.341 0.728,0 0,0"
             style="fill:#000000;fill-opacity:1;fill-rule:nonzero;stroke:none"
             id="path292" />
        </g>
        <g
           id="g294"
           transform="translate(959.1306,812.5657)">
          <path
             d="m 0,0 c -0.478,0 -0.961,0.147 -1.375,0.451 -1.04,0.761 -1.263,2.22 -0.503,3.257 l 9.245,12.611 c 0.762,1.038 2.221,1.261 3.257,0.502 1.04,-0.761 1.263,-2.22 0.503,-3.258 L 1.882,0.952 C 1.425,0.33 0.717,0 0,0"
             style="fill:#000000;fill-opacity:1;fill-rule:nonzero;stroke:none"
             id="path296" />
        </g>
        <g
           id="g298"
           transform="translate(926.7722,768.4285)">
          <path
             d="m 0,0 c -0.478,0 -0.96,0.147 -1.375,0.451 -1.04,0.761 -1.263,2.22 -0.503,3.258 L 7.369,16.32 c 0.763,1.037 2.221,1.261 3.257,0.502 1.04,-0.761 1.263,-2.22 0.503,-3.258 L 1.882,0.953 C 1.425,0.33 0.717,0 0,0"
             style="fill:#000000;fill-opacity:1;fill-rule:nonzero;stroke:none"
             id="path300" />
        </g>
        <g
           id="g302"
           transform="translate(2087.1646,913.6897)">
          <path
             d="m 0,0 c -0.467,0 -0.938,0.14 -1.347,0.431 l -12.939,9.194 c -1.049,0.745 -1.295,2.199 -0.55,3.248 0.746,1.05 2.2,1.298 3.25,0.55 L 1.352,4.23 C 2.401,3.484 2.647,2.03 1.903,0.981 1.448,0.341 0.728,0 0,0"
             style="fill:#000000;fill-opacity:1;fill-rule:nonzero;stroke:none"
             id="path304" />
        </g>
        <g
           id="g306"
           transform="translate(2041.8861,945.8648)">
          <path
             d="m 0,0 c -0.467,0 -0.938,0.14 -1.347,0.431 l -12.939,9.194 c -1.049,0.745 -1.295,2.199 -0.55,3.248 0.746,1.051 2.2,1.297 3.249,0.55 L 1.352,4.23 C 2.401,3.484 2.647,2.03 1.903,0.981 1.447,0.341 0.728,0 0,0"
             style="fill:#000000;fill-opacity:1;fill-rule:nonzero;stroke:none"
             id="path308" />
        </g>
        <g
           id="g310"
           transform="translate(2069.613,950.1378)">
          <path
             d="m 0,0 c -0.478,0 -0.96,0.147 -1.375,0.451 -1.04,0.761 -1.263,2.22 -0.503,3.257 l 9.245,12.611 c 0.765,1.038 2.224,1.262 3.257,0.502 1.04,-0.761 1.263,-2.22 0.503,-3.258 L 1.882,0.952 C 1.425,0.33 0.717,0 0,0"
             style="fill:#000000;fill-opacity:1;fill-rule:nonzero;stroke:none"
             id="path312" />
        </g>
        <g
           id="g314"
           transform="translate(2037.2548,906.0006)">
          <path
             d="m 0,0 c -0.478,0 -0.96,0.147 -1.375,0.451 -1.04,0.761 -1.263,2.22 -0.503,3.258 l 9.245,12.61 c 0.762,1.038 2.221,1.261 3.257,0.502 1.04,-0.761 1.263,-2.22 0.503,-3.258 L 1.882,0.953 C 1.425,0.33 0.717,0 0,0"
             style="fill:#000000;fill-opacity:1;fill-rule:nonzero;stroke:none"
             id="path316" />
        </g>
        <g
           id="g318"
           transform="translate(2095.2529,1115.8646)">
          <path
             d="m 0,0 c -4.026,0 -8.002,-1.855 -10.553,-5.349 -4.238,-5.808 -2.961,-13.985 2.847,-18.224 2.813,-2.056 6.27,-2.889 9.7,-2.353 3.443,0.537 6.47,2.383 8.523,5.197 2.055,2.816 2.89,6.26 2.353,9.702 -0.537,3.443 -2.383,6.47 -5.198,8.523 C 5.357,-0.815 2.667,0 0,0 m -0.054,-30.746 c -3.724,0 -7.338,1.172 -10.401,3.408 -7.884,5.755 -9.616,16.852 -3.862,24.737 5.753,7.884 16.85,9.62 24.738,3.862 3.819,-2.788 6.325,-6.896 7.053,-11.568 0.731,-4.673 -0.405,-9.35 -3.193,-13.17 -2.788,-3.819 -6.896,-6.324 -11.568,-7.054 -0.924,-0.144 -1.85,-0.215 -2.767,-0.215"
             style="fill:#000000;fill-opacity:1;fill-rule:nonzero;stroke:none"
             id="path320" />
        </g>
      </g>
    </g>
  </g>
</svg>
