<?xml version="1.0" encoding="UTF-8" standalone="no"?>
<!-- Created with Inkscape (http://www.inkscape.org/) -->

<svg
   version="1.1"
   id="svg2"
   width="682.66669"
   height="682.66669"
   viewBox="0 0 682.66669 682.66669"
   sodipodi:docname="pin.ai"
   xmlns:inkscape="http://www.inkscape.org/namespaces/inkscape"
   xmlns:sodipodi="http://sodipodi.sourceforge.net/DTD/sodipodi-0.dtd"
   xmlns="http://www.w3.org/2000/svg"
   xmlns:svg="http://www.w3.org/2000/svg">
  <defs
     id="defs6">
    <clipPath
       clipPathUnits="userSpaceOnUse"
       id="clipPath16">
      <path
         d="M 0,512 H 512 V 0 H 0 Z"
         id="path14" />
    </clipPath>
  </defs>
  <sodipodi:namedview
     id="namedview4"
     pagecolor="#ffffff"
     bordercolor="#000000"
     borderopacity="0.25"
     inkscape:showpageshadow="2"
     inkscape:pageopacity="0.0"
     inkscape:pagecheckerboard="0"
     inkscape:deskcolor="#d1d1d1" />
  <g
     id="g8"
     inkscape:groupmode="layer"
     inkscape:label="pin"
     transform="matrix(1.3333333,0,0,-1.3333333,0,682.66667)">
    <g
       id="g10">
      <g
         id="g12"
         clip-path="url(#clipPath16)">
        <g
           id="g18"
           transform="translate(256,240)">
          <path
             d="m 0,0 c -35.346,0 -64,28.654 -64,64 0,35.346 28.654,64 64,64 C 35.346,128 64,99.346 64,64 63.959,28.671 35.329,0.041 0,0 m 144.742,136.266 c -24.654,48.609 -72.358,81.325 -126.585,86.812 -12.072,1.212 -24.234,1.212 -36.306,0 -54.226,-5.491 -101.929,-38.201 -126.593,-86.804 -31.226,-62.403 -21.88,-137.459 23.696,-190.298 L -12.36,-186.165 c 5.611,-6.826 15.694,-7.811 22.52,-2.2 0.803,0.661 1.54,1.397 2.2,2.2 l 108.686,132.141 c 45.575,52.836 54.921,127.89 23.696,190.29 z"
             style="fill:#3e6eb4;fill-opacity:1;fill-rule:nonzero;stroke:none"
             id="path20" />
        </g>
      </g>
    </g>
  </g>
</svg>
