<?xml version="1.0" encoding="UTF-8" standalone="no"?>
<!-- Created with Inkscape (http://www.inkscape.org/) -->

<svg
   version="1.1"
   id="svg2"
   width="400"
   height="200"
   viewBox="0 0 400 200"
   sodipodi:docname="white_and_black_halftone_background.ai"
   xmlns:inkscape="http://www.inkscape.org/namespaces/inkscape"
   xmlns:sodipodi="http://sodipodi.sourceforge.net/DTD/sodipodi-0.dtd"
   xmlns="http://www.w3.org/2000/svg"
   xmlns:svg="http://www.w3.org/2000/svg">
  <defs
     id="defs6">
    <clipPath
       clipPathUnits="userSpaceOnUse"
       id="clipPath16">
      <path
         d="M 0,150 H 300 V 0 H 0 Z"
         id="path14" />
    </clipPath>
  </defs>
  <sodipodi:namedview
     id="namedview4"
     pagecolor="#ffffff"
     bordercolor="#000000"
     borderopacity="0.25"
     inkscape:showpageshadow="2"
     inkscape:pageopacity="0.0"
     inkscape:pagecheckerboard="0"
     inkscape:deskcolor="#d1d1d1" />
  <g
     id="g8"
     inkscape:groupmode="layer"
     inkscape:label="white_and_black_halftone_background"
     transform="matrix(1.3333333,0,0,-1.3333333,0,200)">
    <g
       id="g10">
      <g
         id="g12"
         clip-path="url(#clipPath16)">
        <g
           id="g18"
           transform="translate(199.5625,105.6351)">
          <path
             d="M 0,0 C 0.329,0.446 0.957,0.54 1.403,0.212 1.848,-0.117 1.943,-0.745 1.614,-1.191 1.285,-1.637 0.657,-1.732 0.211,-1.403 -0.235,-1.075 -0.329,-0.446 0,0"
             style="fill:#231f20;fill-opacity:1;fill-rule:nonzero;stroke:none"
             id="path20" />
        </g>
        <g
           id="g22"
           transform="translate(191.6769,100.1206)">
          <path
             d="M 0,0 C 0.355,0.482 1.033,0.584 1.514,0.228 1.995,-0.126 2.098,-0.804 1.742,-1.285 1.387,-1.766 0.709,-1.869 0.228,-1.514 -0.253,-1.159 -0.355,-0.481 0,0"
             style="fill:#231f20;fill-opacity:1;fill-rule:nonzero;stroke:none"
             id="path24" />
        </g>
        <g
           id="g26"
           transform="translate(183.7904,94.6081)">
          <path
             d="M 0,0 C 0.381,0.517 1.111,0.627 1.628,0.245 2.145,-0.136 2.254,-0.865 1.873,-1.382 1.492,-1.898 0.764,-2.008 0.247,-1.626 -0.27,-1.245 -0.381,-0.516 0,0"
             style="fill:#231f20;fill-opacity:1;fill-rule:nonzero;stroke:none"
             id="path28" />
        </g>
        <g
           id="g30"
           transform="translate(175.906,89.0951)">
          <path
             d="M 0,0 C 0.408,0.552 1.186,0.67 1.738,0.262 2.292,-0.146 2.409,-0.924 2.001,-1.477 1.593,-2.03 0.815,-2.147 0.262,-1.739 -0.291,-1.332 -0.408,-0.553 0,0"
             style="fill:#231f20;fill-opacity:1;fill-rule:nonzero;stroke:none"
             id="path32" />
        </g>
        <g
           id="g34"
           transform="translate(168.0124,83.5878)">
          <path
             d="M 0,0 C 0.437,0.592 1.272,0.719 1.865,0.282 2.457,-0.155 2.583,-0.991 2.146,-1.583 1.709,-2.176 0.873,-2.302 0.281,-1.865 -0.312,-1.428 -0.437,-0.592 0,0"
             style="fill:#231f20;fill-opacity:1;fill-rule:nonzero;stroke:none"
             id="path36" />
        </g>
        <g
           id="g38"
           transform="translate(160.1048,78.0896)">
          <path
             d="M 0,0 C 0.473,0.641 1.374,0.776 2.014,0.304 2.654,-0.168 2.791,-1.069 2.318,-1.71 1.847,-2.349 0.944,-2.486 0.304,-2.014 -0.336,-1.541 -0.471,-0.639 0,0"
             style="fill:#231f20;fill-opacity:1;fill-rule:nonzero;stroke:none"
             id="path40" />
        </g>
        <g
           id="g42"
           transform="translate(152.1978,72.5921)">
          <path
             d="M 0,0 C 0.508,0.688 1.477,0.834 2.164,0.327 2.851,-0.18 2.997,-1.148 2.489,-1.836 1.982,-2.523 1.015,-2.67 0.327,-2.162 -0.36,-1.656 -0.507,-0.687 0,0"
             style="fill:#231f20;fill-opacity:1;fill-rule:nonzero;stroke:none"
             id="path44" />
        </g>
        <g
           id="g46"
           transform="translate(199.6673,116.8879)">
          <path
             d="M 0,0 C 0.327,0.443 0.949,0.536 1.392,0.209 1.834,-0.116 1.928,-0.738 1.601,-1.182 1.276,-1.623 0.652,-1.718 0.211,-1.392 -0.232,-1.065 -0.326,-0.442 0,0"
             style="fill:#231f20;fill-opacity:1;fill-rule:nonzero;stroke:none"
             id="path48" />
        </g>
        <g
           id="g50"
           transform="translate(191.7711,111.3838)">
          <path
             d="M 0,0 C 0.357,0.484 1.039,0.586 1.523,0.23 2.007,-0.127 2.11,-0.81 1.753,-1.294 1.395,-1.778 0.713,-1.881 0.229,-1.524 -0.254,-1.167 -0.358,-0.485 0,0"
             style="fill:#231f20;fill-opacity:1;fill-rule:nonzero;stroke:none"
             id="path52" />
        </g>
        <g
           id="g54"
           transform="translate(183.8738,105.8779)">
          <path
             d="M 0,0 C 0.388,0.527 1.129,0.638 1.655,0.25 2.182,-0.139 2.293,-0.879 1.905,-1.405 1.517,-1.931 0.776,-2.044 0.25,-1.655 -0.277,-1.267 -0.388,-0.526 0,0"
             style="fill:#231f20;fill-opacity:1;fill-rule:nonzero;stroke:none"
             id="path56" />
        </g>
        <g
           id="g58"
           transform="translate(175.977,100.373)">
          <path
             d="M 0,0 C 0.419,0.568 1.219,0.689 1.787,0.27 2.355,-0.149 2.475,-0.949 2.056,-1.517 1.637,-2.084 0.838,-2.205 0.269,-1.786 -0.299,-1.367 -0.419,-0.567 0,0"
             style="fill:#231f20;fill-opacity:1;fill-rule:nonzero;stroke:none"
             id="path60" />
        </g>
        <g
           id="g62"
           transform="translate(168.0792,94.87)">
          <path
             d="M 0,0 C 0.449,0.609 1.309,0.738 1.919,0.288 2.53,-0.162 2.658,-1.021 2.209,-1.63 1.759,-2.24 0.9,-2.371 0.29,-1.92 -0.32,-1.47 -0.45,-0.61 0,0"
             style="fill:#231f20;fill-opacity:1;fill-rule:nonzero;stroke:none"
             id="path64" />
        </g>
        <g
           id="g66"
           transform="translate(160.1739,89.3713)">
          <path
             d="M 0,0 C 0.485,0.657 1.411,0.797 2.068,0.312 2.724,-0.173 2.864,-1.099 2.379,-1.756 1.895,-2.413 0.969,-2.552 0.312,-2.068 -0.345,-1.583 -0.485,-0.657 0,0"
             style="fill:#231f20;fill-opacity:1;fill-rule:nonzero;stroke:none"
             id="path68" />
        </g>
        <g
           id="g70"
           transform="translate(152.2514,83.8841)">
          <path
             d="M 0,0 C 0.526,0.713 1.53,0.865 2.243,0.339 2.956,-0.187 3.106,-1.191 2.581,-1.904 2.055,-2.616 1.052,-2.767 0.339,-2.242 -0.374,-1.716 -0.525,-0.712 0,0"
             style="fill:#231f20;fill-opacity:1;fill-rule:nonzero;stroke:none"
             id="path72" />
        </g>
        <g
           id="g74"
           transform="translate(144.3295,78.3976)">
          <path
             d="M 0,0 C 0.568,0.769 1.65,0.932 2.418,0.365 3.186,-0.202 3.35,-1.284 2.783,-2.053 2.216,-2.821 1.134,-2.983 0.365,-2.416 -0.402,-1.85 -0.566,-0.768 0,0"
             style="fill:#231f20;fill-opacity:1;fill-rule:nonzero;stroke:none"
             id="path76" />
        </g>
        <g
           id="g78"
           transform="translate(199.5445,48.9898)">
          <path
             d="M 0,0 C 0.134,0.182 0.391,0.22 0.572,0.087 0.754,-0.048 0.792,-0.303 0.658,-0.485 0.524,-0.666 0.268,-0.705 0.087,-0.571 -0.095,-0.437 -0.133,-0.181 0,0"
             style="fill:#231f20;fill-opacity:1;fill-rule:nonzero;stroke:none"
             id="path80" />
        </g>
        <g
           id="g82"
           transform="translate(191.7071,43.4409)">
          <path
             d="M 0,0 C 0.141,0.192 0.41,0.233 0.601,0.091 0.792,-0.049 0.833,-0.318 0.691,-0.51 0.551,-0.7 0.282,-0.741 0.091,-0.6 -0.1,-0.459 -0.14,-0.19 0,0"
             style="fill:#231f20;fill-opacity:1;fill-rule:nonzero;stroke:none"
             id="path84" />
        </g>
        <g
           id="g86"
           transform="translate(199.5755,60.2996)">
          <path
             d="M 0,0 C 0.162,0.219 0.471,0.266 0.691,0.104 0.911,-0.058 0.957,-0.368 0.796,-0.587 0.633,-0.807 0.323,-0.854 0.104,-0.692 -0.116,-0.53 -0.162,-0.22 0,0"
             style="fill:#231f20;fill-opacity:1;fill-rule:nonzero;stroke:none"
             id="path88" />
        </g>
        <g
           id="g90"
           transform="translate(191.708,54.7718)">
          <path
             d="M 0,0 C 0.181,0.246 0.527,0.298 0.772,0.117 1.017,-0.063 1.069,-0.409 0.888,-0.655 0.707,-0.899 0.361,-0.952 0.116,-0.771 -0.129,-0.59 -0.18,-0.244 0,0"
             style="fill:#231f20;fill-opacity:1;fill-rule:nonzero;stroke:none"
             id="path92" />
        </g>
        <g
           id="g94"
           transform="translate(183.8277,49.2546)">
          <path
             d="M 0,0 C 0.205,0.278 0.597,0.338 0.874,0.133 1.152,-0.072 1.211,-0.464 1.006,-0.742 0.802,-1.019 0.41,-1.078 0.132,-0.873 -0.145,-0.668 -0.204,-0.277 0,0"
             style="fill:#231f20;fill-opacity:1;fill-rule:nonzero;stroke:none"
             id="path96" />
        </g>
        <g
           id="g98"
           transform="translate(199.6781,71.5553)">
          <path
             d="M 0,0 C 0.16,0.217 0.467,0.263 0.685,0.103 0.902,-0.058 0.948,-0.365 0.788,-0.582 0.628,-0.799 0.321,-0.846 0.103,-0.685 -0.114,-0.525 -0.161,-0.218 0,0"
             style="fill:#231f20;fill-opacity:1;fill-rule:nonzero;stroke:none"
             id="path100" />
        </g>
        <g
           id="g102"
           transform="translate(191.7802,66.0512)">
          <path
             d="M 0,0 C 0.191,0.259 0.559,0.315 0.819,0.123 1.079,-0.069 1.134,-0.436 0.942,-0.695 0.75,-0.955 0.383,-1.011 0.124,-0.819 -0.136,-0.627 -0.192,-0.26 0,0"
             style="fill:#231f20;fill-opacity:1;fill-rule:nonzero;stroke:none"
             id="path104" />
        </g>
        <g
           id="g106"
           transform="translate(183.8813,60.5466)">
          <path
             d="M 0,0 C 0.224,0.303 0.651,0.367 0.953,0.144 1.256,-0.079 1.32,-0.506 1.096,-0.809 0.874,-1.111 0.447,-1.176 0.144,-0.952 -0.158,-0.729 -0.223,-0.302 0,0"
             style="fill:#231f20;fill-opacity:1;fill-rule:nonzero;stroke:none"
             id="path108" />
        </g>
        <g
           id="g110"
           transform="translate(175.9483,55.0683)">
          <path
             d="M 0,0 C 0.27,0.365 0.783,0.443 1.148,0.173 1.512,-0.095 1.591,-0.609 1.321,-0.975 1.052,-1.339 0.538,-1.416 0.174,-1.148 -0.192,-0.878 -0.268,-0.364 0,0"
             style="fill:#231f20;fill-opacity:1;fill-rule:nonzero;stroke:none"
             id="path112" />
        </g>
        <g
           id="g114"
           transform="translate(200.0368,83.3407)">
          <path
             d="M 0,0 C 0.257,0.348 0.748,0.423 1.097,0.165 1.445,-0.091 1.518,-0.582 1.261,-0.931 1.004,-1.279 0.514,-1.353 0.165,-1.097 -0.183,-0.839 -0.257,-0.348 0,0"
             style="fill:#231f20;fill-opacity:1;fill-rule:nonzero;stroke:none"
             id="path116" />
        </g>
        <g
           id="g118"
           transform="translate(192.1492,77.8531)">
          <path
             d="M 0,0 C 0.291,0.395 0.847,0.478 1.241,0.188 1.635,-0.103 1.719,-0.659 1.428,-1.053 1.137,-1.447 0.582,-1.531 0.187,-1.24 -0.207,-0.95 -0.29,-0.394 0,0"
             style="fill:#231f20;fill-opacity:1;fill-rule:nonzero;stroke:none"
             id="path120" />
        </g>
        <g
           id="g122"
           transform="translate(184.2342,72.3858)">
          <path
             d="M 0,0 C 0.336,0.455 0.978,0.552 1.433,0.216 1.888,-0.12 1.985,-0.762 1.649,-1.217 1.314,-1.672 0.672,-1.769 0.216,-1.433 -0.239,-1.097 -0.336,-0.455 0,0"
             style="fill:#231f20;fill-opacity:1;fill-rule:nonzero;stroke:none"
             id="path124" />
        </g>
        <g
           id="g126"
           transform="translate(176.3185,66.9192)">
          <path
             d="M 0,0 C 0.381,0.516 1.109,0.626 1.626,0.245 2.142,-0.136 2.253,-0.865 1.872,-1.381 1.49,-1.898 0.762,-2.007 0.245,-1.626 -0.272,-1.245 -0.382,-0.517 0,0"
             style="fill:#231f20;fill-opacity:1;fill-rule:nonzero;stroke:none"
             id="path128" />
        </g>
        <g
           id="g130"
           transform="translate(168.3949,61.4569)">
          <path
             d="M 0,0 C 0.43,0.583 1.251,0.707 1.833,0.277 2.416,-0.152 2.539,-0.973 2.109,-1.556 1.68,-2.138 0.859,-2.261 0.277,-1.832 -0.305,-1.402 -0.43,-0.582 0,0"
             style="fill:#231f20;fill-opacity:1;fill-rule:nonzero;stroke:none"
             id="path132" />
        </g>
        <g
           id="g134"
           transform="translate(199.6962,94.2037)">
          <path
             d="M 0,0 C 0.234,0.317 0.68,0.385 0.997,0.151 1.315,-0.083 1.382,-0.53 1.148,-0.847 0.915,-1.163 0.468,-1.231 0.15,-0.997 -0.167,-0.763 -0.233,-0.316 0,0"
             style="fill:#231f20;fill-opacity:1;fill-rule:nonzero;stroke:none"
             id="path136" />
        </g>
        <g
           id="g138"
           transform="translate(191.7562,88.7306)">
          <path
             d="M 0,0 C 0.283,0.383 0.822,0.464 1.204,0.182 1.586,-0.1 1.668,-0.639 1.385,-1.022 1.104,-1.404 0.564,-1.486 0.182,-1.204 -0.2,-0.921 -0.282,-0.382 0,0"
             style="fill:#231f20;fill-opacity:1;fill-rule:nonzero;stroke:none"
             id="path140" />
        </g>
        <g
           id="g142"
           transform="translate(183.8113,83.2624)">
          <path
             d="M 0,0 C 0.333,0.451 0.97,0.548 1.42,0.216 1.872,-0.118 1.967,-0.755 1.635,-1.206 1.301,-1.658 0.665,-1.754 0.213,-1.42 -0.237,-1.088 -0.333,-0.452 0,0"
             style="fill:#231f20;fill-opacity:1;fill-rule:nonzero;stroke:none"
             id="path144" />
        </g>
        <g
           id="g146"
           transform="translate(175.8407,77.8118)">
          <path
             d="M 0,0 C 0.394,0.534 1.145,0.648 1.68,0.253 2.214,-0.141 2.328,-0.892 1.934,-1.427 1.54,-1.961 0.788,-2.074 0.253,-1.68 -0.281,-1.285 -0.394,-0.534 0,0"
             style="fill:#231f20;fill-opacity:1;fill-rule:nonzero;stroke:none"
             id="path148" />
        </g>
        <g
           id="g150"
           transform="translate(167.853,72.3727)">
          <path
             d="M 0,0 C 0.462,0.626 1.344,0.759 1.969,0.297 2.594,-0.164 2.727,-1.045 2.265,-1.671 1.804,-2.296 0.923,-2.429 0.298,-1.968 -0.327,-1.506 -0.461,-0.625 0,0"
             style="fill:#231f20;fill-opacity:1;fill-rule:nonzero;stroke:none"
             id="path152" />
        </g>
        <g
           id="g154"
           transform="translate(159.843,66.9512)">
          <path
             d="M 0,0 C 0.539,0.731 1.567,0.885 2.296,0.347 3.026,-0.191 3.182,-1.219 2.643,-1.95 2.105,-2.679 1.076,-2.834 0.346,-2.296 -0.383,-1.758 -0.538,-0.729 0,0"
             style="fill:#231f20;fill-opacity:1;fill-rule:nonzero;stroke:none"
             id="path156" />
        </g>
        <g
           id="g158"
           transform="translate(199.2723,37.8591)">
          <path
             d="M 0,0 C 0.141,0.192 0.41,0.233 0.601,0.091 0.792,-0.049 0.833,-0.318 0.691,-0.51 0.551,-0.7 0.282,-0.741 0.091,-0.6 -0.1,-0.459 -0.14,-0.19 0,0"
             style="fill:#231f20;fill-opacity:1;fill-rule:nonzero;stroke:none"
             id="path160" />
        </g>
        <g
           id="g162"
           transform="translate(207.3606,111.0606)">
          <path
             d="M 0,0 C 0.329,0.446 0.957,0.54 1.403,0.212 1.848,-0.117 1.943,-0.745 1.614,-1.191 1.285,-1.637 0.657,-1.732 0.211,-1.403 -0.235,-1.075 -0.329,-0.446 0,0"
             style="fill:#231f20;fill-opacity:1;fill-rule:nonzero;stroke:none"
             id="path164" />
        </g>
        <g
           id="g166"
           transform="translate(207.4654,122.3134)">
          <path
             d="M 0,0 C 0.327,0.443 0.949,0.536 1.392,0.209 1.834,-0.116 1.928,-0.738 1.601,-1.182 1.276,-1.623 0.652,-1.718 0.211,-1.392 -0.232,-1.065 -0.326,-0.442 0,0"
             style="fill:#231f20;fill-opacity:1;fill-rule:nonzero;stroke:none"
             id="path168" />
        </g>
        <g
           id="g170"
           transform="translate(207.3426,54.4152)">
          <path
             d="M 0,0 C 0.134,0.182 0.391,0.22 0.572,0.087 0.754,-0.048 0.792,-0.303 0.658,-0.485 0.524,-0.666 0.268,-0.705 0.087,-0.571 -0.095,-0.437 -0.133,-0.181 0,0"
             style="fill:#231f20;fill-opacity:1;fill-rule:nonzero;stroke:none"
             id="path172" />
        </g>
        <g
           id="g174"
           transform="translate(207.3735,65.725)">
          <path
             d="M 0,0 C 0.162,0.219 0.471,0.266 0.691,0.104 0.911,-0.058 0.957,-0.368 0.796,-0.587 0.633,-0.807 0.323,-0.854 0.104,-0.692 -0.116,-0.53 -0.162,-0.22 0,0"
             style="fill:#231f20;fill-opacity:1;fill-rule:nonzero;stroke:none"
             id="path176" />
        </g>
        <g
           id="g178"
           transform="translate(207.4762,76.9808)">
          <path
             d="M 0,0 C 0.16,0.217 0.467,0.263 0.684,0.103 0.902,-0.058 0.948,-0.365 0.788,-0.582 0.628,-0.799 0.321,-0.846 0.103,-0.685 -0.114,-0.525 -0.161,-0.218 0,0"
             style="fill:#231f20;fill-opacity:1;fill-rule:nonzero;stroke:none"
             id="path180" />
        </g>
        <g
           id="g182"
           transform="translate(207.8349,88.7661)">
          <path
             d="M 0,0 C 0.257,0.348 0.748,0.423 1.097,0.165 1.445,-0.091 1.518,-0.582 1.261,-0.931 1.004,-1.279 0.514,-1.353 0.165,-1.097 -0.183,-0.839 -0.257,-0.348 0,0"
             style="fill:#231f20;fill-opacity:1;fill-rule:nonzero;stroke:none"
             id="path184" />
        </g>
        <g
           id="g186"
           transform="translate(207.4943,99.6292)">
          <path
             d="M 0,0 C 0.234,0.317 0.68,0.385 0.998,0.151 1.315,-0.083 1.382,-0.53 1.148,-0.847 0.915,-1.163 0.468,-1.231 0.15,-0.997 -0.167,-0.763 -0.233,-0.316 0,0"
             style="fill:#231f20;fill-opacity:1;fill-rule:nonzero;stroke:none"
             id="path188" />
        </g>
        <g
           id="g190"
           transform="translate(207.0704,43.2846)">
          <path
             d="M 0,0 C 0.141,0.192 0.41,0.233 0.601,0.091 0.792,-0.049 0.833,-0.318 0.691,-0.51 0.551,-0.7 0.282,-0.741 0.091,-0.6 -0.1,-0.459 -0.14,-0.19 0,0"
             style="fill:#231f20;fill-opacity:1;fill-rule:nonzero;stroke:none"
             id="path192" />
        </g>
        <g
           id="g194"
           transform="translate(206.8182,32.121)">
          <path
             d="M 0,0 C 0.141,0.192 0.41,0.233 0.601,0.091 0.792,-0.049 0.833,-0.318 0.691,-0.51 0.551,-0.7 0.282,-0.741 0.091,-0.6 -0.1,-0.459 -0.14,-0.19 0,0"
             style="fill:#231f20;fill-opacity:1;fill-rule:nonzero;stroke:none"
             id="path196" />
        </g>
      </g>
    </g>
  </g>
</svg>
